0
SECTION
2
HEADER
9
$ACADVER
1
AC1027
0
ENDSEC
0
SECTION
2
TABLES
0
TABLE
2
LAYER
70
10
0
LAYER
2
REFERENCE_STROKES
70
0
62
8
6
CONTINUOUS
0
LAYER
2
REFERENCE_BASE
70
0
62
9
6
CONTINUOUS
0
LAYER
2
ROOMS
70
0
62
3
6
CONTINUOUS
0
LAYER
2
HALLWAYS
70
0
62
4
6
CONTINUOUS
0
LAYER
2
WALLS
70
0
62
7
6
CONTINUOUS
0
LAYER
2
DOORS
70
0
62
2
6
CONTINUOUS
0
LAYER
2
STAIRS
70
0
62
6
6
CONTINUOUS
0
LAYER
2
ROOM_LABELS
70
0
62
1
6
CONTINUOUS
0
LAYER
2
PLACE_LABELS
70
0
62
5
6
CONTINUOUS
0
LAYER
2
PINS
70
0
62
30
6
CONTINUOUS
0
ENDTAB
0
ENDSEC
0
SECTION
2
ENTITIES
999
CAMPUS_MAP_META {"id":"f1-1629","label":"Room 1629","roomNumber":"1629","kind":"Classroom","importance":"normal"}
0
LWPOLYLINE
100
AcDbEntity
8
ROOMS
100
AcDbPolyline
90
4
70
1
10
-682
20
-535
10
-596
20
-535
10
-596
20
-445
10
-682
20
-445
999
CAMPUS_MAP_META {"roomId":"f1-1629","roomNumber":"1629"}
0
TEXT
100
AcDbEntity
8
ROOM_LABELS
100
AcDbText
10
-639
20
-490
40
20
1
1629
50
0
999
CAMPUS_MAP_META {"id":"f1-1627","label":"Room 1627","roomNumber":"1627","kind":"Classroom","importance":"normal"}
0
LWPOLYLINE
100
AcDbEntity
8
ROOMS
100
AcDbPolyline
90
4
70
1
10
-586
20
-535
10
-502
20
-535
10
-502
20
-445
10
-586
20
-445
999
CAMPUS_MAP_META {"roomId":"f1-1627","roomNumber":"1627"}
0
TEXT
100
AcDbEntity
8
ROOM_LABELS
100
AcDbText
10
-544
20
-490
40
20
1
1627
50
0
999
CAMPUS_MAP_META {"id":"f1-1625","label":"Room 1625","roomNumber":"1625","kind":"Classroom","importance":"normal"}
0
LWPOLYLINE
100
AcDbEntity
8
ROOMS
100
AcDbPolyline
90
4
70
1
10
-492
20
-535
10
-408
20
-535
10
-408
20
-445
10
-492
20
-445
999
CAMPUS_MAP_META {"roomId":"f1-1625","roomNumber":"1625"}
0
TEXT
100
AcDbEntity
8
ROOM_LABELS
100
AcDbText
10
-450
20
-490
40
20
1
1625
50
0
999
CAMPUS_MAP_META {"id":"f1-1623","label":"Room 1623","roomNumber":"1623","kind":"Classroom","importance":"normal"}
0
LWPOLYLINE
100
AcDbEntity
8
ROOMS
100
AcDbPolyline
90
4
70
1
10
-398
20
-535
10
-276
20
-535
10
-276
20
-445
10
-398
20
-445
999
CAMPUS_MAP_META {"roomId":"f1-1623","roomNumber":"1623"}
0
TEXT
100
AcDbEntity
8
ROOM_LABELS
100
AcDbText
10
-337
20
-490
40
20
1
1623
50
0
999
CAMPUS_MAP_META {"id":"f1-1621","label":"Room 1621","roomNumber":"1621","kind":"Classroom","importance":"normal"}
0
LWPOLYLINE
100
AcDbEntity
8
ROOMS
100
AcDbPolyline
90
4
70
1
10
-185
20
-535
10
-10
20
-535
10
-10
20
-445
10
-185
20
-445
999
CAMPUS_MAP_META {"roomId":"f1-1621","roomNumber":"1621"}
0
TEXT
100
AcDbEntity
8
ROOM_LABELS
100
AcDbText
10
-97.5
20
-490
40
20
1
1621
50
0
999
CAMPUS_MAP_META {"id":"f1-1619","label":"Room 1619","roomNumber":"1619","kind":"Classroom","importance":"normal"}
0
LWPOLYLINE
100
AcDbEntity
8
ROOMS
100
AcDbPolyline
90
4
70
1
10
100
20
-535
10
250
20
-535
10
250
20
-445
10
100
20
-445
999
CAMPUS_MAP_META {"roomId":"f1-1619","roomNumber":"1619"}
0
TEXT
100
AcDbEntity
8
ROOM_LABELS
100
AcDbText
10
175
20
-490
40
20
1
1619
50
0
999
CAMPUS_MAP_META {"id":"f1-1617","label":"Room 1617","roomNumber":"1617","kind":"Classroom","importance":"normal"}
0
LWPOLYLINE
100
AcDbEntity
8
ROOMS
100
AcDbPolyline
90
4
70
1
10
260
20
-535
10
450
20
-535
10
450
20
-445
10
260
20
-445
999
CAMPUS_MAP_META {"roomId":"f1-1617","roomNumber":"1617"}
0
TEXT
100
AcDbEntity
8
ROOM_LABELS
100
AcDbText
10
355
20
-490
40
20
1
1617
50
0
999
CAMPUS_MAP_META {"id":"f1-1634","label":"Room 1634","roomNumber":"1634","kind":"Classroom","importance":"normal"}
0
LWPOLYLINE
100
AcDbEntity
8
ROOMS
100
AcDbPolyline
90
4
70
1
10
-704
20
-385
10
-584
20
-385
10
-584
20
-317
10
-704
20
-317
999
CAMPUS_MAP_META {"roomId":"f1-1634","roomNumber":"1634"}
0
TEXT
100
AcDbEntity
8
ROOM_LABELS
100
AcDbText
10
-644
20
-351
40
20
1
1634
50
0
999
CAMPUS_MAP_META {"id":"f1-1640","label":"Room 1640","roomNumber":"1640","kind":"Classroom","importance":"normal"}
0
LWPOLYLINE
100
AcDbEntity
8
ROOMS
100
AcDbPolyline
90
4
70
1
10
-704
20
-305
10
-584
20
-305
10
-584
20
-235
10
-704
20
-235
999
CAMPUS_MAP_META {"roomId":"f1-1640","roomNumber":"1640"}
0
TEXT
100
AcDbEntity
8
ROOM_LABELS
100
AcDbText
10
-644
20
-270
40
20
1
1640
50
0
999
CAMPUS_MAP_META {"id":"f1-1626","label":"Room 1626","roomNumber":"1626","kind":"Classroom","importance":"normal"}
0
LWPOLYLINE
100
AcDbEntity
8
ROOMS
100
AcDbPolyline
90
4
70
1
10
-510
20
-370
10
-440
20
-370
10
-440
20
-312
10
-510
20
-312
999
CAMPUS_MAP_META {"roomId":"f1-1626","roomNumber":"1626"}
0
TEXT
100
AcDbEntity
8
ROOM_LABELS
100
AcDbText
10
-475
20
-341
40
20
1
1626
50
0
999
CAMPUS_MAP_META {"id":"f1-1628","label":"Room 1628","roomNumber":"1628","kind":"Classroom","importance":"normal"}
0
LWPOLYLINE
100
AcDbEntity
8
ROOMS
100
AcDbPolyline
90
4
70
1
10
-510
20
-435
10
-438
20
-435
10
-438
20
-385
10
-510
20
-385
999
CAMPUS_MAP_META {"roomId":"f1-1628","roomNumber":"1628"}
0
TEXT
100
AcDbEntity
8
ROOM_LABELS
100
AcDbText
10
-474
20
-410
40
20
1
1628
50
0
999
CAMPUS_MAP_META {"id":"f1-1642","label":"1642 Auxiliary Gym","roomNumber":"1642","kind":"Major zone","importance":"major"}
0
LWPOLYLINE
100
AcDbEntity
8
ROOMS
100
AcDbPolyline
90
4
70
1
10
-700
20
-225
10
-430
20
-225
10
-430
20
75
10
-700
20
75
999
CAMPUS_MAP_META {"roomId":"f1-1642","roomNumber":"1642"}
0
TEXT
100
AcDbEntity
8
ROOM_LABELS
100
AcDbText
10
-565
20
-75
40
30
1
1642
50
0
999
CAMPUS_MAP_META {"id":"f1-1631","label":"Room 1631","roomNumber":"1631","kind":"Classroom","importance":"normal"}
0
LWPOLYLINE
100
AcDbEntity
8
ROOMS
100
AcDbPolyline
90
4
70
1
10
-305
20
-365
10
-237
20
-365
10
-237
20
-307
10
-305
20
-307
999
CAMPUS_MAP_META {"roomId":"f1-1631","roomNumber":"1631"}
0
TEXT
100
AcDbEntity
8
ROOM_LABELS
100
AcDbText
10
-271
20
-336
40
20
1
1631
50
0
999
CAMPUS_MAP_META {"id":"f1-1633","label":"Room 1633","roomNumber":"1633","kind":"Classroom","importance":"normal"}
0
LWPOLYLINE
100
AcDbEntity
8
ROOMS
100
AcDbPolyline
90
4
70
1
10
-305
20
-300
10
-237
20
-300
10
-237
20
-242
10
-305
20
-242
999
CAMPUS_MAP_META {"roomId":"f1-1633","roomNumber":"1633"}
0
TEXT
100
AcDbEntity
8
ROOM_LABELS
100
AcDbText
10
-271
20
-271
40
20
1
1633
50
0
999
CAMPUS_MAP_META {"id":"f1-1635","label":"Room 1635","roomNumber":"1635","kind":"Classroom","importance":"normal"}
0
LWPOLYLINE
100
AcDbEntity
8
ROOMS
100
AcDbPolyline
90
4
70
1
10
-305
20
-232
10
-241
20
-232
10
-241
20
-146
10
-305
20
-146
999
CAMPUS_MAP_META {"roomId":"f1-1635","roomNumber":"1635"}
0
TEXT
100
AcDbEntity
8
ROOM_LABELS
100
AcDbText
10
-273
20
-189
40
20
1
1635
50
0
999
CAMPUS_MAP_META {"id":"f1-1637","label":"Room 1637","roomNumber":"1637","kind":"Classroom","importance":"normal"}
0
LWPOLYLINE
100
AcDbEntity
8
ROOMS
100
AcDbPolyline
90
4
70
1
10
-305
20
-140
10
-241
20
-140
10
-241
20
-52
10
-305
20
-52
999
CAMPUS_MAP_META {"roomId":"f1-1637","roomNumber":"1637"}
0
TEXT
100
AcDbEntity
8
ROOM_LABELS
100
AcDbText
10
-273
20
-96
40
20
1
1637
50
0
999
CAMPUS_MAP_META {"id":"f1-1639","label":"Room 1639","roomNumber":"1639","kind":"Classroom","importance":"normal"}
0
LWPOLYLINE
100
AcDbEntity
8
ROOMS
100
AcDbPolyline
90
4
70
1
10
-252
20
-10
10
-156
20
-10
10
-156
20
38
10
-252
20
38
999
CAMPUS_MAP_META {"roomId":"f1-1639","roomNumber":"1639"}
0
TEXT
100
AcDbEntity
8
ROOM_LABELS
100
AcDbText
10
-204
20
14
40
20
1
1639
50
0
999
CAMPUS_MAP_META {"id":"f1-1641","label":"Room 1641","roomNumber":"1641","kind":"Classroom","importance":"normal"}
0
LWPOLYLINE
100
AcDbEntity
8
ROOMS
100
AcDbPolyline
90
4
70
1
10
-120
20
-10
10
-22
20
-10
10
-22
20
38
10
-120
20
38
999
CAMPUS_MAP_META {"roomId":"f1-1641","roomNumber":"1641"}
0
TEXT
100
AcDbEntity
8
ROOM_LABELS
100
AcDbText
10
-71
20
14
40
20
1
1641
50
0
999
CAMPUS_MAP_META {"id":"f1-1601","label":"1601 Gym","roomNumber":"1601","kind":"Major zone","importance":"major"}
0
LWPOLYLINE
100
AcDbEntity
8
ROOMS
100
AcDbPolyline
90
4
70
1
10
-210
20
-405
10
180
20
-405
10
180
20
-120
10
-210
20
-120
999
CAMPUS_MAP_META {"roomId":"f1-1601","roomNumber":"1601"}
0
TEXT
100
AcDbEntity
8
ROOM_LABELS
100
AcDbText
10
-15
20
-262.5
40
30
1
1601
50
0
999
CAMPUS_MAP_META {"id":"f1-1602","label":"Room 1602","roomNumber":"1602","kind":"Support","importance":"normal"}
0
LWPOLYLINE
100
AcDbEntity
8
ROOMS
100
AcDbPolyline
90
4
70
1
10
-18
20
-104
10
30
20
-104
10
30
20
-62
10
-18
20
-62
999
CAMPUS_MAP_META {"roomId":"f1-1602","roomNumber":"1602"}
0
TEXT
100
AcDbEntity
8
ROOM_LABELS
100
AcDbText
10
6
20
-83
40
20
1
1602
50
0
999
CAMPUS_MAP_META {"id":"f1-1601a","label":"Room 1601A","roomNumber":"1601A","kind":"Support","importance":"normal"}
0
LWPOLYLINE
100
AcDbEntity
8
ROOMS
100
AcDbPolyline
90
4
70
1
10
130
20
-100
10
258
20
-100
10
258
20
-48
10
130
20
-48
999
CAMPUS_MAP_META {"roomId":"f1-1601a","roomNumber":"1601A"}
0
TEXT
100
AcDbEntity
8
ROOM_LABELS
100
AcDbText
10
194
20
-74
40
20
1
1601A
50
0
999
CAMPUS_MAP_META {"id":"f1-1603","label":"Room 1603","roomNumber":"1603","kind":"Support","importance":"normal"}
0
LWPOLYLINE
100
AcDbEntity
8
ROOMS
100
AcDbPolyline
90
4
70
1
10
280
20
-104
10
316
20
-104
10
316
20
-46
10
280
20
-46
999
CAMPUS_MAP_META {"roomId":"f1-1603","roomNumber":"1603"}
0
TEXT
100
AcDbEntity
8
ROOM_LABELS
100
AcDbText
10
298
20
-75
40
20
1
1603
50
0
999
CAMPUS_MAP_META {"id":"f1-1614","label":"Room 1614","roomNumber":"1614","kind":"Classroom","importance":"normal"}
0
LWPOLYLINE
100
AcDbEntity
8
ROOMS
100
AcDbPolyline
90
4
70
1
10
438
20
-385
10
548
20
-385
10
548
20
-325
10
438
20
-325
999
CAMPUS_MAP_META {"roomId":"f1-1614","roomNumber":"1614"}
0
TEXT
100
AcDbEntity
8
ROOM_LABELS
100
AcDbText
10
493
20
-355
40
20
1
1614
50
0
999
CAMPUS_MAP_META {"id":"f1-1616","label":"Room 1616","roomNumber":"1616","kind":"Support","importance":"normal"}
0
LWPOLYLINE
100
AcDbEntity
8
ROOMS
100
AcDbPolyline
90
4
70
1
10
552
20
-405
10
596
20
-405
10
596
20
-327
10
552
20
-327
999
CAMPUS_MAP_META {"roomId":"f1-1616","roomNumber":"1616"}
0
TEXT
100
AcDbEntity
8
ROOM_LABELS
100
AcDbText
10
574
20
-366
40
20
1
1616
50
0
999
CAMPUS_MAP_META {"id":"f1-1608","label":"Room 1608","roomNumber":"1608","kind":"Classroom","importance":"normal"}
0
LWPOLYLINE
100
AcDbEntity
8
ROOMS
100
AcDbPolyline
90
4
70
1
10
438
20
-312
10
588
20
-312
10
588
20
-238
10
438
20
-238
999
CAMPUS_MAP_META {"roomId":"f1-1608","roomNumber":"1608"}
0
TEXT
100
AcDbEntity
8
ROOM_LABELS
100
AcDbText
10
513
20
-275
40
20
1
1608
50
0
999
CAMPUS_MAP_META {"id":"f1-1606","label":"Room 1606","roomNumber":"1606","kind":"Classroom","importance":"normal"}
0
LWPOLYLINE
100
AcDbEntity
8
ROOMS
100
AcDbPolyline
90
4
70
1
10
438
20
-225
10
588
20
-225
10
588
20
-149
10
438
20
-149
999
CAMPUS_MAP_META {"roomId":"f1-1606","roomNumber":"1606"}
0
TEXT
100
AcDbEntity
8
ROOM_LABELS
100
AcDbText
10
513
20
-187
40
20
1
1606
50
0
999
CAMPUS_MAP_META {"id":"f1-1604","label":"Room 1604","roomNumber":"1604","kind":"Classroom","importance":"normal"}
0
LWPOLYLINE
100
AcDbEntity
8
ROOMS
100
AcDbPolyline
90
4
70
1
10
438
20
-135
10
588
20
-135
10
588
20
-49
10
438
20
-49
999
CAMPUS_MAP_META {"roomId":"f1-1604","roomNumber":"1604"}
0
TEXT
100
AcDbEntity
8
ROOM_LABELS
100
AcDbText
10
513
20
-92
40
20
1
1604
50
0
999
CAMPUS_MAP_META {"id":"f1-1408","label":"Room 1408","roomNumber":"1408","kind":"Support","importance":"normal"}
0
LWPOLYLINE
100
AcDbEntity
8
ROOMS
100
AcDbPolyline
90
4
70
1
10
418
20
15
10
476
20
15
10
476
20
61
10
418
20
61
999
CAMPUS_MAP_META {"roomId":"f1-1408","roomNumber":"1408"}
0
TEXT
100
AcDbEntity
8
ROOM_LABELS
100
AcDbText
10
447
20
38
40
20
1
1408
50
0
999
CAMPUS_MAP_META {"id":"f1-1410a","label":"Room 1410A","roomNumber":"1410A","kind":"Support","importance":"normal"}
0
LWPOLYLINE
100
AcDbEntity
8
ROOMS
100
AcDbPolyline
90
4
70
1
10
506
20
96
10
601
20
96
10
601
20
170
10
506
20
170
999
CAMPUS_MAP_META {"roomId":"f1-1410a","roomNumber":"1410A"}
0
TEXT
100
AcDbEntity
8
ROOM_LABELS
100
AcDbText
10
553.5
20
133
40
20
1
1410A
50
0
999
CAMPUS_MAP_META {"id":"f1-1410d","label":"Room 1410D","roomNumber":"1410D","kind":"Support","importance":"normal"}
0
LWPOLYLINE
100
AcDbEntity
8
ROOMS
100
AcDbPolyline
90
4
70
1
10
455
20
126
10
521
20
126
10
521
20
196
10
455
20
196
999
CAMPUS_MAP_META {"roomId":"f1-1410d","roomNumber":"1410D"}
0
TEXT
100
AcDbEntity
8
ROOM_LABELS
100
AcDbText
10
488
20
161
40
20
1
1410D
50
0
999
CAMPUS_MAP_META {"id":"f1-1404","label":"Room 1404","roomNumber":"1404","kind":"Support","importance":"normal"}
0
LWPOLYLINE
100
AcDbEntity
8
ROOMS
100
AcDbPolyline
90
4
70
1
10
360
20
98
10
435
20
98
10
435
20
141
10
360
20
141
999
CAMPUS_MAP_META {"roomId":"f1-1404","roomNumber":"1404"}
0
TEXT
100
AcDbEntity
8
ROOM_LABELS
100
AcDbText
10
397.5
20
119.5
40
20
1
1404
50
0
999
CAMPUS_MAP_META {"id":"f1-1403","label":"Room 1403","roomNumber":"1403","kind":"Support","importance":"normal"}
0
LWPOLYLINE
100
AcDbEntity
8
ROOMS
100
AcDbPolyline
90
4
70
1
10
310
20
188
10
368
20
188
10
368
20
232
10
310
20
232
999
CAMPUS_MAP_META {"roomId":"f1-1403","roomNumber":"1403"}
0
TEXT
100
AcDbEntity
8
ROOM_LABELS
100
AcDbText
10
339
20
210
40
20
1
1403
50
0
999
CAMPUS_MAP_META {"id":"f1-1405","label":"Room 1405","roomNumber":"1405","kind":"Support","importance":"normal"}
0
LWPOLYLINE
100
AcDbEntity
8
ROOMS
100
AcDbPolyline
90
4
70
1
10
378
20
188
10
436
20
188
10
436
20
232
10
378
20
232
999
CAMPUS_MAP_META {"roomId":"f1-1405","roomNumber":"1405"}
0
TEXT
100
AcDbEntity
8
ROOM_LABELS
100
AcDbText
10
407
20
210
40
20
1
1405
50
0
999
CAMPUS_MAP_META {"id":"f1-1407","label":"Room 1407","roomNumber":"1407","kind":"Support","importance":"normal"}
0
LWPOLYLINE
100
AcDbEntity
8
ROOMS
100
AcDbPolyline
90
4
70
1
10
446
20
188
10
504
20
188
10
504
20
232
10
446
20
232
999
CAMPUS_MAP_META {"roomId":"f1-1407","roomNumber":"1407"}
0
TEXT
100
AcDbEntity
8
ROOM_LABELS
100
AcDbText
10
475
20
210
40
20
1
1407
50
0
999
CAMPUS_MAP_META {"id":"f1-1501","label":"1501 Cafeteria","roomNumber":"1501","kind":"Major zone","importance":"major"}
0
LWPOLYLINE
100
AcDbEntity
8
ROOMS
100
AcDbPolyline
90
4
70
1
10
-315
20
92
10
90
20
92
10
90
20
377
10
-315
20
377
999
CAMPUS_MAP_META {"roomId":"f1-1501","roomNumber":"1501"}
0
TEXT
100
AcDbEntity
8
ROOM_LABELS
100
AcDbText
10
-112.5
20
234.5
40
30
1
1501
50
0
999
CAMPUS_MAP_META {"id":"f1-1209","label":"1209 Auditorium","roomNumber":"1209","kind":"Major zone","importance":"major"}
0
LWPOLYLINE
100
AcDbEntity
8
ROOMS
100
AcDbPolyline
90
4
70
1
10
235
20
210
10
535
20
210
10
535
20
480
10
235
20
480
999
CAMPUS_MAP_META {"roomId":"f1-1209","roomNumber":"1209"}
0
TEXT
100
AcDbEntity
8
ROOM_LABELS
100
AcDbText
10
385
20
345
40
30
1
1209
50
0
999
CAMPUS_MAP_META {"id":"f1-1201","label":"Room 1201","roomNumber":"1201","kind":"Support","importance":"normal"}
0
LWPOLYLINE
100
AcDbEntity
8
ROOMS
100
AcDbPolyline
90
4
70
1
10
210
20
112
10
260
20
96
10
292
20
164
10
238
20
185
999
CAMPUS_MAP_META {"roomId":"f1-1201","roomNumber":"1201"}
0
TEXT
100
AcDbEntity
8
ROOM_LABELS
100
AcDbText
10
250
20
139.25
40
20
1
1201
50
0
999
CAMPUS_MAP_META {"id":"f1-1203","label":"Room 1203","roomNumber":"1203","kind":"Support","importance":"normal"}
0
LWPOLYLINE
100
AcDbEntity
8
ROOMS
100
AcDbPolyline
90
4
70
1
10
235
20
450
10
288
20
432
10
306
20
488
10
252
20
508
999
CAMPUS_MAP_META {"roomId":"f1-1203","roomNumber":"1203"}
0
TEXT
100
AcDbEntity
8
ROOM_LABELS
100
AcDbText
10
270.25
20
469.5
40
20
1
1203
50
0
999
CAMPUS_MAP_META {"id":"f1-1230","label":"Room 1230","roomNumber":"1230","kind":"Classroom","importance":"normal"}
0
LWPOLYLINE
100
AcDbEntity
8
ROOMS
100
AcDbPolyline
90
4
70
1
10
615
20
205
10
707
20
205
10
707
20
380
10
615
20
380
999
CAMPUS_MAP_META {"roomId":"f1-1230","roomNumber":"1230"}
0
TEXT
100
AcDbEntity
8
ROOM_LABELS
100
AcDbText
10
661
20
292.5
40
20
1
1230
50
0
999
CAMPUS_MAP_META {"id":"f1-1228","label":"Room 1228","roomNumber":"1228","kind":"Classroom","importance":"normal"}
0
LWPOLYLINE
100
AcDbEntity
8
ROOMS
100
AcDbPolyline
90
4
70
1
10
615
20
397
10
707
20
397
10
707
20
507
10
615
20
507
999
CAMPUS_MAP_META {"roomId":"f1-1228","roomNumber":"1228"}
0
TEXT
100
AcDbEntity
8
ROOM_LABELS
100
AcDbText
10
661
20
452
40
20
1
1228
50
0
999
CAMPUS_MAP_META {"id":"f1-1222","label":"Room 1222","roomNumber":"1222","kind":"Classroom","importance":"normal"}
0
LWPOLYLINE
100
AcDbEntity
8
ROOMS
100
AcDbPolyline
90
4
70
1
10
615
20
530
10
707
20
530
10
707
20
628
10
615
20
628
999
CAMPUS_MAP_META {"roomId":"f1-1222","roomNumber":"1222"}
0
TEXT
100
AcDbEntity
8
ROOM_LABELS
100
AcDbText
10
661
20
579
40
20
1
1222
50
0
999
CAMPUS_MAP_META {"id":"f1-1145","label":"Room 1145","roomNumber":"1145","kind":"Classroom","importance":"normal"}
0
LWPOLYLINE
100
AcDbEntity
8
ROOMS
100
AcDbPolyline
90
4
70
1
10
-430
20
560
10
-346
20
560
10
-346
20
628
10
-430
20
628
999
CAMPUS_MAP_META {"roomId":"f1-1145","roomNumber":"1145"}
0
TEXT
100
AcDbEntity
8
ROOM_LABELS
100
AcDbText
10
-388
20
594
40
20
1
1145
50
0
999
CAMPUS_MAP_META {"id":"f1-1147","label":"Room 1147","roomNumber":"1147","kind":"Classroom","importance":"normal"}
0
LWPOLYLINE
100
AcDbEntity
8
ROOMS
100
AcDbPolyline
90
4
70
1
10
-430
20
635
10
-346
20
635
10
-346
20
703
10
-430
20
703
999
CAMPUS_MAP_META {"roomId":"f1-1147","roomNumber":"1147"}
0
TEXT
100
AcDbEntity
8
ROOM_LABELS
100
AcDbText
10
-388
20
669
40
20
1
1147
50
0
999
CAMPUS_MAP_META {"id":"f1-1149","label":"Room 1149","roomNumber":"1149","kind":"Classroom","importance":"normal"}
0
LWPOLYLINE
100
AcDbEntity
8
ROOMS
100
AcDbPolyline
90
4
70
1
10
-330
20
635
10
-256
20
635
10
-256
20
703
10
-330
20
703
999
CAMPUS_MAP_META {"roomId":"f1-1149","roomNumber":"1149"}
0
TEXT
100
AcDbEntity
8
ROOM_LABELS
100
AcDbText
10
-293
20
669
40
20
1
1149
50
0
999
CAMPUS_MAP_META {"id":"f1-1151","label":"Room 1151","roomNumber":"1151","kind":"Classroom","importance":"normal"}
0
LWPOLYLINE
100
AcDbEntity
8
ROOMS
100
AcDbPolyline
90
4
70
1
10
-170
20
560
10
-78
20
560
10
-78
20
630
10
-170
20
630
999
CAMPUS_MAP_META {"roomId":"f1-1151","roomNumber":"1151"}
0
TEXT
100
AcDbEntity
8
ROOM_LABELS
100
AcDbText
10
-124
20
595
40
20
1
1151
50
0
999
CAMPUS_MAP_META {"id":"f1-1153","label":"Room 1153","roomNumber":"1153","kind":"Classroom","importance":"normal"}
0
LWPOLYLINE
100
AcDbEntity
8
ROOMS
100
AcDbPolyline
90
4
70
1
10
-170
20
640
10
-78
20
640
10
-78
20
710
10
-170
20
710
999
CAMPUS_MAP_META {"roomId":"f1-1153","roomNumber":"1153"}
0
TEXT
100
AcDbEntity
8
ROOM_LABELS
100
AcDbText
10
-124
20
675
40
20
1
1153
50
0
999
CAMPUS_MAP_META {"id":"f1-1155","label":"Room 1155","roomNumber":"1155","kind":"Classroom","importance":"normal"}
0
LWPOLYLINE
100
AcDbEntity
8
ROOMS
100
AcDbPolyline
90
4
70
1
10
-68
20
640
10
42
20
640
10
42
20
710
10
-68
20
710
999
CAMPUS_MAP_META {"roomId":"f1-1155","roomNumber":"1155"}
0
TEXT
100
AcDbEntity
8
ROOM_LABELS
100
AcDbText
10
-13
20
675
40
20
1
1155
50
0
999
CAMPUS_MAP_META {"id":"f1-1157","label":"Room 1157","roomNumber":"1157","kind":"Classroom","importance":"normal"}
0
LWPOLYLINE
100
AcDbEntity
8
ROOMS
100
AcDbPolyline
90
4
70
1
10
52
20
640
10
174
20
640
10
174
20
710
10
52
20
710
999
CAMPUS_MAP_META {"roomId":"f1-1157","roomNumber":"1157"}
0
TEXT
100
AcDbEntity
8
ROOM_LABELS
100
AcDbText
10
113
20
675
40
20
1
1157
50
0
999
CAMPUS_MAP_META {"id":"f1-1159","label":"Room 1159","roomNumber":"1159","kind":"Classroom","importance":"normal"}
0
LWPOLYLINE
100
AcDbEntity
8
ROOMS
100
AcDbPolyline
90
4
70
1
10
188
20
640
10
298
20
640
10
298
20
710
10
188
20
710
999
CAMPUS_MAP_META {"roomId":"f1-1159","roomNumber":"1159"}
0
TEXT
100
AcDbEntity
8
ROOM_LABELS
100
AcDbText
10
243
20
675
40
20
1
1159
50
0
999
CAMPUS_MAP_META {"id":"f1-1137","label":"Room 1137","roomNumber":"1137","kind":"Classroom","importance":"normal"}
0
LWPOLYLINE
100
AcDbEntity
8
ROOMS
100
AcDbPolyline
90
4
70
1
10
-430
20
740
10
-346
20
740
10
-346
20
798
10
-430
20
798
999
CAMPUS_MAP_META {"roomId":"f1-1137","roomNumber":"1137"}
0
TEXT
100
AcDbEntity
8
ROOM_LABELS
100
AcDbText
10
-388
20
769
40
20
1
1137
50
0
999
CAMPUS_MAP_META {"id":"f1-1135","label":"Room 1135","roomNumber":"1135","kind":"Classroom","importance":"normal"}
0
LWPOLYLINE
100
AcDbEntity
8
ROOMS
100
AcDbPolyline
90
4
70
1
10
-320
20
740
10
-224
20
740
10
-224
20
828
10
-320
20
828
999
CAMPUS_MAP_META {"roomId":"f1-1135","roomNumber":"1135"}
0
TEXT
100
AcDbEntity
8
ROOM_LABELS
100
AcDbText
10
-272
20
784
40
20
1
1135
50
0
999
CAMPUS_MAP_META {"id":"f1-1133","label":"Room 1133","roomNumber":"1133","kind":"Classroom","importance":"normal"}
0
LWPOLYLINE
100
AcDbEntity
8
ROOMS
100
AcDbPolyline
90
4
70
1
10
-260
20
860
10
-168
20
860
10
-168
20
942
10
-260
20
942
999
CAMPUS_MAP_META {"roomId":"f1-1133","roomNumber":"1133"}
0
TEXT
100
AcDbEntity
8
ROOM_LABELS
100
AcDbText
10
-214
20
901
40
20
1
1133
50
0
999
CAMPUS_MAP_META {"id":"f1-1131","label":"Room 1131","roomNumber":"1131","kind":"Classroom","importance":"normal"}
0
LWPOLYLINE
100
AcDbEntity
8
ROOMS
100
AcDbPolyline
90
4
70
1
10
-430
20
880
10
-344
20
880
10
-344
20
942
10
-430
20
942
999
CAMPUS_MAP_META {"roomId":"f1-1131","roomNumber":"1131"}
0
TEXT
100
AcDbEntity
8
ROOM_LABELS
100
AcDbText
10
-387
20
911
40
20
1
1131
50
0
999
CAMPUS_MAP_META {"id":"f1-1129","label":"Room 1129","roomNumber":"1129","kind":"Classroom","importance":"normal"}
0
LWPOLYLINE
100
AcDbEntity
8
ROOMS
100
AcDbPolyline
90
4
70
1
10
-430
20
950
10
-344
20
950
10
-344
20
1012
10
-430
20
1012
999
CAMPUS_MAP_META {"roomId":"f1-1129","roomNumber":"1129"}
0
TEXT
100
AcDbEntity
8
ROOM_LABELS
100
AcDbText
10
-387
20
981
40
20
1
1129
50
0
999
CAMPUS_MAP_META {"id":"f1-1127","label":"Room 1127","roomNumber":"1127","kind":"Classroom","importance":"normal"}
0
LWPOLYLINE
100
AcDbEntity
8
ROOMS
100
AcDbPolyline
90
4
70
1
10
-430
20
1020
10
-344
20
1020
10
-344
20
1082
10
-430
20
1082
999
CAMPUS_MAP_META {"roomId":"f1-1127","roomNumber":"1127"}
0
TEXT
100
AcDbEntity
8
ROOM_LABELS
100
AcDbText
10
-387
20
1051
40
20
1
1127
50
0
999
CAMPUS_MAP_META {"id":"f1-1125","label":"Room 1125","roomNumber":"1125","kind":"Classroom","importance":"normal"}
0
LWPOLYLINE
100
AcDbEntity
8
ROOMS
100
AcDbPolyline
90
4
70
1
10
-430
20
1090
10
-344
20
1090
10
-344
20
1152
10
-430
20
1152
999
CAMPUS_MAP_META {"roomId":"f1-1125","roomNumber":"1125"}
0
TEXT
100
AcDbEntity
8
ROOM_LABELS
100
AcDbText
10
-387
20
1121
40
20
1
1125
50
0
999
CAMPUS_MAP_META {"id":"f1-1123","label":"Room 1123","roomNumber":"1123","kind":"Classroom","importance":"normal"}
0
LWPOLYLINE
100
AcDbEntity
8
ROOMS
100
AcDbPolyline
90
4
70
1
10
-430
20
1160
10
-344
20
1160
10
-344
20
1222
10
-430
20
1222
999
CAMPUS_MAP_META {"roomId":"f1-1123","roomNumber":"1123"}
0
TEXT
100
AcDbEntity
8
ROOM_LABELS
100
AcDbText
10
-387
20
1191
40
20
1
1123
50
0
999
CAMPUS_MAP_META {"id":"f1-1121","label":"Room 1121","roomNumber":"1121","kind":"Classroom","importance":"normal"}
0
LWPOLYLINE
100
AcDbEntity
8
ROOMS
100
AcDbPolyline
90
4
70
1
10
-220
20
1168
10
-148
20
1168
10
-148
20
1222
10
-220
20
1222
999
CAMPUS_MAP_META {"roomId":"f1-1121","roomNumber":"1121"}
0
TEXT
100
AcDbEntity
8
ROOM_LABELS
100
AcDbText
10
-184
20
1195
40
20
1
1121
50
0
999
CAMPUS_MAP_META {"id":"f1-1119","label":"Room 1119","roomNumber":"1119","kind":"Classroom","importance":"normal"}
0
LWPOLYLINE
100
AcDbEntity
8
ROOMS
100
AcDbPolyline
90
4
70
1
10
-138
20
1168
10
-66
20
1168
10
-66
20
1222
10
-138
20
1222
999
CAMPUS_MAP_META {"roomId":"f1-1119","roomNumber":"1119"}
0
TEXT
100
AcDbEntity
8
ROOM_LABELS
100
AcDbText
10
-102
20
1195
40
20
1
1119
50
0
999
CAMPUS_MAP_META {"id":"f1-1101","label":"Room 1101","roomNumber":"1101","kind":"Classroom","importance":"normal"}
0
LWPOLYLINE
100
AcDbEntity
8
ROOMS
100
AcDbPolyline
90
4
70
1
10
35
20
748
10
121
20
748
10
121
20
814
10
35
20
814
999
CAMPUS_MAP_META {"roomId":"f1-1101","roomNumber":"1101"}
0
TEXT
100
AcDbEntity
8
ROOM_LABELS
100
AcDbText
10
78
20
781
40
20
1
1101
50
0
999
CAMPUS_MAP_META {"id":"f1-1103","label":"Room 1103","roomNumber":"1103","kind":"Classroom","importance":"normal"}
0
LWPOLYLINE
100
AcDbEntity
8
ROOMS
100
AcDbPolyline
90
4
70
1
10
-62
20
748
10
24
20
748
10
24
20
814
10
-62
20
814
999
CAMPUS_MAP_META {"roomId":"f1-1103","roomNumber":"1103"}
0
TEXT
100
AcDbEntity
8
ROOM_LABELS
100
AcDbText
10
-19
20
781
40
20
1
1103
50
0
999
CAMPUS_MAP_META {"id":"f1-1105","label":"Room 1105","roomNumber":"1105","kind":"Classroom","importance":"normal"}
0
LWPOLYLINE
100
AcDbEntity
8
ROOMS
100
AcDbPolyline
90
4
70
1
10
-160
20
748
10
-74
20
748
10
-74
20
814
10
-160
20
814
999
CAMPUS_MAP_META {"roomId":"f1-1105","roomNumber":"1105"}
0
TEXT
100
AcDbEntity
8
ROOM_LABELS
100
AcDbText
10
-117
20
781
40
20
1
1105
50
0
999
CAMPUS_MAP_META {"id":"f1-1107","label":"Room 1107","roomNumber":"1107","kind":"Classroom","importance":"normal"}
0
LWPOLYLINE
100
AcDbEntity
8
ROOMS
100
AcDbPolyline
90
4
70
1
10
-245
20
748
10
-197
20
748
10
-197
20
802
10
-245
20
802
999
CAMPUS_MAP_META {"roomId":"f1-1107","roomNumber":"1107"}
0
TEXT
100
AcDbEntity
8
ROOM_LABELS
100
AcDbText
10
-221
20
775
40
20
1
1107
50
0
999
CAMPUS_MAP_META {"id":"f1-1109","label":"Room 1109","roomNumber":"1109","kind":"Classroom","importance":"normal"}
0
LWPOLYLINE
100
AcDbEntity
8
ROOMS
100
AcDbPolyline
90
4
70
1
10
-300
20
748
10
-252
20
748
10
-252
20
802
10
-300
20
802
999
CAMPUS_MAP_META {"roomId":"f1-1109","roomNumber":"1109"}
0
TEXT
100
AcDbEntity
8
ROOM_LABELS
100
AcDbText
10
-276
20
775
40
20
1
1109
50
0
999
CAMPUS_MAP_META {"id":"f1-1111","label":"Room 1111","roomNumber":"1111","kind":"Classroom","importance":"normal"}
0
LWPOLYLINE
100
AcDbEntity
8
ROOMS
100
AcDbPolyline
90
4
70
1
10
-245
20
820
10
-149
20
820
10
-149
20
886
10
-245
20
886
999
CAMPUS_MAP_META {"roomId":"f1-1111","roomNumber":"1111"}
0
TEXT
100
AcDbEntity
8
ROOM_LABELS
100
AcDbText
10
-197
20
853
40
20
1
1111
50
0
999
CAMPUS_MAP_META {"id":"f1-1113","label":"Room 1113","roomNumber":"1113","kind":"Classroom","importance":"normal"}
0
LWPOLYLINE
100
AcDbEntity
8
ROOMS
100
AcDbPolyline
90
4
70
1
10
-245
20
894
10
-149
20
894
10
-149
20
960
10
-245
20
960
999
CAMPUS_MAP_META {"roomId":"f1-1113","roomNumber":"1113"}
0
TEXT
100
AcDbEntity
8
ROOM_LABELS
100
AcDbText
10
-197
20
927
40
20
1
1113
50
0
999
CAMPUS_MAP_META {"id":"f1-1115","label":"Room 1115","roomNumber":"1115","kind":"Classroom","importance":"normal"}
0
LWPOLYLINE
100
AcDbEntity
8
ROOMS
100
AcDbPolyline
90
4
70
1
10
-245
20
970
10
-149
20
970
10
-149
20
1036
10
-245
20
1036
999
CAMPUS_MAP_META {"roomId":"f1-1115","roomNumber":"1115"}
0
TEXT
100
AcDbEntity
8
ROOM_LABELS
100
AcDbText
10
-197
20
1003
40
20
1
1115
50
0
999
CAMPUS_MAP_META {"id":"f1-1117","label":"Room 1117","roomNumber":"1117","kind":"Classroom","importance":"normal"}
0
LWPOLYLINE
100
AcDbEntity
8
ROOMS
100
AcDbPolyline
90
4
70
1
10
-245
20
1046
10
-149
20
1046
10
-149
20
1112
10
-245
20
1112
999
CAMPUS_MAP_META {"roomId":"f1-1117","roomNumber":"1117"}
0
TEXT
100
AcDbEntity
8
ROOM_LABELS
100
AcDbText
10
-197
20
1079
40
20
1
1117
50
0
999
CAMPUS_MAP_META {"id":"f1-1214","label":"Room 1214","roomNumber":"1214","kind":"Classroom","importance":"normal"}
0
LWPOLYLINE
100
AcDbEntity
8
ROOMS
100
AcDbPolyline
90
4
70
1
10
300
20
650
10
398
20
650
10
398
20
738
10
300
20
738
999
CAMPUS_MAP_META {"roomId":"f1-1214","roomNumber":"1214"}
0
TEXT
100
AcDbEntity
8
ROOM_LABELS
100
AcDbText
10
349
20
694
40
20
1
1214
50
0
999
CAMPUS_MAP_META {"id":"f1-1216","label":"Room 1216","roomNumber":"1216","kind":"Classroom","importance":"normal"}
0
LWPOLYLINE
100
AcDbEntity
8
ROOMS
100
AcDbPolyline
90
4
70
1
10
300
20
750
10
398
20
750
10
398
20
838
10
300
20
838
999
CAMPUS_MAP_META {"roomId":"f1-1216","roomNumber":"1216"}
0
TEXT
100
AcDbEntity
8
ROOM_LABELS
100
AcDbText
10
349
20
794
40
20
1
1216
50
0
999
CAMPUS_MAP_META {"id":"f1-1218","label":"Room 1218","roomNumber":"1218","kind":"Classroom","importance":"normal"}
0
LWPOLYLINE
100
AcDbEntity
8
ROOMS
100
AcDbPolyline
90
4
70
1
10
300
20
850
10
398
20
850
10
398
20
938
10
300
20
938
999
CAMPUS_MAP_META {"roomId":"f1-1218","roomNumber":"1218"}
0
TEXT
100
AcDbEntity
8
ROOM_LABELS
100
AcDbText
10
349
20
894
40
20
1
1218
50
0
999
CAMPUS_MAP_META {"id":"f1-1220","label":"Room 1220","roomNumber":"1220","kind":"Major zone","importance":"major"}
0
LWPOLYLINE
100
AcDbEntity
8
ROOMS
100
AcDbPolyline
90
4
70
1
10
430
20
875
10
598
20
875
10
598
20
997
10
430
20
997
999
CAMPUS_MAP_META {"roomId":"f1-1220","roomNumber":"1220"}
0
TEXT
100
AcDbEntity
8
ROOM_LABELS
100
AcDbText
10
514
20
936
40
30
1
1220
50
0
999
CAMPUS_MAP_META {"id":"f1-main-spine-segment-1","label":"First-floor main spine","kind":"Hallway"}
0
LWPOLYLINE
100
AcDbEntity
8
HALLWAYS
100
AcDbPolyline
90
4
70
1
10
-520
20
46
10
-70
20
46
10
-70
20
-26
10
-520
20
-26
999
CAMPUS_MAP_META {"id":"f1-main-spine-segment-2","label":"First-floor main spine","kind":"Hallway"}
0
LWPOLYLINE
100
AcDbEntity
8
HALLWAYS
100
AcDbPolyline
90
4
70
1
10
-70
20
46
10
440
20
46
10
440
20
-26
10
-70
20
-26
999
CAMPUS_MAP_META {"id":"f1-main-spine-segment-3","label":"First-floor main spine","kind":"Hallway"}
0
LWPOLYLINE
100
AcDbEntity
8
HALLWAYS
100
AcDbPolyline
90
4
70
1
10
410.589
20
30.761
10
530.589
20
200.761
10
589.411
20
159.239
10
469.411
20
-10.761
999
CAMPUS_MAP_META {"id":"f1-front-link-segment-1","label":"First-floor connector hallway","kind":"Hallway"}
0
LWPOLYLINE
100
AcDbEntity
8
HALLWAYS
100
AcDbPolyline
90
4
70
1
10
-36
20
50
10
-36
20
260
10
36
20
260
10
36
20
50
999
CAMPUS_MAP_META {"id":"f1-front-link-segment-2","label":"First-floor connector hallway","kind":"Hallway"}
0
LWPOLYLINE
100
AcDbEntity
8
HALLWAYS
100
AcDbPolyline
90
4
70
1
10
-36
20
260
10
-36
20
535
10
36
20
535
10
36
20
260
999
CAMPUS_MAP_META {"id":"f1-front-spine-segment-1","label":"Front wing spine","kind":"Hallway"}
0
LWPOLYLINE
100
AcDbEntity
8
HALLWAYS
100
AcDbPolyline
90
4
70
1
10
-360
20
753
10
-90
20
753
10
-90
20
697
10
-360
20
697
999
CAMPUS_MAP_META {"id":"f1-front-spine-segment-2","label":"Front wing spine","kind":"Hallway"}
0
LWPOLYLINE
100
AcDbEntity
8
HALLWAYS
100
AcDbPolyline
90
4
70
1
10
-90
20
753
10
120
20
753
10
120
20
697
10
-90
20
697
999
CAMPUS_MAP_META {"id":"f1-front-spine-segment-3","label":"Front wing spine","kind":"Hallway"}
0
LWPOLYLINE
100
AcDbEntity
8
HALLWAYS
100
AcDbPolyline
90
4
70
1
10
120
20
753
10
340
20
753
10
340
20
697
10
120
20
697
999
CAMPUS_MAP_META {"id":"f1-west-stairs","label":"Athletics stairs","kind":"Stair","treads":8}
0
LWPOLYLINE
100
AcDbEntity
8
STAIRS
100
AcDbPolyline
90
4
70
1
10
-556
20
-385
10
-494
20
-385
10
-494
20
-265
10
-556
20
-265
999
CAMPUS_MAP_META {"id":"f1-west-stairs-label","targetId":"f1-west-stairs"}
0
TEXT
100
AcDbEntity
8
PLACE_LABELS
100
AcDbText
10
-525
20
-325
40
18
1
Athletics stairs
50
0
999
CAMPUS_MAP_META {"id":"f1-cafeteria-stairs","label":"Cafeteria stairs","kind":"Stair","treads":8}
0
LWPOLYLINE
100
AcDbEntity
8
STAIRS
100
AcDbPolyline
90
4
70
1
10
-24
20
345
10
-24
20
463
10
-86
20
463
10
-86
20
345
999
CAMPUS_MAP_META {"id":"f1-cafeteria-stairs-label","targetId":"f1-cafeteria-stairs"}
0
TEXT
100
AcDbEntity
8
PLACE_LABELS
100
AcDbText
10
-55
20
404
40
18
1
Cafeteria stairs
50
0
999
CAMPUS_MAP_META {"id":"f1-auditorium-stairs","label":"Auditorium stairs","kind":"Stair","treads":8}
0
LWPOLYLINE
100
AcDbEntity
8
STAIRS
100
AcDbPolyline
90
4
70
1
10
521
20
528
10
521
20
640
10
463
20
640
10
463
20
528
999
CAMPUS_MAP_META {"id":"f1-auditorium-stairs-label","targetId":"f1-auditorium-stairs"}
0
TEXT
100
AcDbEntity
8
PLACE_LABELS
100
AcDbText
10
492
20
584
40
18
1
Auditorium stairs
50
0
999
CAMPUS_MAP_META {"id":"f1-front-west-stairs","label":"Front west stairs","kind":"Stair","treads":8}
0
LWPOLYLINE
100
AcDbEntity
8
STAIRS
100
AcDbPolyline
90
4
70
1
10
-291
20
636
10
-291
20
724
10
-345
20
724
10
-345
20
636
999
CAMPUS_MAP_META {"id":"f1-front-west-stairs-label","targetId":"f1-front-west-stairs"}
0
TEXT
100
AcDbEntity
8
PLACE_LABELS
100
AcDbText
10
-318
20
680
40
18
1
Front west stairs
50
0
999
CAMPUS_MAP_META {"id":"f1-front-east-stairs","label":"Front east stairs","kind":"Stair","treads":8}
0
LWPOLYLINE
100
AcDbEntity
8
STAIRS
100
AcDbPolyline
90
4
70
1
10
257
20
636
10
257
20
724
10
203
20
724
10
203
20
636
999
CAMPUS_MAP_META {"id":"f1-front-east-stairs-label","targetId":"f1-front-east-stairs"}
0
TEXT
100
AcDbEntity
8
PLACE_LABELS
100
AcDbText
10
230
20
680
40
18
1
Front east stairs
50
0
999
CAMPUS_MAP_META {"id":"f1-gym","label":"1601 Gym","type":"Major space"}
0
LWPOLYLINE
100
AcDbEntity
8
PINS
100
AcDbPolyline
90
4
70
1
10
-40
20
-250
10
-20
20
-270
10
0
20
-250
10
-20
20
-230
999
CAMPUS_MAP_META {"id":"f1-gym-label","targetId":"f1-gym"}
0
TEXT
100
AcDbEntity
8
PLACE_LABELS
100
AcDbText
10
4
20
-258
40
18
1
1601 Gym
50
0
999
CAMPUS_MAP_META {"id":"f1-cafeteria","label":"1501 Cafeteria","type":"Major space"}
0
LWPOLYLINE
100
AcDbEntity
8
PINS
100
AcDbPolyline
90
4
70
1
10
-140
20
230
10
-120
20
210
10
-100
20
230
10
-120
20
250
999
CAMPUS_MAP_META {"id":"f1-cafeteria-label","targetId":"f1-cafeteria"}
0
TEXT
100
AcDbEntity
8
PLACE_LABELS
100
AcDbText
10
-96
20
222
40
18
1
1501 Cafeteria
50
0
999
CAMPUS_MAP_META {"id":"f1-auditorium","label":"1209 Auditorium","type":"Major space"}
0
LWPOLYLINE
100
AcDbEntity
8
PINS
100
AcDbPolyline
90
4
70
1
10
355
20
345
10
375
20
325
10
395
20
345
10
375
20
365
999
CAMPUS_MAP_META {"id":"f1-auditorium-label","targetId":"f1-auditorium"}
0
TEXT
100
AcDbEntity
8
PLACE_LABELS
100
AcDbText
10
399
20
337
40
18
1
1209 Auditorium
50
0
999
CAMPUS_MAP_META {"id":"f1-front-wing","label":"Front wing connector","type":"Hallway link"}
0
LWPOLYLINE
100
AcDbEntity
8
PINS
100
AcDbPolyline
90
4
70
1
10
-20
20
560
10
0
20
540
10
20
20
560
10
0
20
580
999
CAMPUS_MAP_META {"id":"f1-front-wing-label","targetId":"f1-front-wing"}
0
TEXT
100
AcDbEntity
8
PLACE_LABELS
100
AcDbText
10
24
20
552
40
18
1
Front wing connector
50
0
0
ENDSEC
0
EOF
