0
SECTION
2
HEADER
9
$ACADVER
1
AC1015
0
ENDSEC
0
SECTION
2
TABLES
0
TABLE
2
LAYER
70
10
0
LAYER
2
REFERENCE_STROKES
70
0
62
8
6
CONTINUOUS
0
LAYER
2
REFERENCE_BASE
70
0
62
252
6
CONTINUOUS
0
LAYER
2
ROOMS
70
0
62
3
6
CONTINUOUS
0
LAYER
2
HALLWAYS
70
0
62
4
6
CONTINUOUS
0
LAYER
2
WALLS
70
0
62
2
6
CONTINUOUS
0
LAYER
2
DOORS
70
0
62
6
6
CONTINUOUS
0
LAYER
2
STAIRS
70
0
62
5
6
CONTINUOUS
0
LAYER
2
ROOM_LABELS
70
0
62
7
6
CONTINUOUS
0
LAYER
2
PLACE_LABELS
70
0
62
30
6
CONTINUOUS
0
LAYER
2
PINS
70
0
62
1
6
CONTINUOUS
0
ENDTAB
0
ENDSEC
0
SECTION
2
ENTITIES
0
LWPOLYLINE
8
REFERENCE_STROKES
90
50
70
0
10
2291.5
20
-170
10
2288.5
20
-179
10
2284
20
-183.5
10
2273
20
-187.5
10
2260
20
-199.5
10
2247
20
-204.5
10
2231
20
-204.5
10
2216
20
-200.5
10
2170
20
-174.5
10
2145
20
-167.5
10
2134
20
-166.5
10
2121
20
-168.5
10
2080
20
-186.5
10
2061
20
-191.5
10
2042
20
-191.5
10
2022
20
-184.5
10
2008
20
-172.5
10
1997
20
-166.5
10
1955
20
-153.5
10
1898
20
-144.5
10
1835
20
-139.5
10
1821
20
-140.5
10
1820.5
20
-139
10
1865
20
-118.5
10
1914
20
-99.5
10
1933
20
-78.5
10
1955
20
-83.5
10
1969
20
-64.5
10
1991
20
-72.5
10
2008
20
-51.5
10
2033
20
-61.5
10
2047
20
-43.5
10
2056
20
-46.5
10
2069
20
-55.5
10
2076
20
-55.5
10
2102
20
-39.5
10
2117
20
-36.5
10
2131
20
-39.5
10
2144
20
-50.5
10
2149
20
-49.5
10
2160
20
-53.5
10
2169.5
20
-64
10
2184.5
20
-96
10
2198
20
-107.5
10
2226
20
-114.5
10
2244
20
-112.5
10
2257
20
-118.5
10
2270
20
-120.5
10
2281.5
20
-131
10
2288.5
20
-142
0
LWPOLYLINE
8
REFERENCE_STROKES
90
4
70
0
10
2054.5
20
-54
10
2052
20
-51.5
10
2048.5
20
-52
10
2049
20
-54.5
0
LWPOLYLINE
8
REFERENCE_STROKES
90
15
70
0
10
2140.5
20
-79
10
2140.5
20
-76
10
2135
20
-67.5
10
2126
20
-74.5
10
2122.5
20
-74
10
2121.5
20
-67
10
2124.5
20
-59
10
2124
20
-54.5
10
2116
20
-51.5
10
2108.5
20
-53
10
2106.5
20
-66
10
2109.5
20
-74
10
2114
20
-78.5
10
2124
20
-82.5
10
2136
20
-81.5
0
LWPOLYLINE
8
REFERENCE_STROKES
90
5
70
0
10
2018.5
20
-63
10
2015
20
-59.5
10
2011
20
-58.5
10
2009.5
20
-60
10
2011
20
-62.5
0
LWPOLYLINE
8
REFERENCE_STROKES
90
5
70
0
10
1977.5
20
-75
10
1977.5
20
-73
10
1974
20
-71.5
10
1970.5
20
-73
10
1971
20
-75.5
0
LWPOLYLINE
8
REFERENCE_STROKES
90
65
70
0
10
2011.5
20
-152
10
2015
20
-159.5
10
2018
20
-155.5
10
2018.5
20
-159
10
2021
20
-160.5
10
2023.5
20
-159
10
2023.5
20
-151
10
2021.5
20
-149
10
2023
20
-147.5
10
2031
20
-150.5
10
2033
20
-148.5
10
2030.5
20
-154
10
2034
20
-154.5
10
2034.5
20
-158
10
2036.5
20
-158
10
2039.5
20
-137
10
2045.5
20
-127
10
2045.5
20
-124
10
2043
20
-123.5
10
2042.5
20
-121
10
2047
20
-111.5
10
2049
20
-114.5
10
2053.5
20
-113
10
2048.5
20
-110
10
2053
20
-104.5
10
2054.5
20
-105
10
2056.5
20
-119
10
2054
20
-120.5
10
2048
20
-117.5
10
2045.5
20
-120
10
2046
20
-122.5
10
2050
20
-120.5
10
2051.5
20
-122
10
2049.5
20
-130
10
2050.5
20
-134
10
2047.5
20
-138
10
2046.5
20
-145
10
2048
20
-157.5
10
2050.5
20
-157
10
2053.5
20
-146
10
2064.5
20
-130
10
2070
20
-127.5
10
2080
20
-118.5
10
2089
20
-114.5
10
2100
20
-112.5
10
2105
20
-109.5
10
2126
20
-108.5
10
2148
20
-111.5
10
2166
20
-118.5
10
2167.5
20
-117
10
2139
20
-101.5
10
2121
20
-98.5
10
2098
20
-99.5
10
2065
20
-112.5
10
2063.5
20
-107
10
2064.5
20
-94
10
2067.5
20
-87
10
2065
20
-85.5
10
2047.5
20
-99
10
2035
20
-118.5
10
2031.5
20
-112
10
2031.5
20
-102
10
2027.5
20
-102
10
2015.5
20
-123
10
2011.5
20
-138
0
LWPOLYLINE
8
REFERENCE_STROKES
90
163
70
0
10
2224.5
20
-1367
10
2200
20
-1367.5
10
2050
20
-1361.5
10
2049.5
20
-1375
10
2046
20
-1379.5
10
2033
20
-1373.5
10
2026.5
20
-1362
10
2022
20
-1359.5
10
1748
20
-1350.5
10
1463
20
-1337.5
10
1460.5
20
-1343
10
1453
20
-1350.5
10
1440
20
-1353.5
10
1438.5
20
-1352
10
1438.5
20
-1337
10
1437
20
-1335.5
10
1427
20
-1336.5
10
1423.5
20
-1333
10
1426.5
20
-1238
10
1425
20
-1236.5
10
1188
20
-1227.5
10
1186.5
20
-1244
10
1184
20
-1245.5
10
1173
20
-1241.5
10
1166
20
-1231.5
10
1157
20
-1240.5
10
1144
20
-1243.5
10
1142.5
20
-1242
10
1143.5
20
-1227
10
1142
20
-1225.5
10
1117
20
-1225.5
10
1116.5
20
-1240
10
1114
20
-1242.5
10
1101
20
-1237.5
10
1095
20
-1228.5
10
1085
20
-1238.5
10
1073
20
-1240.5
10
1071.5
20
-1238
10
1072.5
20
-1224
10
1069
20
-1222.5
10
916
20
-1218.5
10
838
20
-1214.5
10
835.5
20
-1216
10
832.5
20
-1309
10
830
20
-1312.5
10
814
20
-1311.5
10
811.5
20
-1314
10
811.5
20
-1328
10
810
20
-1329.5
10
797
20
-1325.5
10
787
20
-1310.5
10
580
20
-1304.5
10
505
20
-1300.5
10
502
20
-1316.5
10
494
20
-1315.5
10
485
20
-1308.5
10
477
20
-1308.5
10
468
20
-1314.5
10
460
20
-1315.5
10
459.5
20
-1300
10
457
20
-1298.5
10
350
20
-1296.5
10
239
20
-1292.5
10
238.5
20
-1307
10
236
20
-1309.5
10
232
20
-1309.5
10
225
20
-1306.5
10
217.5
20
-1299
10
215.5
20
-1292
10
211
20
-1290.5
10
93
20
-1287.5
10
90.5
20
-1285
10
98.5
20
-1075
10
52
20
-1073.5
10
49.5
20
-1072
10
61.5
20
-812
10
60
20
-810.5
10
46
20
-810.5
10
43.5
20
-808
10
46.5
20
-798
10
54.5
20
-791
10
46.5
20
-779
10
45.5
20
-772
10
47
20
-770.5
10
63
20
-770.5
10
63.5
20
-764
10
68
20
-761.5
10
112
20
-763.5
10
113.5
20
-761
10
121.5
20
-554
10
124
20
-552.5
10
396
20
-562.5
10
404
20
-551.5
10
413
20
-547.5
10
419
20
-547.5
10
420.5
20
-549
10
420.5
20
-563
10
435
20
-564.5
10
1058
20
-586.5
10
1059.5
20
-585
10
1063.5
20
-468
10
1058
20
-465.5
10
1051.5
20
-459
10
1048.5
20
-446
10
1050
20
-444.5
10
1063
20
-445.5
10
1064.5
20
-444
10
1076.5
20
-104
10
1082
20
-101.5
10
1129
20
-104.5
10
1468
20
-114.5
10
1469.5
20
-116
10
1462.5
20
-293
10
1469
20
-295.5
10
1474.5
20
-301
10
1477.5
20
-308
10
1477.5
20
-315
10
1476
20
-316.5
10
1461.5
20
-317
10
1458.5
20
-400
10
1473
20
-401.5
10
1474.5
20
-405
10
1470.5
20
-415
10
1456.5
20
-426
10
1451
20
-598.5
10
1452.5
20
-598
10
1452.5
20
-587
10
1458
20
-585.5
10
1467
20
-589.5
10
1472.5
20
-595
10
1475
20
-601.5
10
1651
20
-607.5
10
1651.5
20
-595
10
1657
20
-592.5
10
1667
20
-596.5
10
1673.5
20
-603
10
1675
20
-608.5
10
2036
20
-621.5
10
2057
20
-621.5
10
2059.5
20
-616
10
2066
20
-609.5
10
2079
20
-606.5
10
2080.5
20
-608
10
2081
20
-622.5
10
2248
20
-628.5
10
2250.5
20
-631
10
2243.5
20
-840
10
2245
20
-841.5
10
2286
20
-842.5
10
2288
20
-851.5
10
2305
20
-852.5
10
2307.5
20
-855
10
2305.5
20
-863
10
2301.5
20
-869
10
2294.5
20
-874
10
2303.5
20
-882
10
2306.5
20
-894
10
2304
20
-896.5
10
2287
20
-895.5
10
2285.5
20
-897
10
2277.5
20
-1154
10
2276
20
-1155.5
10
2231.5
20
-1154
0
LWPOLYLINE
8
REFERENCE_STROKES
90
156
70
0
10
2283.5
20
-850
10
2283.5
20
-847
10
2281
20
-845.5
10
2256
20
-845.5
10
2240.5
20
-843
10
2246.5
20
-633
10
2236
20
-631.5
10
2081
20
-626.5
10
2079.5
20
-630
10
2084
20
-631.5
10
2086.5
20
-635
10
2079.5
20
-836
10
2077
20
-838.5
10
1890
20
-831.5
10
1886.5
20
-829
10
1889.5
20
-728
10
1884.5
20
-728
10
1883.5
20
-752
10
1881
20
-754.5
10
1833
20
-752.5
10
1830.5
20
-750
10
1831.5
20
-708
10
1834
20
-698.5
10
1882
20
-699.5
10
1886
20
-704.5
10
1890.5
20
-703
10
1890
20
-689.5
10
1886
20
-689.5
10
1883
20
-694.5
10
1841
20
-693.5
10
1832.5
20
-691
10
1834.5
20
-626
10
1836
20
-623.5
10
1886
20
-624.5
10
1887.5
20
-626
10
1887
20
-666.5
10
1891.5
20
-666
10
1892.5
20
-627
10
1896
20
-624.5
10
2054
20
-630.5
10
2055
20
-625.5
10
1700
20
-612.5
10
1675.5
20
-613
10
1677
20
-617.5
10
1827
20
-622.5
10
1829.5
20
-625
10
1823.5
20
-798
10
1825
20
-799.5
10
1829.5
20
-798
10
1829.5
20
-767
10
1832
20
-757.5
10
1882
20
-759.5
10
1883.5
20
-761
10
1881.5
20
-828
10
1880
20
-830.5
10
1830
20
-828.5
10
1826
20
-822.5
10
1822.5
20
-824
10
1821
20
-828.5
10
1564
20
-818.5
10
1561.5
20
-815
10
1563.5
20
-778
10
1637.5
20
-619
10
1640
20
-616.5
10
1650
20
-616.5
10
1651.5
20
-612
10
1476
20
-605.5
10
1476
20
-610.5
10
1609
20
-614.5
10
1631.5
20
-617
10
1631.5
20
-621
10
1557.5
20
-780
10
1556.5
20
-816
10
1555
20
-817.5
10
1527
20
-817.5
10
1359
20
-810.5
10
1356.5
20
-808
10
1361.5
20
-670
10
1356.5
20
-669
10
1355.5
20
-701
10
1353
20
-703.5
10
1237
20
-699.5
10
1234.5
20
-697
10
1236.5
20
-639
10
1238
20
-636.5
10
1355
20
-640.5
10
1357.5
20
-646
10
1361
20
-646.5
10
1362.5
20
-637
10
1361
20
-635.5
10
1351
20
-635.5
10
1348.5
20
-632
10
1349.5
20
-608
10
1351
20
-606.5
10
1450
20
-609.5
10
1451.5
20
-605
10
1447.5
20
-603
10
1447.5
20
-574
10
1453.5
20
-425
10
1452
20
-423.5
10
1448.5
20
-425
10
1443.5
20
-577
10
1441
20
-603.5
10
1379
20
-602.5
10
1238.5
20
-596
10
1245.5
20
-396
10
1247
20
-394.5
10
1421.5
20
-399
10
1421
20
-394.5
10
1249
20
-389.5
10
1245.5
20
-386
10
1248.5
20
-316
10
1250
20
-314.5
10
1425.5
20
-319
10
1424
20
-314.5
10
1251
20
-309.5
10
1249.5
20
-308
10
1255.5
20
-121
10
1257
20
-117.5
10
1261
20
-116.5
10
1458
20
-122.5
10
1460.5
20
-125
10
1454.5
20
-269
10
1454.5
20
-292
10
1458
20
-292.5
10
1459.5
20
-288
10
1465.5
20
-119
10
1463
20
-117.5
10
1080.5
20
-106
10
1067.5
20
-436
10
1069
20
-445.5
10
1072.5
20
-445
10
1078.5
20
-268
10
1080
20
-265.5
10
1136.5
20
-266
10
1136
20
-261.5
10
1088
20
-260.5
10
1079.5
20
-258
10
1084.5
20
-113
10
1086
20
-111.5
10
1231
20
-115.5
10
1249
20
-116.5
10
1251.5
20
-120
10
1245.5
20
-264
10
1244
20
-265.5
10
1182
20
-263.5
10
1180.5
20
-265
10
1182
20
-268.5
10
1243
20
-270.5
10
1245.5
20
-273
10
1235.5
20
-554
10
1231.5
20
-612
10
1225.5
20
-809
10
1227
20
-810.5
10
2155
20
-845.5
10
2224
20
-849.5
0
LWPOLYLINE
8
REFERENCE_STROKES
90
17
70
0
10
1925.5
20
-112
10
1923
20
-111.5
10
1915
20
-115.5
10
1897
20
-112.5
10
1895
20
-115.5
10
1905.5
20
-118
10
1890
20
-125.5
10
1872
20
-123.5
10
1871.5
20
-125
10
1901
20
-129.5
10
1901.5
20
-128
10
1898.5
20
-126
10
1900
20
-123.5
10
1904
20
-122.5
10
1907
20
-118.5
10
1920
20
-119.5
10
1919.5
20
-116
0
LWPOLYLINE
8
REFERENCE_STROKES
90
6
70
0
10
2113
20
-128.5
10
2119.5
20
-124
10
2124.5
20
-116
10
2123
20
-113.5
10
2117
20
-113.5
10
2112.5
20
-116
0
LWPOLYLINE
8
REFERENCE_STROKES
90
19
70
0
10
1242.5
20
-261
10
1247
20
-120.5
10
1096
20
-114.5
10
1087.5
20
-116
10
1082.5
20
-250
10
1084
20
-256.5
10
1139
20
-258.5
10
1140.5
20
-260
10
1141
20
-282.5
10
1147
20
-281.5
10
1154.5
20
-274
10
1156.5
20
-266
10
1160
20
-264.5
10
1162.5
20
-274
10
1172
20
-283.5
10
1176.5
20
-283
10
1177.5
20
-261
10
1180
20
-259.5
10
1238
20
-262.5
0
LWPOLYLINE
8
REFERENCE_STROKES
90
5
70
0
10
2136
20
-129.5
10
2138
20
-129.5
10
2146.5
20
-121
10
2145
20
-116.5
10
2136.5
20
-116
0
LWPOLYLINE
8
REFERENCE_STROKES
90
4
70
0
10
2183
20
-125.5
10
2182.5
20
-121
10
2177
20
-117.5
10
2177.5
20
-123
0
LWPOLYLINE
8
REFERENCE_STROKES
90
4
70
0
10
2090
20
-130.5
10
2095.5
20
-127
10
2098
20
-118.5
10
2087.5
20
-123
0
LWPOLYLINE
8
REFERENCE_STROKES
90
17
70
0
10
1473.5
20
-312
10
1473.5
20
-308
10
1469
20
-300.5
10
1465
20
-297.5
10
1450.5
20
-294
10
1455.5
20
-185
10
1456
20
-126.5
10
1261
20
-120.5
10
1259.5
20
-122
10
1253
20
-305.5
10
1429
20
-311.5
10
1429.5
20
-323
10
1431.5
20
-327
10
1442
20
-335.5
10
1444.5
20
-335
10
1445.5
20
-314
10
1447
20
-312.5
0
LWPOLYLINE
8
REFERENCE_STROKES
90
11
70
0
10
1900.5
20
-139
10
1907
20
-138.5
10
1914
20
-132.5
10
1923
20
-132.5
10
1930
20
-126.5
10
1936
20
-123.5
10
1941
20
-123.5
10
1942.5
20
-121
10
1931
20
-121.5
10
1928
20
-125.5
10
1912
20
-130.5
0
LWPOLYLINE
8
REFERENCE_STROKES
90
5
70
1
10
2121
20
-133.5
10
2126
20
-133.5
10
2129.5
20
-130
10
2129
20
-122.5
10
2121.5
20
-130
0
LWPOLYLINE
8
REFERENCE_STROKES
90
7
70
0
10
2029
20
-139.5
10
2026.5
20
-139
10
2028.5
20
-132
10
2023.5
20
-127
10
2026
20
-123.5
10
2028.5
20
-125
10
2032.5
20
-136
0
LWPOLYLINE
8
REFERENCE_STROKES
90
5
70
1
10
2157
20
-135.5
10
2166.5
20
-129
10
2160
20
-123.5
10
2156.5
20
-124
10
2155.5
20
-134
0
LWPOLYLINE
8
REFERENCE_STROKES
90
5
70
0
10
2099
20
-135.5
10
2106.5
20
-134
10
2107.5
20
-126
10
2106
20
-124.5
10
2101.5
20
-128
0
LWPOLYLINE
8
REFERENCE_STROKES
90
5
70
1
10
2073
20
-137.5
10
2076.5
20
-135
10
2079
20
-127.5
10
2071.5
20
-132
10
2070.5
20
-135
0
LWPOLYLINE
8
REFERENCE_STROKES
90
5
70
0
10
2192.5
20
-136
10
2192.5
20
-133
10
2187
20
-127.5
10
2182.5
20
-130
10
2184
20
-132.5
0
LWPOLYLINE
8
REFERENCE_STROKES
90
4
70
0
10
1868.5
20
-135
10
1876
20
-134.5
10
1883.5
20
-129
10
1879
20
-128.5
0
LWPOLYLINE
8
REFERENCE_STROKES
90
4
70
1
10
2143
20
-136.5
10
2149.5
20
-135
10
2150
20
-128.5
10
2142.5
20
-134
0
LWPOLYLINE
8
REFERENCE_STROKES
90
4
70
1
10
1936.5
20
-137
10
1943
20
-136.5
10
1943.5
20
-135
10
1938
20
-134.5
0
LWPOLYLINE
8
REFERENCE_STROKES
90
4
70
1
10
2081
20
-140.5
10
2086.5
20
-137
10
2086
20
-134.5
10
2080.5
20
-137
0
LWPOLYLINE
8
REFERENCE_STROKES
90
4
70
0
10
2174
20
-143.5
10
2179.5
20
-140
10
2177
20
-135.5
10
2174.5
20
-136
0
LWPOLYLINE
8
REFERENCE_STROKES
90
4
70
1
10
2168.5
20
-138
10
2166
20
-137.5
10
2163.5
20
-141
10
2167
20
-141.5
0
LWPOLYLINE
8
REFERENCE_STROKES
90
4
70
0
10
2131.5
20
-141
10
2131
20
-138.5
10
2124.5
20
-139
10
2125
20
-140.5
0
LWPOLYLINE
8
REFERENCE_STROKES
90
10
70
1
10
2087.5
20
-145
10
2076
20
-147.5
10
2068.5
20
-152
10
2075
20
-152.5
10
2077
20
-155.5
10
2083
20
-156.5
10
2083.5
20
-154
10
2081
20
-153.5
10
2079.5
20
-150
10
2086
20
-148.5
0
LWPOLYLINE
8
REFERENCE_STROKES
90
4
70
1
10
2188.5
20
-150
10
2186
20
-145.5
10
2181.5
20
-147
10
2185
20
-150.5
0
LWPOLYLINE
8
REFERENCE_STROKES
90
4
70
0
10
2091.5
20
-154
10
2096
20
-155.5
10
2102.5
20
-151
10
2096
20
-150.5
0
LWPOLYLINE
8
REFERENCE_STROKES
90
4
70
0
10
2214.5
20
-160
10
2204
20
-150.5
10
2201.5
20
-152
10
2206
20
-157.5
0
LWPOLYLINE
8
REFERENCE_STROKES
90
4
70
0
10
2078.5
20
-159
10
2073
20
-154.5
10
2067.5
20
-157
10
2071
20
-161.5
0
LWPOLYLINE
8
REFERENCE_STROKES
90
10
70
0
10
564.5
20
-353
10
563
20
-355.5
10
334
20
-346.5
10
93
20
-339.5
10
89.5
20
-337
10
98.5
20
-157
10
100
20
-155.5
10
221
20
-157.5
10
569
20
-170.5
10
570.5
20
-172
0
LWPOLYLINE
8
REFERENCE_STROKES
90
8
70
0
10
555.5
20
-346
10
561.5
20
-180
10
559
20
-178.5
10
239
20
-166.5
10
107.5
20
-165
10
100.5
20
-270
10
98.5
20
-321
10
100
20
-330.5
0
LWPOLYLINE
8
REFERENCE_STROKES
90
8
70
1
10
2242.5
20
-172
10
2236
20
-168.5
10
2231
20
-168.5
10
2228
20
-165.5
10
2221.5
20
-165
10
2232
20
-173.5
10
2235
20
-171.5
10
2239
20
-173.5
0
LWPOLYLINE
8
REFERENCE_STROKES
90
5
70
0
10
2215.5
20
-175
10
2214
20
-171.5
10
2209
20
-170.5
10
2207.5
20
-177
10
2212
20
-177.5
0
LWPOLYLINE
8
REFERENCE_STROKES
90
4
70
0
10
2229
20
-187.5
10
2232.5
20
-184
10
2231
20
-181.5
10
2226.5
20
-182
0
LWPOLYLINE
8
REFERENCE_STROKES
90
5
70
0
10
2230.5
20
-194
10
2237
20
-190.5
10
2244
20
-191.5
10
2244.5
20
-190
10
2239
20
-186.5
0
LWPOLYLINE
8
REFERENCE_STROKES
90
26
70
0
10
1876
20
-340.5
10
1832
20
-338.5
10
1811.5
20
-321
10
1815.5
20
-215
10
1835
20
-198.5
10
1882
20
-199.5
10
1903.5
20
-218
10
1902.5
20
-242
10
1901
20
-243.5
10
1876
20
-242.5
10
1875
20
-223.5
10
1834.5
20
-223
10
1836
20
-225.5
10
1844.5
20
-229
10
1841.5
20
-314
10
1843
20
-315.5
10
1871
20
-316.5
10
1872.5
20
-315
10
1873.5
20
-292
10
1864.5
20
-289
10
1865.5
20
-268
10
1867
20
-266.5
10
1900
20
-267.5
10
1901.5
20
-270
10
1899.5
20
-323
10
1891
20
-331.5
0
LWPOLYLINE
8
REFERENCE_STROKES
90
9
70
0
10
1333
20
-222.5
10
1325
20
-221.5
10
1322.5
20
-217
10
1322.5
20
-206
10
1324.5
20
-202
10
1329
20
-199.5
10
1334
20
-200.5
10
1338.5
20
-207
10
1337.5
20
-217
0
LWPOLYLINE
8
REFERENCE_STROKES
90
10
70
1
10
1352
20
-223.5
10
1339.5
20
-221
10
1341
20
-218.5
10
1344.5
20
-218
10
1344.5
20
-208
10
1340.5
20
-205
10
1345
20
-200.5
10
1349.5
20
-202
10
1349.5
20
-218
10
1354.5
20
-221
0
LWPOLYLINE
8
REFERENCE_STROKES
90
8
70
0
10
1365
20
-223.5
10
1358
20
-222.5
10
1354.5
20
-216
10
1355.5
20
-206
10
1362
20
-200.5
10
1369.5
20
-204
10
1371.5
20
-211
10
1368.5
20
-221
0
LWPOLYLINE
8
REFERENCE_STROKES
90
20
70
0
10
1927
20
-234.5
10
1914
20
-236.5
10
1908.5
20
-232
10
1908.5
20
-206
10
1913
20
-200.5
10
1927
20
-200.5
10
1931.5
20
-207
10
1929
20
-211.5
10
1926
20
-211.5
10
1922
20
-205.5
10
1914.5
20
-207
10
1913.5
20
-229
10
1915
20
-230.5
10
1923.5
20
-229
10
1923.5
20
-225
10
1921.5
20
-223
10
1923
20
-217.5
10
1931.5
20
-219
10
1929.5
20
-224
10
1930.5
20
-232
0
LWPOLYLINE
8
REFERENCE_STROKES
90
14
70
1
10
1960
20
-237.5
10
1953.5
20
-235
10
1949
20
-222.5
10
1944.5
20
-223
10
1943.5
20
-234
10
1940
20
-236.5
10
1936.5
20
-235
10
1937.5
20
-202
10
1939
20
-200.5
10
1955
20
-201.5
10
1958.5
20
-205
10
1958.5
20
-217
10
1955.5
20
-224
10
1960.5
20
-235
0
LWPOLYLINE
8
REFERENCE_STROKES
90
11
70
1
10
1385
20
-224.5
10
1372.5
20
-223
10
1372.5
20
-220
10
1377.5
20
-218
10
1377.5
20
-208
10
1375
20
-208.5
10
1373.5
20
-206
10
1378
20
-201.5
10
1382.5
20
-202
10
1382.5
20
-219
10
1386.5
20
-221
0
LWPOLYLINE
8
REFERENCE_STROKES
90
17
70
0
10
1985
20
-238.5
10
1979
20
-236.5
10
1967
20
-237.5
10
1965.5
20
-236
10
1965.5
20
-216
10
1968
20
-201.5
10
1988.5
20
-203
10
1986
20
-208.5
10
1973.5
20
-209
10
1975
20
-215.5
10
1984.5
20
-217
10
1983
20
-222.5
10
1975
20
-221.5
10
1973.5
20
-223
10
1973.5
20
-231
10
1985
20
-231.5
10
1986.5
20
-233
0
LWPOLYLINE
8
REFERENCE_STROKES
90
43
70
0
10
211.5
20
-226
10
209
20
-226.5
10
205
20
-222.5
10
200
20
-226.5
10
197
20
-224.5
10
193
20
-225.5
10
191
20
-222.5
10
186
20
-225.5
10
183
20
-221.5
10
179
20
-225.5
10
175
20
-222.5
10
170
20
-224.5
10
169
20
-216.5
10
164.5
20
-220
10
165.5
20
-223
10
164
20
-224.5
10
155
20
-224.5
10
152.5
20
-220
10
153
20
-213.5
10
144
20
-217.5
10
141.5
20
-224
10
138
20
-224.5
10
136.5
20
-222
10
137.5
20
-207
10
140
20
-202.5
10
147
20
-202.5
10
151
20
-204.5
10
161
20
-202.5
10
170
20
-209.5
10
170.5
20
-206
10
175
20
-204.5
10
174.5
20
-220
10
176
20
-220.5
10
181
20
-204.5
10
184
20
-204.5
10
186
20
-209.5
10
192
20
-204.5
10
194.5
20
-209
10
196
20
-219.5
10
198.5
20
-218
10
202.5
20
-207
10
208
20
-204.5
10
212.5
20
-211
0
LWPOLYLINE
8
REFERENCE_STROKES
90
20
70
0
10
2013
20
-237.5
10
1994
20
-238.5
10
1992.5
20
-237
10
1993.5
20
-211
10
1996
20
-202.5
10
2015.5
20
-204
10
2015.5
20
-207
10
2012
20
-209.5
10
2002
20
-208.5
10
2000.5
20
-210
10
2000.5
20
-215
10
2003
20
-217.5
10
2011
20
-216.5
10
2011.5
20
-222
10
2010
20
-223.5
10
2002
20
-222.5
10
1999.5
20
-225
10
1999.5
20
-230
10
2002
20
-232.5
10
2011
20
-232.5
0
LWPOLYLINE
8
REFERENCE_STROKES
90
17
70
1
10
2047
20
-240.5
10
2038.5
20
-239
10
2032
20
-218.5
10
2029.5
20
-221
10
2029.5
20
-238
10
2028
20
-239.5
10
2022.5
20
-238
10
2023.5
20
-205
10
2025
20
-203.5
10
2035.5
20
-206
10
2040
20
-222.5
10
2041.5
20
-222
10
2041.5
20
-205
10
2049
20
-204.5
10
2050.5
20
-206
10
2048.5
20
-218
10
2049.5
20
-238
0
LWPOLYLINE
8
REFERENCE_STROKES
90
22
70
0
10
243.5
20
-225
10
241
20
-227.5
10
236
20
-227.5
10
235.5
20
-224
10
238.5
20
-221
10
230
20
-216.5
10
225.5
20
-221
10
226.5
20
-225
10
225
20
-226.5
10
216
20
-226.5
10
214.5
20
-225
10
214.5
20
-206
10
221
20
-204.5
10
230
20
-209.5
10
233
20
-205.5
10
235.5
20
-208
10
237
20
-214.5
10
239.5
20
-213
10
240.5
20
-209
10
245
20
-206.5
10
246.5
20
-208
10
246.5
20
-218
0
LWPOLYLINE
8
REFERENCE_STROKES
90
5
70
0
10
1332
20
-217.5
10
1333.5
20
-206
10
1329
20
-204.5
10
1326.5
20
-209
10
1328
20
-217.5
0
LWPOLYLINE
8
REFERENCE_STROKES
90
10
70
0
10
2088
20
-241.5
10
2081
20
-239.5
10
2074
20
-241.5
10
2070.5
20
-240
10
2072
20
-205.5
10
2077
20
-204.5
10
2079.5
20
-207
10
2077.5
20
-234
10
2088
20
-234.5
10
2089.5
20
-236
0
LWPOLYLINE
8
REFERENCE_STROKES
90
6
70
0
10
1363
20
-219.5
10
1365.5
20
-217
10
1365.5
20
-207
10
1364
20
-205.5
10
1359.5
20
-208
10
1359.5
20
-217
0
LWPOLYLINE
8
REFERENCE_STROKES
90
17
70
0
10
2113
20
-242.5
10
2094
20
-241.5
10
2092.5
20
-239
10
2093.5
20
-209
10
2097
20
-205.5
10
2115
20
-206.5
10
2116.5
20
-208
10
2113
20
-213.5
10
2101.5
20
-213
10
2103
20
-220.5
10
2111
20
-219.5
10
2112.5
20
-221
10
2112
20
-225.5
10
2101.5
20
-227
10
2101.5
20
-235
10
2112
20
-235.5
10
2114.5
20
-238
0
LWPOLYLINE
8
REFERENCE_STROKES
90
41
70
1
10
324.5
20
-212
10
319.5
20
-214
10
318.5
20
-229
10
317
20
-230.5
10
313.5
20
-229
10
313.5
20
-215
10
312
20
-213.5
10
308.5
20
-214
10
306.5
20
-225
10
302
20
-229.5
10
297
20
-229.5
10
292.5
20
-225
10
292
20
-221.5
10
286
20
-227.5
10
278
20
-228.5
10
273.5
20
-224
10
273
20
-219.5
10
268.5
20
-223
10
269.5
20
-227
10
268
20
-228.5
10
264
20
-226.5
10
260
20
-228.5
10
258.5
20
-227
10
258.5
20
-213
10
256.5
20
-209
10
259
20
-206.5
10
265
20
-206.5
10
274
20
-214.5
10
280
20
-206.5
10
286
20
-207.5
10
291
20
-213.5
10
292.5
20
-213
10
292.5
20
-209
10
296
20
-207.5
10
298.5
20
-211
10
297.5
20
-222
10
299
20
-223.5
10
301.5
20
-222
10
302.5
20
-209
10
305
20
-207.5
10
323
20
-208.5
0
LWPOLYLINE
8
REFERENCE_STROKES
90
4
70
0
10
1951.5
20
-215
10
1952
20
-207.5
10
1943.5
20
-208
10
1946
20
-215.5
0
LWPOLYLINE
8
REFERENCE_STROKES
90
13
70
1
10
2138
20
-242.5
10
2130
20
-242.5
10
2127.5
20
-239
10
2123
20
-207.5
10
2130.5
20
-207
10
2133
20
-226.5
10
2136.5
20
-224
10
2138.5
20
-209
10
2143
20
-207.5
10
2147.5
20
-209
10
2141.5
20
-233
10
2138.5
20
-236
10
2139.5
20
-241
0
LWPOLYLINE
8
REFERENCE_STROKES
90
13
70
0
10
327
20
-230.5
10
324.5
20
-224
10
327.5
20
-211
10
330
20
-208.5
10
338
20
-208.5
10
340.5
20
-212
10
334.5
20
-214
10
337.5
20
-219
10
332
20
-221.5
10
330.5
20
-225
10
337
20
-224.5
10
338.5
20
-227
10
333
20
-230.5
0
LWPOLYLINE
8
REFERENCE_STROKES
90
20
70
1
10
2170
20
-243.5
10
2151
20
-243.5
10
2149.5
20
-242
10
2150.5
20
-210
10
2152
20
-208.5
10
2172.5
20
-209
10
2172.5
20
-212
10
2169
20
-215.5
10
2159
20
-214.5
10
2157.5
20
-216
10
2157.5
20
-222
10
2167
20
-221.5
10
2168.5
20
-227
10
2167
20
-228.5
10
2159
20
-227.5
10
2156.5
20
-230
10
2156.5
20
-236
10
2158
20
-237.5
10
2168
20
-237.5
10
2171.5
20
-242
0
LWPOLYLINE
8
REFERENCE_STROKES
90
10
70
0
10
2195
20
-245.5
10
2188
20
-242.5
10
2182
20
-244.5
10
2178.5
20
-243
10
2180.5
20
-210
10
2183
20
-208.5
10
2186.5
20
-210
10
2185.5
20
-238
10
2197
20
-238.5
10
2197.5
20
-242
0
LWPOLYLINE
8
REFERENCE_STROKES
90
6
70
0
10
280
20
-223.5
10
283
20
-223.5
10
285.5
20
-219
10
285.5
20
-215
10
283
20
-212.5
10
278.5
20
-219
0
LWPOLYLINE
8
REFERENCE_STROKES
90
28
70
0
10
2266
20
-353.5
10
2221
20
-351.5
10
2200.5
20
-333
10
2201.5
20
-311
10
2203
20
-309.5
10
2232
20
-310.5
10
2232.5
20
-322
10
2235
20
-323.5
10
2255
20
-323.5
10
2256.5
20
-322
10
2256.5
20
-296
10
2255
20
-294.5
10
2220
20
-293.5
10
2202.5
20
-278
10
2203.5
20
-229
10
2221
20
-212.5
10
2270
20
-213.5
10
2290.5
20
-231
10
2289
20
-253.5
10
2259
20
-252.5
10
2257
20
-240.5
10
2218.5
20
-240
10
2234.5
20
-248
10
2233.5
20
-265
10
2236
20
-267.5
10
2270
20
-268.5
10
2288.5
20
-284
10
2287.5
20
-338
0
LWPOLYLINE
8
REFERENCE_STROKES
90
6
70
0
10
399.5
20
-223
10
384
20
-223.5
10
382.5
20
-218
10
385
20
-214.5
10
397
20
-215.5
10
399.5
20
-217
0
LWPOLYLINE
8
REFERENCE_STROKES
90
6
70
0
10
435.5
20
-224
10
434
20
-225.5
10
414
20
-224.5
10
412.5
20
-218
10
414
20
-216.5
10
435
20
-217.5
0
LWPOLYLINE
8
REFERENCE_STROKES
90
9
70
0
10
504.5
20
-227
10
504.5
20
-221
10
506
20
-219.5
10
511
20
-220.5
10
513
20
-216.5
10
537.5
20
-224
10
536
20
-227.5
10
514
20
-232.5
10
511
20
-228.5
0
LWPOLYLINE
8
REFERENCE_STROKES
90
6
70
0
10
469.5
20
-225
10
468
20
-226.5
10
450
20
-225.5
10
448.5
20
-219
10
450
20
-217.5
10
468
20
-218.5
0
LWPOLYLINE
8
REFERENCE_STROKES
90
6
70
0
10
495.5
20
-226
10
494
20
-227.5
10
479
20
-226.5
10
478.5
20
-220
10
480
20
-218.5
10
494
20
-219.5
0
LWPOLYLINE
8
REFERENCE_STROKES
90
24
70
0
10
1980
20
-343.5
10
1955
20
-342.5
10
1952.5
20
-337
10
1951.5
20
-324
10
1948
20
-321.5
10
1937
20
-321.5
10
1935.5
20
-323
10
1931
20
-341.5
10
1908
20
-341.5
10
1906.5
20
-340
10
1923.5
20
-269
10
1923.5
20
-262
10
1927.5
20
-252
10
1927.5
20
-248
10
1920
20
-244.5
10
1919
20
-241.5
10
1934
20
-240.5
10
1953
20
-242.5
10
1961
20
-241.5
10
1963.5
20
-243
10
1963.5
20
-250
10
1971.5
20
-283
10
1973.5
20
-307
10
1978.5
20
-325
0
LWPOLYLINE
8
REFERENCE_STROKES
90
20
70
1
10
2029
20
-345.5
10
1994.5
20
-344
10
2000.5
20
-331
10
2002.5
20
-266
10
2000
20
-264.5
10
1993
20
-265.5
10
1986
20
-273.5
10
1982.5
20
-274
10
1982.5
20
-246
10
1985
20
-242.5
10
2035
20
-245.5
10
2046
20
-244.5
10
2047.5
20
-246
10
2045.5
20
-265
10
2046.5
20
-275
10
2043
20
-276.5
10
2035
20
-266.5
10
2026.5
20
-267
10
2024.5
20
-334
10
2029.5
20
-342
0
LWPOLYLINE
8
REFERENCE_STROKES
90
11
70
0
10
2105
20
-347.5
10
2070
20
-346.5
10
2062
20
-337.5
10
2058.5
20
-336
10
2057.5
20
-315
10
2060.5
20
-257
10
2073
20
-245.5
10
2098
20
-247.5
10
2109
20
-246.5
10
2120.5
20
-259
10
2119.5
20
-334
0
LWPOLYLINE
8
REFERENCE_STROKES
90
23
70
1
10
2202
20
-350.5
10
2176
20
-350.5
10
2173.5
20
-349
10
2171.5
20
-337
10
2164.5
20
-320
10
2163.5
20
-311
10
2161
20
-308.5
10
2152.5
20
-310
10
2152.5
20
-347
10
2149
20
-349.5
10
2128.5
20
-347
10
2131.5
20
-255
10
2123
20
-250.5
10
2122
20
-247.5
10
2181
20
-250.5
10
2192.5
20
-262
10
2192.5
20
-279
10
2190.5
20
-284
10
2191.5
20
-296
10
2182.5
20
-305
10
2194.5
20
-335
10
2195.5
20
-343
10
2202.5
20
-349
0
LWPOLYLINE
8
REFERENCE_STROKES
90
17
70
0
10
146.5
20
-283
10
140
20
-287.5
10
135
20
-287.5
10
133
20
-285.5
10
128
20
-287.5
10
124
20
-282.5
10
120
20
-287.5
10
116.5
20
-286
10
117.5
20
-277
10
123
20
-266.5
10
129
20
-266.5
10
132
20
-272.5
10
134.5
20
-267
10
138
20
-266.5
10
139.5
20
-268
10
138.5
20
-281
10
144
20
-279.5
0
LWPOLYLINE
8
REFERENCE_STROKES
90
10
70
1
10
154
20
-288.5
10
150.5
20
-287
10
151.5
20
-273
10
145.5
20
-269
10
147
20
-266.5
10
160
20
-266.5
10
161.5
20
-268
10
161
20
-270.5
10
156.5
20
-272
10
155.5
20
-287
0
LWPOLYLINE
8
REFERENCE_STROKES
90
14
70
0
10
2095
20
-326.5
10
2094.5
20
-315
10
2096.5
20
-307
10
2095.5
20
-280
10
2097.5
20
-271
10
2096
20
-267.5
10
2076
20
-266.5
10
2075.5
20
-268
10
2083.5
20
-274
10
2083.5
20
-298
10
2081.5
20
-300
10
2083.5
20
-313
10
2081.5
20
-317
10
2081.5
20
-326
0
LWPOLYLINE
8
REFERENCE_STROKES
90
45
70
0
10
228.5
20
-289
10
224
20
-290.5
10
219
20
-285.5
10
216
20
-290.5
10
213
20
-286.5
10
208
20
-290.5
10
204
20
-290.5
10
202
20
-288.5
10
197
20
-289.5
10
195.5
20
-281
10
194
20
-280.5
10
190.5
20
-284
10
191.5
20
-288
10
190
20
-289.5
10
182
20
-289.5
10
179.5
20
-287
10
180.5
20
-274
10
178
20
-270.5
10
173
20
-271.5
10
171.5
20
-274
10
174.5
20
-277
10
168.5
20
-280
10
169
20
-283.5
10
175
20
-282.5
10
175.5
20
-286
10
166
20
-289.5
10
162.5
20
-286
10
162.5
20
-278
10
167
20
-267.5
10
186
20
-267.5
10
191
20
-269.5
10
195
20
-275.5
10
197.5
20
-274
10
197.5
20
-271
10
202
20
-268.5
10
204.5
20
-283
10
206
20
-283.5
10
207.5
20
-279
10
206.5
20
-271
10
209
20
-268.5
10
211.5
20
-270
10
213
20
-280.5
10
219
20
-270.5
10
225
20
-269.5
10
228.5
20
-274
0
LWPOLYLINE
8
REFERENCE_STROKES
90
148
70
0
10
2302.5
20
-891
10
2300.5
20
-885
10
2294
20
-877.5
10
2286
20
-875.5
10
2283.5
20
-873
10
2296
20
-868.5
10
2300.5
20
-864
10
2302.5
20
-857
10
2285
20
-854.5
10
2247
20
-852.5
10
2245.5
20
-854
10
2244.5
20
-889
10
2243
20
-890.5
10
2174
20
-887.5
10
2171.5
20
-877
10
2173.5
20
-852
10
2170
20
-849.5
10
2080
20
-847.5
10
1223
20
-813.5
10
1221.5
20
-801
10
1241.5
20
-296
10
1241.5
20
-275
10
1238
20
-273.5
10
1183
20
-271.5
10
1180.5
20
-273
10
1180.5
20
-285
10
1177
20
-288.5
10
1168
20
-285.5
10
1159
20
-274.5
10
1151
20
-283.5
10
1143
20
-286.5
10
1137
20
-286.5
10
1136
20
-270.5
10
1082.5
20
-269
10
1076.5
20
-446
10
1074
20
-449.5
10
1052.5
20
-449
10
1053.5
20
-454
10
1058
20
-460.5
10
1075.5
20
-468
10
1063.5
20
-797
10
1061
20
-808.5
10
876
20
-802.5
10
842
20
-799.5
10
197
20
-778.5
10
195.5
20
-780
10
194.5
20
-813
10
193
20
-814.5
10
125
20
-812.5
10
123.5
20
-811
10
125.5
20
-780
10
124
20
-776.5
10
51
20
-774.5
10
51.5
20
-781
10
57
20
-786.5
10
65.5
20
-791
10
56
20
-794.5
10
48.5
20
-804
10
49
20
-806.5
10
70
20
-807.5
10
73.5
20
-810
10
72
20
-849.5
10
108
20
-850.5
10
109.5
20
-817
10
111
20
-815.5
10
192
20
-818.5
10
194.5
20
-827
10
192.5
20
-853
10
194
20
-854.5
10
222
20
-854.5
10
227.5
20
-857
10
217.5
20
-1065
10
220
20
-1067.5
10
828
20
-1086.5
10
830.5
20
-1072
10
839.5
20
-858
10
848
20
-856.5
10
1009
20
-861.5
10
1010.5
20
-863
10
1010
20
-906.5
10
1046
20
-907.5
10
1058.5
20
-910
10
1052.5
20
-1070
10
1054
20
-1071.5
10
1102
20
-1072.5
10
1103.5
20
-1074
10
1099.5
20
-1184
10
1098
20
-1185.5
10
1049
20
-1183.5
10
1047.5
20
-1185
10
1046.5
20
-1209
10
1048
20
-1210.5
10
1075
20
-1211.5
10
1076.5
20
-1213
10
1076
20
-1236.5
10
1083
20
-1235.5
10
1087
20
-1232.5
10
1091.5
20
-1226
10
1092.5
20
-1220
10
1096
20
-1218.5
10
1099.5
20
-1230
10
1106
20
-1236.5
10
1112.5
20
-1238
10
1113.5
20
-1214
10
1115
20
-1212.5
10
1144
20
-1213.5
10
1146.5
20
-1216
10
1147
20
-1239.5
10
1156
20
-1236.5
10
1160.5
20
-1232
10
1163.5
20
-1222
10
1166
20
-1221.5
10
1170.5
20
-1233
10
1177
20
-1239.5
10
1183
20
-1240.5
10
1183.5
20
-1220
10
1186
20
-1215.5
10
1208.5
20
-1216
10
1209
20
-1190.5
10
1172
20
-1189.5
10
1159.5
20
-1187
10
1163.5
20
-1077
10
1165
20
-1075.5
10
1209
20
-1077.5
10
1213.5
20
-1076
10
1218.5
20
-917
10
1221
20
-914.5
10
1269
20
-916.5
10
1270.5
20
-876
10
1274
20
-872.5
10
1447
20
-878.5
10
1449.5
20
-881
10
1443
20
-1110.5
10
2108
20
-1137.5
10
2109.5
20
-1135
10
2115.5
20
-927
10
2118
20
-924.5
10
2156
20
-926.5
10
2157.5
20
-925
10
2157.5
20
-893
10
2160
20
-890.5
10
2242
20
-893.5
10
2244.5
20
-896
10
2243.5
20
-929
10
2272
20
-930.5
10
2273.5
20
-893
10
2277
20
-890.5
10
2295
20
-892.5
0
LWPOLYLINE
8
REFERENCE_STROKES
90
9
70
0
10
237
20
-291.5
10
233.5
20
-288
10
234.5
20
-275
10
229.5
20
-273
10
230
20
-269.5
10
244
20
-269.5
10
245.5
20
-271
10
239.5
20
-275
10
239.5
20
-286
0
LWPOLYLINE
8
REFERENCE_STROKES
90
15
70
0
10
248
20
-291.5
10
245.5
20
-288
10
245.5
20
-282
10
248.5
20
-272
10
255
20
-269.5
10
261.5
20
-272
10
260
20
-274.5
10
254.5
20
-275
10
257.5
20
-280
10
251.5
20
-283
10
252
20
-285.5
10
257
20
-284.5
10
259.5
20
-287
10
258.5
20
-289
10
254
20
-291.5
0
LWPOLYLINE
8
REFERENCE_STROKES
90
7
70
1
10
2169.5
20
-287
10
2169.5
20
-271
10
2168
20
-269.5
10
2146.5
20
-270
10
2154.5
20
-274
10
2154
20
-288.5
10
2167
20
-289.5
0
LWPOLYLINE
8
REFERENCE_STROKES
90
37
70
1
10
338.5
20
-276
10
333.5
20
-278
10
333.5
20
-288
10
331
20
-294.5
10
327.5
20
-293
10
328.5
20
-279
10
324
20
-276.5
10
322.5
20
-277
10
320.5
20
-289
10
317
20
-293.5
10
311
20
-293.5
10
306.5
20
-289
10
306
20
-285.5
10
297
20
-293.5
10
292
20
-292.5
10
287
20
-284.5
10
283.5
20
-287
10
284.5
20
-291
10
283
20
-292.5
10
274
20
-292.5
10
272.5
20
-291
10
271.5
20
-272
10
273
20
-270.5
10
281
20
-271.5
10
287
20
-277.5
10
289
20
-277.5
10
294
20
-271.5
10
299
20
-271.5
10
305
20
-276.5
10
308
20
-272.5
10
311
20
-272.5
10
312.5
20
-274
10
311.5
20
-285
10
313
20
-287.5
10
315.5
20
-287
10
318
20
-272.5
10
337
20
-272.5
0
LWPOLYLINE
8
REFERENCE_STROKES
90
6
70
0
10
1939
20
-302.5
10
1950.5
20
-301
10
1945
20
-271.5
10
1942.5
20
-273
10
1940.5
20
-292
10
1937.5
20
-298
0
LWPOLYLINE
8
REFERENCE_STROKES
90
13
70
0
10
342
20
-294.5
10
339.5
20
-292
10
339.5
20
-285
10
344
20
-273.5
10
354
20
-273.5
10
355.5
20
-276
10
349.5
20
-278
10
351.5
20
-283
10
345.5
20
-286
10
346
20
-288.5
10
351
20
-287.5
10
353.5
20
-291
10
348
20
-294.5
0
LWPOLYLINE
8
REFERENCE_STROKES
90
4
70
1
10
280
20
-282.5
10
281.5
20
-278
10
279
20
-276.5
10
278.5
20
-282
0
LWPOLYLINE
8
REFERENCE_STROKES
90
5
70
0
10
294
20
-287.5
10
297
20
-287.5
10
300.5
20
-282
10
298
20
-276.5
10
294.5
20
-278
0
LWPOLYLINE
8
REFERENCE_STROKES
90
5
70
0
10
388
20
-288.5
10
382
20
-289.5
10
380.5
20
-288
10
382
20
-279.5
10
389.5
20
-283
0
LWPOLYLINE
8
REFERENCE_STROKES
90
5
70
0
10
402
20
-289.5
10
398
20
-289.5
10
395.5
20
-287
10
398
20
-281.5
10
403.5
20
-283
0
LWPOLYLINE
8
REFERENCE_STROKES
90
6
70
0
10
415
20
-290.5
10
410.5
20
-288
10
410.5
20
-284
10
414
20
-281.5
10
418.5
20
-284
10
418.5
20
-288
0
LWPOLYLINE
8
REFERENCE_STROKES
90
6
70
0
10
507.5
20
-287
10
512
20
-281.5
10
530
20
-287.5
10
533.5
20
-291
10
511
20
-298.5
10
507.5
20
-292
0
LWPOLYLINE
8
REFERENCE_STROKES
90
6
70
1
10
430
20
-290.5
10
427
20
-290.5
10
424.5
20
-287
10
428
20
-282.5
10
432.5
20
-284
10
432.5
20
-288
0
LWPOLYLINE
8
REFERENCE_STROKES
90
6
70
1
10
445
20
-291.5
10
439.5
20
-289
10
440.5
20
-284
10
443
20
-282.5
10
447.5
20
-285
10
447.5
20
-289
0
LWPOLYLINE
8
REFERENCE_STROKES
90
4
70
0
10
460
20
-291.5
10
454.5
20
-289
10
457
20
-283.5
10
462.5
20
-286
0
LWPOLYLINE
8
REFERENCE_STROKES
90
5
70
0
10
474
20
-291.5
10
471
20
-292.5
10
467.5
20
-290
10
469
20
-284.5
10
475.5
20
-286
0
LWPOLYLINE
8
REFERENCE_STROKES
90
5
70
0
10
486
20
-292.5
10
480.5
20
-290
10
482
20
-284.5
10
486
20
-284.5
10
488.5
20
-287
0
LWPOLYLINE
8
REFERENCE_STROKES
90
6
70
1
10
495
20
-292.5
10
493.5
20
-287
10
500
20
-285.5
10
502.5
20
-289
10
501.5
20
-291
10
497
20
-293.5
0
LWPOLYLINE
8
REFERENCE_STROKES
90
10
70
0
10
1446
20
-400.5
10
1454.5
20
-400
10
1457.5
20
-317
10
1456
20
-315.5
10
1449.5
20
-317
10
1449.5
20
-320
10
1452.5
20
-322
10
1450.5
20
-390
10
1449.5
20
-394
10
1445.5
20
-396
0
LWPOLYLINE
8
REFERENCE_STROKES
90
14
70
1
10
1447.5
20
-385
10
1448.5
20
-339
10
1444
20
-339.5
10
1434
20
-335.5
10
1425
20
-322.5
10
1253
20
-317.5
10
1251.5
20
-319
10
1250
20
-385.5
10
1422
20
-391.5
10
1424.5
20
-386
10
1432
20
-378.5
10
1440
20
-375.5
10
1445.5
20
-378
10
1445.5
20
-385
0
LWPOLYLINE
8
REFERENCE_STROKES
90
8
70
0
10
1328
20
-362.5
10
1321
20
-362.5
10
1317.5
20
-359
10
1317.5
20
-345
10
1322
20
-340.5
10
1328
20
-340.5
10
1332.5
20
-346
10
1332.5
20
-356
0
LWPOLYLINE
8
REFERENCE_STROKES
90
12
70
1
10
1347
20
-363.5
10
1336
20
-363.5
10
1334.5
20
-362
10
1335
20
-359.5
10
1339.5
20
-358
10
1339.5
20
-348
10
1336
20
-347.5
10
1335.5
20
-345
10
1340
20
-340.5
10
1343.5
20
-342
10
1343.5
20
-358
10
1348.5
20
-361
0
LWPOLYLINE
8
REFERENCE_STROKES
90
27
70
0
10
1381.5
20
-358
10
1379.5
20
-362
10
1375
20
-364.5
10
1369
20
-363.5
10
1366
20
-359.5
10
1360
20
-363.5
10
1354
20
-363.5
10
1349.5
20
-358
10
1350.5
20
-345
10
1355
20
-341.5
10
1362
20
-342.5
10
1365.5
20
-349
10
1364.5
20
-358
10
1369
20
-356.5
10
1374
20
-360.5
10
1375.5
20
-356
10
1371
20
-354.5
10
1370.5
20
-352
10
1375
20
-350.5
10
1376.5
20
-347
10
1373
20
-345.5
10
1368
20
-348.5
10
1367.5
20
-345
10
1372
20
-341.5
10
1378
20
-342.5
10
1380.5
20
-345
10
1379.5
20
-354
0
LWPOLYLINE
8
REFERENCE_STROKES
90
7
70
1
10
1326
20
-358.5
10
1328.5
20
-354
10
1328.5
20
-347
10
1324
20
-344.5
10
1321.5
20
-347
10
1321.5
20
-356
10
1323
20
-358.5
0
LWPOLYLINE
8
REFERENCE_STROKES
90
6
70
0
10
1358
20
-359.5
10
1360.5
20
-357
10
1360.5
20
-347
10
1356
20
-345.5
10
1353.5
20
-350
10
1353.5
20
-356
0
LWPOLYLINE
8
REFERENCE_STROKES
90
33
70
0
10
2284.5
20
-487
10
2112
20
-481.5
10
2099
20
-479.5
10
2047
20
-479.5
10
1940
20
-474.5
10
1806
20
-471.5
10
1804.5
20
-470
10
1804.5
20
-455
10
1808.5
20
-409
10
1808.5
20
-365
10
1810
20
-363.5
10
1834
20
-363.5
10
1875
20
-366.5
10
1896
20
-365.5
10
1913
20
-367.5
10
1971
20
-368.5
10
1973
20
-370.5
10
1977
20
-368.5
10
2014
20
-370.5
10
2030
20
-369.5
10
2045
20
-371.5
10
2072
20
-371.5
10
2084
20
-374.5
10
2090
20
-371.5
10
2092
20
-373.5
10
2108
20
-372.5
10
2123
20
-374.5
10
2146
20
-373.5
10
2155
20
-375.5
10
2170
20
-374.5
10
2215
20
-377.5
10
2286
20
-378.5
10
2287.5
20
-380
0
LWPOLYLINE
8
REFERENCE_STROKES
90
15
70
0
10
1438
20
-600.5
10
1445.5
20
-421
10
1461
20
-418.5
10
1468.5
20
-411
10
1469.5
20
-405
10
1444
20
-404.5
10
1441.5
20
-402
10
1442
20
-379.5
10
1434
20
-381.5
10
1428.5
20
-387
10
1423
20
-403.5
10
1250
20
-397.5
10
1248.5
20
-399
10
1241.5
20
-593
10
1243
20
-594.5
0
LWPOLYLINE
8
REFERENCE_STROKES
90
23
70
0
10
1886
20
-436.5
10
1892.5
20
-433
10
1894.5
20
-424
10
1905
20
-406.5
10
1907.5
20
-407
10
1905
20
-397.5
10
1898.5
20
-399
10
1897.5
20
-405
10
1894.5
20
-406
10
1893.5
20
-413
10
1889
20
-420.5
10
1887.5
20
-416
10
1888.5
20
-411
10
1886.5
20
-409
10
1885.5
20
-402
10
1887
20
-398.5
10
1889
20
-400.5
10
1890.5
20
-399
10
1888
20
-395.5
10
1883
20
-394.5
10
1877.5
20
-400
10
1883.5
20
-425
10
1883.5
20
-433
0
LWPOLYLINE
8
REFERENCE_STROKES
90
20
70
0
10
1850
20
-434.5
10
1860
20
-434.5
10
1872.5
20
-428
10
1869
20
-424.5
10
1865
20
-424.5
10
1855
20
-428.5
10
1854.5
20
-420
10
1859
20
-416.5
10
1864
20
-416.5
10
1871.5
20
-413
10
1871
20
-409.5
10
1859
20
-409.5
10
1858.5
20
-407
10
1862
20
-403.5
10
1869
20
-404.5
10
1875.5
20
-400
10
1875
20
-397.5
10
1859
20
-396.5
10
1853.5
20
-398
10
1846.5
20
-431
0
LWPOLYLINE
8
REFERENCE_STROKES
90
16
70
0
10
1904
20
-437.5
10
1908.5
20
-436
10
1911
20
-425.5
10
1918
20
-428.5
10
1923
20
-436.5
10
1926
20
-436.5
10
1928.5
20
-433
10
1928.5
20
-403
10
1923
20
-397.5
10
1917
20
-398.5
10
1911.5
20
-404
10
1909.5
20
-410
10
1904.5
20
-411
10
1904.5
20
-413
10
1907.5
20
-414
10
1901.5
20
-431
0
LWPOLYLINE
8
REFERENCE_STROKES
90
18
70
0
10
1941
20
-438.5
10
1950
20
-436.5
10
1956.5
20
-431
10
1955
20
-427.5
10
1942
20
-430.5
10
1939.5
20
-427
10
1940.5
20
-420
10
1948
20
-406.5
10
1949.5
20
-407
10
1949
20
-415.5
10
1954
20
-415.5
10
1956.5
20
-413
10
1955.5
20
-401
10
1951
20
-398.5
10
1944
20
-399.5
10
1937.5
20
-406
10
1934.5
20
-414
10
1933.5
20
-431
0
LWPOLYLINE
8
REFERENCE_STROKES
90
17
70
0
10
1979
20
-438.5
10
1985.5
20
-433
10
1988.5
20
-424
10
1990.5
20
-401
10
1988
20
-399.5
10
1980.5
20
-401
10
1981.5
20
-422
10
1977.5
20
-430
10
1973
20
-431.5
10
1968.5
20
-427
10
1971.5
20
-404
10
1970
20
-400.5
10
1964
20
-399.5
10
1960.5
20
-410
10
1961.5
20
-421
10
1959.5
20
-428
10
1968
20
-437.5
0
LWPOLYLINE
8
REFERENCE_STROKES
90
19
70
1
10
2033
20
-440.5
10
2036
20
-440.5
10
2040
20
-436.5
10
2044
20
-437.5
10
2045.5
20
-436
10
2041.5
20
-434
10
2041.5
20
-429
10
2039.5
20
-427
10
2040.5
20
-411
10
2042
20
-408.5
10
2050
20
-407.5
10
2051.5
20
-404
10
2054.5
20
-403
10
2051
20
-399.5
10
2043
20
-401.5
10
2023.5
20
-401
10
2022.5
20
-407
10
2032.5
20
-410
10
2030.5
20
-438
0
LWPOLYLINE
8
REFERENCE_STROKES
90
12
70
0
10
1994
20
-439.5
10
1999.5
20
-437
10
2001
20
-428.5
10
2006
20
-430.5
10
2013
20
-440.5
10
2018.5
20
-437
10
2018.5
20
-412
10
2014
20
-400.5
10
2007
20
-400.5
10
1997.5
20
-409
10
1995.5
20
-421
10
1990.5
20
-433
0
LWPOLYLINE
8
REFERENCE_STROKES
90
11
70
0
10
2086
20
-440.5
10
2094.5
20
-431
10
2096.5
20
-425
10
2095.5
20
-410
10
2091
20
-404.5
10
2077
20
-402.5
10
2069.5
20
-409
10
2066.5
20
-416
10
2065.5
20
-430
10
2068.5
20
-438
10
2073
20
-441.5
0
LWPOLYLINE
8
REFERENCE_STROKES
90
12
70
0
10
2054
20
-441.5
10
2060.5
20
-439
10
2060.5
20
-422
10
2063.5
20
-406
10
2061
20
-403.5
10
2056.5
20
-404
10
2052.5
20
-426
10
2051
20
-428.5
10
2048.5
20
-428
10
2048.5
20
-430
10
2052.5
20
-432
10
2051.5
20
-438
0
LWPOLYLINE
8
REFERENCE_STROKES
90
4
70
0
10
1921
20
-422.5
10
1911.5
20
-419
10
1919
20
-404.5
10
1921.5
20
-406
0
LWPOLYLINE
8
REFERENCE_STROKES
90
19
70
0
10
2127
20
-441.5
10
2130.5
20
-428
10
2128.5
20
-406
10
2123
20
-404.5
10
2120.5
20
-407
10
2122.5
20
-426
10
2121.5
20
-431
10
2117
20
-434.5
10
2113.5
20
-425
10
2114.5
20
-408
10
2111
20
-404.5
10
2108
20
-404.5
10
2102.5
20
-416
10
2100.5
20
-436
10
2098.5
20
-440
10
2101
20
-443.5
10
2106
20
-443.5
10
2108
20
-436.5
10
2115
20
-443.5
0
LWPOLYLINE
8
REFERENCE_STROKES
90
24
70
1
10
2187.5
20
-444
10
2187.5
20
-436
10
2183.5
20
-419
10
2185
20
-406.5
10
2177
20
-406.5
10
2174.5
20
-409
10
2170
20
-425.5
10
2168.5
20
-425
10
2167.5
20
-417
10
2168.5
20
-410
10
2165
20
-406.5
10
2159
20
-406.5
10
2157
20
-410.5
10
2150.5
20
-410
10
2150.5
20
-419
10
2155.5
20
-419
10
2149.5
20
-439
10
2151
20
-444.5
10
2157.5
20
-443
10
2161
20
-427.5
10
2162.5
20
-428
10
2164.5
20
-441
10
2167
20
-445.5
10
2186
20
-445.5
0
LWPOLYLINE
8
REFERENCE_STROKES
90
7
70
1
10
2007
20
-424.5
10
2002
20
-422.5
10
2001.5
20
-420
10
2006.5
20
-410
10
2010
20
-407.5
10
2011.5
20
-409
10
2010.5
20
-424
0
LWPOLYLINE
8
REFERENCE_STROKES
90
12
70
0
10
2191
20
-445.5
10
2201.5
20
-443
10
2198.5
20
-441
10
2200
20
-435.5
10
2206
20
-437.5
10
2212
20
-447.5
10
2216.5
20
-445
10
2217.5
20
-418
10
2213
20
-408.5
10
2206
20
-407.5
10
2198.5
20
-414
10
2192.5
20
-428
0
LWPOLYLINE
8
REFERENCE_STROKES
90
12
70
0
10
2225
20
-447.5
10
2229.5
20
-444
10
2229.5
20
-438
10
2232
20
-434.5
10
2243
20
-430.5
10
2250.5
20
-425
10
2250.5
20
-417
10
2246
20
-411.5
10
2232
20
-407.5
10
2222.5
20
-411
10
2222.5
20
-438
10
2220.5
20
-444
0
LWPOLYLINE
8
REFERENCE_STROKES
90
9
70
0
10
2078
20
-436.5
10
2072.5
20
-431
10
2071.5
20
-424
10
2074.5
20
-415
10
2080
20
-409.5
10
2083
20
-409.5
10
2088.5
20
-413
10
2089.5
20
-422
10
2085.5
20
-432
0
LWPOLYLINE
8
REFERENCE_STROKES
90
5
70
1
10
2209
20
-431.5
10
2200.5
20
-428
10
2207
20
-414.5
10
2209.5
20
-417
10
2210.5
20
-429
0
LWPOLYLINE
8
REFERENCE_STROKES
90
5
70
0
10
2230
20
-427.5
10
2231
20
-415.5
10
2238
20
-415.5
10
2242.5
20
-419
10
2240
20
-423.5
0
LWPOLYLINE
8
REFERENCE_STROKES
90
3
70
0
10
2095.5
20
-441
10
2088.5
20
-445
10
2094
20
-445.5
0
LWPOLYLINE
8
REFERENCE_STROKES
90
5
70
1
10
2090
20
-452.5
10
2092.5
20
-449
10
2091
20
-446.5
10
2088.5
20
-447
10
2088.5
20
-452
0
LWPOLYLINE
8
REFERENCE_STROKES
90
67
70
0
10
1071.5
20
-470
10
1069
20
-468.5
10
1066.5
20
-470
10
1063.5
20
-567
10
1061
20
-590.5
10
445
20
-567.5
10
419.5
20
-568
10
421
20
-572.5
10
525
20
-575.5
10
536.5
20
-578
10
534
20
-690.5
10
537
20
-690.5
10
538.5
20
-687
10
541.5
20
-579
10
544
20
-576.5
10
603
20
-578.5
10
605.5
20
-581
10
602
20
-691.5
10
606.5
20
-691
10
609.5
20
-591
10
612
20
-579.5
10
865
20
-588.5
10
867.5
20
-592
10
860.5
20
-789
10
858
20
-792.5
10
609
20
-784.5
10
603.5
20
-782
10
604.5
20
-753
10
603
20
-751.5
10
599.5
20
-752
10
598.5
20
-780
10
596
20
-783.5
10
549
20
-782.5
10
534.5
20
-780
10
537
20
-723.5
10
597
20
-724.5
10
601
20
-728.5
10
604
20
-728.5
10
605.5
20
-727
10
605.5
20
-716
10
602
20
-714.5
10
598
20
-719.5
10
540
20
-717.5
10
536
20
-713.5
10
533
20
-713.5
10
531.5
20
-715
10
529.5
20
-779
10
528
20
-780.5
10
273
20
-772.5
10
271.5
20
-771
10
271.5
20
-744
10
279.5
20
-568
10
284
20
-566.5
10
394
20
-571.5
10
395.5
20
-567
10
391
20
-565.5
10
127
20
-556.5
10
125.5
20
-558
10
116.5
20
-765
10
112
20
-767.5
10
68
20
-765.5
10
67.5
20
-770
10
71
20
-771.5
10
180
20
-775.5
10
352
20
-779.5
10
1058
20
-804.5
10
1059.5
20
-803
0
LWPOLYLINE
8
REFERENCE_STROKES
90
8
70
0
10
1322
20
-505.5
10
1315
20
-504.5
10
1311.5
20
-498
10
1312.5
20
-488
10
1317
20
-483.5
10
1325
20
-484.5
10
1328.5
20
-492
10
1327.5
20
-499
0
LWPOLYLINE
8
REFERENCE_STROKES
90
11
70
1
10
1343
20
-505.5
10
1329.5
20
-505
10
1329.5
20
-502
10
1333.5
20
-501
10
1333.5
20
-491
10
1330.5
20
-487
10
1335
20
-483.5
10
1338
20
-483.5
10
1339.5
20
-486
10
1338.5
20
-500
10
1343.5
20
-503
0
LWPOLYLINE
8
REFERENCE_STROKES
90
23
70
0
10
1375.5
20
-504
10
1370
20
-507.5
10
1364
20
-506.5
10
1361.5
20
-501
10
1364
20
-500.5
10
1369
20
-503.5
10
1371.5
20
-499
10
1370
20
-496.5
10
1361
20
-496.5
10
1356
20
-505.5
10
1350
20
-506.5
10
1344.5
20
-501
10
1344.5
20
-490
10
1349
20
-484.5
10
1357
20
-485.5
10
1360
20
-491.5
10
1364
20
-484.5
10
1374
20
-484.5
10
1375.5
20
-488
10
1368
20
-488.5
10
1366.5
20
-492
10
1372
20
-492.5
10
1375.5
20
-496
0
LWPOLYLINE
8
REFERENCE_STROKES
90
6
70
0
10
1320
20
-501.5
10
1323.5
20
-495
10
1322
20
-487.5
10
1318
20
-487.5
10
1316.5
20
-490
10
1316.5
20
-499
0
LWPOLYLINE
8
REFERENCE_STROKES
90
7
70
1
10
1353
20
-502.5
10
1355.5
20
-499
10
1355.5
20
-491
10
1354
20
-488.5
10
1351
20
-488.5
10
1348.5
20
-498
10
1349.5
20
-501
0
LWPOLYLINE
8
REFERENCE_STROKES
90
23
70
0
10
525.5
20
-777
10
528.5
20
-711
10
530
20
-709.5
10
552
20
-710.5
10
553.5
20
-709
10
550.5
20
-701
10
546
20
-696.5
10
538
20
-693.5
10
529.5
20
-693
10
533.5
20
-581
10
532
20
-579.5
10
417
20
-575.5
10
416
20
-551.5
10
408
20
-553.5
10
402.5
20
-559
10
399.5
20
-565
10
399.5
20
-572
10
397
20
-574.5
10
291
20
-570.5
10
282.5
20
-572
10
279.5
20
-676
10
274.5
20
-760
10
276
20
-769.5
0
LWPOLYLINE
8
REFERENCE_STROKES
90
8
70
0
10
264
20
-772.5
10
121.5
20
-767
10
129.5
20
-565
10
131
20
-562.5
10
254
20
-565.5
10
273.5
20
-568
10
270.5
20
-684
10
266.5
20
-763
0
LWPOLYLINE
8
REFERENCE_STROKES
90
7
70
0
10
262
20
-768.5
10
270.5
20
-571
10
135
20
-565.5
10
133.5
20
-567
10
130.5
20
-661
10
124.5
20
-763
10
126
20
-764.5
0
LWPOLYLINE
8
REFERENCE_STROKES
90
12
70
0
10
583
20
-715.5
10
582.5
20
-707
10
584.5
20
-702
10
598.5
20
-691
10
601.5
20
-583
10
600
20
-581.5
10
546
20
-580.5
10
544.5
20
-584
10
541.5
20
-690
10
553.5
20
-699
10
556.5
20
-705
10
555
20
-714.5
0
LWPOLYLINE
8
REFERENCE_STROKES
90
21
70
0
10
856.5
20
-789
10
863.5
20
-618
10
863
20
-591.5
10
623
20
-582.5
10
613.5
20
-584
10
610.5
20
-693
10
596
20
-696.5
10
588.5
20
-703
10
585.5
20
-709
10
587
20
-711.5
10
608
20
-711.5
10
609.5
20
-714
10
608.5
20
-730
10
607
20
-731.5
10
587
20
-731.5
10
585.5
20
-733
10
591
20
-743.5
10
598
20
-747.5
10
607.5
20
-749
10
606.5
20
-779
10
608
20
-780.5
0
LWPOLYLINE
8
REFERENCE_STROKES
90
10
70
0
10
580.5
20
-609
10
579
20
-610.5
10
573
20
-609.5
10
558
20
-602.5
10
555.5
20
-599
10
561
20
-594.5
10
580
20
-588.5
10
580.5
20
-592
10
574.5
20
-596
10
573.5
20
-603
0
LWPOLYLINE
8
REFERENCE_STROKES
90
8
70
0
10
1053
20
-799.5
10
867
20
-793.5
10
865.5
20
-792
10
872.5
20
-590
10
874
20
-588.5
10
1060
20
-595.5
10
1061.5
20
-597
10
1055.5
20
-788
0
LWPOLYLINE
8
REFERENCE_STROKES
90
24
70
0
10
1552
20
-814.5
10
1553.5
20
-813
10
1554.5
20
-777
10
1627.5
20
-620
10
1626
20
-618.5
10
1472
20
-613.5
10
1470.5
20
-599
10
1466
20
-593.5
10
1459
20
-589.5
10
1455.5
20
-590
10
1454.5
20
-611
10
1451
20
-613.5
10
1353
20
-609.5
10
1351.5
20
-631
10
1365.5
20
-634
10
1365.5
20
-648
10
1364
20
-649.5
10
1341
20
-648.5
10
1340.5
20
-651
10
1347
20
-661.5
10
1355
20
-665.5
10
1364.5
20
-667
10
1360.5
20
-806
10
1362
20
-807.5
0
LWPOLYLINE
8
REFERENCE_STROKES
90
8
70
0
10
1050
20
-796.5
10
1051.5
20
-795
10
1058.5
20
-600
10
1057
20
-598.5
10
877
20
-592.5
10
875.5
20
-596
10
868.5
20
-788
10
874
20
-790.5
0
LWPOLYLINE
8
REFERENCE_STROKES
90
18
70
0
10
1843
20
-820.5
10
1842.5
20
-814
10
1835
20
-805.5
10
1820.5
20
-801
10
1825.5
20
-626
10
1673
20
-620.5
10
1670.5
20
-606
10
1663
20
-598.5
10
1657
20
-596.5
10
1655.5
20
-598
10
1654.5
20
-619
10
1652
20
-620.5
10
1642
20
-619.5
10
1566.5
20
-780
10
1565.5
20
-814
10
1568
20
-815.5
10
1819
20
-824.5
10
1821
20
-819.5
0
LWPOLYLINE
8
REFERENCE_STROKES
90
4
70
0
10
569.5
20
-601
10
569
20
-597.5
10
563.5
20
-599
10
564
20
-600.5
0
LWPOLYLINE
8
REFERENCE_STROKES
90
8
70
0
10
1343.5
20
-633
10
1342
20
-634.5
10
1239
20
-631.5
10
1236.5
20
-627
10
1237.5
20
-605
10
1239
20
-602.5
10
1342
20
-605.5
10
1344.5
20
-608
0
LWPOLYLINE
8
REFERENCE_STROKES
90
25
70
0
10
2075
20
-834.5
10
2076.5
20
-833
10
2082.5
20
-646
10
2082.5
20
-636
10
2076.5
20
-633
10
2077.5
20
-612
10
2076
20
-610.5
10
2071
20
-611.5
10
2063.5
20
-617
10
2057
20
-633.5
10
1897
20
-628.5
10
1895.5
20
-630
10
1894.5
20
-669
10
1880
20
-671.5
10
1871.5
20
-681
10
1872
20
-685.5
10
1886
20
-685.5
10
1894.5
20
-688
10
1893.5
20
-707
10
1869.5
20
-708
10
1871.5
20
-715
10
1878
20
-721.5
10
1892.5
20
-726
10
1889.5
20
-826
10
1891
20
-827.5
0
LWPOLYLINE
8
REFERENCE_STROKES
90
28
70
0
10
573
20
-647.5
10
569
20
-647.5
10
554.5
20
-636
10
557
20
-631.5
10
569
20
-632.5
10
572.5
20
-628
10
572.5
20
-624
10
576.5
20
-621
10
576.5
20
-619
10
572
20
-616.5
10
567
20
-623.5
10
562
20
-616.5
10
559.5
20
-618
10
559.5
20
-621
10
562.5
20
-626
10
559
20
-627.5
10
555.5
20
-624
10
555.5
20
-615
10
560
20
-611.5
10
566
20
-613.5
10
575
20
-611.5
10
580.5
20
-618
10
579.5
20
-625
10
574.5
20
-629
10
574.5
20
-632
10
579
20
-633.5
10
579.5
20
-636
10
574.5
20
-638
0
LWPOLYLINE
8
REFERENCE_STROKES
90
11
70
0
10
1881
20
-691.5
10
1881
20
-688.5
10
1869
20
-688.5
10
1867.5
20
-682
10
1871.5
20
-674
10
1883.5
20
-665
10
1884.5
20
-629
10
1883
20
-627.5
10
1839
20
-626.5
10
1837.5
20
-628
10
1836.5
20
-689
0
LWPOLYLINE
8
REFERENCE_STROKES
90
7
70
1
10
2233
20
-843.5
10
2093
20
-839.5
10
2085.5
20
-837
10
2092
20
-632.5
10
2236
20
-636.5
10
2240.5
20
-639
10
2234.5
20
-842
0
LWPOLYLINE
8
REFERENCE_STROKES
90
8
70
0
10
2230
20
-840.5
10
2231.5
20
-834
10
2237.5
20
-642
10
2236
20
-640.5
10
2096
20
-635.5
10
2094.5
20
-637
10
2088.5
20
-834
10
2090
20
-835.5
0
LWPOLYLINE
8
REFERENCE_STROKES
90
4
70
1
10
569.5
20
-640
10
568
20
-636.5
10
563.5
20
-637
10
567
20
-640.5
0
LWPOLYLINE
8
REFERENCE_STROKES
90
12
70
0
10
1351.5
20
-700
10
1352.5
20
-668
10
1341.5
20
-661
10
1337.5
20
-653
10
1337.5
20
-647
10
1339
20
-645.5
10
1353
20
-645.5
10
1353
20
-643.5
10
1241
20
-639.5
10
1239.5
20
-641
10
1237.5
20
-691
10
1239
20
-696.5
0
LWPOLYLINE
8
REFERENCE_STROKES
90
12
70
0
10
578.5
20
-663
10
576
20
-664.5
10
573
20
-658.5
10
561
20
-658.5
10
559
20
-663.5
10
554.5
20
-659
10
553.5
20
-655
10
555
20
-653.5
10
572
20
-654.5
10
574.5
20
-653
10
575.5
20
-649
10
578
20
-648.5
0
LWPOLYLINE
8
REFERENCE_STROKES
90
8
70
0
10
177
20
-673.5
10
170
20
-673.5
10
166.5
20
-671
10
165.5
20
-658
10
170
20
-651.5
10
177
20
-651.5
10
181.5
20
-655
10
181.5
20
-668
0
LWPOLYLINE
8
REFERENCE_STROKES
90
9
70
1
10
195
20
-674.5
10
182.5
20
-672
10
187.5
20
-669
10
187.5
20
-659
10
183.5
20
-656
10
190
20
-651.5
10
193.5
20
-654
10
192.5
20
-669
10
197.5
20
-672
0
LWPOLYLINE
8
REFERENCE_STROKES
90
9
70
0
10
210
20
-674.5
10
208
20
-674.5
10
206
20
-670.5
10
197.5
20
-668
10
208
20
-652.5
10
211
20
-652.5
10
212.5
20
-655
10
211.5
20
-665
10
213.5
20
-669
0
LWPOLYLINE
8
REFERENCE_STROKES
90
12
70
1
10
229
20
-675.5
10
217
20
-675.5
10
215.5
20
-674
10
216
20
-671.5
10
220.5
20
-670
10
220.5
20
-660
10
217
20
-659.5
10
216.5
20
-657
10
223
20
-652.5
10
226.5
20
-656
10
225.5
20
-671
10
230.5
20
-673
0
LWPOLYLINE
8
REFERENCE_STROKES
90
6
70
0
10
174
20
-669.5
10
177.5
20
-663
10
175
20
-655.5
10
173
20
-655.5
10
170.5
20
-660
10
170.5
20
-667
0
LWPOLYLINE
8
REFERENCE_STROKES
90
9
70
0
10
379
20
-681.5
10
375
20
-680.5
10
371.5
20
-676
10
371.5
20
-664
10
376
20
-658.5
10
382
20
-658.5
10
387.5
20
-664
10
386.5
20
-676
10
383
20
-680.5
0
LWPOLYLINE
8
REFERENCE_STROKES
90
12
70
1
10
402
20
-681.5
10
390
20
-681.5
10
388.5
20
-680
10
389
20
-677.5
10
393.5
20
-677
10
394.5
20
-666
10
390
20
-665.5
10
389.5
20
-663
10
394
20
-659.5
10
399.5
20
-661
10
398.5
20
-676
10
402.5
20
-679
0
LWPOLYLINE
8
REFERENCE_STROKES
90
24
70
0
10
436.5
20
-665
10
434.5
20
-670
10
436.5
20
-678
10
432
20
-682.5
10
425
20
-682.5
10
420
20
-677.5
10
415
20
-682.5
10
412
20
-677.5
10
406
20
-677.5
10
403.5
20
-675
10
408.5
20
-666
10
415
20
-659.5
10
418.5
20
-662
10
418.5
20
-673
10
428
20
-678.5
10
431
20
-677.5
10
431.5
20
-675
10
425.5
20
-671
10
431.5
20
-666
10
427
20
-664.5
10
423
20
-667.5
10
421.5
20
-664
10
425
20
-660.5
10
433
20
-660.5
0
LWPOLYLINE
8
REFERENCE_STROKES
90
8
70
0
10
1269
20
-678.5
10
1265
20
-677.5
10
1261.5
20
-672
10
1261.5
20
-666
10
1266
20
-660.5
10
1271
20
-660.5
10
1274.5
20
-665
10
1274.5
20
-673
0
LWPOLYLINE
8
REFERENCE_STROKES
90
9
70
1
10
1285
20
-678.5
10
1275.5
20
-677
10
1279.5
20
-674
10
1279.5
20
-666
10
1276.5
20
-664
10
1281
20
-660.5
10
1283.5
20
-662
10
1283.5
20
-674
10
1286.5
20
-676
0
LWPOLYLINE
8
REFERENCE_STROKES
90
15
70
0
10
1313.5
20
-673
10
1308
20
-679.5
10
1302.5
20
-678
10
1301.5
20
-676
10
1303.5
20
-673
10
1302
20
-671.5
10
1297
20
-678.5
10
1292
20
-678.5
10
1288.5
20
-675
10
1287.5
20
-668
10
1292
20
-661.5
10
1297
20
-661.5
10
1300
20
-664.5
10
1309
20
-661.5
10
1313.5
20
-666
0
LWPOLYLINE
8
REFERENCE_STROKES
90
8
70
1
10
1329
20
-679.5
10
1324
20
-675.5
10
1319
20
-675.5
10
1315
20
-679.5
10
1313.5
20
-678
10
1318.5
20
-665
10
1322
20
-661.5
10
1329.5
20
-676
0
LWPOLYLINE
8
REFERENCE_STROKES
90
6
70
1
10
378
20
-676.5
10
382.5
20
-674
10
382.5
20
-665
10
380
20
-662.5
10
376.5
20
-665
10
376.5
20
-675
0
LWPOLYLINE
8
REFERENCE_STROKES
90
4
70
0
10
1267
20
-674.5
10
1270.5
20
-672
10
1269
20
-663.5
10
1265.5
20
-667
0
LWPOLYLINE
8
REFERENCE_STROKES
90
4
70
0
10
1293
20
-675.5
10
1296.5
20
-674
10
1295
20
-664.5
10
1291.5
20
-667
0
LWPOLYLINE
8
REFERENCE_STROKES
90
4
70
1
10
1306
20
-669.5
10
1309.5
20
-668
10
1308
20
-664.5
10
1305.5
20
-666
0
LWPOLYLINE
8
REFERENCE_STROKES
90
8
70
0
10
578.5
20
-677
10
575
20
-682.5
10
560
20
-683.5
10
553.5
20
-679
10
553.5
20
-671
10
560
20
-666.5
10
569
20
-666.5
10
577.5
20
-671
0
LWPOLYLINE
8
REFERENCE_STROKES
90
7
70
0
10
574.5
20
-676
10
573
20
-672.5
10
566
20
-670.5
10
560
20
-671.5
10
557.5
20
-674
10
561
20
-678.5
10
571
20
-678.5
0
LWPOLYLINE
8
REFERENCE_STROKES
90
9
70
0
10
714
20
-692.5
10
708
20
-692.5
10
703.5
20
-688
10
703.5
20
-676
10
708
20
-670.5
10
715
20
-670.5
10
719.5
20
-676
10
719.5
20
-685
10
717.5
20
-690
0
LWPOLYLINE
8
REFERENCE_STROKES
90
11
70
1
10
733
20
-693.5
10
723
20
-693.5
10
721.5
20
-690
10
726.5
20
-687
10
726.5
20
-678
10
723
20
-677.5
10
721.5
20
-675
10
728
20
-670.5
10
730.5
20
-672
10
730.5
20
-688
10
735.5
20
-691
0
LWPOLYLINE
8
REFERENCE_STROKES
90
25
70
0
10
767.5
20
-673
10
767
20
-675.5
10
758.5
20
-677
10
759
20
-679.5
10
764
20
-679.5
10
768.5
20
-684
10
768.5
20
-689
10
765
20
-693.5
10
756
20
-693.5
10
752
20
-688.5
10
748
20
-693.5
10
746
20
-693.5
10
745
20
-689.5
10
735.5
20
-687
10
742.5
20
-675
10
748
20
-671.5
10
749.5
20
-673
10
749.5
20
-684
10
753
20
-687.5
10
761
20
-690.5
10
763.5
20
-688
10
761
20
-683.5
10
753.5
20
-684
10
754.5
20
-673
10
756
20
-671.5
0
LWPOLYLINE
8
REFERENCE_STROKES
90
5
70
0
10
712
20
-688.5
10
714.5
20
-686
10
714.5
20
-676
10
710
20
-674.5
10
708.5
20
-686
0
LWPOLYLINE
8
REFERENCE_STROKES
90
9
70
0
10
940
20
-700.5
10
936
20
-700.5
10
931.5
20
-696
10
930.5
20
-692
10
931.5
20
-683
10
935
20
-678.5
10
944
20
-679.5
10
947.5
20
-686
10
944.5
20
-698
0
LWPOLYLINE
8
REFERENCE_STROKES
90
12
70
1
10
961
20
-701.5
10
948.5
20
-700
10
950
20
-696.5
10
953.5
20
-696
10
953.5
20
-685
10
950
20
-685.5
10
948.5
20
-683
10
954
20
-678.5
10
957
20
-678.5
10
958.5
20
-681
10
957.5
20
-696
10
962.5
20
-698
0
LWPOLYLINE
8
REFERENCE_STROKES
90
8
70
0
10
975
20
-701.5
10
971
20
-696.5
10
965
20
-696.5
10
962.5
20
-694
10
973
20
-679.5
10
976.5
20
-680
10
976.5
20
-691
10
979.5
20
-695
0
LWPOLYLINE
8
REFERENCE_STROKES
90
9
70
1
10
985
20
-702.5
10
983.5
20
-697
10
989.5
20
-684
10
982
20
-683.5
10
980.5
20
-680
10
994
20
-679.5
10
996.5
20
-682
10
989.5
20
-693
10
988.5
20
-701
0
LWPOLYLINE
8
REFERENCE_STROKES
90
7
70
0
10
938
20
-696.5
10
941
20
-695.5
10
942.5
20
-692
10
941
20
-682.5
10
938
20
-682.5
10
935.5
20
-686
10
935.5
20
-693
0
LWPOLYLINE
8
REFERENCE_STROKES
90
8
70
0
10
1436
20
-718.5
10
1430
20
-716.5
10
1427.5
20
-710
10
1428.5
20
-700
10
1435
20
-695.5
10
1441
20
-697.5
10
1443.5
20
-702
10
1442.5
20
-714
0
LWPOLYLINE
8
REFERENCE_STROKES
90
11
70
1
10
1457
20
-719.5
10
1447
20
-719.5
10
1444.5
20
-717
10
1450.5
20
-712
10
1450.5
20
-703
10
1447
20
-703.5
10
1446.5
20
-700
10
1451
20
-696.5
10
1454.5
20
-697
10
1454.5
20
-714
10
1459.5
20
-717
0
LWPOLYLINE
8
REFERENCE_STROKES
90
20
70
0
10
1491.5
20
-715
10
1486
20
-720.5
10
1480
20
-719.5
10
1477.5
20
-715
10
1480
20
-713.5
10
1482
20
-715.5
10
1486
20
-715.5
10
1486.5
20
-713
10
1481
20
-712.5
10
1477
20
-709.5
10
1472
20
-718.5
10
1466
20
-719.5
10
1460.5
20
-714
10
1461.5
20
-701
10
1465
20
-697.5
10
1471
20
-697.5
10
1477
20
-703.5
10
1480
20
-698.5
10
1488
20
-698.5
10
1492.5
20
-704
0
LWPOLYLINE
8
REFERENCE_STROKES
90
6
70
0
10
1436
20
-714.5
10
1438.5
20
-712
10
1439.5
20
-706
10
1438.5
20
-702
10
1434
20
-700.5
10
1432.5
20
-712
0
LWPOLYLINE
8
REFERENCE_STROKES
90
7
70
1
10
1469
20
-715.5
10
1471.5
20
-712
10
1471.5
20
-704
10
1470
20
-701.5
10
1467
20
-701.5
10
1464.5
20
-706
10
1465.5
20
-714
0
LWPOLYLINE
8
REFERENCE_STROKES
90
4
70
0
10
1485
20
-709.5
10
1487.5
20
-704
10
1484
20
-701.5
10
1481.5
20
-707
0
LWPOLYLINE
8
REFERENCE_STROKES
90
9
70
0
10
1880
20
-750.5
10
1881.5
20
-729
10
1869.5
20
-719
10
1866.5
20
-713
10
1866.5
20
-705
10
1880
20
-704.5
10
1880.5
20
-703
10
1836
20
-701.5
10
1834.5
20
-749
0
LWPOLYLINE
8
REFERENCE_STROKES
90
9
70
0
10
1351.5
20
-808
10
1350
20
-809.5
10
1324
20
-809.5
10
1233
20
-805.5
10
1230.5
20
-803
10
1234.5
20
-705
10
1239
20
-703.5
10
1353
20
-708.5
10
1354.5
20
-710
0
LWPOLYLINE
8
REFERENCE_STROKES
90
7
70
0
10
1348.5
20
-805
10
1351.5
20
-720
10
1350
20
-711.5
10
1245
20
-707.5
10
1237.5
20
-709
10
1235
20
-802.5
10
1342
20
-806.5
0
LWPOLYLINE
8
REFERENCE_STROKES
90
8
70
0
10
1710
20
-729.5
10
1704
20
-728.5
10
1700.5
20
-724
10
1700.5
20
-712
10
1704
20
-707.5
10
1712
20
-707.5
10
1716.5
20
-714
10
1716.5
20
-722
0
LWPOLYLINE
8
REFERENCE_STROKES
90
28
70
1
10
1761.5
20
-729
10
1760
20
-730.5
10
1719
20
-729.5
10
1717.5
20
-726
10
1722.5
20
-724
10
1723.5
20
-715
10
1720
20
-714.5
10
1718.5
20
-712
10
1720
20
-709.5
10
1727
20
-707.5
10
1727.5
20
-724
10
1733
20
-726.5
10
1736.5
20
-725
10
1737
20
-714.5
10
1733.5
20
-714
10
1733.5
20
-711
10
1737
20
-708.5
10
1742
20
-708.5
10
1742.5
20
-725
10
1750
20
-726.5
10
1751.5
20
-725
10
1751.5
20
-715
10
1749
20
-715.5
10
1747.5
20
-712
10
1752
20
-708.5
10
1756
20
-708.5
10
1756.5
20
-726
10
1760
20
-726.5
0
LWPOLYLINE
8
REFERENCE_STROKES
90
4
70
0
10
1710
20
-724.5
10
1711.5
20
-713
10
1707
20
-710.5
10
1705.5
20
-723
0
LWPOLYLINE
8
REFERENCE_STROKES
90
4
70
0
10
596.5
20
-716
10
596
20
-714.5
10
586.5
20
-715
10
587
20
-716.5
0
LWPOLYLINE
8
REFERENCE_STROKES
90
9
70
0
10
1966
20
-737.5
10
1959
20
-737.5
10
1955.5
20
-734
10
1954.5
20
-723
10
1955.5
20
-719
10
1960
20
-715.5
10
1966
20
-715.5
10
1970.5
20
-720
10
1970.5
20
-732
0
LWPOLYLINE
8
REFERENCE_STROKES
90
18
70
0
10
2001.5
20
-738
10
1999
20
-739.5
10
1974
20
-738.5
10
1972.5
20
-735
10
1977.5
20
-733
10
1977.5
20
-723
10
1974
20
-722.5
10
1973.5
20
-720
10
1979
20
-715.5
10
1982
20
-716.5
10
1981.5
20
-733
10
1991
20
-734.5
10
1992.5
20
-723
10
1989
20
-723.5
10
1987.5
20
-720
10
1996
20
-716.5
10
1997.5
20
-718
10
1996.5
20
-734
0
LWPOLYLINE
8
REFERENCE_STROKES
90
20
70
0
10
2007
20
-739.5
10
2002.5
20
-734
10
2006
20
-731.5
10
2009
20
-735.5
10
2012
20
-735.5
10
2013.5
20
-732
10
2009
20
-730.5
10
2007.5
20
-727
10
2013
20
-725.5
10
2013.5
20
-723
10
2009
20
-721.5
10
2005
20
-723.5
10
2003.5
20
-721
10
2007
20
-717.5
10
2015
20
-717.5
10
2018.5
20
-722
10
2016.5
20
-727
10
2018.5
20
-731
10
2017.5
20
-737
10
2014
20
-739.5
0
LWPOLYLINE
8
REFERENCE_STROKES
90
6
70
0
10
1964
20
-733.5
10
1966.5
20
-723
10
1962
20
-719.5
10
1959.5
20
-722
10
1958.5
20
-728
10
1959.5
20
-732
0
LWPOLYLINE
8
REFERENCE_STROKES
90
8
70
0
10
2144
20
-744.5
10
2139
20
-744.5
10
2134.5
20
-740
10
2134.5
20
-729
10
2139
20
-723.5
10
2146
20
-724.5
10
2149.5
20
-731
10
2147.5
20
-742
0
LWPOLYLINE
8
REFERENCE_STROKES
90
18
70
0
10
2176.5
20
-744
10
2175
20
-745.5
10
2151
20
-744.5
10
2150.5
20
-742
10
2155.5
20
-738
10
2155.5
20
-731
10
2152
20
-730.5
10
2151.5
20
-728
10
2158
20
-724.5
10
2159.5
20
-726
10
2159.5
20
-740
10
2167
20
-741.5
10
2168.5
20
-731
10
2165
20
-730.5
10
2164.5
20
-728
10
2171
20
-724.5
10
2173.5
20
-727
10
2172.5
20
-740
0
LWPOLYLINE
8
REFERENCE_STROKES
90
10
70
0
10
593
20
-780.5
10
595.5
20
-774
10
595.5
20
-750
10
585.5
20
-743
10
581.5
20
-731
10
583.5
20
-728
10
541
20
-725.5
10
539.5
20
-727
10
537.5
20
-777
10
539
20
-778.5
0
LWPOLYLINE
8
REFERENCE_STROKES
90
17
70
0
10
2189
20
-745.5
10
2181
20
-745.5
10
2177.5
20
-742
10
2179
20
-739.5
10
2183
20
-741.5
10
2187.5
20
-740
10
2186
20
-736.5
10
2178.5
20
-736
10
2178.5
20
-727
10
2180
20
-725.5
10
2191.5
20
-726
10
2190
20
-729.5
10
2183.5
20
-730
10
2184
20
-732.5
10
2189
20
-732.5
10
2192.5
20
-736
10
2192.5
20
-741
0
LWPOLYLINE
8
REFERENCE_STROKES
90
5
70
0
10
2142
20
-740.5
10
2144.5
20
-738
10
2144.5
20
-729
10
2140
20
-727.5
10
2138.5
20
-738
0
LWPOLYLINE
8
REFERENCE_STROKES
90
8
70
0
10
1269
20
-764.5
10
1264
20
-763.5
10
1260.5
20
-758
10
1261.5
20
-746
10
1267
20
-741.5
10
1272
20
-742.5
10
1276.5
20
-750
10
1274.5
20
-761
0
LWPOLYLINE
8
REFERENCE_STROKES
90
11
70
1
10
1291
20
-764.5
10
1279
20
-764.5
10
1277.5
20
-763
10
1278
20
-760.5
10
1282.5
20
-759
10
1283.5
20
-750
10
1278.5
20
-747
10
1284
20
-742.5
10
1287.5
20
-744
10
1286.5
20
-759
10
1291.5
20
-762
0
LWPOLYLINE
8
REFERENCE_STROKES
90
9
70
0
10
1303
20
-765.5
10
1298
20
-765.5
10
1293.5
20
-761
10
1293.5
20
-748
10
1297
20
-743.5
10
1304
20
-743.5
10
1308.5
20
-749
10
1308.5
20
-758
10
1306.5
20
-763
0
LWPOLYLINE
8
REFERENCE_STROKES
90
10
70
0
10
1317
20
-765.5
10
1313.5
20
-765
10
1313.5
20
-760
10
1318.5
20
-748
10
1311
20
-747.5
10
1311
20
-743.5
10
1323
20
-743.5
10
1324.5
20
-745
10
1324.5
20
-749
10
1318.5
20
-758
0
LWPOLYLINE
8
REFERENCE_STROKES
90
6
70
0
10
1267
20
-759.5
10
1271.5
20
-756
10
1271.5
20
-749
10
1269
20
-745.5
10
1265.5
20
-748
10
1264.5
20
-752
0
LWPOLYLINE
8
REFERENCE_STROKES
90
7
70
0
10
1301
20
-761.5
10
1303.5
20
-759
10
1304.5
20
-751
10
1303.5
20
-748
10
1300
20
-746.5
10
1297.5
20
-749
10
1297.5
20
-759
0
LWPOLYLINE
8
REFERENCE_STROKES
90
12
70
0
10
1877
20
-826.5
10
1878.5
20
-825
10
1879.5
20
-763
10
1835
20
-760.5
10
1833.5
20
-762
10
1832.5
20
-801
10
1840
20
-804.5
10
1845.5
20
-811
10
1847.5
20
-821
10
1846
20
-823.5
10
1833
20
-823.5
10
1832.5
20
-825
0
LWPOLYLINE
8
REFERENCE_STROKES
90
4
70
0
10
137
20
-809.5
10
138.5
20
-778
10
129
20
-776.5
10
127.5
20
-809
0
LWPOLYLINE
8
REFERENCE_STROKES
90
6
70
0
10
149
20
-810.5
10
150.5
20
-809
10
152.5
20
-779
10
151
20
-777.5
10
142
20
-777.5
10
140.5
20
-809
0
LWPOLYLINE
8
REFERENCE_STROKES
90
5
70
0
10
163
20
-810.5
10
164.5
20
-809
10
165.5
20
-779
10
156
20
-777.5
10
153.5
20
-809
0
LWPOLYLINE
8
REFERENCE_STROKES
90
6
70
0
10
175
20
-811.5
10
177.5
20
-810
10
179.5
20
-780
10
170
20
-778.5
10
168.5
20
-781
10
167.5
20
-810
0
LWPOLYLINE
8
REFERENCE_STROKES
90
6
70
0
10
190
20
-811.5
10
191.5
20
-810
10
192.5
20
-780
10
184
20
-778.5
10
182.5
20
-780
10
180.5
20
-810
0
LWPOLYLINE
8
REFERENCE_STROKES
90
5
70
1
10
242.5
20
-811
10
241
20
-824.5
10
217.5
20
-818
10
220
20
-814.5
10
241
20
-809.5
0
LWPOLYLINE
8
REFERENCE_STROKES
90
32
70
0
10
458
20
-1296.5
10
459
20
-1290.5
10
260
20
-1284.5
10
249.5
20
-1282
10
256.5
20
-1080
10
259
20
-1077.5
10
284
20
-1077.5
10
285.5
20
-1073
10
217
20
-1070.5
10
214.5
20
-1068
10
223.5
20
-860
10
222
20
-858.5
10
70
20
-853.5
10
68.5
20
-852
10
69.5
20
-812
10
66
20
-811.5
10
63.5
20
-827
10
53.5
20
-1068
10
55
20
-1069.5
10
97
20
-1070.5
10
101.5
20
-1073
10
94.5
20
-1283
10
102
20
-1284.5
10
107.5
20
-1283
10
106
20
-1278.5
10
99.5
20
-1277
10
105.5
20
-1126
10
237
20
-1129.5
10
248.5
20
-1132
10
243.5
20
-1282
10
238.5
20
-1285
10
240
20
-1289.5
0
LWPOLYLINE
8
REFERENCE_STROKES
90
5
70
0
10
254
20
-822.5
10
249.5
20
-819
10
252
20
-813.5
10
257.5
20
-816
10
257.5
20
-819
0
LWPOLYLINE
8
REFERENCE_STROKES
90
5
70
0
10
268
20
-822.5
10
262.5
20
-821
10
264
20
-814.5
10
269.5
20
-816
10
270.5
20
-819
0
LWPOLYLINE
8
REFERENCE_STROKES
90
5
70
0
10
281
20
-822.5
10
274.5
20
-821
10
274.5
20
-817
10
277
20
-814.5
10
282.5
20
-817
0
LWPOLYLINE
8
REFERENCE_STROKES
90
6
70
0
10
290
20
-823.5
10
287.5
20
-822
10
286.5
20
-818
10
291
20
-814.5
10
294.5
20
-817
10
294.5
20
-821
0
LWPOLYLINE
8
REFERENCE_STROKES
90
6
70
0
10
121
20
-851.5
10
122.5
20
-850
10
123.5
20
-820
10
114
20
-819.5
10
112.5
20
-822
10
111.5
20
-850
0
LWPOLYLINE
8
REFERENCE_STROKES
90
5
70
0
10
135
20
-851.5
10
136.5
20
-821
10
128
20
-819.5
10
126.5
20
-821
10
125.5
20
-851
0
LWPOLYLINE
8
REFERENCE_STROKES
90
5
70
0
10
148
20
-852.5
10
150.5
20
-822
10
149
20
-820.5
10
140
20
-820.5
10
138.5
20
-852
0
LWPOLYLINE
8
REFERENCE_STROKES
90
5
70
0
10
160
20
-853.5
10
162.5
20
-852
10
163.5
20
-822
10
154
20
-820.5
10
152.5
20
-852
0
LWPOLYLINE
8
REFERENCE_STROKES
90
4
70
0
10
175
20
-853.5
10
176.5
20
-822
10
168
20
-821.5
10
165.5
20
-852
0
LWPOLYLINE
8
REFERENCE_STROKES
90
5
70
0
10
188
20
-853.5
10
189.5
20
-852
10
190.5
20
-823
10
181
20
-821.5
10
179.5
20
-853
0
LWPOLYLINE
8
REFERENCE_STROKES
90
6
70
0
10
303.5
20
-829
10
301
20
-831.5
10
296
20
-831.5
10
294.5
20
-826
10
300
20
-823.5
10
302.5
20
-825
0
LWPOLYLINE
8
REFERENCE_STROKES
90
6
70
0
10
301
20
-844.5
10
295
20
-844.5
10
293.5
20
-840
10
296
20
-837.5
10
301
20
-837.5
10
302.5
20
-839
0
LWPOLYLINE
8
REFERENCE_STROKES
90
75
70
0
10
787.5
20
-1048
10
786
20
-1049.5
10
690
20
-1047.5
10
687.5
20
-1046
10
687.5
20
-1038
10
684.5
20
-1030
10
675
20
-1021.5
10
670.5
20
-1022
10
669
20
-1045.5
10
331
20
-1035.5
10
332.5
20
-958
10
338.5
20
-843
10
340
20
-841.5
10
450
20
-844.5
10
470
20
-845.5
10
472.5
20
-850
10
470
20
-857.5
10
402
20
-855.5
10
400.5
20
-857
10
400.5
20
-869
10
402
20
-870.5
10
412
20
-870.5
10
413.5
20
-872
10
411.5
20
-911
10
410
20
-912.5
10
397.5
20
-913
10
396.5
20
-935
10
398
20
-936.5
10
474
20
-938.5
10
473.5
20
-932
10
477.5
20
-926
10
474.5
20
-922
10
474.5
20
-916
10
477.5
20
-912
10
474.5
20
-905
10
477.5
20
-899
10
475.5
20
-889
10
480
20
-882.5
10
493
20
-882.5
10
495
20
-873.5
10
504
20
-873.5
10
505.5
20
-875
10
505.5
20
-884
10
515
20
-883.5
10
521.5
20
-891
10
518.5
20
-898
10
521.5
20
-907
10
517.5
20
-912
10
520.5
20
-918
10
520.5
20
-922
10
517.5
20
-926
10
519.5
20
-931
10
519
20
-940.5
10
583
20
-942.5
10
592.5
20
-941
10
593.5
20
-919
10
580
20
-917.5
10
578.5
20
-915
10
580.5
20
-883
10
582
20
-876.5
10
594
20
-876.5
10
595.5
20
-875
10
595.5
20
-862
10
531
20
-859.5
10
529.5
20
-858
10
529.5
20
-849
10
531
20
-847.5
10
676
20
-852.5
10
679.5
20
-866
10
690
20
-875.5
10
694.5
20
-874
10
694.5
20
-855
10
697
20
-852.5
10
794
20
-855.5
10
795.5
20
-857
0
LWPOLYLINE
8
REFERENCE_STROKES
90
34
70
0
10
666.5
20
-1042
10
666
20
-1037.5
10
659.5
20
-1036
10
658.5
20
-1028
10
666.5
20
-866
10
669
20
-860.5
10
673.5
20
-860
10
673
20
-855.5
10
534
20
-851.5
10
535
20
-856.5
10
598
20
-858.5
10
599.5
20
-861
10
595.5
20
-942
10
593
20
-945.5
10
501
20
-942.5
10
499.5
20
-941
10
502.5
20
-883
10
501
20
-876.5
10
498
20
-876.5
10
496.5
20
-881
10
494.5
20
-930
10
492
20
-941.5
10
396
20
-939.5
10
393.5
20
-937
10
397.5
20
-854
10
400
20
-851.5
10
468
20
-853.5
10
468.5
20
-850
10
464
20
-848.5
10
380
20
-845.5
10
342.5
20
-846
10
336.5
20
-944
10
333.5
20
-1031
10
335
20
-1032.5
0
LWPOLYLINE
8
REFERENCE_STROKES
90
7
70
0
10
385
20
-939.5
10
346
20
-938.5
10
342.5
20
-937
10
346.5
20
-851
10
349
20
-849.5
10
392.5
20
-852
10
388.5
20
-937
0
LWPOLYLINE
8
REFERENCE_STROKES
90
6
70
0
10
300
20
-858.5
10
296
20
-859.5
10
292.5
20
-854
10
295
20
-851.5
10
299
20
-851.5
10
301.5
20
-854
0
LWPOLYLINE
8
REFERENCE_STROKES
90
5
70
0
10
2184
20
-885.5
10
2186.5
20
-881
10
2186.5
20
-853
10
2177
20
-851.5
10
2175.5
20
-884
0
LWPOLYLINE
8
REFERENCE_STROKES
90
5
70
0
10
2199
20
-885.5
10
2200.5
20
-854
10
2191
20
-852.5
10
2189.5
20
-854
10
2189.5
20
-885
0
LWPOLYLINE
8
REFERENCE_STROKES
90
6
70
0
10
2212
20
-886.5
10
2213.5
20
-885
10
2214.5
20
-854
10
2205
20
-852.5
10
2203.5
20
-854
10
2202.5
20
-884
0
LWPOLYLINE
8
REFERENCE_STROKES
90
7
70
0
10
384
20
-935.5
10
388.5
20
-856
10
387
20
-854.5
10
351
20
-853.5
10
349.5
20
-856
10
345.5
20
-933
10
359
20
-935.5
0
LWPOLYLINE
8
REFERENCE_STROKES
90
5
70
0
10
2227
20
-886.5
10
2228.5
20
-854
10
2218
20
-853.5
10
2216.5
20
-885
10
2218
20
-886.5
0
LWPOLYLINE
8
REFERENCE_STROKES
90
6
70
0
10
2240
20
-886.5
10
2241.5
20
-885
10
2241.5
20
-855
10
2234
20
-853.5
10
2231.5
20
-855
10
2230.5
20
-885
0
LWPOLYLINE
8
REFERENCE_STROKES
90
12
70
0
10
783
20
-1045.5
10
785.5
20
-1022
10
791.5
20
-860
10
699
20
-856.5
10
700
20
-861.5
10
783
20
-863.5
10
786.5
20
-866
10
781.5
20
-998
10
778
20
-1040.5
10
692
20
-1038.5
10
690.5
20
-1042
10
692
20
-1043.5
0
LWPOLYLINE
8
REFERENCE_STROKES
90
9
70
0
10
208
20
-1069.5
10
69
20
-1065.5
10
58.5
20
-1063
10
66.5
20
-872
10
69
20
-858.5
10
215
20
-863.5
10
218.5
20
-866
10
211.5
20
-1002
10
210.5
20
-1058
0
LWPOLYLINE
8
REFERENCE_STROKES
90
7
70
0
10
656
20
-947.5
10
600.5
20
-945
10
603.5
20
-869
10
606
20
-858.5
10
659
20
-859.5
10
661.5
20
-861
10
658.5
20
-942
0
LWPOLYLINE
8
REFERENCE_STROKES
90
64
70
0
10
1072.5
20
-1219
10
1072
20
-1214.5
10
1045
20
-1213.5
10
1043.5
20
-1212
10
1054.5
20
-913
10
1053
20
-911.5
10
1008
20
-910.5
10
1005.5
20
-908
10
1006
20
-865.5
10
844
20
-860.5
10
842.5
20
-862
10
833.5
20
-1086
10
829
20
-1090.5
10
290.5
20
-1073
10
292
20
-1078.5
10
514
20
-1085.5
10
515.5
20
-1087
10
515.5
20
-1115
10
509.5
20
-1254
10
511
20
-1255.5
10
515.5
20
-1253
10
519.5
20
-1154
10
527
20
-1152.5
10
589
20
-1154.5
10
604.5
20
-1157
10
598.5
20
-1294
10
597
20
-1295.5
10
515
20
-1292.5
10
513.5
20
-1291
10
513.5
20
-1279
10
510
20
-1277.5
10
508.5
20
-1279
10
508.5
20
-1289
10
503.5
20
-1294
10
505
20
-1298.5
10
724
20
-1304.5
10
787
20
-1307.5
10
788.5
20
-1306
10
788
20
-1302.5
10
605
20
-1295.5
10
604.5
20
-1273
10
610.5
20
-1145
10
607
20
-1143.5
10
602
20
-1150.5
10
521
20
-1147.5
10
519.5
20
-1146
10
521.5
20
-1087
10
523
20
-1085.5
10
605
20
-1087.5
10
607.5
20
-1091
10
606.5
20
-1119
10
608
20
-1120.5
10
611.5
20
-1120
10
612.5
20
-1091
10
616
20
-1087.5
10
831
20
-1095.5
10
832.5
20
-1105
10
824.5
20
-1299
10
821
20
-1303.5
10
813
20
-1303.5
10
813
20
-1308.5
10
828.5
20
-1308
10
832.5
20
-1213
10
835
20
-1211.5
0
LWPOLYLINE
8
REFERENCE_STROKES
90
18
70
0
10
654
20
-943.5
10
658.5
20
-865
10
657
20
-863.5
10
641
20
-862.5
10
639.5
20
-867
10
634.5
20
-869
10
634.5
20
-876
10
639.5
20
-880
10
639
20
-881.5
10
635
20
-881.5
10
620
20
-874.5
10
618.5
20
-872
10
622
20
-868.5
10
635
20
-864.5
10
635
20
-862.5
10
610
20
-861.5
10
607.5
20
-867
10
604.5
20
-942
0
LWPOLYLINE
8
REFERENCE_STROKES
90
9
70
0
10
205
20
-1066.5
10
206.5
20
-1065
10
208.5
20
-985
10
215.5
20
-869
10
203
20
-866.5
10
72
20
-862.5
10
70.5
20
-865
10
61.5
20
-1060
10
63
20
-1061.5
0
LWPOLYLINE
8
REFERENCE_STROKES
90
17
70
0
10
775
20
-1037.5
10
783.5
20
-869
10
782
20
-867.5
10
699
20
-864.5
10
697.5
20
-878
10
690
20
-879.5
10
678.5
20
-871
10
675
20
-863.5
10
672
20
-863.5
10
669.5
20
-869
10
662.5
20
-1034
10
666.5
20
-1034
10
667.5
20
-1019
10
673
20
-1017.5
10
681
20
-1020.5
10
687.5
20
-1027
10
692
20
-1035.5
0
LWPOLYLINE
8
REFERENCE_STROKES
90
6
70
1
10
299
20
-872.5
10
292.5
20
-871
10
292.5
20
-867
10
295
20
-864.5
10
300.5
20
-866
10
301.5
20
-870
0
LWPOLYLINE
8
REFERENCE_STROKES
90
14
70
0
10
368
20
-894.5
10
364
20
-893.5
10
353.5
20
-885
10
355
20
-881.5
10
366.5
20
-881
10
354.5
20
-876
10
353.5
20
-870
10
359
20
-864.5
10
368
20
-864.5
10
374.5
20
-869
10
374.5
20
-874
10
369.5
20
-879
10
373.5
20
-885
10
369.5
20
-887
0
LWPOLYLINE
8
REFERENCE_STROKES
90
21
70
1
10
1036
20
-1213.5
10
835
20
-1206.5
10
832.5
20
-1204
10
845.5
20
-912
10
847
20
-910.5
10
967.5
20
-914
10
967
20
-908.5
10
847
20
-904.5
10
845.5
20
-902
10
846.5
20
-876
10
849
20
-865.5
10
1000
20
-870.5
10
1001.5
20
-872
10
1000.5
20
-907
10
999
20
-909.5
10
992.5
20
-910
10
991.5
20
-914
10
993
20
-915.5
10
1042
20
-916.5
10
1049.5
20
-919
10
1038.5
20
-1211
0
LWPOLYLINE
8
REFERENCE_STROKES
90
5
70
1
10
370.5
20
-871
10
366
20
-868.5
10
358.5
20
-870
10
360
20
-874.5
10
369
20
-874.5
0
LWPOLYLINE
8
REFERENCE_STROKES
90
12
70
0
10
997.5
20
-905
10
998.5
20
-875
10
997
20
-873.5
10
855
20
-868.5
10
850.5
20
-870
10
850
20
-901.5
10
969
20
-905.5
10
971.5
20
-900
10
979
20
-892.5
10
990
20
-889.5
10
992.5
20
-892
10
992.5
20
-906
0
LWPOLYLINE
8
REFERENCE_STROKES
90
8
70
0
10
902
20
-896.5
10
896
20
-896.5
10
891.5
20
-890
10
892.5
20
-879
10
897
20
-874.5
10
903
20
-874.5
10
907.5
20
-881
10
906.5
20
-892
0
LWPOLYLINE
8
REFERENCE_STROKES
90
11
70
1
10
921
20
-897.5
10
912
20
-897.5
10
908.5
20
-895
10
913.5
20
-892
10
914.5
20
-882
10
911
20
-881.5
10
910.5
20
-879
10
914
20
-875.5
10
918.5
20
-876
10
918.5
20
-893
10
922.5
20
-894
0
LWPOLYLINE
8
REFERENCE_STROKES
90
17
70
1
10
938
20
-897.5
10
926
20
-897.5
10
924.5
20
-896
10
925.5
20
-892
10
934.5
20
-884
10
933
20
-879.5
10
928
20
-882.5
10
925.5
20
-882
10
925.5
20
-879
10
929
20
-875.5
10
935
20
-875.5
10
938.5
20
-879
10
938.5
20
-885
10
931.5
20
-892
10
933
20
-894.5
10
938
20
-894.5
10
939.5
20
-896
0
LWPOLYLINE
8
REFERENCE_STROKES
90
10
70
0
10
951
20
-898.5
10
945
20
-898.5
10
940.5
20
-894
10
940.5
20
-889
10
942.5
20
-887
10
941.5
20
-880
10
947
20
-875.5
10
954
20
-877.5
10
955.5
20
-880
10
955.5
20
-894
0
LWPOLYLINE
8
REFERENCE_STROKES
90
6
70
1
10
407
20
-886.5
10
408.5
20
-878
10
405
20
-876.5
10
403.5
20
-879
10
405.5
20
-882
10
403.5
20
-886
0
LWPOLYLINE
8
REFERENCE_STROKES
90
68
70
0
10
2220.5
20
-1363
10
2227.5
20
-1152
10
2231
20
-1149.5
10
2272
20
-1151.5
10
2273.5
20
-1150
10
2282
20
-894.5
10
2277.5
20
-895
10
2276.5
20
-932
10
2273
20
-934.5
10
2119.5
20
-929
10
2112.5
20
-1139
10
2111
20
-1140.5
10
1443
20
-1114.5
10
1439.5
20
-1113
10
1438.5
20
-1103
10
1444.5
20
-947
10
1445
20
-882.5
10
1275
20
-876.5
10
1273.5
20
-915
10
1271
20
-919.5
10
1222.5
20
-919
10
1212.5
20
-1218
10
1211
20
-1219.5
10
1189
20
-1218.5
10
1187.5
20
-1223
10
1189
20
-1224.5
10
1428
20
-1233.5
10
1429.5
20
-1235
10
1427.5
20
-1331
10
1429
20
-1332.5
10
1438.5
20
-1332
10
1438.5
20
-1328
10
1432.5
20
-1324
10
1438.5
20
-1121
10
1444
20
-1118.5
10
1650
20
-1127.5
10
1652.5
20
-1130
10
1646.5
20
-1335
10
1645
20
-1336.5
10
1480
20
-1328.5
10
1464
20
-1328.5
10
1464
20
-1333.5
10
1790
20
-1348.5
10
2025.5
20
-1356
10
2024
20
-1351.5
10
1749
20
-1341.5
10
1745.5
20
-1340
10
1745.5
20
-1308
10
1744
20
-1306.5
10
1740.5
20
-1309
10
1740.5
20
-1338
10
1738
20
-1340.5
10
1654
20
-1336.5
10
1652.5
20
-1335
10
1653.5
20
-1281
10
1655
20
-1279.5
10
1744
20
-1283.5
10
1746.5
20
-1282
10
1750.5
20
-1133
10
1752
20
-1131.5
10
2062
20
-1144.5
10
2064.5
20
-1147
10
2058.5
20
-1333
10
2057.5
20
-1350
10
2056
20
-1352.5
10
2051
20
-1352.5
10
2050.5
20
-1357
10
2192
20
-1363.5
0
LWPOLYLINE
8
REFERENCE_STROKES
90
6
70
1
10
299
20
-885.5
10
293
20
-885.5
10
291.5
20
-881
10
294
20
-878.5
10
298
20
-878.5
10
300.5
20
-882
0
LWPOLYLINE
8
REFERENCE_STROKES
90
5
70
0
10
901
20
-892.5
10
903.5
20
-882
10
899
20
-878.5
10
896.5
20
-881
10
896.5
20
-891
0
LWPOLYLINE
8
REFERENCE_STROKES
90
4
70
0
10
950
20
-884.5
10
950.5
20
-881
10
947
20
-879.5
10
945.5
20
-883
0
LWPOLYLINE
8
REFERENCE_STROKES
90
21
70
0
10
635
20
-910.5
10
631.5
20
-910
10
634.5
20
-905
10
633
20
-901.5
10
631
20
-901.5
10
628
20
-906.5
10
623
20
-901.5
10
621.5
20
-903
10
623.5
20
-907
10
622
20
-910.5
10
617.5
20
-907
10
617.5
20
-901
10
622.5
20
-896
10
618.5
20
-892
10
620
20
-883.5
10
632
20
-881.5
10
638.5
20
-886
10
638.5
20
-892
10
633.5
20
-896
10
638.5
20
-901
10
638.5
20
-906
0
LWPOLYLINE
8
REFERENCE_STROKES
90
6
70
0
10
1356.5
20
-922
10
1280
20
-920.5
10
1277.5
20
-918
10
1278.5
20
-884
10
1281
20
-881.5
10
1357
20
-884.5
0
LWPOLYLINE
8
REFERENCE_STROKES
90
74
70
0
10
1987.5
20
-1092
10
1983
20
-1096.5
10
1612
20
-1081.5
10
1605.5
20
-1079
10
1603.5
20
-1065
10
1593
20
-1055.5
10
1588.5
20
-1056
10
1588.5
20
-1076
10
1587
20
-1079.5
10
1489
20
-1075.5
10
1487.5
20
-1073
10
1493.5
20
-883
10
1495
20
-881.5
10
1592
20
-885.5
10
1595.5
20
-899
10
1607
20
-909.5
10
1610.5
20
-909
10
1612
20
-886.5
10
1785
20
-893.5
10
1786.5
20
-903
10
1784
20
-905.5
10
1696
20
-901.5
10
1694.5
20
-903
10
1693.5
20
-926
10
1708.5
20
-929
10
1707.5
20
-967
10
1706
20
-968.5
10
1693
20
-968.5
10
1692.5
20
-982
10
1696
20
-983.5
10
1791
20
-987.5
10
1790.5
20
-980
10
1793.5
20
-976
10
1791.5
20
-964
10
1794.5
20
-960
10
1791.5
20
-956
10
1791.5
20
-950
10
1794.5
20
-946
10
1791.5
20
-940
10
1792.5
20
-935
10
1798
20
-930.5
10
1809
20
-931.5
10
1811
20
-921.5
10
1820
20
-921.5
10
1822.5
20
-924
10
1821.5
20
-931
10
1823
20
-932.5
10
1831
20
-931.5
10
1836
20
-933.5
10
1838.5
20
-937
10
1838.5
20
-944
10
1835.5
20
-947
10
1838.5
20
-952
10
1838.5
20
-956
10
1835.5
20
-961
10
1838.5
20
-969
10
1835.5
20
-975
10
1838
20
-989.5
10
1922
20
-992.5
10
1923.5
20
-991
10
1923.5
20
-978
10
1909.5
20
-975
10
1910.5
20
-937
10
1912
20
-935.5
10
1924.5
20
-935
10
1925.5
20
-912
10
1924
20
-910.5
10
1846
20
-907.5
10
1844.5
20
-906
10
1845.5
20
-897
10
1873
20
-896.5
10
1974
20
-901.5
10
1990
20
-900.5
10
1992.5
20
-903
0
LWPOLYLINE
8
REFERENCE_STROKES
90
6
70
0
10
590
20
-892.5
10
588.5
20
-887
10
590.5
20
-883
10
588
20
-882.5
10
585.5
20
-885
10
585.5
20
-891
0
LWPOLYLINE
8
REFERENCE_STROKES
90
19
70
1
10
1429
20
-1227.5
10
1221
20
-1220.5
10
1217.5
20
-1218
10
1226.5
20
-936
10
1229
20
-924.5
10
1367
20
-929.5
10
1368.5
20
-925
10
1362.5
20
-922
10
1362.5
20
-892
10
1365
20
-884.5
10
1438
20
-886.5
10
1440.5
20
-889
10
1439.5
20
-924
10
1437
20
-926.5
10
1392.5
20
-925
10
1394
20
-930.5
10
1436
20
-931.5
10
1438.5
20
-933
10
1430.5
20
-1226
0
LWPOLYLINE
8
REFERENCE_STROKES
90
6
70
1
10
634.5
20
-890
10
634.5
20
-887
10
631
20
-885.5
10
622.5
20
-887
10
624
20
-891.5
10
633
20
-891.5
0
LWPOLYLINE
8
REFERENCE_STROKES
90
4
70
0
10
1353.5
20
-919
10
1354
20
-887.5
10
1282.5
20
-886
10
1282
20
-916.5
0
LWPOLYLINE
8
REFERENCE_STROKES
90
14
70
0
10
1583
20
-1076.5
10
1584.5
20
-1075
10
1583
20
-1071.5
10
1505
20
-1068.5
10
1496.5
20
-1066
10
1501.5
20
-893
10
1503
20
-890.5
10
1588
20
-894.5
10
1589.5
20
-890
10
1585
20
-888.5
10
1498
20
-885.5
10
1496.5
20
-887
10
1491.5
20
-1071
10
1493
20
-1072.5
0
LWPOLYLINE
8
REFERENCE_STROKES
90
11
70
1
10
1436.5
20
-921
10
1436
20
-890.5
10
1372
20
-887.5
10
1366.5
20
-889
10
1366
20
-920.5
10
1369.5
20
-918
10
1369.5
20
-906
10
1375
20
-904.5
10
1384
20
-908.5
10
1393
20
-921.5
10
1435
20
-922.5
0
LWPOLYLINE
8
REFERENCE_STROKES
90
4
70
0
10
398.5
20
-894
10
409
20
-893.5
10
409.5
20
-891
10
400
20
-888.5
0
LWPOLYLINE
8
REFERENCE_STROKES
90
4
70
0
10
950.5
20
-894
10
949
20
-888.5
10
944.5
20
-891
10
946
20
-894.5
0
LWPOLYLINE
8
REFERENCE_STROKES
90
8
70
0
10
1301
20
-907.5
10
1294
20
-906.5
10
1291.5
20
-900
10
1293.5
20
-892
10
1297
20
-889.5
10
1301
20
-889.5
10
1304.5
20
-893
10
1304.5
20
-904
0
LWPOLYLINE
8
REFERENCE_STROKES
90
25
70
0
10
1343.5
20
-907
10
1340
20
-909.5
10
1336
20
-909.5
10
1332
20
-905.5
10
1327
20
-908.5
10
1322
20
-908.5
10
1318
20
-905.5
10
1316
20
-908.5
10
1309
20
-908.5
10
1306.5
20
-905
10
1310.5
20
-903
10
1310.5
20
-896
10
1308
20
-895.5
10
1307.5
20
-893
10
1310
20
-890.5
10
1314.5
20
-892
10
1313.5
20
-903
10
1318
20
-904.5
10
1318.5
20
-895
10
1321
20
-891.5
10
1327
20
-890.5
10
1332
20
-896.5
10
1335
20
-891.5
10
1339
20
-890.5
10
1343.5
20
-894
0
LWPOLYLINE
8
REFERENCE_STROKES
90
30
70
1
10
1983.5
20
-1091
10
1988.5
20
-906
10
1987
20
-904.5
10
1848.5
20
-900
10
1849
20
-904.5
10
1914
20
-906.5
10
1928.5
20
-909
10
1926.5
20
-994
10
1925
20
-995.5
10
1906
20
-995.5
10
1818
20
-990.5
10
1818.5
20
-926
10
1817
20
-924.5
10
1812.5
20
-926
10
1811.5
20
-981
10
1809
20
-990.5
10
1690
20
-985.5
10
1688.5
20
-975
10
1692
20
-898.5
10
1782
20
-901.5
10
1782.5
20
-898
10
1781
20
-896.5
10
1614.5
20
-891
10
1616
20
-895.5
10
1624.5
20
-897
10
1619.5
20
-1071
10
1610
20
-1072.5
10
1610
20
-1077.5
10
1972
20
-1092.5
10
1982
20
-1092.5
0
LWPOLYLINE
8
REFERENCE_STROKES
90
5
70
0
10
299.5
20
-898
10
297
20
-900.5
10
293
20
-900.5
10
290.5
20
-895
10
297
20
-892.5
0
LWPOLYLINE
8
REFERENCE_STROKES
90
6
70
0
10
594.5
20
-901
10
594
20
-893.5
10
589
20
-896.5
10
583.5
20
-895
10
584
20
-899.5
10
589
20
-898.5
0
LWPOLYLINE
8
REFERENCE_STROKES
90
14
70
0
10
1034
20
-1209.5
10
1035.5
20
-1205
10
1046.5
20
-922
10
1045
20
-920.5
10
989
20
-918.5
10
989.5
20
-895
10
988
20
-893.5
10
981
20
-895.5
10
974.5
20
-902
10
970
20
-917.5
10
850
20
-913.5
10
848.5
20
-915
10
836.5
20
-1202
10
842
20
-1203.5
0
LWPOLYLINE
8
REFERENCE_STROKES
90
4
70
1
10
1300
20
-903.5
10
1301.5
20
-896
10
1298
20
-893.5
10
1296.5
20
-903
0
LWPOLYLINE
8
REFERENCE_STROKES
90
18
70
0
10
1615
20
-1069.5
10
1616.5
20
-1068
10
1621.5
20
-900
10
1615
20
-898.5
10
1613.5
20
-912
10
1608
20
-913.5
10
1599
20
-909.5
10
1591
20
-897.5
10
1506
20
-893.5
10
1504.5
20
-900
10
1500.5
20
-1064
10
1583
20
-1068.5
10
1584.5
20
-1067
10
1584.5
20
-1052
10
1588
20
-1050.5
10
1598
20
-1053.5
10
1605.5
20
-1061
10
1609
20
-1069.5
0
LWPOLYLINE
8
REFERENCE_STROKES
90
4
70
1
10
1326
20
-904.5
10
1327.5
20
-896
10
1324
20
-894.5
10
1322.5
20
-904
0
LWPOLYLINE
8
REFERENCE_STROKES
90
6
70
0
10
2170
20
-927.5
10
2171.5
20
-925
10
2171.5
20
-895
10
2163
20
-894.5
10
2161.5
20
-896
10
2160.5
20
-926
0
LWPOLYLINE
8
REFERENCE_STROKES
90
5
70
0
10
2184
20
-927.5
10
2185.5
20
-896
10
2176
20
-894.5
10
2174.5
20
-896
10
2174.5
20
-927
0
LWPOLYLINE
8
REFERENCE_STROKES
90
10
70
1
10
373.5
20
-897
10
371
20
-908.5
10
368.5
20
-907
10
368
20
-903.5
10
359
20
-903.5
10
357
20
-907.5
10
352.5
20
-902
10
354
20
-898.5
10
369
20
-898.5
10
370
20
-895.5
0
LWPOLYLINE
8
REFERENCE_STROKES
90
8
70
0
10
1682
20
-985.5
10
1641
20
-984.5
10
1627.5
20
-982
10
1629.5
20
-900
10
1632
20
-895.5
10
1685
20
-897.5
10
1686.5
20
-899
10
1684.5
20
-974
0
LWPOLYLINE
8
REFERENCE_STROKES
90
6
70
0
10
2197
20
-928.5
10
2198.5
20
-927
10
2199.5
20
-896
10
2190
20
-895.5
10
2188.5
20
-897
10
2187.5
20
-927
0
LWPOLYLINE
8
REFERENCE_STROKES
90
5
70
0
10
2212
20
-928.5
10
2213.5
20
-897
10
2204
20
-895.5
10
2202.5
20
-897
10
2201.5
20
-928
0
LWPOLYLINE
8
REFERENCE_STROKES
90
6
70
0
10
405
20
-906.5
10
407.5
20
-904
10
406
20
-896.5
10
403.5
20
-897
10
404.5
20
-902
10
402.5
20
-903
0
LWPOLYLINE
8
REFERENCE_STROKES
90
5
70
0
10
2225
20
-929.5
10
2226.5
20
-928
10
2226.5
20
-897
10
2217
20
-896.5
10
2215.5
20
-928
0
LWPOLYLINE
8
REFERENCE_STROKES
90
5
70
0
10
2239
20
-929.5
10
2240.5
20
-898
10
2232
20
-896.5
10
2230.5
20
-898
10
2229.5
20
-929
0
LWPOLYLINE
8
REFERENCE_STROKES
90
7
70
0
10
1679
20
-982.5
10
1680.5
20
-981
10
1682.5
20
-902
10
1678
20
-900.5
10
1634
20
-899.5
10
1631.5
20
-979
10
1633
20
-980.5
0
LWPOLYLINE
8
REFERENCE_STROKES
90
5
70
0
10
589
20
-911.5
10
587.5
20
-906
10
589.5
20
-903
10
586
20
-902.5
10
584.5
20
-910
0
LWPOLYLINE
8
REFERENCE_STROKES
90
4
70
0
10
296
20
-914.5
10
289.5
20
-911
10
294
20
-905.5
10
298.5
20
-909
0
LWPOLYLINE
8
REFERENCE_STROKES
90
6
70
0
10
1980
20
-997.5
10
1934
20
-996.5
10
1932.5
20
-995
10
1933.5
20
-918
10
1936
20
-907.5
10
1982.5
20
-910
0
LWPOLYLINE
8
REFERENCE_STROKES
90
13
70
0
10
1426
20
-1224.5
10
1435.5
20
-936
10
1431
20
-934.5
10
1390
20
-933.5
10
1386.5
20
-917
10
1376
20
-908.5
10
1372.5
20
-909
10
1371.5
20
-931
10
1370
20
-932.5
10
1232
20
-927.5
10
1230.5
20
-929
10
1220.5
20
-1215
10
1231
20
-1217.5
0
LWPOLYLINE
8
REFERENCE_STROKES
90
8
70
0
10
371.5
20
-921
10
368
20
-923.5
10
359
20
-924.5
10
352.5
20
-921
10
351.5
20
-916
10
357
20
-909.5
10
366
20
-909.5
10
372.5
20
-915
0
LWPOLYLINE
8
REFERENCE_STROKES
90
14
70
0
10
1663.5
20
-924
10
1659
20
-924.5
10
1652
20
-916.5
10
1649
20
-915.5
10
1647.5
20
-920
10
1649.5
20
-923
10
1646
20
-924.5
10
1642.5
20
-919
10
1643.5
20
-914
10
1647
20
-911.5
10
1651
20
-911.5
10
1659
20
-918.5
10
1660.5
20
-913
10
1663
20
-911.5
0
LWPOLYLINE
8
REFERENCE_STROKES
90
7
70
0
10
1976
20
-994.5
10
1977.5
20
-993
10
1979.5
20
-914
10
1977
20
-912.5
10
1939
20
-911.5
10
1937.5
20
-913
10
1935.5
20
-992
0
LWPOLYLINE
8
REFERENCE_STROKES
90
11
70
0
10
637.5
20
-924
10
635
20
-925.5
10
633
20
-920.5
10
623
20
-920.5
10
623.5
20
-923
10
620
20
-924.5
10
616.5
20
-918
10
619
20
-915.5
10
633
20
-916.5
10
634.5
20
-913
10
637
20
-912.5
0
LWPOLYLINE
8
REFERENCE_STROKES
90
6
70
1
10
368.5
20
-916
10
364
20
-913.5
10
359
20
-913.5
10
355.5
20
-916
10
358
20
-919.5
10
367
20
-919.5
0
LWPOLYLINE
8
REFERENCE_STROKES
90
4
70
0
10
482
20
-921.5
10
482.5
20
-917
10
480
20
-916.5
10
478.5
20
-919
0
LWPOLYLINE
8
REFERENCE_STROKES
90
6
70
0
10
296
20
-928.5
10
292
20
-928.5
10
289.5
20
-926
10
292
20
-920.5
10
296
20
-920.5
10
298.5
20
-923
0
LWPOLYLINE
8
REFERENCE_STROKES
90
11
70
1
10
1965.5
20
-932
10
1961
20
-937.5
10
1951
20
-937.5
10
1944.5
20
-933
10
1944.5
20
-927
10
1949
20
-924.5
10
1948.5
20
-932
10
1951
20
-932.5
10
1953
20
-925.5
10
1961
20
-924.5
10
1965.5
20
-929
0
LWPOLYLINE
8
REFERENCE_STROKES
90
8
70
0
10
635.5
20
-938
10
628
20
-941.5
10
620
20
-940.5
10
616.5
20
-937
10
615.5
20
-932
10
621
20
-926.5
10
631
20
-926.5
10
636.5
20
-931
0
LWPOLYLINE
8
REFERENCE_STROKES
90
18
70
0
10
1662
20
-952.5
10
1660
20
-952.5
10
1657
20
-947.5
10
1649
20
-947.5
10
1648
20
-951.5
10
1643.5
20
-949
10
1643
20
-943.5
10
1659
20
-943.5
10
1660.5
20
-940
10
1658
20
-934.5
10
1649
20
-934.5
10
1648.5
20
-938
10
1646
20
-938.5
10
1642.5
20
-934
10
1644
20
-930.5
10
1659
20
-930.5
10
1661
20
-926.5
10
1663.5
20
-928
0
LWPOLYLINE
8
REFERENCE_STROKES
90
4
70
0
10
1961.5
20
-932
10
1959
20
-928.5
10
1954.5
20
-931
10
1956
20
-933.5
0
LWPOLYLINE
8
REFERENCE_STROKES
90
4
70
1
10
482
20
-935.5
10
482.5
20
-931
10
480
20
-930.5
10
478.5
20
-934
0
LWPOLYLINE
8
REFERENCE_STROKES
90
6
70
1
10
632.5
20
-933
10
628
20
-930.5
10
623
20
-930.5
10
619.5
20
-933
10
622
20
-936.5
10
631
20
-936.5
0
LWPOLYLINE
8
REFERENCE_STROKES
90
3
70
0
10
511
20
-936.5
10
514.5
20
-935
10
513
20
-931.5
0
LWPOLYLINE
8
REFERENCE_STROKES
90
5
70
0
10
295
20
-941.5
10
289.5
20
-940
10
289.5
20
-936
10
293
20
-933.5
10
297.5
20
-936
0
LWPOLYLINE
8
REFERENCE_STROKES
90
5
70
1
10
1701
20
-943.5
10
1703.5
20
-940
10
1703.5
20
-936
10
1699
20
-933.5
10
1698.5
20
-942
0
LWPOLYLINE
8
REFERENCE_STROKES
90
9
70
1
10
2267
20
-1146.5
10
2141
20
-1142.5
10
2117.5
20
-1140
10
2119.5
20
-1041
10
2123.5
20
-937
10
2125
20
-934.5
10
2264
20
-938.5
10
2275.5
20
-941
10
2268.5
20
-1145
0
LWPOLYLINE
8
REFERENCE_STROKES
90
8
70
0
10
704
20
-955.5
10
699
20
-954.5
10
696.5
20
-949
10
697.5
20
-941
10
701
20
-937.5
10
707
20
-937.5
10
710.5
20
-942
10
709.5
20
-952
0
LWPOLYLINE
8
REFERENCE_STROKES
90
31
70
0
10
748.5
20
-954
10
744
20
-956.5
10
739
20
-955.5
10
737
20
-952.5
10
733
20
-955.5
10
726
20
-955.5
10
724
20
-953.5
10
722
20
-955.5
10
712
20
-955.5
10
710.5
20
-954
10
714.5
20
-951
10
714.5
20
-944
10
712.5
20
-940
10
716
20
-937.5
10
719.5
20
-939
10
720
20
-952.5
10
723
20
-952.5
10
725
20
-949.5
10
730
20
-952.5
10
731.5
20
-950
10
728
20
-948.5
10
727.5
20
-946
10
730.5
20
-942
10
725
20
-943.5
10
723.5
20
-942
10
726
20
-938.5
10
731
20
-937.5
10
736
20
-941.5
10
741
20
-938.5
10
746
20
-938.5
10
749.5
20
-942
0
LWPOLYLINE
8
REFERENCE_STROKES
90
6
70
0
10
2265
20
-1142.5
10
2272.5
20
-944
10
2271
20
-942.5
10
2128
20
-937.5
10
2120.5
20
-1136
10
2131
20
-1138.5
0
LWPOLYLINE
8
REFERENCE_STROKES
90
18
70
1
10
1963
20
-965.5
10
1961
20
-965.5
10
1957
20
-960.5
10
1950
20
-960.5
10
1949
20
-964.5
10
1945.5
20
-963
10
1943.5
20
-959
10
1945
20
-956.5
10
1959
20
-957.5
10
1960.5
20
-949
10
1951
20
-947.5
10
1948
20
-951.5
10
1944.5
20
-948
10
1945
20
-944.5
10
1960
20
-944.5
10
1962
20
-939.5
10
1964.5
20
-941
10
1964.5
20
-962
0
LWPOLYLINE
8
REFERENCE_STROKES
90
5
70
1
10
704
20
-951.5
10
705.5
20
-950
10
705
20
-941.5
10
701.5
20
-943
10
701.5
20
-950
0
LWPOLYLINE
8
REFERENCE_STROKES
90
8
70
1
10
1920
20
-951.5
10
1920.5
20
-948
10
1918.5
20
-946
10
1920.5
20
-942
10
1918
20
-941.5
10
1915.5
20
-944
10
1915.5
20
-949
10
1917
20
-951.5
0
LWPOLYLINE
8
REFERENCE_STROKES
90
8
70
0
10
489.5
20
-1031
10
479
20
-1032.5
10
340
20
-1027.5
10
338.5
20
-1018
10
341.5
20
-945
10
346
20
-942.5
10
492
20
-948.5
10
493.5
20
-950
0
LWPOLYLINE
8
REFERENCE_STROKES
90
4
70
1
10
744
20
-952.5
10
745.5
20
-944
10
742
20
-942.5
10
740.5
20
-951
0
LWPOLYLINE
8
REFERENCE_STROKES
90
7
70
0
10
1692.5
20
-950
10
1694
20
-951.5
10
1697
20
-949.5
10
1704
20
-950.5
10
1704.5
20
-946
10
1699
20
-946.5
10
1694
20
-943.5
0
LWPOLYLINE
8
REFERENCE_STROKES
90
6
70
0
10
486.5
20
-1028
10
489.5
20
-978
10
489
20
-951.5
10
345.5
20
-947
10
342.5
20
-1023
10
344
20
-1024.5
0
LWPOLYLINE
8
REFERENCE_STROKES
90
8
70
0
10
116
20
-970.5
10
110
20
-969.5
10
106.5
20
-964
10
107.5
20
-951
10
112
20
-947.5
10
119
20
-948.5
10
122.5
20
-954
10
121.5
20
-965
0
LWPOLYLINE
8
REFERENCE_STROKES
90
40
70
0
10
169.5
20
-966
10
165
20
-971.5
10
158
20
-971.5
10
155.5
20
-968
10
158
20
-965.5
10
164
20
-967.5
10
164.5
20
-965
10
159
20
-964.5
10
154
20
-957.5
10
152.5
20
-960
10
154.5
20
-962
10
154.5
20
-966
10
149
20
-971.5
10
143
20
-971.5
10
141
20
-969.5
10
125
20
-970.5
10
123.5
20
-968
10
129.5
20
-964
10
129.5
20
-956
10
126
20
-955.5
10
124.5
20
-953
10
126
20
-950.5
10
133
20
-948.5
10
133.5
20
-966
10
139
20
-967.5
10
140
20
-964.5
10
143
20
-964.5
10
147
20
-967.5
10
149.5
20
-964
10
143.5
20
-960
10
148.5
20
-956
10
148.5
20
-954
10
141
20
-955.5
10
139.5
20
-953
10
142
20
-949.5
10
149
20
-948.5
10
154
20
-952.5
10
160
20
-949.5
10
166
20
-949.5
10
170.5
20
-956
0
LWPOLYLINE
8
REFERENCE_STROKES
90
5
70
0
10
295
20
-955.5
10
288.5
20
-954
10
290
20
-948.5
10
295
20
-948.5
10
297.5
20
-951
0
LWPOLYLINE
8
REFERENCE_STROKES
90
8
70
1
10
533
20
-1033.5
10
510
20
-1033.5
10
495.5
20
-1031
10
497.5
20
-962
10
500
20
-948.5
10
525
20
-948.5
10
538.5
20
-951
10
535.5
20
-1031
0
LWPOLYLINE
8
REFERENCE_STROKES
90
7
70
0
10
591
20
-1034.5
10
544
20
-1034.5
10
541.5
20
-1033
10
543.5
20
-952
10
546
20
-949.5
10
591
20
-950.5
10
594.5
20
-952
0
LWPOLYLINE
8
REFERENCE_STROKES
90
6
70
0
10
116
20
-965.5
10
117.5
20
-964
10
117.5
20
-954
10
114
20
-951.5
10
111.5
20
-954
10
111.5
20
-964
0
LWPOLYLINE
8
REFERENCE_STROKES
90
7
70
0
10
530
20
-1030.5
10
532.5
20
-1029
10
535.5
20
-954
10
534
20
-952.5
10
502
20
-951.5
10
498.5
20
-1028
10
500
20
-1029.5
0
LWPOLYLINE
8
REFERENCE_STROKES
90
7
70
1
10
651
20
-1037.5
10
597.5
20
-1035
10
599.5
20
-954
10
602
20
-951.5
10
654
20
-952.5
10
656.5
20
-954
10
653.5
20
-1035
0
LWPOLYLINE
8
REFERENCE_STROKES
90
8
70
1
10
1701
20
-962.5
10
1703.5
20
-957
10
1702.5
20
-954
10
1699
20
-952.5
10
1697.5
20
-955
10
1699.5
20
-958
10
1697.5
20
-959
10
1697.5
20
-962
0
LWPOLYLINE
8
REFERENCE_STROKES
90
4
70
1
10
1830
20
-957.5
10
1833.5
20
-955
10
1832
20
-952.5
10
1829.5
20
-955
0
LWPOLYLINE
8
REFERENCE_STROKES
90
6
70
0
10
1924.5
20
-959
10
1924
20
-952.5
10
1921
20
-954.5
10
1913.5
20
-954
10
1914
20
-958.5
10
1920
20
-957.5
0
LWPOLYLINE
8
REFERENCE_STROKES
90
4
70
1
10
164
20
-960.5
10
165.5
20
-955
10
162
20
-953.5
10
160.5
20
-959
0
LWPOLYLINE
8
REFERENCE_STROKES
90
5
70
0
10
588
20
-1031.5
10
591.5
20
-955
10
548
20
-953.5
10
546.5
20
-955
10
544.5
20
-1030
0
LWPOLYLINE
8
REFERENCE_STROKES
90
8
70
0
10
1662.5
20
-964
10
1657
20
-968.5
10
1648
20
-968.5
10
1642.5
20
-965
10
1641.5
20
-960
10
1646
20
-954.5
10
1657
20
-954.5
10
1662.5
20
-959
0
LWPOLYLINE
8
REFERENCE_STROKES
90
19
70
0
10
649
20
-1033.5
10
650.5
20
-1032
10
650.5
20
-1018
10
637.5
20
-1016
10
637.5
20
-1001
10
639
20
-994.5
10
650
20
-994.5
10
651.5
20
-993
10
652.5
20
-979
10
641
20
-976.5
10
636.5
20
-971
10
636.5
20
-967
10
642
20
-960.5
10
652
20
-961.5
10
653.5
20
-957
10
651
20
-955.5
10
605
20
-954.5
10
602.5
20
-965
10
600.5
20
-1032
0
LWPOLYLINE
8
REFERENCE_STROKES
90
6
70
0
10
1658.5
20
-963
10
1658.5
20
-960
10
1656
20
-958.5
10
1646.5
20
-960
10
1647
20
-963.5
10
1654
20
-964.5
0
LWPOLYLINE
8
REFERENCE_STROKES
90
6
70
0
10
1919
20
-971.5
10
1920.5
20
-968
10
1917.5
20
-966
10
1920.5
20
-962
10
1917
20
-960.5
10
1914.5
20
-967
0
LWPOLYLINE
8
REFERENCE_STROKES
90
7
70
0
10
296.5
20
-967
10
294
20
-969.5
10
290
20
-969.5
10
287.5
20
-965
10
289
20
-962.5
10
293
20
-961.5
10
295.5
20
-963
0
LWPOLYLINE
8
REFERENCE_STROKES
90
32
70
0
10
522
20
-1003.5
10
520
20
-1003.5
10
518
20
-999.5
10
511
20
-998.5
10
508
20
-1002.5
10
504.5
20
-999
10
506
20
-995.5
10
519
20
-995.5
10
520.5
20
-991
10
517.5
20
-990
10
520.5
20
-985
10
519
20
-982.5
10
514
20
-986.5
10
510
20
-982.5
10
508.5
20
-984
10
510.5
20
-987
10
509
20
-990.5
10
505.5
20
-988
10
504.5
20
-983
10
508
20
-978.5
10
515.5
20
-979
10
515.5
20
-977
10
505.5
20
-969
10
507
20
-966.5
10
516
20
-966.5
10
519
20
-964.5
10
523.5
20
-968
10
519.5
20
-972
10
519.5
20
-978
10
523.5
20
-982
10
521.5
20
-990
10
523.5
20
-994
0
LWPOLYLINE
8
REFERENCE_STROKES
90
4
70
1
10
1799
20
-969.5
10
1799.5
20
-965
10
1798
20
-964.5
10
1795.5
20
-968
0
LWPOLYLINE
8
REFERENCE_STROKES
90
8
70
0
10
1540
20
-986.5
10
1534
20
-985.5
10
1530.5
20
-979
10
1531.5
20
-970
10
1536
20
-965.5
10
1543
20
-966.5
10
1545.5
20
-970
10
1545.5
20
-982
0
LWPOLYLINE
8
REFERENCE_STROKES
90
14
70
0
10
574.5
20
-976
10
572
20
-978.5
10
564
20
-970.5
10
561
20
-970.5
10
561.5
20
-977
10
559
20
-977.5
10
556.5
20
-975
10
556.5
20
-969
10
559
20
-966.5
10
564
20
-966.5
10
571
20
-972.5
10
571.5
20
-968
10
574
20
-966.5
10
575.5
20
-968
0
LWPOLYLINE
8
REFERENCE_STROKES
90
17
70
0
10
1573.5
20
-986
10
1572
20
-987.5
10
1548
20
-986.5
10
1547.5
20
-984
10
1551.5
20
-982
10
1551.5
20
-973
10
1548.5
20
-972
10
1548.5
20
-969
10
1554
20
-966.5
10
1556.5
20
-969
10
1555.5
20
-982
10
1564
20
-983.5
10
1564.5
20
-974
10
1561.5
20
-970
10
1565
20
-967.5
10
1569
20
-967.5
10
1569.5
20
-983
0
LWPOLYLINE
8
REFERENCE_STROKES
90
8
70
0
10
1583
20
-988.5
10
1578
20
-987.5
10
1574.5
20
-983
10
1574.5
20
-973
10
1579
20
-967.5
10
1586
20
-968.5
10
1589.5
20
-974
10
1588.5
20
-985
0
LWPOLYLINE
8
REFERENCE_STROKES
90
8
70
0
10
1964.5
20
-976
10
1960
20
-981.5
10
1952
20
-982.5
10
1943.5
20
-978
10
1943.5
20
-971
10
1948
20
-967.5
10
1958
20
-967.5
10
1963.5
20
-971
0
LWPOLYLINE
8
REFERENCE_STROKES
90
5
70
0
10
1537
20
-982.5
10
1541.5
20
-979
10
1541.5
20
-972
10
1539
20
-969.5
10
1535.5
20
-972
0
LWPOLYLINE
8
REFERENCE_STROKES
90
8
70
0
10
393
20
-994.5
10
388
20
-994.5
10
383.5
20
-990
10
383.5
20
-977
10
389
20
-971.5
10
395
20
-972.5
10
399.5
20
-982
10
396.5
20
-992
0
LWPOLYLINE
8
REFERENCE_STROKES
90
7
70
1
10
1582
20
-984.5
10
1584.5
20
-982
10
1584.5
20
-973
10
1583
20
-971.5
10
1579.5
20
-973
10
1578.5
20
-977
10
1579.5
20
-983
0
LWPOLYLINE
8
REFERENCE_STROKES
90
6
70
0
10
1959.5
20
-976
10
1959.5
20
-973
10
1957
20
-971.5
10
1947.5
20
-973
10
1947.5
20
-976
10
1950
20
-977.5
0
LWPOLYLINE
8
REFERENCE_STROKES
90
10
70
1
10
414
20
-994.5
10
400.5
20
-994
10
402
20
-990.5
10
405.5
20
-990
10
406.5
20
-980
10
401.5
20
-977
10
406
20
-972.5
10
410.5
20
-973
10
410.5
20
-990
10
414.5
20
-992
0
LWPOLYLINE
8
REFERENCE_STROKES
90
28
70
0
10
447.5
20
-993
10
444
20
-995.5
10
437
20
-995.5
10
432
20
-990.5
10
426
20
-995.5
10
419
20
-994.5
10
416.5
20
-992
10
418
20
-987.5
10
423
20
-991.5
10
426.5
20
-990
10
426.5
20
-987
10
421.5
20
-985
10
426.5
20
-978
10
422
20
-977.5
10
419
20
-979.5
10
417.5
20
-975
10
422
20
-972.5
10
430
20
-974.5
10
431.5
20
-981
10
429.5
20
-984
10
433
20
-986.5
10
434.5
20
-985
10
434.5
20
-976
10
438
20
-973.5
10
445
20
-973.5
10
448.5
20
-978
10
446.5
20
-983
10
448.5
20
-987
0
LWPOLYLINE
8
REFERENCE_STROKES
90
5
70
0
10
295.5
20
-981
10
290
20
-983.5
10
287.5
20
-981
10
287.5
20
-977
10
294
20
-975.5
0
LWPOLYLINE
8
REFERENCE_STROKES
90
6
70
0
10
391
20
-990.5
10
394.5
20
-986
10
394.5
20
-979
10
392
20
-975.5
10
387.5
20
-978
10
387.5
20
-988
0
LWPOLYLINE
8
REFERENCE_STROKES
90
4
70
0
10
443.5
20
-980
10
442
20
-977.5
10
438.5
20
-978
10
439
20
-981.5
0
LWPOLYLINE
8
REFERENCE_STROKES
90
14
70
0
10
574.5
20
-987
10
570
20
-992.5
10
568.5
20
-991
10
570
20
-983.5
10
568
20
-983.5
10
566
20
-987.5
10
560
20
-984.5
10
561.5
20
-990
10
559
20
-991.5
10
555.5
20
-988
10
555.5
20
-983
10
560
20
-979.5
10
570
20
-979.5
10
573.5
20
-982
0
LWPOLYLINE
8
REFERENCE_STROKES
90
4
70
0
10
1799
20
-984.5
10
1799.5
20
-980
10
1797
20
-979.5
10
1795.5
20
-982
0
LWPOLYLINE
8
REFERENCE_STROKES
90
4
70
0
10
443.5
20
-990
10
443
20
-986.5
10
437.5
20
-988
10
439
20
-991.5
0
LWPOLYLINE
8
REFERENCE_STROKES
90
6
70
0
10
293
20
-997.5
10
289
20
-997.5
10
286.5
20
-995
10
289
20
-989.5
10
294.5
20
-991
10
295.5
20
-994
0
LWPOLYLINE
8
REFERENCE_STROKES
90
8
70
1
10
1680
20
-1075.5
10
1638
20
-1074.5
10
1625.5
20
-1072
10
1626.5
20
-1003
10
1629
20
-989.5
10
1680
20
-990.5
10
1683.5
20
-993
10
1681.5
20
-1073
0
LWPOLYLINE
8
REFERENCE_STROKES
90
7
70
0
10
1747
20
-1077.5
10
1690
20
-1076.5
10
1686.5
20
-1074
10
1687.5
20
-1004
10
1690
20
-991.5
10
1734
20
-992.5
10
1749.5
20
-995
0
LWPOLYLINE
8
REFERENCE_STROKES
90
16
70
0
10
1676
20
-1072.5
10
1678.5
20
-1057
10
1679.5
20
-995
10
1632
20
-992.5
10
1632
20
-995.5
10
1644.5
20
-997
10
1644.5
20
-1017
10
1629.5
20
-1020
10
1629.5
20
-1035
10
1631
20
-1036.5
10
1642
20
-1036.5
10
1645.5
20
-1040
10
1646.5
20
-1046
10
1642
20
-1052.5
10
1629.5
20
-1053
10
1629.5
20
-1069
0
LWPOLYLINE
8
REFERENCE_STROKES
90
9
70
0
10
573.5
20
-1003
10
571
20
-1003.5
10
569
20
-1000.5
10
561
20
-1000.5
10
559
20
-1003.5
10
556.5
20
-1002
10
555.5
20
-997
10
570
20
-996.5
10
573
20
-993.5
0
LWPOLYLINE
8
REFERENCE_STROKES
90
8
70
0
10
1743
20
-1074.5
10
1744.5
20
-1073
10
1746.5
20
-998
10
1745
20
-996.5
10
1693
20
-994.5
10
1691.5
20
-996
10
1689.5
20
-1071
10
1691
20
-1072.5
0
LWPOLYLINE
8
REFERENCE_STROKES
90
9
70
1
10
1806
20
-1080.5
10
1755
20
-1078.5
10
1752.5
20
-1076
10
1754.5
20
-998
10
1757
20
-994.5
10
1780
20
-994.5
10
1809
20
-996.5
10
1810.5
20
-998
10
1808.5
20
-1078
0
LWPOLYLINE
8
REFERENCE_STROKES
90
7
70
0
10
1804
20
-1076.5
10
1805.5
20
-1071
10
1806.5
20
-1000
10
1760
20
-997.5
10
1758.5
20
-999
10
1756.5
20
-1074
10
1758
20
-1075.5
0
LWPOLYLINE
8
REFERENCE_STROKES
90
7
70
0
10
1978.5
20
-1085
10
1976
20
-1087.5
10
1815
20
-1080.5
10
1816.5
20
-998
10
1846
20
-997.5
10
1978
20
-1003.5
10
1980.5
20
-1006
0
LWPOLYLINE
8
REFERENCE_STROKES
90
7
70
0
10
1974.5
20
-1082
10
1976.5
20
-1008
10
1975
20
-1006.5
10
1819.5
20
-1001
10
1817.5
20
-1068
10
1819
20
-1077.5
10
1965
20
-1083.5
0
LWPOLYLINE
8
REFERENCE_STROKES
90
6
70
0
10
646
20
-1010.5
10
647.5
20
-1008
10
644.5
20
-1005
10
647.5
20
-1002
10
644
20
-1001.5
10
642.5
20
-1007
0
LWPOLYLINE
8
REFERENCE_STROKES
90
5
70
1
10
1638
20
-1011.5
10
1640.5
20
-1006
10
1636
20
-1002.5
10
1637.5
20
-1008
10
1635.5
20
-1011
0
LWPOLYLINE
8
REFERENCE_STROKES
90
6
70
1
10
293
20
-1010.5
10
289
20
-1011.5
10
286.5
20
-1009
10
288
20
-1003.5
10
293.5
20
-1004
10
294.5
20
-1008
0
LWPOLYLINE
8
REFERENCE_STROKES
90
12
70
0
10
1724.5
20
-1013
10
1722
20
-1016.5
10
1711
20
-1017.5
10
1704.5
20
-1013
10
1703.5
20
-1008
10
1708
20
-1004.5
10
1709.5
20
-1006
10
1708.5
20
-1012
10
1710
20
-1012.5
10
1710.5
20
-1008
10
1718
20
-1003.5
10
1723.5
20
-1006
0
LWPOLYLINE
8
REFERENCE_STROKES
90
7
70
0
10
522.5
20
-1014
10
518
20
-1017.5
10
508
20
-1017.5
10
503.5
20
-1011
10
507
20
-1005.5
10
516
20
-1004.5
10
522.5
20
-1009
0
LWPOLYLINE
8
REFERENCE_STROKES
90
8
70
0
10
573.5
20
-1014
10
569
20
-1018.5
10
559
20
-1018.5
10
555.5
20
-1016
10
554.5
20
-1010
10
558
20
-1006.5
10
566
20
-1005.5
10
572.5
20
-1009
0
LWPOLYLINE
8
REFERENCE_STROKES
90
9
70
1
10
1789.5
20
-1012
10
1785.5
20
-1014
10
1785.5
20
-1019
10
1782
20
-1021.5
10
1770
20
-1013.5
10
1768.5
20
-1009
10
1781
20
-1008.5
10
1784
20
-1006.5
10
1789
20
-1009.5
0
LWPOLYLINE
8
REFERENCE_STROKES
90
4
70
0
10
1720.5
20
-1012
10
1719
20
-1007.5
10
1714.5
20
-1009
10
1716
20
-1013.5
0
LWPOLYLINE
8
REFERENCE_STROKES
90
5
70
0
10
518.5
20
-1013
10
518.5
20
-1010
10
516
20
-1008.5
10
507.5
20
-1010
10
509
20
-1013.5
0
LWPOLYLINE
8
REFERENCE_STROKES
90
4
70
0
10
569.5
20
-1013
10
567
20
-1009.5
10
558.5
20
-1011
10
560
20
-1014.5
0
LWPOLYLINE
8
REFERENCE_STROKES
90
7
70
0
10
290
20
-1025.5
10
285.5
20
-1024
10
285.5
20
-1020
10
288
20
-1017.5
10
292
20
-1017.5
10
294.5
20
-1020
10
294.5
20
-1022
0
LWPOLYLINE
8
REFERENCE_STROKES
90
14
70
0
10
1723.5
20
-1032
10
1718
20
-1031.5
10
1711
20
-1023.5
10
1709
20
-1023.5
10
1707.5
20
-1027
10
1709.5
20
-1031
10
1707
20
-1032.5
10
1703.5
20
-1029
10
1704.5
20
-1021
10
1712
20
-1019.5
10
1720
20
-1026.5
10
1720.5
20
-1020
10
1723
20
-1019.5
10
1724.5
20
-1021
0
LWPOLYLINE
8
REFERENCE_STROKES
90
23
70
0
10
1788
20
-1050.5
10
1786
20
-1050.5
10
1783
20
-1045.5
10
1775
20
-1045.5
10
1773
20
-1048.5
10
1768.5
20
-1046
10
1767.5
20
-1043
10
1769
20
-1041.5
10
1784
20
-1041.5
10
1786.5
20
-1037
10
1776
20
-1026.5
10
1772.5
20
-1027
10
1774.5
20
-1034
10
1772
20
-1035.5
10
1767.5
20
-1029
10
1771
20
-1022.5
10
1776
20
-1022.5
10
1783
20
-1028.5
10
1785.5
20
-1028
10
1787
20
-1022.5
10
1789.5
20
-1024
10
1789.5
20
-1034
10
1787.5
20
-1036
0
LWPOLYLINE
8
REFERENCE_STROKES
90
8
70
0
10
2173
20
-1047.5
10
2165.5
20
-1043
10
2164.5
20
-1037
10
2165.5
20
-1029
10
2171
20
-1023.5
10
2177
20
-1024.5
10
2181.5
20
-1031
10
2179.5
20
-1044
0
LWPOLYLINE
8
REFERENCE_STROKES
90
8
70
0
10
1876
20
-1047.5
10
1869
20
-1047.5
10
1864.5
20
-1041
10
1865.5
20
-1029
10
1872
20
-1024.5
10
1876
20
-1025.5
10
1880.5
20
-1032
10
1880.5
20
-1040
0
LWPOLYLINE
8
REFERENCE_STROKES
90
19
70
0
10
2211.5
20
-1047
10
2207
20
-1048.5
10
2183
20
-1046.5
10
2182.5
20
-1044
10
2187.5
20
-1040
10
2187.5
20
-1033
10
2184
20
-1031.5
10
2183.5
20
-1029
10
2191
20
-1024.5
10
2192.5
20
-1026
10
2192.5
20
-1042
10
2200
20
-1043.5
10
2201.5
20
-1042
10
2201.5
20
-1032
10
2198
20
-1031.5
10
2197.5
20
-1029
10
2206
20
-1025.5
10
2207.5
20
-1027
10
2206.5
20
-1042
0
LWPOLYLINE
8
REFERENCE_STROKES
90
11
70
1
10
1896
20
-1048.5
10
1884
20
-1048.5
10
1881.5
20
-1046
10
1887.5
20
-1042
10
1887.5
20
-1033
10
1884
20
-1032.5
10
1883.5
20
-1030
10
1889
20
-1025.5
10
1892.5
20
-1028
10
1891.5
20
-1043
10
1896.5
20
-1046
0
LWPOLYLINE
8
REFERENCE_STROKES
90
7
70
0
10
2220
20
-1048.5
10
2215.5
20
-1046
10
2221.5
20
-1030
10
2214
20
-1029.5
10
2214
20
-1025.5
10
2226
20
-1025.5
10
2228.5
20
-1028
0
LWPOLYLINE
8
REFERENCE_STROKES
90
22
70
1
10
1930.5
20
-1048
10
1928
20
-1050.5
10
1899
20
-1048.5
10
1899.5
20
-1043
10
1908.5
20
-1035
10
1908
20
-1031.5
10
1900
20
-1033.5
10
1899.5
20
-1029
10
1903
20
-1026.5
10
1911.5
20
-1028
10
1912.5
20
-1036
10
1905.5
20
-1044
10
1914
20
-1046.5
10
1925.5
20
-1035
10
1923
20
-1031.5
10
1917
20
-1034.5
10
1915.5
20
-1031
10
1923
20
-1026.5
10
1928
20
-1028.5
10
1929.5
20
-1037
10
1921.5
20
-1045
10
1928
20
-1045.5
0
LWPOLYLINE
8
REFERENCE_STROKES
90
6
70
0
10
2174
20
-1042.5
10
2176.5
20
-1037
10
2176.5
20
-1031
10
2172
20
-1028.5
10
2169.5
20
-1032
10
2169.5
20
-1040
0
LWPOLYLINE
8
REFERENCE_STROKES
90
7
70
1
10
1874
20
-1043.5
10
1876.5
20
-1039
10
1876.5
20
-1034
10
1874
20
-1029.5
10
1871
20
-1029.5
10
1868.5
20
-1039
10
1871
20
-1043.5
0
LWPOLYLINE
8
REFERENCE_STROKES
90
5
70
0
10
291
20
-1038.5
10
287
20
-1038.5
10
284.5
20
-1036
10
287
20
-1031.5
10
293.5
20
-1033
0
LWPOLYLINE
8
REFERENCE_STROKES
90
11
70
0
10
1723.5
20
-1046
10
1721
20
-1047.5
10
1718
20
-1042.5
10
1710
20
-1042.5
10
1707
20
-1046.5
10
1703.5
20
-1042
10
1703.5
20
-1039
10
1705
20
-1037.5
10
1719
20
-1038.5
10
1722
20
-1034.5
10
1723.5
20
-1036
0
LWPOLYLINE
8
REFERENCE_STROKES
90
6
70
0
10
291
20
-1052.5
10
287
20
-1052.5
10
284.5
20
-1050
10
284.5
20
-1048
10
289
20
-1044.5
10
292.5
20
-1047
0
LWPOLYLINE
8
REFERENCE_STROKES
90
8
70
0
10
922
20
-1066.5
10
915
20
-1066.5
10
912.5
20
-1064
10
911.5
20
-1053
10
916
20
-1045.5
10
922
20
-1045.5
10
926.5
20
-1051
10
926.5
20
-1060
0
LWPOLYLINE
8
REFERENCE_STROKES
90
21
70
1
10
954.5
20
-1067
10
928
20
-1066.5
10
927.5
20
-1064
10
931.5
20
-1062
10
932.5
20
-1054
10
928.5
20
-1051
10
933
20
-1046.5
10
936
20
-1046.5
10
937.5
20
-1049
10
936.5
20
-1063
10
942
20
-1063.5
10
951.5
20
-1054
10
950
20
-1051.5
10
943
20
-1053.5
10
943.5
20
-1049
10
947
20
-1046.5
10
952
20
-1046.5
10
955.5
20
-1050
10
955.5
20
-1054
10
949.5
20
-1063
10
954
20
-1063.5
0
LWPOLYLINE
8
REFERENCE_STROKES
90
12
70
0
10
966
20
-1068.5
10
960
20
-1068.5
10
957.5
20
-1066
10
959
20
-1062.5
10
963
20
-1064.5
10
965.5
20
-1063
10
957.5
20
-1059
10
957.5
20
-1051
10
963
20
-1046.5
10
967
20
-1047.5
10
971.5
20
-1054
10
970.5
20
-1063
0
LWPOLYLINE
8
REFERENCE_STROKES
90
8
70
0
10
1723.5
20
-1059
10
1719
20
-1063.5
10
1709
20
-1063.5
10
1703.5
20
-1060
10
1702.5
20
-1053
10
1708
20
-1048.5
10
1719
20
-1049.5
10
1723.5
20
-1054
0
LWPOLYLINE
8
REFERENCE_STROKES
90
6
70
1
10
920
20
-1062.5
10
921.5
20
-1061
10
921.5
20
-1051
10
918
20
-1050.5
10
916.5
20
-1052
10
916.5
20
-1061
0
LWPOLYLINE
8
REFERENCE_STROKES
90
5
70
1
10
964
20
-1057.5
10
966.5
20
-1055
10
965
20
-1051.5
10
961.5
20
-1053
10
961.5
20
-1056
0
LWPOLYLINE
8
REFERENCE_STROKES
90
8
70
0
10
1788.5
20
-1061
10
1783
20
-1066.5
10
1774
20
-1066.5
10
1767.5
20
-1062
10
1767.5
20
-1056
10
1773
20
-1051.5
10
1784
20
-1052.5
10
1788.5
20
-1057
0
LWPOLYLINE
8
REFERENCE_STROKES
90
5
70
0
10
1719.5
20
-1057
10
1717
20
-1053.5
10
1708
20
-1053.5
10
1706.5
20
-1057
10
1711
20
-1059.5
0
LWPOLYLINE
8
REFERENCE_STROKES
90
6
70
0
10
1784.5
20
-1060
10
1784
20
-1057.5
10
1778
20
-1055.5
10
1771.5
20
-1058
10
1775
20
-1062.5
10
1781
20
-1062.5
0
LWPOLYLINE
8
REFERENCE_STROKES
90
5
70
0
10
288
20
-1066.5
10
284.5
20
-1064
10
284.5
20
-1061
10
288
20
-1058.5
10
292.5
20
-1062
0
LWPOLYLINE
8
REFERENCE_STROKES
90
9
70
0
10
1308
20
-1080.5
10
1301
20
-1080.5
10
1296.5
20
-1075
10
1296.5
20
-1066
10
1298.5
20
-1061
10
1302
20
-1058.5
10
1309
20
-1059.5
10
1312.5
20
-1064
10
1312.5
20
-1075
0
LWPOLYLINE
8
REFERENCE_STROKES
90
25
70
1
10
1344.5
20
-1081
10
1343
20
-1082.5
10
1332
20
-1082.5
10
1329
20
-1080.5
10
1326
20
-1082.5
10
1315
20
-1081.5
10
1314.5
20
-1078
10
1319.5
20
-1076
10
1319.5
20
-1067
10
1316
20
-1066.5
10
1315.5
20
-1063
10
1321
20
-1058.5
10
1324.5
20
-1061
10
1323.5
20
-1076
10
1330
20
-1078.5
10
1340.5
20
-1068
10
1338
20
-1063.5
10
1331
20
-1066.5
10
1330.5
20
-1063
10
1335
20
-1059.5
10
1342
20
-1060.5
10
1344.5
20
-1064
10
1344.5
20
-1068
10
1337.5
20
-1078
10
1343
20
-1078.5
0
LWPOLYLINE
8
REFERENCE_STROKES
90
8
70
0
10
1353
20
-1083.5
10
1349.5
20
-1082
10
1349.5
20
-1079
10
1355.5
20
-1065
10
1348
20
-1064.5
10
1346.5
20
-1061
10
1349
20
-1059.5
10
1361.5
20
-1062
0
LWPOLYLINE
8
REFERENCE_STROKES
90
5
70
0
10
1306
20
-1076.5
10
1308.5
20
-1067
10
1304
20
-1062.5
10
1301.5
20
-1066
10
1301.5
20
-1075
0
LWPOLYLINE
8
REFERENCE_STROKES
90
8
70
0
10
175.5
20
-1121
10
173
20
-1122.5
10
107
20
-1120.5
10
105.5
20
-1119
10
106.5
20
-1074
10
109
20
-1071.5
10
175
20
-1073.5
10
177.5
20
-1076
0
LWPOLYLINE
8
REFERENCE_STROKES
90
10
70
0
10
249.5
20
-1123
10
248
20
-1124.5
10
213
20
-1124.5
10
182
20
-1122.5
10
180.5
20
-1120
10
182.5
20
-1076
10
184
20
-1074.5
10
214
20
-1074.5
10
249
20
-1076.5
10
251.5
20
-1080
0
LWPOLYLINE
8
REFERENCE_STROKES
90
6
70
1
10
1099.5
20
-1085
10
1099
20
-1076.5
10
1062
20
-1074.5
10
1052.5
20
-1076
10
1054
20
-1085.5
10
1098
20
-1086.5
0
LWPOLYLINE
8
REFERENCE_STROKES
90
5
70
0
10
172.5
20
-1118
10
173
20
-1077.5
10
110.5
20
-1076
10
108.5
20
-1109
10
110
20
-1116.5
0
LWPOLYLINE
8
REFERENCE_STROKES
90
7
70
1
10
246.5
20
-1120
10
247.5
20
-1081
10
246
20
-1079.5
10
186.5
20
-1078
10
184.5
20
-1118
10
186
20
-1119.5
10
245
20
-1121.5
0
LWPOLYLINE
8
REFERENCE_STROKES
90
6
70
0
10
1213.5
20
-1090
10
1212
20
-1080.5
10
1168
20
-1079.5
10
1166.5
20
-1084
10
1168
20
-1089.5
10
1209
20
-1091.5
0
LWPOLYLINE
8
REFERENCE_STROKES
90
154
70
1
10
500.5
20
-1311
10
501.5
20
-1289
10
500
20
-1287.5
10
489
20
-1288.5
10
484
20
-1285.5
10
483.5
20
-1283
10
487
20
-1281.5
10
488
20
-1286.5
10
499
20
-1286.5
10
500.5
20
-1283
10
503.5
20
-1282
10
506
20
-1275.5
10
521
20
-1271.5
10
528.5
20
-1263
10
528
20
-1258.5
10
506
20
-1257.5
10
503.5
20
-1260
10
502.5
20
-1268
10
498
20
-1269.5
10
496.5
20
-1266
10
498
20
-1263.5
10
501.5
20
-1264
10
499.5
20
-1260
10
504.5
20
-1254
10
502
20
-1251.5
10
497
20
-1252.5
10
495.5
20
-1255
10
498.5
20
-1258
10
495
20
-1260.5
10
493.5
20
-1259
10
494.5
20
-1253
10
490.5
20
-1250
10
497
20
-1246.5
10
498.5
20
-1240
10
505.5
20
-1235
10
505.5
20
-1220
10
507.5
20
-1216
10
507.5
20
-1171
10
509.5
20
-1150
10
506.5
20
-1148
10
506.5
20
-1145
10
509.5
20
-1142
10
507.5
20
-1137
10
504.5
20
-1135
10
507
20
-1134.5
10
509.5
20
-1130
10
504.5
20
-1129
10
507.5
20
-1120
10
504.5
20
-1119
10
508.5
20
-1114
10
505.5
20
-1113
10
506.5
20
-1098
10
504
20
-1090.5
10
494
20
-1088.5
10
489
20
-1091.5
10
486
20
-1088.5
10
431
20
-1087.5
10
428.5
20
-1091
10
430.5
20
-1095
10
426
20
-1095.5
10
423
20
-1092.5
10
420
20
-1092.5
10
419
20
-1094.5
10
414.5
20
-1094
10
416.5
20
-1092
10
416
20
-1089.5
10
423
20
-1089.5
10
425
20
-1086.5
10
413
20
-1086.5
10
413.5
20
-1090
10
409
20
-1093.5
10
394
20
-1093.5
10
395
20
-1097.5
10
404.5
20
-1098
10
402
20
-1100.5
10
394
20
-1100.5
10
393
20
-1097.5
10
387.5
20
-1098
10
390
20
-1092.5
10
386
20
-1093.5
10
385
20
-1091.5
10
382
20
-1092.5
10
378
20
-1090.5
10
376
20
-1095.5
10
374
20
-1090.5
10
370
20
-1092.5
10
365
20
-1090.5
10
362
20
-1085.5
10
352
20
-1083.5
10
301
20
-1082.5
10
299
20
-1084.5
10
268
20
-1081.5
10
267
20
-1084.5
10
261.5
20
-1084
10
257.5
20
-1156
10
258.5
20
-1188
10
261.5
20
-1189
10
261.5
20
-1193
10
256.5
20
-1195
10
256.5
20
-1200
10
265.5
20
-1201
10
262.5
20
-1203
10
264.5
20
-1206
10
264.5
20
-1213
10
261.5
20
-1217
10
267
20
-1219.5
10
268.5
20
-1224
10
263
20
-1232.5
10
260
20
-1232.5
10
259.5
20
-1228
10
257.5
20
-1227
10
263
20
-1227.5
10
263.5
20
-1224
10
256.5
20
-1224
10
255
20
-1248.5
10
265
20
-1247.5
10
263.5
20
-1253
10
266.5
20
-1255
10
268
20
-1259.5
10
277
20
-1252.5
10
283
20
-1252.5
10
288
20
-1255.5
10
289
20
-1258.5
10
295
20
-1255.5
10
299.5
20
-1267
10
299
20
-1270.5
10
297
20
-1267.5
10
295.5
20
-1270
10
300
20
-1272.5
10
302
20
-1276.5
10
309.5
20
-1275
10
309
20
-1277.5
10
304
20
-1277.5
10
302
20
-1281.5
10
308
20
-1281.5
10
310
20
-1279.5
10
312
20
-1281.5
10
413
20
-1283.5
10
456
20
-1286.5
10
461
20
-1285.5
10
465
20
-1280.5
10
469
20
-1283.5
10
473
20
-1282.5
10
474
20
-1287.5
10
462.5
20
-1287
10
462.5
20
-1311
10
467
20
-1311.5
10
476.5
20
-1304
10
478
20
-1284.5
10
483
20
-1286.5
10
485.5
20
-1290
10
485.5
20
-1305
10
493
20
-1311.5
10
499
20
-1312.5
0
LWPOLYLINE
8
REFERENCE_STROKES
90
8
70
0
10
123
20
-1100.5
10
118
20
-1100.5
10
115.5
20
-1098
10
115.5
20
-1091
10
119
20
-1086.5
10
122
20
-1086.5
10
125.5
20
-1090
10
125.5
20
-1097
0
LWPOLYLINE
8
REFERENCE_STROKES
90
6
70
0
10
392.5
20
-1091
10
396
20
-1090.5
10
397
20
-1088.5
10
400
20
-1089.5
10
400.5
20
-1087
10
395
20
-1086.5
0
LWPOLYLINE
8
REFERENCE_STROKES
90
23
70
0
10
166.5
20
-1101
10
159
20
-1099.5
10
157
20
-1101.5
10
150
20
-1102.5
10
145
20
-1099.5
10
142
20
-1101.5
10
128
20
-1101.5
10
126.5
20
-1099
10
129.5
20
-1096
10
127.5
20
-1089
10
131
20
-1087.5
10
132.5
20
-1097
10
136
20
-1097.5
10
138.5
20
-1096
10
138.5
20
-1093
10
135.5
20
-1091
10
138
20
-1087.5
10
145
20
-1089.5
10
152
20
-1087.5
10
153.5
20
-1090
10
151.5
20
-1093
10
154
20
-1094.5
10
162
20
-1088.5
0
LWPOLYLINE
8
REFERENCE_STROKES
90
8
70
1
10
337.5
20
-1091
10
335
20
-1093.5
10
330
20
-1093.5
10
328
20
-1090.5
10
322.5
20
-1089
10
330
20
-1088.5
10
331
20
-1090.5
10
335
20
-1089.5
0
LWPOLYLINE
8
REFERENCE_STROKES
90
11
70
0
10
601.5
20
-1146
10
600
20
-1142.5
10
588
20
-1142.5
10
586.5
20
-1137
10
590.5
20
-1128
10
602.5
20
-1120
10
603.5
20
-1092
10
602
20
-1090.5
10
526
20
-1088.5
10
524.5
20
-1090
10
523
20
-1144.5
0
LWPOLYLINE
8
REFERENCE_STROKES
90
6
70
1
10
1099.5
20
-1098
10
1098
20
-1089.5
10
1053
20
-1088.5
10
1051.5
20
-1093
10
1053
20
-1098.5
10
1098
20
-1099.5
0
LWPOLYLINE
8
REFERENCE_STROKES
90
35
70
0
10
235.5
20
-1102
10
232
20
-1104.5
10
228
20
-1104.5
10
226
20
-1102.5
10
222
20
-1104.5
10
217
20
-1102.5
10
210
20
-1104.5
10
206.5
20
-1102
10
210.5
20
-1096
10
207
20
-1094.5
10
205.5
20
-1101
10
203
20
-1103.5
10
199
20
-1103.5
10
195.5
20
-1099
10
195.5
20
-1094
10
199
20
-1089.5
10
203
20
-1089.5
10
206
20
-1092.5
10
212
20
-1089.5
10
213.5
20
-1091
10
213.5
20
-1100
10
216
20
-1101.5
10
218
20
-1099.5
10
221.5
20
-1100
10
219.5
20
-1098
10
221.5
20
-1094
10
216.5
20
-1093
10
218
20
-1090.5
10
223
20
-1090.5
10
225
20
-1092.5
10
228
20
-1090.5
10
234
20
-1090.5
10
234.5
20
-1093
10
230.5
20
-1095
10
235.5
20
-1098
0
LWPOLYLINE
8
REFERENCE_STROKES
90
5
70
1
10
121
20
-1097.5
10
122.5
20
-1096
10
122
20
-1090.5
10
119.5
20
-1091
10
119.5
20
-1097
0
LWPOLYLINE
8
REFERENCE_STROKES
90
11
70
0
10
476
20
-1101.5
10
471
20
-1097.5
10
466.5
20
-1099
10
465.5
20
-1092
10
467
20
-1090.5
10
468.5
20
-1091
10
467.5
20
-1095
10
469
20
-1096.5
10
473
20
-1091.5
10
475.5
20
-1094
10
473.5
20
-1098
0
LWPOLYLINE
8
REFERENCE_STROKES
90
22
70
0
10
807
20
-1325.5
10
808.5
20
-1302
10
811
20
-1299.5
10
819
20
-1300.5
10
820.5
20
-1299
10
828.5
20
-1099
10
617
20
-1091.5
10
614.5
20
-1123
10
613
20
-1124.5
10
601
20
-1124.5
10
593.5
20
-1131
10
590.5
20
-1137
10
591
20
-1139.5
10
606
20
-1139.5
10
613.5
20
-1142
10
607.5
20
-1291
10
618
20
-1293.5
10
790
20
-1298.5
10
791.5
20
-1300
10
791.5
20
-1310
10
794.5
20
-1317
10
801
20
-1323.5
0
LWPOLYLINE
8
REFERENCE_STROKES
90
5
70
0
10
1212.5
20
-1104
10
1212
20
-1094.5
10
1171
20
-1092.5
10
1166.5
20
-1094
10
1167
20
-1102.5
0
LWPOLYLINE
8
REFERENCE_STROKES
90
4
70
1
10
202
20
-1099.5
10
202.5
20
-1094
10
201
20
-1093.5
10
199.5
20
-1097
0
LWPOLYLINE
8
REFERENCE_STROKES
90
6
70
0
10
331
20
-1111.5
10
326.5
20
-1107
10
327
20
-1100.5
10
331.5
20
-1104
10
330.5
20
-1106
10
334.5
20
-1108
0
LWPOLYLINE
8
REFERENCE_STROKES
90
3
70
0
10
370.5
20
-1105
10
373
20
-1100.5
10
380.5
20
-1102
0
LWPOLYLINE
8
REFERENCE_STROKES
90
6
70
0
10
1098.5
20
-1112
10
1098
20
-1103.5
10
1053
20
-1101.5
10
1051.5
20
-1103
10
1052
20
-1111.5
10
1089
20
-1113.5
0
LWPOLYLINE
8
REFERENCE_STROKES
90
9
70
1
10
343.5
20
-1118
10
349
20
-1111.5
10
354
20
-1111.5
10
355.5
20
-1108
10
358.5
20
-1107
10
359.5
20
-1113
10
352
20
-1117.5
10
349
20
-1116.5
10
346
20
-1119.5
0
LWPOLYLINE
8
REFERENCE_STROKES
90
6
70
0
10
1212.5
20
-1117
10
1211
20
-1107.5
10
1167
20
-1106.5
10
1165.5
20
-1112
10
1167
20
-1116.5
10
1206
20
-1118.5
0
LWPOLYLINE
8
REFERENCE_STROKES
90
9
70
0
10
393.5
20
-1119
10
397
20
-1118.5
10
399
20
-1114.5
10
402.5
20
-1114
10
401
20
-1107.5
10
416.5
20
-1114
10
411
20
-1115.5
10
406
20
-1113.5
10
398
20
-1120.5
0
LWPOLYLINE
8
REFERENCE_STROKES
90
6
70
1
10
1098.5
20
-1125
10
1097
20
-1116.5
10
1053
20
-1114.5
10
1050.5
20
-1117
10
1051
20
-1125.5
10
1097
20
-1126.5
0
LWPOLYLINE
8
REFERENCE_STROKES
90
5
70
0
10
1211.5
20
-1131
10
1211
20
-1121.5
10
1165.5
20
-1121
10
1166
20
-1130.5
10
1206
20
-1132.5
0
LWPOLYLINE
8
REFERENCE_STROKES
90
13
70
1
10
1443
20
-1349.5
10
1450
20
-1347.5
10
1457.5
20
-1340
10
1459.5
20
-1327
10
1462
20
-1324.5
10
1625
20
-1332.5
10
1643.5
20
-1332
10
1648
20
-1131.5
10
1443
20
-1122.5
10
1441.5
20
-1124
10
1436.5
20
-1323
10
1442.5
20
-1326
10
1441.5
20
-1348
0
LWPOLYLINE
8
REFERENCE_STROKES
90
4
70
0
10
386
20
-1130.5
10
382.5
20
-1129
10
385
20
-1123.5
10
388.5
20
-1126
0
LWPOLYLINE
8
REFERENCE_STROKES
90
6
70
1
10
366.5
20
-1131
10
360
20
-1129.5
10
354
20
-1131.5
10
353.5
20
-1129
10
357
20
-1126.5
10
365
20
-1128.5
0
LWPOLYLINE
8
REFERENCE_STROKES
90
9
70
0
10
1740
20
-1277.5
10
1676
20
-1275.5
10
1654.5
20
-1273
10
1657.5
20
-1130
10
1659
20
-1128.5
10
1682
20
-1127.5
10
1742
20
-1130.5
10
1745.5
20
-1133
10
1742.5
20
-1273
0
LWPOLYLINE
8
REFERENCE_STROKES
90
13
70
0
10
234
20
-1305.5
10
235.5
20
-1282
10
241.5
20
-1278
10
245.5
20
-1134
10
240
20
-1132.5
10
109
20
-1128.5
10
107.5
20
-1131
10
106.5
20
-1196
10
102.5
20
-1275
10
200
20
-1277.5
10
217
20
-1279.5
10
219.5
20
-1295
10
226
20
-1302.5
0
LWPOLYLINE
8
REFERENCE_STROKES
90
5
70
0
10
1097.5
20
-1140
10
1097
20
-1130.5
10
1056
20
-1128.5
10
1050.5
20
-1130
10
1052
20
-1139.5
0
LWPOLYLINE
8
REFERENCE_STROKES
90
7
70
0
10
1738
20
-1274.5
10
1742.5
20
-1136
10
1740
20
-1133.5
10
1690
20
-1131.5
10
1662
20
-1132.5
10
1660.5
20
-1140
10
1657.5
20
-1270
0
LWPOLYLINE
8
REFERENCE_STROKES
90
7
70
1
10
1211.5
20
-1144
10
1211
20
-1135.5
10
1167
20
-1133.5
10
1164.5
20
-1139
10
1164.5
20
-1143
10
1167
20
-1144.5
10
1210
20
-1145.5
0
LWPOLYLINE
8
REFERENCE_STROKES
90
22
70
1
10
2045.5
20
-1373
10
2046.5
20
-1352
10
2048
20
-1349.5
10
2053.5
20
-1348
10
2060.5
20
-1175
10
2060
20
-1147.5
10
1761
20
-1134.5
10
1753.5
20
-1136
10
1750.5
20
-1285
10
1747
20
-1287.5
10
1734
20
-1287.5
10
1725.5
20
-1297
10
1727
20
-1302.5
10
1741
20
-1302.5
10
1749.5
20
-1305
10
1749
20
-1337.5
10
2026
20
-1347.5
10
2029.5
20
-1351
10
2029.5
20
-1361
10
2032.5
20
-1367
10
2040
20
-1373.5
10
2044
20
-1374.5
0
LWPOLYLINE
8
REFERENCE_STROKES
90
4
70
0
10
323.5
20
-1139
10
321
20
-1141.5
10
309.5
20
-1140
10
316
20
-1136.5
0
LWPOLYLINE
8
REFERENCE_STROKES
90
6
70
1
10
1097.5
20
-1153
10
1096
20
-1143.5
10
1051
20
-1142.5
10
1049.5
20
-1145
10
1051
20
-1153.5
10
1096
20
-1154.5
0
LWPOLYLINE
8
REFERENCE_STROKES
90
6
70
0
10
382.5
20
-1146
10
377
20
-1148.5
10
375
20
-1146.5
10
370
20
-1148.5
10
367.5
20
-1144
10
374
20
-1143.5
0
LWPOLYLINE
8
REFERENCE_STROKES
90
8
70
1
10
2214
20
-1358.5
10
2066
20
-1353.5
10
2062.5
20
-1351
10
2069.5
20
-1148
10
2072
20
-1144.5
10
2219
20
-1149.5
10
2222.5
20
-1152
10
2216.5
20
-1356
0
LWPOLYLINE
8
REFERENCE_STROKES
90
6
70
1
10
1211.5
20
-1156
10
1211.5
20
-1150
10
1209
20
-1148.5
10
1164.5
20
-1148
10
1165
20
-1157.5
10
1210
20
-1159.5
0
LWPOLYLINE
8
REFERENCE_STROKES
90
7
70
0
10
2212
20
-1354.5
10
2218.5
20
-1154
10
2213
20
-1152.5
10
2074
20
-1148.5
10
2068.5
20
-1310
10
2065.5
20
-1348
10
2076
20
-1350.5
0
LWPOLYLINE
8
REFERENCE_STROKES
90
12
70
0
10
594
20
-1292.5
10
596.5
20
-1277
10
600.5
20
-1159
10
523
20
-1155.5
10
521.5
20
-1157
10
518.5
20
-1255
10
531
20
-1255.5
10
532.5
20
-1261
10
529.5
20
-1268
10
517.5
20
-1277
10
516.5
20
-1288
10
531
20
-1290.5
0
LWPOLYLINE
8
REFERENCE_STROKES
90
4
70
0
10
1096.5
20
-1167
10
1095
20
-1157.5
10
1049.5
20
-1157
10
1050
20
-1166.5
0
LWPOLYLINE
8
REFERENCE_STROKES
90
8
70
1
10
320
20
-1172.5
10
315.5
20
-1170
10
319
20
-1160.5
10
322.5
20
-1162
10
318.5
20
-1166
10
318.5
20
-1170
10
321
20
-1168.5
10
322.5
20
-1170
0
LWPOLYLINE
8
REFERENCE_STROKES
90
4
70
0
10
1210.5
20
-1172
10
1210
20
-1162.5
10
1164.5
20
-1162
10
1165
20
-1171.5
0
LWPOLYLINE
8
REFERENCE_STROKES
90
5
70
0
10
297.5
20
-1175
10
287
20
-1175.5
10
286.5
20
-1174
10
291
20
-1172.5
10
294
20
-1167.5
0
LWPOLYLINE
8
REFERENCE_STROKES
90
9
70
0
10
358
20
-1191.5
10
353
20
-1191.5
10
347.5
20
-1181
10
350.5
20
-1172
10
354
20
-1168.5
10
362
20
-1169.5
10
365.5
20
-1175
10
365.5
20
-1184
10
363.5
20
-1188
0
LWPOLYLINE
8
REFERENCE_STROKES
90
13
70
0
10
367
20
-1192.5
10
365.5
20
-1191
10
366.5
20
-1188
10
371.5
20
-1185
10
371.5
20
-1177
10
369
20
-1176.5
10
367.5
20
-1173
10
376
20
-1168.5
10
377.5
20
-1171
10
376.5
20
-1187
10
380
20
-1187.5
10
381.5
20
-1190
10
377
20
-1192.5
0
LWPOLYLINE
8
REFERENCE_STROKES
90
26
70
0
10
414.5
20
-1189
10
408
20
-1193.5
10
403
20
-1193.5
10
398
20
-1188.5
10
393
20
-1192.5
10
386
20
-1192.5
10
382.5
20
-1189
10
382.5
20
-1186
10
385
20
-1184.5
10
389
20
-1188.5
10
392.5
20
-1187
10
391
20
-1183.5
10
386.5
20
-1182
10
386.5
20
-1180
10
392
20
-1177.5
10
392.5
20
-1175
10
389
20
-1174.5
10
384
20
-1177.5
10
382.5
20
-1173
10
388
20
-1169.5
10
395
20
-1170.5
10
398
20
-1174.5
10
403
20
-1170.5
10
411
20
-1170.5
10
414.5
20
-1174
10
412.5
20
-1180
0
LWPOLYLINE
8
REFERENCE_STROKES
90
6
70
1
10
1096.5
20
-1178
10
1095
20
-1171.5
10
1057
20
-1169.5
10
1048.5
20
-1171
10
1050
20
-1180.5
10
1095
20
-1181.5
0
LWPOLYLINE
8
REFERENCE_STROKES
90
4
70
0
10
359
20
-1186.5
10
359.5
20
-1175
10
356
20
-1173.5
10
354.5
20
-1186
0
LWPOLYLINE
8
REFERENCE_STROKES
90
9
70
0
10
408
20
-1188.5
10
409.5
20
-1186
10
402.5
20
-1181
10
409.5
20
-1176
10
406
20
-1174.5
10
402
20
-1177.5
10
398
20
-1176.5
10
396.5
20
-1179
10
397.5
20
-1185
0
LWPOLYLINE
8
REFERENCE_STROKES
90
6
70
1
10
1210.5
20
-1184
10
1210
20
-1176.5
10
1165
20
-1174.5
10
1163.5
20
-1176
10
1165
20
-1185.5
10
1209
20
-1186.5
0
LWPOLYLINE
8
REFERENCE_STROKES
90
10
70
1
10
567.5
20
-1197
10
563
20
-1197.5
10
545
20
-1189.5
10
543.5
20
-1184
10
564
20
-1175.5
10
568
20
-1175.5
10
568.5
20
-1179
10
561.5
20
-1182
10
561.5
20
-1191
10
566
20
-1193.5
0
LWPOLYLINE
8
REFERENCE_STROKES
90
7
70
0
10
312
20
-1178.5
10
317
20
-1178.5
10
318
20
-1176.5
10
324.5
20
-1177
10
319
20
-1181.5
10
315
20
-1180.5
10
313
20
-1182.5
0
LWPOLYLINE
8
REFERENCE_STROKES
90
8
70
0
10
695
20
-1202.5
10
688
20
-1200.5
10
685.5
20
-1195
10
685.5
20
-1187
10
691
20
-1179.5
10
699
20
-1180.5
10
702.5
20
-1189
10
699.5
20
-1200
0
LWPOLYLINE
8
REFERENCE_STROKES
90
11
70
1
10
716
20
-1202.5
10
704
20
-1202.5
10
702.5
20
-1201
10
708.5
20
-1197
10
708.5
20
-1187
10
705
20
-1186.5
10
704.5
20
-1184
10
709
20
-1180.5
10
713.5
20
-1182
10
712.5
20
-1197
10
717.5
20
-1200
0
LWPOLYLINE
8
REFERENCE_STROKES
90
18
70
0
10
729
20
-1203.5
10
722
20
-1202.5
10
718.5
20
-1199
10
720
20
-1195.5
10
725
20
-1198.5
10
729.5
20
-1197
10
723.5
20
-1192
10
725
20
-1189.5
10
729
20
-1188.5
10
729.5
20
-1186
10
728
20
-1184.5
10
722
20
-1187.5
10
719.5
20
-1186
10
724
20
-1180.5
10
732
20
-1181.5
10
734.5
20
-1186
10
732.5
20
-1191
10
734.5
20
-1197
0
LWPOLYLINE
8
REFERENCE_STROKES
90
11
70
0
10
750
20
-1203.5
10
736.5
20
-1203
10
736.5
20
-1200
10
740.5
20
-1199
10
741.5
20
-1188
10
738
20
-1187.5
10
737.5
20
-1185
10
742
20
-1181.5
10
746.5
20
-1183
10
745.5
20
-1199
10
750
20
-1199.5
0
LWPOLYLINE
8
REFERENCE_STROKES
90
4
70
1
10
556.5
20
-1188
10
556
20
-1183.5
10
550.5
20
-1186
10
553
20
-1188.5
0
LWPOLYLINE
8
REFERENCE_STROKES
90
6
70
0
10
692
20
-1197.5
10
696.5
20
-1196
10
697.5
20
-1188
10
695
20
-1183.5
10
692
20
-1184.5
10
690.5
20
-1188
0
LWPOLYLINE
8
REFERENCE_STROKES
90
8
70
0
10
1676
20
-1208.5
10
1670
20
-1207.5
10
1666.5
20
-1203
10
1666.5
20
-1192
10
1672
20
-1185.5
10
1679
20
-1186.5
10
1682.5
20
-1192
10
1681.5
20
-1204
0
LWPOLYLINE
8
REFERENCE_STROKES
90
11
70
1
10
1696
20
-1209.5
10
1683.5
20
-1207
10
1689.5
20
-1203
10
1689.5
20
-1194
10
1686
20
-1193.5
10
1684.5
20
-1191
10
1690
20
-1186.5
10
1693
20
-1186.5
10
1694.5
20
-1189
10
1694.5
20
-1204
10
1698.5
20
-1207
0
LWPOLYLINE
8
REFERENCE_STROKES
90
16
70
0
10
1713
20
-1210.5
10
1700.5
20
-1208
10
1702.5
20
-1202
10
1710.5
20
-1195
10
1709
20
-1191.5
10
1706
20
-1191.5
10
1703
20
-1194.5
10
1700.5
20
-1193
10
1700.5
20
-1191
10
1707
20
-1186.5
10
1710
20
-1186.5
10
1714.5
20
-1191
10
1714.5
20
-1197
10
1706.5
20
-1204
10
1707
20
-1205.5
10
1714
20
-1206.5
0
LWPOLYLINE
8
REFERENCE_STROKES
90
8
70
0
10
153
20
-1210.5
10
146
20
-1209.5
10
142.5
20
-1204
10
143.5
20
-1192
10
149
20
-1187.5
10
155
20
-1188.5
10
158.5
20
-1193
10
158.5
20
-1204
0
LWPOLYLINE
8
REFERENCE_STROKES
90
17
70
0
10
1727
20
-1210.5
10
1721
20
-1210.5
10
1716.5
20
-1206
10
1718
20
-1202.5
10
1723
20
-1206.5
10
1726.5
20
-1205
10
1726.5
20
-1202
10
1721.5
20
-1199
10
1726.5
20
-1195
10
1726.5
20
-1193
10
1717.5
20
-1194
10
1718.5
20
-1189
10
1721
20
-1187.5
10
1727
20
-1187.5
10
1731.5
20
-1192
10
1730.5
20
-1200
10
1732.5
20
-1205
0
LWPOLYLINE
8
REFERENCE_STROKES
90
29
70
0
10
189.5
20
-1209
10
187
20
-1211.5
10
179
20
-1211.5
10
176
20
-1208.5
10
174
20
-1210.5
10
161
20
-1210.5
10
160.5
20
-1207
10
164.5
20
-1206
10
165.5
20
-1196
10
162
20
-1195.5
10
160.5
20
-1193
10
164
20
-1189.5
10
169
20
-1188.5
10
170.5
20
-1191
10
169.5
20
-1206
10
175
20
-1207.5
10
177
20
-1204.5
10
181
20
-1206.5
10
186.5
20
-1205
10
185
20
-1202.5
10
180.5
20
-1202
10
180.5
20
-1199
10
186.5
20
-1195
10
182
20
-1193.5
10
177
20
-1195.5
10
176.5
20
-1192
10
183
20
-1188.5
10
189
20
-1190.5
10
190.5
20
-1193
0
LWPOLYLINE
8
REFERENCE_STROKES
90
10
70
0
10
196
20
-1211.5
10
195.5
20
-1207
10
201.5
20
-1194
10
194
20
-1193.5
10
192.5
20
-1191
10
194
20
-1189.5
10
206
20
-1189.5
10
207.5
20
-1194
10
201.5
20
-1203
10
200.5
20
-1210
0
LWPOLYLINE
8
REFERENCE_STROKES
90
5
70
0
10
1676
20
-1203.5
10
1677.5
20
-1192
10
1676
20
-1189.5
10
1673
20
-1189.5
10
1671.5
20
-1202
0
LWPOLYLINE
8
REFERENCE_STROKES
90
5
70
1
10
305.5
20
-1195
10
307
20
-1191.5
10
315.5
20
-1192
10
314
20
-1195.5
10
308
20
-1196.5
0
LWPOLYLINE
8
REFERENCE_STROKES
90
5
70
0
10
152
20
-1205.5
10
154.5
20
-1196
10
153
20
-1192.5
10
149
20
-1192.5
10
147.5
20
-1204
0
LWPOLYLINE
8
REFERENCE_STROKES
90
19
70
0
10
567.5
20
-1210
10
563
20
-1215.5
10
560
20
-1215.5
10
559.5
20
-1212
10
562.5
20
-1209
10
562.5
20
-1205
10
559
20
-1203.5
10
554
20
-1210.5
10
551.5
20
-1204
10
548
20
-1203.5
10
546.5
20
-1209
10
549.5
20
-1213
10
546
20
-1214.5
10
541.5
20
-1207
10
545
20
-1199.5
10
556
20
-1200.5
10
558
20
-1198.5
10
562
20
-1198.5
10
567.5
20
-1204
0
LWPOLYLINE
8
REFERENCE_STROKES
90
6
70
1
10
328.5
20
-1205
10
320
20
-1206.5
10
316.5
20
-1202
10
319
20
-1200.5
10
321
20
-1202.5
10
327
20
-1201.5
0
LWPOLYLINE
8
REFERENCE_STROKES
90
7
70
1
10
486.5
20
-1210
10
478
20
-1212.5
10
466.5
20
-1211
10
467
20
-1208.5
10
472
20
-1207.5
10
480
20
-1210.5
10
484
20
-1207.5
0
LWPOLYLINE
8
REFERENCE_STROKES
90
8
70
0
10
1521
20
-1232.5
10
1513
20
-1231.5
10
1510.5
20
-1227
10
1510.5
20
-1216
10
1516
20
-1209.5
10
1522
20
-1210.5
10
1525.5
20
-1216
10
1525.5
20
-1227
0
LWPOLYLINE
8
REFERENCE_STROKES
90
22
70
1
10
1558.5
20
-1233
10
1557
20
-1234.5
10
1543
20
-1232.5
10
1529
20
-1233.5
10
1527.5
20
-1230
10
1532.5
20
-1228
10
1532.5
20
-1218
10
1528.5
20
-1215
10
1535
20
-1210.5
10
1537.5
20
-1212
10
1537.5
20
-1229
10
1543
20
-1231.5
10
1544.5
20
-1228
10
1553.5
20
-1220
10
1552
20
-1215.5
10
1547
20
-1218.5
10
1543.5
20
-1216
10
1548
20
-1211.5
10
1556
20
-1212.5
10
1558.5
20
-1220
10
1550.5
20
-1229
10
1557
20
-1230.5
0
LWPOLYLINE
8
REFERENCE_STROKES
90
15
70
0
10
1570
20
-1235.5
10
1565
20
-1235.5
10
1560.5
20
-1232
10
1562
20
-1227.5
10
1566
20
-1230.5
10
1570.5
20
-1229
10
1569
20
-1224.5
10
1560.5
20
-1224
10
1562
20
-1212.5
10
1574
20
-1212.5
10
1575.5
20
-1214
10
1574
20
-1216.5
10
1565.5
20
-1218
10
1575.5
20
-1225
10
1575.5
20
-1231
0
LWPOLYLINE
8
REFERENCE_STROKES
90
7
70
0
10
1519
20
-1228.5
10
1521.5
20
-1224
10
1521.5
20
-1217
10
1520
20
-1214.5
10
1517
20
-1214.5
10
1514.5
20
-1218
10
1514.5
20
-1225
0
LWPOLYLINE
8
REFERENCE_STROKES
90
6
70
0
10
1142.5
20
-1222
10
1142.5
20
-1218
10
1140
20
-1216.5
10
1118
20
-1216.5
10
1116.5
20
-1218
10
1118
20
-1221.5
0
LWPOLYLINE
8
REFERENCE_STROKES
90
20
70
0
10
566.5
20
-1229
10
560
20
-1234.5
10
558.5
20
-1231
10
561.5
20
-1228
10
561
20
-1222.5
10
558
20
-1222.5
10
555
20
-1228.5
10
551.5
20
-1227
10
550
20
-1222.5
10
547
20
-1222.5
10
545.5
20
-1227
10
548.5
20
-1232
10
546
20
-1233.5
10
541.5
20
-1229
10
541.5
20
-1222
10
546
20
-1217.5
10
553
20
-1219.5
10
556
20
-1217.5
10
562
20
-1217.5
10
566.5
20
-1223
0
LWPOLYLINE
8
REFERENCE_STROKES
90
7
70
1
10
304
20
-1226.5
10
302.5
20
-1225
10
303.5
20
-1223
10
300.5
20
-1221
10
305
20
-1218.5
10
309.5
20
-1224
10
306
20
-1223.5
0
LWPOLYLINE
8
REFERENCE_STROKES
90
5
70
0
10
317
20
-1231.5
10
316.5
20
-1224
10
320
20
-1221.5
10
319.5
20
-1225
10
321.5
20
-1227
0
LWPOLYLINE
8
REFERENCE_STROKES
90
9
70
0
10
429
20
-1232.5
10
426
20
-1232.5
10
425
20
-1229.5
10
420.5
20
-1230
10
424.5
20
-1227
10
423.5
20
-1224
10
427
20
-1221.5
10
430.5
20
-1223
10
427.5
20
-1228
0
LWPOLYLINE
8
REFERENCE_STROKES
90
8
70
0
10
1880
20
-1248.5
10
1874
20
-1246.5
10
1871.5
20
-1242
10
1871.5
20
-1231
10
1876
20
-1225.5
10
1882
20
-1225.5
10
1887.5
20
-1231
10
1886.5
20
-1243
0
LWPOLYLINE
8
REFERENCE_STROKES
90
23
70
1
10
1919.5
20
-1249
10
1917
20
-1250.5
10
1890
20
-1248.5
10
1888.5
20
-1246
10
1894.5
20
-1243
10
1894.5
20
-1233
10
1891
20
-1232.5
10
1890.5
20
-1230
10
1896
20
-1225.5
10
1899.5
20
-1228
10
1898.5
20
-1243
10
1904
20
-1246.5
10
1915.5
20
-1235
10
1913
20
-1230.5
10
1907
20
-1233.5
10
1905.5
20
-1232
10
1906.5
20
-1229
10
1911
20
-1226.5
10
1917
20
-1227.5
10
1919.5
20
-1230
10
1919.5
20
-1236
10
1912.5
20
-1245
10
1918
20
-1245.5
0
LWPOLYLINE
8
REFERENCE_STROKES
90
6
70
0
10
383.5
20
-1228
10
381
20
-1228.5
10
379
20
-1232.5
10
370.5
20
-1230
10
371
20
-1227.5
10
377
20
-1226.5
0
LWPOLYLINE
8
REFERENCE_STROKES
90
6
70
0
10
467
20
-1238.5
10
464.5
20
-1236
10
466
20
-1234.5
10
469
20
-1235.5
10
475
20
-1226.5
10
474.5
20
-1236
0
LWPOLYLINE
8
REFERENCE_STROKES
90
11
70
1
10
1936
20
-1250.5
10
1924
20
-1250.5
10
1921.5
20
-1248
10
1927.5
20
-1245
10
1927.5
20
-1235
10
1924
20
-1234.5
10
1923.5
20
-1231
10
1930
20
-1226.5
10
1932.5
20
-1229
10
1932.5
20
-1245
10
1937.5
20
-1248
0
LWPOLYLINE
8
REFERENCE_STROKES
90
6
70
0
10
1881
20
-1243.5
10
1882.5
20
-1232
10
1881
20
-1229.5
10
1878
20
-1229.5
10
1875.5
20
-1238
10
1876.5
20
-1242
0
LWPOLYLINE
8
REFERENCE_STROKES
90
5
70
1
10
406.5
20
-1239
10
411
20
-1231.5
10
415.5
20
-1233
10
411.5
20
-1235
10
410
20
-1239.5
0
LWPOLYLINE
8
REFERENCE_STROKES
90
4
70
0
10
344.5
20
-1239
10
346
20
-1234.5
10
354.5
20
-1235
10
352
20
-1238.5
0
LWPOLYLINE
8
REFERENCE_STROKES
90
8
70
0
10
2121
20
-1258.5
10
2115
20
-1257.5
10
2111.5
20
-1253
10
2111.5
20
-1241
10
2116
20
-1235.5
10
2122
20
-1235.5
10
2127.5
20
-1241
10
2126.5
20
-1254
0
LWPOLYLINE
8
REFERENCE_STROKES
90
19
70
0
10
2157.5
20
-1258
10
2148
20
-1259.5
10
2130
20
-1257.5
10
2129.5
20
-1255
10
2133.5
20
-1253
10
2133.5
20
-1243
10
2129.5
20
-1240
10
2136
20
-1235.5
10
2138
20
-1236.5
10
2139.5
20
-1241
10
2138.5
20
-1253
10
2147
20
-1254.5
10
2148.5
20
-1253
10
2148.5
20
-1244
10
2145
20
-1242.5
10
2144.5
20
-1240
10
2151
20
-1236.5
10
2153.5
20
-1239
10
2152.5
20
-1254
0
LWPOLYLINE
8
REFERENCE_STROKES
90
12
70
0
10
565.5
20
-1250
10
562
20
-1251.5
10
560
20
-1245.5
10
548
20
-1245.5
10
547.5
20
-1250
10
545
20
-1250.5
10
541.5
20
-1247
10
541.5
20
-1242
10
543
20
-1240.5
10
560
20
-1241.5
10
561.5
20
-1238
10
565
20
-1236.5
0
LWPOLYLINE
8
REFERENCE_STROKES
90
14
70
0
10
2168
20
-1260.5
10
2162
20
-1259.5
10
2159.5
20
-1257
10
2160
20
-1253.5
10
2167
20
-1255.5
10
2167.5
20
-1253
10
2163
20
-1252.5
10
2158.5
20
-1247
10
2159.5
20
-1240
10
2166
20
-1236.5
10
2172
20
-1238.5
10
2174.5
20
-1243
10
2174.5
20
-1252
10
2171.5
20
-1258
0
LWPOLYLINE
8
REFERENCE_STROKES
90
5
70
1
10
422
20
-1247.5
10
419.5
20
-1245
10
426
20
-1239.5
10
426.5
20
-1243
10
424.5
20
-1247
0
LWPOLYLINE
8
REFERENCE_STROKES
90
6
70
0
10
2118
20
-1253.5
10
2122.5
20
-1251
10
2122.5
20
-1242
10
2120
20
-1239.5
10
2116.5
20
-1242
10
2115.5
20
-1247
0
LWPOLYLINE
8
REFERENCE_STROKES
90
4
70
0
10
2168
20
-1248.5
10
2169.5
20
-1243
10
2165
20
-1241.5
10
2163.5
20
-1245
0
LWPOLYLINE
8
REFERENCE_STROKES
90
6
70
0
10
469.5
20
-1247
10
472
20
-1244.5
10
475
20
-1245.5
10
481
20
-1243.5
10
483.5
20
-1245
10
475
20
-1248.5
0
LWPOLYLINE
8
REFERENCE_STROKES
90
9
70
0
10
564.5
20
-1267
10
558
20
-1271.5
10
547
20
-1271.5
10
540.5
20
-1267
10
540.5
20
-1259
10
543
20
-1255.5
10
548
20
-1253.5
10
559
20
-1254.5
10
564.5
20
-1259
0
LWPOLYLINE
8
REFERENCE_STROKES
90
8
70
1
10
389.5
20
-1265
10
383
20
-1265.5
10
382
20
-1262.5
10
379
20
-1262.5
10
375.5
20
-1259
10
380
20
-1254.5
10
382.5
20
-1261
10
389
20
-1261.5
0
LWPOLYLINE
8
REFERENCE_STROKES
90
7
70
0
10
456.5
20
-1263
10
455
20
-1264.5
10
448.5
20
-1264
10
450
20
-1259.5
10
454.5
20
-1260
10
454
20
-1257.5
10
456.5
20
-1258
0
LWPOLYLINE
8
REFERENCE_STROKES
90
7
70
0
10
323.5
20
-1265
10
316
20
-1267.5
10
313.5
20
-1265
10
317.5
20
-1262
10
313.5
20
-1260
10
315
20
-1258.5
10
321
20
-1259.5
0
LWPOLYLINE
8
REFERENCE_STROKES
90
7
70
0
10
560.5
20
-1264
10
560.5
20
-1262
10
555
20
-1258.5
10
544.5
20
-1260
10
544.5
20
-1265
10
549
20
-1267.5
10
555
20
-1267.5
0
LWPOLYLINE
8
REFERENCE_STROKES
90
6
70
0
10
323.5
20
-1270
10
326
20
-1265.5
10
333.5
20
-1264
10
333
20
-1266.5
10
327.5
20
-1267
10
328
20
-1270.5
0
LWPOLYLINE
8
REFERENCE_STROKES
90
4
70
0
10
315
20
-1274.5
10
309.5
20
-1270
10
311
20
-1267.5
10
316.5
20
-1270
0
LWPOLYLINE
8
REFERENCE_STROKES
90
4
70
0
10
210
20
-1288.5
10
214.5
20
-1287
10
214
20
-1282.5
10
208.5
20
-1284
0
LWPOLYLINE
8
REFERENCE_STROKES
90
10
70
0
10
1736.5
20
-1336
10
1737.5
20
-1307
10
1736
20
-1305.5
10
1723
20
-1305.5
10
1720.5
20
-1303
10
1721.5
20
-1297
10
1729
20
-1285.5
10
1657.5
20
-1283
10
1655.5
20
-1325
10
1657
20
-1333.5
0
LWPOLYLINE
8
REFERENCE_STROKES
90
10
70
0
10
461
20
-1353.5
10
459.5
20
-1352
10
461
20
-1346.5
10
474.5
20
-1345
10
476.5
20
-1328
10
482
20
-1326.5
10
484.5
20
-1330
10
483.5
20
-1345
10
481.5
20
-1349
10
473
20
-1354.5
0
LWPOLYLINE
8
REFERENCE_STROKES
90
8
70
0
10
278.5
20
-1346
10
269
20
-1348.5
10
265
20
-1351.5
10
246
20
-1344.5
10
244.5
20
-1341
10
267
20
-1336.5
10
270
20
-1340.5
10
278
20
-1340.5
0
LWPOLYLINE
8
REFERENCE_STROKES
90
5
70
0
10
311.5
20
-1348
10
292
20
-1348.5
10
290.5
20
-1344
10
293
20
-1340.5
10
311
20
-1341.5
0
LWPOLYLINE
8
REFERENCE_STROKES
90
6
70
0
10
346.5
20
-1348
10
345
20
-1349.5
10
325
20
-1349.5
10
324.5
20
-1343
10
326
20
-1341.5
10
345
20
-1342.5
0
LWPOLYLINE
8
REFERENCE_STROKES
90
6
70
0
10
380.5
20
-1349
10
379
20
-1350.5
10
360
20
-1350.5
10
358.5
20
-1344
10
360
20
-1342.5
10
379
20
-1342.5
0
LWPOLYLINE
8
REFERENCE_STROKES
90
6
70
0
10
414.5
20
-1350
10
413
20
-1351.5
10
393
20
-1351.5
10
391.5
20
-1349
10
393
20
-1343.5
10
413
20
-1344.5
0
LWPOLYLINE
8
REFERENCE_STROKES
90
6
70
0
10
448.5
20
-1351
10
446
20
-1353.5
10
427
20
-1352.5
10
426.5
20
-1346
10
428
20
-1344.5
10
447
20
-1345.5
0
LWPOLYLINE
8
REFERENCE_BASE
90
163
70
0
10
2224.5
20
-1367
10
2200
20
-1367.5
10
2050
20
-1361.5
10
2049.5
20
-1375
10
2046
20
-1379.5
10
2033
20
-1373.5
10
2026.5
20
-1362
10
2022
20
-1359.5
10
1748
20
-1350.5
10
1463
20
-1337.5
10
1460.5
20
-1343
10
1453
20
-1350.5
10
1440
20
-1353.5
10
1438.5
20
-1352
10
1438.5
20
-1337
10
1437
20
-1335.5
10
1427
20
-1336.5
10
1423.5
20
-1333
10
1426.5
20
-1238
10
1425
20
-1236.5
10
1188
20
-1227.5
10
1186.5
20
-1244
10
1184
20
-1245.5
10
1173
20
-1241.5
10
1166
20
-1231.5
10
1157
20
-1240.5
10
1144
20
-1243.5
10
1142.5
20
-1242
10
1143.5
20
-1227
10
1142
20
-1225.5
10
1117
20
-1225.5
10
1116.5
20
-1240
10
1114
20
-1242.5
10
1101
20
-1237.5
10
1095
20
-1228.5
10
1085
20
-1238.5
10
1073
20
-1240.5
10
1071.5
20
-1238
10
1072.5
20
-1224
10
1069
20
-1222.5
10
916
20
-1218.5
10
838
20
-1214.5
10
835.5
20
-1216
10
832.5
20
-1309
10
830
20
-1312.5
10
814
20
-1311.5
10
811.5
20
-1314
10
811.5
20
-1328
10
810
20
-1329.5
10
797
20
-1325.5
10
787
20
-1310.5
10
580
20
-1304.5
10
505
20
-1300.5
10
502
20
-1316.5
10
494
20
-1315.5
10
485
20
-1308.5
10
477
20
-1308.5
10
468
20
-1314.5
10
460
20
-1315.5
10
459.5
20
-1300
10
457
20
-1298.5
10
350
20
-1296.5
10
239
20
-1292.5
10
238.5
20
-1307
10
236
20
-1309.5
10
232
20
-1309.5
10
225
20
-1306.5
10
217.5
20
-1299
10
215.5
20
-1292
10
211
20
-1290.5
10
93
20
-1287.5
10
90.5
20
-1285
10
98.5
20
-1075
10
52
20
-1073.5
10
49.5
20
-1072
10
61.5
20
-812
10
60
20
-810.5
10
46
20
-810.5
10
43.5
20
-808
10
46.5
20
-798
10
54.5
20
-791
10
46.5
20
-779
10
45.5
20
-772
10
47
20
-770.5
10
63
20
-770.5
10
63.5
20
-764
10
68
20
-761.5
10
112
20
-763.5
10
113.5
20
-761
10
121.5
20
-554
10
124
20
-552.5
10
396
20
-562.5
10
404
20
-551.5
10
413
20
-547.5
10
419
20
-547.5
10
420.5
20
-549
10
420.5
20
-563
10
435
20
-564.5
10
1058
20
-586.5
10
1059.5
20
-585
10
1063.5
20
-468
10
1058
20
-465.5
10
1051.5
20
-459
10
1048.5
20
-446
10
1050
20
-444.5
10
1063
20
-445.5
10
1064.5
20
-444
10
1076.5
20
-104
10
1082
20
-101.5
10
1129
20
-104.5
10
1468
20
-114.5
10
1469.5
20
-116
10
1462.5
20
-293
10
1469
20
-295.5
10
1474.5
20
-301
10
1477.5
20
-308
10
1477.5
20
-315
10
1476
20
-316.5
10
1461.5
20
-317
10
1458.5
20
-400
10
1473
20
-401.5
10
1474.5
20
-405
10
1470.5
20
-415
10
1456.5
20
-426
10
1451
20
-598.5
10
1452.5
20
-598
10
1452.5
20
-587
10
1458
20
-585.5
10
1467
20
-589.5
10
1472.5
20
-595
10
1475
20
-601.5
10
1651
20
-607.5
10
1651.5
20
-595
10
1657
20
-592.5
10
1667
20
-596.5
10
1673.5
20
-603
10
1675
20
-608.5
10
2036
20
-621.5
10
2057
20
-621.5
10
2059.5
20
-616
10
2066
20
-609.5
10
2079
20
-606.5
10
2080.5
20
-608
10
2081
20
-622.5
10
2248
20
-628.5
10
2250.5
20
-631
10
2243.5
20
-840
10
2245
20
-841.5
10
2286
20
-842.5
10
2288
20
-851.5
10
2305
20
-852.5
10
2307.5
20
-855
10
2305.5
20
-863
10
2301.5
20
-869
10
2294.5
20
-874
10
2303.5
20
-882
10
2306.5
20
-894
10
2304
20
-896.5
10
2287
20
-895.5
10
2285.5
20
-897
10
2277.5
20
-1154
10
2276
20
-1155.5
10
2231.5
20
-1154
0
LWPOLYLINE
8
REFERENCE_BASE
90
156
70
0
10
2283.5
20
-850
10
2283.5
20
-847
10
2281
20
-845.5
10
2256
20
-845.5
10
2240.5
20
-843
10
2246.5
20
-633
10
2236
20
-631.5
10
2081
20
-626.5
10
2079.5
20
-630
10
2084
20
-631.5
10
2086.5
20
-635
10
2079.5
20
-836
10
2077
20
-838.5
10
1890
20
-831.5
10
1886.5
20
-829
10
1889.5
20
-728
10
1884.5
20
-728
10
1883.5
20
-752
10
1881
20
-754.5
10
1833
20
-752.5
10
1830.5
20
-750
10
1831.5
20
-708
10
1834
20
-698.5
10
1882
20
-699.5
10
1886
20
-704.5
10
1890.5
20
-703
10
1890
20
-689.5
10
1886
20
-689.5
10
1883
20
-694.5
10
1841
20
-693.5
10
1832.5
20
-691
10
1834.5
20
-626
10
1836
20
-623.5
10
1886
20
-624.5
10
1887.5
20
-626
10
1887
20
-666.5
10
1891.5
20
-666
10
1892.5
20
-627
10
1896
20
-624.5
10
2054
20
-630.5
10
2055
20
-625.5
10
1700
20
-612.5
10
1675.5
20
-613
10
1677
20
-617.5
10
1827
20
-622.5
10
1829.5
20
-625
10
1823.5
20
-798
10
1825
20
-799.5
10
1829.5
20
-798
10
1829.5
20
-767
10
1832
20
-757.5
10
1882
20
-759.5
10
1883.5
20
-761
10
1881.5
20
-828
10
1880
20
-830.5
10
1830
20
-828.5
10
1826
20
-822.5
10
1822.5
20
-824
10
1821
20
-828.5
10
1564
20
-818.5
10
1561.5
20
-815
10
1563.5
20
-778
10
1637.5
20
-619
10
1640
20
-616.5
10
1650
20
-616.5
10
1651.5
20
-612
10
1476
20
-605.5
10
1476
20
-610.5
10
1609
20
-614.5
10
1631.5
20
-617
10
1631.5
20
-621
10
1557.5
20
-780
10
1556.5
20
-816
10
1555
20
-817.5
10
1527
20
-817.5
10
1359
20
-810.5
10
1356.5
20
-808
10
1361.5
20
-670
10
1356.5
20
-669
10
1355.5
20
-701
10
1353
20
-703.5
10
1237
20
-699.5
10
1234.5
20
-697
10
1236.5
20
-639
10
1238
20
-636.5
10
1355
20
-640.5
10
1357.5
20
-646
10
1361
20
-646.5
10
1362.5
20
-637
10
1361
20
-635.5
10
1351
20
-635.5
10
1348.5
20
-632
10
1349.5
20
-608
10
1351
20
-606.5
10
1450
20
-609.5
10
1451.5
20
-605
10
1447.5
20
-603
10
1447.5
20
-574
10
1453.5
20
-425
10
1452
20
-423.5
10
1448.5
20
-425
10
1443.5
20
-577
10
1441
20
-603.5
10
1379
20
-602.5
10
1238.5
20
-596
10
1245.5
20
-396
10
1247
20
-394.5
10
1421.5
20
-399
10
1421
20
-394.5
10
1249
20
-389.5
10
1245.5
20
-386
10
1248.5
20
-316
10
1250
20
-314.5
10
1425.5
20
-319
10
1424
20
-314.5
10
1251
20
-309.5
10
1249.5
20
-308
10
1255.5
20
-121
10
1257
20
-117.5
10
1261
20
-116.5
10
1458
20
-122.5
10
1460.5
20
-125
10
1454.5
20
-269
10
1454.5
20
-292
10
1458
20
-292.5
10
1459.5
20
-288
10
1465.5
20
-119
10
1463
20
-117.5
10
1080.5
20
-106
10
1067.5
20
-436
10
1069
20
-445.5
10
1072.5
20
-445
10
1078.5
20
-268
10
1080
20
-265.5
10
1136.5
20
-266
10
1136
20
-261.5
10
1088
20
-260.5
10
1079.5
20
-258
10
1084.5
20
-113
10
1086
20
-111.5
10
1231
20
-115.5
10
1249
20
-116.5
10
1251.5
20
-120
10
1245.5
20
-264
10
1244
20
-265.5
10
1182
20
-263.5
10
1180.5
20
-265
10
1182
20
-268.5
10
1243
20
-270.5
10
1245.5
20
-273
10
1235.5
20
-554
10
1231.5
20
-612
10
1225.5
20
-809
10
1227
20
-810.5
10
2155
20
-845.5
10
2224
20
-849.5
0
LWPOLYLINE
8
REFERENCE_BASE
90
19
70
0
10
1242.5
20
-261
10
1247
20
-120.5
10
1096
20
-114.5
10
1087.5
20
-116
10
1082.5
20
-250
10
1084
20
-256.5
10
1139
20
-258.5
10
1140.5
20
-260
10
1141
20
-282.5
10
1147
20
-281.5
10
1154.5
20
-274
10
1156.5
20
-266
10
1160
20
-264.5
10
1162.5
20
-274
10
1172
20
-283.5
10
1176.5
20
-283
10
1177.5
20
-261
10
1180
20
-259.5
10
1238
20
-262.5
0
LWPOLYLINE
8
REFERENCE_BASE
90
17
70
0
10
1473.5
20
-312
10
1473.5
20
-308
10
1469
20
-300.5
10
1465
20
-297.5
10
1450.5
20
-294
10
1455.5
20
-185
10
1456
20
-126.5
10
1261
20
-120.5
10
1259.5
20
-122
10
1253
20
-305.5
10
1429
20
-311.5
10
1429.5
20
-323
10
1431.5
20
-327
10
1442
20
-335.5
10
1444.5
20
-335
10
1445.5
20
-314
10
1447
20
-312.5
0
LWPOLYLINE
8
REFERENCE_BASE
90
148
70
0
10
2302.5
20
-891
10
2300.5
20
-885
10
2294
20
-877.5
10
2286
20
-875.5
10
2283.5
20
-873
10
2296
20
-868.5
10
2300.5
20
-864
10
2302.5
20
-857
10
2285
20
-854.5
10
2247
20
-852.5
10
2245.5
20
-854
10
2244.5
20
-889
10
2243
20
-890.5
10
2174
20
-887.5
10
2171.5
20
-877
10
2173.5
20
-852
10
2170
20
-849.5
10
2080
20
-847.5
10
1223
20
-813.5
10
1221.5
20
-801
10
1241.5
20
-296
10
1241.5
20
-275
10
1238
20
-273.5
10
1183
20
-271.5
10
1180.5
20
-273
10
1180.5
20
-285
10
1177
20
-288.5
10
1168
20
-285.5
10
1159
20
-274.5
10
1151
20
-283.5
10
1143
20
-286.5
10
1137
20
-286.5
10
1136
20
-270.5
10
1082.5
20
-269
10
1076.5
20
-446
10
1074
20
-449.5
10
1052.5
20
-449
10
1053.5
20
-454
10
1058
20
-460.5
10
1075.5
20
-468
10
1063.5
20
-797
10
1061
20
-808.5
10
876
20
-802.5
10
842
20
-799.5
10
197
20
-778.5
10
195.5
20
-780
10
194.5
20
-813
10
193
20
-814.5
10
125
20
-812.5
10
123.5
20
-811
10
125.5
20
-780
10
124
20
-776.5
10
51
20
-774.5
10
51.5
20
-781
10
57
20
-786.5
10
65.5
20
-791
10
56
20
-794.5
10
48.5
20
-804
10
49
20
-806.5
10
70
20
-807.5
10
73.5
20
-810
10
72
20
-849.5
10
108
20
-850.5
10
109.5
20
-817
10
111
20
-815.5
10
192
20
-818.5
10
194.5
20
-827
10
192.5
20
-853
10
194
20
-854.5
10
222
20
-854.5
10
227.5
20
-857
10
217.5
20
-1065
10
220
20
-1067.5
10
828
20
-1086.5
10
830.5
20
-1072
10
839.5
20
-858
10
848
20
-856.5
10
1009
20
-861.5
10
1010.5
20
-863
10
1010
20
-906.5
10
1046
20
-907.5
10
1058.5
20
-910
10
1052.5
20
-1070
10
1054
20
-1071.5
10
1102
20
-1072.5
10
1103.5
20
-1074
10
1099.5
20
-1184
10
1098
20
-1185.5
10
1049
20
-1183.5
10
1047.5
20
-1185
10
1046.5
20
-1209
10
1048
20
-1210.5
10
1075
20
-1211.5
10
1076.5
20
-1213
10
1076
20
-1236.5
10
1083
20
-1235.5
10
1087
20
-1232.5
10
1091.5
20
-1226
10
1092.5
20
-1220
10
1096
20
-1218.5
10
1099.5
20
-1230
10
1106
20
-1236.5
10
1112.5
20
-1238
10
1113.5
20
-1214
10
1115
20
-1212.5
10
1144
20
-1213.5
10
1146.5
20
-1216
10
1147
20
-1239.5
10
1156
20
-1236.5
10
1160.5
20
-1232
10
1163.5
20
-1222
10
1166
20
-1221.5
10
1170.5
20
-1233
10
1177
20
-1239.5
10
1183
20
-1240.5
10
1183.5
20
-1220
10
1186
20
-1215.5
10
1208.5
20
-1216
10
1209
20
-1190.5
10
1172
20
-1189.5
10
1159.5
20
-1187
10
1163.5
20
-1077
10
1165
20
-1075.5
10
1209
20
-1077.5
10
1213.5
20
-1076
10
1218.5
20
-917
10
1221
20
-914.5
10
1269
20
-916.5
10
1270.5
20
-876
10
1274
20
-872.5
10
1447
20
-878.5
10
1449.5
20
-881
10
1443
20
-1110.5
10
2108
20
-1137.5
10
2109.5
20
-1135
10
2115.5
20
-927
10
2118
20
-924.5
10
2156
20
-926.5
10
2157.5
20
-925
10
2157.5
20
-893
10
2160
20
-890.5
10
2242
20
-893.5
10
2244.5
20
-896
10
2243.5
20
-929
10
2272
20
-930.5
10
2273.5
20
-893
10
2277
20
-890.5
10
2295
20
-892.5
0
LWPOLYLINE
8
REFERENCE_BASE
90
10
70
0
10
1446
20
-400.5
10
1454.5
20
-400
10
1457.5
20
-317
10
1456
20
-315.5
10
1449.5
20
-317
10
1449.5
20
-320
10
1452.5
20
-322
10
1450.5
20
-390
10
1449.5
20
-394
10
1445.5
20
-396
0
LWPOLYLINE
8
REFERENCE_BASE
90
14
70
1
10
1447.5
20
-385
10
1448.5
20
-339
10
1444
20
-339.5
10
1434
20
-335.5
10
1425
20
-322.5
10
1253
20
-317.5
10
1251.5
20
-319
10
1250
20
-385.5
10
1422
20
-391.5
10
1424.5
20
-386
10
1432
20
-378.5
10
1440
20
-375.5
10
1445.5
20
-378
10
1445.5
20
-385
0
LWPOLYLINE
8
REFERENCE_BASE
90
15
70
0
10
1438
20
-600.5
10
1445.5
20
-421
10
1461
20
-418.5
10
1468.5
20
-411
10
1469.5
20
-405
10
1444
20
-404.5
10
1441.5
20
-402
10
1442
20
-379.5
10
1434
20
-381.5
10
1428.5
20
-387
10
1423
20
-403.5
10
1250
20
-397.5
10
1248.5
20
-399
10
1241.5
20
-593
10
1243
20
-594.5
0
LWPOLYLINE
8
REFERENCE_BASE
90
67
70
0
10
1071.5
20
-470
10
1069
20
-468.5
10
1066.5
20
-470
10
1063.5
20
-567
10
1061
20
-590.5
10
445
20
-567.5
10
419.5
20
-568
10
421
20
-572.5
10
525
20
-575.5
10
536.5
20
-578
10
534
20
-690.5
10
537
20
-690.5
10
538.5
20
-687
10
541.5
20
-579
10
544
20
-576.5
10
603
20
-578.5
10
605.5
20
-581
10
602
20
-691.5
10
606.5
20
-691
10
609.5
20
-591
10
612
20
-579.5
10
865
20
-588.5
10
867.5
20
-592
10
860.5
20
-789
10
858
20
-792.5
10
609
20
-784.5
10
603.5
20
-782
10
604.5
20
-753
10
603
20
-751.5
10
599.5
20
-752
10
598.5
20
-780
10
596
20
-783.5
10
549
20
-782.5
10
534.5
20
-780
10
537
20
-723.5
10
597
20
-724.5
10
601
20
-728.5
10
604
20
-728.5
10
605.5
20
-727
10
605.5
20
-716
10
602
20
-714.5
10
598
20
-719.5
10
540
20
-717.5
10
536
20
-713.5
10
533
20
-713.5
10
531.5
20
-715
10
529.5
20
-779
10
528
20
-780.5
10
273
20
-772.5
10
271.5
20
-771
10
271.5
20
-744
10
279.5
20
-568
10
284
20
-566.5
10
394
20
-571.5
10
395.5
20
-567
10
391
20
-565.5
10
127
20
-556.5
10
125.5
20
-558
10
116.5
20
-765
10
112
20
-767.5
10
68
20
-765.5
10
67.5
20
-770
10
71
20
-771.5
10
180
20
-775.5
10
352
20
-779.5
10
1058
20
-804.5
10
1059.5
20
-803
0
LWPOLYLINE
8
REFERENCE_BASE
90
23
70
0
10
525.5
20
-777
10
528.5
20
-711
10
530
20
-709.5
10
552
20
-710.5
10
553.5
20
-709
10
550.5
20
-701
10
546
20
-696.5
10
538
20
-693.5
10
529.5
20
-693
10
533.5
20
-581
10
532
20
-579.5
10
417
20
-575.5
10
416
20
-551.5
10
408
20
-553.5
10
402.5
20
-559
10
399.5
20
-565
10
399.5
20
-572
10
397
20
-574.5
10
291
20
-570.5
10
282.5
20
-572
10
279.5
20
-676
10
274.5
20
-760
10
276
20
-769.5
0
LWPOLYLINE
8
REFERENCE_BASE
90
12
70
0
10
583
20
-715.5
10
582.5
20
-707
10
584.5
20
-702
10
598.5
20
-691
10
601.5
20
-583
10
600
20
-581.5
10
546
20
-580.5
10
544.5
20
-584
10
541.5
20
-690
10
553.5
20
-699
10
556.5
20
-705
10
555
20
-714.5
0
LWPOLYLINE
8
REFERENCE_BASE
90
21
70
0
10
856.5
20
-789
10
863.5
20
-618
10
863
20
-591.5
10
623
20
-582.5
10
613.5
20
-584
10
610.5
20
-693
10
596
20
-696.5
10
588.5
20
-703
10
585.5
20
-709
10
587
20
-711.5
10
608
20
-711.5
10
609.5
20
-714
10
608.5
20
-730
10
607
20
-731.5
10
587
20
-731.5
10
585.5
20
-733
10
591
20
-743.5
10
598
20
-747.5
10
607.5
20
-749
10
606.5
20
-779
10
608
20
-780.5
0
LWPOLYLINE
8
REFERENCE_BASE
90
8
70
0
10
1053
20
-799.5
10
867
20
-793.5
10
865.5
20
-792
10
872.5
20
-590
10
874
20
-588.5
10
1060
20
-595.5
10
1061.5
20
-597
10
1055.5
20
-788
0
LWPOLYLINE
8
REFERENCE_BASE
90
24
70
0
10
1552
20
-814.5
10
1553.5
20
-813
10
1554.5
20
-777
10
1627.5
20
-620
10
1626
20
-618.5
10
1472
20
-613.5
10
1470.5
20
-599
10
1466
20
-593.5
10
1459
20
-589.5
10
1455.5
20
-590
10
1454.5
20
-611
10
1451
20
-613.5
10
1353
20
-609.5
10
1351.5
20
-631
10
1365.5
20
-634
10
1365.5
20
-648
10
1364
20
-649.5
10
1341
20
-648.5
10
1340.5
20
-651
10
1347
20
-661.5
10
1355
20
-665.5
10
1364.5
20
-667
10
1360.5
20
-806
10
1362
20
-807.5
0
LWPOLYLINE
8
REFERENCE_BASE
90
8
70
0
10
1050
20
-796.5
10
1051.5
20
-795
10
1058.5
20
-600
10
1057
20
-598.5
10
877
20
-592.5
10
875.5
20
-596
10
868.5
20
-788
10
874
20
-790.5
0
LWPOLYLINE
8
REFERENCE_BASE
90
18
70
0
10
1843
20
-820.5
10
1842.5
20
-814
10
1835
20
-805.5
10
1820.5
20
-801
10
1825.5
20
-626
10
1673
20
-620.5
10
1670.5
20
-606
10
1663
20
-598.5
10
1657
20
-596.5
10
1655.5
20
-598
10
1654.5
20
-619
10
1652
20
-620.5
10
1642
20
-619.5
10
1566.5
20
-780
10
1565.5
20
-814
10
1568
20
-815.5
10
1819
20
-824.5
10
1821
20
-819.5
0
LWPOLYLINE
8
REFERENCE_BASE
90
8
70
0
10
1343.5
20
-633
10
1342
20
-634.5
10
1239
20
-631.5
10
1236.5
20
-627
10
1237.5
20
-605
10
1239
20
-602.5
10
1342
20
-605.5
10
1344.5
20
-608
0
LWPOLYLINE
8
REFERENCE_BASE
90
25
70
0
10
2075
20
-834.5
10
2076.5
20
-833
10
2082.5
20
-646
10
2082.5
20
-636
10
2076.5
20
-633
10
2077.5
20
-612
10
2076
20
-610.5
10
2071
20
-611.5
10
2063.5
20
-617
10
2057
20
-633.5
10
1897
20
-628.5
10
1895.5
20
-630
10
1894.5
20
-669
10
1880
20
-671.5
10
1871.5
20
-681
10
1872
20
-685.5
10
1886
20
-685.5
10
1894.5
20
-688
10
1893.5
20
-707
10
1869.5
20
-708
10
1871.5
20
-715
10
1878
20
-721.5
10
1892.5
20
-726
10
1889.5
20
-826
10
1891
20
-827.5
0
LWPOLYLINE
8
REFERENCE_BASE
90
11
70
0
10
1881
20
-691.5
10
1881
20
-688.5
10
1869
20
-688.5
10
1867.5
20
-682
10
1871.5
20
-674
10
1883.5
20
-665
10
1884.5
20
-629
10
1883
20
-627.5
10
1839
20
-626.5
10
1837.5
20
-628
10
1836.5
20
-689
0
LWPOLYLINE
8
REFERENCE_BASE
90
12
70
0
10
1351.5
20
-700
10
1352.5
20
-668
10
1341.5
20
-661
10
1337.5
20
-653
10
1337.5
20
-647
10
1339
20
-645.5
10
1353
20
-645.5
10
1353
20
-643.5
10
1241
20
-639.5
10
1239.5
20
-641
10
1237.5
20
-691
10
1239
20
-696.5
0
LWPOLYLINE
8
REFERENCE_BASE
90
9
70
0
10
1880
20
-750.5
10
1881.5
20
-729
10
1869.5
20
-719
10
1866.5
20
-713
10
1866.5
20
-705
10
1880
20
-704.5
10
1880.5
20
-703
10
1836
20
-701.5
10
1834.5
20
-749
0
LWPOLYLINE
8
REFERENCE_BASE
90
4
70
0
10
596.5
20
-716
10
596
20
-714.5
10
586.5
20
-715
10
587
20
-716.5
0
LWPOLYLINE
8
REFERENCE_BASE
90
10
70
0
10
593
20
-780.5
10
595.5
20
-774
10
595.5
20
-750
10
585.5
20
-743
10
581.5
20
-731
10
583.5
20
-728
10
541
20
-725.5
10
539.5
20
-727
10
537.5
20
-777
10
539
20
-778.5
0
LWPOLYLINE
8
REFERENCE_BASE
90
12
70
0
10
1877
20
-826.5
10
1878.5
20
-825
10
1879.5
20
-763
10
1835
20
-760.5
10
1833.5
20
-762
10
1832.5
20
-801
10
1840
20
-804.5
10
1845.5
20
-811
10
1847.5
20
-821
10
1846
20
-823.5
10
1833
20
-823.5
10
1832.5
20
-825
0
LWPOLYLINE
8
REFERENCE_BASE
90
4
70
0
10
137
20
-809.5
10
138.5
20
-778
10
129
20
-776.5
10
127.5
20
-809
0
LWPOLYLINE
8
REFERENCE_BASE
90
6
70
0
10
149
20
-810.5
10
150.5
20
-809
10
152.5
20
-779
10
151
20
-777.5
10
142
20
-777.5
10
140.5
20
-809
0
LWPOLYLINE
8
REFERENCE_BASE
90
5
70
0
10
163
20
-810.5
10
164.5
20
-809
10
165.5
20
-779
10
156
20
-777.5
10
153.5
20
-809
0
LWPOLYLINE
8
REFERENCE_BASE
90
6
70
0
10
175
20
-811.5
10
177.5
20
-810
10
179.5
20
-780
10
170
20
-778.5
10
168.5
20
-781
10
167.5
20
-810
0
LWPOLYLINE
8
REFERENCE_BASE
90
6
70
0
10
190
20
-811.5
10
191.5
20
-810
10
192.5
20
-780
10
184
20
-778.5
10
182.5
20
-780
10
180.5
20
-810
0
LWPOLYLINE
8
REFERENCE_BASE
90
32
70
0
10
458
20
-1296.5
10
459
20
-1290.5
10
260
20
-1284.5
10
249.5
20
-1282
10
256.5
20
-1080
10
259
20
-1077.5
10
284
20
-1077.5
10
285.5
20
-1073
10
217
20
-1070.5
10
214.5
20
-1068
10
223.5
20
-860
10
222
20
-858.5
10
70
20
-853.5
10
68.5
20
-852
10
69.5
20
-812
10
66
20
-811.5
10
63.5
20
-827
10
53.5
20
-1068
10
55
20
-1069.5
10
97
20
-1070.5
10
101.5
20
-1073
10
94.5
20
-1283
10
102
20
-1284.5
10
107.5
20
-1283
10
106
20
-1278.5
10
99.5
20
-1277
10
105.5
20
-1126
10
237
20
-1129.5
10
248.5
20
-1132
10
243.5
20
-1282
10
238.5
20
-1285
10
240
20
-1289.5
0
LWPOLYLINE
8
REFERENCE_BASE
90
6
70
0
10
121
20
-851.5
10
122.5
20
-850
10
123.5
20
-820
10
114
20
-819.5
10
112.5
20
-822
10
111.5
20
-850
0
LWPOLYLINE
8
REFERENCE_BASE
90
5
70
0
10
135
20
-851.5
10
136.5
20
-821
10
128
20
-819.5
10
126.5
20
-821
10
125.5
20
-851
0
LWPOLYLINE
8
REFERENCE_BASE
90
5
70
0
10
148
20
-852.5
10
150.5
20
-822
10
149
20
-820.5
10
140
20
-820.5
10
138.5
20
-852
0
LWPOLYLINE
8
REFERENCE_BASE
90
5
70
0
10
160
20
-853.5
10
162.5
20
-852
10
163.5
20
-822
10
154
20
-820.5
10
152.5
20
-852
0
LWPOLYLINE
8
REFERENCE_BASE
90
4
70
0
10
175
20
-853.5
10
176.5
20
-822
10
168
20
-821.5
10
165.5
20
-852
0
LWPOLYLINE
8
REFERENCE_BASE
90
5
70
0
10
188
20
-853.5
10
189.5
20
-852
10
190.5
20
-823
10
181
20
-821.5
10
179.5
20
-853
0
LWPOLYLINE
8
REFERENCE_BASE
90
75
70
0
10
787.5
20
-1048
10
786
20
-1049.5
10
690
20
-1047.5
10
687.5
20
-1046
10
687.5
20
-1038
10
684.5
20
-1030
10
675
20
-1021.5
10
670.5
20
-1022
10
669
20
-1045.5
10
331
20
-1035.5
10
332.5
20
-958
10
338.5
20
-843
10
340
20
-841.5
10
450
20
-844.5
10
470
20
-845.5
10
472.5
20
-850
10
470
20
-857.5
10
402
20
-855.5
10
400.5
20
-857
10
400.5
20
-869
10
402
20
-870.5
10
412
20
-870.5
10
413.5
20
-872
10
411.5
20
-911
10
410
20
-912.5
10
397.5
20
-913
10
396.5
20
-935
10
398
20
-936.5
10
474
20
-938.5
10
473.5
20
-932
10
477.5
20
-926
10
474.5
20
-922
10
474.5
20
-916
10
477.5
20
-912
10
474.5
20
-905
10
477.5
20
-899
10
475.5
20
-889
10
480
20
-882.5
10
493
20
-882.5
10
495
20
-873.5
10
504
20
-873.5
10
505.5
20
-875
10
505.5
20
-884
10
515
20
-883.5
10
521.5
20
-891
10
518.5
20
-898
10
521.5
20
-907
10
517.5
20
-912
10
520.5
20
-918
10
520.5
20
-922
10
517.5
20
-926
10
519.5
20
-931
10
519
20
-940.5
10
583
20
-942.5
10
592.5
20
-941
10
593.5
20
-919
10
580
20
-917.5
10
578.5
20
-915
10
580.5
20
-883
10
582
20
-876.5
10
594
20
-876.5
10
595.5
20
-875
10
595.5
20
-862
10
531
20
-859.5
10
529.5
20
-858
10
529.5
20
-849
10
531
20
-847.5
10
676
20
-852.5
10
679.5
20
-866
10
690
20
-875.5
10
694.5
20
-874
10
694.5
20
-855
10
697
20
-852.5
10
794
20
-855.5
10
795.5
20
-857
0
LWPOLYLINE
8
REFERENCE_BASE
90
34
70
0
10
666.5
20
-1042
10
666
20
-1037.5
10
659.5
20
-1036
10
658.5
20
-1028
10
666.5
20
-866
10
669
20
-860.5
10
673.5
20
-860
10
673
20
-855.5
10
534
20
-851.5
10
535
20
-856.5
10
598
20
-858.5
10
599.5
20
-861
10
595.5
20
-942
10
593
20
-945.5
10
501
20
-942.5
10
499.5
20
-941
10
502.5
20
-883
10
501
20
-876.5
10
498
20
-876.5
10
496.5
20
-881
10
494.5
20
-930
10
492
20
-941.5
10
396
20
-939.5
10
393.5
20
-937
10
397.5
20
-854
10
400
20
-851.5
10
468
20
-853.5
10
468.5
20
-850
10
464
20
-848.5
10
380
20
-845.5
10
342.5
20
-846
10
336.5
20
-944
10
333.5
20
-1031
10
335
20
-1032.5
0
LWPOLYLINE
8
REFERENCE_BASE
90
5
70
0
10
2184
20
-885.5
10
2186.5
20
-881
10
2186.5
20
-853
10
2177
20
-851.5
10
2175.5
20
-884
0
LWPOLYLINE
8
REFERENCE_BASE
90
5
70
0
10
2199
20
-885.5
10
2200.5
20
-854
10
2191
20
-852.5
10
2189.5
20
-854
10
2189.5
20
-885
0
LWPOLYLINE
8
REFERENCE_BASE
90
6
70
0
10
2212
20
-886.5
10
2213.5
20
-885
10
2214.5
20
-854
10
2205
20
-852.5
10
2203.5
20
-854
10
2202.5
20
-884
0
LWPOLYLINE
8
REFERENCE_BASE
90
5
70
0
10
2227
20
-886.5
10
2228.5
20
-854
10
2218
20
-853.5
10
2216.5
20
-885
10
2218
20
-886.5
0
LWPOLYLINE
8
REFERENCE_BASE
90
6
70
0
10
2240
20
-886.5
10
2241.5
20
-885
10
2241.5
20
-855
10
2234
20
-853.5
10
2231.5
20
-855
10
2230.5
20
-885
0
LWPOLYLINE
8
REFERENCE_BASE
90
12
70
0
10
783
20
-1045.5
10
785.5
20
-1022
10
791.5
20
-860
10
699
20
-856.5
10
700
20
-861.5
10
783
20
-863.5
10
786.5
20
-866
10
781.5
20
-998
10
778
20
-1040.5
10
692
20
-1038.5
10
690.5
20
-1042
10
692
20
-1043.5
0
LWPOLYLINE
8
REFERENCE_BASE
90
64
70
0
10
1072.5
20
-1219
10
1072
20
-1214.5
10
1045
20
-1213.5
10
1043.5
20
-1212
10
1054.5
20
-913
10
1053
20
-911.5
10
1008
20
-910.5
10
1005.5
20
-908
10
1006
20
-865.5
10
844
20
-860.5
10
842.5
20
-862
10
833.5
20
-1086
10
829
20
-1090.5
10
290.5
20
-1073
10
292
20
-1078.5
10
514
20
-1085.5
10
515.5
20
-1087
10
515.5
20
-1115
10
509.5
20
-1254
10
511
20
-1255.5
10
515.5
20
-1253
10
519.5
20
-1154
10
527
20
-1152.5
10
589
20
-1154.5
10
604.5
20
-1157
10
598.5
20
-1294
10
597
20
-1295.5
10
515
20
-1292.5
10
513.5
20
-1291
10
513.5
20
-1279
10
510
20
-1277.5
10
508.5
20
-1279
10
508.5
20
-1289
10
503.5
20
-1294
10
505
20
-1298.5
10
724
20
-1304.5
10
787
20
-1307.5
10
788.5
20
-1306
10
788
20
-1302.5
10
605
20
-1295.5
10
604.5
20
-1273
10
610.5
20
-1145
10
607
20
-1143.5
10
602
20
-1150.5
10
521
20
-1147.5
10
519.5
20
-1146
10
521.5
20
-1087
10
523
20
-1085.5
10
605
20
-1087.5
10
607.5
20
-1091
10
606.5
20
-1119
10
608
20
-1120.5
10
611.5
20
-1120
10
612.5
20
-1091
10
616
20
-1087.5
10
831
20
-1095.5
10
832.5
20
-1105
10
824.5
20
-1299
10
821
20
-1303.5
10
813
20
-1303.5
10
813
20
-1308.5
10
828.5
20
-1308
10
832.5
20
-1213
10
835
20
-1211.5
0
LWPOLYLINE
8
REFERENCE_BASE
90
17
70
0
10
775
20
-1037.5
10
783.5
20
-869
10
782
20
-867.5
10
699
20
-864.5
10
697.5
20
-878
10
690
20
-879.5
10
678.5
20
-871
10
675
20
-863.5
10
672
20
-863.5
10
669.5
20
-869
10
662.5
20
-1034
10
666.5
20
-1034
10
667.5
20
-1019
10
673
20
-1017.5
10
681
20
-1020.5
10
687.5
20
-1027
10
692
20
-1035.5
0
LWPOLYLINE
8
REFERENCE_BASE
90
21
70
1
10
1036
20
-1213.5
10
835
20
-1206.5
10
832.5
20
-1204
10
845.5
20
-912
10
847
20
-910.5
10
967.5
20
-914
10
967
20
-908.5
10
847
20
-904.5
10
845.5
20
-902
10
846.5
20
-876
10
849
20
-865.5
10
1000
20
-870.5
10
1001.5
20
-872
10
1000.5
20
-907
10
999
20
-909.5
10
992.5
20
-910
10
991.5
20
-914
10
993
20
-915.5
10
1042
20
-916.5
10
1049.5
20
-919
10
1038.5
20
-1211
0
LWPOLYLINE
8
REFERENCE_BASE
90
12
70
0
10
997.5
20
-905
10
998.5
20
-875
10
997
20
-873.5
10
855
20
-868.5
10
850.5
20
-870
10
850
20
-901.5
10
969
20
-905.5
10
971.5
20
-900
10
979
20
-892.5
10
990
20
-889.5
10
992.5
20
-892
10
992.5
20
-906
0
LWPOLYLINE
8
REFERENCE_BASE
90
6
70
1
10
407
20
-886.5
10
408.5
20
-878
10
405
20
-876.5
10
403.5
20
-879
10
405.5
20
-882
10
403.5
20
-886
0
LWPOLYLINE
8
REFERENCE_BASE
90
68
70
0
10
2220.5
20
-1363
10
2227.5
20
-1152
10
2231
20
-1149.5
10
2272
20
-1151.5
10
2273.5
20
-1150
10
2282
20
-894.5
10
2277.5
20
-895
10
2276.5
20
-932
10
2273
20
-934.5
10
2119.5
20
-929
10
2112.5
20
-1139
10
2111
20
-1140.5
10
1443
20
-1114.5
10
1439.5
20
-1113
10
1438.5
20
-1103
10
1444.5
20
-947
10
1445
20
-882.5
10
1275
20
-876.5
10
1273.5
20
-915
10
1271
20
-919.5
10
1222.5
20
-919
10
1212.5
20
-1218
10
1211
20
-1219.5
10
1189
20
-1218.5
10
1187.5
20
-1223
10
1189
20
-1224.5
10
1428
20
-1233.5
10
1429.5
20
-1235
10
1427.5
20
-1331
10
1429
20
-1332.5
10
1438.5
20
-1332
10
1438.5
20
-1328
10
1432.5
20
-1324
10
1438.5
20
-1121
10
1444
20
-1118.5
10
1650
20
-1127.5
10
1652.5
20
-1130
10
1646.5
20
-1335
10
1645
20
-1336.5
10
1480
20
-1328.5
10
1464
20
-1328.5
10
1464
20
-1333.5
10
1790
20
-1348.5
10
2025.5
20
-1356
10
2024
20
-1351.5
10
1749
20
-1341.5
10
1745.5
20
-1340
10
1745.5
20
-1308
10
1744
20
-1306.5
10
1740.5
20
-1309
10
1740.5
20
-1338
10
1738
20
-1340.5
10
1654
20
-1336.5
10
1652.5
20
-1335
10
1653.5
20
-1281
10
1655
20
-1279.5
10
1744
20
-1283.5
10
1746.5
20
-1282
10
1750.5
20
-1133
10
1752
20
-1131.5
10
2062
20
-1144.5
10
2064.5
20
-1147
10
2058.5
20
-1333
10
2057.5
20
-1350
10
2056
20
-1352.5
10
2051
20
-1352.5
10
2050.5
20
-1357
10
2192
20
-1363.5
0
LWPOLYLINE
8
REFERENCE_BASE
90
74
70
0
10
1987.5
20
-1092
10
1983
20
-1096.5
10
1612
20
-1081.5
10
1605.5
20
-1079
10
1603.5
20
-1065
10
1593
20
-1055.5
10
1588.5
20
-1056
10
1588.5
20
-1076
10
1587
20
-1079.5
10
1489
20
-1075.5
10
1487.5
20
-1073
10
1493.5
20
-883
10
1495
20
-881.5
10
1592
20
-885.5
10
1595.5
20
-899
10
1607
20
-909.5
10
1610.5
20
-909
10
1612
20
-886.5
10
1785
20
-893.5
10
1786.5
20
-903
10
1784
20
-905.5
10
1696
20
-901.5
10
1694.5
20
-903
10
1693.5
20
-926
10
1708.5
20
-929
10
1707.5
20
-967
10
1706
20
-968.5
10
1693
20
-968.5
10
1692.5
20
-982
10
1696
20
-983.5
10
1791
20
-987.5
10
1790.5
20
-980
10
1793.5
20
-976
10
1791.5
20
-964
10
1794.5
20
-960
10
1791.5
20
-956
10
1791.5
20
-950
10
1794.5
20
-946
10
1791.5
20
-940
10
1792.5
20
-935
10
1798
20
-930.5
10
1809
20
-931.5
10
1811
20
-921.5
10
1820
20
-921.5
10
1822.5
20
-924
10
1821.5
20
-931
10
1823
20
-932.5
10
1831
20
-931.5
10
1836
20
-933.5
10
1838.5
20
-937
10
1838.5
20
-944
10
1835.5
20
-947
10
1838.5
20
-952
10
1838.5
20
-956
10
1835.5
20
-961
10
1838.5
20
-969
10
1835.5
20
-975
10
1838
20
-989.5
10
1922
20
-992.5
10
1923.5
20
-991
10
1923.5
20
-978
10
1909.5
20
-975
10
1910.5
20
-937
10
1912
20
-935.5
10
1924.5
20
-935
10
1925.5
20
-912
10
1924
20
-910.5
10
1846
20
-907.5
10
1844.5
20
-906
10
1845.5
20
-897
10
1873
20
-896.5
10
1974
20
-901.5
10
1990
20
-900.5
10
1992.5
20
-903
0
LWPOLYLINE
8
REFERENCE_BASE
90
6
70
0
10
590
20
-892.5
10
588.5
20
-887
10
590.5
20
-883
10
588
20
-882.5
10
585.5
20
-885
10
585.5
20
-891
0
LWPOLYLINE
8
REFERENCE_BASE
90
19
70
1
10
1429
20
-1227.5
10
1221
20
-1220.5
10
1217.5
20
-1218
10
1226.5
20
-936
10
1229
20
-924.5
10
1367
20
-929.5
10
1368.5
20
-925
10
1362.5
20
-922
10
1362.5
20
-892
10
1365
20
-884.5
10
1438
20
-886.5
10
1440.5
20
-889
10
1439.5
20
-924
10
1437
20
-926.5
10
1392.5
20
-925
10
1394
20
-930.5
10
1436
20
-931.5
10
1438.5
20
-933
10
1430.5
20
-1226
0
LWPOLYLINE
8
REFERENCE_BASE
90
14
70
0
10
1583
20
-1076.5
10
1584.5
20
-1075
10
1583
20
-1071.5
10
1505
20
-1068.5
10
1496.5
20
-1066
10
1501.5
20
-893
10
1503
20
-890.5
10
1588
20
-894.5
10
1589.5
20
-890
10
1585
20
-888.5
10
1498
20
-885.5
10
1496.5
20
-887
10
1491.5
20
-1071
10
1493
20
-1072.5
0
LWPOLYLINE
8
REFERENCE_BASE
90
11
70
1
10
1436.5
20
-921
10
1436
20
-890.5
10
1372
20
-887.5
10
1366.5
20
-889
10
1366
20
-920.5
10
1369.5
20
-918
10
1369.5
20
-906
10
1375
20
-904.5
10
1384
20
-908.5
10
1393
20
-921.5
10
1435
20
-922.5
0
LWPOLYLINE
8
REFERENCE_BASE
90
4
70
0
10
398.5
20
-894
10
409
20
-893.5
10
409.5
20
-891
10
400
20
-888.5
0
LWPOLYLINE
8
REFERENCE_BASE
90
30
70
1
10
1983.5
20
-1091
10
1988.5
20
-906
10
1987
20
-904.5
10
1848.5
20
-900
10
1849
20
-904.5
10
1914
20
-906.5
10
1928.5
20
-909
10
1926.5
20
-994
10
1925
20
-995.5
10
1906
20
-995.5
10
1818
20
-990.5
10
1818.5
20
-926
10
1817
20
-924.5
10
1812.5
20
-926
10
1811.5
20
-981
10
1809
20
-990.5
10
1690
20
-985.5
10
1688.5
20
-975
10
1692
20
-898.5
10
1782
20
-901.5
10
1782.5
20
-898
10
1781
20
-896.5
10
1614.5
20
-891
10
1616
20
-895.5
10
1624.5
20
-897
10
1619.5
20
-1071
10
1610
20
-1072.5
10
1610
20
-1077.5
10
1972
20
-1092.5
10
1982
20
-1092.5
0
LWPOLYLINE
8
REFERENCE_BASE
90
6
70
0
10
594.5
20
-901
10
594
20
-893.5
10
589
20
-896.5
10
583.5
20
-895
10
584
20
-899.5
10
589
20
-898.5
0
LWPOLYLINE
8
REFERENCE_BASE
90
14
70
0
10
1034
20
-1209.5
10
1035.5
20
-1205
10
1046.5
20
-922
10
1045
20
-920.5
10
989
20
-918.5
10
989.5
20
-895
10
988
20
-893.5
10
981
20
-895.5
10
974.5
20
-902
10
970
20
-917.5
10
850
20
-913.5
10
848.5
20
-915
10
836.5
20
-1202
10
842
20
-1203.5
0
LWPOLYLINE
8
REFERENCE_BASE
90
18
70
0
10
1615
20
-1069.5
10
1616.5
20
-1068
10
1621.5
20
-900
10
1615
20
-898.5
10
1613.5
20
-912
10
1608
20
-913.5
10
1599
20
-909.5
10
1591
20
-897.5
10
1506
20
-893.5
10
1504.5
20
-900
10
1500.5
20
-1064
10
1583
20
-1068.5
10
1584.5
20
-1067
10
1584.5
20
-1052
10
1588
20
-1050.5
10
1598
20
-1053.5
10
1605.5
20
-1061
10
1609
20
-1069.5
0
LWPOLYLINE
8
REFERENCE_BASE
90
6
70
0
10
2170
20
-927.5
10
2171.5
20
-925
10
2171.5
20
-895
10
2163
20
-894.5
10
2161.5
20
-896
10
2160.5
20
-926
0
LWPOLYLINE
8
REFERENCE_BASE
90
5
70
0
10
2184
20
-927.5
10
2185.5
20
-896
10
2176
20
-894.5
10
2174.5
20
-896
10
2174.5
20
-927
0
LWPOLYLINE
8
REFERENCE_BASE
90
6
70
0
10
2197
20
-928.5
10
2198.5
20
-927
10
2199.5
20
-896
10
2190
20
-895.5
10
2188.5
20
-897
10
2187.5
20
-927
0
LWPOLYLINE
8
REFERENCE_BASE
90
5
70
0
10
2212
20
-928.5
10
2213.5
20
-897
10
2204
20
-895.5
10
2202.5
20
-897
10
2201.5
20
-928
0
LWPOLYLINE
8
REFERENCE_BASE
90
6
70
0
10
405
20
-906.5
10
407.5
20
-904
10
406
20
-896.5
10
403.5
20
-897
10
404.5
20
-902
10
402.5
20
-903
0
LWPOLYLINE
8
REFERENCE_BASE
90
5
70
0
10
2225
20
-929.5
10
2226.5
20
-928
10
2226.5
20
-897
10
2217
20
-896.5
10
2215.5
20
-928
0
LWPOLYLINE
8
REFERENCE_BASE
90
5
70
0
10
2239
20
-929.5
10
2240.5
20
-898
10
2232
20
-896.5
10
2230.5
20
-898
10
2229.5
20
-929
0
LWPOLYLINE
8
REFERENCE_BASE
90
5
70
0
10
589
20
-911.5
10
587.5
20
-906
10
589.5
20
-903
10
586
20
-902.5
10
584.5
20
-910
0
LWPOLYLINE
8
REFERENCE_BASE
90
13
70
0
10
1426
20
-1224.5
10
1435.5
20
-936
10
1431
20
-934.5
10
1390
20
-933.5
10
1386.5
20
-917
10
1376
20
-908.5
10
1372.5
20
-909
10
1371.5
20
-931
10
1370
20
-932.5
10
1232
20
-927.5
10
1230.5
20
-929
10
1220.5
20
-1215
10
1231
20
-1217.5
0
LWPOLYLINE
8
REFERENCE_BASE
90
4
70
0
10
482
20
-921.5
10
482.5
20
-917
10
480
20
-916.5
10
478.5
20
-919
0
LWPOLYLINE
8
REFERENCE_BASE
90
4
70
1
10
482
20
-935.5
10
482.5
20
-931
10
480
20
-930.5
10
478.5
20
-934
0
LWPOLYLINE
8
REFERENCE_BASE
90
3
70
0
10
511
20
-936.5
10
514.5
20
-935
10
513
20
-931.5
0
LWPOLYLINE
8
REFERENCE_BASE
90
5
70
1
10
1701
20
-943.5
10
1703.5
20
-940
10
1703.5
20
-936
10
1699
20
-933.5
10
1698.5
20
-942
0
LWPOLYLINE
8
REFERENCE_BASE
90
8
70
1
10
1920
20
-951.5
10
1920.5
20
-948
10
1918.5
20
-946
10
1920.5
20
-942
10
1918
20
-941.5
10
1915.5
20
-944
10
1915.5
20
-949
10
1917
20
-951.5
0
LWPOLYLINE
8
REFERENCE_BASE
90
7
70
0
10
1692.5
20
-950
10
1694
20
-951.5
10
1697
20
-949.5
10
1704
20
-950.5
10
1704.5
20
-946
10
1699
20
-946.5
10
1694
20
-943.5
0
LWPOLYLINE
8
REFERENCE_BASE
90
8
70
1
10
1701
20
-962.5
10
1703.5
20
-957
10
1702.5
20
-954
10
1699
20
-952.5
10
1697.5
20
-955
10
1699.5
20
-958
10
1697.5
20
-959
10
1697.5
20
-962
0
LWPOLYLINE
8
REFERENCE_BASE
90
4
70
1
10
1830
20
-957.5
10
1833.5
20
-955
10
1832
20
-952.5
10
1829.5
20
-955
0
LWPOLYLINE
8
REFERENCE_BASE
90
6
70
0
10
1924.5
20
-959
10
1924
20
-952.5
10
1921
20
-954.5
10
1913.5
20
-954
10
1914
20
-958.5
10
1920
20
-957.5
0
LWPOLYLINE
8
REFERENCE_BASE
90
6
70
0
10
1919
20
-971.5
10
1920.5
20
-968
10
1917.5
20
-966
10
1920.5
20
-962
10
1917
20
-960.5
10
1914.5
20
-967
0
LWPOLYLINE
8
REFERENCE_BASE
90
4
70
1
10
1799
20
-969.5
10
1799.5
20
-965
10
1798
20
-964.5
10
1795.5
20
-968
0
LWPOLYLINE
8
REFERENCE_BASE
90
4
70
0
10
1799
20
-984.5
10
1799.5
20
-980
10
1797
20
-979.5
10
1795.5
20
-982
0
LWPOLYLINE
8
REFERENCE_BASE
90
6
70
1
10
1099.5
20
-1085
10
1099
20
-1076.5
10
1062
20
-1074.5
10
1052.5
20
-1076
10
1054
20
-1085.5
10
1098
20
-1086.5
0
LWPOLYLINE
8
REFERENCE_BASE
90
6
70
0
10
1213.5
20
-1090
10
1212
20
-1080.5
10
1168
20
-1079.5
10
1166.5
20
-1084
10
1168
20
-1089.5
10
1209
20
-1091.5
0
LWPOLYLINE
8
REFERENCE_BASE
90
154
70
1
10
500.5
20
-1311
10
501.5
20
-1289
10
500
20
-1287.5
10
489
20
-1288.5
10
484
20
-1285.5
10
483.5
20
-1283
10
487
20
-1281.5
10
488
20
-1286.5
10
499
20
-1286.5
10
500.5
20
-1283
10
503.5
20
-1282
10
506
20
-1275.5
10
521
20
-1271.5
10
528.5
20
-1263
10
528
20
-1258.5
10
506
20
-1257.5
10
503.5
20
-1260
10
502.5
20
-1268
10
498
20
-1269.5
10
496.5
20
-1266
10
498
20
-1263.5
10
501.5
20
-1264
10
499.5
20
-1260
10
504.5
20
-1254
10
502
20
-1251.5
10
497
20
-1252.5
10
495.5
20
-1255
10
498.5
20
-1258
10
495
20
-1260.5
10
493.5
20
-1259
10
494.5
20
-1253
10
490.5
20
-1250
10
497
20
-1246.5
10
498.5
20
-1240
10
505.5
20
-1235
10
505.5
20
-1220
10
507.5
20
-1216
10
507.5
20
-1171
10
509.5
20
-1150
10
506.5
20
-1148
10
506.5
20
-1145
10
509.5
20
-1142
10
507.5
20
-1137
10
504.5
20
-1135
10
507
20
-1134.5
10
509.5
20
-1130
10
504.5
20
-1129
10
507.5
20
-1120
10
504.5
20
-1119
10
508.5
20
-1114
10
505.5
20
-1113
10
506.5
20
-1098
10
504
20
-1090.5
10
494
20
-1088.5
10
489
20
-1091.5
10
486
20
-1088.5
10
431
20
-1087.5
10
428.5
20
-1091
10
430.5
20
-1095
10
426
20
-1095.5
10
423
20
-1092.5
10
420
20
-1092.5
10
419
20
-1094.5
10
414.5
20
-1094
10
416.5
20
-1092
10
416
20
-1089.5
10
423
20
-1089.5
10
425
20
-1086.5
10
413
20
-1086.5
10
413.5
20
-1090
10
409
20
-1093.5
10
394
20
-1093.5
10
395
20
-1097.5
10
404.5
20
-1098
10
402
20
-1100.5
10
394
20
-1100.5
10
393
20
-1097.5
10
387.5
20
-1098
10
390
20
-1092.5
10
386
20
-1093.5
10
385
20
-1091.5
10
382
20
-1092.5
10
378
20
-1090.5
10
376
20
-1095.5
10
374
20
-1090.5
10
370
20
-1092.5
10
365
20
-1090.5
10
362
20
-1085.5
10
352
20
-1083.5
10
301
20
-1082.5
10
299
20
-1084.5
10
268
20
-1081.5
10
267
20
-1084.5
10
261.5
20
-1084
10
257.5
20
-1156
10
258.5
20
-1188
10
261.5
20
-1189
10
261.5
20
-1193
10
256.5
20
-1195
10
256.5
20
-1200
10
265.5
20
-1201
10
262.5
20
-1203
10
264.5
20
-1206
10
264.5
20
-1213
10
261.5
20
-1217
10
267
20
-1219.5
10
268.5
20
-1224
10
263
20
-1232.5
10
260
20
-1232.5
10
259.5
20
-1228
10
257.5
20
-1227
10
263
20
-1227.5
10
263.5
20
-1224
10
256.5
20
-1224
10
255
20
-1248.5
10
265
20
-1247.5
10
263.5
20
-1253
10
266.5
20
-1255
10
268
20
-1259.5
10
277
20
-1252.5
10
283
20
-1252.5
10
288
20
-1255.5
10
289
20
-1258.5
10
295
20
-1255.5
10
299.5
20
-1267
10
299
20
-1270.5
10
297
20
-1267.5
10
295.5
20
-1270
10
300
20
-1272.5
10
302
20
-1276.5
10
309.5
20
-1275
10
309
20
-1277.5
10
304
20
-1277.5
10
302
20
-1281.5
10
308
20
-1281.5
10
310
20
-1279.5
10
312
20
-1281.5
10
413
20
-1283.5
10
456
20
-1286.5
10
461
20
-1285.5
10
465
20
-1280.5
10
469
20
-1283.5
10
473
20
-1282.5
10
474
20
-1287.5
10
462.5
20
-1287
10
462.5
20
-1311
10
467
20
-1311.5
10
476.5
20
-1304
10
478
20
-1284.5
10
483
20
-1286.5
10
485.5
20
-1290
10
485.5
20
-1305
10
493
20
-1311.5
10
499
20
-1312.5
0
LWPOLYLINE
8
REFERENCE_BASE
90
6
70
0
10
392.5
20
-1091
10
396
20
-1090.5
10
397
20
-1088.5
10
400
20
-1089.5
10
400.5
20
-1087
10
395
20
-1086.5
0
LWPOLYLINE
8
REFERENCE_BASE
90
11
70
0
10
601.5
20
-1146
10
600
20
-1142.5
10
588
20
-1142.5
10
586.5
20
-1137
10
590.5
20
-1128
10
602.5
20
-1120
10
603.5
20
-1092
10
602
20
-1090.5
10
526
20
-1088.5
10
524.5
20
-1090
10
523
20
-1144.5
0
LWPOLYLINE
8
REFERENCE_BASE
90
6
70
1
10
1099.5
20
-1098
10
1098
20
-1089.5
10
1053
20
-1088.5
10
1051.5
20
-1093
10
1053
20
-1098.5
10
1098
20
-1099.5
0
LWPOLYLINE
8
REFERENCE_BASE
90
22
70
0
10
807
20
-1325.5
10
808.5
20
-1302
10
811
20
-1299.5
10
819
20
-1300.5
10
820.5
20
-1299
10
828.5
20
-1099
10
617
20
-1091.5
10
614.5
20
-1123
10
613
20
-1124.5
10
601
20
-1124.5
10
593.5
20
-1131
10
590.5
20
-1137
10
591
20
-1139.5
10
606
20
-1139.5
10
613.5
20
-1142
10
607.5
20
-1291
10
618
20
-1293.5
10
790
20
-1298.5
10
791.5
20
-1300
10
791.5
20
-1310
10
794.5
20
-1317
10
801
20
-1323.5
0
LWPOLYLINE
8
REFERENCE_BASE
90
5
70
0
10
1212.5
20
-1104
10
1212
20
-1094.5
10
1171
20
-1092.5
10
1166.5
20
-1094
10
1167
20
-1102.5
0
LWPOLYLINE
8
REFERENCE_BASE
90
6
70
0
10
1098.5
20
-1112
10
1098
20
-1103.5
10
1053
20
-1101.5
10
1051.5
20
-1103
10
1052
20
-1111.5
10
1089
20
-1113.5
0
LWPOLYLINE
8
REFERENCE_BASE
90
6
70
0
10
1212.5
20
-1117
10
1211
20
-1107.5
10
1167
20
-1106.5
10
1165.5
20
-1112
10
1167
20
-1116.5
10
1206
20
-1118.5
0
LWPOLYLINE
8
REFERENCE_BASE
90
6
70
1
10
1098.5
20
-1125
10
1097
20
-1116.5
10
1053
20
-1114.5
10
1050.5
20
-1117
10
1051
20
-1125.5
10
1097
20
-1126.5
0
LWPOLYLINE
8
REFERENCE_BASE
90
5
70
0
10
1211.5
20
-1131
10
1211
20
-1121.5
10
1165.5
20
-1121
10
1166
20
-1130.5
10
1206
20
-1132.5
0
LWPOLYLINE
8
REFERENCE_BASE
90
13
70
1
10
1443
20
-1349.5
10
1450
20
-1347.5
10
1457.5
20
-1340
10
1459.5
20
-1327
10
1462
20
-1324.5
10
1625
20
-1332.5
10
1643.5
20
-1332
10
1648
20
-1131.5
10
1443
20
-1122.5
10
1441.5
20
-1124
10
1436.5
20
-1323
10
1442.5
20
-1326
10
1441.5
20
-1348
0
LWPOLYLINE
8
REFERENCE_BASE
90
13
70
0
10
234
20
-1305.5
10
235.5
20
-1282
10
241.5
20
-1278
10
245.5
20
-1134
10
240
20
-1132.5
10
109
20
-1128.5
10
107.5
20
-1131
10
106.5
20
-1196
10
102.5
20
-1275
10
200
20
-1277.5
10
217
20
-1279.5
10
219.5
20
-1295
10
226
20
-1302.5
0
LWPOLYLINE
8
REFERENCE_BASE
90
5
70
0
10
1097.5
20
-1140
10
1097
20
-1130.5
10
1056
20
-1128.5
10
1050.5
20
-1130
10
1052
20
-1139.5
0
LWPOLYLINE
8
REFERENCE_BASE
90
7
70
1
10
1211.5
20
-1144
10
1211
20
-1135.5
10
1167
20
-1133.5
10
1164.5
20
-1139
10
1164.5
20
-1143
10
1167
20
-1144.5
10
1210
20
-1145.5
0
LWPOLYLINE
8
REFERENCE_BASE
90
22
70
1
10
2045.5
20
-1373
10
2046.5
20
-1352
10
2048
20
-1349.5
10
2053.5
20
-1348
10
2060.5
20
-1175
10
2060
20
-1147.5
10
1761
20
-1134.5
10
1753.5
20
-1136
10
1750.5
20
-1285
10
1747
20
-1287.5
10
1734
20
-1287.5
10
1725.5
20
-1297
10
1727
20
-1302.5
10
1741
20
-1302.5
10
1749.5
20
-1305
10
1749
20
-1337.5
10
2026
20
-1347.5
10
2029.5
20
-1351
10
2029.5
20
-1361
10
2032.5
20
-1367
10
2040
20
-1373.5
10
2044
20
-1374.5
0
LWPOLYLINE
8
REFERENCE_BASE
90
6
70
1
10
1097.5
20
-1153
10
1096
20
-1143.5
10
1051
20
-1142.5
10
1049.5
20
-1145
10
1051
20
-1153.5
10
1096
20
-1154.5
0
LWPOLYLINE
8
REFERENCE_BASE
90
6
70
1
10
1211.5
20
-1156
10
1211.5
20
-1150
10
1209
20
-1148.5
10
1164.5
20
-1148
10
1165
20
-1157.5
10
1210
20
-1159.5
0
LWPOLYLINE
8
REFERENCE_BASE
90
12
70
0
10
594
20
-1292.5
10
596.5
20
-1277
10
600.5
20
-1159
10
523
20
-1155.5
10
521.5
20
-1157
10
518.5
20
-1255
10
531
20
-1255.5
10
532.5
20
-1261
10
529.5
20
-1268
10
517.5
20
-1277
10
516.5
20
-1288
10
531
20
-1290.5
0
LWPOLYLINE
8
REFERENCE_BASE
90
4
70
0
10
1096.5
20
-1167
10
1095
20
-1157.5
10
1049.5
20
-1157
10
1050
20
-1166.5
0
LWPOLYLINE
8
REFERENCE_BASE
90
4
70
0
10
1210.5
20
-1172
10
1210
20
-1162.5
10
1164.5
20
-1162
10
1165
20
-1171.5
0
LWPOLYLINE
8
REFERENCE_BASE
90
6
70
1
10
1096.5
20
-1178
10
1095
20
-1171.5
10
1057
20
-1169.5
10
1048.5
20
-1171
10
1050
20
-1180.5
10
1095
20
-1181.5
0
LWPOLYLINE
8
REFERENCE_BASE
90
6
70
1
10
1210.5
20
-1184
10
1210
20
-1176.5
10
1165
20
-1174.5
10
1163.5
20
-1176
10
1165
20
-1185.5
10
1209
20
-1186.5
0
LWPOLYLINE
8
REFERENCE_BASE
90
6
70
0
10
1142.5
20
-1222
10
1142.5
20
-1218
10
1140
20
-1216.5
10
1118
20
-1216.5
10
1116.5
20
-1218
10
1118
20
-1221.5
0
LWPOLYLINE
8
REFERENCE_BASE
90
4
70
0
10
210
20
-1288.5
10
214.5
20
-1287
10
214
20
-1282.5
10
208.5
20
-1284
0
LWPOLYLINE
8
REFERENCE_BASE
90
10
70
0
10
1736.5
20
-1336
10
1737.5
20
-1307
10
1736
20
-1305.5
10
1723
20
-1305.5
10
1720.5
20
-1303
10
1721.5
20
-1297
10
1729
20
-1285.5
10
1657.5
20
-1283
10
1655.5
20
-1325
10
1657
20
-1333.5
0
ENDSEC
0
EOF
