0
SECTION
2
HEADER
9
$ACADVER
1
AC1015
0
ENDSEC
0
SECTION
2
TABLES
0
TABLE
2
LAYER
70
10
0
LAYER
2
REFERENCE_STROKES
70
0
62
8
6
CONTINUOUS
0
LAYER
2
REFERENCE_BASE
70
0
62
252
6
CONTINUOUS
0
LAYER
2
ROOMS
70
0
62
3
6
CONTINUOUS
0
LAYER
2
HALLWAYS
70
0
62
4
6
CONTINUOUS
0
LAYER
2
WALLS
70
0
62
2
6
CONTINUOUS
0
LAYER
2
DOORS
70
0
62
6
6
CONTINUOUS
0
LAYER
2
STAIRS
70
0
62
5
6
CONTINUOUS
0
LAYER
2
ROOM_LABELS
70
0
62
7
6
CONTINUOUS
0
LAYER
2
PLACE_LABELS
70
0
62
30
6
CONTINUOUS
0
LAYER
2
PINS
70
0
62
1
6
CONTINUOUS
0
ENDTAB
0
ENDSEC
0
SECTION
2
ENTITIES
0
LWPOLYLINE
8
REFERENCE_STROKES
90
61
70
0
10
74
20
-1802.5
10
72.5
20
-1626
10
26
20
-1627.5
10
24.5
20
-1626
10
23.5
20
-1368
10
26
20
-1365.5
10
68
20
-1366.5
10
70.5
20
-1365
10
68.5
20
-1192
10
75
20
-1189.5
10
170
20
-1189.5
10
831
20
-1179.5
10
827.5
20
-640
10
826
20
-637.5
10
27
20
-638.5
10
25.5
20
-597
10
25.5
20
-239
10
28
20
-236.5
10
492
20
-236.5
10
491.5
20
-152
10
493
20
-150.5
10
559
20
-149.5
10
655
20
-150.5
10
655.5
20
-235
10
657
20
-236.5
10
672
20
-236.5
10
671.5
20
-151
10
674
20
-148.5
10
824.5
20
-149
10
823.5
20
-47
10
825
20
-45.5
10
1187
20
-46.5
10
1238.5
20
-269
10
1242.5
20
-634
10
1240
20
-636.5
10
1155
20
-636.5
10
1153.5
20
-638
10
1154.5
20
-721
10
1173
20
-721.5
10
1175.5
20
-724
10
1179.5
20
-1175
10
1819
20
-1171.5
10
1820.5
20
-1173
10
1822.5
20
-1342
10
1824
20
-1343.5
10
1857
20
-1343.5
10
1859.5
20
-1347
10
1859.5
20
-1444
10
1862.5
20
-1598
10
1824.5
20
-1600
10
1827.5
20
-1772
10
1826
20
-1773.5
10
1718
20
-1776.5
10
1142
20
-1786.5
10
1139.5
20
-1784
10
1138.5
20
-1705
10
1093
20
-1704.5
10
704
20
-1712.5
10
702.5
20
-1714
10
703.5
20
-1791
10
701
20
-1794.5
0
LWPOLYLINE
8
REFERENCE_STROKES
90
297
70
1
10
79
20
-1800.5
10
189
20
-1797.5
10
477
20
-1795.5
10
698
20
-1791.5
10
700.5
20
-1783
10
699.5
20
-1713
10
701
20
-1710.5
10
1082
20
-1701.5
10
1140
20
-1701.5
10
1141.5
20
-1703
10
1142.5
20
-1780
10
1144
20
-1782.5
10
1572
20
-1776.5
10
1816
20
-1771.5
10
1824.5
20
-1769
10
1821.5
20
-1600
10
1825
20
-1596.5
10
1858
20
-1596.5
10
1859.5
20
-1595
10
1855.5
20
-1347
10
1822
20
-1346.5
10
1820.5
20
-1345
10
1817
20
-1174.5
10
1178
20
-1178.5
10
1176.5
20
-1177
10
1172.5
20
-726
10
1171
20
-724.5
10
1153
20
-724.5
10
1151.5
20
-723
10
1150.5
20
-636
10
1153
20
-633.5
10
1235
20
-633.5
10
1239.5
20
-631
10
1235.5
20
-272
10
1187.5
20
-58
10
1184
20
-49.5
10
828
20
-48.5
10
826.5
20
-50
10
828
20
-149.5
10
830.5
20
-149
10
830.5
20
-54
10
832
20
-52.5
10
1007
20
-52.5
10
1011
20
-74.5
10
1013.5
20
-73
10
1012.5
20
-54
10
1014
20
-52.5
10
1099
20
-53.5
10
1099.5
20
-125
10
1097
20
-126.5
10
1018
20
-125.5
10
1015.5
20
-117
10
1014.5
20
-94
10
1011
20
-93.5
10
1012.5
20
-131
10
1015
20
-138.5
10
1017.5
20
-137
10
1017.5
20
-131
10
1020
20
-129.5
10
1194
20
-131.5
10
1195.5
20
-130
10
1194
20
-126.5
10
1106
20
-125.5
10
1104.5
20
-124
10
1103.5
20
-56
10
1105
20
-53.5
10
1181
20
-53.5
10
1229.5
20
-264
10
1228
20
-269.5
10
1215
20
-270.5
10
1026
20
-269.5
10
1023.5
20
-253
10
1018.5
20
-159
10
1017
20
-157.5
10
1014.5
20
-159
10
1020.5
20
-267
10
1023
20
-274.5
10
1230.5
20
-275
10
1231.5
20
-319
10
1229
20
-321.5
10
1026
20
-321.5
10
1024.5
20
-323
10
1024.5
20
-334
10
1026
20
-336.5
10
1028.5
20
-336
10
1029
20
-326.5
10
1229
20
-325.5
10
1231.5
20
-327
10
1233.5
20
-530
10
1174
20
-531.5
10
1173.5
20
-535
10
1221
20
-534.5
10
1233.5
20
-536
10
1235.5
20
-627
10
1233
20
-629.5
10
1152
20
-629.5
10
1150.5
20
-627
10
1150.5
20
-537
10
1154.5
20
-535
10
1154.5
20
-532
10
1024
20
-532.5
10
1023.5
20
-536
10
1096
20
-536.5
10
1096.5
20
-540
10
1099
20
-541.5
10
1102
20
-536.5
10
1144
20
-535.5
10
1146.5
20
-538
10
1146.5
20
-629
10
1116
20
-630.5
10
1101.5
20
-629
10
1100.5
20
-561
10
1098
20
-560.5
10
1096.5
20
-562
10
1097.5
20
-628
10
1096
20
-629.5
10
1001
20
-630.5
10
999.5
20
-628
10
999.5
20
-538
10
1004.5
20
-534
10
999.5
20
-530
10
999.5
20
-518
10
995.5
20
-517
10
995.5
20
-636
10
997
20
-637.5
10
1002
20
-634.5
10
1145
20
-633.5
10
1147.5
20
-638
10
1147.5
20
-723
10
1145
20
-724.5
10
1002
20
-725.5
10
1000.5
20
-724
10
1000.5
20
-675
10
997
20
-673.5
10
996.5
20
-724
10
994
20
-726.5
10
966
20
-726.5
10
964.5
20
-728
10
966
20
-730.5
10
977
20
-729.5
10
995
20
-730.5
10
996.5
20
-732
10
999.5
20
-1357
10
1003
20
-1358.5
10
1313
20
-1353.5
10
1850
20
-1350.5
10
1852.5
20
-1362
10
1852.5
20
-1416
10
1851
20
-1417.5
10
1727
20
-1418.5
10
1714.5
20
-1420
10
1716.5
20
-1592
10
1715
20
-1593.5
10
1147
20
-1600.5
10
1144.5
20
-1598
10
1144.5
20
-1489
10
1143
20
-1487.5
10
1004
20
-1489.5
10
1002.5
20
-1491
10
1003.5
20
-1698
10
1001
20
-1699.5
10
843
20
-1702.5
10
841.5
20
-1701
10
839.5
20
-1574
10
840.5
20
-1494
10
839
20
-1492.5
10
697
20
-1494.5
10
695.5
20
-1496
10
695.5
20
-1607
10
693
20
-1609.5
10
171
20
-1617.5
10
168.5
20
-1612
10
167.5
20
-1442
10
32
20
-1442.5
10
30.5
20
-1420
10
30.5
20
-1375
10
32
20
-1373.5
10
501
20
-1367.5
10
588
20
-1364.5
10
830
20
-1361.5
10
839.5
20
-1360
10
835.5
20
-732
10
837
20
-730.5
10
870
20
-730.5
10
870.5
20
-727
10
836
20
-726.5
10
834.5
20
-724
10
833.5
20
-596
10
832
20
-594.5
10
829.5
20
-596
10
830.5
20
-629
10
829
20
-630.5
10
672
20
-631.5
10
644
20
-630.5
10
642.5
20
-629
10
641.5
20
-563
10
644
20
-560.5
10
764
20
-561.5
10
807.5
20
-560
10
807.5
20
-558
10
804
20
-556.5
10
715
20
-556.5
10
716
20
-551.5
10
713
20
-551.5
10
711
20
-556.5
10
644
20
-556.5
10
641.5
20
-554
10
640.5
20
-485
10
643
20
-482.5
10
827
20
-483.5
10
828.5
20
-485
10
829.5
20
-521
10
832.5
20
-521
10
831.5
20
-459
10
787
20
-459.5
10
785.5
20
-457
10
778.5
20
-347
10
777
20
-344.5
10
774.5
20
-346
10
781
20
-459.5
10
591
20
-469.5
10
589.5
20
-471
10
590
20
-473.5
10
635
20
-471.5
10
636.5
20
-473
10
637
20
-571.5
10
568
20
-571.5
10
565.5
20
-570
10
564.5
20
-476
10
569
20
-474.5
10
569.5
20
-471
10
558
20
-470.5
10
556.5
20
-475
10
559.5
20
-476
10
560.5
20
-509
10
559
20
-510.5
10
518
20
-510.5
10
516.5
20
-512
10
517.5
20
-591
10
516
20
-592.5
10
415
20
-592.5
10
413.5
20
-591
10
412.5
20
-485
10
415
20
-481.5
10
535
20
-476.5
10
536.5
20
-473
10
513
20
-472.5
10
413
20
-477.5
10
408.5
20
-480
10
409.5
20
-603
10
411
20
-605.5
10
413.5
20
-605
10
415
20
-597.5
10
521
20
-597.5
10
521.5
20
-578
10
523
20
-576.5
10
637
20
-576.5
10
638.5
20
-579
10
638
20
-630.5
10
416
20
-630.5
10
413.5
20
-625
10
411
20
-624.5
10
408
20
-630.5
10
35
20
-631.5
10
33.5
20
-629
10
32.5
20
-393
10
33.5
20
-245
10
36
20
-243.5
10
767
20
-244.5
10
769.5
20
-261
10
771.5
20
-305
10
775
20
-307.5
10
772.5
20
-245
10
830
20
-244.5
10
831.5
20
-241
10
811
20
-239.5
10
31
20
-239.5
10
29.5
20
-241
10
28.5
20
-257
10
29.5
20
-634
10
31
20
-635.5
10
826
20
-634.5
10
829
20
-635.5
10
830.5
20
-639
10
834.5
20
-1181
10
833
20
-1182.5
10
178
20
-1192.5
10
79
20
-1192.5
10
72.5
20
-1194
10
73.5
20
-1367
10
69
20
-1369.5
10
28
20
-1369.5
10
26.5
20
-1371
10
27.5
20
-1623
10
72
20
-1623.5
10
75.5
20
-1627
10
76.5
20
-1798
0
LWPOLYLINE
8
REFERENCE_STROKES
90
155
70
0
10
992
20
-723.5
10
993.5
20
-722
10
992.5
20
-672
10
994
20
-670.5
10
1012.5
20
-670
10
1009
20
-661.5
10
997.5
20
-657
10
998
20
-654.5
10
1006
20
-652.5
10
1010.5
20
-648
10
1012.5
20
-641
10
994
20
-640.5
10
992.5
20
-639
10
992.5
20
-518
10
991
20
-516.5
10
981
20
-516.5
10
979.5
20
-511
10
981.5
20
-506
10
991.5
20
-498
10
992.5
20
-456
10
1028.5
20
-455
10
1023.5
20
-357
10
1012.5
20
-349
10
1009.5
20
-339
10
1021.5
20
-336
10
1020.5
20
-321
10
1022
20
-318.5
10
1227
20
-318.5
10
1228.5
20
-317
10
1227.5
20
-278
10
1019
20
-277.5
10
1017.5
20
-275
10
1011.5
20
-156
10
1023
20
-152.5
10
1027.5
20
-148
10
1029.5
20
-141
10
1012
20
-141.5
10
1010.5
20
-140
10
1007.5
20
-94
10
1003
20
-91.5
10
994.5
20
-81
10
996
20
-74.5
10
1006.5
20
-74
10
1005.5
20
-56
10
835
20
-55.5
10
833.5
20
-57
10
834.5
20
-246
10
833
20
-247.5
10
776
20
-246.5
10
775.5
20
-261
10
778.5
20
-304
10
780
20
-307.5
10
791
20
-306.5
10
792.5
20
-308
10
792.5
20
-315
10
784.5
20
-326
10
794.5
20
-337
10
793
20
-343.5
10
781.5
20
-345
10
788.5
20
-456
10
832
20
-454.5
10
835.5
20
-457
10
836.5
20
-522
10
835
20
-524.5
10
825.5
20
-523
10
825
20
-486.5
10
791
20
-485.5
10
788
20
-502.5
10
710
20
-502.5
10
707.5
20
-501
10
707.5
20
-487
10
706
20
-485.5
10
645
20
-485.5
10
643.5
20
-492
10
644.5
20
-552
10
646
20
-553.5
10
663
20
-554.5
10
664.5
20
-553
10
663.5
20
-541
10
669
20
-536.5
10
675
20
-536.5
10
681
20
-539.5
10
688
20
-536.5
10
694
20
-536.5
10
699
20
-539.5
10
711
20
-536.5
10
720
20
-539.5
10
725
20
-535.5
10
731
20
-535.5
10
736
20
-538.5
10
743
20
-536.5
10
753
20
-538.5
10
755.5
20
-542
10
754.5
20
-553
10
756
20
-554.5
10
809
20
-553.5
10
811.5
20
-556
10
810
20
-563.5
10
756
20
-563.5
10
754.5
20
-568
10
756.5
20
-575
10
750
20
-580.5
10
742
20
-580.5
10
739
20
-577.5
10
731
20
-580.5
10
724
20
-580.5
10
720
20
-577.5
10
714
20
-580.5
10
706
20
-580.5
10
702
20
-577.5
10
695
20
-580.5
10
688
20
-580.5
10
684
20
-577.5
10
677
20
-580.5
10
670
20
-580.5
10
663.5
20
-574
10
664
20
-563.5
10
646
20
-563.5
10
644.5
20
-565
10
645.5
20
-627
10
648
20
-628.5
10
708
20
-628.5
10
709.5
20
-627
10
708.5
20
-614
10
712
20
-610.5
10
789
20
-610.5
10
791.5
20
-612
10
791.5
20
-627
10
793
20
-628.5
10
826
20
-628.5
10
827.5
20
-626
10
826.5
20
-592
10
829
20
-590.5
10
835
20
-591.5
10
836.5
20
-593
10
839
20
-723.5
10
870
20
-723.5
10
871.5
20
-722
10
870.5
20
-712
10
872
20
-710.5
10
880
20
-711.5
10
890
20
-719.5
10
896
20
-712.5
10
905
20
-709.5
10
907.5
20
-712
10
908
20
-723.5
10
928
20
-723.5
10
928.5
20
-712
10
931
20
-709.5
10
940
20
-712.5
10
946
20
-719.5
10
952
20
-713.5
10
962
20
-709.5
10
965.5
20
-713
10
966
20
-723.5
0
LWPOLYLINE
8
REFERENCE_STROKES
90
12
70
0
10
1096.5
20
-123
10
1096.5
20
-57
10
1095
20
-55.5
10
1017
20
-55.5
10
1015.5
20
-57
10
1016.5
20
-76
10
998.5
20
-78
10
998.5
20
-82
10
1003
20
-87.5
10
1008
20
-90.5
10
1017.5
20
-91
10
1020
20
-122.5
0
LWPOLYLINE
8
REFERENCE_STROKES
90
9
70
0
10
1193.5
20
-123
10
1179
20
-56.5
10
1109
20
-55.5
10
1107.5
20
-57
10
1107.5
20
-79
10
1124
20
-82.5
10
1132
20
-87.5
10
1146.5
20
-104
10
1152
20
-123.5
0
LWPOLYLINE
8
REFERENCE_STROKES
90
23
70
0
10
1883
20
-82.5
10
1883
20
-189.5
10
1870
20
-192.5
10
1857
20
-190.5
10
1849
20
-187.5
10
1835
20
-176.5
10
1825
20
-171.5
10
1786
20
-161.5
10
1742
20
-156.5
10
1691
20
-155.5
10
1689.5
20
-154
10
1691
20
-151.5
10
1721
20
-136.5
10
1758
20
-120.5
10
1771
20
-104.5
10
1789
20
-107.5
10
1800
20
-92.5
10
1818
20
-97.5
10
1831
20
-80.5
10
1851
20
-87.5
10
1859.5
20
-76
10
1865
20
-73.5
10
1879
20
-82.5
0
LWPOLYLINE
8
REFERENCE_STROKES
90
12
70
1
10
1045
20
-94.5
10
1036
20
-94.5
10
1034.5
20
-93
10
1042.5
20
-84
10
1041
20
-81.5
10
1036
20
-83.5
10
1037
20
-78.5
10
1042
20
-77.5
10
1045.5
20
-80
10
1045.5
20
-85
10
1041.5
20
-90
10
1045.5
20
-92
0
LWPOLYLINE
8
REFERENCE_STROKES
90
31
70
0
10
1082.5
20
-92
10
1080
20
-94.5
10
1074
20
-94.5
10
1071.5
20
-91
10
1078
20
-91.5
10
1078.5
20
-88
10
1071
20
-86.5
10
1067
20
-94.5
10
1062
20
-94.5
10
1057
20
-85.5
10
1053.5
20
-91
10
1057
20
-91.5
10
1057.5
20
-94
10
1049
20
-94.5
10
1047.5
20
-91
10
1054.5
20
-85
10
1053
20
-81.5
10
1048
20
-82.5
10
1047.5
20
-81
10
1053
20
-77.5
10
1056
20
-78.5
10
1058
20
-82.5
10
1062
20
-78.5
10
1068
20
-78.5
10
1071
20
-81.5
10
1073
20
-78.5
10
1080
20
-77.5
10
1081.5
20
-81
10
1076
20
-81.5
10
1075.5
20
-83
10
1082.5
20
-87
0
LWPOLYLINE
8
REFERENCE_STROKES
90
5
70
0
10
1860.5
20
-85
10
1871
20
-83.5
10
1871.5
20
-82
10
1867
20
-78.5
10
1864
20
-78.5
0
LWPOLYLINE
8
REFERENCE_STROKES
90
4
70
1
10
1066
20
-91.5
10
1066.5
20
-83
10
1064
20
-81.5
10
1062.5
20
-90
0
LWPOLYLINE
8
REFERENCE_STROKES
90
5
70
0
10
1107
20
-110.5
10
1109.5
20
-107
10
1114.5
20
-86
10
1113
20
-82.5
10
1107.5
20
-83
0
LWPOLYLINE
8
REFERENCE_STROKES
90
4
70
0
10
1111
20
-111.5
10
1124.5
20
-89
10
1121
20
-84.5
10
1118
20
-84.5
0
LWPOLYLINE
8
REFERENCE_STROKES
90
6
70
0
10
1840.5
20
-90
10
1840.5
20
-88
10
1836
20
-85.5
10
1833
20
-85.5
10
1831.5
20
-88
10
1832
20
-90.5
0
LWPOLYLINE
8
REFERENCE_STROKES
90
5
70
0
10
1114
20
-114.5
10
1132.5
20
-97
10
1133.5
20
-93
10
1128
20
-89.5
10
1125.5
20
-92
0
LWPOLYLINE
8
REFERENCE_STROKES
90
4
70
0
10
1118.5
20
-115
10
1140
20
-103.5
10
1139.5
20
-99
10
1136
20
-96.5
0
LWPOLYLINE
8
REFERENCE_STROKES
90
4
70
1
10
1808.5
20
-100
10
1806
20
-97.5
10
1801.5
20
-99
10
1806
20
-101.5
0
LWPOLYLINE
8
REFERENCE_STROKES
90
5
70
0
10
1119.5
20
-119
10
1123
20
-119.5
10
1144
20
-113.5
10
1145.5
20
-109
10
1142
20
-105.5
0
LWPOLYLINE
8
REFERENCE_STROKES
90
35
70
0
10
1880
20
-105.5
10
1873
20
-108.5
10
1863.5
20
-118
10
1855
20
-131.5
10
1852.5
20
-129
10
1851.5
20
-120
10
1849
20
-119.5
10
1841.5
20
-132
10
1837.5
20
-146
10
1837.5
20
-161
10
1844.5
20
-169
10
1844.5
20
-172
10
1848
20
-176.5
10
1852
20
-176.5
10
1852.5
20
-175
10
1847.5
20
-166
10
1847.5
20
-159
10
1850
20
-157.5
10
1854.5
20
-166
10
1857.5
20
-167
10
1860.5
20
-145
10
1864.5
20
-137
10
1868
20
-134.5
10
1869.5
20
-136
10
1865.5
20
-146
10
1865.5
20
-166
10
1869
20
-168.5
10
1875
20
-167.5
10
1875.5
20
-171
10
1864.5
20
-180
10
1876
20
-181.5
10
1883
20
-179.5
10
1883
20
-124.5
10
1879
20
-126.5
10
1877.5
20
-123
0
LWPOLYLINE
8
REFERENCE_STROKES
90
5
70
0
10
1147.5
20
-117
10
1145
20
-115.5
10
1121
20
-121.5
10
1120.5
20
-123
10
1147
20
-123.5
0
LWPOLYLINE
8
REFERENCE_STROKES
90
17
70
0
10
1723.5
20
-151
10
1728
20
-150.5
10
1737
20
-144.5
10
1747
20
-144.5
10
1747.5
20
-142
10
1754
20
-136.5
10
1764
20
-137.5
10
1763.5
20
-135
10
1767.5
20
-131
10
1759
20
-133.5
10
1744
20
-132.5
10
1744
20
-134.5
10
1749.5
20
-136
10
1748
20
-138.5
10
1738
20
-142.5
10
1729
20
-141.5
10
1730.5
20
-145
0
LWPOLYLINE
8
REFERENCE_STROKES
90
13
70
1
10
1226.5
20
-266
10
1196
20
-133.5
10
1022
20
-132.5
10
1020.5
20
-134
10
1021
20
-137.5
10
1031
20
-137.5
10
1033.5
20
-140
10
1033.5
20
-144
10
1029.5
20
-151
10
1021.5
20
-157
10
1027.5
20
-264
10
1029
20
-266.5
10
1224
20
-267.5
0
LWPOLYLINE
8
REFERENCE_STROKES
90
12
70
0
10
1748.5
20
-153
10
1752
20
-153.5
10
1761
20
-147.5
10
1768
20
-147.5
10
1770
20
-143.5
10
1781
20
-139.5
10
1782.5
20
-137
10
1771
20
-137.5
10
1769
20
-141.5
10
1761
20
-145.5
10
1755
20
-145.5
10
1754.5
20
-148
0
LWPOLYLINE
8
REFERENCE_STROKES
90
5
70
0
10
1870
20
-164.5
10
1868.5
20
-163
10
1873.5
20
-151
10
1883
20
-139.5
10
1883
20
-157.5
0
LWPOLYLINE
8
REFERENCE_STROKES
90
4
70
0
10
1773.5
20
-154
10
1777
20
-153.5
10
1782.5
20
-149
10
1776
20
-149.5
0
LWPOLYLINE
8
REFERENCE_STROKES
90
6
70
0
10
682
20
-193.5
10
683.5
20
-192
10
683.5
20
-153
10
678
20
-151.5
10
675.5
20
-153
10
675.5
20
-192
0
LWPOLYLINE
8
REFERENCE_STROKES
90
6
70
0
10
694
20
-193.5
10
695.5
20
-190
10
694.5
20
-153
10
689
20
-151.5
10
686.5
20
-153
10
686.5
20
-192
0
LWPOLYLINE
8
REFERENCE_STROKES
90
7
70
0
10
705
20
-193.5
10
706.5
20
-192
10
706.5
20
-155
10
705
20
-152.5
10
699
20
-151.5
10
697.5
20
-153
10
697.5
20
-192
0
LWPOLYLINE
8
REFERENCE_STROKES
90
6
70
0
10
511
20
-194.5
10
515.5
20
-193
10
515.5
20
-155
10
508
20
-152.5
10
506.5
20
-154
10
506.5
20
-193
0
LWPOLYLINE
8
REFERENCE_STROKES
90
5
70
0
10
526
20
-193.5
10
526.5
20
-154
10
520
20
-152.5
10
518.5
20
-154
10
518.5
20
-193
0
LWPOLYLINE
8
REFERENCE_STROKES
90
6
70
1
10
531
20
-194.5
10
538.5
20
-193
10
538.5
20
-154
10
535
20
-152.5
10
529.5
20
-154
10
529.5
20
-193
0
LWPOLYLINE
8
REFERENCE_STROKES
90
6
70
0
10
546
20
-194.5
10
549.5
20
-193
10
549.5
20
-154
10
543
20
-152.5
10
541.5
20
-154
10
541.5
20
-193
0
LWPOLYLINE
8
REFERENCE_STROKES
90
7
70
0
10
560
20
-193.5
10
561.5
20
-192
10
561.5
20
-155
10
558
20
-152.5
10
554
20
-152.5
10
552.5
20
-154
10
552.5
20
-192
0
LWPOLYLINE
8
REFERENCE_STROKES
90
5
70
0
10
572
20
-193.5
10
572.5
20
-154
10
566
20
-152.5
10
564.5
20
-154
10
564.5
20
-193
0
LWPOLYLINE
8
REFERENCE_STROKES
90
5
70
0
10
583
20
-193.5
10
583.5
20
-154
10
578
20
-152.5
10
575.5
20
-155
10
575.5
20
-192
0
LWPOLYLINE
8
REFERENCE_STROKES
90
5
70
0
10
595
20
-193.5
10
594.5
20
-154
10
589
20
-152.5
10
586.5
20
-154
10
586.5
20
-192
0
LWPOLYLINE
8
REFERENCE_STROKES
90
6
70
0
10
606
20
-193.5
10
607.5
20
-191
10
606.5
20
-154
10
600
20
-152.5
10
598.5
20
-154
10
598.5
20
-193
0
LWPOLYLINE
8
REFERENCE_STROKES
90
6
70
0
10
618
20
-193.5
10
618.5
20
-155
10
616
20
-152.5
10
611
20
-152.5
10
609.5
20
-154
10
610.5
20
-193
0
LWPOLYLINE
8
REFERENCE_STROKES
90
6
70
0
10
629
20
-193.5
10
630.5
20
-192
10
629.5
20
-154
10
623
20
-152.5
10
621.5
20
-154
10
621.5
20
-193
0
LWPOLYLINE
8
REFERENCE_STROKES
90
7
70
0
10
637
20
-194.5
10
641.5
20
-193
10
641.5
20
-155
10
639
20
-152.5
10
634
20
-152.5
10
632.5
20
-154
10
632.5
20
-192
0
LWPOLYLINE
8
REFERENCE_STROKES
90
5
70
0
10
652
20
-193.5
10
652.5
20
-154
10
646
20
-152.5
10
644.5
20
-154
10
644.5
20
-193
0
LWPOLYLINE
8
REFERENCE_STROKES
90
5
70
0
10
716
20
-193.5
10
717.5
20
-192
10
717.5
20
-153
10
710
20
-152.5
10
709.5
20
-193
0
LWPOLYLINE
8
REFERENCE_STROKES
90
6
70
0
10
728
20
-193.5
10
729.5
20
-192
10
729.5
20
-158
10
728
20
-152.5
10
721
20
-152.5
10
720.5
20
-192
0
LWPOLYLINE
8
REFERENCE_STROKES
90
6
70
0
10
739
20
-193.5
10
740.5
20
-192
10
740.5
20
-154
10
733
20
-152.5
10
731.5
20
-154
10
732.5
20
-193
0
LWPOLYLINE
8
REFERENCE_STROKES
90
4
70
0
10
751
20
-193.5
10
751.5
20
-153
10
744
20
-152.5
10
743.5
20
-193
0
LWPOLYLINE
8
REFERENCE_STROKES
90
5
70
0
10
762
20
-193.5
10
763.5
20
-192
10
763.5
20
-154
10
755
20
-152.5
10
754.5
20
-192
0
LWPOLYLINE
8
REFERENCE_STROKES
90
4
70
0
10
774
20
-193.5
10
774.5
20
-154
10
767
20
-152.5
10
766.5
20
-193
0
LWPOLYLINE
8
REFERENCE_STROKES
90
5
70
0
10
784
20
-193.5
10
785.5
20
-192
10
785.5
20
-154
10
778
20
-152.5
10
777.5
20
-193
0
LWPOLYLINE
8
REFERENCE_STROKES
90
4
70
0
10
796
20
-193.5
10
796.5
20
-153
10
789
20
-152.5
10
788.5
20
-193
0
LWPOLYLINE
8
REFERENCE_STROKES
90
5
70
0
10
807
20
-193.5
10
808.5
20
-191
10
807.5
20
-153
10
800
20
-152.5
10
799.5
20
-192
0
LWPOLYLINE
8
REFERENCE_STROKES
90
5
70
0
10
819
20
-193.5
10
819.5
20
-154
10
812
20
-152.5
10
810.5
20
-154
10
810.5
20
-192
0
LWPOLYLINE
8
REFERENCE_STROKES
90
6
70
0
10
830
20
-193.5
10
831.5
20
-192
10
831.5
20
-155
10
830
20
-152.5
10
823
20
-152.5
10
822.5
20
-193
0
LWPOLYLINE
8
REFERENCE_STROKES
90
4
70
0
10
503
20
-193.5
10
503.5
20
-154
10
496
20
-153.5
10
495.5
20
-193
0
LWPOLYLINE
8
REFERENCE_STROKES
90
24
70
1
10
1113.5
20
-206
10
1111
20
-207.5
10
1086
20
-207.5
10
1083.5
20
-204
10
1092.5
20
-195
10
1093.5
20
-191
10
1090
20
-189.5
10
1085
20
-192.5
10
1083.5
20
-190
10
1088
20
-185.5
10
1094
20
-185.5
10
1097.5
20
-190
10
1097.5
20
-194
10
1090.5
20
-203
10
1099
20
-204.5
10
1108.5
20
-194
10
1107
20
-189.5
10
1102
20
-192.5
10
1099.5
20
-190
10
1104
20
-185.5
10
1111
20
-186.5
10
1112.5
20
-195
10
1105.5
20
-203
10
1112
20
-203.5
0
LWPOLYLINE
8
REFERENCE_STROKES
90
15
70
0
10
1144.5
20
-204
10
1140
20
-207.5
10
1135
20
-207.5
10
1129
20
-202.5
10
1127
20
-205.5
10
1121
20
-207.5
10
1115.5
20
-203
10
1114.5
20
-192
10
1116.5
20
-188
10
1121
20
-185.5
10
1126
20
-186.5
10
1129
20
-190.5
10
1133
20
-186.5
10
1139
20
-185.5
10
1144.5
20
-190
0
LWPOLYLINE
8
REFERENCE_STROKES
90
6
70
1
10
1123
20
-203.5
10
1125.5
20
-200
10
1124.5
20
-191
10
1121
20
-189.5
10
1118.5
20
-193
10
1119.5
20
-202
0
LWPOLYLINE
8
REFERENCE_STROKES
90
13
70
1
10
1139
20
-203.5
10
1140.5
20
-201
10
1139
20
-198.5
10
1135.5
20
-198
10
1135.5
20
-195
10
1138
20
-194.5
10
1139.5
20
-191
10
1137
20
-189.5
10
1133
20
-192.5
10
1130
20
-191.5
10
1129.5
20
-201
10
1133
20
-200.5
10
1136
20
-203.5
0
LWPOLYLINE
8
REFERENCE_STROKES
90
4
70
0
10
684
20
-235.5
10
684.5
20
-197
10
676
20
-195.5
10
675.5
20
-235
0
LWPOLYLINE
8
REFERENCE_STROKES
90
7
70
0
10
694
20
-235.5
10
695.5
20
-234
10
695.5
20
-198
10
694
20
-195.5
10
688
20
-195.5
10
686.5
20
-197
10
687.5
20
-235
0
LWPOLYLINE
8
REFERENCE_STROKES
90
5
70
0
10
706
20
-235.5
10
706.5
20
-197
10
699
20
-195.5
10
697.5
20
-197
10
697.5
20
-234
0
LWPOLYLINE
8
REFERENCE_STROKES
90
5
70
0
10
718
20
-235.5
10
718.5
20
-198
10
716
20
-195.5
10
710
20
-195.5
10
709.5
20
-235
0
LWPOLYLINE
8
REFERENCE_STROKES
90
5
70
0
10
729
20
-235.5
10
729.5
20
-197
10
722
20
-195.5
10
720.5
20
-198
10
721.5
20
-235
0
LWPOLYLINE
8
REFERENCE_STROKES
90
5
70
0
10
738
20
-236.5
10
740.5
20
-235
10
740.5
20
-197
10
733
20
-195.5
10
732.5
20
-235
0
LWPOLYLINE
8
REFERENCE_STROKES
90
6
70
0
10
751
20
-236.5
10
752.5
20
-235
10
751.5
20
-197
10
745
20
-195.5
10
743.5
20
-197
10
743.5
20
-235
0
LWPOLYLINE
8
REFERENCE_STROKES
90
6
70
0
10
762
20
-236.5
10
763.5
20
-235
10
763.5
20
-197
10
756
20
-195.5
10
754.5
20
-197
10
755.5
20
-235
0
LWPOLYLINE
8
REFERENCE_STROKES
90
5
70
0
10
785
20
-236.5
10
785.5
20
-197
10
779
20
-195.5
10
777.5
20
-197
10
777.5
20
-235
0
LWPOLYLINE
8
REFERENCE_STROKES
90
4
70
0
10
503
20
-236.5
10
503.5
20
-198
10
496
20
-196.5
10
495.5
20
-235
0
LWPOLYLINE
8
REFERENCE_STROKES
90
5
70
0
10
514
20
-236.5
10
515.5
20
-235
10
515.5
20
-198
10
507
20
-196.5
10
506.5
20
-235
0
LWPOLYLINE
8
REFERENCE_STROKES
90
4
70
0
10
526
20
-236.5
10
526.5
20
-197
10
519
20
-196.5
10
518.5
20
-235
0
LWPOLYLINE
8
REFERENCE_STROKES
90
6
70
0
10
537
20
-236.5
10
538.5
20
-235
10
538.5
20
-197
10
530
20
-196.5
10
529.5
20
-234
10
531
20
-236.5
0
LWPOLYLINE
8
REFERENCE_STROKES
90
5
70
0
10
549
20
-236.5
10
550.5
20
-235
10
549.5
20
-197
10
542
20
-196.5
10
541.5
20
-235
0
LWPOLYLINE
8
REFERENCE_STROKES
90
6
70
0
10
560
20
-236.5
10
561.5
20
-235
10
561.5
20
-198
10
553
20
-196.5
10
552.5
20
-234
10
554
20
-236.5
0
LWPOLYLINE
8
REFERENCE_STROKES
90
5
70
0
10
572
20
-236.5
10
573.5
20
-235
10
572.5
20
-197
10
565
20
-196.5
10
564.5
20
-235
0
LWPOLYLINE
8
REFERENCE_STROKES
90
7
70
0
10
583
20
-236.5
10
584.5
20
-234
10
584.5
20
-200
10
583
20
-196.5
10
577
20
-196.5
10
575.5
20
-198
10
576.5
20
-235
0
LWPOLYLINE
8
REFERENCE_STROKES
90
7
70
0
10
594
20
-236.5
10
595.5
20
-235
10
595.5
20
-198
10
588
20
-196.5
10
586.5
20
-198
10
586.5
20
-234
10
588
20
-236.5
0
LWPOLYLINE
8
REFERENCE_STROKES
90
5
70
0
10
606
20
-236.5
10
607.5
20
-235
10
607.5
20
-198
10
599
20
-196.5
10
598.5
20
-235
0
LWPOLYLINE
8
REFERENCE_STROKES
90
6
70
0
10
617
20
-236.5
10
618.5
20
-235
10
618.5
20
-198
10
611
20
-196.5
10
609.5
20
-198
10
610.5
20
-235
0
LWPOLYLINE
8
REFERENCE_STROKES
90
5
70
0
10
629
20
-236.5
10
630.5
20
-235
10
630.5
20
-198
10
622
20
-196.5
10
621.5
20
-235
0
LWPOLYLINE
8
REFERENCE_STROKES
90
6
70
0
10
640
20
-236.5
10
641.5
20
-235
10
641.5
20
-198
10
634
20
-196.5
10
632.5
20
-198
10
633.5
20
-236
0
LWPOLYLINE
8
REFERENCE_STROKES
90
5
70
0
10
651
20
-236.5
10
652.5
20
-235
10
652.5
20
-197
10
645
20
-196.5
10
644.5
20
-235
0
LWPOLYLINE
8
REFERENCE_STROKES
90
4
70
0
10
774
20
-236.5
10
774.5
20
-197
10
767
20
-196.5
10
766.5
20
-235
0
LWPOLYLINE
8
REFERENCE_STROKES
90
6
70
0
10
796
20
-236.5
10
797.5
20
-235
10
797.5
20
-199
10
796
20
-196.5
10
789
20
-196.5
10
788.5
20
-235
0
LWPOLYLINE
8
REFERENCE_STROKES
90
7
70
0
10
807
20
-236.5
10
808.5
20
-235
10
808.5
20
-198
10
801
20
-196.5
10
799.5
20
-198
10
799.5
20
-233
10
801
20
-236.5
0
LWPOLYLINE
8
REFERENCE_STROKES
90
6
70
0
10
819
20
-236.5
10
820.5
20
-235
10
819.5
20
-197
10
812
20
-196.5
10
810.5
20
-198
10
811.5
20
-236
0
LWPOLYLINE
8
REFERENCE_STROKES
90
6
70
0
10
831
20
-236.5
10
831.5
20
-198
10
824
20
-196.5
10
822.5
20
-198
10
822.5
20
-234
10
824
20
-236.5
0
LWPOLYLINE
8
REFERENCE_STROKES
90
16
70
0
10
1769
20
-230.5
10
1759.5
20
-229
10
1757.5
20
-206
10
1762
20
-202.5
10
1770
20
-202.5
10
1776.5
20
-207
10
1774
20
-211.5
10
1771.5
20
-211
10
1770
20
-206.5
10
1762.5
20
-207
10
1763.5
20
-226
10
1765
20
-227.5
10
1770.5
20
-226
10
1772
20
-216.5
10
1775.5
20
-218
10
1775.5
20
-226
0
LWPOLYLINE
8
REFERENCE_STROKES
90
11
70
0
10
1798
20
-230.5
10
1794.5
20
-230
10
1791
20
-218.5
10
1786.5
20
-220
10
1787.5
20
-228
10
1782.5
20
-229
10
1782
20
-203.5
10
1794
20
-202.5
10
1798.5
20
-206
10
1798.5
20
-214
10
1796.5
20
-217
0
LWPOLYLINE
8
REFERENCE_STROKES
90
15
70
1
10
1820
20
-230.5
10
1806
20
-230.5
10
1804.5
20
-229
10
1805
20
-203.5
10
1820
20
-202.5
10
1821.5
20
-204
10
1819
20
-207.5
10
1812
20
-207.5
10
1809.5
20
-210
10
1812
20
-214.5
10
1818.5
20
-214
10
1817
20
-217.5
10
1810.5
20
-219
10
1809.5
20
-225
10
1819
20
-227.5
0
LWPOLYLINE
8
REFERENCE_STROKES
90
15
70
1
10
1840
20
-231.5
10
1837
20
-229.5
10
1827.5
20
-229
10
1826.5
20
-205
10
1828
20
-203.5
10
1841.5
20
-204
10
1839
20
-207.5
10
1830.5
20
-209
10
1833
20
-214.5
10
1839.5
20
-216
10
1831.5
20
-220
10
1831.5
20
-226
10
1834
20
-227.5
10
1840
20
-226.5
10
1841.5
20
-228
0
LWPOLYLINE
8
REFERENCE_STROKES
90
23
70
0
10
1739
20
-315.5
10
1702
20
-316.5
10
1684.5
20
-302
10
1684.5
20
-217
10
1698
20
-203.5
10
1738
20
-203.5
10
1753.5
20
-217
10
1753.5
20
-236
10
1752
20
-237.5
10
1734
20
-237.5
10
1731
20
-221.5
10
1699.5
20
-223
10
1707.5
20
-229
10
1709
20
-297.5
10
1732.5
20
-297
10
1732.5
20
-277
10
1727
20
-275.5
10
1725.5
20
-273
10
1725.5
20
-260
10
1727
20
-257.5
10
1752
20
-257.5
10
1753.5
20
-259
10
1753.5
20
-304
0
LWPOLYLINE
8
REFERENCE_STROKES
90
15
70
1
10
1867
20
-231.5
10
1861.5
20
-227
10
1861.5
20
-222
10
1857
20
-214.5
10
1854.5
20
-215
10
1854.5
20
-231
10
1850.5
20
-230
10
1849.5
20
-206
10
1851
20
-203.5
10
1857.5
20
-204
10
1862
20
-218.5
10
1864.5
20
-217
10
1864.5
20
-204
10
1869.5
20
-204
10
1869.5
20
-229
0
LWPOLYLINE
8
REFERENCE_STROKES
90
5
70
1
10
1789
20
-215.5
10
1793.5
20
-212
10
1791
20
-206.5
10
1786.5
20
-209
10
1786.5
20
-213
0
LWPOLYLINE
8
REFERENCE_STROKES
90
16
70
0
10
1817
20
-316.5
10
1799
20
-316.5
10
1795
20
-299.5
10
1785
20
-300.5
10
1782.5
20
-303
10
1781.5
20
-313
10
1779
20
-316.5
10
1762
20
-316.5
10
1760.5
20
-315
10
1774.5
20
-241
10
1768.5
20
-238
10
1770
20
-235.5
10
1802
20
-235.5
10
1803.5
20
-237
10
1805.5
20
-253
10
1818.5
20
-310
0
LWPOLYLINE
8
REFERENCE_STROKES
90
20
70
1
10
1856
20
-316.5
10
1831.5
20
-316
10
1831.5
20
-313
10
1835.5
20
-308
10
1834.5
20
-254
10
1831
20
-252.5
10
1826
20
-254.5
10
1820
20
-260.5
10
1817.5
20
-259
10
1817.5
20
-241
10
1820
20
-235.5
10
1868
20
-235.5
10
1869.5
20
-238
10
1868.5
20
-260
10
1867
20
-260.5
10
1860
20
-252.5
10
1855
20
-252.5
10
1852.5
20
-255
10
1853.5
20
-307
10
1857.5
20
-314
0
LWPOLYLINE
8
REFERENCE_STROKES
90
4
70
0
10
1883
20
-309.5
10
1880.5
20
-306
10
1880.5
20
-245
10
1883
20
-242.5
0
LWPOLYLINE
8
REFERENCE_STROKES
90
40
70
0
10
36.5
20
-627
10
38
20
-628.5
10
406
20
-627.5
10
408
20
-621.5
10
426.5
20
-621
10
422
20
-612.5
10
414
20
-608.5
10
408
20
-608.5
10
406.5
20
-606
10
405.5
20
-477
10
407
20
-475.5
10
537
20
-468.5
10
539.5
20
-471
10
541.5
20
-480
10
547
20
-485.5
10
553
20
-487.5
10
554.5
20
-484
10
552.5
20
-470
10
555
20
-467.5
10
572
20
-467.5
10
573.5
20
-485
10
576
20
-486.5
10
584.5
20
-479
10
588
20
-466.5
10
778
20
-457.5
10
771.5
20
-343
10
790.5
20
-340
10
789.5
20
-335
10
784
20
-329.5
10
775.5
20
-327
10
776
20
-324.5
10
781
20
-323.5
10
786.5
20
-319
10
789.5
20
-311
10
771
20
-311.5
10
768.5
20
-309
10
765.5
20
-249
10
763
20
-246.5
10
38
20
-246.5
10
36.5
20
-248
0
LWPOLYLINE
8
REFERENCE_STROKES
90
4
70
0
10
1785
20
-284.5
10
1794.5
20
-282
10
1789
20
-258.5
10
1786.5
20
-262
0
LWPOLYLINE
8
REFERENCE_STROKES
90
33
70
0
10
1008
20
-548.5
10
1014
20
-546.5
10
1019.5
20
-539
10
1019.5
20
-531
10
1022
20
-528.5
10
1156
20
-528.5
10
1157.5
20
-530
10
1157.5
20
-547
10
1161
20
-547.5
10
1167.5
20
-543
10
1172
20
-528.5
10
1230
20
-527.5
10
1228.5
20
-330
10
1227
20
-328.5
10
1032
20
-329.5
10
1031
20
-339.5
10
1014
20
-340.5
10
1013.5
20
-344
10
1019
20
-350.5
10
1023
20
-352.5
10
1030
20
-352.5
10
1033.5
20
-356
10
1039.5
20
-464
10
1038
20
-465.5
10
1003
20
-465.5
10
1002.5
20
-499
10
991
20
-501.5
10
983.5
20
-510
10
984
20
-513.5
10
1000
20
-513.5
10
1002.5
20
-516
10
1002.5
20
-528
10
1007.5
20
-531
0
LWPOLYLINE
8
REFERENCE_STROKES
90
7
70
0
10
1883
20
-420.5
10
1732
20
-420.5
10
1686
20
-422.5
10
1684.5
20
-421
10
1684.5
20
-336
10
1686
20
-334.5
10
1883
20
-334.5
0
LWPOLYLINE
8
REFERENCE_STROKES
90
12
70
0
10
996
20
-497.5
10
999.5
20
-496
10
999.5
20
-464
10
1001
20
-462.5
10
1035.5
20
-462
10
1032.5
20
-390
10
1029
20
-356.5
10
1026.5
20
-357
10
1032.5
20
-456
10
1030
20
-458.5
10
997
20
-458.5
10
995.5
20
-460
0
LWPOLYLINE
8
REFERENCE_STROKES
90
12
70
1
10
1867
20
-391.5
10
1870.5
20
-387
10
1870.5
20
-367
10
1877.5
20
-364
10
1878.5
20
-360
10
1876
20
-357.5
10
1858
20
-359.5
10
1854.5
20
-363
10
1857
20
-366.5
10
1862
20
-365.5
10
1863.5
20
-367
10
1863.5
20
-390
0
LWPOLYLINE
8
REFERENCE_STROKES
90
16
70
0
10
1820
20
-391.5
10
1825
20
-389.5
10
1828.5
20
-385
10
1830.5
20
-377
10
1830.5
20
-360
10
1826
20
-359.5
10
1823.5
20
-362
10
1823.5
20
-379
10
1821
20
-383.5
10
1818
20
-383.5
10
1815.5
20
-379
10
1816.5
20
-361
10
1812
20
-358.5
10
1808.5
20
-363
10
1808.5
20
-382
10
1813
20
-389.5
0
LWPOLYLINE
8
REFERENCE_STROKES
90
17
70
0
10
1721
20
-390.5
10
1727
20
-392.5
10
1738.5
20
-386
10
1737
20
-380.5
10
1728
20
-383.5
10
1727.5
20
-379
10
1736.5
20
-374
10
1737.5
20
-371
10
1730
20
-369.5
10
1729.5
20
-367
10
1739
20
-365.5
10
1740.5
20
-364
10
1739
20
-359.5
10
1728
20
-359.5
10
1722.5
20
-365
10
1722.5
20
-371
10
1718.5
20
-383
0
LWPOLYLINE
8
REFERENCE_STROKES
90
13
70
0
10
1751
20
-392.5
10
1755.5
20
-390
10
1758.5
20
-383
10
1758.5
20
-379
10
1765.5
20
-365
10
1764
20
-359.5
10
1758.5
20
-362
10
1754
20
-376.5
10
1751.5
20
-374
10
1750.5
20
-362
10
1747
20
-359.5
10
1742.5
20
-362
10
1747.5
20
-388
0
LWPOLYLINE
8
REFERENCE_STROKES
90
11
70
0
10
1764
20
-391.5
10
1769.5
20
-389
10
1771
20
-383.5
10
1775
20
-384.5
10
1779
20
-391.5
10
1784.5
20
-389
10
1783.5
20
-366
10
1781
20
-360.5
10
1775
20
-359.5
10
1769.5
20
-365
10
1764.5
20
-375
0
LWPOLYLINE
8
REFERENCE_STROKES
90
18
70
0
10
1793
20
-392.5
10
1803
20
-389.5
10
1806.5
20
-384
10
1806
20
-381.5
10
1801
20
-381.5
10
1795
20
-384.5
10
1793.5
20
-383
10
1796.5
20
-368
10
1798.5
20
-368
10
1799
20
-373.5
10
1803
20
-374.5
10
1804.5
20
-372
10
1804.5
20
-362
10
1802
20
-359.5
10
1794
20
-360.5
10
1790.5
20
-364
10
1787.5
20
-373
10
1786.5
20
-385
0
LWPOLYLINE
8
REFERENCE_STROKES
90
13
70
1
10
1834
20
-391.5
10
1839.5
20
-389
10
1840
20
-383.5
10
1843
20
-383.5
10
1848
20
-390.5
10
1852.5
20
-391
10
1854.5
20
-386
10
1852.5
20
-362
10
1850
20
-359.5
10
1844
20
-359.5
10
1838.5
20
-365
10
1833.5
20
-379
10
1832.5
20
-390
0
LWPOLYLINE
8
REFERENCE_STROKES
90
5
70
0
10
1883
20
-359.5
10
1880.5
20
-365
10
1878.5
20
-386
10
1881
20
-391.5
10
1883
20
-391.5
0
LWPOLYLINE
8
REFERENCE_STROKES
90
4
70
0
10
1776
20
-376.5
10
1772.5
20
-372
10
1775
20
-366.5
10
1777.5
20
-368
0
LWPOLYLINE
8
REFERENCE_STROKES
90
4
70
0
10
1847
20
-377.5
10
1840.5
20
-375
10
1845
20
-367.5
10
1846.5
20
-368
0
LWPOLYLINE
8
REFERENCE_STROKES
90
14
70
1
10
285
20
-409.5
10
274
20
-409.5
10
272.5
20
-408
10
272.5
20
-405
10
282.5
20
-396
10
281
20
-392.5
10
275
20
-395.5
10
272.5
20
-393
10
276
20
-388.5
10
283
20
-388.5
10
286.5
20
-392
10
285.5
20
-398
10
279.5
20
-404
10
286
20
-406.5
0
LWPOLYLINE
8
REFERENCE_STROKES
90
15
70
1
10
301
20
-409.5
10
291
20
-409.5
10
288.5
20
-407
10
289.5
20
-404
10
298.5
20
-396
10
297
20
-392.5
10
289.5
20
-394
10
289.5
20
-391
10
293
20
-388.5
10
300
20
-389.5
10
302.5
20
-394
10
301.5
20
-398
10
295.5
20
-403
10
296
20
-405.5
10
302.5
20
-407
0
LWPOLYLINE
8
REFERENCE_STROKES
90
14
70
0
10
305.5
20
-407
10
303.5
20
-397
10
307
20
-389.5
10
316
20
-389.5
10
320
20
-399.5
10
329
20
-388.5
10
332.5
20
-390
10
332.5
20
-401
10
334.5
20
-404
10
332
20
-408.5
10
328
20
-405.5
10
321
20
-404.5
10
313
20
-409.5
10
309
20
-409.5
0
LWPOLYLINE
8
REFERENCE_STROKES
90
8
70
1
10
313
20
-405.5
10
314.5
20
-404
10
314.5
20
-395
10
313
20
-392.5
10
310
20
-392.5
10
308.5
20
-394
10
308.5
20
-403
10
310
20
-405.5
0
LWPOLYLINE
8
REFERENCE_STROKES
90
15
70
1
10
1116
20
-436.5
10
1105
20
-436.5
10
1103.5
20
-434
10
1104.5
20
-431
10
1113.5
20
-423
10
1112
20
-418.5
10
1107
20
-421.5
10
1104.5
20
-421
10
1104.5
20
-418
10
1109
20
-414.5
10
1114
20
-414.5
10
1117.5
20
-419
10
1116.5
20
-425
10
1111.5
20
-430
10
1117.5
20
-433
0
LWPOLYLINE
8
REFERENCE_STROKES
90
14
70
1
10
1132
20
-435.5
10
1119.5
20
-435
10
1119.5
20
-432
10
1128.5
20
-423
10
1127
20
-418.5
10
1120.5
20
-421
10
1122
20
-415.5
10
1129
20
-414.5
10
1132.5
20
-418
10
1132.5
20
-424
10
1126.5
20
-430
10
1127
20
-431.5
10
1131
20
-431.5
10
1133.5
20
-434
0
LWPOLYLINE
8
REFERENCE_STROKES
90
8
70
0
10
1142
20
-436.5
10
1135.5
20
-432
10
1134.5
20
-428
10
1135.5
20
-418
10
1140
20
-414.5
10
1146
20
-415.5
10
1149.5
20
-421
10
1149.5
20
-430
0
LWPOLYLINE
8
REFERENCE_STROKES
90
10
70
1
10
1164
20
-435.5
10
1151.5
20
-435
10
1151.5
20
-432
10
1156.5
20
-430
10
1156.5
20
-421
10
1151.5
20
-420
10
1156
20
-414.5
10
1160.5
20
-416
10
1160.5
20
-431
10
1164.5
20
-433
0
LWPOLYLINE
8
REFERENCE_STROKES
90
6
70
1
10
1143
20
-431.5
10
1145.5
20
-428
10
1145.5
20
-422
10
1141
20
-418.5
10
1138.5
20
-427
10
1139.5
20
-430
0
LWPOLYLINE
8
REFERENCE_STROKES
90
38
70
0
10
272.5
20
-441
10
264
20
-443.5
10
261
20
-442.5
10
257
20
-436.5
10
248
20
-436.5
10
249
20
-439.5
10
255.5
20
-439
10
255
20
-441.5
10
249
20
-443.5
10
242.5
20
-439
10
242.5
20
-435
10
241
20
-434.5
10
239.5
20
-442
10
237
20
-442.5
10
236.5
20
-435
10
235
20
-434.5
10
231.5
20
-442
10
229
20
-442.5
10
224
20
-434.5
10
223.5
20
-442
10
221
20
-443.5
10
219.5
20
-442
10
219.5
20
-423
10
224
20
-422.5
10
230
20
-433.5
10
234.5
20
-424
10
239
20
-422.5
10
240.5
20
-433
10
242
20
-433.5
10
242.5
20
-430
10
246
20
-426.5
10
253
20
-426.5
10
258
20
-431.5
10
260
20
-427.5
10
268
20
-426.5
10
268.5
20
-422
10
271
20
-421.5
10
272.5
20
-423
0
LWPOLYLINE
8
REFERENCE_STROKES
90
15
70
0
10
320
20
-442.5
10
312
20
-443.5
10
305.5
20
-439
10
304.5
20
-428
10
308
20
-423.5
10
315
20
-421.5
10
323.5
20
-426
10
320
20
-428.5
10
313
20
-425.5
10
308.5
20
-431
10
310.5
20
-438
10
313
20
-439.5
10
317
20
-439.5
10
322
20
-436.5
10
323.5
20
-438
0
LWPOLYLINE
8
REFERENCE_STROKES
90
10
70
1
10
362
20
-443.5
10
357.5
20
-441
10
357.5
20
-432
10
355.5
20
-427
10
358
20
-424.5
10
361
20
-424.5
10
363.5
20
-428
10
361.5
20
-431
10
361.5
20
-439
10
363.5
20
-441
0
LWPOLYLINE
8
REFERENCE_STROKES
90
15
70
0
10
295.5
20
-442
10
285
20
-443.5
10
279
20
-440.5
10
277
20
-443.5
10
274.5
20
-441
10
274.5
20
-428
10
276
20
-426.5
10
278.5
20
-428
10
278.5
20
-432
10
281
20
-435.5
10
282.5
20
-434
10
281.5
20
-429
10
284
20
-426.5
10
291
20
-426.5
10
293.5
20
-430
0
LWPOLYLINE
8
REFERENCE_STROKES
90
20
70
0
10
354.5
20
-442
10
351.5
20
-443
10
350.5
20
-432
10
347
20
-430.5
10
344
20
-443.5
10
341.5
20
-442
10
340
20
-435.5
10
331
20
-436.5
10
331
20
-439.5
10
338
20
-438.5
10
338.5
20
-441
10
330
20
-443.5
10
325.5
20
-440
10
325.5
20
-430
10
330
20
-426.5
10
335
20
-426.5
10
339
20
-430.5
10
343
20
-426.5
10
351
20
-426.5
10
354.5
20
-430
0
LWPOLYLINE
8
REFERENCE_STROKES
90
17
70
0
10
389.5
20
-428
10
384.5
20
-433
10
384
20
-443.5
10
380.5
20
-442
10
380
20
-434.5
10
378
20
-436.5
10
369.5
20
-437
10
371
20
-440.5
10
377
20
-438.5
10
376
20
-442.5
10
370
20
-443.5
10
364.5
20
-440
10
364.5
20
-431
10
369
20
-426.5
10
376
20
-427.5
10
379
20
-433.5
10
382
20
-426.5
0
LWPOLYLINE
8
REFERENCE_STROKES
90
4
70
1
10
266
20
-439.5
10
267.5
20
-432
10
263
20
-430.5
10
262.5
20
-438
0
LWPOLYLINE
8
REFERENCE_STROKES
90
8
70
1
10
828.5
20
-465
10
828.5
20
-478
10
824
20
-480.5
10
648
20
-479.5
10
640.5
20
-477
10
640.5
20
-473
10
644
20
-470.5
10
827
20
-462.5
0
LWPOLYLINE
8
REFERENCE_STROKES
90
4
70
0
10
824.5
20
-466
10
647
20
-473.5
10
645.5
20
-476
10
824
20
-476.5
0
LWPOLYLINE
8
REFERENCE_STROKES
90
10
70
0
10
634
20
-568.5
10
635.5
20
-566
10
633.5
20
-475
10
590
20
-476.5
10
586.5
20
-482
10
577
20
-489.5
10
570.5
20
-488
10
570.5
20
-479
10
568
20
-478.5
10
568.5
20
-568
0
LWPOLYLINE
8
REFERENCE_STROKES
90
12
70
0
10
514
20
-590.5
10
513.5
20
-509
10
516
20
-507.5
10
555
20
-508.5
10
557.5
20
-507
10
557.5
20
-490
10
551
20
-490.5
10
545
20
-488.5
10
537
20
-479.5
10
417
20
-484.5
10
416.5
20
-588
10
419
20
-590.5
0
LWPOLYLINE
8
REFERENCE_STROKES
90
4
70
0
10
710
20
-491.5
10
714.5
20
-488
10
714
20
-485.5
10
709.5
20
-487
0
LWPOLYLINE
8
REFERENCE_STROKES
90
7
70
0
10
740
20
-499.5
10
737.5
20
-493
10
741.5
20
-486
10
729
20
-485.5
10
728.5
20
-488
10
732.5
20
-492
10
729.5
20
-499
0
LWPOLYLINE
8
REFERENCE_STROKES
90
7
70
0
10
766
20
-499.5
10
764.5
20
-492
10
768.5
20
-486
10
756
20
-485.5
10
755.5
20
-488
10
759.5
20
-492
10
756.5
20
-499
0
LWPOLYLINE
8
REFERENCE_STROKES
90
4
70
0
10
786
20
-491.5
10
786.5
20
-486
10
782
20
-485.5
10
781.5
20
-488
0
LWPOLYLINE
8
REFERENCE_STROKES
90
8
70
0
10
729.5
20
-495
10
729.5
20
-492
10
724
20
-489.5
10
722
20
-493.5
10
719
20
-489.5
10
713.5
20
-492
10
717
20
-497.5
10
726
20
-497.5
0
LWPOLYLINE
8
REFERENCE_STROKES
90
8
70
0
10
756.5
20
-495
10
756.5
20
-492
10
753
20
-489.5
10
749
20
-493.5
10
745
20
-489.5
10
740.5
20
-493
10
744
20
-497.5
10
753
20
-497.5
0
LWPOLYLINE
8
REFERENCE_STROKES
90
9
70
0
10
783.5
20
-494
10
781
20
-490.5
10
777
20
-490.5
10
776
20
-493.5
10
773
20
-490.5
10
767.5
20
-492
10
767.5
20
-495
10
774
20
-498.5
10
780
20
-497.5
0
LWPOLYLINE
8
REFERENCE_STROKES
90
9
70
1
10
560
20
-571.5
10
523
20
-571.5
10
521.5
20
-570
10
520.5
20
-517
10
522
20
-515.5
10
540
20
-514.5
10
559
20
-515.5
10
560.5
20
-517
10
561.5
20
-570
0
LWPOLYLINE
8
REFERENCE_STROKES
90
6
70
0
10
557
20
-568.5
10
557.5
20
-520
10
556
20
-518.5
10
525
20
-518.5
10
523.5
20
-520
10
524.5
20
-568
0
LWPOLYLINE
8
REFERENCE_STROKES
90
43
70
1
10
498.5
20
-540
10
491
20
-543.5
10
483
20
-537.5
10
480
20
-542.5
10
471
20
-538.5
10
467
20
-542.5
10
462
20
-542.5
10
457
20
-532.5
10
452.5
20
-538
10
456
20
-539.5
10
457
20
-542.5
10
434
20
-542.5
10
434.5
20
-538
10
441.5
20
-533
10
441.5
20
-530
10
435
20
-531.5
10
433.5
20
-529
10
438
20
-525.5
10
443
20
-526.5
10
444.5
20
-533
10
440.5
20
-539
10
446
20
-540.5
10
453.5
20
-533
10
453
20
-529.5
10
448
20
-531.5
10
446.5
20
-530
10
451
20
-525.5
10
455
20
-526.5
10
457
20
-529.5
10
465
20
-525.5
10
469.5
20
-529
10
471
20
-534.5
10
478
20
-526.5
10
480
20
-526.5
10
482
20
-536.5
10
486
20
-527.5
10
495
20
-526.5
10
498.5
20
-530
10
497
20
-531.5
10
488
20
-530.5
10
486.5
20
-536
10
490
20
-539.5
10
497
20
-536.5
0
LWPOLYLINE
8
REFERENCE_STROKES
90
4
70
1
10
465
20
-539.5
10
466.5
20
-531
10
464
20
-529.5
10
462.5
20
-538
0
LWPOLYLINE
8
REFERENCE_STROKES
90
9
70
0
10
1154
20
-626.5
10
1231
20
-626.5
10
1232.5
20
-625
10
1231.5
20
-546
10
1230
20
-538.5
10
1174
20
-538.5
10
1166
20
-548.5
10
1159
20
-551.5
10
1153.5
20
-549
0
LWPOLYLINE
8
REFERENCE_STROKES
90
11
70
0
10
1142
20
-627.5
10
1144.5
20
-625
10
1143.5
20
-540
10
1142
20
-538.5
10
1105
20
-538.5
10
1104
20
-541.5
10
1114
20
-541.5
10
1115.5
20
-548
10
1113.5
20
-553
10
1103.5
20
-561
10
1104.5
20
-627
0
LWPOLYLINE
8
REFERENCE_STROKES
90
4
70
0
10
732.5
20
-544
10
730
20
-539.5
10
724.5
20
-541
10
725
20
-544.5
0
LWPOLYLINE
8
REFERENCE_STROKES
90
18
70
1
10
1094.5
20
-626
10
1093.5
20
-559
10
1106
20
-555.5
10
1110.5
20
-551
10
1112
20
-544.5
10
1096
20
-544.5
10
1093.5
20
-543
10
1093
20
-539.5
10
1023
20
-539.5
10
1017
20
-548.5
10
1012
20
-551.5
10
1006
20
-551.5
10
1004.5
20
-550
10
1004.5
20
-541
10
1002.5
20
-541
10
1002.5
20
-626
10
1004
20
-627.5
10
1093
20
-627.5
0
LWPOLYLINE
8
REFERENCE_STROKES
90
4
70
0
10
676.5
20
-545
10
675
20
-540.5
10
669.5
20
-542
10
670
20
-545.5
0
LWPOLYLINE
8
REFERENCE_STROKES
90
4
70
0
10
695.5
20
-545
10
692
20
-540.5
10
687.5
20
-542
10
688
20
-545.5
0
LWPOLYLINE
8
REFERENCE_STROKES
90
4
70
0
10
713.5
20
-546
10
711
20
-540.5
10
705.5
20
-543
10
706
20
-545.5
0
LWPOLYLINE
8
REFERENCE_STROKES
90
4
70
0
10
749.5
20
-545
10
747
20
-540.5
10
742.5
20
-542
10
743
20
-545.5
0
LWPOLYLINE
8
REFERENCE_STROKES
90
4
70
0
10
677.5
20
-574
10
677
20
-571.5
10
669.5
20
-572
10
673
20
-576.5
0
LWPOLYLINE
8
REFERENCE_STROKES
90
4
70
0
10
695.5
20
-574
10
695
20
-571.5
10
687.5
20
-572
10
690
20
-576.5
0
LWPOLYLINE
8
REFERENCE_STROKES
90
4
70
0
10
714.5
20
-574
10
714
20
-571.5
10
706.5
20
-572
10
710
20
-577.5
0
LWPOLYLINE
8
REFERENCE_STROKES
90
4
70
0
10
732.5
20
-573
10
732
20
-571.5
10
724.5
20
-572
10
728
20
-577.5
0
LWPOLYLINE
8
REFERENCE_STROKES
90
4
70
0
10
750.5
20
-574
10
750
20
-571.5
10
742.5
20
-572
10
746
20
-577.5
0
LWPOLYLINE
8
REFERENCE_STROKES
90
17
70
0
10
635.5
20
-580
10
526
20
-578.5
10
524.5
20
-580
10
524.5
20
-599
10
523
20
-600.5
10
418
20
-600.5
10
416.5
20
-605
10
427.5
20
-614
10
429.5
20
-623
10
428
20
-624.5
10
418
20
-624.5
10
417.5
20
-627
10
546
20
-627.5
10
546.5
20
-598
10
548
20
-596.5
10
634
20
-597.5
10
635.5
20
-596
0
LWPOLYLINE
8
REFERENCE_STROKES
90
6
70
0
10
1883
20
-734.5
10
1689
20
-735.5
10
1687.5
20
-734
10
1686.5
20
-585
10
1689
20
-583.5
10
1883
20
-582.5
0
LWPOLYLINE
8
REFERENCE_STROKES
90
5
70
0
10
1883
20
-589.5
10
1695
20
-591.5
10
1694.5
20
-726
10
1696
20
-727.5
10
1883
20
-726.5
0
LWPOLYLINE
8
REFERENCE_STROKES
90
6
70
0
10
556
20
-628.5
10
557.5
20
-627
10
557.5
20
-601
10
551
20
-599.5
10
549.5
20
-601
10
549.5
20
-627
0
LWPOLYLINE
8
REFERENCE_STROKES
90
7
70
0
10
568
20
-628.5
10
569.5
20
-627
10
569.5
20
-601
10
562
20
-599.5
10
560.5
20
-601
10
560.5
20
-626
10
562
20
-628.5
0
LWPOLYLINE
8
REFERENCE_STROKES
90
6
70
0
10
579
20
-628.5
10
580.5
20
-627
10
580.5
20
-602
10
578
20
-599.5
10
573
20
-599.5
10
572.5
20
-627
0
LWPOLYLINE
8
REFERENCE_STROKES
90
5
70
0
10
591
20
-628.5
10
591.5
20
-601
10
585
20
-599.5
10
583.5
20
-601
10
583.5
20
-627
0
LWPOLYLINE
8
REFERENCE_STROKES
90
5
70
0
10
602
20
-628.5
10
602.5
20
-601
10
597
20
-599.5
10
594.5
20
-601
10
594.5
20
-627
0
LWPOLYLINE
8
REFERENCE_STROKES
90
6
70
0
10
613
20
-628.5
10
614.5
20
-627
10
614.5
20
-602
10
608
20
-599.5
10
605.5
20
-601
10
605.5
20
-627
0
LWPOLYLINE
8
REFERENCE_STROKES
90
5
70
0
10
625
20
-628.5
10
625.5
20
-601
10
619
20
-599.5
10
616.5
20
-602
10
617.5
20
-628
0
LWPOLYLINE
8
REFERENCE_STROKES
90
5
70
0
10
635
20
-628.5
10
635.5
20
-601
10
630
20
-599.5
10
628.5
20
-601
10
628.5
20
-628
0
LWPOLYLINE
8
REFERENCE_STROKES
90
9
70
1
10
716
20
-628.5
10
716.5
20
-625
10
713.5
20
-622
10
713.5
20
-618
10
716.5
20
-614
10
713
20
-613.5
10
711.5
20
-615
10
711.5
20
-626
10
713
20
-628.5
0
LWPOLYLINE
8
REFERENCE_STROKES
90
8
70
0
10
742
20
-628.5
10
743.5
20
-626
10
739.5
20
-619
10
742.5
20
-614
10
732
20
-613.5
10
734.5
20
-622
10
730.5
20
-627
10
732
20
-628.5
0
LWPOLYLINE
8
REFERENCE_STROKES
90
9
70
0
10
769
20
-628.5
10
769.5
20
-625
10
766.5
20
-622
10
766.5
20
-618
10
769.5
20
-614
10
759
20
-613.5
10
761.5
20
-621
10
757.5
20
-625
10
757.5
20
-628
0
LWPOLYLINE
8
REFERENCE_STROKES
90
8
70
0
10
788
20
-628.5
10
788.5
20
-615
10
784
20
-613.5
10
783.5
20
-615
10
786.5
20
-617
10
786.5
20
-622
10
783.5
20
-625
10
783.5
20
-628
0
LWPOLYLINE
8
REFERENCE_STROKES
90
8
70
0
10
758.5
20
-622
10
758.5
20
-619
10
751
20
-614.5
10
742.5
20
-619
10
745
20
-623.5
10
748
20
-623.5
10
750
20
-620.5
10
753
20
-623.5
0
LWPOLYLINE
8
REFERENCE_STROKES
90
9
70
0
10
784.5
20
-619
10
778
20
-614.5
10
771
20
-616.5
10
768.5
20
-620
10
771
20
-623.5
10
774
20
-623.5
10
776
20
-620.5
10
779
20
-623.5
10
783
20
-623.5
0
LWPOLYLINE
8
REFERENCE_STROKES
90
9
70
0
10
732.5
20
-621
10
732.5
20
-619
10
728
20
-615.5
10
720
20
-615.5
10
715.5
20
-620
10
718
20
-623.5
10
721
20
-623.5
10
724
20
-620.5
10
727
20
-624.5
0
LWPOLYLINE
8
REFERENCE_STROKES
90
35
70
1
10
1875.5
20
-623
10
1875.5
20
-625
10
1871.5
20
-627
10
1871.5
20
-638
10
1869
20
-640.5
10
1867.5
20
-639
10
1867.5
20
-628
10
1864
20
-625.5
10
1861.5
20
-630
10
1861.5
20
-636
10
1857
20
-640.5
10
1854
20
-640.5
10
1849
20
-633.5
10
1842
20
-640.5
10
1839
20
-640.5
10
1834
20
-633.5
10
1830.5
20
-636
10
1831
20
-639.5
10
1823
20
-640.5
10
1821.5
20
-639
10
1821.5
20
-624
10
1823
20
-622.5
10
1829
20
-622.5
10
1834
20
-628.5
10
1839
20
-622.5
10
1844
20
-622.5
10
1848
20
-626.5
10
1853
20
-622.5
10
1854.5
20
-624
10
1853.5
20
-632
10
1855
20
-635.5
10
1857.5
20
-634
10
1859
20
-622.5
10
1863
20
-623.5
10
1872
20
-621.5
0
LWPOLYLINE
8
REFERENCE_STROKES
90
17
70
1
10
1721.5
20
-639
10
1724
20
-623.5
10
1731
20
-623.5
10
1735
20
-625.5
10
1740
20
-622.5
10
1747
20
-626.5
10
1751
20
-623.5
10
1753.5
20
-625
10
1751
20
-640.5
10
1748.5
20
-639
10
1748
20
-633.5
10
1744
20
-640.5
10
1737
20
-640.5
10
1736
20
-627.5
10
1733
20
-632.5
10
1726.5
20
-636
10
1724
20
-641.5
0
LWPOLYLINE
8
REFERENCE_STROKES
90
19
70
0
10
1783.5
20
-640
10
1777
20
-636.5
10
1775
20
-640.5
10
1769
20
-640.5
10
1767
20
-638.5
10
1762
20
-640.5
10
1760
20
-637.5
10
1756
20
-640.5
10
1754.5
20
-635
10
1757.5
20
-624
10
1760
20
-623.5
10
1763
20
-627.5
10
1768
20
-623.5
10
1770.5
20
-635
10
1772
20
-635.5
10
1776.5
20
-625
10
1779
20
-622.5
10
1782
20
-623.5
10
1784.5
20
-631
0
LWPOLYLINE
8
REFERENCE_STROKES
90
17
70
0
10
1810.5
20
-638
10
1808
20
-640.5
10
1804
20
-640.5
10
1803.5
20
-638
10
1806.5
20
-635
10
1799
20
-631.5
10
1795
20
-640.5
10
1787
20
-639.5
10
1786.5
20
-624
10
1792
20
-622.5
10
1798
20
-625.5
10
1801
20
-622.5
10
1803.5
20
-629
10
1806
20
-629.5
10
1807.5
20
-625
10
1811
20
-623.5
10
1812.5
20
-631
0
LWPOLYLINE
8
REFERENCE_STROKES
90
4
70
0
10
1878
20
-639.5
10
1878.5
20
-626
10
1883
20
-622.5
10
1883
20
-639.5
0
LWPOLYLINE
8
REFERENCE_STROKES
90
5
70
0
10
1840
20
-635.5
10
1843.5
20
-634
10
1844.5
20
-628
10
1843
20
-626.5
10
1838.5
20
-630
0
LWPOLYLINE
8
REFERENCE_STROKES
90
25
70
1
10
1144.5
20
-721
10
1144.5
20
-638
10
1143
20
-636.5
10
1134
20
-636.5
10
1132.5
20
-638
10
1133.5
20
-672
10
1132
20
-674.5
10
1043
20
-675.5
10
1041.5
20
-674
10
1041.5
20
-638
10
1015.5
20
-638
10
1015.5
20
-646
10
1006.5
20
-656
10
1014.5
20
-663
10
1016.5
20
-672
10
1015
20
-673.5
10
1003.5
20
-674
10
1004
20
-722.5
10
1031.5
20
-722
10
1030.5
20
-687
10
1032
20
-684.5
10
1121
20
-684.5
10
1122.5
20
-686
10
1122.5
20
-722
10
1143
20
-722.5
0
LWPOLYLINE
8
REFERENCE_STROKES
90
5
70
0
10
1051
20
-672.5
10
1052.5
20
-671
10
1052.5
20
-638
10
1045
20
-637.5
10
1044.5
20
-671
0
LWPOLYLINE
8
REFERENCE_STROKES
90
4
70
0
10
1063
20
-672.5
10
1063.5
20
-638
10
1056
20
-637.5
10
1055.5
20
-671
0
LWPOLYLINE
8
REFERENCE_STROKES
90
4
70
0
10
1074
20
-672.5
10
1074.5
20
-638
10
1067
20
-637.5
10
1066.5
20
-671
0
LWPOLYLINE
8
REFERENCE_STROKES
90
4
70
0
10
1085
20
-672.5
10
1085.5
20
-638
10
1078
20
-637.5
10
1077.5
20
-671
0
LWPOLYLINE
8
REFERENCE_STROKES
90
5
70
0
10
1095
20
-672.5
10
1096.5
20
-671
10
1096.5
20
-638
10
1089
20
-637.5
10
1088.5
20
-671
0
LWPOLYLINE
8
REFERENCE_STROKES
90
5
70
0
10
1106
20
-672.5
10
1107.5
20
-671
10
1107.5
20
-638
10
1100
20
-637.5
10
1099.5
20
-671
0
LWPOLYLINE
8
REFERENCE_STROKES
90
5
70
0
10
1117
20
-672.5
10
1118.5
20
-671
10
1118.5
20
-638
10
1111
20
-637.5
10
1110.5
20
-671
0
LWPOLYLINE
8
REFERENCE_STROKES
90
4
70
0
10
1129
20
-671.5
10
1129.5
20
-638
10
1122
20
-637.5
10
1121.5
20
-670
0
LWPOLYLINE
8
REFERENCE_STROKES
90
11
70
0
10
1816
20
-692.5
10
1814.5
20
-683
10
1816.5
20
-676
10
1825
20
-673.5
10
1826.5
20
-677
10
1820.5
20
-679
10
1824.5
20
-682
10
1818.5
20
-687
10
1824
20
-686.5
10
1825.5
20
-689
10
1820
20
-692.5
0
LWPOLYLINE
8
REFERENCE_STROKES
90
14
70
0
10
1862.5
20
-686
10
1856
20
-692.5
10
1852
20
-691.5
10
1849
20
-685.5
10
1845.5
20
-687
10
1845
20
-691.5
10
1837
20
-691.5
10
1835.5
20
-676
10
1839
20
-673.5
10
1844
20
-674.5
10
1849
20
-681.5
10
1853
20
-674.5
10
1859
20
-674.5
10
1862.5
20
-678
0
LWPOLYLINE
8
REFERENCE_STROKES
90
8
70
0
10
1739
20
-692.5
10
1735.5
20
-691
10
1736.5
20
-680
10
1731.5
20
-678
10
1734
20
-674.5
10
1743
20
-674.5
10
1744.5
20
-676
10
1739.5
20
-680
0
LWPOLYLINE
8
REFERENCE_STROKES
90
12
70
0
10
1749
20
-693.5
10
1745.5
20
-691
10
1747.5
20
-677
10
1750
20
-674.5
10
1756
20
-674.5
10
1757.5
20
-677
10
1752.5
20
-679
10
1755.5
20
-682
10
1749.5
20
-686
10
1750
20
-688.5
10
1755
20
-687.5
10
1755.5
20
-690
0
LWPOLYLINE
8
REFERENCE_STROKES
90
38
70
0
10
1813.5
20
-675
10
1813.5
20
-677
10
1808.5
20
-680
10
1809.5
20
-688
10
1807
20
-692.5
10
1804.5
20
-691
10
1804.5
20
-679
10
1798.5
20
-678
10
1799.5
20
-691
10
1798
20
-692.5
10
1794
20
-688.5
10
1789
20
-692.5
10
1787
20
-687.5
10
1783
20
-692.5
10
1774
20
-692.5
10
1772
20
-685.5
10
1768.5
20
-688
10
1769.5
20
-691
10
1768
20
-692.5
10
1761
20
-692.5
10
1759.5
20
-690
10
1759.5
20
-676
10
1762
20
-674.5
10
1768
20
-675.5
10
1771.5
20
-679
10
1772
20
-684.5
10
1773.5
20
-684
10
1774.5
20
-676
10
1777
20
-674.5
10
1780
20
-685.5
10
1782.5
20
-685
10
1781.5
20
-676
10
1783
20
-674.5
10
1786.5
20
-677
10
1787
20
-685.5
10
1794
20
-674.5
10
1799
20
-676.5
10
1802
20
-674.5
0
LWPOLYLINE
8
REFERENCE_STROKES
90
16
70
0
10
1883
20
-691.5
10
1882.5
20
-679
10
1881
20
-677.5
10
1876.5
20
-678
10
1874.5
20
-690
10
1871
20
-692.5
10
1868
20
-691.5
10
1864.5
20
-686
10
1864.5
20
-676
10
1867.5
20
-675
10
1868.5
20
-687
10
1871
20
-687.5
10
1872.5
20
-686
10
1872.5
20
-676
10
1874
20
-674.5
10
1883
20
-674.5
0
LWPOLYLINE
8
REFERENCE_STROKES
90
16
70
1
10
1731.5
20
-689
10
1724
20
-693.5
10
1721
20
-687.5
10
1718
20
-692.5
10
1712
20
-688.5
10
1710.5
20
-693
10
1707.5
20
-693
10
1708.5
20
-683
10
1714
20
-675.5
10
1717.5
20
-676
10
1720
20
-685.5
10
1721.5
20
-685
10
1721.5
20
-677
10
1725
20
-675.5
10
1725.5
20
-687
10
1731
20
-686.5
0
LWPOLYLINE
8
REFERENCE_STROKES
90
5
70
0
10
1854
20
-687.5
10
1858.5
20
-684
10
1858
20
-678.5
10
1855
20
-678.5
10
1853.5
20
-681
0
LWPOLYLINE
8
REFERENCE_STROKES
90
5
70
0
10
1041
20
-722.5
10
1042.5
20
-720
10
1041.5
20
-689
10
1035
20
-687.5
10
1034.5
20
-722
0
LWPOLYLINE
8
REFERENCE_STROKES
90
5
70
0
10
1052
20
-722.5
10
1052.5
20
-688
10
1046
20
-687.5
10
1044.5
20
-689
10
1044.5
20
-721
0
LWPOLYLINE
8
REFERENCE_STROKES
90
6
70
0
10
1063
20
-722.5
10
1064.5
20
-720
10
1063.5
20
-688
10
1057
20
-687.5
10
1055.5
20
-689
10
1055.5
20
-721
0
LWPOLYLINE
8
REFERENCE_STROKES
90
6
70
0
10
1074
20
-722.5
10
1075.5
20
-721
10
1074.5
20
-688
10
1067
20
-687.5
10
1066.5
20
-720
10
1069
20
-722.5
0
LWPOLYLINE
8
REFERENCE_STROKES
90
6
70
0
10
1085
20
-722.5
10
1086.5
20
-721
10
1086.5
20
-689
10
1079
20
-687.5
10
1077.5
20
-689
10
1078.5
20
-721
0
LWPOLYLINE
8
REFERENCE_STROKES
90
5
70
1
10
1091
20
-722.5
10
1096.5
20
-721
10
1096
20
-687.5
10
1088.5
20
-689
10
1089.5
20
-721
0
LWPOLYLINE
8
REFERENCE_STROKES
90
6
70
0
10
1107
20
-722.5
10
1108.5
20
-721
10
1107.5
20
-688
10
1100
20
-687.5
10
1099.5
20
-720
10
1101
20
-722.5
0
LWPOLYLINE
8
REFERENCE_STROKES
90
5
70
0
10
1119
20
-721.5
10
1118.5
20
-688
10
1112
20
-687.5
10
1110.5
20
-689
10
1111.5
20
-721
0
LWPOLYLINE
8
REFERENCE_STROKES
90
125
70
0
10
33.5
20
-1437
10
35
20
-1439.5
10
70
20
-1439.5
10
71.5
20
-1438
10
70.5
20
-1411
10
74
20
-1408.5
10
161
20
-1408.5
10
162.5
20
-1410
10
162.5
20
-1437
10
170.5
20
-1440
10
171.5
20
-1614
10
173
20
-1615.5
10
182
20
-1614.5
10
182.5
20
-1607
10
185
20
-1604.5
10
189.5
20
-1606
10
190
20
-1614.5
10
691
20
-1606.5
10
692.5
20
-1605
10
691.5
20
-1497
10
694
20
-1491.5
10
842
20
-1489.5
10
843.5
20
-1491
10
843.5
20
-1568
10
845
20
-1569.5
10
893
20
-1568.5
10
894.5
20
-1572
10
894.5
20
-1677
10
893
20
-1678.5
10
845
20
-1679.5
10
844.5
20
-1699
10
999
20
-1696.5
10
1000.5
20
-1695
10
1000.5
20
-1678
10
999
20
-1676.5
10
951
20
-1677.5
10
949.5
20
-1676
10
949.5
20
-1569
10
951
20
-1567.5
10
998
20
-1567.5
10
999.5
20
-1566
10
1000
20
-1486.5
10
1146
20
-1484.5
10
1147.5
20
-1486
10
1147.5
20
-1596
10
1149
20
-1597.5
10
1713
20
-1590.5
10
1710.5
20
-1418
10
1712
20
-1416.5
10
1729
20
-1416.5
10
1730.5
20
-1415
10
1729.5
20
-1388
10
1731
20
-1386.5
10
1813
20
-1385.5
10
1815.5
20
-1388
10
1815.5
20
-1414
10
1817
20
-1415.5
10
1848
20
-1415.5
10
1849.5
20
-1414
10
1849.5
20
-1377
10
1848
20
-1353.5
10
1815
20
-1353.5
10
1814.5
20
-1381
10
1813
20
-1382.5
10
1743
20
-1383.5
10
1740.5
20
-1380
10
1740
20
-1354.5
10
1438
20
-1355.5
10
997
20
-1360.5
10
993.5
20
-734
10
992
20
-732.5
10
962
20
-732.5
10
961
20
-713.5
10
955
20
-715.5
10
950.5
20
-720
10
947
20
-729.5
10
944.5
20
-727
10
943.5
20
-721
10
938
20
-715.5
10
933
20
-713.5
10
932.5
20
-728
10
930
20
-733.5
10
906
20
-733.5
10
904.5
20
-732
10
904.5
20
-715
10
902
20
-713.5
10
892.5
20
-721
10
890
20
-729.5
10
887.5
20
-728
10
885.5
20
-721
10
880
20
-715.5
10
875
20
-714.5
10
874.5
20
-732
10
873
20
-733.5
10
838.5
20
-734
10
842.5
20
-1185
10
842.5
20
-1362
10
841
20
-1363.5
10
740
20
-1366.5
10
543
20
-1368.5
10
512
20
-1370.5
10
151.5
20
-1375
10
150.5
20
-1391
10
152
20
-1392.5
10
168
20
-1387.5
10
171
20
-1390.5
10
182
20
-1391.5
10
187.5
20
-1396
10
188.5
20
-1406
10
187
20
-1408.5
10
181.5
20
-1407
10
181.5
20
-1400
10
178
20
-1396.5
10
172
20
-1396.5
10
169
20
-1399.5
10
165
20
-1399.5
10
155
20
-1395.5
10
150.5
20
-1397
10
150.5
20
-1404
10
145
20
-1405.5
10
72
20
-1405.5
10
71.5
20
-1378
10
70
20
-1376.5
10
35
20
-1375.5
10
33.5
20
-1377
0
LWPOLYLINE
8
REFERENCE_STROKES
90
5
70
1
10
928.5
20
-729
10
928
20
-726.5
10
907.5
20
-727
10
909
20
-730.5
10
927
20
-730.5
0
LWPOLYLINE
8
REFERENCE_STROKES
90
8
70
0
10
1169.5
20
-868
10
1167
20
-870.5
10
1003
20
-870.5
10
1000.5
20
-868
10
1000.5
20
-731
10
1002
20
-729.5
10
1167
20
-728.5
10
1168.5
20
-730
0
LWPOLYLINE
8
REFERENCE_STROKES
90
7
70
1
10
1166.5
20
-866
10
1165.5
20
-733
10
1164
20
-731.5
10
1005
20
-732.5
10
1003.5
20
-734
10
1005
20
-867.5
10
1164
20
-867.5
0
LWPOLYLINE
8
REFERENCE_STROKES
90
9
70
0
10
1095
20
-806.5
10
1089
20
-805.5
10
1085.5
20
-800
10
1085.5
20
-791
10
1088
20
-786.5
10
1093
20
-784.5
10
1096
20
-785.5
10
1100.5
20
-792
10
1099.5
20
-802
0
LWPOLYLINE
8
REFERENCE_STROKES
90
12
70
0
10
1103
20
-806.5
10
1101.5
20
-803
10
1106.5
20
-801
10
1106.5
20
-792
10
1103
20
-791.5
10
1102.5
20
-789
10
1109
20
-784.5
10
1111.5
20
-787
10
1111.5
20
-801
10
1115
20
-802.5
10
1115.5
20
-805
10
1114
20
-806.5
0
LWPOLYLINE
8
REFERENCE_STROKES
90
16
70
1
10
1068
20
-806.5
10
1056
20
-806.5
10
1054.5
20
-805
10
1064.5
20
-792
10
1063
20
-789.5
10
1057
20
-792.5
10
1055.5
20
-791
10
1055.5
20
-788
10
1059
20
-785.5
10
1065
20
-785.5
10
1068.5
20
-789
10
1068.5
20
-794
10
1061.5
20
-801
10
1062
20
-802.5
10
1068
20
-802.5
10
1069.5
20
-804
0
LWPOLYLINE
8
REFERENCE_STROKES
90
12
70
1
10
1083
20
-806.5
10
1073
20
-806.5
10
1071.5
20
-805
10
1072
20
-802.5
10
1076.5
20
-801
10
1076.5
20
-792
10
1071.5
20
-791
10
1071.5
20
-789
10
1076
20
-785.5
10
1080.5
20
-787
10
1080.5
20
-801
10
1084.5
20
-803
0
LWPOLYLINE
8
REFERENCE_STROKES
90
7
70
1
10
1094
20
-801.5
10
1096.5
20
-798
10
1096.5
20
-793
10
1094
20
-789.5
10
1091
20
-789.5
10
1089.5
20
-797
10
1090.5
20
-801
0
LWPOLYLINE
8
REFERENCE_STROKES
90
8
70
1
10
1001.5
20
-1018
10
1000.5
20
-877
10
1002
20
-874.5
10
1168
20
-873.5
10
1169.5
20
-875
10
1170.5
20
-1017
10
1169
20
-1018.5
10
1004
20
-1020.5
0
LWPOLYLINE
8
REFERENCE_STROKES
90
5
70
0
10
1004.5
20
-1016
10
1009
20
-1017.5
10
1167
20
-1015.5
10
1166.5
20
-877
10
1005
20
-877.5
0
LWPOLYLINE
8
REFERENCE_STROKES
90
16
70
1
10
1068
20
-953.5
10
1057
20
-953.5
10
1055.5
20
-952
10
1055.5
20
-949
10
1064.5
20
-941
10
1064
20
-936.5
10
1055.5
20
-938
10
1055.5
20
-936
10
1061
20
-931.5
10
1065
20
-931.5
10
1068.5
20
-935
10
1068.5
20
-942
10
1062.5
20
-948
10
1063
20
-949.5
10
1068
20
-949.5
10
1069.5
20
-951
0
LWPOLYLINE
8
REFERENCE_STROKES
90
10
70
0
10
1073
20
-953.5
10
1071.5
20
-951
10
1076.5
20
-948
10
1076.5
20
-939
10
1072.5
20
-936
10
1078
20
-931.5
10
1080.5
20
-933
10
1080.5
20
-948
10
1084
20
-949.5
10
1084.5
20
-952
0
LWPOLYLINE
8
REFERENCE_STROKES
90
25
70
0
10
1115.5
20
-950
10
1110
20
-953.5
10
1102.5
20
-950
10
1103
20
-946.5
10
1107
20
-948.5
10
1111.5
20
-948
10
1110
20
-944.5
10
1106.5
20
-944
10
1106.5
20
-941
10
1111.5
20
-938
10
1108
20
-935.5
10
1105
20
-938.5
10
1100.5
20
-938
10
1100.5
20
-948
10
1097
20
-952.5
10
1090
20
-952.5
10
1085.5
20
-945
10
1087.5
20
-934
10
1091
20
-931.5
10
1096
20
-931.5
10
1100
20
-936.5
10
1102
20
-936.5
10
1106
20
-931.5
10
1112
20
-931.5
10
1115.5
20
-936
0
LWPOLYLINE
8
REFERENCE_STROKES
90
7
70
1
10
1094
20
-949.5
10
1096.5
20
-947
10
1096.5
20
-939
10
1095
20
-935.5
10
1092
20
-935.5
10
1089.5
20
-943
10
1090.5
20
-948
0
LWPOLYLINE
8
REFERENCE_STROKES
90
7
70
0
10
1003.5
20
-1180
10
1001.5
20
-1026
10
1004
20
-1023.5
10
1169
20
-1022.5
10
1170.5
20
-1024
10
1172.5
20
-1177
10
1170
20
-1179.5
0
LWPOLYLINE
8
REFERENCE_STROKES
90
7
70
0
10
1005.5
20
-1177
10
1007
20
-1178.5
10
1168
20
-1176.5
10
1169.5
20
-1172
10
1167.5
20
-1027
10
1166
20
-1025.5
10
1005
20
-1027.5
0
LWPOLYLINE
8
REFERENCE_STROKES
90
26
70
0
10
1117.5
20
-1103
10
1115
20
-1106.5
10
1109
20
-1108.5
10
1103.5
20
-1105
10
1103.5
20
-1102
10
1106
20
-1101.5
10
1111
20
-1104.5
10
1112.5
20
-1099
10
1110
20
-1097.5
10
1103
20
-1098.5
10
1101.5
20
-1104
10
1098
20
-1107.5
10
1093
20
-1108.5
10
1087.5
20
-1103
10
1087.5
20
-1092
10
1092
20
-1087.5
10
1097
20
-1087.5
10
1100.5
20
-1090
10
1103
20
-1095.5
10
1105
20
-1087.5
10
1114
20
-1086.5
10
1116.5
20
-1090
10
1108
20
-1091.5
10
1107.5
20
-1094
10
1115
20
-1095.5
10
1117.5
20
-1098
0
LWPOLYLINE
8
REFERENCE_STROKES
90
14
70
0
10
1069
20
-1108.5
10
1058
20
-1108.5
10
1056.5
20
-1107
10
1057.5
20
-1103
10
1065.5
20
-1096
10
1065
20
-1091.5
10
1060
20
-1093.5
10
1056.5
20
-1092
10
1061
20
-1087.5
10
1069.5
20
-1089
10
1070.5
20
-1094
10
1063.5
20
-1103
10
1064
20
-1104.5
10
1070
20
-1104.5
0
LWPOLYLINE
8
REFERENCE_STROKES
90
11
70
1
10
1084
20
-1108.5
10
1074
20
-1108.5
10
1072.5
20
-1107
10
1074
20
-1104.5
10
1077.5
20
-1104
10
1077.5
20
-1094
10
1073.5
20
-1091
10
1078
20
-1087.5
10
1081.5
20
-1088
10
1081.5
20
-1103
10
1086.5
20
-1106
0
LWPOLYLINE
8
REFERENCE_STROKES
90
7
70
0
10
1095
20
-1104.5
10
1097.5
20
-1102
10
1097.5
20
-1094
10
1096
20
-1091.5
10
1093
20
-1091.5
10
1091.5
20
-1093
10
1091.5
20
-1102
0
LWPOLYLINE
8
REFERENCE_STROKES
90
8
70
0
10
1699
20
-1347.5
10
1697.5
20
-1346
10
1694.5
20
-1181
10
1697
20
-1178.5
10
1813
20
-1178.5
10
1814.5
20
-1181
10
1816.5
20
-1345
10
1815
20
-1346.5
0
LWPOLYLINE
8
REFERENCE_STROKES
90
28
70
1
10
1274.5
20
-1349
10
1272.5
20
-1184
10
1274
20
-1182.5
10
1455
20
-1180.5
10
1457.5
20
-1187
10
1458.5
20
-1285
10
1461
20
-1286.5
10
1462.5
20
-1285
10
1461.5
20
-1182
10
1463
20
-1180.5
10
1506
20
-1180.5
10
1507.5
20
-1182
10
1508.5
20
-1284
10
1512
20
-1285.5
10
1512
20
-1180.5
10
1688
20
-1178.5
10
1690.5
20
-1180
10
1693.5
20
-1334
10
1692
20
-1347.5
10
1515
20
-1348.5
10
1513.5
20
-1342
10
1511
20
-1341.5
10
1508
20
-1348.5
10
1464
20
-1348.5
10
1463.5
20
-1343
10
1460
20
-1341.5
10
1457
20
-1349.5
10
1276
20
-1350.5
0
LWPOLYLINE
8
REFERENCE_STROKES
90
18
70
1
10
1690.5
20
-1343
10
1687
20
-1181.5
10
1516
20
-1182.5
10
1514.5
20
-1184
10
1515.5
20
-1288
10
1503
20
-1291.5
10
1498.5
20
-1296
10
1497.5
20
-1302
10
1514
20
-1301.5
10
1516.5
20
-1304
10
1516.5
20
-1324
10
1515
20
-1325.5
10
1498
20
-1325.5
10
1498.5
20
-1331
10
1504
20
-1336.5
10
1515
20
-1338.5
10
1517
20
-1345.5
10
1689
20
-1344.5
0
LWPOLYLINE
8
REFERENCE_STROKES
90
7
70
0
10
1812
20
-1343.5
10
1812.5
20
-1262
10
1810.5
20
-1182
10
1699
20
-1181.5
10
1697.5
20
-1186
10
1700.5
20
-1343
10
1702
20
-1344.5
0
LWPOLYLINE
8
REFERENCE_STROKES
90
9
70
1
10
1269
20
-1350.5
10
1194
20
-1352.5
10
1109
20
-1352.5
10
1107.5
20
-1351
10
1106.5
20
-1185
10
1108
20
-1183.5
10
1267
20
-1182.5
10
1268.5
20
-1184
10
1270.5
20
-1349
0
LWPOLYLINE
8
REFERENCE_STROKES
90
8
70
1
10
1003.5
20
-1264
10
1002.5
20
-1188
10
1004
20
-1185.5
10
1096
20
-1183.5
10
1102.5
20
-1185
10
1103.5
20
-1262
10
1101
20
-1264.5
10
1005
20
-1265.5
0
LWPOLYLINE
8
REFERENCE_STROKES
90
16
70
0
10
1277.5
20
-1347
10
1454
20
-1346.5
10
1458
20
-1338.5
10
1470
20
-1336.5
10
1475.5
20
-1329
10
1475
20
-1325.5
10
1457
20
-1325.5
10
1455.5
20
-1324
10
1455.5
20
-1303
10
1458
20
-1301.5
10
1474
20
-1302.5
10
1474.5
20
-1298
10
1470
20
-1292.5
10
1455.5
20
-1288
10
1453.5
20
-1184
10
1276
20
-1185.5
0
LWPOLYLINE
8
REFERENCE_STROKES
90
15
70
1
10
1468
20
-1309.5
10
1506.5
20
-1308
10
1506
20
-1305.5
10
1496
20
-1305.5
10
1493.5
20
-1303
10
1496.5
20
-1293
10
1505.5
20
-1287
10
1504
20
-1183.5
10
1464.5
20
-1184
10
1465.5
20
-1286
10
1474.5
20
-1292
10
1478.5
20
-1300
10
1477
20
-1305.5
10
1467
20
-1305.5
10
1465.5
20
-1308
0
LWPOLYLINE
8
REFERENCE_STROKES
90
7
70
1
10
1112
20
-1349.5
10
1266
20
-1347.5
10
1267.5
20
-1346
10
1265.5
20
-1187
10
1264
20
-1185.5
10
1109.5
20
-1187
10
1110.5
20
-1348
0
LWPOLYLINE
8
REFERENCE_STROKES
90
31
70
1
10
453.5
20
-1362
10
452.5
20
-1196
10
454
20
-1192.5
10
595
20
-1189.5
10
625
20
-1190.5
10
625.5
20
-1295
10
629
20
-1296.5
10
630.5
20
-1295
10
629.5
20
-1194
10
632
20
-1189.5
10
674
20
-1189.5
10
675.5
20
-1191
10
675.5
20
-1295
10
679
20
-1295.5
10
679.5
20
-1191
10
682
20
-1188.5
10
832
20
-1186.5
10
835.5
20
-1189
10
835.5
20
-1355
10
832
20
-1357.5
10
681
20
-1359.5
10
679.5
20
-1357
10
680.5
20
-1354
10
677
20
-1352.5
10
674
20
-1359.5
10
632
20
-1360.5
10
630.5
20
-1354
10
627
20
-1353.5
10
624
20
-1360.5
10
506
20
-1363.5
10
455
20
-1363.5
0
LWPOLYLINE
8
REFERENCE_STROKES
90
17
70
0
10
665.5
20
-1343
10
673
20
-1348.5
10
682
20
-1349.5
10
684
20
-1356.5
10
832
20
-1353.5
10
832.5
20
-1191
10
831
20
-1189.5
10
684
20
-1191.5
10
682.5
20
-1193
10
682.5
20
-1298
10
668
20
-1302.5
10
663.5
20
-1309
10
664
20
-1312.5
10
682.5
20
-1313
10
683.5
20
-1333
10
680
20
-1336.5
10
664
20
-1336.5
0
LWPOLYLINE
8
REFERENCE_STROKES
90
8
70
0
10
329
20
-1365.5
10
327.5
20
-1364
10
327.5
20
-1195
10
330
20
-1193.5
10
448
20
-1192.5
10
449.5
20
-1195
10
449.5
20
-1362
10
438
20
-1364.5
0
LWPOLYLINE
8
REFERENCE_STROKES
90
19
70
1
10
457
20
-1360.5
10
622
20
-1357.5
10
624
20
-1350.5
10
633
20
-1349.5
10
640.5
20
-1344
10
642
20
-1336.5
10
625
20
-1337.5
10
622.5
20
-1335
10
622.5
20
-1314
10
625
20
-1312.5
10
641
20
-1313.5
10
642.5
20
-1311
10
635
20
-1301.5
10
622.5
20
-1298
10
622.5
20
-1194
10
621
20
-1192.5
10
470
20
-1194.5
10
455.5
20
-1197
10
455.5
20
-1359
0
LWPOLYLINE
8
REFERENCE_STROKES
90
14
70
0
10
671
20
-1319.5
10
672
20
-1315.5
10
661
20
-1315.5
10
659.5
20
-1311
10
661.5
20
-1305
10
672.5
20
-1296
10
672.5
20
-1193
10
634
20
-1192.5
10
632.5
20
-1195
10
632.5
20
-1296
10
643.5
20
-1305
10
645.5
20
-1315
10
634
20
-1316.5
10
633.5
20
-1319
0
LWPOLYLINE
8
REFERENCE_STROKES
90
7
70
0
10
205
20
-1367.5
10
202.5
20
-1365
10
202.5
20
-1196
10
321
20
-1193.5
10
323.5
20
-1196
10
323.5
20
-1364
10
317
20
-1366.5
0
LWPOLYLINE
8
REFERENCE_STROKES
90
8
70
1
10
197
20
-1367.5
10
79
20
-1368.5
10
77.5
20
-1367
10
75.5
20
-1200
10
78
20
-1196.5
10
196
20
-1195.5
10
197.5
20
-1197
10
199.5
20
-1365
0
LWPOLYLINE
8
REFERENCE_STROKES
90
7
70
1
10
332
20
-1362.5
10
445
20
-1360.5
10
446.5
20
-1359
10
445
20
-1195.5
10
332
20
-1196.5
10
330.5
20
-1198
10
330.5
20
-1361
0
LWPOLYLINE
8
REFERENCE_STROKES
90
5
70
1
10
208
20
-1364.5
10
320.5
20
-1362
10
320
20
-1197.5
10
205.5
20
-1199
10
205.5
20
-1362
0
LWPOLYLINE
8
REFERENCE_STROKES
90
7
70
1
10
82
20
-1365.5
10
194
20
-1364.5
10
195.5
20
-1363
10
194
20
-1198.5
10
82
20
-1199.5
10
79.5
20
-1201
10
80.5
20
-1364
0
LWPOLYLINE
8
REFERENCE_STROKES
90
43
70
0
10
1489
20
-1261.5
10
1481
20
-1254.5
10
1479.5
20
-1255
10
1481.5
20
-1259
10
1480
20
-1260.5
10
1475.5
20
-1258
10
1475.5
20
-1254
10
1478
20
-1251.5
10
1482
20
-1251.5
10
1487
20
-1255.5
10
1488.5
20
-1251
10
1487
20
-1246.5
10
1481
20
-1246.5
10
1478
20
-1249.5
10
1475.5
20
-1246
10
1477
20
-1243.5
10
1486
20
-1243.5
10
1487.5
20
-1242
10
1486
20
-1237.5
10
1477
20
-1239.5
10
1475.5
20
-1237
10
1478
20
-1233.5
10
1487
20
-1233.5
10
1486.5
20
-1226
10
1483
20
-1227.5
10
1479
20
-1224.5
10
1480.5
20
-1228
10
1479
20
-1230.5
10
1474.5
20
-1226
10
1478
20
-1220.5
10
1484.5
20
-1221
10
1484
20
-1218.5
10
1477
20
-1216.5
10
1474.5
20
-1213
10
1486
20
-1207.5
10
1490.5
20
-1208
10
1486.5
20
-1212
10
1486.5
20
-1216
10
1490.5
20
-1219
10
1490.5
20
-1228
10
1488.5
20
-1231
10
1490.5
20
-1232
10
1491.5
20
-1258
0
LWPOLYLINE
8
REFERENCE_STROKES
90
5
70
0
10
1006.5
20
-1262
10
1099
20
-1261.5
10
1099.5
20
-1214
10
1007
20
-1214.5
10
1005.5
20
-1216
0
LWPOLYLINE
8
REFERENCE_STROKES
90
35
70
1
10
645
20
-1259.5
10
642.5
20
-1257
10
643
20
-1254.5
10
654
20
-1253.5
10
655.5
20
-1250
10
653.5
20
-1249
10
654.5
20
-1245
10
653
20
-1243.5
10
651.5
20
-1244
10
651
20
-1249.5
10
642.5
20
-1248
10
642.5
20
-1242
10
644
20
-1240.5
10
647
20
-1245.5
10
650.5
20
-1240
10
650
20
-1238.5
10
642.5
20
-1238
10
642.5
20
-1231
10
645
20
-1230.5
10
645.5
20
-1234
10
648
20
-1234.5
10
648.5
20
-1231
10
652.5
20
-1229
10
643
20
-1224.5
10
642.5
20
-1222
10
656
20
-1215.5
10
657.5
20
-1218
10
654.5
20
-1221
10
654.5
20
-1225
10
657.5
20
-1227
10
657.5
20
-1237
10
655.5
20
-1239
10
657.5
20
-1243
10
657.5
20
-1259
10
648
20
-1257.5
0
LWPOLYLINE
8
REFERENCE_STROKES
90
15
70
1
10
1035
20
-1244.5
10
1024
20
-1244.5
10
1022.5
20
-1243
10
1032.5
20
-1231
10
1031
20
-1227.5
10
1028
20
-1227.5
10
1026
20
-1230.5
10
1022.5
20
-1229
10
1028
20
-1223.5
10
1032
20
-1223.5
10
1035.5
20
-1227
10
1035.5
20
-1233
10
1029.5
20
-1239
10
1030
20
-1241.5
10
1036
20
-1241.5
0
LWPOLYLINE
8
REFERENCE_STROKES
90
8
70
0
10
1063
20
-1244.5
10
1057
20
-1243.5
10
1053.5
20
-1237
10
1054.5
20
-1227
10
1058
20
-1223.5
10
1063
20
-1223.5
10
1067.5
20
-1228
10
1067.5
20
-1241
0
LWPOLYLINE
8
REFERENCE_STROKES
90
8
70
0
10
1075
20
-1244.5
10
1072.5
20
-1241
10
1077.5
20
-1227
10
1070
20
-1226.5
10
1069.5
20
-1225
10
1071
20
-1223.5
10
1083
20
-1223.5
10
1083.5
20
-1227
0
LWPOLYLINE
8
REFERENCE_STROKES
90
11
70
1
10
1050
20
-1244.5
10
1039.5
20
-1244
10
1040
20
-1241.5
10
1044.5
20
-1240
10
1044.5
20
-1230
10
1039.5
20
-1229
10
1043
20
-1224.5
10
1047
20
-1224.5
10
1048.5
20
-1227
10
1048.5
20
-1240
10
1052.5
20
-1242
0
LWPOLYLINE
8
REFERENCE_STROKES
90
6
70
0
10
1063
20
-1240.5
10
1064.5
20
-1229
10
1060
20
-1226.5
10
1057.5
20
-1230
10
1057.5
20
-1238
10
1059
20
-1240.5
0
LWPOLYLINE
8
REFERENCE_STROKES
90
4
70
1
10
653
20
-1239.5
10
654
20
-1233.5
10
651.5
20
-1234
10
651.5
20
-1239
0
LWPOLYLINE
8
REFERENCE_STROKES
90
5
70
0
10
903.5
20
-1246
10
899
20
-1247.5
10
895.5
20
-1244
10
895.5
20
-1241
10
901
20
-1241.5
0
LWPOLYLINE
8
REFERENCE_STROKES
90
14
70
1
10
1739
20
-1269.5
10
1728
20
-1269.5
10
1726.5
20
-1268
10
1726.5
20
-1265
10
1735.5
20
-1256
10
1734
20
-1252.5
10
1728
20
-1255.5
10
1725.5
20
-1253
10
1729
20
-1248.5
10
1735
20
-1247.5
10
1739.5
20
-1252
10
1739.5
20
-1257
10
1733.5
20
-1264
10
1740
20
-1266.5
0
LWPOLYLINE
8
REFERENCE_STROKES
90
18
70
0
10
1769.5
20
-1268
10
1768
20
-1269.5
10
1744
20
-1269.5
10
1743.5
20
-1267
10
1747.5
20
-1265
10
1747.5
20
-1255
10
1742.5
20
-1253
10
1748
20
-1247.5
10
1751.5
20
-1250
10
1751.5
20
-1265
10
1757
20
-1266.5
10
1760.5
20
-1265
10
1760.5
20
-1255
10
1757
20
-1254.5
10
1756.5
20
-1251
10
1762
20
-1247.5
10
1764
20
-1248.5
10
1764.5
20
-1264
0
LWPOLYLINE
8
REFERENCE_STROKES
90
8
70
0
10
1777
20
-1269.5
10
1774.5
20
-1268
10
1774.5
20
-1262
10
1778.5
20
-1253
10
1772
20
-1252.5
10
1771
20
-1247.5
10
1783
20
-1247.5
10
1784.5
20
-1249
0
LWPOLYLINE
8
REFERENCE_STROKES
90
16
70
1
10
1586
20
-1270.5
10
1575
20
-1270.5
10
1573.5
20
-1269
10
1573.5
20
-1266
10
1582.5
20
-1257
10
1581
20
-1253.5
10
1578
20
-1253.5
10
1575
20
-1256.5
10
1573.5
20
-1255
10
1576
20
-1249.5
10
1581
20
-1248.5
10
1586.5
20
-1253
10
1586.5
20
-1258
10
1580.5
20
-1264
10
1581
20
-1266.5
10
1587.5
20
-1268
0
LWPOLYLINE
8
REFERENCE_STROKES
90
20
70
0
10
1615.5
20
-1269
10
1613
20
-1270.5
10
1591
20
-1270.5
10
1589.5
20
-1268
10
1593
20
-1266.5
10
1594.5
20
-1263
10
1593.5
20
-1256
10
1590
20
-1255.5
10
1589.5
20
-1253
10
1594
20
-1248.5
10
1597.5
20
-1249
10
1598.5
20
-1266
10
1603
20
-1267.5
10
1607.5
20
-1266
10
1607.5
20
-1256
10
1602.5
20
-1254
10
1606
20
-1249.5
10
1610
20
-1248.5
10
1611.5
20
-1250
10
1611.5
20
-1265
0
LWPOLYLINE
8
REFERENCE_STROKES
90
18
70
1
10
1629
20
-1269.5
10
1622
20
-1270.5
10
1617.5
20
-1267
10
1618
20
-1264.5
10
1626.5
20
-1266
10
1626
20
-1260.5
10
1620
20
-1261.5
10
1617.5
20
-1260
10
1617.5
20
-1250
10
1619
20
-1248.5
10
1629
20
-1248.5
10
1630.5
20
-1250
10
1630
20
-1252.5
10
1622.5
20
-1254
10
1623
20
-1256.5
10
1630
20
-1258.5
10
1631.5
20
-1261
10
1631.5
20
-1267
0
LWPOLYLINE
8
REFERENCE_STROKES
90
15
70
0
10
1338
20
-1272.5
10
1336.5
20
-1268
10
1345.5
20
-1259
10
1345.5
20
-1256
10
1343
20
-1254.5
10
1340
20
-1257.5
10
1337
20
-1257.5
10
1336.5
20
-1254
10
1341
20
-1250.5
10
1347
20
-1250.5
10
1349.5
20
-1253
10
1349.5
20
-1260
10
1342.5
20
-1268
10
1349
20
-1268.5
10
1350.5
20
-1271
0
LWPOLYLINE
8
REFERENCE_STROKES
90
19
70
1
10
1378.5
20
-1271
10
1353
20
-1271.5
10
1352.5
20
-1270
10
1357.5
20
-1267
10
1357.5
20
-1258
10
1354
20
-1257.5
10
1353.5
20
-1254
10
1357
20
-1250.5
10
1360
20
-1250.5
10
1361.5
20
-1252
10
1361.5
20
-1267
10
1370
20
-1268.5
10
1370.5
20
-1257
10
1367
20
-1257.5
10
1366.5
20
-1254
10
1370
20
-1250.5
10
1374
20
-1250.5
10
1374.5
20
-1267
10
1378
20
-1268.5
0
LWPOLYLINE
8
REFERENCE_STROKES
90
19
70
0
10
1391
20
-1271.5
10
1384
20
-1271.5
10
1380.5
20
-1268
10
1381
20
-1265.5
10
1384
20
-1265.5
10
1387
20
-1268.5
10
1390.5
20
-1267
10
1389
20
-1263.5
10
1384.5
20
-1262
10
1385
20
-1259.5
10
1389.5
20
-1258
10
1389.5
20
-1255
10
1386
20
-1254.5
10
1383
20
-1257.5
10
1380.5
20
-1255
10
1384
20
-1250.5
10
1391
20
-1250.5
10
1394.5
20
-1254
10
1394.5
20
-1269
0
LWPOLYLINE
8
REFERENCE_STROKES
90
27
70
1
10
1216.5
20
-1273
10
1177
20
-1273.5
10
1177
20
-1270.5
10
1181.5
20
-1270
10
1181.5
20
-1259
10
1178
20
-1258.5
10
1177.5
20
-1256
10
1184
20
-1251.5
10
1185.5
20
-1253
10
1185.5
20
-1269
10
1193
20
-1270.5
10
1195.5
20
-1269
10
1195.5
20
-1259
10
1192
20
-1259.5
10
1190.5
20
-1257
10
1197
20
-1251.5
10
1198.5
20
-1253
10
1198.5
20
-1268
10
1205
20
-1270.5
10
1208.5
20
-1269
10
1208.5
20
-1259
10
1205
20
-1258.5
10
1204.5
20
-1256
10
1211
20
-1251.5
10
1212.5
20
-1253
10
1212.5
20
-1269
10
1216
20
-1269.5
0
LWPOLYLINE
8
REFERENCE_STROKES
90
15
70
0
10
1163
20
-1274.5
10
1160.5
20
-1273
10
1160.5
20
-1270
10
1170.5
20
-1259
10
1169
20
-1256.5
10
1166
20
-1256.5
10
1162
20
-1259.5
10
1160.5
20
-1256
10
1164
20
-1252.5
10
1171
20
-1252.5
10
1174.5
20
-1257
10
1173.5
20
-1262
10
1166.5
20
-1270
10
1174
20
-1270.5
10
1174.5
20
-1273
0
LWPOLYLINE
8
REFERENCE_STROKES
90
31
70
0
10
787.5
20
-1277
10
783
20
-1279.5
10
778
20
-1279.5
10
773
20
-1274.5
10
768
20
-1279.5
10
762
20
-1279.5
10
758.5
20
-1275
10
762
20
-1273.5
10
766
20
-1276.5
10
768.5
20
-1271
10
758.5
20
-1269
10
759.5
20
-1259
10
761
20
-1257.5
10
770
20
-1257.5
10
771.5
20
-1261
10
764
20
-1262.5
10
763.5
20
-1265
10
770
20
-1266.5
10
774
20
-1273.5
10
783
20
-1275.5
10
784.5
20
-1273
10
783
20
-1269.5
10
776
20
-1270.5
10
774.5
20
-1269
10
774.5
20
-1259
10
786
20
-1257.5
10
787.5
20
-1261
10
779
20
-1262.5
10
778.5
20
-1265
10
784
20
-1265.5
10
787.5
20
-1268
0
LWPOLYLINE
8
REFERENCE_STROKES
90
15
70
0
10
729
20
-1280.5
10
727.5
20
-1276
10
736.5
20
-1267
10
736.5
20
-1264
10
733
20
-1262.5
10
731
20
-1265.5
10
728
20
-1265.5
10
727.5
20
-1262
10
731
20
-1258.5
10
738
20
-1258.5
10
740.5
20
-1261
10
740.5
20
-1267
10
733.5
20
-1276
10
741
20
-1276.5
10
741.5
20
-1278
0
LWPOLYLINE
8
REFERENCE_STROKES
90
10
70
1
10
755
20
-1279.5
10
745
20
-1279.5
10
743.5
20
-1278
10
748.5
20
-1275
10
748.5
20
-1265
10
744.5
20
-1264
10
748
20
-1258.5
10
752.5
20
-1259
10
752.5
20
-1275
10
756.5
20
-1277
0
LWPOLYLINE
8
REFERENCE_STROKES
90
36
70
0
10
541.5
20
-1281
10
541
20
-1277.5
10
548
20
-1279.5
10
550.5
20
-1277
10
549
20
-1272.5
10
540.5
20
-1273
10
542
20
-1261.5
10
553
20
-1261.5
10
554.5
20
-1263
10
553.5
20
-1265
10
546
20
-1265.5
10
545.5
20
-1269
10
553
20
-1270.5
10
556
20
-1276.5
10
560
20
-1276.5
10
563
20
-1279.5
10
566.5
20
-1278
10
566.5
20
-1275
10
560.5
20
-1272
10
565.5
20
-1268
10
565.5
20
-1266
10
563
20
-1264.5
10
560
20
-1267.5
10
557
20
-1267.5
10
556.5
20
-1265
10
562
20
-1260.5
10
566
20
-1260.5
10
570.5
20
-1264
10
568.5
20
-1272
10
571.5
20
-1275
10
571.5
20
-1278
10
568
20
-1282.5
10
560
20
-1282.5
10
556
20
-1277.5
10
553
20
-1281.5
10
548
20
-1283.5
0
LWPOLYLINE
8
REFERENCE_STROKES
90
15
70
1
10
521
20
-1283.5
10
510
20
-1283.5
10
508.5
20
-1280
10
518.5
20
-1270
10
517
20
-1265.5
10
513
20
-1268.5
10
508.5
20
-1267
10
513
20
-1261.5
10
519
20
-1261.5
10
522.5
20
-1265
10
522.5
20
-1271
10
515.5
20
-1278
10
516
20
-1279.5
10
521
20
-1279.5
10
522.5
20
-1281
0
LWPOLYLINE
8
REFERENCE_STROKES
90
10
70
0
10
527
20
-1283.5
10
525.5
20
-1281
10
529.5
20
-1279
10
530.5
20
-1270
10
526.5
20
-1268
10
526.5
20
-1265
10
531
20
-1261.5
10
534
20
-1261.5
10
534.5
20
-1279
10
539.5
20
-1281
0
LWPOLYLINE
8
REFERENCE_STROKES
90
11
70
0
10
657.5
20
-1271
10
654
20
-1271.5
10
647
20
-1265.5
10
647.5
20
-1271
10
645
20
-1271.5
10
642.5
20
-1269
10
642.5
20
-1265
10
645
20
-1262.5
10
650
20
-1262.5
10
654
20
-1265.5
10
657
20
-1261.5
0
LWPOLYLINE
8
REFERENCE_STROKES
90
15
70
1
10
370
20
-1285.5
10
358
20
-1285.5
10
356.5
20
-1284
10
366.5
20
-1272
10
366
20
-1268.5
10
357.5
20
-1271
10
356.5
20
-1269
10
360
20
-1264.5
10
364
20
-1263.5
10
370.5
20
-1267
10
370.5
20
-1273
10
363.5
20
-1280
10
364
20
-1282.5
10
370
20
-1282.5
10
371.5
20
-1284
0
LWPOLYLINE
8
REFERENCE_STROKES
90
11
70
1
10
385
20
-1285.5
10
375
20
-1285.5
10
373.5
20
-1284
10
378.5
20
-1281
10
378.5
20
-1271
10
375
20
-1270.5
10
374.5
20
-1268
10
380
20
-1263.5
10
382.5
20
-1265
10
382.5
20
-1280
10
386.5
20
-1283
0
LWPOLYLINE
8
REFERENCE_STROKES
90
18
70
0
10
398
20
-1285.5
10
393
20
-1285.5
10
388.5
20
-1282
10
390
20
-1279.5
10
394
20
-1281.5
10
398.5
20
-1280
10
398
20
-1275.5
10
391
20
-1276.5
10
388.5
20
-1274
10
391
20
-1263.5
10
401
20
-1263.5
10
402.5
20
-1265
10
401
20
-1267.5
10
393.5
20
-1269
10
394
20
-1271.5
10
398
20
-1271.5
10
403.5
20
-1276
10
403.5
20
-1281
0
LWPOLYLINE
8
REFERENCE_STROKES
90
10
70
0
10
408
20
-1285.5
10
405.5
20
-1283
10
410.5
20
-1280
10
410.5
20
-1271
10
407
20
-1270.5
10
406.5
20
-1267
10
411
20
-1263.5
10
414
20
-1263.5
10
414.5
20
-1280
10
419.5
20
-1283
0
LWPOLYLINE
8
REFERENCE_STROKES
90
14
70
0
10
246
20
-1287.5
10
234
20
-1287.5
10
232.5
20
-1286
10
233.5
20
-1282
10
242.5
20
-1273
10
241
20
-1269.5
10
233
20
-1272.5
10
232.5
20
-1269
10
235
20
-1266.5
10
242
20
-1265.5
10
245.5
20
-1268
10
245.5
20
-1276
10
238.5
20
-1284
10
245
20
-1283.5
0
LWPOLYLINE
8
REFERENCE_STROKES
90
10
70
1
10
261
20
-1287.5
10
249.5
20
-1287
10
249.5
20
-1285
10
254.5
20
-1282
10
254.5
20
-1273
10
249.5
20
-1271
10
254
20
-1265.5
10
258.5
20
-1267
10
258.5
20
-1283
10
262.5
20
-1285
0
LWPOLYLINE
8
REFERENCE_STROKES
90
8
70
0
10
276
20
-1286.5
10
272
20
-1283.5
10
263.5
20
-1282
10
264.5
20
-1277
10
273
20
-1265.5
10
276.5
20
-1267
10
276.5
20
-1278
10
279.5
20
-1281
0
LWPOLYLINE
8
REFERENCE_STROKES
90
13
70
0
10
288
20
-1287.5
10
281.5
20
-1285
10
283
20
-1281.5
10
288
20
-1283.5
10
290.5
20
-1281
10
290
20
-1279.5
10
286
20
-1280.5
10
280.5
20
-1276
10
280.5
20
-1270
10
284
20
-1265.5
10
292
20
-1266.5
10
294.5
20
-1271
10
293.5
20
-1283
0
LWPOLYLINE
8
REFERENCE_STROKES
90
14
70
0
10
109
20
-1289.5
10
106.5
20
-1286
10
116.5
20
-1276
10
116.5
20
-1272
10
113
20
-1271.5
10
110
20
-1274.5
10
106.5
20
-1272
10
109
20
-1268.5
10
114
20
-1266.5
10
120.5
20
-1271
10
120.5
20
-1276
10
113.5
20
-1285
10
120
20
-1285.5
10
120.5
20
-1288
0
LWPOLYLINE
8
REFERENCE_STROKES
90
9
70
0
10
161
20
-1288.5
10
158.5
20
-1287
10
158.5
20
-1282
10
163.5
20
-1272
10
156
20
-1271.5
10
153.5
20
-1269
10
156
20
-1266.5
10
166
20
-1266.5
10
169.5
20
-1269
0
LWPOLYLINE
8
REFERENCE_STROKES
90
11
70
0
10
125
20
-1289.5
10
123.5
20
-1286
10
128.5
20
-1284
10
128.5
20
-1274
10
126
20
-1274.5
10
124.5
20
-1271
10
128
20
-1267.5
10
132
20
-1267.5
10
132.5
20
-1285
10
136
20
-1285.5
10
136.5
20
-1288
0
LWPOLYLINE
8
REFERENCE_STROKES
90
9
70
0
10
149
20
-1288.5
10
146
20
-1284.5
10
139
20
-1284.5
10
137.5
20
-1282
10
147
20
-1267.5
10
150.5
20
-1268
10
150.5
20
-1280
10
152.5
20
-1281
10
152.5
20
-1284
0
LWPOLYLINE
8
REFERENCE_STROKES
90
6
70
1
10
1003.5
20
-1353
10
1004
20
-1270.5
10
1101
20
-1268.5
10
1103.5
20
-1271
10
1103
20
-1352.5
10
1006
20
-1354.5
0
LWPOLYLINE
8
REFERENCE_STROKES
90
5
70
1
10
288
20
-1276.5
10
290.5
20
-1275
10
290.5
20
-1271
10
286
20
-1269.5
10
284.5
20
-1275
0
LWPOLYLINE
8
REFERENCE_STROKES
90
7
70
0
10
1100.5
20
-1349
10
1100.5
20
-1273
10
1099
20
-1271.5
10
1008
20
-1272.5
10
1006.5
20
-1274
10
1006.5
20
-1349
10
1008
20
-1350.5
0
LWPOLYLINE
8
REFERENCE_STROKES
90
4
70
1
10
144
20
-1280.5
10
147.5
20
-1280
10
147
20
-1275.5
10
144.5
20
-1277
0
LWPOLYLINE
8
REFERENCE_STROKES
90
21
70
0
10
1081.5
20
-1316
10
1076
20
-1318.5
10
1073
20
-1317.5
10
1070.5
20
-1314
10
1073
20
-1312.5
10
1077
20
-1314.5
10
1079.5
20
-1311
10
1072
20
-1310.5
10
1069
20
-1306.5
10
1067.5
20
-1315
10
1063
20
-1318.5
10
1059
20
-1318.5
10
1055.5
20
-1315
10
1053.5
20
-1309
10
1055.5
20
-1300
10
1060
20
-1296.5
10
1065
20
-1297.5
10
1068
20
-1301.5
10
1076
20
-1296.5
10
1081
20
-1297.5
10
1084.5
20
-1304
0
LWPOLYLINE
8
REFERENCE_STROKES
90
16
70
1
10
1036
20
-1318.5
10
1023.5
20
-1318
10
1024.5
20
-1313
10
1032.5
20
-1306
10
1031
20
-1301.5
10
1026
20
-1304.5
10
1023.5
20
-1303
10
1024.5
20
-1299
10
1027
20
-1297.5
10
1034
20
-1297.5
10
1036.5
20
-1301
10
1036.5
20
-1306
10
1029.5
20
-1313
10
1030
20
-1314.5
10
1036
20
-1314.5
10
1037.5
20
-1316
0
LWPOLYLINE
8
REFERENCE_STROKES
90
11
70
1
10
1052
20
-1318.5
10
1041
20
-1318.5
10
1039.5
20
-1317
10
1041
20
-1314.5
10
1044.5
20
-1314
10
1044.5
20
-1304
10
1040.5
20
-1303
10
1044
20
-1297.5
10
1048.5
20
-1299
10
1048.5
20
-1313
10
1053.5
20
-1316
0
LWPOLYLINE
8
REFERENCE_STROKES
90
6
70
0
10
1062
20
-1314.5
10
1064.5
20
-1312
10
1064.5
20
-1302
10
1063
20
-1300.5
10
1058.5
20
-1303
10
1058.5
20
-1312
0
LWPOLYLINE
8
REFERENCE_STROKES
90
4
70
1
10
1078
20
-1307.5
10
1079.5
20
-1302
10
1076
20
-1300.5
10
1074.5
20
-1306
0
LWPOLYLINE
8
REFERENCE_STROKES
90
14
70
1
10
1513.5
20
-1321
10
1513.5
20
-1307
10
1512
20
-1305.5
10
1509.5
20
-1306
10
1508
20
-1311.5
10
1464
20
-1311.5
10
1462.5
20
-1306
10
1458.5
20
-1306
10
1459
20
-1322.5
10
1463.5
20
-1321
10
1464
20
-1316.5
10
1503
20
-1315.5
10
1508
20
-1316.5
10
1510
20
-1322.5
0
LWPOLYLINE
8
REFERENCE_STROKES
90
13
70
1
10
679.5
20
-1332
10
679
20
-1315.5
10
675.5
20
-1316
10
674
20
-1321.5
10
632
20
-1322.5
10
629
20
-1316.5
10
625.5
20
-1318
10
625.5
20
-1332
10
627
20
-1333.5
10
630.5
20
-1333
10
632
20
-1327.5
10
674
20
-1326.5
10
677
20
-1333.5
0
LWPOLYLINE
8
REFERENCE_STROKES
90
16
70
0
10
1466.5
20
-1345
10
1468
20
-1346.5
10
1506
20
-1345.5
10
1506.5
20
-1341
10
1496.5
20
-1334
10
1494.5
20
-1324
10
1496
20
-1322.5
10
1506
20
-1322.5
10
1506.5
20
-1320
10
1505
20
-1318.5
10
1467
20
-1318.5
10
1468
20
-1323.5
10
1477
20
-1322.5
10
1478.5
20
-1330
10
1471
20
-1339.5
10
1466.5
20
-1341
0
LWPOLYLINE
8
REFERENCE_STROKES
90
15
70
0
10
633.5
20
-1357
10
672
20
-1356.5
10
672.5
20
-1352
10
661.5
20
-1343
10
660.5
20
-1335
10
662
20
-1333.5
10
671
20
-1333.5
10
672.5
20
-1330
10
669
20
-1328.5
10
635
20
-1329.5
10
634
20
-1333.5
10
643
20
-1333.5
10
646.5
20
-1337
10
642.5
20
-1347
10
633.5
20
-1353
0
LWPOLYLINE
8
REFERENCE_STROKES
90
5
70
0
10
1752
20
-1380.5
10
1752.5
20
-1355
10
1750
20
-1353.5
10
1744
20
-1354.5
10
1744.5
20
-1380
0
LWPOLYLINE
8
REFERENCE_STROKES
90
5
70
0
10
1764
20
-1380.5
10
1763.5
20
-1355
10
1757
20
-1353.5
10
1755.5
20
-1355
10
1755.5
20
-1379
0
LWPOLYLINE
8
REFERENCE_STROKES
90
5
70
0
10
1775
20
-1380.5
10
1775.5
20
-1355
10
1768
20
-1353.5
10
1766.5
20
-1355
10
1767.5
20
-1379
0
LWPOLYLINE
8
REFERENCE_STROKES
90
5
70
0
10
1787
20
-1380.5
10
1787.5
20
-1355
10
1780
20
-1353.5
10
1778.5
20
-1355
10
1778.5
20
-1379
0
LWPOLYLINE
8
REFERENCE_STROKES
90
4
70
0
10
1799
20
-1380.5
10
1799.5
20
-1355
10
1791
20
-1353.5
10
1790.5
20
-1379
0
LWPOLYLINE
8
REFERENCE_STROKES
90
5
70
0
10
1810
20
-1380.5
10
1811.5
20
-1379
10
1811.5
20
-1355
10
1803
20
-1353.5
10
1802.5
20
-1379
0
LWPOLYLINE
8
REFERENCE_STROKES
90
5
70
0
10
86
20
-1403.5
10
93.5
20
-1402
10
93.5
20
-1377
10
91
20
-1375.5
10
84.5
20
-1378
0
LWPOLYLINE
8
REFERENCE_STROKES
90
5
70
0
10
104
20
-1402.5
10
104.5
20
-1377
10
98
20
-1375.5
10
95.5
20
-1378
10
95.5
20
-1401
0
LWPOLYLINE
8
REFERENCE_STROKES
90
6
70
0
10
115
20
-1402.5
10
115.5
20
-1377
10
108
20
-1375.5
10
106.5
20
-1377
10
106.5
20
-1400
10
108
20
-1402.5
0
LWPOLYLINE
8
REFERENCE_STROKES
90
6
70
0
10
126
20
-1402.5
10
126.5
20
-1377
10
119
20
-1375.5
10
117.5
20
-1377
10
117.5
20
-1400
10
119
20
-1402.5
0
LWPOLYLINE
8
REFERENCE_STROKES
90
6
70
0
10
137
20
-1402.5
10
137.5
20
-1377
10
130
20
-1375.5
10
128.5
20
-1377
10
128.5
20
-1400
10
130
20
-1402.5
0
LWPOLYLINE
8
REFERENCE_STROKES
90
6
70
0
10
147
20
-1402.5
10
148.5
20
-1401
10
148.5
20
-1377
10
141
20
-1375.5
10
139.5
20
-1378
10
140.5
20
-1402
0
LWPOLYLINE
8
REFERENCE_STROKES
90
5
70
0
10
80
20
-1403.5
10
82.5
20
-1402
10
82.5
20
-1377
10
75
20
-1376.5
10
74.5
20
-1402
0
LWPOLYLINE
8
REFERENCE_STROKES
90
6
70
0
10
1753
20
-1416.5
10
1754.5
20
-1415
10
1753.5
20
-1390
10
1747
20
-1388.5
10
1744.5
20
-1390
10
1745.5
20
-1416
0
LWPOLYLINE
8
REFERENCE_STROKES
90
7
70
0
10
1764
20
-1416.5
10
1765.5
20
-1415
10
1764.5
20
-1390
10
1758
20
-1388.5
10
1756.5
20
-1390
10
1756.5
20
-1414
10
1759
20
-1416.5
0
LWPOLYLINE
8
REFERENCE_STROKES
90
5
70
0
10
1776
20
-1416.5
10
1776.5
20
-1390
10
1769
20
-1388.5
10
1767.5
20
-1390
10
1768.5
20
-1415
0
LWPOLYLINE
8
REFERENCE_STROKES
90
7
70
0
10
1787
20
-1416.5
10
1788.5
20
-1415
10
1788.5
20
-1390
10
1781
20
-1388.5
10
1779.5
20
-1390
10
1779.5
20
-1414
10
1782
20
-1416.5
0
LWPOLYLINE
8
REFERENCE_STROKES
90
6
70
0
10
1799
20
-1416.5
10
1800.5
20
-1415
10
1800.5
20
-1390
10
1792
20
-1388.5
10
1791.5
20
-1414
10
1795
20
-1416.5
0
LWPOLYLINE
8
REFERENCE_STROKES
90
4
70
0
10
1812
20
-1415.5
10
1811.5
20
-1389
10
1804
20
-1388.5
10
1803.5
20
-1414
0
LWPOLYLINE
8
REFERENCE_STROKES
90
6
70
0
10
1741
20
-1416.5
10
1742.5
20
-1415
10
1741.5
20
-1390
10
1734
20
-1389.5
10
1732.5
20
-1391
10
1733.5
20
-1416
0
LWPOLYLINE
8
REFERENCE_STROKES
90
54
70
1
10
1203.5
20
-1565
10
1202.5
20
-1407
10
1204
20
-1405.5
10
1439
20
-1403.5
10
1440.5
20
-1411
10
1438
20
-1413.5
10
1365.5
20
-1414
10
1367
20
-1420.5
10
1379
20
-1420.5
10
1380.5
20
-1422
10
1380.5
20
-1460
10
1378
20
-1461.5
10
1368
20
-1460.5
10
1366.5
20
-1462
10
1366.5
20
-1480
10
1368
20
-1481.5
10
1439
20
-1481.5
10
1438.5
20
-1471
10
1441.5
20
-1468
10
1441.5
20
-1465
10
1437.5
20
-1458
10
1441.5
20
-1450
10
1437.5
20
-1445
10
1437.5
20
-1440
10
1443
20
-1434.5
10
1458
20
-1435.5
10
1460
20
-1425.5
10
1467
20
-1425.5
10
1469
20
-1434.5
10
1482
20
-1433.5
10
1487.5
20
-1437
10
1488.5
20
-1445
10
1485.5
20
-1451
10
1489.5
20
-1459
10
1485.5
20
-1466
10
1489.5
20
-1472
10
1489
20
-1480.5
10
1551.5
20
-1479
10
1551.5
20
-1460
10
1537
20
-1459.5
10
1535.5
20
-1458
10
1534.5
20
-1436
10
1535.5
20
-1418
10
1549
20
-1418.5
10
1550.5
20
-1413
10
1549
20
-1411.5
10
1487
20
-1412.5
10
1486.5
20
-1404
10
1488
20
-1402.5
10
1602
20
-1402.5
10
1603.5
20
-1404
10
1606.5
20
-1554
10
1605
20
-1561.5
10
1205
20
-1566.5
0
LWPOLYLINE
8
REFERENCE_STROKES
90
26
70
0
10
1206.5
20
-1562
10
1208
20
-1563.5
10
1602
20
-1558.5
10
1600.5
20
-1406
10
1491
20
-1405.5
10
1489.5
20
-1407
10
1490
20
-1409.5
10
1552.5
20
-1410
10
1554.5
20
-1480
10
1553
20
-1481.5
10
1468
20
-1482.5
10
1466.5
20
-1481
10
1466.5
20
-1433
10
1465.5
20
-1429
10
1463
20
-1428.5
10
1461.5
20
-1430
10
1462.5
20
-1480
10
1460
20
-1482.5
10
1367
20
-1484.5
10
1363.5
20
-1481
10
1363.5
20
-1412
10
1366
20
-1410.5
10
1436
20
-1410.5
10
1436
20
-1406.5
10
1207
20
-1408.5
10
1205.5
20
-1410
0
LWPOLYLINE
8
REFERENCE_STROKES
90
8
70
1
10
1598
20
-1554.5
10
1561
20
-1555.5
10
1558.5
20
-1553
10
1557.5
20
-1411
10
1559
20
-1409.5
10
1590
20
-1408.5
10
1597.5
20
-1412
10
1599.5
20
-1552
0
LWPOLYLINE
8
REFERENCE_STROKES
90
7
70
1
10
120
20
-1439.5
10
126.5
20
-1437
10
126.5
20
-1412
10
124
20
-1410.5
10
120
20
-1410.5
10
117.5
20
-1413
10
118.5
20
-1438
0
LWPOLYLINE
8
REFERENCE_STROKES
90
7
70
0
10
136
20
-1438.5
10
137.5
20
-1437
10
137.5
20
-1413
10
135
20
-1410.5
10
131
20
-1410.5
10
128.5
20
-1413
10
128.5
20
-1437
0
LWPOLYLINE
8
REFERENCE_STROKES
90
5
70
0
10
148
20
-1438.5
10
148.5
20
-1412
10
142
20
-1410.5
10
139.5
20
-1413
10
139.5
20
-1437
0
LWPOLYLINE
8
REFERENCE_STROKES
90
6
70
0
10
159
20
-1438.5
10
160.5
20
-1437
10
159.5
20
-1412
10
153
20
-1410.5
10
151.5
20
-1412
10
151.5
20
-1438
0
LWPOLYLINE
8
REFERENCE_STROKES
90
6
70
1
10
1358
20
-1484.5
10
1315.5
20
-1484
10
1315
20
-1411.5
10
1356
20
-1410.5
10
1358.5
20
-1412
10
1359.5
20
-1483
0
LWPOLYLINE
8
REFERENCE_STROKES
90
6
70
0
10
81
20
-1439.5
10
82.5
20
-1438
10
82.5
20
-1413
10
75
20
-1411.5
10
73.5
20
-1413
10
73.5
20
-1438
0
LWPOLYLINE
8
REFERENCE_STROKES
90
6
70
0
10
91
20
-1439.5
10
93.5
20
-1438
10
93.5
20
-1413
10
86
20
-1411.5
10
84.5
20
-1414
10
85.5
20
-1439
0
LWPOLYLINE
8
REFERENCE_STROKES
90
5
70
0
10
101
20
-1439.5
10
104.5
20
-1438
10
104.5
20
-1413
10
97
20
-1411.5
10
95.5
20
-1438
0
LWPOLYLINE
8
REFERENCE_STROKES
90
6
70
1
10
111
20
-1439.5
10
115.5
20
-1438
10
115.5
20
-1413
10
114
20
-1411.5
10
106.5
20
-1413
10
107.5
20
-1438
0
LWPOLYLINE
8
REFERENCE_STROKES
90
8
70
1
10
1310
20
-1557.5
10
1210.5
20
-1558
10
1209.5
20
-1414
10
1211
20
-1412.5
10
1308
20
-1411.5
10
1309.5
20
-1413
10
1311.5
20
-1488
10
1311.5
20
-1556
0
LWPOLYLINE
8
REFERENCE_STROKES
90
5
70
0
10
1595
20
-1551.5
10
1593.5
20
-1413
10
1561
20
-1412.5
10
1561.5
20
-1550
10
1563
20
-1551.5
0
LWPOLYLINE
8
REFERENCE_STROKES
90
5
70
0
10
1356
20
-1481.5
10
1355.5
20
-1415
10
1354
20
-1413.5
10
1318
20
-1414.5
10
1318.5
20
-1481
0
LWPOLYLINE
8
REFERENCE_STROKES
90
56
70
1
10
252.5
20
-1582
10
252
20
-1421.5
10
359
20
-1419.5
10
361.5
20
-1422
10
360.5
20
-1429
10
358
20
-1430.5
10
306
20
-1430.5
10
304.5
20
-1432
10
305
20
-1436.5
10
319.5
20
-1437
10
319.5
20
-1476
10
304.5
20
-1479
10
304.5
20
-1498
10
311
20
-1499.5
10
367
20
-1498.5
10
361.5
20
-1490
10
365.5
20
-1481
10
361.5
20
-1475
10
364.5
20
-1465
10
360.5
20
-1458
10
366
20
-1450.5
10
381
20
-1450.5
10
383
20
-1442.5
10
390
20
-1442.5
10
391.5
20
-1445
10
390.5
20
-1450
10
393
20
-1452.5
10
406
20
-1450.5
10
411.5
20
-1457
10
410.5
20
-1462
10
407.5
20
-1465
10
411.5
20
-1475
10
407.5
20
-1480
10
407.5
20
-1483
10
410.5
20
-1486
10
410.5
20
-1492
10
406.5
20
-1496
10
407
20
-1498.5
10
465
20
-1496.5
10
466.5
20
-1495
10
466.5
20
-1476
10
450
20
-1476.5
10
448.5
20
-1475
10
448.5
20
-1436
10
450
20
-1434.5
10
464
20
-1434.5
10
466.5
20
-1433
10
466.5
20
-1428
10
411
20
-1428.5
10
409.5
20
-1421
10
412
20
-1418.5
10
631
20
-1414.5
10
633.5
20
-1418
10
633.5
20
-1575
10
632
20
-1577.5
10
254
20
-1583.5
0
LWPOLYLINE
8
REFERENCE_STROKES
90
5
70
0
10
1214
20
-1555.5
10
1308.5
20
-1554
10
1306
20
-1414.5
10
1214
20
-1415.5
10
1212.5
20
-1417
0
LWPOLYLINE
8
REFERENCE_STROKES
90
36
70
0
10
255.5
20
-1579
10
257
20
-1580.5
10
629
20
-1574.5
10
630.5
20
-1571
10
629.5
20
-1419
10
625
20
-1417.5
10
415
20
-1421.5
10
412.5
20
-1423
10
413
20
-1425.5
10
468.5
20
-1426
10
469.5
20
-1496
10
467
20
-1498.5
10
459
20
-1499.5
10
390
20
-1499.5
10
388.5
20
-1446
10
385
20
-1445.5
10
383.5
20
-1447
10
382.5
20
-1477
10
383.5
20
-1491
10
378.5
20
-1492
10
379
20
-1494.5
10
383.5
20
-1494
10
383.5
20
-1498
10
378
20
-1499.5
10
380.5
20
-1497
10
375
20
-1496.5
10
374
20
-1499.5
10
353
20
-1501.5
10
302.5
20
-1501
10
301.5
20
-1430
10
309
20
-1427.5
10
355
20
-1427.5
10
358.5
20
-1425
10
358
20
-1423.5
10
256
20
-1424.5
10
254.5
20
-1426
0
LWPOLYLINE
8
REFERENCE_STROKES
90
6
70
1
10
187
20
-1435.5
10
181.5
20
-1435
10
181.5
20
-1420
10
183
20
-1418.5
10
188.5
20
-1420
10
188.5
20
-1434
0
LWPOLYLINE
8
REFERENCE_STROKES
90
28
70
0
10
1329
20
-1462.5
10
1327.5
20
-1457
10
1336
20
-1456.5
10
1337.5
20
-1451
10
1332
20
-1450.5
10
1329
20
-1453.5
10
1326.5
20
-1449
10
1330
20
-1446.5
10
1336
20
-1447.5
10
1337.5
20
-1443
10
1332
20
-1437.5
10
1329.5
20
-1438
10
1330.5
20
-1442
10
1328
20
-1442.5
10
1326.5
20
-1437
10
1329
20
-1433.5
10
1332
20
-1433.5
10
1337
20
-1437.5
10
1337.5
20
-1433
10
1328
20
-1429.5
10
1326.5
20
-1425
10
1339
20
-1420.5
10
1337.5
20
-1429
10
1340.5
20
-1432
10
1341.5
20
-1461
10
1339
20
-1462.5
10
1337
20
-1459.5
10
1332
20
-1459.5
0
LWPOLYLINE
8
REFERENCE_STROKES
90
6
70
0
10
526
20
-1571.5
10
525.5
20
-1425
10
527
20
-1423.5
10
625
20
-1422.5
10
625.5
20
-1570
10
555
20
-1572.5
0
LWPOLYLINE
8
REFERENCE_STROKES
90
8
70
0
10
1722
20
-1593.5
10
1719.5
20
-1586
10
1717.5
20
-1425
10
1720
20
-1422.5
10
1851
20
-1421.5
10
1853.5
20
-1425
10
1855.5
20
-1591
10
1854
20
-1592.5
0
LWPOLYLINE
8
REFERENCE_STROKES
90
7
70
0
10
1544
20
-1434.5
10
1546.5
20
-1431
10
1543.5
20
-1428
10
1546.5
20
-1424
10
1542
20
-1422.5
10
1539.5
20
-1425
10
1539.5
20
-1431
0
LWPOLYLINE
8
REFERENCE_STROKES
90
7
70
1
10
520
20
-1497.5
10
473.5
20
-1498
10
473.5
20
-1426
10
475
20
-1424.5
10
520
20
-1424.5
10
521.5
20
-1426
10
521.5
20
-1496
0
LWPOLYLINE
8
REFERENCE_STROKES
90
7
70
1
10
1725
20
-1590.5
10
1851
20
-1589.5
10
1852.5
20
-1588
10
1849.5
20
-1426
10
1848
20
-1424.5
10
1721.5
20
-1427
10
1723.5
20
-1589
0
LWPOLYLINE
8
REFERENCE_STROKES
90
6
70
0
10
529
20
-1568.5
10
621
20
-1567.5
10
622.5
20
-1566
10
622
20
-1425.5
10
530
20
-1426.5
10
528.5
20
-1428
0
LWPOLYLINE
8
REFERENCE_STROKES
90
7
70
0
10
1374
20
-1436.5
10
1376.5
20
-1434
10
1376.5
20
-1428
10
1371
20
-1425.5
10
1369.5
20
-1429
10
1372.5
20
-1431
10
1369.5
20
-1435
0
LWPOLYLINE
8
REFERENCE_STROKES
90
7
70
1
10
478
20
-1496.5
10
517
20
-1495.5
10
518.5
20
-1494
10
518
20
-1427.5
10
478
20
-1427.5
10
476.5
20
-1429
10
476.5
20
-1495
0
LWPOLYLINE
8
REFERENCE_STROKES
90
7
70
0
10
295
20
-1576.5
10
261
20
-1576.5
10
259.5
20
-1575
10
259
20
-1428.5
10
296
20
-1428.5
10
297.5
20
-1430
10
298.5
20
-1573
0
LWPOLYLINE
8
REFERENCE_STROKES
90
7
70
0
10
294
20
-1572.5
10
294.5
20
-1433
10
293
20
-1431.5
10
263
20
-1431.5
10
261.5
20
-1433
10
262.5
20
-1572
10
264
20
-1573.5
0
LWPOLYLINE
8
REFERENCE_STROKES
90
27
70
0
10
489
20
-1477.5
10
488
20
-1471.5
10
497
20
-1471.5
10
499.5
20
-1468
10
497.5
20
-1466
10
498
20
-1460.5
10
495
20
-1463.5
10
491
20
-1461.5
10
490
20
-1467.5
10
487.5
20
-1465
10
487.5
20
-1460
10
490
20
-1457.5
10
495.5
20
-1458
10
487.5
20
-1451
10
487.5
20
-1449
10
496.5
20
-1447
10
495
20
-1444.5
10
489
20
-1442.5
10
487.5
20
-1439
10
497
20
-1433.5
10
501
20
-1433.5
10
497.5
20
-1441
10
501.5
20
-1445
10
498.5
20
-1455
10
501.5
20
-1459
10
501.5
20
-1476
10
492
20
-1474.5
0
LWPOLYLINE
8
REFERENCE_STROKES
90
7
70
1
10
1550.5
20
-1442
10
1550
20
-1434.5
10
1545
20
-1436.5
10
1537.5
20
-1435
10
1539
20
-1441.5
10
1546
20
-1440.5
10
1548
20
-1442.5
0
LWPOLYLINE
8
REFERENCE_STROKES
90
7
70
0
10
1378.5
20
-1443
10
1377
20
-1437.5
10
1370
20
-1438.5
10
1368
20
-1436.5
10
1365.5
20
-1437
10
1366
20
-1443.5
10
1372
20
-1441.5
0
LWPOLYLINE
8
REFERENCE_STROKES
90
8
70
0
10
455
20
-1450.5
10
460.5
20
-1449
10
458.5
20
-1444
10
461.5
20
-1441
10
459
20
-1438.5
10
455
20
-1439.5
10
452.5
20
-1443
10
452.5
20
-1447
0
LWPOLYLINE
8
REFERENCE_STROKES
90
4
70
1
10
1448.5
20
-1446
10
1447
20
-1439.5
10
1442.5
20
-1442
10
1445
20
-1446.5
0
LWPOLYLINE
8
REFERENCE_STROKES
90
4
70
1
10
1482
20
-1445.5
10
1484.5
20
-1441
10
1479
20
-1439.5
10
1478.5
20
-1445
0
LWPOLYLINE
8
REFERENCE_STROKES
90
7
70
1
10
312
20
-1452.5
10
315.5
20
-1449
10
315.5
20
-1444
10
310
20
-1441.5
10
307.5
20
-1444
10
310.5
20
-1447
10
308.5
20
-1452
0
LWPOLYLINE
8
REFERENCE_STROKES
90
8
70
0
10
1546
20
-1453.5
10
1546.5
20
-1450
10
1544.5
20
-1448
10
1546.5
20
-1444
10
1542
20
-1442.5
10
1539.5
20
-1446
10
1539.5
20
-1450
10
1542
20
-1453.5
0
LWPOLYLINE
8
REFERENCE_STROKES
90
6
70
1
10
187
20
-1461.5
10
181.5
20
-1461
10
181.5
20
-1446
10
184
20
-1444.5
10
188.5
20
-1446
10
188.5
20
-1460
0
LWPOLYLINE
8
REFERENCE_STROKES
90
7
70
0
10
1375
20
-1455.5
10
1376.5
20
-1447
10
1375
20
-1444.5
10
1371
20
-1444.5
10
1369.5
20
-1447
10
1372.5
20
-1451
10
1370.5
20
-1454
0
LWPOLYLINE
8
REFERENCE_STROKES
90
7
70
0
10
32
20
-1619.5
10
30.5
20
-1449
10
33
20
-1446.5
10
162
20
-1445.5
10
163.5
20
-1447
10
164.5
20
-1616
10
163
20
-1617.5
0
LWPOLYLINE
8
REFERENCE_STROKES
90
7
70
0
10
35
20
-1616.5
10
154
20
-1615.5
10
161.5
20
-1614
10
160.5
20
-1450
10
159
20
-1448.5
10
36
20
-1449.5
10
34.5
20
-1451
0
LWPOLYLINE
8
REFERENCE_STROKES
90
17
70
1
10
459
20
-1470.5
10
460.5
20
-1467
10
458.5
20
-1464
10
461.5
20
-1462
10
460.5
20
-1459
10
464
20
-1459.5
10
466.5
20
-1457
10
465.5
20
-1451
10
455
20
-1452.5
10
452
20
-1450.5
10
452
20
-1458.5
10
455
20
-1456.5
10
460.5
20
-1458
10
456
20
-1458.5
10
452.5
20
-1463
10
452.5
20
-1467
10
456
20
-1470.5
0
LWPOLYLINE
8
REFERENCE_STROKES
90
7
70
0
10
303.5
20
-1460
10
306
20
-1461.5
10
309
20
-1459.5
10
317
20
-1459.5
10
317.5
20
-1454
10
309
20
-1454.5
10
305
20
-1452.5
0
LWPOLYLINE
8
REFERENCE_STROKES
90
4
70
0
10
1483
20
-1461.5
10
1484.5
20
-1456
10
1479
20
-1454.5
10
1478.5
20
-1461
0
LWPOLYLINE
8
REFERENCE_STROKES
90
4
70
0
10
371.5
20
-1461
10
371
20
-1455.5
10
365.5
20
-1458
10
367
20
-1461.5
0
LWPOLYLINE
8
REFERENCE_STROKES
90
4
70
0
10
402
20
-1462.5
10
406.5
20
-1460
10
405
20
-1455.5
10
400.5
20
-1457
0
LWPOLYLINE
8
REFERENCE_STROKES
90
4
70
0
10
1448
20
-1462.5
10
1448.5
20
-1456
10
1444
20
-1455.5
10
1442.5
20
-1460
0
LWPOLYLINE
8
REFERENCE_STROKES
90
10
70
1
10
305
20
-1475.5
10
308.5
20
-1475
10
308
20
-1471.5
10
311
20
-1472.5
10
315.5
20
-1469
10
315.5
20
-1464
10
313
20
-1461.5
10
307.5
20
-1463
10
310.5
20
-1467
10
303.5
20
-1473
0
LWPOLYLINE
8
REFERENCE_STROKES
90
10
70
0
10
1341.5
20
-1473
10
1337
20
-1473.5
10
1331
20
-1467.5
10
1331.5
20
-1473
10
1329
20
-1473.5
10
1326.5
20
-1467
10
1329
20
-1464.5
10
1333
20
-1464.5
10
1338
20
-1467.5
10
1340
20
-1464.5
0
LWPOLYLINE
8
REFERENCE_STROKES
90
4
70
1
10
466.5
20
-1471
10
464
20
-1469.5
10
459.5
20
-1473
10
465
20
-1473.5
0
LWPOLYLINE
8
REFERENCE_STROKES
90
4
70
0
10
371
20
-1477.5
10
371.5
20
-1471
10
369
20
-1470.5
10
365.5
20
-1475
0
LWPOLYLINE
8
REFERENCE_STROKES
90
4
70
1
10
404
20
-1477.5
10
407.5
20
-1473
10
402
20
-1470.5
10
400.5
20
-1476
0
LWPOLYLINE
8
REFERENCE_STROKES
90
4
70
1
10
1482
20
-1477.5
10
1484.5
20
-1472
10
1479
20
-1470.5
10
1478.5
20
-1476
0
LWPOLYLINE
8
REFERENCE_STROKES
90
6
70
1
10
187
20
-1488.5
10
181.5
20
-1487
10
181.5
20
-1473
10
183
20
-1471.5
10
188.5
20
-1472
10
189.5
20
-1486
0
LWPOLYLINE
8
REFERENCE_STROKES
90
4
70
1
10
1448.5
20
-1477
10
1448
20
-1471.5
10
1442.5
20
-1474
10
1445
20
-1477.5
0
LWPOLYLINE
8
REFERENCE_STROKES
90
19
70
1
10
1270.5
20
-1489
10
1269
20
-1490.5
10
1252
20
-1490.5
10
1250.5
20
-1488
10
1253.5
20
-1486
10
1253.5
20
-1479
10
1251
20
-1478.5
10
1250.5
20
-1476
10
1253
20
-1473.5
10
1257.5
20
-1475
10
1257.5
20
-1486
10
1261
20
-1487.5
10
1264.5
20
-1485
10
1264.5
20
-1479
10
1261.5
20
-1478
10
1261.5
20
-1475
10
1266
20
-1472.5
10
1268.5
20
-1475
10
1268.5
20
-1486
0
LWPOLYLINE
8
REFERENCE_STROKES
90
13
70
1
10
1282
20
-1490.5
10
1272.5
20
-1489
10
1272.5
20
-1486
10
1278.5
20
-1480
10
1278
20
-1476.5
10
1275
20
-1478.5
10
1272.5
20
-1477
10
1276
20
-1472.5
10
1280
20
-1472.5
10
1283.5
20
-1477
10
1282.5
20
-1481
10
1278.5
20
-1485
10
1283.5
20
-1488
0
LWPOLYLINE
8
REFERENCE_STROKES
90
12
70
1
10
1247
20
-1490.5
10
1238
20
-1490.5
10
1236.5
20
-1489
10
1244.5
20
-1480
10
1244
20
-1477.5
10
1237.5
20
-1478
10
1237.5
20
-1475
10
1240
20
-1473.5
10
1247.5
20
-1475
10
1247.5
20
-1481
10
1243.5
20
-1485
10
1248.5
20
-1489
0
LWPOLYLINE
8
REFERENCE_STROKES
90
12
70
0
10
502.5
20
-1485
10
501
20
-1488.5
10
498
20
-1488.5
10
493
20
-1482.5
10
491
20
-1482.5
10
491.5
20
-1487
10
489
20
-1488.5
10
486.5
20
-1483
10
489
20
-1479.5
10
493
20
-1479.5
10
497
20
-1482.5
10
501
20
-1479.5
0
LWPOLYLINE
8
REFERENCE_STROKES
90
21
70
1
10
574.5
20
-1501
10
572
20
-1502.5
10
552
20
-1502.5
10
550.5
20
-1499
10
558.5
20
-1490
10
556
20
-1488.5
10
551
20
-1490.5
10
550.5
20
-1488
10
553
20
-1485.5
10
560
20
-1485.5
10
561.5
20
-1493
10
557.5
20
-1498
10
564
20
-1499.5
10
567.5
20
-1498
10
567.5
20
-1490
10
565
20
-1489.5
10
564.5
20
-1487
10
570
20
-1484.5
10
571.5
20
-1486
10
571.5
20
-1498
10
574
20
-1498.5
0
LWPOLYLINE
8
REFERENCE_STROKES
90
22
70
0
10
598.5
20
-1500
10
596
20
-1501.5
10
594
20
-1498.5
10
588
20
-1497.5
10
584
20
-1501.5
10
578
20
-1501.5
10
577
20
-1496.5
10
581
20
-1498.5
10
583.5
20
-1497
10
579.5
20
-1494
10
583.5
20
-1489
10
581
20
-1487.5
10
577
20
-1489.5
10
576.5
20
-1487
10
580
20
-1484.5
10
584
20
-1484.5
10
586.5
20
-1487
10
586.5
20
-1494
10
588
20
-1494.5
10
593.5
20
-1486
10
597
20
-1484.5
10
599.5
20
-1495
0
LWPOLYLINE
8
REFERENCE_STROKES
90
4
70
0
10
371
20
-1492.5
10
372.5
20
-1487
10
369
20
-1485.5
10
365.5
20
-1490
0
LWPOLYLINE
8
REFERENCE_STROKES
90
4
70
1
10
404
20
-1492.5
10
406.5
20
-1488
10
402
20
-1485.5
10
400.5
20
-1492
0
LWPOLYLINE
8
REFERENCE_STROKES
90
6
70
1
10
1467.5
20
-1555
10
1467
20
-1487.5
10
1553.5
20
-1487
10
1555.5
20
-1553
10
1553
20
-1555.5
10
1470
20
-1556.5
0
LWPOLYLINE
8
REFERENCE_STROKES
90
8
70
1
10
1410
20
-1556.5
10
1367
20
-1557.5
10
1364.5
20
-1555
10
1363.5
20
-1492
10
1365
20
-1488.5
10
1409
20
-1487.5
10
1410.5
20
-1489
10
1411.5
20
-1555
0
LWPOLYLINE
8
REFERENCE_STROKES
90
7
70
0
10
1418
20
-1557.5
10
1415.5
20
-1554
10
1415.5
20
-1488
10
1461
20
-1487.5
10
1462.5
20
-1489
10
1463.5
20
-1554
10
1461
20
-1556.5
0
LWPOLYLINE
8
REFERENCE_STROKES
90
8
70
1
10
1359
20
-1557.5
10
1317
20
-1557.5
10
1315.5
20
-1556
10
1314.5
20
-1497
10
1316
20
-1489.5
10
1358
20
-1488.5
10
1359.5
20
-1490
10
1360.5
20
-1556
0
LWPOLYLINE
8
REFERENCE_STROKES
90
5
70
0
10
1460
20
-1552.5
10
1459.5
20
-1491
10
1458
20
-1489.5
10
1419
20
-1490.5
10
1419.5
20
-1553
0
LWPOLYLINE
8
REFERENCE_STROKES
90
5
70
1
10
1551.5
20
-1551
10
1550
20
-1489.5
10
1469.5
20
-1490
10
1471
20
-1552.5
10
1550
20
-1552.5
0
LWPOLYLINE
8
REFERENCE_STROKES
90
6
70
0
10
1408
20
-1553.5
10
1407.5
20
-1491
10
1368
20
-1491.5
10
1366.5
20
-1494
10
1367.5
20
-1553
10
1372
20
-1554.5
0
LWPOLYLINE
8
REFERENCE_STROKES
90
8
70
0
10
1009
20
-1698.5
10
1007.5
20
-1697
10
1006.5
20
-1495
10
1009
20
-1493.5
10
1139
20
-1492.5
10
1140.5
20
-1504
10
1141.5
20
-1695
10
1140
20
-1696.5
0
LWPOLYLINE
8
REFERENCE_STROKES
90
18
70
0
10
1356
20
-1554.5
10
1357.5
20
-1553
10
1356.5
20
-1492
10
1319
20
-1491.5
10
1319
20
-1495.5
10
1331
20
-1495.5
10
1332.5
20
-1497
10
1332.5
20
-1517
10
1319
20
-1518.5
10
1318.5
20
-1528
10
1329
20
-1527.5
10
1334.5
20
-1531
10
1336.5
20
-1536
10
1333
20
-1544.5
10
1329
20
-1546.5
10
1320
20
-1545.5
10
1318.5
20
-1547
10
1319.5
20
-1554
0
LWPOLYLINE
8
REFERENCE_STROKES
90
12
70
0
10
1769
20
-1515.5
10
1757.5
20
-1513
10
1766.5
20
-1502
10
1765
20
-1497.5
10
1761
20
-1500.5
10
1757.5
20
-1499
10
1757.5
20
-1497
10
1762
20
-1493.5
10
1769
20
-1494.5
10
1771.5
20
-1499
10
1764.5
20
-1509
10
1771.5
20
-1512
0
LWPOLYLINE
8
REFERENCE_STROKES
90
19
70
0
10
1800.5
20
-1513
10
1799
20
-1514.5
10
1775
20
-1514.5
10
1774.5
20
-1512
10
1778.5
20
-1510
10
1778.5
20
-1501
10
1775
20
-1499.5
10
1774.5
20
-1497
10
1779
20
-1493.5
10
1782.5
20
-1495
10
1782.5
20
-1509
10
1788
20
-1511.5
10
1792.5
20
-1509
10
1791.5
20
-1500
10
1788
20
-1499.5
10
1787.5
20
-1497
10
1792
20
-1493.5
10
1795
20
-1493.5
10
1796.5
20
-1509
0
LWPOLYLINE
8
REFERENCE_STROKES
90
13
70
0
10
1811
20
-1514.5
10
1806
20
-1514.5
10
1803.5
20
-1512
10
1804
20
-1509.5
10
1810.5
20
-1510
10
1810
20
-1507.5
10
1806
20
-1507.5
10
1802.5
20
-1505
10
1801.5
20
-1499
10
1805
20
-1493.5
10
1811
20
-1493.5
10
1815.5
20
-1498
10
1815.5
20
-1509
0
LWPOLYLINE
8
REFERENCE_STROKES
90
6
70
0
10
1011
20
-1695.5
10
1138.5
20
-1693
10
1136.5
20
-1496
10
1135
20
-1494.5
10
1011
20
-1496.5
10
1009.5
20
-1498
0
LWPOLYLINE
8
REFERENCE_STROKES
90
7
70
0
10
701
20
-1705.5
10
699.5
20
-1704
10
699.5
20
-1500
10
702
20
-1498.5
10
836
20
-1497.5
10
837.5
20
-1701
10
822
20
-1703.5
0
LWPOLYLINE
8
REFERENCE_STROKES
90
11
70
0
10
1443.5
20
-1505
10
1436
20
-1508.5
10
1431
20
-1507.5
10
1427.5
20
-1504
10
1427.5
20
-1499
10
1431
20
-1497.5
10
1430.5
20
-1503
10
1432
20
-1503.5
10
1434
20
-1497.5
10
1441
20
-1496.5
10
1443.5
20
-1499
0
LWPOLYLINE
8
REFERENCE_STROKES
90
6
70
1
10
187
20
-1515.5
10
181.5
20
-1513
10
181.5
20
-1500
10
184
20
-1497.5
10
189.5
20
-1499
10
189.5
20
-1513
0
LWPOLYLINE
8
REFERENCE_STROKES
90
7
70
0
10
1392.5
20
-1507
10
1389
20
-1509.5
10
1379
20
-1508.5
10
1376.5
20
-1506
10
1376.5
20
-1500
10
1389
20
-1497.5
10
1392.5
20
-1500
0
LWPOLYLINE
8
REFERENCE_STROKES
90
4
70
1
10
1810
20
-1503.5
10
1811.5
20
-1499
10
1807
20
-1497.5
10
1806.5
20
-1502
0
LWPOLYLINE
8
REFERENCE_STROKES
90
5
70
0
10
703
20
-1702.5
10
834.5
20
-1699
10
833
20
-1499.5
10
704
20
-1501.5
10
702.5
20
-1503
0
LWPOLYLINE
8
REFERENCE_STROKES
90
8
70
0
10
1325
20
-1512.5
10
1327.5
20
-1510
10
1327.5
20
-1504
10
1326
20
-1501.5
10
1323
20
-1501.5
10
1321.5
20
-1504
10
1323.5
20
-1507
10
1321.5
20
-1510
0
LWPOLYLINE
8
REFERENCE_STROKES
90
8
70
0
10
474
20
-1572.5
10
473.5
20
-1504
10
478
20
-1502.5
10
520
20
-1502.5
10
521.5
20
-1509
10
520.5
20
-1571
10
519
20
-1572.5
10
492
20
-1573.5
0
LWPOLYLINE
8
REFERENCE_STROKES
90
8
70
0
10
419
20
-1574.5
10
391
20
-1574.5
10
389.5
20
-1573
10
388.5
20
-1507
10
390
20
-1504.5
10
420
20
-1503.5
10
422.5
20
-1506
10
422.5
20
-1572
0
LWPOLYLINE
8
REFERENCE_STROKES
90
6
70
0
10
467
20
-1573.5
10
427.5
20
-1573
10
426.5
20
-1506
10
429
20
-1503.5
10
468.5
20
-1504
10
469.5
20
-1570
0
LWPOLYLINE
8
REFERENCE_STROKES
90
8
70
0
10
302.5
20
-1574
10
301.5
20
-1508
10
304
20
-1505.5
10
382
20
-1504.5
10
384.5
20
-1507
10
384.5
20
-1573
10
383
20
-1574.5
10
306
20
-1576.5
0
LWPOLYLINE
8
REFERENCE_STROKES
90
20
70
0
10
518
20
-1568.5
10
518.5
20
-1557
10
517
20
-1555.5
10
504
20
-1556.5
10
501.5
20
-1554
10
501.5
20
-1535
10
504
20
-1532.5
10
517
20
-1532.5
10
518.5
20
-1526
10
517
20
-1524.5
10
509
20
-1526.5
10
504
20
-1525.5
10
499.5
20
-1521
10
499.5
20
-1514
10
505
20
-1508.5
10
518
20
-1508.5
10
518.5
20
-1506
10
478
20
-1505.5
10
476.5
20
-1507
10
476.5
20
-1569
0
LWPOLYLINE
8
REFERENCE_STROKES
90
6
70
0
10
419
20
-1570.5
10
419.5
20
-1508
10
417
20
-1506.5
10
393
20
-1507.5
10
391.5
20
-1509
10
392.5
20
-1571
0
LWPOLYLINE
8
REFERENCE_STROKES
90
6
70
0
10
466
20
-1569.5
10
466.5
20
-1508
10
465
20
-1506.5
10
431
20
-1506.5
10
429.5
20
-1509
10
430.5
20
-1570
0
LWPOLYLINE
8
REFERENCE_STROKES
90
7
70
1
10
381.5
20
-1570
10
381.5
20
-1509
10
380
20
-1507.5
10
307
20
-1508.5
10
305.5
20
-1510
10
306
20
-1572.5
10
380
20
-1571.5
0
LWPOLYLINE
8
REFERENCE_STROKES
90
19
70
0
10
1444
20
-1531.5
10
1440
20
-1528.5
10
1433
20
-1528.5
10
1432
20
-1531.5
10
1428.5
20
-1530
10
1427.5
20
-1527
10
1429
20
-1524.5
10
1440
20
-1524.5
10
1441.5
20
-1522
10
1433
20
-1512.5
10
1430.5
20
-1514
10
1432.5
20
-1519
10
1428.5
20
-1519
10
1427.5
20
-1512
10
1430
20
-1509.5
10
1435
20
-1510.5
10
1439
20
-1514.5
10
1441.5
20
-1509
10
1443.5
20
-1510
0
LWPOLYLINE
8
REFERENCE_STROKES
90
14
70
1
10
1496
20
-1527.5
10
1487
20
-1527.5
10
1485.5
20
-1526
10
1486.5
20
-1522
10
1493.5
20
-1515
10
1492
20
-1512.5
10
1488
20
-1514.5
10
1485.5
20
-1513
10
1490
20
-1508.5
10
1494
20
-1508.5
10
1496.5
20
-1511
10
1496.5
20
-1517
10
1491.5
20
-1522
10
1497.5
20
-1525
0
LWPOLYLINE
8
REFERENCE_STROKES
90
11
70
1
10
1509
20
-1527.5
10
1499.5
20
-1526
10
1499.5
20
-1524
10
1503.5
20
-1522
10
1503.5
20
-1515
10
1499.5
20
-1513
10
1503
20
-1508.5
10
1506
20
-1508.5
10
1507.5
20
-1512
10
1507.5
20
-1522
10
1510.5
20
-1525
0
LWPOLYLINE
8
REFERENCE_STROKES
90
14
70
1
10
1520
20
-1527.5
10
1512.5
20
-1526
10
1512.5
20
-1523
10
1519.5
20
-1516
10
1519
20
-1512.5
10
1512.5
20
-1513
10
1516
20
-1508.5
10
1521
20
-1508.5
10
1523.5
20
-1512
10
1523.5
20
-1515
10
1518.5
20
-1522
10
1519
20
-1523.5
10
1523
20
-1523.5
10
1523.5
20
-1526
0
LWPOLYLINE
8
REFERENCE_STROKES
90
6
70
0
10
1535
20
-1526.5
10
1524.5
20
-1521
10
1532
20
-1508.5
10
1535.5
20
-1509
10
1535.5
20
-1518
10
1537.5
20
-1522
0
LWPOLYLINE
8
REFERENCE_STROKES
90
28
70
1
10
1392
20
-1546.5
10
1383
20
-1539.5
10
1380.5
20
-1540
10
1381.5
20
-1545
10
1380
20
-1546.5
10
1376.5
20
-1543
10
1376.5
20
-1539
10
1379
20
-1535.5
10
1385
20
-1536.5
10
1388
20
-1540.5
10
1390.5
20
-1536
10
1389
20
-1529.5
10
1382
20
-1529.5
10
1380
20
-1533.5
10
1376.5
20
-1530
10
1377
20
-1526.5
10
1388
20
-1526.5
10
1390.5
20
-1523
10
1383
20
-1514.5
10
1379.5
20
-1515
10
1380.5
20
-1521
10
1377.5
20
-1520
10
1376.5
20
-1513
10
1380
20
-1510.5
10
1388
20
-1515.5
10
1389.5
20
-1512
10
1392.5
20
-1511
10
1393.5
20
-1545
0
LWPOLYLINE
8
REFERENCE_STROKES
90
4
70
0
10
509.5
20
-1515
10
506
20
-1514.5
10
503.5
20
-1518
10
508
20
-1519.5
0
LWPOLYLINE
8
REFERENCE_STROKES
90
18
70
0
10
451
20
-1537.5
10
448.5
20
-1537
10
449
20
-1531.5
10
445
20
-1534.5
10
441
20
-1531.5
10
441.5
20
-1537
10
438.5
20
-1537
10
438.5
20
-1529
10
446.5
20
-1528
10
445
20
-1525.5
10
440
20
-1526.5
10
438.5
20
-1525
10
437.5
20
-1519
10
440
20
-1516.5
10
450
20
-1516.5
10
452.5
20
-1519
10
450.5
20
-1526
10
452.5
20
-1531
0
LWPOLYLINE
8
REFERENCE_STROKES
90
16
70
1
10
80
20
-1538.5
10
68
20
-1539.5
10
66.5
20
-1537
10
67.5
20
-1534
10
76.5
20
-1526
10
75
20
-1521.5
10
70
20
-1524.5
10
67.5
20
-1524
10
67.5
20
-1520
10
71
20
-1517.5
10
77
20
-1517.5
10
80.5
20
-1521
10
80.5
20
-1526
10
73.5
20
-1533
10
74
20
-1535.5
10
80
20
-1535.5
0
LWPOLYLINE
8
REFERENCE_STROKES
90
11
70
0
10
85
20
-1539.5
10
83.5
20
-1536
10
88.5
20
-1533
10
88.5
20
-1525
10
85
20
-1524.5
10
83.5
20
-1522
10
91
20
-1517.5
10
92.5
20
-1519
10
92.5
20
-1534
10
95
20
-1534.5
10
96.5
20
-1538
0
LWPOLYLINE
8
REFERENCE_STROKES
90
9
70
0
10
110
20
-1538.5
10
108
20
-1538.5
10
106
20
-1534.5
10
100
20
-1534.5
10
97.5
20
-1532
10
107
20
-1517.5
10
110.5
20
-1519
10
110.5
20
-1529
10
112.5
20
-1531
0
LWPOLYLINE
8
REFERENCE_STROKES
90
15
70
0
10
124
20
-1538.5
10
117
20
-1538.5
10
114.5
20
-1535
10
116
20
-1532.5
10
122
20
-1534.5
10
124.5
20
-1532
10
123
20
-1528.5
10
114.5
20
-1529
10
116
20
-1517.5
10
126
20
-1517.5
10
127.5
20
-1519
10
121
20
-1520.5
10
118.5
20
-1523
10
128.5
20
-1528
10
128.5
20
-1534
0
LWPOLYLINE
8
REFERENCE_STROKES
90
12
70
0
10
405
20
-1539.5
10
395.5
20
-1533
10
397
20
-1530.5
10
403.5
20
-1530
10
397
20
-1527.5
10
394.5
20
-1524
10
398
20
-1517.5
10
406
20
-1517.5
10
410.5
20
-1521
10
410.5
20
-1524
10
405.5
20
-1528
10
409.5
20
-1532
0
LWPOLYLINE
8
REFERENCE_STROKES
90
5
70
0
10
406.5
20
-1524
10
405
20
-1520.5
10
398.5
20
-1522
10
398.5
20
-1524
10
402
20
-1525.5
0
LWPOLYLINE
8
REFERENCE_STROKES
90
7
70
1
10
187
20
-1541.5
10
181.5
20
-1540
10
181.5
20
-1527
10
183
20
-1524.5
10
188
20
-1524.5
10
189.5
20
-1528
10
189.5
20
-1539
0
LWPOLYLINE
8
REFERENCE_STROKES
90
14
70
1
10
369
20
-1545.5
10
357.5
20
-1545
10
358.5
20
-1541
10
365.5
20
-1534
10
365
20
-1531.5
10
359
20
-1532.5
10
357.5
20
-1531
10
361
20
-1527.5
10
365
20
-1526.5
10
369.5
20
-1530
10
368.5
20
-1536
10
363.5
20
-1541
10
364
20
-1542.5
10
369
20
-1542.5
0
LWPOLYLINE
8
REFERENCE_STROKES
90
13
70
1
10
327
20
-1546.5
10
317
20
-1546.5
10
315.5
20
-1545
10
316.5
20
-1542
10
324.5
20
-1535
10
324
20
-1532.5
10
316.5
20
-1533
10
319
20
-1528.5
10
325
20
-1527.5
10
328.5
20
-1532
10
323.5
20
-1541
10
324
20
-1543.5
10
328.5
20
-1544
0
LWPOLYLINE
8
REFERENCE_STROKES
90
5
70
1
10
354
20
-1545.5
10
343.5
20
-1540
10
352
20
-1527.5
10
354.5
20
-1529
10
355.5
20
-1542
0
LWPOLYLINE
8
REFERENCE_STROKES
90
9
70
1
10
340
20
-1546.5
10
330.5
20
-1545
10
335.5
20
-1541
10
335.5
20
-1535
10
331.5
20
-1532
10
334
20
-1528.5
10
338.5
20
-1529
10
338.5
20
-1542
10
342.5
20
-1544
0
LWPOLYLINE
8
REFERENCE_STROKES
90
14
70
0
10
1444.5
20
-1544
10
1443
20
-1545.5
10
1440
20
-1544.5
10
1434
20
-1537.5
10
1432
20
-1537.5
10
1431.5
20
-1541
10
1433.5
20
-1543
10
1430
20
-1544.5
10
1427.5
20
-1538
10
1433
20
-1533.5
10
1441
20
-1539.5
10
1441.5
20
-1534
10
1443
20
-1533.5
10
1444.5
20
-1535
0
LWPOLYLINE
8
REFERENCE_STROKES
90
5
70
1
10
1329
20
-1539.5
10
1331.5
20
-1537
10
1330
20
-1534.5
10
1327.5
20
-1535
10
1327.5
20
-1539
0
LWPOLYLINE
8
REFERENCE_STROKES
90
7
70
0
10
512
20
-1549.5
10
513.5
20
-1546
10
511.5
20
-1543
10
513.5
20
-1540
10
509
20
-1538.5
10
506.5
20
-1542
10
506.5
20
-1547
0
LWPOLYLINE
8
REFERENCE_STROKES
90
8
70
0
10
410.5
20
-1548
10
409
20
-1549.5
10
406
20
-1546.5
10
400
20
-1546.5
10
397
20
-1548.5
10
395.5
20
-1544
10
404
20
-1543.5
10
409
20
-1539.5
0
LWPOLYLINE
8
REFERENCE_STROKES
90
6
70
0
10
452.5
20
-1547
10
450
20
-1547.5
10
446
20
-1544.5
10
439
20
-1547.5
10
437.5
20
-1543
10
452
20
-1539.5
0
LWPOLYLINE
8
REFERENCE_STROKES
90
9
70
0
10
453.5
20
-1557
10
450
20
-1560.5
10
442
20
-1553.5
10
442.5
20
-1559
10
439
20
-1559.5
10
437.5
20
-1553
10
443
20
-1550.5
10
449
20
-1553.5
10
452
20
-1549.5
0
LWPOLYLINE
8
REFERENCE_STROKES
90
5
70
0
10
184
20
-1568.5
10
181.5
20
-1566
10
182.5
20
-1552
10
189
20
-1551.5
10
189.5
20
-1566
0
LWPOLYLINE
8
REFERENCE_STROKES
90
10
70
0
10
410.5
20
-1560
10
407
20
-1561.5
10
400
20
-1554.5
10
398.5
20
-1556
10
399.5
20
-1560
10
397
20
-1560.5
10
395.5
20
-1554
10
401
20
-1551.5
10
407
20
-1554.5
10
409
20
-1551.5
0
LWPOLYLINE
8
REFERENCE_STROKES
90
5
70
0
10
999.5
20
-1578
10
998
20
-1569.5
10
955
20
-1570.5
10
952.5
20
-1572
10
953
20
-1579.5
0
LWPOLYLINE
8
REFERENCE_STROKES
90
7
70
0
10
842.5
20
-1581
10
844
20
-1582.5
10
888
20
-1581.5
10
890.5
20
-1580
10
890.5
20
-1573
10
889
20
-1571.5
10
844
20
-1572.5
0
LWPOLYLINE
8
REFERENCE_STROKES
90
6
70
0
10
184
20
-1595.5
10
182.5
20
-1594
10
182.5
20
-1579
10
187
20
-1576.5
10
189.5
20
-1578
10
189.5
20
-1594
0
LWPOLYLINE
8
REFERENCE_STROKES
90
10
70
1
10
1103
20
-1601.5
10
1093
20
-1601.5
10
1091.5
20
-1600
10
1095.5
20
-1597
10
1095.5
20
-1587
10
1091.5
20
-1585
10
1097
20
-1579.5
10
1100.5
20
-1582
10
1100.5
20
-1597
10
1104.5
20
-1599
0
LWPOLYLINE
8
REFERENCE_STROKES
90
15
70
0
10
1054
20
-1602.5
10
1045
20
-1602.5
10
1043.5
20
-1601
10
1044.5
20
-1597
10
1053.5
20
-1588
10
1052
20
-1584.5
10
1047
20
-1587.5
10
1043.5
20
-1586
10
1043.5
20
-1584
10
1049
20
-1580.5
10
1053
20
-1580.5
10
1057.5
20
-1584
10
1055.5
20
-1592
10
1050.5
20
-1597
10
1058.5
20
-1600
0
LWPOLYLINE
8
REFERENCE_STROKES
90
12
70
1
10
1072
20
-1601.5
10
1060.5
20
-1601
10
1060.5
20
-1599
10
1064
20
-1598.5
10
1065.5
20
-1596
10
1064.5
20
-1587
10
1060.5
20
-1586
10
1060.5
20
-1584
10
1065
20
-1580.5
10
1069.5
20
-1582
10
1069.5
20
-1597
10
1073.5
20
-1599
0
LWPOLYLINE
8
REFERENCE_STROKES
90
17
70
0
10
1085
20
-1601.5
10
1078
20
-1601.5
10
1075.5
20
-1599
10
1076
20
-1595.5
10
1081
20
-1598.5
10
1084.5
20
-1597
10
1084.5
20
-1594
10
1079.5
20
-1592
10
1079.5
20
-1590
10
1084.5
20
-1586
10
1083
20
-1584.5
10
1075.5
20
-1586
10
1078
20
-1580.5
10
1085
20
-1580.5
10
1088.5
20
-1584
10
1087.5
20
-1591
10
1089.5
20
-1597
0
LWPOLYLINE
8
REFERENCE_STROKES
90
5
70
0
10
952.5
20
-1590
10
954
20
-1591.5
10
998
20
-1590.5
10
999.5
20
-1582
10
953
20
-1582.5
0
LWPOLYLINE
8
REFERENCE_STROKES
90
6
70
0
10
842.5
20
-1592
10
844
20
-1593.5
10
889
20
-1592.5
10
890.5
20
-1585
10
889
20
-1583.5
10
844
20
-1584.5
0
LWPOLYLINE
8
REFERENCE_STROKES
90
11
70
1
10
765
20
-1608.5
10
755
20
-1608.5
10
753.5
20
-1607
10
758.5
20
-1604
10
758.5
20
-1594
10
755
20
-1593.5
10
754.5
20
-1591
10
760
20
-1586.5
10
762.5
20
-1588
10
762.5
20
-1604
10
766.5
20
-1606
0
LWPOLYLINE
8
REFERENCE_STROKES
90
16
70
0
10
778
20
-1608.5
10
772
20
-1608.5
10
768.5
20
-1605
10
770
20
-1601.5
10
774
20
-1604.5
10
778.5
20
-1603
10
778.5
20
-1601
10
773.5
20
-1598
10
777.5
20
-1592
10
776
20
-1590.5
10
772
20
-1593.5
10
768.5
20
-1592
10
773
20
-1586.5
10
778
20
-1586.5
10
782.5
20
-1591
10
782.5
20
-1604
0
LWPOLYLINE
8
REFERENCE_STROKES
90
19
70
0
10
793
20
-1608.5
10
787
20
-1607.5
10
784.5
20
-1605
10
786
20
-1601.5
10
790
20
-1604.5
10
794.5
20
-1603
10
793
20
-1599.5
10
788.5
20
-1598
10
789
20
-1595.5
10
793.5
20
-1594
10
793.5
20
-1591
10
790
20
-1590.5
10
787
20
-1593.5
10
784.5
20
-1592
10
788
20
-1586.5
10
795
20
-1586.5
10
797.5
20
-1589
10
796.5
20
-1597
10
798.5
20
-1604
0
LWPOLYLINE
8
REFERENCE_STROKES
90
14
70
0
10
739
20
-1609.5
10
736.5
20
-1606
10
746.5
20
-1596
10
746.5
20
-1592
10
743
20
-1591.5
10
738
20
-1594.5
10
737.5
20
-1591
10
741
20
-1587.5
10
748
20
-1587.5
10
750.5
20
-1590
10
750.5
20
-1596
10
743.5
20
-1605
10
748
20
-1604.5
10
751.5
20
-1607
0
LWPOLYLINE
8
REFERENCE_STROKES
90
5
70
0
10
952.5
20
-1603
10
999
20
-1602.5
10
1000.5
20
-1595
10
999
20
-1593.5
10
953
20
-1594.5
0
LWPOLYLINE
8
REFERENCE_STROKES
90
5
70
0
10
842.5
20
-1603
10
844
20
-1605.5
10
889
20
-1604.5
10
890.5
20
-1596
10
844
20
-1596.5
0
LWPOLYLINE
8
REFERENCE_STROKES
90
8
70
0
10
1693
20
-1769.5
10
1690.5
20
-1767
10
1688.5
20
-1599
10
1691
20
-1597.5
10
1816
20
-1596.5
10
1818.5
20
-1600
10
1820.5
20
-1765
10
1819
20
-1766.5
0
LWPOLYLINE
8
REFERENCE_STROKES
90
8
70
0
10
1560
20
-1771.5
10
1558.5
20
-1768
10
1555.5
20
-1602
10
1558
20
-1599.5
10
1683
20
-1598.5
10
1684.5
20
-1601
10
1687.5
20
-1767
10
1685
20
-1769.5
0
LWPOLYLINE
8
REFERENCE_STROKES
90
8
70
0
10
1428
20
-1774.5
10
1425.5
20
-1771
10
1423.5
20
-1602
10
1426
20
-1600.5
10
1549
20
-1599.5
10
1551.5
20
-1602
10
1554.5
20
-1771
10
1552
20
-1772.5
0
LWPOLYLINE
8
REFERENCE_STROKES
90
5
70
1
10
1696
20
-1766.5
10
1816.5
20
-1763
10
1814
20
-1599.5
10
1690.5
20
-1602
10
1693.5
20
-1764
0
LWPOLYLINE
8
REFERENCE_STROKES
90
8
70
0
10
1284
20
-1776.5
10
1281.5
20
-1772
10
1279.5
20
-1604
10
1281
20
-1602.5
10
1417
20
-1600.5
10
1419.5
20
-1603
10
1422.5
20
-1772
10
1418
20
-1774.5
0
LWPOLYLINE
8
REFERENCE_STROKES
90
7
70
0
10
1563
20
-1768.5
10
1683
20
-1766.5
10
1684.5
20
-1765
10
1681.5
20
-1605
10
1680
20
-1601.5
10
1560
20
-1602.5
10
1558.5
20
-1604
0
LWPOLYLINE
8
REFERENCE_STROKES
90
7
70
0
10
1148
20
-1778.5
10
1146.5
20
-1776
10
1145.5
20
-1605
10
1273
20
-1602.5
10
1275.5
20
-1605
10
1278.5
20
-1774
10
1276
20
-1776.5
0
LWPOLYLINE
8
REFERENCE_STROKES
90
7
70
0
10
1430
20
-1770.5
10
1550
20
-1769.5
10
1551.5
20
-1768
10
1548.5
20
-1604
10
1547
20
-1602.5
10
1428
20
-1603.5
10
1426.5
20
-1605
0
LWPOLYLINE
8
REFERENCE_STROKES
90
7
70
0
10
1286
20
-1772.5
10
1418
20
-1771.5
10
1419.5
20
-1770
10
1416.5
20
-1606
10
1415
20
-1604.5
10
1284
20
-1605.5
10
1282.5
20
-1607
0
LWPOLYLINE
8
REFERENCE_STROKES
90
6
70
0
10
952.5
20
-1614
10
954
20
-1615.5
10
999
20
-1614.5
10
1000.5
20
-1608
10
999
20
-1605.5
10
953
20
-1606.5
0
LWPOLYLINE
8
REFERENCE_STROKES
90
6
70
1
10
1152
20
-1775.5
10
1274.5
20
-1773
10
1272.5
20
-1607
10
1271
20
-1605.5
10
1148.5
20
-1608
10
1150.5
20
-1774
0
LWPOLYLINE
8
REFERENCE_STROKES
90
4
70
0
10
843.5
20
-1617
10
889
20
-1616.5
10
890.5
20
-1608
10
844
20
-1608.5
0
LWPOLYLINE
8
REFERENCE_STROKES
90
8
70
0
10
579
20
-1789.5
10
577.5
20
-1788
10
576.5
20
-1738
10
577.5
20
-1616
10
694
20
-1613.5
10
695.5
20
-1615
10
695.5
20
-1786
10
693
20
-1787.5
0
LWPOLYLINE
8
REFERENCE_STROKES
90
8
70
1
10
571
20
-1789.5
10
455
20
-1790.5
10
453.5
20
-1789
10
453.5
20
-1619
10
455
20
-1617.5
10
571
20
-1615.5
10
572.5
20
-1617
10
573.5
20
-1787
0
LWPOLYLINE
8
REFERENCE_STROKES
90
7
70
1
10
582
20
-1786.5
10
692.5
20
-1783
10
692.5
20
-1618
10
691
20
-1616.5
10
582
20
-1618.5
10
580.5
20
-1620
10
580.5
20
-1785
0
LWPOLYLINE
8
REFERENCE_STROKES
90
6
70
1
10
449
20
-1790.5
10
330.5
20
-1791
10
330
20
-1619.5
10
447
20
-1617.5
10
449.5
20
-1620
10
450.5
20
-1788
0
LWPOLYLINE
8
REFERENCE_STROKES
90
7
70
0
10
952.5
20
-1626
10
954
20
-1627.5
10
998
20
-1626.5
10
1000.5
20
-1625
10
1000.5
20
-1619
10
999
20
-1617.5
10
954
20
-1617.5
0
LWPOLYLINE
8
REFERENCE_STROKES
90
5
70
0
10
458
20
-1787.5
10
569
20
-1786.5
10
570.5
20
-1785
10
570
20
-1618.5
10
457.5
20
-1621
0
LWPOLYLINE
8
REFERENCE_STROKES
90
8
70
0
10
208
20
-1793.5
10
205.5
20
-1790
10
204.5
20
-1623
10
208
20
-1620.5
10
323
20
-1619.5
10
325.5
20
-1622
10
326.5
20
-1790
10
320
20
-1792.5
0
LWPOLYLINE
8
REFERENCE_STROKES
90
4
70
0
10
843.5
20
-1629
10
889
20
-1628.5
10
890.5
20
-1620
10
845
20
-1619.5
0
LWPOLYLINE
8
REFERENCE_STROKES
90
5
70
0
10
446
20
-1787.5
10
447.5
20
-1786
10
446.5
20
-1621
10
333
20
-1622.5
10
333.5
20
-1788
0
LWPOLYLINE
8
REFERENCE_STROKES
90
9
70
0
10
81
20
-1795.5
10
78.5
20
-1626
10
81
20
-1623.5
10
97
20
-1622.5
10
141
20
-1623.5
10
199
20
-1621.5
10
200.5
20
-1623
10
201.5
20
-1792
10
200
20
-1793.5
0
LWPOLYLINE
8
REFERENCE_STROKES
90
7
70
1
10
210
20
-1790.5
10
322
20
-1788.5
10
323.5
20
-1787
10
322
20
-1622.5
10
209
20
-1623.5
10
207.5
20
-1625
10
208.5
20
-1789
0
LWPOLYLINE
8
REFERENCE_STROKES
90
14
70
0
10
85
20
-1791.5
10
198.5
20
-1789
10
198.5
20
-1667
10
196.5
20
-1641
10
194.5
20
-1637
10
196.5
20
-1633
10
194
20
-1628.5
10
181
20
-1626.5
10
171
20
-1627.5
10
164
20
-1625.5
10
128
20
-1627.5
10
101
20
-1626.5
10
96
20
-1628.5
10
83.5
20
-1627
0
LWPOLYLINE
8
REFERENCE_STROKES
90
6
70
1
10
1000.5
20
-1637
10
999
20
-1628.5
10
954
20
-1629.5
10
952.5
20
-1631
10
953
20
-1638.5
10
999
20
-1638.5
0
LWPOLYLINE
8
REFERENCE_STROKES
90
5
70
0
10
842.5
20
-1639
10
844
20
-1641.5
10
889
20
-1640.5
10
890.5
20
-1632
10
845
20
-1631.5
0
LWPOLYLINE
8
REFERENCE_STROKES
90
6
70
1
10
1000.5
20
-1649
10
999
20
-1640.5
10
954
20
-1641.5
10
952.5
20
-1643
10
954
20
-1650.5
10
998
20
-1650.5
0
LWPOLYLINE
8
REFERENCE_STROKES
90
6
70
0
10
843.5
20
-1652
10
845
20
-1653.5
10
886
20
-1652.5
10
890.5
20
-1651
10
890.5
20
-1644
10
845
20
-1643.5
0
LWPOLYLINE
8
REFERENCE_STROKES
90
6
70
0
10
952.5
20
-1661
10
954
20
-1662.5
10
1000
20
-1661.5
10
1000.5
20
-1654
10
999
20
-1652.5
10
954
20
-1653.5
0
LWPOLYLINE
8
REFERENCE_STROKES
90
5
70
0
10
890.5
20
-1663
10
890
20
-1654.5
10
845
20
-1655.5
10
843.5
20
-1657
10
844
20
-1664.5
0
LWPOLYLINE
8
REFERENCE_STROKES
90
6
70
0
10
952.5
20
-1672
10
954
20
-1674.5
10
1000
20
-1673.5
10
1000.5
20
-1666
10
999
20
-1664.5
10
954
20
-1665.5
0
LWPOLYLINE
8
REFERENCE_STROKES
90
4
70
0
10
843.5
20
-1676
10
890
20
-1675.5
10
890.5
20
-1667
10
845
20
-1667.5
0
LWPOLYLINE
8
REFERENCE_STROKES
90
15
70
1
10
1768
20
-1689.5
10
1757
20
-1689.5
10
1755.5
20
-1688
10
1755.5
20
-1685
10
1763.5
20
-1677
10
1763
20
-1672.5
10
1758
20
-1674.5
10
1755.5
20
-1673
10
1758
20
-1668.5
10
1763
20
-1667.5
10
1768.5
20
-1672
10
1768.5
20
-1677
10
1762.5
20
-1683
10
1763
20
-1685.5
10
1769.5
20
-1687
0
LWPOLYLINE
8
REFERENCE_STROKES
90
10
70
1
10
1783
20
-1689.5
10
1771.5
20
-1688
10
1772
20
-1685.5
10
1776.5
20
-1684
10
1775.5
20
-1674
10
1771.5
20
-1672
10
1777
20
-1667.5
10
1780.5
20
-1671
10
1780.5
20
-1684
10
1784.5
20
-1686
0
LWPOLYLINE
8
REFERENCE_STROKES
90
14
70
1
10
1737
20
-1690.5
10
1724.5
20
-1689
10
1724.5
20
-1686
10
1733.5
20
-1677
10
1732
20
-1672.5
10
1729
20
-1674.5
10
1724.5
20
-1674
10
1724.5
20
-1671
10
1729
20
-1668.5
10
1734
20
-1668.5
10
1737.5
20
-1672
10
1737.5
20
-1678
10
1731.5
20
-1684
10
1738.5
20
-1687
0
LWPOLYLINE
8
REFERENCE_STROKES
90
11
70
1
10
1752
20
-1689.5
10
1742
20
-1689.5
10
1740.5
20
-1688
10
1742
20
-1685.5
10
1745.5
20
-1685
10
1745.5
20
-1677
10
1741.5
20
-1672
10
1746
20
-1668.5
10
1749.5
20
-1671
10
1749.5
20
-1684
10
1753.5
20
-1687
0
LWPOLYLINE
8
REFERENCE_STROKES
90
13
70
0
10
1635
20
-1691.5
10
1622.5
20
-1691
10
1622.5
20
-1687
10
1630.5
20
-1679
10
1630
20
-1674.5
10
1623
20
-1676.5
10
1621.5
20
-1675
10
1623
20
-1671.5
10
1629
20
-1669.5
10
1634.5
20
-1673
10
1634.5
20
-1680
10
1628.5
20
-1687
10
1634
20
-1687.5
0
LWPOLYLINE
8
REFERENCE_STROKES
90
21
70
0
10
1647
20
-1691.5
10
1642
20
-1691.5
10
1637.5
20
-1688
10
1639
20
-1684.5
10
1643
20
-1687.5
10
1646.5
20
-1687
10
1646.5
20
-1684
10
1641.5
20
-1681
10
1641.5
20
-1679
10
1645
20
-1678.5
10
1646.5
20
-1675
10
1645
20
-1673.5
10
1640
20
-1676.5
10
1637.5
20
-1675
10
1637.5
20
-1673
10
1642
20
-1669.5
10
1646
20
-1669.5
10
1650.5
20
-1673
10
1649.5
20
-1681
10
1651.5
20
-1683
10
1651.5
20
-1688
0
LWPOLYLINE
8
REFERENCE_STROKES
90
14
70
1
10
1603
20
-1692.5
10
1593
20
-1692.5
10
1590.5
20
-1690
10
1600.5
20
-1678
10
1599
20
-1674.5
10
1594
20
-1677.5
10
1590.5
20
-1676
10
1590.5
20
-1674
10
1595
20
-1670.5
10
1601
20
-1670.5
10
1603.5
20
-1673
10
1603.5
20
-1680
10
1598.5
20
-1686
10
1604.5
20
-1689
0
LWPOLYLINE
8
REFERENCE_STROKES
90
11
70
1
10
1620
20
-1691.5
10
1610
20
-1692.5
10
1607.5
20
-1691
10
1607.5
20
-1689
10
1611.5
20
-1687
10
1611.5
20
-1677
10
1607.5
20
-1675
10
1612
20
-1670.5
10
1615.5
20
-1672
10
1615.5
20
-1685
10
1620.5
20
-1689
0
LWPOLYLINE
8
REFERENCE_STROKES
90
12
70
0
10
1461
20
-1694.5
10
1458.5
20
-1691
10
1466.5
20
-1683
10
1467.5
20
-1677
10
1459
20
-1678.5
10
1458.5
20
-1676
10
1466
20
-1671.5
10
1471.5
20
-1675
10
1471.5
20
-1682
10
1465.5
20
-1689
10
1471
20
-1689.5
10
1472.5
20
-1693
0
LWPOLYLINE
8
REFERENCE_STROKES
90
15
70
0
10
1503
20
-1693.5
10
1492
20
-1693.5
10
1490.5
20
-1692
10
1490.5
20
-1689
10
1498.5
20
-1681
10
1497
20
-1675.5
10
1493
20
-1678.5
10
1490.5
20
-1677
10
1491.5
20
-1673
10
1494
20
-1671.5
10
1499
20
-1671.5
10
1502.5
20
-1675
10
1503.5
20
-1679
10
1497.5
20
-1689
10
1503
20
-1689.5
0
LWPOLYLINE
8
REFERENCE_STROKES
90
17
70
0
10
1514
20
-1693.5
10
1510
20
-1693.5
10
1505.5
20
-1690
10
1507
20
-1686.5
10
1511
20
-1689.5
10
1514.5
20
-1688
10
1513
20
-1682.5
10
1509
20
-1684.5
10
1505.5
20
-1683
10
1505.5
20
-1674
10
1508
20
-1671.5
10
1517
20
-1671.5
10
1518.5
20
-1673
10
1517
20
-1675.5
10
1509.5
20
-1677
10
1519.5
20
-1683
10
1518.5
20
-1691
0
LWPOLYLINE
8
REFERENCE_STROKES
90
12
70
1
10
1488
20
-1693.5
10
1476
20
-1693.5
10
1474.5
20
-1692
10
1476
20
-1689.5
10
1479.5
20
-1689
10
1479.5
20
-1679
10
1475.5
20
-1678
10
1479
20
-1672.5
10
1482
20
-1672.5
10
1483.5
20
-1675
10
1483.5
20
-1688
10
1488.5
20
-1691
0
LWPOLYLINE
8
REFERENCE_STROKES
90
15
70
0
10
1323
20
-1696.5
10
1320.5
20
-1695
10
1320.5
20
-1692
10
1328.5
20
-1684
10
1329.5
20
-1679
10
1325
20
-1678.5
10
1321
20
-1680.5
10
1320.5
20
-1677
10
1325
20
-1673.5
10
1330
20
-1673.5
10
1333.5
20
-1678
10
1333.5
20
-1682
10
1327.5
20
-1691
10
1333
20
-1691.5
10
1334.5
20
-1694
0
LWPOLYLINE
8
REFERENCE_STROKES
90
10
70
1
10
1348
20
-1695.5
10
1338
20
-1695.5
10
1336.5
20
-1694
10
1340.5
20
-1691
10
1340.5
20
-1681
10
1336.5
20
-1679
10
1342
20
-1673.5
10
1344.5
20
-1675
10
1345.5
20
-1691
10
1349.5
20
-1692
0
LWPOLYLINE
8
REFERENCE_STROKES
90
16
70
1
10
1364
20
-1695.5
10
1353
20
-1695.5
10
1351.5
20
-1694
10
1351.5
20
-1691
10
1360.5
20
-1682
10
1359
20
-1677.5
10
1353
20
-1680.5
10
1351.5
20
-1679
10
1351.5
20
-1676
10
1355
20
-1673.5
10
1361
20
-1673.5
10
1364.5
20
-1678
10
1363.5
20
-1684
10
1358.5
20
-1689
10
1360
20
-1691.5
10
1365.5
20
-1693
0
LWPOLYLINE
8
REFERENCE_STROKES
90
8
70
0
10
1373
20
-1695.5
10
1370.5
20
-1695
10
1370.5
20
-1688
10
1374.5
20
-1678
10
1368
20
-1677.5
10
1367
20
-1673.5
10
1379
20
-1673.5
10
1380.5
20
-1675
0
LWPOLYLINE
8
REFERENCE_STROKES
90
13
70
0
10
1234
20
-1697.5
10
1229.5
20
-1695
10
1229.5
20
-1692
10
1236
20
-1692.5
10
1237.5
20
-1690
10
1232
20
-1689.5
10
1228.5
20
-1686
10
1228.5
20
-1679
10
1234
20
-1674.5
10
1238
20
-1675.5
10
1242.5
20
-1683
10
1241.5
20
-1692
10
1238
20
-1696.5
0
LWPOLYLINE
8
REFERENCE_STROKES
90
16
70
1
10
1194
20
-1697.5
10
1181.5
20
-1697
10
1182.5
20
-1692
10
1190.5
20
-1684
10
1189
20
-1679.5
10
1184
20
-1682.5
10
1181.5
20
-1682
10
1181.5
20
-1679
10
1186
20
-1675.5
10
1191
20
-1675.5
10
1194.5
20
-1679
10
1194.5
20
-1685
10
1188.5
20
-1692
10
1189
20
-1693.5
10
1194
20
-1693.5
10
1195.5
20
-1695
0
LWPOLYLINE
8
REFERENCE_STROKES
90
11
70
1
10
1209
20
-1697.5
10
1199
20
-1697.5
10
1197.5
20
-1696
10
1202.5
20
-1692
10
1202.5
20
-1682
10
1199
20
-1682.5
10
1198.5
20
-1679
10
1203
20
-1675.5
10
1206.5
20
-1677
10
1206.5
20
-1692
10
1210.5
20
-1694
0
LWPOLYLINE
8
REFERENCE_STROKES
90
16
70
0
10
1224
20
-1697.5
10
1214
20
-1697.5
10
1212.5
20
-1696
10
1213.5
20
-1692
10
1221.5
20
-1684
10
1221
20
-1679.5
10
1216
20
-1681.5
10
1212.5
20
-1680
10
1216
20
-1675.5
10
1223
20
-1675.5
10
1225.5
20
-1678
10
1225.5
20
-1685
10
1219.5
20
-1691
10
1221
20
-1693.5
10
1225
20
-1692.5
10
1226.5
20
-1694
0
LWPOLYLINE
8
REFERENCE_STROKES
90
5
70
1
10
1236
20
-1685.5
10
1237.5
20
-1681
10
1233
20
-1679.5
10
1231.5
20
-1683
10
1233
20
-1685.5
0
LWPOLYLINE
8
REFERENCE_STROKES
90
18
70
0
10
646
20
-1708.5
10
641
20
-1708.5
10
636.5
20
-1705
10
638
20
-1701.5
10
643
20
-1704.5
10
646.5
20
-1703
10
646.5
20
-1701
10
641.5
20
-1698
10
641.5
20
-1696
10
646.5
20
-1692
10
645
20
-1690.5
10
640
20
-1693.5
10
636.5
20
-1692
10
642
20
-1686.5
10
648
20
-1687.5
10
650.5
20
-1691
10
649.5
20
-1698
10
651.5
20
-1703
0
LWPOLYLINE
8
REFERENCE_STROKES
90
18
70
0
10
661
20
-1708.5
10
657
20
-1708.5
10
653.5
20
-1706
10
654
20
-1702.5
10
659
20
-1704.5
10
662.5
20
-1703
10
661
20
-1697.5
10
655
20
-1699.5
10
652.5
20
-1697
10
653.5
20
-1688
10
656
20
-1686.5
10
665.5
20
-1687
10
664
20
-1690.5
10
657.5
20
-1691
10
658
20
-1693.5
10
664
20
-1694.5
10
667.5
20
-1699
10
665.5
20
-1706
0
LWPOLYLINE
8
REFERENCE_STROKES
90
14
70
0
10
606
20
-1709.5
10
604.5
20
-1705
10
614.5
20
-1696
10
614.5
20
-1693
10
611
20
-1691.5
10
607
20
-1694.5
10
605.5
20
-1690
10
609
20
-1687.5
10
616
20
-1687.5
10
618.5
20
-1690
10
618.5
20
-1697
10
612.5
20
-1704
10
618
20
-1704.5
10
619.5
20
-1708
0
LWPOLYLINE
8
REFERENCE_STROKES
90
9
70
1
10
634
20
-1708.5
10
622.5
20
-1708
10
626.5
20
-1703
10
626.5
20
-1694
10
622.5
20
-1691
10
627
20
-1687.5
10
630.5
20
-1688
10
630.5
20
-1703
10
634.5
20
-1705
0
LWPOLYLINE
8
REFERENCE_STROKES
90
15
70
0
10
484
20
-1711.5
10
481.5
20
-1710
10
481.5
20
-1707
10
491.5
20
-1697
10
491.5
20
-1694
10
490
20
-1692.5
10
485
20
-1695.5
10
481.5
20
-1694
10
485
20
-1689.5
10
491
20
-1688.5
10
494.5
20
-1691
10
495.5
20
-1697
10
488.5
20
-1706
10
494
20
-1706.5
10
495.5
20
-1710
0
LWPOLYLINE
8
REFERENCE_STROKES
90
10
70
0
10
499
20
-1710.5
10
498.5
20
-1708
10
503.5
20
-1705
10
503.5
20
-1696
10
499.5
20
-1693
10
505
20
-1688.5
10
507.5
20
-1691
10
507.5
20
-1706
10
511.5
20
-1709
10
510
20
-1710.5
0
LWPOLYLINE
8
REFERENCE_STROKES
90
16
70
0
10
523
20
-1710.5
10
518
20
-1710.5
10
513.5
20
-1707
10
514
20
-1703.5
10
519
20
-1706.5
10
523.5
20
-1705
10
523.5
20
-1703
10
518.5
20
-1700
10
522.5
20
-1694
10
521
20
-1692.5
10
516
20
-1695.5
10
513.5
20
-1694
10
518
20
-1688.5
10
523
20
-1688.5
10
527.5
20
-1693
10
527.5
20
-1706
0
LWPOLYLINE
8
REFERENCE_STROKES
90
11
70
1
10
534
20
-1710.5
10
532.5
20
-1709
10
533.5
20
-1702
10
538.5
20
-1693
10
531
20
-1692.5
10
529.5
20
-1690
10
531
20
-1688.5
10
542
20
-1688.5
10
543.5
20
-1693
10
539.5
20
-1699
10
536.5
20
-1710
0
LWPOLYLINE
8
REFERENCE_STROKES
90
28
70
0
10
419.5
20
-1707
10
415
20
-1711.5
10
410
20
-1711.5
10
407.5
20
-1707
10
410
20
-1705.5
10
414
20
-1707.5
10
415.5
20
-1705
10
409
20
-1703.5
10
406.5
20
-1699
10
404
20
-1698.5
10
404.5
20
-1708
10
401
20
-1711.5
10
394
20
-1711.5
10
390.5
20
-1706
10
392
20
-1704.5
10
396
20
-1707.5
10
400.5
20
-1706
10
394.5
20
-1701
10
399.5
20
-1697
10
399.5
20
-1695
10
391
20
-1696.5
10
390.5
20
-1694
10
394
20
-1690.5
10
401
20
-1690.5
10
406
20
-1696.5
10
410
20
-1690.5
10
415
20
-1689.5
10
420.5
20
-1696
0
LWPOLYLINE
8
REFERENCE_STROKES
90
16
70
1
10
372
20
-1711.5
10
360
20
-1712.5
10
358.5
20
-1711
10
359.5
20
-1707
10
368.5
20
-1698
10
367
20
-1694.5
10
361
20
-1697.5
10
358.5
20
-1696
10
363
20
-1690.5
10
369
20
-1690.5
10
372.5
20
-1694
10
372.5
20
-1699
10
366.5
20
-1706
10
367
20
-1707.5
10
372
20
-1707.5
10
373.5
20
-1709
0
LWPOLYLINE
8
REFERENCE_STROKES
90
11
70
0
10
377
20
-1712.5
10
375.5
20
-1710
10
380.5
20
-1706
10
380.5
20
-1698
10
377
20
-1696.5
10
376.5
20
-1694
10
383
20
-1690.5
10
384.5
20
-1692
10
384.5
20
-1707
10
387
20
-1707.5
10
388.5
20
-1711
0
LWPOLYLINE
8
REFERENCE_STROKES
90
15
70
0
10
248
20
-1713.5
10
235.5
20
-1713
10
236.5
20
-1708
10
245.5
20
-1700
10
244
20
-1695.5
10
239
20
-1698.5
10
235.5
20
-1698
10
235.5
20
-1696
10
241
20
-1691.5
10
245
20
-1691.5
10
248.5
20
-1694
10
248.5
20
-1701
10
242.5
20
-1708
10
243
20
-1709.5
10
249
20
-1709.5
0
LWPOLYLINE
8
REFERENCE_STROKES
90
11
70
1
10
264
20
-1713.5
10
254
20
-1713.5
10
252.5
20
-1710
10
256.5
20
-1708
10
256.5
20
-1699
10
253.5
20
-1698
10
253.5
20
-1695
10
258
20
-1691.5
10
261.5
20
-1695
10
260.5
20
-1708
10
266.5
20
-1711
0
LWPOLYLINE
8
REFERENCE_STROKES
90
7
70
0
10
278
20
-1712.5
10
275
20
-1708.5
10
266.5
20
-1707
10
266.5
20
-1704
10
277
20
-1691.5
10
279.5
20
-1694
10
280.5
20
-1705
0
LWPOLYLINE
8
REFERENCE_STROKES
90
10
70
0
10
285
20
-1713.5
10
283.5
20
-1711
10
288.5
20
-1708
10
288.5
20
-1698
10
285
20
-1697.5
10
284.5
20
-1695
10
291
20
-1691.5
10
292.5
20
-1693
10
292.5
20
-1708
10
297.5
20
-1711
0
LWPOLYLINE
8
REFERENCE_STROKES
90
22
70
1
10
108.5
20
-1714
10
119.5
20
-1701
10
118
20
-1698.5
10
110
20
-1700.5
10
109.5
20
-1698
10
113
20
-1694.5
10
117
20
-1693.5
10
122.5
20
-1697
10
123.5
20
-1702
10
116.5
20
-1711
10
124
20
-1712.5
10
131.5
20
-1710
10
131.5
20
-1701
10
127
20
-1700.5
10
126.5
20
-1698
10
131
20
-1694.5
10
135.5
20
-1695
10
135.5
20
-1710
10
140.5
20
-1713
10
139
20
-1715.5
10
124
20
-1714.5
10
111
20
-1716.5
0
LWPOLYLINE
8
REFERENCE_STROKES
90
8
70
0
10
152
20
-1715.5
10
149.5
20
-1714
10
149
20
-1710.5
10
140.5
20
-1709
10
151
20
-1693.5
10
153.5
20
-1695
10
153.5
20
-1706
10
155.5
20
-1708
0
LWPOLYLINE
8
REFERENCE_STROKES
90
17
70
0
10
166
20
-1715.5
10
161
20
-1714.5
10
157.5
20
-1711
10
159
20
-1707.5
10
162
20
-1710.5
10
167.5
20
-1709
10
167
20
-1706.5
10
162.5
20
-1705
10
167.5
20
-1698
10
165
20
-1696.5
10
161
20
-1699.5
10
157.5
20
-1699
10
161
20
-1693.5
10
169
20
-1693.5
10
172.5
20
-1699
10
170.5
20
-1702
10
172.5
20
-1710
0
LWPOLYLINE
8
REFERENCE_STROKES
90
4
70
0
10
412
20
-1700.5
10
416.5
20
-1699
10
414
20
-1693.5
10
410.5
20
-1696
0
LWPOLYLINE
8
REFERENCE_STROKES
90
4
70
1
10
147
20
-1706.5
10
150.5
20
-1705
10
150
20
-1701.5
10
146.5
20
-1704
0
LWPOLYLINE
8
REFERENCE_BASE
90
61
70
0
10
74
20
-1802.5
10
72.5
20
-1626
10
26
20
-1627.5
10
24.5
20
-1626
10
23.5
20
-1368
10
26
20
-1365.5
10
68
20
-1366.5
10
70.5
20
-1365
10
68.5
20
-1192
10
75
20
-1189.5
10
170
20
-1189.5
10
831
20
-1179.5
10
827.5
20
-640
10
826
20
-637.5
10
27
20
-638.5
10
25.5
20
-597
10
25.5
20
-239
10
28
20
-236.5
10
492
20
-236.5
10
491.5
20
-152
10
493
20
-150.5
10
559
20
-149.5
10
655
20
-150.5
10
655.5
20
-235
10
657
20
-236.5
10
672
20
-236.5
10
671.5
20
-151
10
674
20
-148.5
10
824.5
20
-149
10
823.5
20
-47
10
825
20
-45.5
10
1187
20
-46.5
10
1238.5
20
-269
10
1242.5
20
-634
10
1240
20
-636.5
10
1155
20
-636.5
10
1153.5
20
-638
10
1154.5
20
-721
10
1173
20
-721.5
10
1175.5
20
-724
10
1179.5
20
-1175
10
1819
20
-1171.5
10
1820.5
20
-1173
10
1822.5
20
-1342
10
1824
20
-1343.5
10
1857
20
-1343.5
10
1859.5
20
-1347
10
1859.5
20
-1444
10
1862.5
20
-1598
10
1824.5
20
-1600
10
1827.5
20
-1772
10
1826
20
-1773.5
10
1718
20
-1776.5
10
1142
20
-1786.5
10
1139.5
20
-1784
10
1138.5
20
-1705
10
1093
20
-1704.5
10
704
20
-1712.5
10
702.5
20
-1714
10
703.5
20
-1791
10
701
20
-1794.5
0
LWPOLYLINE
8
REFERENCE_BASE
90
297
70
1
10
79
20
-1800.5
10
189
20
-1797.5
10
477
20
-1795.5
10
698
20
-1791.5
10
700.5
20
-1783
10
699.5
20
-1713
10
701
20
-1710.5
10
1082
20
-1701.5
10
1140
20
-1701.5
10
1141.5
20
-1703
10
1142.5
20
-1780
10
1144
20
-1782.5
10
1572
20
-1776.5
10
1816
20
-1771.5
10
1824.5
20
-1769
10
1821.5
20
-1600
10
1825
20
-1596.5
10
1858
20
-1596.5
10
1859.5
20
-1595
10
1855.5
20
-1347
10
1822
20
-1346.5
10
1820.5
20
-1345
10
1817
20
-1174.5
10
1178
20
-1178.5
10
1176.5
20
-1177
10
1172.5
20
-726
10
1171
20
-724.5
10
1153
20
-724.5
10
1151.5
20
-723
10
1150.5
20
-636
10
1153
20
-633.5
10
1235
20
-633.5
10
1239.5
20
-631
10
1235.5
20
-272
10
1187.5
20
-58
10
1184
20
-49.5
10
828
20
-48.5
10
826.5
20
-50
10
828
20
-149.5
10
830.5
20
-149
10
830.5
20
-54
10
832
20
-52.5
10
1007
20
-52.5
10
1011
20
-74.5
10
1013.5
20
-73
10
1012.5
20
-54
10
1014
20
-52.5
10
1099
20
-53.5
10
1099.5
20
-125
10
1097
20
-126.5
10
1018
20
-125.5
10
1015.5
20
-117
10
1014.5
20
-94
10
1011
20
-93.5
10
1012.5
20
-131
10
1015
20
-138.5
10
1017.5
20
-137
10
1017.5
20
-131
10
1020
20
-129.5
10
1194
20
-131.5
10
1195.5
20
-130
10
1194
20
-126.5
10
1106
20
-125.5
10
1104.5
20
-124
10
1103.5
20
-56
10
1105
20
-53.5
10
1181
20
-53.5
10
1229.5
20
-264
10
1228
20
-269.5
10
1215
20
-270.5
10
1026
20
-269.5
10
1023.5
20
-253
10
1018.5
20
-159
10
1017
20
-157.5
10
1014.5
20
-159
10
1020.5
20
-267
10
1023
20
-274.5
10
1230.5
20
-275
10
1231.5
20
-319
10
1229
20
-321.5
10
1026
20
-321.5
10
1024.5
20
-323
10
1024.5
20
-334
10
1026
20
-336.5
10
1028.5
20
-336
10
1029
20
-326.5
10
1229
20
-325.5
10
1231.5
20
-327
10
1233.5
20
-530
10
1174
20
-531.5
10
1173.5
20
-535
10
1221
20
-534.5
10
1233.5
20
-536
10
1235.5
20
-627
10
1233
20
-629.5
10
1152
20
-629.5
10
1150.5
20
-627
10
1150.5
20
-537
10
1154.5
20
-535
10
1154.5
20
-532
10
1024
20
-532.5
10
1023.5
20
-536
10
1096
20
-536.5
10
1096.5
20
-540
10
1099
20
-541.5
10
1102
20
-536.5
10
1144
20
-535.5
10
1146.5
20
-538
10
1146.5
20
-629
10
1116
20
-630.5
10
1101.5
20
-629
10
1100.5
20
-561
10
1098
20
-560.5
10
1096.5
20
-562
10
1097.5
20
-628
10
1096
20
-629.5
10
1001
20
-630.5
10
999.5
20
-628
10
999.5
20
-538
10
1004.5
20
-534
10
999.5
20
-530
10
999.5
20
-518
10
995.5
20
-517
10
995.5
20
-636
10
997
20
-637.5
10
1002
20
-634.5
10
1145
20
-633.5
10
1147.5
20
-638
10
1147.5
20
-723
10
1145
20
-724.5
10
1002
20
-725.5
10
1000.5
20
-724
10
1000.5
20
-675
10
997
20
-673.5
10
996.5
20
-724
10
994
20
-726.5
10
966
20
-726.5
10
964.5
20
-728
10
966
20
-730.5
10
977
20
-729.5
10
995
20
-730.5
10
996.5
20
-732
10
999.5
20
-1357
10
1003
20
-1358.5
10
1313
20
-1353.5
10
1850
20
-1350.5
10
1852.5
20
-1362
10
1852.5
20
-1416
10
1851
20
-1417.5
10
1727
20
-1418.5
10
1714.5
20
-1420
10
1716.5
20
-1592
10
1715
20
-1593.5
10
1147
20
-1600.5
10
1144.5
20
-1598
10
1144.5
20
-1489
10
1143
20
-1487.5
10
1004
20
-1489.5
10
1002.5
20
-1491
10
1003.5
20
-1698
10
1001
20
-1699.5
10
843
20
-1702.5
10
841.5
20
-1701
10
839.5
20
-1574
10
840.5
20
-1494
10
839
20
-1492.5
10
697
20
-1494.5
10
695.5
20
-1496
10
695.5
20
-1607
10
693
20
-1609.5
10
171
20
-1617.5
10
168.5
20
-1612
10
167.5
20
-1442
10
32
20
-1442.5
10
30.5
20
-1420
10
30.5
20
-1375
10
32
20
-1373.5
10
501
20
-1367.5
10
588
20
-1364.5
10
830
20
-1361.5
10
839.5
20
-1360
10
835.5
20
-732
10
837
20
-730.5
10
870
20
-730.5
10
870.5
20
-727
10
836
20
-726.5
10
834.5
20
-724
10
833.5
20
-596
10
832
20
-594.5
10
829.5
20
-596
10
830.5
20
-629
10
829
20
-630.5
10
672
20
-631.5
10
644
20
-630.5
10
642.5
20
-629
10
641.5
20
-563
10
644
20
-560.5
10
764
20
-561.5
10
807.5
20
-560
10
807.5
20
-558
10
804
20
-556.5
10
715
20
-556.5
10
716
20
-551.5
10
713
20
-551.5
10
711
20
-556.5
10
644
20
-556.5
10
641.5
20
-554
10
640.5
20
-485
10
643
20
-482.5
10
827
20
-483.5
10
828.5
20
-485
10
829.5
20
-521
10
832.5
20
-521
10
831.5
20
-459
10
787
20
-459.5
10
785.5
20
-457
10
778.5
20
-347
10
777
20
-344.5
10
774.5
20
-346
10
781
20
-459.5
10
591
20
-469.5
10
589.5
20
-471
10
590
20
-473.5
10
635
20
-471.5
10
636.5
20
-473
10
637
20
-571.5
10
568
20
-571.5
10
565.5
20
-570
10
564.5
20
-476
10
569
20
-474.5
10
569.5
20
-471
10
558
20
-470.5
10
556.5
20
-475
10
559.5
20
-476
10
560.5
20
-509
10
559
20
-510.5
10
518
20
-510.5
10
516.5
20
-512
10
517.5
20
-591
10
516
20
-592.5
10
415
20
-592.5
10
413.5
20
-591
10
412.5
20
-485
10
415
20
-481.5
10
535
20
-476.5
10
536.5
20
-473
10
513
20
-472.5
10
413
20
-477.5
10
408.5
20
-480
10
409.5
20
-603
10
411
20
-605.5
10
413.5
20
-605
10
415
20
-597.5
10
521
20
-597.5
10
521.5
20
-578
10
523
20
-576.5
10
637
20
-576.5
10
638.5
20
-579
10
638
20
-630.5
10
416
20
-630.5
10
413.5
20
-625
10
411
20
-624.5
10
408
20
-630.5
10
35
20
-631.5
10
33.5
20
-629
10
32.5
20
-393
10
33.5
20
-245
10
36
20
-243.5
10
767
20
-244.5
10
769.5
20
-261
10
771.5
20
-305
10
775
20
-307.5
10
772.5
20
-245
10
830
20
-244.5
10
831.5
20
-241
10
811
20
-239.5
10
31
20
-239.5
10
29.5
20
-241
10
28.5
20
-257
10
29.5
20
-634
10
31
20
-635.5
10
826
20
-634.5
10
829
20
-635.5
10
830.5
20
-639
10
834.5
20
-1181
10
833
20
-1182.5
10
178
20
-1192.5
10
79
20
-1192.5
10
72.5
20
-1194
10
73.5
20
-1367
10
69
20
-1369.5
10
28
20
-1369.5
10
26.5
20
-1371
10
27.5
20
-1623
10
72
20
-1623.5
10
75.5
20
-1627
10
76.5
20
-1798
0
LWPOLYLINE
8
REFERENCE_BASE
90
155
70
0
10
992
20
-723.5
10
993.5
20
-722
10
992.5
20
-672
10
994
20
-670.5
10
1012.5
20
-670
10
1009
20
-661.5
10
997.5
20
-657
10
998
20
-654.5
10
1006
20
-652.5
10
1010.5
20
-648
10
1012.5
20
-641
10
994
20
-640.5
10
992.5
20
-639
10
992.5
20
-518
10
991
20
-516.5
10
981
20
-516.5
10
979.5
20
-511
10
981.5
20
-506
10
991.5
20
-498
10
992.5
20
-456
10
1028.5
20
-455
10
1023.5
20
-357
10
1012.5
20
-349
10
1009.5
20
-339
10
1021.5
20
-336
10
1020.5
20
-321
10
1022
20
-318.5
10
1227
20
-318.5
10
1228.5
20
-317
10
1227.5
20
-278
10
1019
20
-277.5
10
1017.5
20
-275
10
1011.5
20
-156
10
1023
20
-152.5
10
1027.5
20
-148
10
1029.5
20
-141
10
1012
20
-141.5
10
1010.5
20
-140
10
1007.5
20
-94
10
1003
20
-91.5
10
994.5
20
-81
10
996
20
-74.5
10
1006.5
20
-74
10
1005.5
20
-56
10
835
20
-55.5
10
833.5
20
-57
10
834.5
20
-246
10
833
20
-247.5
10
776
20
-246.5
10
775.5
20
-261
10
778.5
20
-304
10
780
20
-307.5
10
791
20
-306.5
10
792.5
20
-308
10
792.5
20
-315
10
784.5
20
-326
10
794.5
20
-337
10
793
20
-343.5
10
781.5
20
-345
10
788.5
20
-456
10
832
20
-454.5
10
835.5
20
-457
10
836.5
20
-522
10
835
20
-524.5
10
825.5
20
-523
10
825
20
-486.5
10
791
20
-485.5
10
788
20
-502.5
10
710
20
-502.5
10
707.5
20
-501
10
707.5
20
-487
10
706
20
-485.5
10
645
20
-485.5
10
643.5
20
-492
10
644.5
20
-552
10
646
20
-553.5
10
663
20
-554.5
10
664.5
20
-553
10
663.5
20
-541
10
669
20
-536.5
10
675
20
-536.5
10
681
20
-539.5
10
688
20
-536.5
10
694
20
-536.5
10
699
20
-539.5
10
711
20
-536.5
10
720
20
-539.5
10
725
20
-535.5
10
731
20
-535.5
10
736
20
-538.5
10
743
20
-536.5
10
753
20
-538.5
10
755.5
20
-542
10
754.5
20
-553
10
756
20
-554.5
10
809
20
-553.5
10
811.5
20
-556
10
810
20
-563.5
10
756
20
-563.5
10
754.5
20
-568
10
756.5
20
-575
10
750
20
-580.5
10
742
20
-580.5
10
739
20
-577.5
10
731
20
-580.5
10
724
20
-580.5
10
720
20
-577.5
10
714
20
-580.5
10
706
20
-580.5
10
702
20
-577.5
10
695
20
-580.5
10
688
20
-580.5
10
684
20
-577.5
10
677
20
-580.5
10
670
20
-580.5
10
663.5
20
-574
10
664
20
-563.5
10
646
20
-563.5
10
644.5
20
-565
10
645.5
20
-627
10
648
20
-628.5
10
708
20
-628.5
10
709.5
20
-627
10
708.5
20
-614
10
712
20
-610.5
10
789
20
-610.5
10
791.5
20
-612
10
791.5
20
-627
10
793
20
-628.5
10
826
20
-628.5
10
827.5
20
-626
10
826.5
20
-592
10
829
20
-590.5
10
835
20
-591.5
10
836.5
20
-593
10
839
20
-723.5
10
870
20
-723.5
10
871.5
20
-722
10
870.5
20
-712
10
872
20
-710.5
10
880
20
-711.5
10
890
20
-719.5
10
896
20
-712.5
10
905
20
-709.5
10
907.5
20
-712
10
908
20
-723.5
10
928
20
-723.5
10
928.5
20
-712
10
931
20
-709.5
10
940
20
-712.5
10
946
20
-719.5
10
952
20
-713.5
10
962
20
-709.5
10
965.5
20
-713
10
966
20
-723.5
0
LWPOLYLINE
8
REFERENCE_BASE
90
12
70
0
10
1096.5
20
-123
10
1096.5
20
-57
10
1095
20
-55.5
10
1017
20
-55.5
10
1015.5
20
-57
10
1016.5
20
-76
10
998.5
20
-78
10
998.5
20
-82
10
1003
20
-87.5
10
1008
20
-90.5
10
1017.5
20
-91
10
1020
20
-122.5
0
LWPOLYLINE
8
REFERENCE_BASE
90
9
70
0
10
1193.5
20
-123
10
1179
20
-56.5
10
1109
20
-55.5
10
1107.5
20
-57
10
1107.5
20
-79
10
1124
20
-82.5
10
1132
20
-87.5
10
1146.5
20
-104
10
1152
20
-123.5
0
LWPOLYLINE
8
REFERENCE_BASE
90
5
70
0
10
1107
20
-110.5
10
1109.5
20
-107
10
1114.5
20
-86
10
1113
20
-82.5
10
1107.5
20
-83
0
LWPOLYLINE
8
REFERENCE_BASE
90
4
70
0
10
1111
20
-111.5
10
1124.5
20
-89
10
1121
20
-84.5
10
1118
20
-84.5
0
LWPOLYLINE
8
REFERENCE_BASE
90
5
70
0
10
1114
20
-114.5
10
1132.5
20
-97
10
1133.5
20
-93
10
1128
20
-89.5
10
1125.5
20
-92
0
LWPOLYLINE
8
REFERENCE_BASE
90
4
70
0
10
1118.5
20
-115
10
1140
20
-103.5
10
1139.5
20
-99
10
1136
20
-96.5
0
LWPOLYLINE
8
REFERENCE_BASE
90
5
70
0
10
1119.5
20
-119
10
1123
20
-119.5
10
1144
20
-113.5
10
1145.5
20
-109
10
1142
20
-105.5
0
LWPOLYLINE
8
REFERENCE_BASE
90
5
70
0
10
1147.5
20
-117
10
1145
20
-115.5
10
1121
20
-121.5
10
1120.5
20
-123
10
1147
20
-123.5
0
LWPOLYLINE
8
REFERENCE_BASE
90
13
70
1
10
1226.5
20
-266
10
1196
20
-133.5
10
1022
20
-132.5
10
1020.5
20
-134
10
1021
20
-137.5
10
1031
20
-137.5
10
1033.5
20
-140
10
1033.5
20
-144
10
1029.5
20
-151
10
1021.5
20
-157
10
1027.5
20
-264
10
1029
20
-266.5
10
1224
20
-267.5
0
LWPOLYLINE
8
REFERENCE_BASE
90
6
70
0
10
682
20
-193.5
10
683.5
20
-192
10
683.5
20
-153
10
678
20
-151.5
10
675.5
20
-153
10
675.5
20
-192
0
LWPOLYLINE
8
REFERENCE_BASE
90
6
70
0
10
694
20
-193.5
10
695.5
20
-190
10
694.5
20
-153
10
689
20
-151.5
10
686.5
20
-153
10
686.5
20
-192
0
LWPOLYLINE
8
REFERENCE_BASE
90
7
70
0
10
705
20
-193.5
10
706.5
20
-192
10
706.5
20
-155
10
705
20
-152.5
10
699
20
-151.5
10
697.5
20
-153
10
697.5
20
-192
0
LWPOLYLINE
8
REFERENCE_BASE
90
6
70
0
10
511
20
-194.5
10
515.5
20
-193
10
515.5
20
-155
10
508
20
-152.5
10
506.5
20
-154
10
506.5
20
-193
0
LWPOLYLINE
8
REFERENCE_BASE
90
5
70
0
10
526
20
-193.5
10
526.5
20
-154
10
520
20
-152.5
10
518.5
20
-154
10
518.5
20
-193
0
LWPOLYLINE
8
REFERENCE_BASE
90
6
70
1
10
531
20
-194.5
10
538.5
20
-193
10
538.5
20
-154
10
535
20
-152.5
10
529.5
20
-154
10
529.5
20
-193
0
LWPOLYLINE
8
REFERENCE_BASE
90
6
70
0
10
546
20
-194.5
10
549.5
20
-193
10
549.5
20
-154
10
543
20
-152.5
10
541.5
20
-154
10
541.5
20
-193
0
LWPOLYLINE
8
REFERENCE_BASE
90
7
70
0
10
560
20
-193.5
10
561.5
20
-192
10
561.5
20
-155
10
558
20
-152.5
10
554
20
-152.5
10
552.5
20
-154
10
552.5
20
-192
0
LWPOLYLINE
8
REFERENCE_BASE
90
5
70
0
10
572
20
-193.5
10
572.5
20
-154
10
566
20
-152.5
10
564.5
20
-154
10
564.5
20
-193
0
LWPOLYLINE
8
REFERENCE_BASE
90
5
70
0
10
583
20
-193.5
10
583.5
20
-154
10
578
20
-152.5
10
575.5
20
-155
10
575.5
20
-192
0
LWPOLYLINE
8
REFERENCE_BASE
90
5
70
0
10
595
20
-193.5
10
594.5
20
-154
10
589
20
-152.5
10
586.5
20
-154
10
586.5
20
-192
0
LWPOLYLINE
8
REFERENCE_BASE
90
6
70
0
10
606
20
-193.5
10
607.5
20
-191
10
606.5
20
-154
10
600
20
-152.5
10
598.5
20
-154
10
598.5
20
-193
0
LWPOLYLINE
8
REFERENCE_BASE
90
6
70
0
10
618
20
-193.5
10
618.5
20
-155
10
616
20
-152.5
10
611
20
-152.5
10
609.5
20
-154
10
610.5
20
-193
0
LWPOLYLINE
8
REFERENCE_BASE
90
6
70
0
10
629
20
-193.5
10
630.5
20
-192
10
629.5
20
-154
10
623
20
-152.5
10
621.5
20
-154
10
621.5
20
-193
0
LWPOLYLINE
8
REFERENCE_BASE
90
7
70
0
10
637
20
-194.5
10
641.5
20
-193
10
641.5
20
-155
10
639
20
-152.5
10
634
20
-152.5
10
632.5
20
-154
10
632.5
20
-192
0
LWPOLYLINE
8
REFERENCE_BASE
90
5
70
0
10
652
20
-193.5
10
652.5
20
-154
10
646
20
-152.5
10
644.5
20
-154
10
644.5
20
-193
0
LWPOLYLINE
8
REFERENCE_BASE
90
5
70
0
10
716
20
-193.5
10
717.5
20
-192
10
717.5
20
-153
10
710
20
-152.5
10
709.5
20
-193
0
LWPOLYLINE
8
REFERENCE_BASE
90
6
70
0
10
728
20
-193.5
10
729.5
20
-192
10
729.5
20
-158
10
728
20
-152.5
10
721
20
-152.5
10
720.5
20
-192
0
LWPOLYLINE
8
REFERENCE_BASE
90
6
70
0
10
739
20
-193.5
10
740.5
20
-192
10
740.5
20
-154
10
733
20
-152.5
10
731.5
20
-154
10
732.5
20
-193
0
LWPOLYLINE
8
REFERENCE_BASE
90
4
70
0
10
751
20
-193.5
10
751.5
20
-153
10
744
20
-152.5
10
743.5
20
-193
0
LWPOLYLINE
8
REFERENCE_BASE
90
5
70
0
10
762
20
-193.5
10
763.5
20
-192
10
763.5
20
-154
10
755
20
-152.5
10
754.5
20
-192
0
LWPOLYLINE
8
REFERENCE_BASE
90
4
70
0
10
774
20
-193.5
10
774.5
20
-154
10
767
20
-152.5
10
766.5
20
-193
0
LWPOLYLINE
8
REFERENCE_BASE
90
5
70
0
10
784
20
-193.5
10
785.5
20
-192
10
785.5
20
-154
10
778
20
-152.5
10
777.5
20
-193
0
LWPOLYLINE
8
REFERENCE_BASE
90
4
70
0
10
796
20
-193.5
10
796.5
20
-153
10
789
20
-152.5
10
788.5
20
-193
0
LWPOLYLINE
8
REFERENCE_BASE
90
5
70
0
10
807
20
-193.5
10
808.5
20
-191
10
807.5
20
-153
10
800
20
-152.5
10
799.5
20
-192
0
LWPOLYLINE
8
REFERENCE_BASE
90
5
70
0
10
819
20
-193.5
10
819.5
20
-154
10
812
20
-152.5
10
810.5
20
-154
10
810.5
20
-192
0
LWPOLYLINE
8
REFERENCE_BASE
90
6
70
0
10
830
20
-193.5
10
831.5
20
-192
10
831.5
20
-155
10
830
20
-152.5
10
823
20
-152.5
10
822.5
20
-193
0
LWPOLYLINE
8
REFERENCE_BASE
90
4
70
0
10
503
20
-193.5
10
503.5
20
-154
10
496
20
-153.5
10
495.5
20
-193
0
LWPOLYLINE
8
REFERENCE_BASE
90
4
70
0
10
684
20
-235.5
10
684.5
20
-197
10
676
20
-195.5
10
675.5
20
-235
0
LWPOLYLINE
8
REFERENCE_BASE
90
7
70
0
10
694
20
-235.5
10
695.5
20
-234
10
695.5
20
-198
10
694
20
-195.5
10
688
20
-195.5
10
686.5
20
-197
10
687.5
20
-235
0
LWPOLYLINE
8
REFERENCE_BASE
90
5
70
0
10
706
20
-235.5
10
706.5
20
-197
10
699
20
-195.5
10
697.5
20
-197
10
697.5
20
-234
0
LWPOLYLINE
8
REFERENCE_BASE
90
5
70
0
10
718
20
-235.5
10
718.5
20
-198
10
716
20
-195.5
10
710
20
-195.5
10
709.5
20
-235
0
LWPOLYLINE
8
REFERENCE_BASE
90
5
70
0
10
729
20
-235.5
10
729.5
20
-197
10
722
20
-195.5
10
720.5
20
-198
10
721.5
20
-235
0
LWPOLYLINE
8
REFERENCE_BASE
90
5
70
0
10
738
20
-236.5
10
740.5
20
-235
10
740.5
20
-197
10
733
20
-195.5
10
732.5
20
-235
0
LWPOLYLINE
8
REFERENCE_BASE
90
6
70
0
10
751
20
-236.5
10
752.5
20
-235
10
751.5
20
-197
10
745
20
-195.5
10
743.5
20
-197
10
743.5
20
-235
0
LWPOLYLINE
8
REFERENCE_BASE
90
6
70
0
10
762
20
-236.5
10
763.5
20
-235
10
763.5
20
-197
10
756
20
-195.5
10
754.5
20
-197
10
755.5
20
-235
0
LWPOLYLINE
8
REFERENCE_BASE
90
5
70
0
10
785
20
-236.5
10
785.5
20
-197
10
779
20
-195.5
10
777.5
20
-197
10
777.5
20
-235
0
LWPOLYLINE
8
REFERENCE_BASE
90
4
70
0
10
503
20
-236.5
10
503.5
20
-198
10
496
20
-196.5
10
495.5
20
-235
0
LWPOLYLINE
8
REFERENCE_BASE
90
5
70
0
10
514
20
-236.5
10
515.5
20
-235
10
515.5
20
-198
10
507
20
-196.5
10
506.5
20
-235
0
LWPOLYLINE
8
REFERENCE_BASE
90
4
70
0
10
526
20
-236.5
10
526.5
20
-197
10
519
20
-196.5
10
518.5
20
-235
0
LWPOLYLINE
8
REFERENCE_BASE
90
6
70
0
10
537
20
-236.5
10
538.5
20
-235
10
538.5
20
-197
10
530
20
-196.5
10
529.5
20
-234
10
531
20
-236.5
0
LWPOLYLINE
8
REFERENCE_BASE
90
5
70
0
10
549
20
-236.5
10
550.5
20
-235
10
549.5
20
-197
10
542
20
-196.5
10
541.5
20
-235
0
LWPOLYLINE
8
REFERENCE_BASE
90
6
70
0
10
560
20
-236.5
10
561.5
20
-235
10
561.5
20
-198
10
553
20
-196.5
10
552.5
20
-234
10
554
20
-236.5
0
LWPOLYLINE
8
REFERENCE_BASE
90
5
70
0
10
572
20
-236.5
10
573.5
20
-235
10
572.5
20
-197
10
565
20
-196.5
10
564.5
20
-235
0
LWPOLYLINE
8
REFERENCE_BASE
90
7
70
0
10
583
20
-236.5
10
584.5
20
-234
10
584.5
20
-200
10
583
20
-196.5
10
577
20
-196.5
10
575.5
20
-198
10
576.5
20
-235
0
LWPOLYLINE
8
REFERENCE_BASE
90
7
70
0
10
594
20
-236.5
10
595.5
20
-235
10
595.5
20
-198
10
588
20
-196.5
10
586.5
20
-198
10
586.5
20
-234
10
588
20
-236.5
0
LWPOLYLINE
8
REFERENCE_BASE
90
5
70
0
10
606
20
-236.5
10
607.5
20
-235
10
607.5
20
-198
10
599
20
-196.5
10
598.5
20
-235
0
LWPOLYLINE
8
REFERENCE_BASE
90
6
70
0
10
617
20
-236.5
10
618.5
20
-235
10
618.5
20
-198
10
611
20
-196.5
10
609.5
20
-198
10
610.5
20
-235
0
LWPOLYLINE
8
REFERENCE_BASE
90
5
70
0
10
629
20
-236.5
10
630.5
20
-235
10
630.5
20
-198
10
622
20
-196.5
10
621.5
20
-235
0
LWPOLYLINE
8
REFERENCE_BASE
90
6
70
0
10
640
20
-236.5
10
641.5
20
-235
10
641.5
20
-198
10
634
20
-196.5
10
632.5
20
-198
10
633.5
20
-236
0
LWPOLYLINE
8
REFERENCE_BASE
90
5
70
0
10
651
20
-236.5
10
652.5
20
-235
10
652.5
20
-197
10
645
20
-196.5
10
644.5
20
-235
0
LWPOLYLINE
8
REFERENCE_BASE
90
4
70
0
10
774
20
-236.5
10
774.5
20
-197
10
767
20
-196.5
10
766.5
20
-235
0
LWPOLYLINE
8
REFERENCE_BASE
90
6
70
0
10
796
20
-236.5
10
797.5
20
-235
10
797.5
20
-199
10
796
20
-196.5
10
789
20
-196.5
10
788.5
20
-235
0
LWPOLYLINE
8
REFERENCE_BASE
90
7
70
0
10
807
20
-236.5
10
808.5
20
-235
10
808.5
20
-198
10
801
20
-196.5
10
799.5
20
-198
10
799.5
20
-233
10
801
20
-236.5
0
LWPOLYLINE
8
REFERENCE_BASE
90
6
70
0
10
819
20
-236.5
10
820.5
20
-235
10
819.5
20
-197
10
812
20
-196.5
10
810.5
20
-198
10
811.5
20
-236
0
LWPOLYLINE
8
REFERENCE_BASE
90
6
70
0
10
831
20
-236.5
10
831.5
20
-198
10
824
20
-196.5
10
822.5
20
-198
10
822.5
20
-234
10
824
20
-236.5
0
LWPOLYLINE
8
REFERENCE_BASE
90
40
70
0
10
36.5
20
-627
10
38
20
-628.5
10
406
20
-627.5
10
408
20
-621.5
10
426.5
20
-621
10
422
20
-612.5
10
414
20
-608.5
10
408
20
-608.5
10
406.5
20
-606
10
405.5
20
-477
10
407
20
-475.5
10
537
20
-468.5
10
539.5
20
-471
10
541.5
20
-480
10
547
20
-485.5
10
553
20
-487.5
10
554.5
20
-484
10
552.5
20
-470
10
555
20
-467.5
10
572
20
-467.5
10
573.5
20
-485
10
576
20
-486.5
10
584.5
20
-479
10
588
20
-466.5
10
778
20
-457.5
10
771.5
20
-343
10
790.5
20
-340
10
789.5
20
-335
10
784
20
-329.5
10
775.5
20
-327
10
776
20
-324.5
10
781
20
-323.5
10
786.5
20
-319
10
789.5
20
-311
10
771
20
-311.5
10
768.5
20
-309
10
765.5
20
-249
10
763
20
-246.5
10
38
20
-246.5
10
36.5
20
-248
0
LWPOLYLINE
8
REFERENCE_BASE
90
33
70
0
10
1008
20
-548.5
10
1014
20
-546.5
10
1019.5
20
-539
10
1019.5
20
-531
10
1022
20
-528.5
10
1156
20
-528.5
10
1157.5
20
-530
10
1157.5
20
-547
10
1161
20
-547.5
10
1167.5
20
-543
10
1172
20
-528.5
10
1230
20
-527.5
10
1228.5
20
-330
10
1227
20
-328.5
10
1032
20
-329.5
10
1031
20
-339.5
10
1014
20
-340.5
10
1013.5
20
-344
10
1019
20
-350.5
10
1023
20
-352.5
10
1030
20
-352.5
10
1033.5
20
-356
10
1039.5
20
-464
10
1038
20
-465.5
10
1003
20
-465.5
10
1002.5
20
-499
10
991
20
-501.5
10
983.5
20
-510
10
984
20
-513.5
10
1000
20
-513.5
10
1002.5
20
-516
10
1002.5
20
-528
10
1007.5
20
-531
0
LWPOLYLINE
8
REFERENCE_BASE
90
12
70
0
10
996
20
-497.5
10
999.5
20
-496
10
999.5
20
-464
10
1001
20
-462.5
10
1035.5
20
-462
10
1032.5
20
-390
10
1029
20
-356.5
10
1026.5
20
-357
10
1032.5
20
-456
10
1030
20
-458.5
10
997
20
-458.5
10
995.5
20
-460
0
LWPOLYLINE
8
REFERENCE_BASE
90
10
70
0
10
634
20
-568.5
10
635.5
20
-566
10
633.5
20
-475
10
590
20
-476.5
10
586.5
20
-482
10
577
20
-489.5
10
570.5
20
-488
10
570.5
20
-479
10
568
20
-478.5
10
568.5
20
-568
0
LWPOLYLINE
8
REFERENCE_BASE
90
12
70
0
10
514
20
-590.5
10
513.5
20
-509
10
516
20
-507.5
10
555
20
-508.5
10
557.5
20
-507
10
557.5
20
-490
10
551
20
-490.5
10
545
20
-488.5
10
537
20
-479.5
10
417
20
-484.5
10
416.5
20
-588
10
419
20
-590.5
0
LWPOLYLINE
8
REFERENCE_BASE
90
4
70
0
10
710
20
-491.5
10
714.5
20
-488
10
714
20
-485.5
10
709.5
20
-487
0
LWPOLYLINE
8
REFERENCE_BASE
90
7
70
0
10
740
20
-499.5
10
737.5
20
-493
10
741.5
20
-486
10
729
20
-485.5
10
728.5
20
-488
10
732.5
20
-492
10
729.5
20
-499
0
LWPOLYLINE
8
REFERENCE_BASE
90
7
70
0
10
766
20
-499.5
10
764.5
20
-492
10
768.5
20
-486
10
756
20
-485.5
10
755.5
20
-488
10
759.5
20
-492
10
756.5
20
-499
0
LWPOLYLINE
8
REFERENCE_BASE
90
4
70
0
10
786
20
-491.5
10
786.5
20
-486
10
782
20
-485.5
10
781.5
20
-488
0
LWPOLYLINE
8
REFERENCE_BASE
90
8
70
0
10
729.5
20
-495
10
729.5
20
-492
10
724
20
-489.5
10
722
20
-493.5
10
719
20
-489.5
10
713.5
20
-492
10
717
20
-497.5
10
726
20
-497.5
0
LWPOLYLINE
8
REFERENCE_BASE
90
8
70
0
10
756.5
20
-495
10
756.5
20
-492
10
753
20
-489.5
10
749
20
-493.5
10
745
20
-489.5
10
740.5
20
-493
10
744
20
-497.5
10
753
20
-497.5
0
LWPOLYLINE
8
REFERENCE_BASE
90
9
70
0
10
783.5
20
-494
10
781
20
-490.5
10
777
20
-490.5
10
776
20
-493.5
10
773
20
-490.5
10
767.5
20
-492
10
767.5
20
-495
10
774
20
-498.5
10
780
20
-497.5
0
LWPOLYLINE
8
REFERENCE_BASE
90
9
70
0
10
1154
20
-626.5
10
1231
20
-626.5
10
1232.5
20
-625
10
1231.5
20
-546
10
1230
20
-538.5
10
1174
20
-538.5
10
1166
20
-548.5
10
1159
20
-551.5
10
1153.5
20
-549
0
LWPOLYLINE
8
REFERENCE_BASE
90
11
70
0
10
1142
20
-627.5
10
1144.5
20
-625
10
1143.5
20
-540
10
1142
20
-538.5
10
1105
20
-538.5
10
1104
20
-541.5
10
1114
20
-541.5
10
1115.5
20
-548
10
1113.5
20
-553
10
1103.5
20
-561
10
1104.5
20
-627
0
LWPOLYLINE
8
REFERENCE_BASE
90
4
70
0
10
732.5
20
-544
10
730
20
-539.5
10
724.5
20
-541
10
725
20
-544.5
0
LWPOLYLINE
8
REFERENCE_BASE
90
18
70
1
10
1094.5
20
-626
10
1093.5
20
-559
10
1106
20
-555.5
10
1110.5
20
-551
10
1112
20
-544.5
10
1096
20
-544.5
10
1093.5
20
-543
10
1093
20
-539.5
10
1023
20
-539.5
10
1017
20
-548.5
10
1012
20
-551.5
10
1006
20
-551.5
10
1004.5
20
-550
10
1004.5
20
-541
10
1002.5
20
-541
10
1002.5
20
-626
10
1004
20
-627.5
10
1093
20
-627.5
0
LWPOLYLINE
8
REFERENCE_BASE
90
4
70
0
10
676.5
20
-545
10
675
20
-540.5
10
669.5
20
-542
10
670
20
-545.5
0
LWPOLYLINE
8
REFERENCE_BASE
90
4
70
0
10
695.5
20
-545
10
692
20
-540.5
10
687.5
20
-542
10
688
20
-545.5
0
LWPOLYLINE
8
REFERENCE_BASE
90
4
70
0
10
713.5
20
-546
10
711
20
-540.5
10
705.5
20
-543
10
706
20
-545.5
0
LWPOLYLINE
8
REFERENCE_BASE
90
4
70
0
10
749.5
20
-545
10
747
20
-540.5
10
742.5
20
-542
10
743
20
-545.5
0
LWPOLYLINE
8
REFERENCE_BASE
90
4
70
0
10
677.5
20
-574
10
677
20
-571.5
10
669.5
20
-572
10
673
20
-576.5
0
LWPOLYLINE
8
REFERENCE_BASE
90
4
70
0
10
695.5
20
-574
10
695
20
-571.5
10
687.5
20
-572
10
690
20
-576.5
0
LWPOLYLINE
8
REFERENCE_BASE
90
4
70
0
10
714.5
20
-574
10
714
20
-571.5
10
706.5
20
-572
10
710
20
-577.5
0
LWPOLYLINE
8
REFERENCE_BASE
90
4
70
0
10
732.5
20
-573
10
732
20
-571.5
10
724.5
20
-572
10
728
20
-577.5
0
LWPOLYLINE
8
REFERENCE_BASE
90
4
70
0
10
750.5
20
-574
10
750
20
-571.5
10
742.5
20
-572
10
746
20
-577.5
0
LWPOLYLINE
8
REFERENCE_BASE
90
17
70
0
10
635.5
20
-580
10
526
20
-578.5
10
524.5
20
-580
10
524.5
20
-599
10
523
20
-600.5
10
418
20
-600.5
10
416.5
20
-605
10
427.5
20
-614
10
429.5
20
-623
10
428
20
-624.5
10
418
20
-624.5
10
417.5
20
-627
10
546
20
-627.5
10
546.5
20
-598
10
548
20
-596.5
10
634
20
-597.5
10
635.5
20
-596
0
LWPOLYLINE
8
REFERENCE_BASE
90
6
70
0
10
556
20
-628.5
10
557.5
20
-627
10
557.5
20
-601
10
551
20
-599.5
10
549.5
20
-601
10
549.5
20
-627
0
LWPOLYLINE
8
REFERENCE_BASE
90
7
70
0
10
568
20
-628.5
10
569.5
20
-627
10
569.5
20
-601
10
562
20
-599.5
10
560.5
20
-601
10
560.5
20
-626
10
562
20
-628.5
0
LWPOLYLINE
8
REFERENCE_BASE
90
6
70
0
10
579
20
-628.5
10
580.5
20
-627
10
580.5
20
-602
10
578
20
-599.5
10
573
20
-599.5
10
572.5
20
-627
0
LWPOLYLINE
8
REFERENCE_BASE
90
5
70
0
10
591
20
-628.5
10
591.5
20
-601
10
585
20
-599.5
10
583.5
20
-601
10
583.5
20
-627
0
LWPOLYLINE
8
REFERENCE_BASE
90
5
70
0
10
602
20
-628.5
10
602.5
20
-601
10
597
20
-599.5
10
594.5
20
-601
10
594.5
20
-627
0
LWPOLYLINE
8
REFERENCE_BASE
90
6
70
0
10
613
20
-628.5
10
614.5
20
-627
10
614.5
20
-602
10
608
20
-599.5
10
605.5
20
-601
10
605.5
20
-627
0
LWPOLYLINE
8
REFERENCE_BASE
90
5
70
0
10
625
20
-628.5
10
625.5
20
-601
10
619
20
-599.5
10
616.5
20
-602
10
617.5
20
-628
0
LWPOLYLINE
8
REFERENCE_BASE
90
5
70
0
10
635
20
-628.5
10
635.5
20
-601
10
630
20
-599.5
10
628.5
20
-601
10
628.5
20
-628
0
LWPOLYLINE
8
REFERENCE_BASE
90
9
70
1
10
716
20
-628.5
10
716.5
20
-625
10
713.5
20
-622
10
713.5
20
-618
10
716.5
20
-614
10
713
20
-613.5
10
711.5
20
-615
10
711.5
20
-626
10
713
20
-628.5
0
LWPOLYLINE
8
REFERENCE_BASE
90
8
70
0
10
742
20
-628.5
10
743.5
20
-626
10
739.5
20
-619
10
742.5
20
-614
10
732
20
-613.5
10
734.5
20
-622
10
730.5
20
-627
10
732
20
-628.5
0
LWPOLYLINE
8
REFERENCE_BASE
90
9
70
0
10
769
20
-628.5
10
769.5
20
-625
10
766.5
20
-622
10
766.5
20
-618
10
769.5
20
-614
10
759
20
-613.5
10
761.5
20
-621
10
757.5
20
-625
10
757.5
20
-628
0
LWPOLYLINE
8
REFERENCE_BASE
90
8
70
0
10
788
20
-628.5
10
788.5
20
-615
10
784
20
-613.5
10
783.5
20
-615
10
786.5
20
-617
10
786.5
20
-622
10
783.5
20
-625
10
783.5
20
-628
0
LWPOLYLINE
8
REFERENCE_BASE
90
8
70
0
10
758.5
20
-622
10
758.5
20
-619
10
751
20
-614.5
10
742.5
20
-619
10
745
20
-623.5
10
748
20
-623.5
10
750
20
-620.5
10
753
20
-623.5
0
LWPOLYLINE
8
REFERENCE_BASE
90
9
70
0
10
784.5
20
-619
10
778
20
-614.5
10
771
20
-616.5
10
768.5
20
-620
10
771
20
-623.5
10
774
20
-623.5
10
776
20
-620.5
10
779
20
-623.5
10
783
20
-623.5
0
LWPOLYLINE
8
REFERENCE_BASE
90
9
70
0
10
732.5
20
-621
10
732.5
20
-619
10
728
20
-615.5
10
720
20
-615.5
10
715.5
20
-620
10
718
20
-623.5
10
721
20
-623.5
10
724
20
-620.5
10
727
20
-624.5
0
LWPOLYLINE
8
REFERENCE_BASE
90
25
70
1
10
1144.5
20
-721
10
1144.5
20
-638
10
1143
20
-636.5
10
1134
20
-636.5
10
1132.5
20
-638
10
1133.5
20
-672
10
1132
20
-674.5
10
1043
20
-675.5
10
1041.5
20
-674
10
1041.5
20
-638
10
1015.5
20
-638
10
1015.5
20
-646
10
1006.5
20
-656
10
1014.5
20
-663
10
1016.5
20
-672
10
1015
20
-673.5
10
1003.5
20
-674
10
1004
20
-722.5
10
1031.5
20
-722
10
1030.5
20
-687
10
1032
20
-684.5
10
1121
20
-684.5
10
1122.5
20
-686
10
1122.5
20
-722
10
1143
20
-722.5
0
LWPOLYLINE
8
REFERENCE_BASE
90
5
70
0
10
1051
20
-672.5
10
1052.5
20
-671
10
1052.5
20
-638
10
1045
20
-637.5
10
1044.5
20
-671
0
LWPOLYLINE
8
REFERENCE_BASE
90
4
70
0
10
1063
20
-672.5
10
1063.5
20
-638
10
1056
20
-637.5
10
1055.5
20
-671
0
LWPOLYLINE
8
REFERENCE_BASE
90
4
70
0
10
1074
20
-672.5
10
1074.5
20
-638
10
1067
20
-637.5
10
1066.5
20
-671
0
LWPOLYLINE
8
REFERENCE_BASE
90
4
70
0
10
1085
20
-672.5
10
1085.5
20
-638
10
1078
20
-637.5
10
1077.5
20
-671
0
LWPOLYLINE
8
REFERENCE_BASE
90
5
70
0
10
1095
20
-672.5
10
1096.5
20
-671
10
1096.5
20
-638
10
1089
20
-637.5
10
1088.5
20
-671
0
LWPOLYLINE
8
REFERENCE_BASE
90
5
70
0
10
1106
20
-672.5
10
1107.5
20
-671
10
1107.5
20
-638
10
1100
20
-637.5
10
1099.5
20
-671
0
LWPOLYLINE
8
REFERENCE_BASE
90
5
70
0
10
1117
20
-672.5
10
1118.5
20
-671
10
1118.5
20
-638
10
1111
20
-637.5
10
1110.5
20
-671
0
LWPOLYLINE
8
REFERENCE_BASE
90
4
70
0
10
1129
20
-671.5
10
1129.5
20
-638
10
1122
20
-637.5
10
1121.5
20
-670
0
LWPOLYLINE
8
REFERENCE_BASE
90
5
70
0
10
1041
20
-722.5
10
1042.5
20
-720
10
1041.5
20
-689
10
1035
20
-687.5
10
1034.5
20
-722
0
LWPOLYLINE
8
REFERENCE_BASE
90
5
70
0
10
1052
20
-722.5
10
1052.5
20
-688
10
1046
20
-687.5
10
1044.5
20
-689
10
1044.5
20
-721
0
LWPOLYLINE
8
REFERENCE_BASE
90
6
70
0
10
1063
20
-722.5
10
1064.5
20
-720
10
1063.5
20
-688
10
1057
20
-687.5
10
1055.5
20
-689
10
1055.5
20
-721
0
LWPOLYLINE
8
REFERENCE_BASE
90
6
70
0
10
1074
20
-722.5
10
1075.5
20
-721
10
1074.5
20
-688
10
1067
20
-687.5
10
1066.5
20
-720
10
1069
20
-722.5
0
LWPOLYLINE
8
REFERENCE_BASE
90
6
70
0
10
1085
20
-722.5
10
1086.5
20
-721
10
1086.5
20
-689
10
1079
20
-687.5
10
1077.5
20
-689
10
1078.5
20
-721
0
LWPOLYLINE
8
REFERENCE_BASE
90
5
70
1
10
1091
20
-722.5
10
1096.5
20
-721
10
1096
20
-687.5
10
1088.5
20
-689
10
1089.5
20
-721
0
LWPOLYLINE
8
REFERENCE_BASE
90
6
70
0
10
1107
20
-722.5
10
1108.5
20
-721
10
1107.5
20
-688
10
1100
20
-687.5
10
1099.5
20
-720
10
1101
20
-722.5
0
LWPOLYLINE
8
REFERENCE_BASE
90
5
70
0
10
1119
20
-721.5
10
1118.5
20
-688
10
1112
20
-687.5
10
1110.5
20
-689
10
1111.5
20
-721
0
LWPOLYLINE
8
REFERENCE_BASE
90
125
70
0
10
33.5
20
-1437
10
35
20
-1439.5
10
70
20
-1439.5
10
71.5
20
-1438
10
70.5
20
-1411
10
74
20
-1408.5
10
161
20
-1408.5
10
162.5
20
-1410
10
162.5
20
-1437
10
170.5
20
-1440
10
171.5
20
-1614
10
173
20
-1615.5
10
182
20
-1614.5
10
182.5
20
-1607
10
185
20
-1604.5
10
189.5
20
-1606
10
190
20
-1614.5
10
691
20
-1606.5
10
692.5
20
-1605
10
691.5
20
-1497
10
694
20
-1491.5
10
842
20
-1489.5
10
843.5
20
-1491
10
843.5
20
-1568
10
845
20
-1569.5
10
893
20
-1568.5
10
894.5
20
-1572
10
894.5
20
-1677
10
893
20
-1678.5
10
845
20
-1679.5
10
844.5
20
-1699
10
999
20
-1696.5
10
1000.5
20
-1695
10
1000.5
20
-1678
10
999
20
-1676.5
10
951
20
-1677.5
10
949.5
20
-1676
10
949.5
20
-1569
10
951
20
-1567.5
10
998
20
-1567.5
10
999.5
20
-1566
10
1000
20
-1486.5
10
1146
20
-1484.5
10
1147.5
20
-1486
10
1147.5
20
-1596
10
1149
20
-1597.5
10
1713
20
-1590.5
10
1710.5
20
-1418
10
1712
20
-1416.5
10
1729
20
-1416.5
10
1730.5
20
-1415
10
1729.5
20
-1388
10
1731
20
-1386.5
10
1813
20
-1385.5
10
1815.5
20
-1388
10
1815.5
20
-1414
10
1817
20
-1415.5
10
1848
20
-1415.5
10
1849.5
20
-1414
10
1849.5
20
-1377
10
1848
20
-1353.5
10
1815
20
-1353.5
10
1814.5
20
-1381
10
1813
20
-1382.5
10
1743
20
-1383.5
10
1740.5
20
-1380
10
1740
20
-1354.5
10
1438
20
-1355.5
10
997
20
-1360.5
10
993.5
20
-734
10
992
20
-732.5
10
962
20
-732.5
10
961
20
-713.5
10
955
20
-715.5
10
950.5
20
-720
10
947
20
-729.5
10
944.5
20
-727
10
943.5
20
-721
10
938
20
-715.5
10
933
20
-713.5
10
932.5
20
-728
10
930
20
-733.5
10
906
20
-733.5
10
904.5
20
-732
10
904.5
20
-715
10
902
20
-713.5
10
892.5
20
-721
10
890
20
-729.5
10
887.5
20
-728
10
885.5
20
-721
10
880
20
-715.5
10
875
20
-714.5
10
874.5
20
-732
10
873
20
-733.5
10
838.5
20
-734
10
842.5
20
-1185
10
842.5
20
-1362
10
841
20
-1363.5
10
740
20
-1366.5
10
543
20
-1368.5
10
512
20
-1370.5
10
151.5
20
-1375
10
150.5
20
-1391
10
152
20
-1392.5
10
168
20
-1387.5
10
171
20
-1390.5
10
182
20
-1391.5
10
187.5
20
-1396
10
188.5
20
-1406
10
187
20
-1408.5
10
181.5
20
-1407
10
181.5
20
-1400
10
178
20
-1396.5
10
172
20
-1396.5
10
169
20
-1399.5
10
165
20
-1399.5
10
155
20
-1395.5
10
150.5
20
-1397
10
150.5
20
-1404
10
145
20
-1405.5
10
72
20
-1405.5
10
71.5
20
-1378
10
70
20
-1376.5
10
35
20
-1375.5
10
33.5
20
-1377
0
LWPOLYLINE
8
REFERENCE_BASE
90
5
70
1
10
928.5
20
-729
10
928
20
-726.5
10
907.5
20
-727
10
909
20
-730.5
10
927
20
-730.5
0
LWPOLYLINE
8
REFERENCE_BASE
90
28
70
1
10
1274.5
20
-1349
10
1272.5
20
-1184
10
1274
20
-1182.5
10
1455
20
-1180.5
10
1457.5
20
-1187
10
1458.5
20
-1285
10
1461
20
-1286.5
10
1462.5
20
-1285
10
1461.5
20
-1182
10
1463
20
-1180.5
10
1506
20
-1180.5
10
1507.5
20
-1182
10
1508.5
20
-1284
10
1512
20
-1285.5
10
1512
20
-1180.5
10
1688
20
-1178.5
10
1690.5
20
-1180
10
1693.5
20
-1334
10
1692
20
-1347.5
10
1515
20
-1348.5
10
1513.5
20
-1342
10
1511
20
-1341.5
10
1508
20
-1348.5
10
1464
20
-1348.5
10
1463.5
20
-1343
10
1460
20
-1341.5
10
1457
20
-1349.5
10
1276
20
-1350.5
0
LWPOLYLINE
8
REFERENCE_BASE
90
18
70
1
10
1690.5
20
-1343
10
1687
20
-1181.5
10
1516
20
-1182.5
10
1514.5
20
-1184
10
1515.5
20
-1288
10
1503
20
-1291.5
10
1498.5
20
-1296
10
1497.5
20
-1302
10
1514
20
-1301.5
10
1516.5
20
-1304
10
1516.5
20
-1324
10
1515
20
-1325.5
10
1498
20
-1325.5
10
1498.5
20
-1331
10
1504
20
-1336.5
10
1515
20
-1338.5
10
1517
20
-1345.5
10
1689
20
-1344.5
0
LWPOLYLINE
8
REFERENCE_BASE
90
16
70
0
10
1277.5
20
-1347
10
1454
20
-1346.5
10
1458
20
-1338.5
10
1470
20
-1336.5
10
1475.5
20
-1329
10
1475
20
-1325.5
10
1457
20
-1325.5
10
1455.5
20
-1324
10
1455.5
20
-1303
10
1458
20
-1301.5
10
1474
20
-1302.5
10
1474.5
20
-1298
10
1470
20
-1292.5
10
1455.5
20
-1288
10
1453.5
20
-1184
10
1276
20
-1185.5
0
LWPOLYLINE
8
REFERENCE_BASE
90
15
70
1
10
1468
20
-1309.5
10
1506.5
20
-1308
10
1506
20
-1305.5
10
1496
20
-1305.5
10
1493.5
20
-1303
10
1496.5
20
-1293
10
1505.5
20
-1287
10
1504
20
-1183.5
10
1464.5
20
-1184
10
1465.5
20
-1286
10
1474.5
20
-1292
10
1478.5
20
-1300
10
1477
20
-1305.5
10
1467
20
-1305.5
10
1465.5
20
-1308
0
LWPOLYLINE
8
REFERENCE_BASE
90
31
70
1
10
453.5
20
-1362
10
452.5
20
-1196
10
454
20
-1192.5
10
595
20
-1189.5
10
625
20
-1190.5
10
625.5
20
-1295
10
629
20
-1296.5
10
630.5
20
-1295
10
629.5
20
-1194
10
632
20
-1189.5
10
674
20
-1189.5
10
675.5
20
-1191
10
675.5
20
-1295
10
679
20
-1295.5
10
679.5
20
-1191
10
682
20
-1188.5
10
832
20
-1186.5
10
835.5
20
-1189
10
835.5
20
-1355
10
832
20
-1357.5
10
681
20
-1359.5
10
679.5
20
-1357
10
680.5
20
-1354
10
677
20
-1352.5
10
674
20
-1359.5
10
632
20
-1360.5
10
630.5
20
-1354
10
627
20
-1353.5
10
624
20
-1360.5
10
506
20
-1363.5
10
455
20
-1363.5
0
LWPOLYLINE
8
REFERENCE_BASE
90
17
70
0
10
665.5
20
-1343
10
673
20
-1348.5
10
682
20
-1349.5
10
684
20
-1356.5
10
832
20
-1353.5
10
832.5
20
-1191
10
831
20
-1189.5
10
684
20
-1191.5
10
682.5
20
-1193
10
682.5
20
-1298
10
668
20
-1302.5
10
663.5
20
-1309
10
664
20
-1312.5
10
682.5
20
-1313
10
683.5
20
-1333
10
680
20
-1336.5
10
664
20
-1336.5
0
LWPOLYLINE
8
REFERENCE_BASE
90
19
70
1
10
457
20
-1360.5
10
622
20
-1357.5
10
624
20
-1350.5
10
633
20
-1349.5
10
640.5
20
-1344
10
642
20
-1336.5
10
625
20
-1337.5
10
622.5
20
-1335
10
622.5
20
-1314
10
625
20
-1312.5
10
641
20
-1313.5
10
642.5
20
-1311
10
635
20
-1301.5
10
622.5
20
-1298
10
622.5
20
-1194
10
621
20
-1192.5
10
470
20
-1194.5
10
455.5
20
-1197
10
455.5
20
-1359
0
LWPOLYLINE
8
REFERENCE_BASE
90
14
70
0
10
671
20
-1319.5
10
672
20
-1315.5
10
661
20
-1315.5
10
659.5
20
-1311
10
661.5
20
-1305
10
672.5
20
-1296
10
672.5
20
-1193
10
634
20
-1192.5
10
632.5
20
-1195
10
632.5
20
-1296
10
643.5
20
-1305
10
645.5
20
-1315
10
634
20
-1316.5
10
633.5
20
-1319
0
LWPOLYLINE
8
REFERENCE_BASE
90
14
70
1
10
1513.5
20
-1321
10
1513.5
20
-1307
10
1512
20
-1305.5
10
1509.5
20
-1306
10
1508
20
-1311.5
10
1464
20
-1311.5
10
1462.5
20
-1306
10
1458.5
20
-1306
10
1459
20
-1322.5
10
1463.5
20
-1321
10
1464
20
-1316.5
10
1503
20
-1315.5
10
1508
20
-1316.5
10
1510
20
-1322.5
0
LWPOLYLINE
8
REFERENCE_BASE
90
13
70
1
10
679.5
20
-1332
10
679
20
-1315.5
10
675.5
20
-1316
10
674
20
-1321.5
10
632
20
-1322.5
10
629
20
-1316.5
10
625.5
20
-1318
10
625.5
20
-1332
10
627
20
-1333.5
10
630.5
20
-1333
10
632
20
-1327.5
10
674
20
-1326.5
10
677
20
-1333.5
0
LWPOLYLINE
8
REFERENCE_BASE
90
16
70
0
10
1466.5
20
-1345
10
1468
20
-1346.5
10
1506
20
-1345.5
10
1506.5
20
-1341
10
1496.5
20
-1334
10
1494.5
20
-1324
10
1496
20
-1322.5
10
1506
20
-1322.5
10
1506.5
20
-1320
10
1505
20
-1318.5
10
1467
20
-1318.5
10
1468
20
-1323.5
10
1477
20
-1322.5
10
1478.5
20
-1330
10
1471
20
-1339.5
10
1466.5
20
-1341
0
LWPOLYLINE
8
REFERENCE_BASE
90
15
70
0
10
633.5
20
-1357
10
672
20
-1356.5
10
672.5
20
-1352
10
661.5
20
-1343
10
660.5
20
-1335
10
662
20
-1333.5
10
671
20
-1333.5
10
672.5
20
-1330
10
669
20
-1328.5
10
635
20
-1329.5
10
634
20
-1333.5
10
643
20
-1333.5
10
646.5
20
-1337
10
642.5
20
-1347
10
633.5
20
-1353
0
LWPOLYLINE
8
REFERENCE_BASE
90
5
70
0
10
1752
20
-1380.5
10
1752.5
20
-1355
10
1750
20
-1353.5
10
1744
20
-1354.5
10
1744.5
20
-1380
0
LWPOLYLINE
8
REFERENCE_BASE
90
5
70
0
10
1764
20
-1380.5
10
1763.5
20
-1355
10
1757
20
-1353.5
10
1755.5
20
-1355
10
1755.5
20
-1379
0
LWPOLYLINE
8
REFERENCE_BASE
90
5
70
0
10
1775
20
-1380.5
10
1775.5
20
-1355
10
1768
20
-1353.5
10
1766.5
20
-1355
10
1767.5
20
-1379
0
LWPOLYLINE
8
REFERENCE_BASE
90
5
70
0
10
1787
20
-1380.5
10
1787.5
20
-1355
10
1780
20
-1353.5
10
1778.5
20
-1355
10
1778.5
20
-1379
0
LWPOLYLINE
8
REFERENCE_BASE
90
4
70
0
10
1799
20
-1380.5
10
1799.5
20
-1355
10
1791
20
-1353.5
10
1790.5
20
-1379
0
LWPOLYLINE
8
REFERENCE_BASE
90
5
70
0
10
1810
20
-1380.5
10
1811.5
20
-1379
10
1811.5
20
-1355
10
1803
20
-1353.5
10
1802.5
20
-1379
0
LWPOLYLINE
8
REFERENCE_BASE
90
5
70
0
10
86
20
-1403.5
10
93.5
20
-1402
10
93.5
20
-1377
10
91
20
-1375.5
10
84.5
20
-1378
0
LWPOLYLINE
8
REFERENCE_BASE
90
5
70
0
10
104
20
-1402.5
10
104.5
20
-1377
10
98
20
-1375.5
10
95.5
20
-1378
10
95.5
20
-1401
0
LWPOLYLINE
8
REFERENCE_BASE
90
6
70
0
10
115
20
-1402.5
10
115.5
20
-1377
10
108
20
-1375.5
10
106.5
20
-1377
10
106.5
20
-1400
10
108
20
-1402.5
0
LWPOLYLINE
8
REFERENCE_BASE
90
6
70
0
10
126
20
-1402.5
10
126.5
20
-1377
10
119
20
-1375.5
10
117.5
20
-1377
10
117.5
20
-1400
10
119
20
-1402.5
0
LWPOLYLINE
8
REFERENCE_BASE
90
6
70
0
10
137
20
-1402.5
10
137.5
20
-1377
10
130
20
-1375.5
10
128.5
20
-1377
10
128.5
20
-1400
10
130
20
-1402.5
0
LWPOLYLINE
8
REFERENCE_BASE
90
6
70
0
10
147
20
-1402.5
10
148.5
20
-1401
10
148.5
20
-1377
10
141
20
-1375.5
10
139.5
20
-1378
10
140.5
20
-1402
0
LWPOLYLINE
8
REFERENCE_BASE
90
5
70
0
10
80
20
-1403.5
10
82.5
20
-1402
10
82.5
20
-1377
10
75
20
-1376.5
10
74.5
20
-1402
0
LWPOLYLINE
8
REFERENCE_BASE
90
6
70
0
10
1753
20
-1416.5
10
1754.5
20
-1415
10
1753.5
20
-1390
10
1747
20
-1388.5
10
1744.5
20
-1390
10
1745.5
20
-1416
0
LWPOLYLINE
8
REFERENCE_BASE
90
7
70
0
10
1764
20
-1416.5
10
1765.5
20
-1415
10
1764.5
20
-1390
10
1758
20
-1388.5
10
1756.5
20
-1390
10
1756.5
20
-1414
10
1759
20
-1416.5
0
LWPOLYLINE
8
REFERENCE_BASE
90
5
70
0
10
1776
20
-1416.5
10
1776.5
20
-1390
10
1769
20
-1388.5
10
1767.5
20
-1390
10
1768.5
20
-1415
0
LWPOLYLINE
8
REFERENCE_BASE
90
7
70
0
10
1787
20
-1416.5
10
1788.5
20
-1415
10
1788.5
20
-1390
10
1781
20
-1388.5
10
1779.5
20
-1390
10
1779.5
20
-1414
10
1782
20
-1416.5
0
LWPOLYLINE
8
REFERENCE_BASE
90
6
70
0
10
1799
20
-1416.5
10
1800.5
20
-1415
10
1800.5
20
-1390
10
1792
20
-1388.5
10
1791.5
20
-1414
10
1795
20
-1416.5
0
LWPOLYLINE
8
REFERENCE_BASE
90
4
70
0
10
1812
20
-1415.5
10
1811.5
20
-1389
10
1804
20
-1388.5
10
1803.5
20
-1414
0
LWPOLYLINE
8
REFERENCE_BASE
90
6
70
0
10
1741
20
-1416.5
10
1742.5
20
-1415
10
1741.5
20
-1390
10
1734
20
-1389.5
10
1732.5
20
-1391
10
1733.5
20
-1416
0
LWPOLYLINE
8
REFERENCE_BASE
90
54
70
1
10
1203.5
20
-1565
10
1202.5
20
-1407
10
1204
20
-1405.5
10
1439
20
-1403.5
10
1440.5
20
-1411
10
1438
20
-1413.5
10
1365.5
20
-1414
10
1367
20
-1420.5
10
1379
20
-1420.5
10
1380.5
20
-1422
10
1380.5
20
-1460
10
1378
20
-1461.5
10
1368
20
-1460.5
10
1366.5
20
-1462
10
1366.5
20
-1480
10
1368
20
-1481.5
10
1439
20
-1481.5
10
1438.5
20
-1471
10
1441.5
20
-1468
10
1441.5
20
-1465
10
1437.5
20
-1458
10
1441.5
20
-1450
10
1437.5
20
-1445
10
1437.5
20
-1440
10
1443
20
-1434.5
10
1458
20
-1435.5
10
1460
20
-1425.5
10
1467
20
-1425.5
10
1469
20
-1434.5
10
1482
20
-1433.5
10
1487.5
20
-1437
10
1488.5
20
-1445
10
1485.5
20
-1451
10
1489.5
20
-1459
10
1485.5
20
-1466
10
1489.5
20
-1472
10
1489
20
-1480.5
10
1551.5
20
-1479
10
1551.5
20
-1460
10
1537
20
-1459.5
10
1535.5
20
-1458
10
1534.5
20
-1436
10
1535.5
20
-1418
10
1549
20
-1418.5
10
1550.5
20
-1413
10
1549
20
-1411.5
10
1487
20
-1412.5
10
1486.5
20
-1404
10
1488
20
-1402.5
10
1602
20
-1402.5
10
1603.5
20
-1404
10
1606.5
20
-1554
10
1605
20
-1561.5
10
1205
20
-1566.5
0
LWPOLYLINE
8
REFERENCE_BASE
90
26
70
0
10
1206.5
20
-1562
10
1208
20
-1563.5
10
1602
20
-1558.5
10
1600.5
20
-1406
10
1491
20
-1405.5
10
1489.5
20
-1407
10
1490
20
-1409.5
10
1552.5
20
-1410
10
1554.5
20
-1480
10
1553
20
-1481.5
10
1468
20
-1482.5
10
1466.5
20
-1481
10
1466.5
20
-1433
10
1465.5
20
-1429
10
1463
20
-1428.5
10
1461.5
20
-1430
10
1462.5
20
-1480
10
1460
20
-1482.5
10
1367
20
-1484.5
10
1363.5
20
-1481
10
1363.5
20
-1412
10
1366
20
-1410.5
10
1436
20
-1410.5
10
1436
20
-1406.5
10
1207
20
-1408.5
10
1205.5
20
-1410
0
LWPOLYLINE
8
REFERENCE_BASE
90
7
70
1
10
120
20
-1439.5
10
126.5
20
-1437
10
126.5
20
-1412
10
124
20
-1410.5
10
120
20
-1410.5
10
117.5
20
-1413
10
118.5
20
-1438
0
LWPOLYLINE
8
REFERENCE_BASE
90
7
70
0
10
136
20
-1438.5
10
137.5
20
-1437
10
137.5
20
-1413
10
135
20
-1410.5
10
131
20
-1410.5
10
128.5
20
-1413
10
128.5
20
-1437
0
LWPOLYLINE
8
REFERENCE_BASE
90
5
70
0
10
148
20
-1438.5
10
148.5
20
-1412
10
142
20
-1410.5
10
139.5
20
-1413
10
139.5
20
-1437
0
LWPOLYLINE
8
REFERENCE_BASE
90
6
70
0
10
159
20
-1438.5
10
160.5
20
-1437
10
159.5
20
-1412
10
153
20
-1410.5
10
151.5
20
-1412
10
151.5
20
-1438
0
LWPOLYLINE
8
REFERENCE_BASE
90
6
70
0
10
81
20
-1439.5
10
82.5
20
-1438
10
82.5
20
-1413
10
75
20
-1411.5
10
73.5
20
-1413
10
73.5
20
-1438
0
LWPOLYLINE
8
REFERENCE_BASE
90
6
70
0
10
91
20
-1439.5
10
93.5
20
-1438
10
93.5
20
-1413
10
86
20
-1411.5
10
84.5
20
-1414
10
85.5
20
-1439
0
LWPOLYLINE
8
REFERENCE_BASE
90
5
70
0
10
101
20
-1439.5
10
104.5
20
-1438
10
104.5
20
-1413
10
97
20
-1411.5
10
95.5
20
-1438
0
LWPOLYLINE
8
REFERENCE_BASE
90
6
70
1
10
111
20
-1439.5
10
115.5
20
-1438
10
115.5
20
-1413
10
114
20
-1411.5
10
106.5
20
-1413
10
107.5
20
-1438
0
LWPOLYLINE
8
REFERENCE_BASE
90
56
70
1
10
252.5
20
-1582
10
252
20
-1421.5
10
359
20
-1419.5
10
361.5
20
-1422
10
360.5
20
-1429
10
358
20
-1430.5
10
306
20
-1430.5
10
304.5
20
-1432
10
305
20
-1436.5
10
319.5
20
-1437
10
319.5
20
-1476
10
304.5
20
-1479
10
304.5
20
-1498
10
311
20
-1499.5
10
367
20
-1498.5
10
361.5
20
-1490
10
365.5
20
-1481
10
361.5
20
-1475
10
364.5
20
-1465
10
360.5
20
-1458
10
366
20
-1450.5
10
381
20
-1450.5
10
383
20
-1442.5
10
390
20
-1442.5
10
391.5
20
-1445
10
390.5
20
-1450
10
393
20
-1452.5
10
406
20
-1450.5
10
411.5
20
-1457
10
410.5
20
-1462
10
407.5
20
-1465
10
411.5
20
-1475
10
407.5
20
-1480
10
407.5
20
-1483
10
410.5
20
-1486
10
410.5
20
-1492
10
406.5
20
-1496
10
407
20
-1498.5
10
465
20
-1496.5
10
466.5
20
-1495
10
466.5
20
-1476
10
450
20
-1476.5
10
448.5
20
-1475
10
448.5
20
-1436
10
450
20
-1434.5
10
464
20
-1434.5
10
466.5
20
-1433
10
466.5
20
-1428
10
411
20
-1428.5
10
409.5
20
-1421
10
412
20
-1418.5
10
631
20
-1414.5
10
633.5
20
-1418
10
633.5
20
-1575
10
632
20
-1577.5
10
254
20
-1583.5
0
LWPOLYLINE
8
REFERENCE_BASE
90
36
70
0
10
255.5
20
-1579
10
257
20
-1580.5
10
629
20
-1574.5
10
630.5
20
-1571
10
629.5
20
-1419
10
625
20
-1417.5
10
415
20
-1421.5
10
412.5
20
-1423
10
413
20
-1425.5
10
468.5
20
-1426
10
469.5
20
-1496
10
467
20
-1498.5
10
459
20
-1499.5
10
390
20
-1499.5
10
388.5
20
-1446
10
385
20
-1445.5
10
383.5
20
-1447
10
382.5
20
-1477
10
383.5
20
-1491
10
378.5
20
-1492
10
379
20
-1494.5
10
383.5
20
-1494
10
383.5
20
-1498
10
378
20
-1499.5
10
380.5
20
-1497
10
375
20
-1496.5
10
374
20
-1499.5
10
353
20
-1501.5
10
302.5
20
-1501
10
301.5
20
-1430
10
309
20
-1427.5
10
355
20
-1427.5
10
358.5
20
-1425
10
358
20
-1423.5
10
256
20
-1424.5
10
254.5
20
-1426
0
LWPOLYLINE
8
REFERENCE_BASE
90
7
70
0
10
1544
20
-1434.5
10
1546.5
20
-1431
10
1543.5
20
-1428
10
1546.5
20
-1424
10
1542
20
-1422.5
10
1539.5
20
-1425
10
1539.5
20
-1431
0
LWPOLYLINE
8
REFERENCE_BASE
90
7
70
0
10
1374
20
-1436.5
10
1376.5
20
-1434
10
1376.5
20
-1428
10
1371
20
-1425.5
10
1369.5
20
-1429
10
1372.5
20
-1431
10
1369.5
20
-1435
0
LWPOLYLINE
8
REFERENCE_BASE
90
7
70
1
10
1550.5
20
-1442
10
1550
20
-1434.5
10
1545
20
-1436.5
10
1537.5
20
-1435
10
1539
20
-1441.5
10
1546
20
-1440.5
10
1548
20
-1442.5
0
LWPOLYLINE
8
REFERENCE_BASE
90
7
70
0
10
1378.5
20
-1443
10
1377
20
-1437.5
10
1370
20
-1438.5
10
1368
20
-1436.5
10
1365.5
20
-1437
10
1366
20
-1443.5
10
1372
20
-1441.5
0
LWPOLYLINE
8
REFERENCE_BASE
90
8
70
0
10
455
20
-1450.5
10
460.5
20
-1449
10
458.5
20
-1444
10
461.5
20
-1441
10
459
20
-1438.5
10
455
20
-1439.5
10
452.5
20
-1443
10
452.5
20
-1447
0
LWPOLYLINE
8
REFERENCE_BASE
90
4
70
1
10
1448.5
20
-1446
10
1447
20
-1439.5
10
1442.5
20
-1442
10
1445
20
-1446.5
0
LWPOLYLINE
8
REFERENCE_BASE
90
4
70
1
10
1482
20
-1445.5
10
1484.5
20
-1441
10
1479
20
-1439.5
10
1478.5
20
-1445
0
LWPOLYLINE
8
REFERENCE_BASE
90
7
70
1
10
312
20
-1452.5
10
315.5
20
-1449
10
315.5
20
-1444
10
310
20
-1441.5
10
307.5
20
-1444
10
310.5
20
-1447
10
308.5
20
-1452
0
LWPOLYLINE
8
REFERENCE_BASE
90
8
70
0
10
1546
20
-1453.5
10
1546.5
20
-1450
10
1544.5
20
-1448
10
1546.5
20
-1444
10
1542
20
-1442.5
10
1539.5
20
-1446
10
1539.5
20
-1450
10
1542
20
-1453.5
0
LWPOLYLINE
8
REFERENCE_BASE
90
7
70
0
10
1375
20
-1455.5
10
1376.5
20
-1447
10
1375
20
-1444.5
10
1371
20
-1444.5
10
1369.5
20
-1447
10
1372.5
20
-1451
10
1370.5
20
-1454
0
LWPOLYLINE
8
REFERENCE_BASE
90
17
70
1
10
459
20
-1470.5
10
460.5
20
-1467
10
458.5
20
-1464
10
461.5
20
-1462
10
460.5
20
-1459
10
464
20
-1459.5
10
466.5
20
-1457
10
465.5
20
-1451
10
455
20
-1452.5
10
452
20
-1450.5
10
452
20
-1458.5
10
455
20
-1456.5
10
460.5
20
-1458
10
456
20
-1458.5
10
452.5
20
-1463
10
452.5
20
-1467
10
456
20
-1470.5
0
LWPOLYLINE
8
REFERENCE_BASE
90
7
70
0
10
303.5
20
-1460
10
306
20
-1461.5
10
309
20
-1459.5
10
317
20
-1459.5
10
317.5
20
-1454
10
309
20
-1454.5
10
305
20
-1452.5
0
LWPOLYLINE
8
REFERENCE_BASE
90
4
70
0
10
1483
20
-1461.5
10
1484.5
20
-1456
10
1479
20
-1454.5
10
1478.5
20
-1461
0
LWPOLYLINE
8
REFERENCE_BASE
90
4
70
0
10
371.5
20
-1461
10
371
20
-1455.5
10
365.5
20
-1458
10
367
20
-1461.5
0
LWPOLYLINE
8
REFERENCE_BASE
90
4
70
0
10
402
20
-1462.5
10
406.5
20
-1460
10
405
20
-1455.5
10
400.5
20
-1457
0
LWPOLYLINE
8
REFERENCE_BASE
90
4
70
0
10
1448
20
-1462.5
10
1448.5
20
-1456
10
1444
20
-1455.5
10
1442.5
20
-1460
0
LWPOLYLINE
8
REFERENCE_BASE
90
10
70
1
10
305
20
-1475.5
10
308.5
20
-1475
10
308
20
-1471.5
10
311
20
-1472.5
10
315.5
20
-1469
10
315.5
20
-1464
10
313
20
-1461.5
10
307.5
20
-1463
10
310.5
20
-1467
10
303.5
20
-1473
0
LWPOLYLINE
8
REFERENCE_BASE
90
4
70
1
10
466.5
20
-1471
10
464
20
-1469.5
10
459.5
20
-1473
10
465
20
-1473.5
0
LWPOLYLINE
8
REFERENCE_BASE
90
4
70
0
10
371
20
-1477.5
10
371.5
20
-1471
10
369
20
-1470.5
10
365.5
20
-1475
0
LWPOLYLINE
8
REFERENCE_BASE
90
4
70
1
10
404
20
-1477.5
10
407.5
20
-1473
10
402
20
-1470.5
10
400.5
20
-1476
0
LWPOLYLINE
8
REFERENCE_BASE
90
4
70
1
10
1482
20
-1477.5
10
1484.5
20
-1472
10
1479
20
-1470.5
10
1478.5
20
-1476
0
LWPOLYLINE
8
REFERENCE_BASE
90
4
70
1
10
1448.5
20
-1477
10
1448
20
-1471.5
10
1442.5
20
-1474
10
1445
20
-1477.5
0
LWPOLYLINE
8
REFERENCE_BASE
90
4
70
0
10
371
20
-1492.5
10
372.5
20
-1487
10
369
20
-1485.5
10
365.5
20
-1490
0
LWPOLYLINE
8
REFERENCE_BASE
90
4
70
1
10
404
20
-1492.5
10
406.5
20
-1488
10
402
20
-1485.5
10
400.5
20
-1492
0
LWPOLYLINE
8
REFERENCE_BASE
90
5
70
0
10
999.5
20
-1578
10
998
20
-1569.5
10
955
20
-1570.5
10
952.5
20
-1572
10
953
20
-1579.5
0
LWPOLYLINE
8
REFERENCE_BASE
90
7
70
0
10
842.5
20
-1581
10
844
20
-1582.5
10
888
20
-1581.5
10
890.5
20
-1580
10
890.5
20
-1573
10
889
20
-1571.5
10
844
20
-1572.5
0
LWPOLYLINE
8
REFERENCE_BASE
90
5
70
0
10
952.5
20
-1590
10
954
20
-1591.5
10
998
20
-1590.5
10
999.5
20
-1582
10
953
20
-1582.5
0
LWPOLYLINE
8
REFERENCE_BASE
90
6
70
0
10
842.5
20
-1592
10
844
20
-1593.5
10
889
20
-1592.5
10
890.5
20
-1585
10
889
20
-1583.5
10
844
20
-1584.5
0
LWPOLYLINE
8
REFERENCE_BASE
90
5
70
0
10
952.5
20
-1603
10
999
20
-1602.5
10
1000.5
20
-1595
10
999
20
-1593.5
10
953
20
-1594.5
0
LWPOLYLINE
8
REFERENCE_BASE
90
5
70
0
10
842.5
20
-1603
10
844
20
-1605.5
10
889
20
-1604.5
10
890.5
20
-1596
10
844
20
-1596.5
0
LWPOLYLINE
8
REFERENCE_BASE
90
6
70
0
10
952.5
20
-1614
10
954
20
-1615.5
10
999
20
-1614.5
10
1000.5
20
-1608
10
999
20
-1605.5
10
953
20
-1606.5
0
LWPOLYLINE
8
REFERENCE_BASE
90
4
70
0
10
843.5
20
-1617
10
889
20
-1616.5
10
890.5
20
-1608
10
844
20
-1608.5
0
LWPOLYLINE
8
REFERENCE_BASE
90
7
70
0
10
952.5
20
-1626
10
954
20
-1627.5
10
998
20
-1626.5
10
1000.5
20
-1625
10
1000.5
20
-1619
10
999
20
-1617.5
10
954
20
-1617.5
0
LWPOLYLINE
8
REFERENCE_BASE
90
4
70
0
10
843.5
20
-1629
10
889
20
-1628.5
10
890.5
20
-1620
10
845
20
-1619.5
0
LWPOLYLINE
8
REFERENCE_BASE
90
6
70
1
10
1000.5
20
-1637
10
999
20
-1628.5
10
954
20
-1629.5
10
952.5
20
-1631
10
953
20
-1638.5
10
999
20
-1638.5
0
LWPOLYLINE
8
REFERENCE_BASE
90
5
70
0
10
842.5
20
-1639
10
844
20
-1641.5
10
889
20
-1640.5
10
890.5
20
-1632
10
845
20
-1631.5
0
LWPOLYLINE
8
REFERENCE_BASE
90
6
70
1
10
1000.5
20
-1649
10
999
20
-1640.5
10
954
20
-1641.5
10
952.5
20
-1643
10
954
20
-1650.5
10
998
20
-1650.5
0
LWPOLYLINE
8
REFERENCE_BASE
90
6
70
0
10
843.5
20
-1652
10
845
20
-1653.5
10
886
20
-1652.5
10
890.5
20
-1651
10
890.5
20
-1644
10
845
20
-1643.5
0
LWPOLYLINE
8
REFERENCE_BASE
90
6
70
0
10
952.5
20
-1661
10
954
20
-1662.5
10
1000
20
-1661.5
10
1000.5
20
-1654
10
999
20
-1652.5
10
954
20
-1653.5
0
LWPOLYLINE
8
REFERENCE_BASE
90
5
70
0
10
890.5
20
-1663
10
890
20
-1654.5
10
845
20
-1655.5
10
843.5
20
-1657
10
844
20
-1664.5
0
LWPOLYLINE
8
REFERENCE_BASE
90
6
70
0
10
952.5
20
-1672
10
954
20
-1674.5
10
1000
20
-1673.5
10
1000.5
20
-1666
10
999
20
-1664.5
10
954
20
-1665.5
0
LWPOLYLINE
8
REFERENCE_BASE
90
4
70
0
10
843.5
20
-1676
10
890
20
-1675.5
10
890.5
20
-1667
10
845
20
-1667.5
0
ENDSEC
0
EOF
