0
SECTION
2
HEADER
9
$ACADVER
1
AC1015
0
ENDSEC
0
SECTION
2
TABLES
0
TABLE
2
LAYER
70
10
0
LAYER
2
REFERENCE_STROKES
70
0
62
8
6
CONTINUOUS
0
LAYER
2
REFERENCE_BASE
70
0
62
252
6
CONTINUOUS
0
LAYER
2
ROOMS
70
0
62
3
6
CONTINUOUS
0
LAYER
2
HALLWAYS
70
0
62
4
6
CONTINUOUS
0
LAYER
2
WALLS
70
0
62
2
6
CONTINUOUS
0
LAYER
2
DOORS
70
0
62
6
6
CONTINUOUS
0
LAYER
2
STAIRS
70
0
62
5
6
CONTINUOUS
0
LAYER
2
ROOM_LABELS
70
0
62
7
6
CONTINUOUS
0
LAYER
2
PLACE_LABELS
70
0
62
30
6
CONTINUOUS
0
LAYER
2
PINS
70
0
62
1
6
CONTINUOUS
0
ENDTAB
0
ENDSEC
0
SECTION
2
ENTITIES
0
LWPOLYLINE
8
REFERENCE_STROKES
90
35
70
0
10
2375
20
-159.5
10
2357
20
-152.5
10
2328
20
-135.5
10
2310
20
-128.5
10
2295
20
-125.5
10
2270
20
-127.5
10
2224
20
-148.5
10
2203
20
-153.5
10
2194
20
-153.5
10
2183
20
-151.5
10
2168
20
-144.5
10
2156
20
-134.5
10
2145
20
-128.5
10
2114
20
-118.5
10
2084
20
-112.5
10
2025
20
-105.5
10
1980
20
-103.5
10
1963
20
-104.5
10
1961.5
20
-103
10
2029
20
-71.5
10
2057
20
-60.5
10
2075
20
-39.5
10
2097
20
-44.5
10
2111
20
-25.5
10
2120
20
-26.5
10
2134
20
-32.5
10
2151
20
-11.5
10
2162
20
-13.5
10
2174
20
-20.5
10
2177
20
-20.5
10
2192
20
-1.5
10
2213
20
-13.5
10
2220
20
-13.5
10
2229
20
-9.5
10
2238.5
20
0
0
LWPOLYLINE
8
REFERENCE_STROKES
90
9
70
0
10
2285.5
20
0
10
2288
20
-5.5
10
2303
20
-6.5
10
2314.5
20
-16
10
2320.5
20
-25
10
2330.5
20
-48
10
2340
20
-58.5
10
2356
20
-66.5
10
2375
20
-69.5
0
LWPOLYLINE
8
REFERENCE_STROKES
90
11
70
0
10
2291.5
20
-37
10
2289.5
20
-28
10
2281.5
20
-14
10
2276
20
-8.5
10
2264
20
-3.5
10
2249.5
20
-6
10
2253.5
20
-8
10
2250.5
20
-16
10
2250.5
20
-27
10
2257
20
-36.5
10
2263
20
-39.5
0
LWPOLYLINE
8
REFERENCE_STROKES
90
6
70
0
10
2188.5
20
-17
10
2195
20
-14.5
10
2203
20
-15.5
10
2204.5
20
-13
10
2196
20
-7.5
10
2193
20
-7.5
0
LWPOLYLINE
8
REFERENCE_STROKES
90
7
70
0
10
2270
20
-30.5
10
2268.5
20
-26
10
2269.5
20
-17
10
2273
20
-12.5
10
2275
20
-12.5
10
2280.5
20
-23
10
2274
20
-29.5
0
LWPOLYLINE
8
REFERENCE_STROKES
90
5
70
0
10
2165.5
20
-23
10
2165
20
-20.5
10
2156
20
-16.5
10
2152.5
20
-18
10
2153
20
-21.5
0
LWPOLYLINE
8
REFERENCE_STROKES
90
61
70
0
10
2291.5
20
-1447
10
2290
20
-1448.5
10
1924
20
-1447.5
10
1418
20
-1442.5
10
1415.5
20
-1440
10
1417.5
20
-1341
10
1416
20
-1339.5
10
1059
20
-1336.5
10
870
20
-1336.5
10
868.5
20
-1438
10
867
20
-1439.5
10
524
20
-1438.5
10
80
20
-1432.5
10
76.5
20
-1429
10
81.5
20
-1348
10
83.5
20
-1210
10
82
20
-1208.5
10
26
20
-1208.5
10
23.5
20
-1206
10
23.5
20
-1128
10
27.5
20
-1024
10
26.5
20
-887
10
28
20
-884.5
10
85.5
20
-884
10
88.5
20
-778
10
88.5
20
-668
10
91
20
-665.5
10
186
20
-665.5
10
1040
20
-675.5
10
1045.5
20
-24
10
1069
20
-23.5
10
1070.5
20
-25
10
1070.5
20
-47
10
1072
20
-48.5
10
1083.5
20
-42
10
1090
20
-28.5
10
1092.5
20
-31
10
1092.5
20
-37
10
1101
20
-46.5
10
1108
20
-48.5
10
1108.5
20
-26
10
1111
20
-23.5
10
1457
20
-27.5
10
1458.5
20
-30
10
1456.5
20
-145
10
1458
20
-146.5
10
1482
20
-146.5
10
1483.5
20
-149
10
1478.5
20
-489
10
1478
20
-679.5
10
2298
20
-686.5
10
2299.5
20
-688
10
2296.5
20
-811
10
2296.5
20
-903
10
2302
20
-905.5
10
2341
20
-905.5
10
2342.5
20
-907
10
2342.5
20
-1227
10
2341
20
-1228.5
10
2296
20
-1228.5
10
2294.5
20
-1230
0
LWPOLYLINE
8
REFERENCE_STROKES
90
118
70
1
10
2287.5
20
-1443
10
2291.5
20
-1226
10
2293
20
-1224.5
10
2338.5
20
-1224
10
2338.5
20
-911
10
2332
20
-908.5
10
2296
20
-908.5
10
2293.5
20
-906
10
2292.5
20
-809
10
2295.5
20
-691
10
2291
20
-689.5
10
1475
20
-682.5
10
1473.5
20
-681
10
1474.5
20
-505
10
1479.5
20
-152
10
1478
20
-150.5
10
1457
20
-150.5
10
1453.5
20
-148
10
1454
20
-31.5
10
1290
20
-28.5
10
1112.5
20
-28
10
1113
20
-32.5
10
1255
20
-33.5
10
1257.5
20
-36
10
1258
20
-74.5
10
1262.5
20
-73
10
1262.5
20
-38
10
1264
20
-34.5
10
1447
20
-36.5
10
1449.5
20
-39
10
1448.5
20
-146
10
1446
20
-149.5
10
1263
20
-147.5
10
1261.5
20
-146
10
1261.5
20
-122
10
1256.5
20
-121
10
1249.5
20
-685
10
1251
20
-686.5
10
1379
20
-687.5
10
1381.5
20
-691
10
1380
20
-725.5
10
1249.5
20
-726
10
1250
20
-730.5
10
1325
20
-731.5
10
1327.5
20
-734
10
1326.5
20
-901
10
1328
20
-902.5
10
1496
20
-903.5
10
1831
20
-909.5
10
2332
20
-914.5
10
2333.5
20
-916
10
2332.5
20
-997
10
2331
20
-998.5
10
2159
20
-997.5
10
2157.5
20
-999
10
2158.5
20
-1217
10
2156
20
-1219.5
10
1448
20
-1210.5
10
1445.5
20
-1209
10
1444.5
20
-1204
10
1445.5
20
-971
10
1426
20
-969.5
10
1250
20
-968.5
10
1246.5
20
-1327
10
1245
20
-1328.5
10
1043
20
-1327.5
10
1047.5
20
-967
10
1021
20
-965.5
10
851.5
20
-966
10
847.5
20
-1196
10
845
20
-1205.5
10
452
20
-1204.5
10
205.5
20
-1201
10
204.5
20
-1116
10
207.5
20
-982
10
206
20
-980.5
10
37
20
-978.5
10
35.5
20
-895
10
37
20
-893.5
10
727
20
-899.5
10
1045
20
-900.5
10
1046.5
20
-899
10
1050.5
20
-582
10
1053.5
20
-43
10
1054.5
20
-34
10
1056
20
-32.5
10
1065
20
-32.5
10
1066.5
20
-31
10
1065
20
-26.5
10
1050
20
-26.5
10
1048.5
20
-28
10
1044.5
20
-675
10
1043
20
-678.5
10
917
20
-678.5
10
332
20
-670.5
10
92.5
20
-670
10
92.5
20
-774
10
89.5
20
-885
10
87
20
-888.5
10
30.5
20
-889
10
31.5
20
-983
10
27.5
20
-1103
10
27.5
20
-1204
10
85
20
-1205.5
10
86.5
20
-1207
10
86.5
20
-1299
10
81.5
20
-1405
10
82
20
-1428.5
10
508
20
-1434.5
10
864
20
-1435.5
10
865.5
20
-1337
10
869
20
-1332.5
10
1189
20
-1333.5
10
1420
20
-1336.5
10
1421.5
20
-1340
10
1420
20
-1438.5
10
1925
20
-1443.5
10
2286
20
-1444.5
0
LWPOLYLINE
8
REFERENCE_STROKES
90
4
70
0
10
2121.5
20
-35
10
2117
20
-31.5
10
2112.5
20
-33
10
2113
20
-35.5
0
LWPOLYLINE
8
REFERENCE_STROKES
90
123
70
0
10
2154
20
-1215.5
10
2153.5
20
-996
10
2156
20
-993.5
10
2177.5
20
-993
10
2177.5
20
-958
10
2179
20
-956.5
10
2283
20
-957.5
10
2285.5
20
-960
10
2284.5
20
-993
10
2286
20
-994.5
10
2328
20
-994.5
10
2329.5
20
-974
10
2329.5
20
-919
10
2328
20
-917.5
10
2285
20
-917.5
10
2284
20
-953.5
10
2244
20
-954.5
10
2193
20
-953.5
10
2191.5
20
-952
10
2192.5
20
-918
10
2191
20
-916.5
10
1326
20
-906.5
10
1322.5
20
-903
10
1324.5
20
-736
10
1323
20
-734.5
10
1249
20
-734.5
10
1245.5
20
-731
10
1246.5
20
-723
10
1256.5
20
-720
10
1256.5
20
-691
10
1246.5
20
-688
10
1252.5
20
-118
10
1254
20
-116.5
10
1277.5
20
-117
10
1274.5
20
-107
10
1266
20
-100.5
10
1259
20
-99.5
10
1258.5
20
-97
10
1271
20
-92.5
10
1278.5
20
-81
10
1277
20
-78.5
10
1255
20
-78.5
10
1253.5
20
-77
10
1253
20
-37.5
10
1113
20
-36.5
10
1112.5
20
-51
10
1110
20
-52.5
10
1098
20
-49.5
10
1090
20
-39.5
10
1081
20
-49.5
10
1069
20
-52.5
10
1066.5
20
-50
10
1066.5
20
-37
10
1065
20
-35.5
10
1057.5
20
-37
10
1053.5
20
-649
10
1051.5
20
-708
10
1050.5
20
-901
10
1049
20
-903.5
10
555
20
-902.5
10
186
20
-898.5
10
185.5
20
-933
10
183
20
-935.5
10
88
20
-934.5
10
86.5
20
-933
10
86.5
20
-899
10
85
20
-897.5
10
39.5
20
-898
10
39.5
20
-974
10
41
20
-975.5
10
85
20
-975.5
10
85.5
20
-939
10
87
20
-937.5
10
198
20
-938.5
10
199.5
20
-940
10
199.5
20
-976
10
201
20
-977.5
10
207
20
-976.5
10
211.5
20
-982
10
208.5
20
-1104
10
208.5
20
-1197
10
210
20
-1198.5
10
842
20
-1202.5
10
843.5
20
-1201
10
847.5
20
-964
10
850
20
-961.5
10
1048
20
-962.5
10
1051.5
20
-965
10
1048.5
20
-1159
10
1050
20
-1160.5
10
1112
20
-1160.5
10
1113.5
20
-1166
10
1111.5
20
-1298
10
1110
20
-1299.5
10
1047
20
-1298.5
10
1045.5
20
-1301
10
1045.5
20
-1323
10
1047
20
-1324.5
10
1138
20
-1324.5
10
1138.5
20
-1321
10
1132.5
20
-1305
10
1132.5
20
-1300
10
1136.5
20
-1298
10
1138
20
-1289.5
10
1145
20
-1289.5
10
1145.5
20
-1298
10
1149.5
20
-1301
10
1143.5
20
-1319
10
1144
20
-1324.5
10
1242
20
-1325.5
10
1243.5
20
-1324
10
1243
20
-1301.5
10
1181
20
-1300.5
10
1179.5
20
-1299
10
1180.5
20
-1164
10
1182
20
-1161.5
10
1244.5
20
-1161
10
1245.5
20
-967
10
1248
20
-964.5
10
1447
20
-966.5
10
1449.5
20
-968
10
1449
20
-1206.5
10
1886
20
-1213.5
0
LWPOLYLINE
8
REFERENCE_STROKES
90
30
70
1
10
1444.5
20
-145
10
1445.5
20
-41
10
1444
20
-39.5
10
1431.5
20
-40
10
1431.5
20
-83
10
1430
20
-88.5
10
1318
20
-87.5
10
1315.5
20
-85
10
1316
20
-38.5
10
1266.5
20
-38
10
1265.5
20
-74
10
1267
20
-75.5
10
1281
20
-75.5
10
1282.5
20
-81
10
1278.5
20
-90
10
1269.5
20
-97
10
1278.5
20
-106
10
1281.5
20
-112
10
1281.5
20
-120
10
1280
20
-121.5
10
1265.5
20
-122
10
1266
20
-144.5
10
1301
20
-144.5
10
1301.5
20
-97
10
1303
20
-95.5
10
1416
20
-97.5
10
1417.5
20
-100
10
1416.5
20
-145
10
1418
20
-146.5
10
1443
20
-146.5
0
LWPOLYLINE
8
REFERENCE_STROKES
90
5
70
0
10
1329
20
-83.5
10
1330.5
20
-82
10
1330.5
20
-40
10
1321
20
-38.5
10
1319.5
20
-82
0
LWPOLYLINE
8
REFERENCE_STROKES
90
5
70
0
10
1343
20
-84.5
10
1344.5
20
-40
10
1336
20
-38.5
10
1333.5
20
-41
10
1333.5
20
-83
0
LWPOLYLINE
8
REFERENCE_STROKES
90
5
70
0
10
1357
20
-84.5
10
1358.5
20
-83
10
1358.5
20
-40
10
1348
20
-39.5
10
1347.5
20
-83
0
LWPOLYLINE
8
REFERENCE_STROKES
90
5
70
0
10
1371
20
-84.5
10
1372.5
20
-41
10
1363
20
-39.5
10
1361.5
20
-41
10
1361.5
20
-84
0
LWPOLYLINE
8
REFERENCE_STROKES
90
5
70
0
10
1385
20
-84.5
10
1386.5
20
-41
10
1377
20
-39.5
10
1375.5
20
-41
10
1375.5
20
-84
0
LWPOLYLINE
8
REFERENCE_STROKES
90
5
70
0
10
1399
20
-84.5
10
1400.5
20
-41
10
1391
20
-39.5
10
1389.5
20
-41
10
1389.5
20
-84
0
LWPOLYLINE
8
REFERENCE_STROKES
90
6
70
0
10
1412
20
-85.5
10
1413.5
20
-84
10
1414.5
20
-41
10
1405
20
-39.5
10
1403.5
20
-41
10
1403.5
20
-84
0
LWPOLYLINE
8
REFERENCE_STROKES
90
6
70
0
10
1426
20
-85.5
10
1427.5
20
-84
10
1427.5
20
-41
10
1419
20
-39.5
10
1417.5
20
-41
10
1417.5
20
-85
0
LWPOLYLINE
8
REFERENCE_STROKES
90
44
70
0
10
2158.5
20
-115
10
2162
20
-119.5
10
2162.5
20
-111
10
2166
20
-104.5
10
2168.5
20
-105
10
2168
20
-108.5
10
2171
20
-105.5
10
2178
20
-108.5
10
2183.5
20
-108
10
2186.5
20
-95
10
2193.5
20
-82
10
2197.5
20
-79
10
2197
20
-75.5
10
2193
20
-76.5
10
2192.5
20
-75
10
2199
20
-64.5
10
2202.5
20
-81
10
2198.5
20
-84
10
2194.5
20
-102
10
2198
20
-108.5
10
2205.5
20
-96
10
2214
20
-87.5
10
2229
20
-76.5
10
2247
20
-68.5
10
2258
20
-66.5
10
2284
20
-66.5
10
2290
20
-68.5
10
2305
20
-68.5
10
2305.5
20
-67
10
2294
20
-60.5
10
2284
20
-57.5
10
2253
20
-55.5
10
2233
20
-60.5
10
2211
20
-70.5
10
2209.5
20
-58
10
2213.5
20
-44
10
2210
20
-43.5
10
2193.5
20
-57
10
2181
20
-77.5
10
2177.5
20
-73
10
2176.5
20
-61
10
2174
20
-60.5
10
2164.5
20
-74
10
2158.5
20
-93
0
LWPOLYLINE
8
REFERENCE_STROKES
90
21
70
0
10
2011.5
20
-98
10
2015
20
-98.5
10
2025
20
-94.5
10
2026
20
-90.5
10
2043
20
-91.5
10
2041.5
20
-88
10
2052
20
-80.5
10
2067
20
-82.5
10
2067
20
-80.5
10
2062.5
20
-79
10
2065
20
-76.5
10
2083
20
-69.5
10
2087.5
20
-66
10
2057
20
-77.5
10
2038
20
-75.5
10
2038
20
-77.5
10
2047.5
20
-80
10
2033
20
-87.5
10
2014
20
-86.5
10
2014
20
-88.5
10
2024.5
20
-90
0
LWPOLYLINE
8
REFERENCE_STROKES
90
6
70
0
10
2261
20
-86.5
10
2263
20
-86.5
10
2268.5
20
-80
10
2271
20
-71.5
10
2263
20
-71.5
10
2259.5
20
-74
0
LWPOLYLINE
8
REFERENCE_STROKES
90
5
70
1
10
2285
20
-87.5
10
2295.5
20
-77
10
2295
20
-74.5
10
2284.5
20
-73
10
2283.5
20
-86
0
LWPOLYLINE
8
REFERENCE_STROKES
90
6
70
0
10
2238
20
-89.5
10
2240
20
-89.5
10
2243.5
20
-84
10
2245
20
-77.5
10
2241
20
-77.5
10
2234.5
20
-82
0
LWPOLYLINE
8
REFERENCE_STROKES
90
14
70
0
10
2044.5
20
-101
10
2049
20
-101.5
10
2058
20
-95.5
10
2066
20
-95.5
10
2069
20
-91.5
10
2080
20
-85.5
10
2085
20
-85.5
10
2092.5
20
-79
10
2081
20
-83.5
10
2074
20
-83.5
10
2071
20
-87.5
10
2061
20
-92.5
10
2054
20
-92.5
10
2052
20
-96.5
0
LWPOLYLINE
8
REFERENCE_STROKES
90
6
70
1
10
2269
20
-91.5
10
2273
20
-92.5
10
2276.5
20
-90
10
2277
20
-80.5
10
2275
20
-80.5
10
2268.5
20
-89
0
LWPOLYLINE
8
REFERENCE_STROKES
90
5
70
1
10
2308
20
-92.5
10
2315.5
20
-85
10
2309
20
-80.5
10
2306
20
-80.5
10
2304.5
20
-92
0
LWPOLYLINE
8
REFERENCE_STROKES
90
6
70
1
10
2247
20
-94.5
10
2253
20
-93.5
10
2255.5
20
-91
10
2255.5
20
-86
10
2253
20
-81.5
10
2246.5
20
-91
0
LWPOLYLINE
8
REFERENCE_STROKES
90
7
70
0
10
2177
20
-100.5
10
2173
20
-97.5
10
2170
20
-100.5
10
2166.5
20
-99
10
2167.5
20
-90
10
2172
20
-85.5
10
2178.5
20
-96
0
LWPOLYLINE
8
REFERENCE_STROKES
90
5
70
0
10
2290.5
20
-93
10
2297
20
-94.5
10
2299.5
20
-91
10
2299.5
20
-86
10
2297
20
-85.5
0
LWPOLYLINE
8
REFERENCE_STROKES
90
6
70
0
10
2218
20
-96.5
10
2221
20
-97.5
10
2223.5
20
-95
10
2226
20
-87.5
10
2223
20
-87.5
10
2218.5
20
-91
0
LWPOLYLINE
8
REFERENCE_STROKES
90
4
70
0
10
2228
20
-99.5
10
2233.5
20
-98
10
2232
20
-92.5
10
2229.5
20
-93
0
LWPOLYLINE
8
REFERENCE_STROKES
90
4
70
0
10
2324
20
-100.5
10
2330.5
20
-97
10
2327
20
-92.5
10
2323.5
20
-94
0
LWPOLYLINE
8
REFERENCE_STROKES
90
4
70
1
10
2314
20
-99.5
10
2317.5
20
-98
10
2317
20
-94.5
10
2312.5
20
-97
0
LWPOLYLINE
8
REFERENCE_STROKES
90
3
70
1
10
2079.5
20
-101
10
2088.5
20
-97
10
2081
20
-97.5
0
LWPOLYLINE
8
REFERENCE_STROKES
90
5
70
0
10
1315
20
-144.5
10
1315.5
20
-100
10
1306
20
-99.5
10
1304.5
20
-143
10
1306
20
-144.5
0
LWPOLYLINE
8
REFERENCE_STROKES
90
5
70
0
10
1325
20
-145.5
10
1329.5
20
-144
10
1329.5
20
-100
10
1320
20
-99.5
10
1319.5
20
-144
0
LWPOLYLINE
8
REFERENCE_STROKES
90
6
70
0
10
1342
20
-145.5
10
1343.5
20
-144
10
1343.5
20
-100
10
1334
20
-99.5
10
1332.5
20
-143
10
1335
20
-145.5
0
LWPOLYLINE
8
REFERENCE_STROKES
90
6
70
0
10
1356
20
-145.5
10
1357.5
20
-144
10
1357.5
20
-100
10
1348
20
-99.5
10
1346.5
20
-101
10
1346.5
20
-144
0
LWPOLYLINE
8
REFERENCE_STROKES
90
6
70
0
10
1370
20
-145.5
10
1371.5
20
-144
10
1371.5
20
-101
10
1363
20
-99.5
10
1361.5
20
-101
10
1360.5
20
-144
0
LWPOLYLINE
8
REFERENCE_STROKES
90
5
70
0
10
1384
20
-145.5
10
1385.5
20
-101
10
1377
20
-99.5
10
1375.5
20
-101
10
1374.5
20
-145
0
LWPOLYLINE
8
REFERENCE_STROKES
90
6
70
0
10
1398
20
-145.5
10
1399.5
20
-144
10
1399.5
20
-101
10
1390
20
-100.5
10
1388.5
20
-102
10
1388.5
20
-145
0
LWPOLYLINE
8
REFERENCE_STROKES
90
6
70
0
10
1411
20
-146.5
10
1412.5
20
-145
10
1413.5
20
-102
10
1404
20
-100.5
10
1402.5
20
-102
10
1402.5
20
-145
0
LWPOLYLINE
8
REFERENCE_STROKES
90
4
70
1
10
2073.5
20
-105
10
2077
20
-104.5
10
2078.5
20
-102
10
2075
20
-102.5
0
LWPOLYLINE
8
REFERENCE_STROKES
90
5
70
1
10
2223.5
20
-109
10
2229
20
-109.5
10
2244.5
20
-102
10
2238
20
-102.5
10
2226
20
-106.5
0
LWPOLYLINE
8
REFERENCE_STROKES
90
4
70
0
10
2339.5
20
-108
10
2335
20
-101.5
10
2331.5
20
-104
10
2333
20
-106.5
0
LWPOLYLINE
8
REFERENCE_STROKES
90
7
70
0
10
2375
20
-122.5
10
2375
20
-120.5
10
2352.5
20
-106
10
2356
20
-112.5
10
2360.5
20
-113
10
2359.5
20
-116
10
2362
20
-119.5
0
LWPOLYLINE
8
REFERENCE_STROKES
90
10
70
0
10
496.5
20
-314
10
387
20
-314.5
10
4
20
-310.5
10
3.5
20
-193
10
5.5
20
-121
10
7
20
-118.5
10
113
20
-118.5
10
259
20
-121.5
10
497
20
-122.5
10
499.5
20
-124
0
LWPOLYLINE
8
REFERENCE_STROKES
90
5
70
0
10
2360
20
-135.5
10
2366.5
20
-132
10
2366.5
20
-130
10
2362
20
-126.5
10
2359.5
20
-128
0
LWPOLYLINE
8
REFERENCE_STROKES
90
7
70
1
10
487.5
20
-304
10
489
20
-132.5
10
16
20
-127.5
10
14.5
20
-130
10
12.5
20
-300
10
14
20
-301.5
10
486
20
-305.5
0
LWPOLYLINE
8
REFERENCE_STROKES
90
6
70
0
10
1471.5
20
-328
10
1260
20
-326.5
10
1261.5
20
-155
10
1263
20
-153.5
10
1474
20
-156.5
10
1473.5
20
-289
0
LWPOLYLINE
8
REFERENCE_STROKES
90
6
70
0
10
1468.5
20
-325
10
1470
20
-159.5
10
1266
20
-157.5
10
1264.5
20
-159
10
1262.5
20
-322
10
1264
20
-323.5
0
LWPOLYLINE
8
REFERENCE_STROKES
90
21
70
0
10
2072
20
-200.5
10
2062
20
-200.5
10
2055.5
20
-197
10
2055.5
20
-170
10
2061
20
-163.5
10
2071
20
-163.5
10
2078.5
20
-169
10
2078.5
20
-173
10
2076
20
-175.5
10
2072.5
20
-174
10
2071
20
-169.5
10
2061.5
20
-170
10
2062.5
20
-193
10
2065
20
-195.5
10
2071.5
20
-195
10
2072.5
20
-188
10
2069.5
20
-186
10
2070
20
-182.5
10
2076
20
-181.5
10
2078.5
20
-183
10
2078.5
20
-196
0
LWPOLYLINE
8
REFERENCE_STROKES
90
25
70
0
10
2029
20
-308.5
10
1982
20
-308.5
10
1960.5
20
-292
10
1960.5
20
-182
10
1979
20
-164.5
10
2029
20
-164.5
10
2050.5
20
-182
10
2050.5
20
-206
10
2047
20
-209.5
10
2024
20
-208.5
10
2022.5
20
-207
10
2022
20
-188.5
10
1980.5
20
-189
10
1983
20
-192.5
10
1990.5
20
-196
10
1991
20
-284.5
10
2021
20
-284.5
10
2022.5
20
-283
10
2022.5
20
-259
10
2013.5
20
-256
10
2013.5
20
-235
10
2015
20
-233.5
10
2049.5
20
-234
10
2049.5
20
-291
10
2044
20
-297.5
0
LWPOLYLINE
8
REFERENCE_STROKES
90
14
70
0
10
2108
20
-200.5
10
2102.5
20
-199
10
2099.5
20
-188
10
2097
20
-185.5
10
2093.5
20
-187
10
2093.5
20
-199
10
2092
20
-200.5
10
2086.5
20
-200
10
2086
20
-164.5
10
2103
20
-164.5
10
2107.5
20
-169
10
2107.5
20
-181
10
2104.5
20
-188
10
2108.5
20
-196
0
LWPOLYLINE
8
REFERENCE_STROKES
90
16
70
1
10
2135
20
-201.5
10
2118
20
-201.5
10
2115.5
20
-199
10
2115.5
20
-167
10
2117
20
-165.5
10
2137.5
20
-166
10
2134
20
-171.5
10
2122.5
20
-173
10
2124
20
-179.5
10
2133.5
20
-181
10
2132
20
-185.5
10
2125
20
-185.5
10
2122.5
20
-188
10
2122.5
20
-194
10
2135
20
-196.5
10
2136.5
20
-199
0
LWPOLYLINE
8
REFERENCE_STROKES
90
18
70
0
10
2163
20
-201.5
10
2145
20
-201.5
10
2143.5
20
-200
10
2142.5
20
-168
10
2145
20
-165.5
10
2163
20
-165.5
10
2164.5
20
-167
10
2160
20
-172.5
10
2154
20
-171.5
10
2149.5
20
-174
10
2151
20
-179.5
10
2158
20
-179.5
10
2161.5
20
-183
10
2160
20
-185.5
10
2151
20
-186.5
10
2149.5
20
-193
10
2153
20
-196.5
10
2162
20
-196.5
0
LWPOLYLINE
8
REFERENCE_STROKES
90
16
70
1
10
2197
20
-202.5
10
2189.5
20
-201
10
2182
20
-182.5
10
2179.5
20
-185
10
2179.5
20
-201
10
2173.5
20
-201
10
2172.5
20
-168
10
2174
20
-166.5
10
2183.5
20
-168
10
2189
20
-184.5
10
2191.5
20
-184
10
2192.5
20
-177
10
2190.5
20
-168
10
2192
20
-166.5
10
2198.5
20
-167
10
2198.5
20
-201
0
LWPOLYLINE
8
REFERENCE_STROKES
90
9
70
0
10
2238
20
-202.5
10
2223
20
-203.5
10
2221.5
20
-202
10
2221.5
20
-168
10
2223
20
-166.5
10
2228.5
20
-168
10
2228.5
20
-196
10
2230
20
-197.5
10
2239
20
-197.5
0
LWPOLYLINE
8
REFERENCE_STROKES
90
18
70
1
10
2266
20
-204.5
10
2244.5
20
-203
10
2244.5
20
-169
10
2246
20
-167.5
10
2264
20
-166.5
10
2266.5
20
-168
10
2261
20
-174.5
10
2253
20
-173.5
10
2251.5
20
-175
10
2253
20
-181.5
10
2262
20
-181.5
10
2263.5
20
-184
10
2261
20
-188.5
10
2253
20
-187.5
10
2251.5
20
-196
10
2253
20
-197.5
10
2263
20
-197.5
10
2266.5
20
-202
0
LWPOLYLINE
8
REFERENCE_STROKES
90
27
70
0
10
88.5
20
-188
10
86
20
-190.5
10
83.5
20
-188
10
83.5
20
-181
10
82
20
-180.5
10
78.5
20
-184
10
79.5
20
-188
10
78
20
-189.5
10
68
20
-189.5
10
66.5
20
-187
10
67.5
20
-174
10
66
20
-173.5
10
61
20
-180.5
10
54.5
20
-184
10
54.5
20
-188
10
52
20
-190.5
10
49.5
20
-188
10
49.5
20
-169
10
51
20
-167.5
10
60
20
-167.5
10
66
20
-170.5
10
69
20
-167.5
10
77
20
-168.5
10
84
20
-177.5
10
84.5
20
-170
10
87
20
-167.5
10
89.5
20
-170
0
LWPOLYLINE
8
REFERENCE_STROKES
90
12
70
0
10
2289
20
-203.5
10
2282
20
-203.5
10
2280.5
20
-201
10
2275
20
-167.5
10
2280
20
-167.5
10
2282.5
20
-170
10
2285
20
-188.5
10
2287
20
-188.5
10
2290.5
20
-169
10
2292
20
-167.5
10
2297.5
20
-168
10
2293.5
20
-193
0
LWPOLYLINE
8
REFERENCE_STROKES
90
17
70
0
10
2323
20
-204.5
10
2305
20
-203.5
10
2303.5
20
-202
10
2303.5
20
-169
10
2305
20
-167.5
10
2322
20
-167.5
10
2324.5
20
-169
10
2322
20
-174.5
10
2311
20
-174.5
10
2309.5
20
-176
10
2312
20
-182.5
10
2320.5
20
-183
10
2318
20
-188.5
10
2313
20
-187.5
10
2310.5
20
-189
10
2310.5
20
-198
10
2322
20
-198.5
0
LWPOLYLINE
8
REFERENCE_STROKES
90
25
70
0
10
129.5
20
-189
10
125
20
-190.5
10
121
20
-185.5
10
119
20
-185.5
10
117
20
-190.5
10
113
20
-188.5
10
109
20
-190.5
10
106
20
-185.5
10
104.5
20
-189
10
101
20
-190.5
10
97
20
-184.5
10
93
20
-190.5
10
90.5
20
-188
10
94.5
20
-170
10
99
20
-168.5
10
100.5
20
-174
10
103
20
-174.5
10
103.5
20
-171
10
108
20
-168.5
10
111.5
20
-185
10
113
20
-185.5
10
118.5
20
-171
10
121
20
-168.5
10
125
20
-168.5
10
129.5
20
-177
0
LWPOLYLINE
8
REFERENCE_STROKES
90
26
70
0
10
164.5
20
-186
10
161
20
-190.5
10
156
20
-191.5
10
154.5
20
-188
10
159.5
20
-184
10
152
20
-182.5
10
148
20
-177.5
10
147.5
20
-181
10
143.5
20
-185
10
144.5
20
-189
10
142
20
-191.5
10
139
20
-189.5
10
134
20
-190.5
10
132.5
20
-189
10
132.5
20
-174
10
130.5
20
-172
10
133
20
-168.5
10
140
20
-168.5
10
148
20
-174.5
10
148.5
20
-170
10
151
20
-168.5
10
153.5
20
-171
10
153.5
20
-176
10
157
20
-178.5
10
163
20
-169.5
10
165.5
20
-172
0
LWPOLYLINE
8
REFERENCE_STROKES
90
18
70
0
10
212.5
20
-182
10
210.5
20
-186
10
202
20
-192.5
10
195.5
20
-188
10
194
20
-181.5
10
188.5
20
-186
10
189
20
-191.5
10
184
20
-189.5
10
180
20
-191.5
10
178.5
20
-190
10
178.5
20
-175
10
176.5
20
-172
10
182
20
-168.5
10
188
20
-170.5
10
195
20
-176.5
10
200
20
-169.5
10
206
20
-169.5
10
211.5
20
-174
0
LWPOLYLINE
8
REFERENCE_STROKES
90
8
70
0
10
2349
20
-204.5
10
2335
20
-204.5
10
2333.5
20
-203
10
2333
20
-168.5
10
2339.5
20
-169
10
2339.5
20
-198
10
2349
20
-198.5
10
2350.5
20
-200
0
LWPOLYLINE
8
REFERENCE_STROKES
90
13
70
0
10
223
20
-192.5
10
218
20
-191.5
10
214.5
20
-188
10
214.5
20
-171
10
216
20
-169.5
10
218.5
20
-171
10
220
20
-186.5
10
223
20
-186.5
10
224.5
20
-184
10
224.5
20
-171
10
228
20
-169.5
10
229.5
20
-172
10
228.5
20
-187
0
LWPOLYLINE
8
REFERENCE_STROKES
90
9
70
1
10
237
20
-192.5
10
235.5
20
-190
10
235.5
20
-176
10
231.5
20
-174
10
231.5
20
-171
10
245
20
-169.5
10
247.5
20
-173
10
241.5
20
-175
10
240.5
20
-191
0
LWPOLYLINE
8
REFERENCE_STROKES
90
13
70
0
10
251
20
-192.5
10
247.5
20
-188
10
250.5
20
-173
10
253
20
-170.5
10
261
20
-169.5
10
263.5
20
-173
10
257.5
20
-175
10
260.5
20
-180
10
255
20
-182.5
10
253.5
20
-186
10
260
20
-185.5
10
261.5
20
-189
10
258
20
-191.5
0
LWPOLYLINE
8
REFERENCE_STROKES
90
4
70
0
10
2375
20
-254.5
10
2357.5
20
-239
10
2357.5
20
-186
10
2375
20
-170.5
0
LWPOLYLINE
8
REFERENCE_STROKES
90
5
70
0
10
2099
20
-179.5
10
2100.5
20
-172
10
2094
20
-171.5
10
2092.5
20
-173
10
2093.5
20
-178
0
LWPOLYLINE
8
REFERENCE_STROKES
90
13
70
1
10
431.5
20
-182
10
431.5
20
-178
10
434
20
-175.5
10
440
20
-175.5
10
441
20
-172.5
10
446
20
-172.5
10
468.5
20
-180
10
466
20
-182.5
10
461
20
-182.5
10
445
20
-188.5
10
442
20
-188.5
10
438
20
-184.5
10
433
20
-184.5
0
LWPOLYLINE
8
REFERENCE_STROKES
90
4
70
1
10
75
20
-180.5
10
77.5
20
-177
10
74
20
-173.5
10
73.5
20
-180
0
LWPOLYLINE
8
REFERENCE_STROKES
90
4
70
1
10
140
20
-181.5
10
142.5
20
-178
10
139
20
-174.5
10
137.5
20
-179
0
LWPOLYLINE
8
REFERENCE_STROKES
90
6
70
0
10
204
20
-186.5
10
206.5
20
-183
10
206.5
20
-176
10
202
20
-174.5
10
199.5
20
-179
10
199.5
20
-185
0
LWPOLYLINE
8
REFERENCE_STROKES
90
6
70
0
10
323.5
20
-183
10
320
20
-184.5
10
309
20
-183.5
10
308.5
20
-176
10
310
20
-174.5
10
322
20
-175.5
0
LWPOLYLINE
8
REFERENCE_STROKES
90
7
70
0
10
355.5
20
-183
10
354
20
-184.5
10
337
20
-184.5
10
334.5
20
-182
10
334.5
20
-176
10
336
20
-174.5
10
354
20
-175.5
0
LWPOLYLINE
8
REFERENCE_STROKES
90
4
70
1
10
186
20
-181.5
10
187.5
20
-177
10
185
20
-175.5
10
183.5
20
-179
0
LWPOLYLINE
8
REFERENCE_STROKES
90
4
70
0
10
387.5
20
-184
10
369
20
-184.5
10
367.5
20
-176
10
386
20
-175.5
0
LWPOLYLINE
8
REFERENCE_STROKES
90
7
70
0
10
420.5
20
-182
10
419
20
-184.5
10
401
20
-184.5
10
399.5
20
-177
10
401
20
-175.5
10
417
20
-175.5
10
420.5
20
-178
0
LWPOLYLINE
8
REFERENCE_STROKES
90
17
70
0
10
2131
20
-309.5
10
2108
20
-309.5
10
2105.5
20
-305
10
2103.5
20
-290
10
2100
20
-288.5
10
2088
20
-288.5
10
2085.5
20
-291
10
2084.5
20
-303
10
2081
20
-309.5
10
2060
20
-309.5
10
2058.5
20
-308
10
2076.5
20
-219
10
2076.5
20
-212
10
2070
20
-209.5
10
2070
20
-206.5
10
2112.5
20
-208
10
2131.5
20
-302
0
LWPOLYLINE
8
REFERENCE_STROKES
90
18
70
1
10
2180
20
-310.5
10
2148.5
20
-310
10
2153.5
20
-300
10
2154.5
20
-232
10
2152
20
-229.5
10
2146
20
-229.5
10
2137
20
-237.5
10
2133.5
20
-238
10
2133.5
20
-210
10
2136
20
-207.5
10
2196
20
-208.5
10
2197.5
20
-210
10
2197.5
20
-237
10
2194
20
-238.5
10
2187
20
-230.5
10
2177.5
20
-232
10
2176.5
20
-299
10
2181.5
20
-308
0
LWPOLYLINE
8
REFERENCE_STROKES
90
8
70
0
10
2260
20
-311.5
10
2225
20
-311.5
10
2211.5
20
-298
10
2212.5
20
-221
10
2223
20
-209.5
10
2260
20
-209.5
10
2271.5
20
-221
10
2271.5
20
-299
0
LWPOLYLINE
8
REFERENCE_STROKES
90
18
70
1
10
2355
20
-312.5
10
2332
20
-312.5
10
2329.5
20
-310
10
2316
20
-270.5
10
2306.5
20
-272
10
2306.5
20
-310
10
2305
20
-311.5
10
2284.5
20
-311
10
2284.5
20
-217
10
2277.5
20
-212
10
2278
20
-209.5
10
2334
20
-210.5
10
2345.5
20
-223
10
2345.5
20
-257
10
2336.5
20
-267
10
2336.5
20
-270
10
2350.5
20
-306
10
2356.5
20
-311
0
LWPOLYLINE
8
REFERENCE_STROKES
90
21
70
0
10
1342
20
-249.5
10
1334
20
-249.5
10
1328.5
20
-243
10
1331
20
-240.5
10
1337
20
-245.5
10
1341.5
20
-244
10
1341.5
20
-240
10
1334.5
20
-236
10
1336
20
-233.5
10
1339
20
-233.5
10
1341.5
20
-229
10
1336
20
-227.5
10
1332
20
-231.5
10
1329.5
20
-230
10
1329.5
20
-227
10
1334
20
-222.5
10
1341
20
-222.5
10
1346.5
20
-228
10
1344.5
20
-236
10
1347.5
20
-242
10
1346.5
20
-246
0
LWPOLYLINE
8
REFERENCE_STROKES
90
10
70
1
10
1365
20
-249.5
10
1349.5
20
-249
10
1351
20
-244.5
10
1356.5
20
-243
10
1356.5
20
-230
10
1350.5
20
-230
10
1356
20
-222.5
10
1360.5
20
-224
10
1360.5
20
-244
10
1366.5
20
-247
0
LWPOLYLINE
8
REFERENCE_STROKES
90
9
70
0
10
1376
20
-250.5
10
1369.5
20
-246
10
1367.5
20
-237
10
1369.5
20
-227
10
1373
20
-223.5
10
1379
20
-222.5
10
1385.5
20
-228
10
1386.5
20
-240
10
1383.5
20
-248
0
LWPOLYLINE
8
REFERENCE_STROKES
90
12
70
1
10
1404
20
-250.5
10
1391
20
-250.5
10
1388.5
20
-249
10
1390
20
-245.5
10
1394.5
20
-245
10
1394.5
20
-231
10
1391
20
-231.5
10
1389.5
20
-228
10
1397
20
-222.5
10
1399.5
20
-224
10
1399.5
20
-244
10
1405.5
20
-247
0
LWPOLYLINE
8
REFERENCE_STROKES
90
8
70
1
10
1379
20
-245.5
10
1381.5
20
-241
10
1381.5
20
-231
10
1379
20
-227.5
10
1376
20
-227.5
10
1372.5
20
-232
10
1372.5
20
-241
10
1376
20
-245.5
0
LWPOLYLINE
8
REFERENCE_STROKES
90
9
70
0
10
2246
20
-292.5
10
2249.5
20
-288
10
2249.5
20
-231
10
2247
20
-228.5
10
2226
20
-229.5
10
2226
20
-231.5
10
2233
20
-234.5
10
2234.5
20
-237
10
2234.5
20
-291
0
LWPOLYLINE
8
REFERENCE_STROKES
90
8
70
1
10
2323.5
20
-249
10
2323.5
20
-232
10
2322
20
-230.5
10
2297.5
20
-231
10
2304
20
-234.5
10
2307.5
20
-239
10
2307
20
-250.5
10
2322
20
-250.5
0
LWPOLYLINE
8
REFERENCE_STROKES
90
10
70
1
10
44
20
-256.5
10
38
20
-250.5
10
35.5
20
-251
10
33
20
-256.5
10
30.5
20
-255
10
32.5
20
-242
10
38
20
-234.5
10
42
20
-234.5
10
45.5
20
-239
10
45.5
20
-255
0
LWPOLYLINE
8
REFERENCE_STROKES
90
9
70
0
10
55
20
-256.5
10
50
20
-256.5
10
47.5
20
-252
10
48.5
20
-236
10
50
20
-234.5
10
53.5
20
-235
10
52.5
20
-251
10
58
20
-248.5
10
61.5
20
-250
0
LWPOLYLINE
8
REFERENCE_STROKES
90
9
70
0
10
71
20
-256.5
10
66.5
20
-255
10
66.5
20
-240
10
61.5
20
-238
10
63
20
-234.5
10
76
20
-234.5
10
77.5
20
-236
10
77
20
-238.5
10
71.5
20
-241
0
LWPOLYLINE
8
REFERENCE_STROKES
90
12
70
0
10
83
20
-257.5
10
78.5
20
-254
10
83
20
-235.5
10
92
20
-234.5
10
94.5
20
-237
10
92
20
-239.5
10
86.5
20
-240
10
91.5
20
-244
10
86
20
-247.5
10
84.5
20
-251
10
92
20
-250.5
10
92.5
20
-253
0
LWPOLYLINE
8
REFERENCE_STROKES
90
26
70
0
10
130.5
20
-254
10
127
20
-257.5
10
120
20
-255.5
10
116
20
-257.5
10
113.5
20
-254
10
114.5
20
-246
10
113
20
-245.5
10
108.5
20
-251
10
109.5
20
-256
10
108
20
-257.5
10
104
20
-255.5
10
99
20
-257.5
10
96.5
20
-237
10
100
20
-234.5
10
107
20
-235.5
10
111.5
20
-239
10
112.5
20
-243
10
115
20
-243.5
10
117.5
20
-236
10
121
20
-235.5
10
122.5
20
-248
10
125
20
-251.5
10
126.5
20
-250
10
125.5
20
-237
10
129
20
-235.5
10
131.5
20
-242
0
LWPOLYLINE
8
REFERENCE_STROKES
90
10
70
1
10
134
20
-257.5
10
132.5
20
-252
10
134.5
20
-245
10
141
20
-235.5
10
145
20
-235.5
10
147.5
20
-239
10
148.5
20
-256
10
144
20
-257.5
10
139
20
-252.5
10
137.5
20
-256
0
LWPOLYLINE
8
REFERENCE_STROKES
90
9
70
0
10
159
20
-257.5
10
154.5
20
-256
10
155.5
20
-242
10
149.5
20
-238
10
152
20
-235.5
10
164
20
-235.5
10
165.5
20
-237
10
165
20
-239.5
10
160.5
20
-241
0
LWPOLYLINE
8
REFERENCE_STROKES
90
13
70
0
10
169
20
-257.5
10
166.5
20
-251
10
170.5
20
-237
10
181
20
-235.5
10
182
20
-239.5
10
174.5
20
-241
10
178
20
-242.5
10
179.5
20
-246
10
172.5
20
-250
10
173
20
-252.5
10
180
20
-251.5
10
180.5
20
-255
10
176
20
-257.5
0
LWPOLYLINE
8
REFERENCE_STROKES
90
39
70
0
10
263.5
20
-239
10
257.5
20
-242
10
257.5
20
-256
10
256
20
-258.5
10
252.5
20
-257
10
253.5
20
-243
10
248
20
-239.5
10
246.5
20
-240
10
244.5
20
-254
10
240
20
-258.5
10
234
20
-257.5
10
230.5
20
-253
10
230
20
-248.5
10
221
20
-258.5
10
215
20
-257.5
10
210
20
-249.5
10
205.5
20
-252
10
206
20
-257.5
10
199
20
-256.5
10
197
20
-258.5
10
194.5
20
-256
10
193.5
20
-238
10
197
20
-235.5
10
206
20
-237.5
10
210
20
-243.5
10
216
20
-236.5
10
221
20
-235.5
10
228.5
20
-241
10
229
20
-244.5
10
230.5
20
-244
10
231.5
20
-237
10
235
20
-236.5
10
235.5
20
-251
10
237
20
-252.5
10
240.5
20
-250
10
242
20
-236.5
10
247
20
-238.5
10
249
20
-236.5
10
260
20
-235.5
0
LWPOLYLINE
8
REFERENCE_STROKES
90
14
70
0
10
267
20
-258.5
10
264.5
20
-256
10
265.5
20
-242
10
269
20
-236.5
10
276
20
-235.5
10
279.5
20
-240
10
272.5
20
-242
10
276.5
20
-244
10
276.5
20
-247
10
272
20
-248.5
10
269.5
20
-252
10
276
20
-251.5
10
277.5
20
-255
10
274
20
-257.5
0
LWPOLYLINE
8
REFERENCE_STROKES
90
7
70
0
10
2100
20
-269.5
10
2101.5
20
-264
10
2096.5
20
-239
10
2094
20
-235.5
10
2091.5
20
-242
10
2088.5
20
-268
10
2090
20
-269.5
0
LWPOLYLINE
8
REFERENCE_STROKES
90
6
70
0
10
436.5
20
-249
10
440
20
-239.5
10
466.5
20
-248
10
465
20
-250.5
10
443
20
-257.5
10
439.5
20
-256
0
LWPOLYLINE
8
REFERENCE_STROKES
90
4
70
0
10
38
20
-246.5
10
40.5
20
-246
10
40
20
-240.5
10
37.5
20
-242
0
LWPOLYLINE
8
REFERENCE_STROKES
90
4
70
1
10
105
20
-247.5
10
107.5
20
-243
10
104
20
-240.5
10
103.5
20
-247
0
LWPOLYLINE
8
REFERENCE_STROKES
90
4
70
1
10
202
20
-248.5
10
204.5
20
-244
10
201
20
-241.5
10
200.5
20
-248
0
LWPOLYLINE
8
REFERENCE_STROKES
90
7
70
1
10
217
20
-252.5
10
221
20
-252.5
10
223.5
20
-248
10
222
20
-241.5
10
219
20
-241.5
10
216.5
20
-245
10
215.5
20
-250
0
LWPOLYLINE
8
REFERENCE_STROKES
90
7
70
0
10
313
20
-251.5
10
310
20
-252.5
10
307.5
20
-251
10
306.5
20
-244
10
308
20
-242.5
10
311
20
-242.5
10
315.5
20
-246
0
LWPOLYLINE
8
REFERENCE_STROKES
90
6
70
0
10
328
20
-251.5
10
322.5
20
-250
10
321.5
20
-246
10
324
20
-243.5
10
327
20
-243.5
10
330.5
20
-247
0
LWPOLYLINE
8
REFERENCE_STROKES
90
5
70
0
10
341
20
-252.5
10
336.5
20
-249
10
336.5
20
-245
10
342
20
-243.5
10
344.5
20
-247
0
LWPOLYLINE
8
REFERENCE_STROKES
90
6
70
1
10
356
20
-252.5
10
351.5
20
-250
10
353
20
-243.5
10
358
20
-244.5
10
359.5
20
-247
10
358.5
20
-251
0
LWPOLYLINE
8
REFERENCE_STROKES
90
5
70
0
10
370
20
-252.5
10
364.5
20
-248
10
367
20
-243.5
10
372
20
-244.5
10
373.5
20
-250
0
LWPOLYLINE
8
REFERENCE_STROKES
90
5
70
0
10
384
20
-252.5
10
379.5
20
-248
10
382
20
-243.5
10
387.5
20
-246
10
387.5
20
-250
0
LWPOLYLINE
8
REFERENCE_STROKES
90
5
70
0
10
429
20
-252.5
10
424
20
-251.5
10
422.5
20
-249
10
425
20
-243.5
10
430.5
20
-246
0
LWPOLYLINE
8
REFERENCE_STROKES
90
6
70
0
10
400
20
-252.5
10
397
20
-252.5
10
393.5
20
-249
10
395
20
-244.5
10
400
20
-244.5
10
402.5
20
-247
0
LWPOLYLINE
8
REFERENCE_STROKES
90
4
70
0
10
414
20
-252.5
10
408.5
20
-250
10
410
20
-244.5
10
416.5
20
-247
0
LWPOLYLINE
8
REFERENCE_STROKES
90
6
70
0
10
2375
20
-311.5
10
2363
20
-302.5
10
2356.5
20
-295
10
2357.5
20
-272
10
2360
20
-270.5
10
2375
20
-271.5
0
LWPOLYLINE
8
REFERENCE_STROKES
90
8
70
0
10
1469.5
20
-507
10
1258
20
-506.5
10
1256.5
20
-504
10
1259.5
20
-334
10
1261
20
-332.5
10
1356
20
-332.5
10
1471
20
-334.5
10
1472.5
20
-337
0
LWPOLYLINE
8
REFERENCE_STROKES
90
7
70
0
10
2375
20
-449.5
10
2162
20
-445.5
10
1959
20
-444.5
10
1958.5
20
-334
10
1960
20
-332.5
10
2037
20
-332.5
10
2374
20
-337.5
0
LWPOLYLINE
8
REFERENCE_STROKES
90
6
70
0
10
1466.5
20
-504
10
1468
20
-337.5
10
1272
20
-335.5
10
1262.5
20
-337
10
1260.5
20
-502
10
1262
20
-503.5
0
LWPOLYLINE
8
REFERENCE_STROKES
90
22
70
0
10
2009
20
-404.5
10
2023
20
-402.5
10
2027.5
20
-399
10
2028.5
20
-395
10
2026
20
-392.5
10
2015
20
-397.5
10
2011.5
20
-395
10
2014
20
-387.5
10
2022
20
-385.5
10
2025.5
20
-382
10
2025.5
20
-379
10
2023
20
-377.5
10
2015
20
-379.5
10
2015.5
20
-375
10
2017
20
-373.5
10
2028
20
-373.5
10
2030.5
20
-371
10
2029
20
-365.5
10
2016
20
-365.5
10
2009.5
20
-370
10
2004.5
20
-390
10
2004.5
20
-400
0
LWPOLYLINE
8
REFERENCE_STROKES
90
12
70
0
10
2044
20
-405.5
10
2048
20
-404.5
10
2050.5
20
-401
10
2053.5
20
-390
10
2063.5
20
-369
10
2060
20
-365.5
10
2054.5
20
-369
10
2047
20
-388.5
10
2045.5
20
-388
10
2042.5
20
-368
10
2036
20
-366.5
10
2033.5
20
-370
0
LWPOLYLINE
8
REFERENCE_STROKES
90
12
70
1
10
2062
20
-405.5
10
2066.5
20
-403
10
2069
20
-394.5
10
2073
20
-395.5
10
2081
20
-405.5
10
2086.5
20
-402
10
2085.5
20
-373
10
2079
20
-365.5
10
2072
20
-368.5
10
2064.5
20
-379
10
2059.5
20
-396
10
2059.5
20
-403
0
LWPOLYLINE
8
REFERENCE_STROKES
90
20
70
0
10
2098
20
-405.5
10
2107
20
-404.5
10
2114.5
20
-398
10
2112
20
-394.5
10
2109
20
-394.5
10
2102
20
-398.5
10
2097.5
20
-394
10
2099.5
20
-383
10
2104
20
-374.5
10
2105.5
20
-375
10
2105.5
20
-382
10
2108
20
-384.5
10
2110
20
-384.5
10
2113.5
20
-380
10
2112.5
20
-369
10
2109
20
-365.5
10
2100
20
-367.5
10
2095.5
20
-372
10
2091.5
20
-382
10
2090.5
20
-399
0
LWPOLYLINE
8
REFERENCE_STROKES
90
18
70
0
10
2133
20
-406.5
10
2138
20
-404.5
10
2144.5
20
-396
10
2146.5
20
-371
10
2143
20
-366.5
10
2139
20
-367.5
10
2137.5
20
-370
10
2136.5
20
-394
10
2133
20
-398.5
10
2131
20
-398.5
10
2127.5
20
-394
10
2125.5
20
-386
10
2127.5
20
-369
10
2123
20
-366.5
10
2118.5
20
-371
10
2117.5
20
-391
10
2119.5
20
-398
10
2124
20
-404.5
0
LWPOLYLINE
8
REFERENCE_STROKES
90
15
70
1
10
2151
20
-406.5
10
2155.5
20
-405
10
2158
20
-396.5
10
2162
20
-396.5
10
2169
20
-406.5
10
2173
20
-406.5
10
2175.5
20
-404
10
2175.5
20
-382
10
2173.5
20
-372
10
2170
20
-367.5
10
2164
20
-367.5
10
2159
20
-370.5
10
2154.5
20
-378
10
2148.5
20
-399
10
2148.5
20
-405
0
LWPOLYLINE
8
REFERENCE_STROKES
90
13
70
1
10
2190
20
-407.5
10
2194
20
-406.5
10
2196.5
20
-403
10
2196.5
20
-376
10
2204
20
-374.5
10
2206.5
20
-372
10
2205
20
-367.5
10
2185
20
-367.5
10
2177.5
20
-371
10
2177.5
20
-374
10
2180
20
-375.5
10
2188.5
20
-376
10
2188.5
20
-405
0
LWPOLYLINE
8
REFERENCE_STROKES
90
9
70
1
10
2211
20
-407.5
10
2214.5
20
-406
10
2217.5
20
-398
10
2217.5
20
-381
10
2219.5
20
-372
10
2216
20
-368.5
10
2213
20
-368.5
10
2209.5
20
-375
10
2208.5
20
-405
0
LWPOLYLINE
8
REFERENCE_STROKES
90
11
70
0
10
2238
20
-407.5
10
2248.5
20
-399
10
2252.5
20
-384
10
2251.5
20
-377
10
2246
20
-370.5
10
2233
20
-368.5
10
2229
20
-370.5
10
2222.5
20
-379
10
2221.5
20
-397
10
2227
20
-405.5
10
2231
20
-407.5
0
LWPOLYLINE
8
REFERENCE_STROKES
90
19
70
0
10
2275
20
-408.5
10
2283.5
20
-402
10
2287.5
20
-392
10
2283.5
20
-372
10
2281
20
-369.5
10
2277
20
-369.5
10
2274.5
20
-372
10
2277.5
20
-392
10
2275.5
20
-399
10
2273
20
-400.5
10
2269.5
20
-391
10
2268.5
20
-371
10
2264
20
-368.5
10
2258.5
20
-375
10
2254.5
20
-405
10
2256
20
-407.5
10
2261
20
-407.5
10
2264
20
-402.5
10
2267
20
-406.5
0
LWPOLYLINE
8
REFERENCE_STROKES
90
21
70
0
10
2341
20
-408.5
10
2342.5
20
-401
10
2338.5
20
-386
10
2337.5
20
-373
10
2334
20
-369.5
10
2329.5
20
-372
10
2324
20
-388.5
10
2321.5
20
-373
10
2319
20
-370.5
10
2314
20
-370.5
10
2307.5
20
-390
10
2305.5
20
-407
10
2310
20
-408.5
10
2313.5
20
-405
10
2316
20
-391.5
10
2319.5
20
-404
10
2323
20
-408.5
10
2328.5
20
-406
10
2331
20
-393.5
10
2334.5
20
-400
10
2335.5
20
-408
0
LWPOLYLINE
8
REFERENCE_STROKES
90
14
70
0
10
2347
20
-408.5
10
2351
20
-408.5
10
2353.5
20
-406
10
2355
20
-398.5
10
2360
20
-400.5
10
2367
20
-409.5
10
2371
20
-408.5
10
2372.5
20
-406
10
2373.5
20
-394
10
2371.5
20
-380
10
2365
20
-369.5
10
2359
20
-370.5
10
2350.5
20
-383
10
2345.5
20
-400
0
LWPOLYLINE
8
REFERENCE_STROKES
90
4
70
0
10
2078
20
-390.5
10
2068.5
20
-387
10
2075
20
-373.5
10
2078.5
20
-375
0
LWPOLYLINE
8
REFERENCE_STROKES
90
5
70
0
10
2167
20
-391.5
10
2158.5
20
-389
10
2158.5
20
-384
10
2165
20
-374.5
10
2167.5
20
-377
0
LWPOLYLINE
8
REFERENCE_STROKES
90
8
70
0
10
2237
20
-399.5
10
2233
20
-399.5
10
2229.5
20
-394
10
2230.5
20
-383
10
2234
20
-376.5
10
2240
20
-376.5
10
2243.5
20
-383
10
2241.5
20
-395
0
LWPOLYLINE
8
REFERENCE_STROKES
90
5
70
0
10
2363
20
-393.5
10
2354.5
20
-391
10
2361
20
-377.5
10
2363.5
20
-379
10
2364.5
20
-385
0
LWPOLYLINE
8
REFERENCE_STROKES
90
20
70
0
10
1339
20
-428.5
10
1332
20
-428.5
10
1326.5
20
-423
10
1329
20
-419.5
10
1334
20
-423.5
10
1339.5
20
-423
10
1339.5
20
-419
10
1332.5
20
-415
10
1339
20
-411.5
10
1339.5
20
-408
10
1334
20
-406.5
10
1330
20
-410.5
10
1327.5
20
-409
10
1328.5
20
-405
10
1334
20
-401.5
10
1341
20
-402.5
10
1344.5
20
-407
10
1342.5
20
-415
10
1345.5
20
-422
10
1344.5
20
-425
0
LWPOLYLINE
8
REFERENCE_STROKES
90
11
70
1
10
1363
20
-428.5
10
1347.5
20
-428
10
1349
20
-423.5
10
1354.5
20
-422
10
1354.5
20
-409
10
1348.5
20
-410
10
1349.5
20
-406
10
1354
20
-402.5
10
1358.5
20
-403
10
1358.5
20
-423
10
1364.5
20
-425
0
LWPOLYLINE
8
REFERENCE_STROKES
90
9
70
0
10
1379
20
-428.5
10
1370
20
-427.5
10
1366.5
20
-422
10
1366.5
20
-409
10
1371
20
-402.5
10
1379
20
-402.5
10
1383.5
20
-408
10
1384.5
20
-419
10
1382.5
20
-425
0
LWPOLYLINE
8
REFERENCE_STROKES
90
21
70
0
10
1396
20
-429.5
10
1390
20
-428.5
10
1385.5
20
-423
10
1387
20
-420.5
10
1394
20
-424.5
10
1398.5
20
-422
10
1397
20
-418.5
10
1391.5
20
-417
10
1391.5
20
-414
10
1396
20
-412.5
10
1397.5
20
-408
10
1393
20
-406.5
10
1389
20
-410.5
10
1386.5
20
-410
10
1386.5
20
-407
10
1391
20
-402.5
10
1398
20
-402.5
10
1402.5
20
-406
10
1401.5
20
-416
10
1403.5
20
-424
10
1401
20
-427.5
0
LWPOLYLINE
8
REFERENCE_STROKES
90
8
70
1
10
1376
20
-424.5
10
1379.5
20
-420
10
1379.5
20
-410
10
1377
20
-406.5
10
1374
20
-406.5
10
1370.5
20
-411
10
1370.5
20
-420
10
1374
20
-424.5
0
LWPOLYLINE
8
REFERENCE_STROKES
90
8
70
0
10
1468.5
20
-681
10
1467
20
-682.5
10
1256
20
-680.5
10
1254.5
20
-678
10
1256.5
20
-514
10
1259
20
-511.5
10
1469
20
-513.5
10
1470.5
20
-516
0
LWPOLYLINE
8
REFERENCE_STROKES
90
5
70
0
10
1464.5
20
-678
10
1466
20
-516.5
10
1262
20
-514.5
10
1259.5
20
-517
10
1259
20
-677.5
0
LWPOLYLINE
8
REFERENCE_STROKES
90
22
70
0
10
1338
20
-605.5
10
1330
20
-605.5
10
1324.5
20
-600
10
1326
20
-597.5
10
1329
20
-597.5
10
1334
20
-601.5
10
1337.5
20
-600
10
1337.5
20
-596
10
1331.5
20
-594
10
1331.5
20
-591
10
1336
20
-589.5
10
1337.5
20
-586
10
1333
20
-583.5
10
1329
20
-587.5
10
1325.5
20
-587
10
1325.5
20
-584
10
1332
20
-579.5
10
1337
20
-579.5
10
1342.5
20
-584
10
1340.5
20
-593
10
1343.5
20
-596
10
1343.5
20
-599
0
LWPOLYLINE
8
REFERENCE_STROKES
90
11
70
1
10
1361
20
-605.5
10
1345.5
20
-605
10
1347
20
-600.5
10
1352.5
20
-599
10
1352.5
20
-587
10
1347
20
-587.5
10
1346.5
20
-585
10
1353
20
-579.5
10
1356.5
20
-581
10
1356.5
20
-600
10
1362.5
20
-603
0
LWPOLYLINE
8
REFERENCE_STROKES
90
19
70
0
10
1387
20
-605.5
10
1383.5
20
-600
10
1387
20
-598.5
10
1390
20
-601.5
10
1394
20
-601.5
10
1396.5
20
-596
10
1394
20
-593.5
10
1384.5
20
-594
10
1384.5
20
-583
10
1386
20
-580.5
10
1398
20
-579.5
10
1400.5
20
-583
10
1399
20
-584.5
10
1390
20
-584.5
10
1388.5
20
-589
10
1398
20
-590.5
10
1401.5
20
-595
10
1401.5
20
-600
10
1397
20
-605.5
0
LWPOLYLINE
8
REFERENCE_STROKES
90
9
70
0
10
1373
20
-606.5
10
1369
20
-605.5
10
1364.5
20
-600
10
1364.5
20
-587
10
1369
20
-580.5
10
1377
20
-580.5
10
1380.5
20
-584
10
1382.5
20
-591
10
1380.5
20
-602
0
LWPOLYLINE
8
REFERENCE_STROKES
90
8
70
1
10
1374
20
-601.5
10
1377.5
20
-597
10
1377.5
20
-588
10
1375
20
-584.5
10
1371
20
-584.5
10
1368.5
20
-588
10
1368.5
20
-597
10
1372
20
-601.5
0
LWPOLYLINE
8
REFERENCE_STROKES
90
9
70
1
10
240
20
-889.5
10
97
20
-888.5
10
94.5
20
-886
10
97.5
20
-773
10
97.5
20
-677
10
100
20
-674.5
10
242
20
-675.5
10
244.5
20
-678
10
241.5
20
-888
0
LWPOLYLINE
8
REFERENCE_STROKES
90
8
70
1
10
394
20
-890.5
10
250
20
-890.5
10
246.5
20
-888
10
249.5
20
-677
10
251
20
-675.5
10
394
20
-676.5
10
397.5
20
-678
10
395.5
20
-887
0
LWPOLYLINE
8
REFERENCE_STROKES
90
9
70
0
10
547
20
-892.5
10
403
20
-891.5
10
400.5
20
-889
10
402.5
20
-693
10
405
20
-677.5
10
549
20
-678.5
10
551.5
20
-680
10
552.5
20
-707
10
549.5
20
-889
0
LWPOLYLINE
8
REFERENCE_STROKES
90
7
70
0
10
237
20
-886.5
10
238.5
20
-884
10
237.5
20
-835
10
240.5
20
-680
10
102
20
-678.5
10
98.5
20
-884
10
100
20
-885.5
0
LWPOLYLINE
8
REFERENCE_STROKES
90
7
70
1
10
704
20
-893.5
10
556
20
-892.5
10
554.5
20
-891
10
558
20
-679.5
10
705
20
-680.5
10
707.5
20
-683
10
705.5
20
-892
0
LWPOLYLINE
8
REFERENCE_STROKES
90
6
70
0
10
391
20
-887.5
10
394.5
20
-682
10
393
20
-680.5
10
254
20
-679.5
10
252.5
20
-681
10
250.5
20
-886
0
LWPOLYLINE
8
REFERENCE_STROKES
90
6
70
0
10
545
20
-888.5
10
548.5
20
-683
10
408
20
-680.5
10
406.5
20
-682
10
404.5
20
-785
10
404.5
20
-887
0
LWPOLYLINE
8
REFERENCE_STROKES
90
9
70
0
10
860
20
-893.5
10
759
20
-894.5
10
713
20
-893.5
10
711.5
20
-892
10
713.5
20
-682
10
715
20
-680.5
10
862
20
-682.5
10
864.5
20
-685
10
862.5
20
-890
0
LWPOLYLINE
8
REFERENCE_STROKES
90
7
70
0
10
701
20
-890.5
10
702.5
20
-889
10
704.5
20
-685
10
693
20
-683.5
10
562
20
-682.5
10
558.5
20
-888
10
560
20
-889.5
0
LWPOLYLINE
8
REFERENCE_STROKES
90
21
70
1
10
951
20
-894.5
10
869
20
-893.5
10
867.5
20
-892
10
869.5
20
-687
10
873
20
-682.5
10
953
20
-683.5
10
956.5
20
-688
10
956.5
20
-699
10
955
20
-700.5
10
952.5
20
-700
10
952.5
20
-688
10
950
20
-686.5
10
875
20
-686.5
10
873.5
20
-688
10
871.5
20
-890
10
949
20
-890.5
10
950.5
20
-889
10
949.5
20
-880
10
953
20
-878.5
10
954.5
20
-881
10
953.5
20
-892
0
LWPOLYLINE
8
REFERENCE_STROKES
90
20
70
1
10
1040
20
-894.5
10
961
20
-894.5
10
958.5
20
-892
10
958.5
20
-880
10
960
20
-878.5
10
962.5
20
-879
10
962.5
20
-890
10
964
20
-891.5
10
1037
20
-891.5
10
1038.5
20
-856
10
1039.5
20
-689
10
1037
20
-687.5
10
965
20
-687.5
10
964.5
20
-700
10
962
20
-700.5
10
960.5
20
-692
10
963
20
-683.5
10
1041
20
-684.5
10
1043.5
20
-687
10
1041.5
20
-892
0
LWPOLYLINE
8
REFERENCE_STROKES
90
7
70
0
10
857
20
-890.5
10
858.5
20
-889
10
860.5
20
-687
10
858
20
-685.5
10
718
20
-684.5
10
714.5
20
-889
10
716
20
-890.5
0
LWPOLYLINE
8
REFERENCE_STROKES
90
10
70
0
10
1424.5
20
-688
10
1423
20
-764.5
10
1336
20
-764.5
10
1333.5
20
-763
10
1332.5
20
-734
10
1335
20
-731.5
10
1377
20
-732.5
10
1385.5
20
-731
10
1386.5
20
-690
10
1388
20
-687.5
0
LWPOLYLINE
8
REFERENCE_STROKES
90
8
70
0
10
1597
20
-899.5
10
1432
20
-898.5
10
1427.5
20
-895
10
1429.5
20
-709
10
1432
20
-687.5
10
1586
20
-688.5
10
1598.5
20
-690
10
1599.5
20
-758
0
LWPOLYLINE
8
REFERENCE_STROKES
90
34
70
0
10
2111.5
20
-904
10
2110
20
-906.5
10
1898
20
-904.5
10
1893
20
-894.5
10
1889.5
20
-896
10
1889.5
20
-902
10
1887
20
-904.5
10
1830
20
-903.5
10
1827.5
20
-902
10
1825
20
-894.5
10
1821.5
20
-896
10
1821.5
20
-902
10
1819
20
-903.5
10
1606
20
-900.5
10
1602.5
20
-896
10
1604.5
20
-692
10
1606
20
-689.5
10
1821
20
-690.5
10
1823.5
20
-693
10
1823
20
-824.5
10
1827.5
20
-823
10
1828.5
20
-700
10
1829.5
20
-693
10
1833
20
-690.5
10
1890
20
-691.5
10
1891.5
20
-693
10
1889.5
20
-817
10
1891
20
-824.5
10
1895.5
20
-823
10
1898
20
-692.5
10
2112
20
-693.5
10
2113.5
20
-695
10
2113.5
20
-765
10
2111.5
20
-801
0
LWPOLYLINE
8
REFERENCE_STROKES
90
11
70
0
10
1421.5
20
-692
10
1420
20
-690.5
10
1391
20
-690.5
10
1389.5
20
-692
10
1389.5
20
-734
10
1387
20
-735.5
10
1337
20
-734.5
10
1336.5
20
-760
10
1338
20
-761.5
10
1419
20
-761.5
10
1420.5
20
-760
0
LWPOLYLINE
8
REFERENCE_STROKES
90
5
70
0
10
1594
20
-896.5
10
1595.5
20
-693
10
1435
20
-690.5
10
1433.5
20
-692
10
1431.5
20
-894
0
LWPOLYLINE
8
REFERENCE_STROKES
90
19
70
0
10
1841.5
20
-881
10
1842.5
20
-875
10
1841
20
-873.5
10
1819
20
-874.5
10
1817.5
20
-873
10
1818.5
20
-845
10
1843.5
20
-844
10
1842.5
20
-838
10
1835
20
-830.5
10
1825
20
-827.5
10
1821
20
-828.5
10
1817.5
20
-825
10
1819
20
-694.5
10
1610
20
-692.5
10
1608.5
20
-694
10
1607
20
-896.5
10
1817
20
-899.5
10
1819
20
-891.5
10
1832
20
-889.5
0
LWPOLYLINE
8
REFERENCE_STROKES
90
8
70
1
10
2286
20
-908.5
10
2122
20
-907.5
10
2116.5
20
-905
10
2118.5
20
-697
10
2121
20
-693.5
10
2289
20
-695.5
10
2290.5
20
-697
10
2288.5
20
-906
0
LWPOLYLINE
8
REFERENCE_STROKES
90
19
70
0
10
1884
20
-854.5
10
1886.5
20
-853
10
1885
20
-849.5
10
1872
20
-849.5
10
1869.5
20
-847
10
1869.5
20
-843
10
1874.5
20
-833
10
1886.5
20
-826
10
1888.5
20
-696
10
1887
20
-694.5
10
1833
20
-694.5
10
1830.5
20
-824
10
1839
20
-828.5
10
1844.5
20
-834
10
1848.5
20
-845
10
1846
20
-848.5
10
1831
20
-848.5
10
1830.5
20
-852
10
1832
20
-853.5
0
LWPOLYLINE
8
REFERENCE_STROKES
90
24
70
0
10
2106
20
-903.5
10
2107.5
20
-902
10
2107.5
20
-801
10
2110.5
20
-699
10
2107
20
-696.5
10
1902
20
-695.5
10
1900.5
20
-697
10
1899.5
20
-826
10
1897
20
-828.5
10
1881
20
-832.5
10
1875.5
20
-838
10
1873.5
20
-843
10
1876
20
-846.5
10
1893
20
-844.5
10
1898.5
20
-846
10
1898.5
20
-873
10
1897
20
-874.5
10
1875
20
-874.5
10
1874.5
20
-878
10
1878.5
20
-885
10
1886
20
-890.5
10
1897
20
-891.5
10
1898.5
20
-900
10
1903
20
-901.5
0
LWPOLYLINE
8
REFERENCE_STROKES
90
8
70
0
10
2284
20
-904.5
10
2286.5
20
-700
10
2285
20
-698.5
10
2124
20
-697.5
10
2122.5
20
-699
10
2122.5
20
-769
10
2120.5
20
-809
10
2120.5
20
-903
0
LWPOLYLINE
8
REFERENCE_STROKES
90
5
70
0
10
955
20
-741.5
10
951.5
20
-741
10
951.5
20
-714
10
953
20
-712.5
10
956.5
20
-715
0
LWPOLYLINE
8
REFERENCE_STROKES
90
5
70
0
10
964
20
-741.5
10
960.5
20
-741
10
960.5
20
-714
10
962
20
-712.5
10
964.5
20
-713
0
LWPOLYLINE
8
REFERENCE_STROKES
90
20
70
0
10
1849
20
-754.5
10
1847.5
20
-745
10
1851
20
-743.5
10
1854
20
-750.5
10
1855.5
20
-745
10
1861.5
20
-741
10
1850
20
-736.5
10
1848.5
20
-733
10
1866
20
-725.5
10
1867.5
20
-728
10
1862.5
20
-732
10
1862.5
20
-737
10
1867.5
20
-740
10
1865.5
20
-743
10
1867.5
20
-751
10
1863
20
-754.5
10
1861.5
20
-753
10
1863.5
20
-748
10
1860
20
-746.5
10
1858
20
-754.5
0
LWPOLYLINE
8
REFERENCE_STROKES
90
13
70
0
10
1359
20
-756.5
10
1356.5
20
-752
10
1359
20
-751.5
10
1361
20
-753.5
10
1364.5
20
-752
10
1360.5
20
-749
10
1363.5
20
-744
10
1358
20
-745.5
10
1356.5
20
-743
10
1363
20
-739.5
10
1367.5
20
-743
10
1367.5
20
-754
10
1364
20
-756.5
0
LWPOLYLINE
8
REFERENCE_STROKES
90
22
70
0
10
1400.5
20
-756
10
1370
20
-756.5
10
1369.5
20
-755
10
1373.5
20
-752
10
1373.5
20
-746
10
1370.5
20
-743
10
1375
20
-740.5
10
1376.5
20
-742
10
1376.5
20
-753
10
1383
20
-753.5
10
1383.5
20
-746
10
1381
20
-745.5
10
1380.5
20
-743
10
1386
20
-740.5
10
1386.5
20
-753
10
1393
20
-753.5
10
1393.5
20
-746
10
1391
20
-745.5
10
1390.5
20
-743
10
1396
20
-740.5
10
1397.5
20
-742
10
1397.5
20
-753
0
LWPOLYLINE
8
REFERENCE_STROKES
90
18
70
0
10
919.5
20
-762
10
915
20
-767.5
10
913
20
-767.5
10
911.5
20
-765
10
914.5
20
-761
10
914.5
20
-757
10
908
20
-755.5
10
906.5
20
-757
10
907
20
-766.5
10
894
20
-766.5
10
892.5
20
-754
10
896
20
-751.5
10
897.5
20
-761
10
902
20
-762.5
10
903.5
20
-753
10
906
20
-750.5
10
912
20
-749.5
10
918.5
20
-754
0
LWPOLYLINE
8
REFERENCE_STROKES
90
10
70
0
10
983.5
20
-753
10
987
20
-751.5
10
998
20
-758.5
10
1007
20
-759.5
10
1009.5
20
-764
10
1007
20
-765.5
10
988
20
-758.5
10
987.5
20
-768
10
985
20
-769.5
10
983.5
20
-768
0
LWPOLYLINE
8
REFERENCE_STROKES
90
6
70
1
10
954
20
-783.5
10
950.5
20
-781
10
951.5
20
-755
10
953
20
-753.5
10
955.5
20
-755
10
955.5
20
-782
0
LWPOLYLINE
8
REFERENCE_STROKES
90
5
70
0
10
963
20
-783.5
10
959.5
20
-782
10
960.5
20
-755
10
962
20
-753.5
10
964.5
20
-755
0
LWPOLYLINE
8
REFERENCE_STROKES
90
18
70
1
10
1865
20
-779.5
10
1862
20
-775.5
10
1854
20
-775.5
10
1852
20
-778.5
10
1847.5
20
-775
10
1849
20
-771.5
10
1862
20
-771.5
10
1863.5
20
-770
10
1862
20
-763.5
10
1855
20
-763.5
10
1854
20
-766.5
10
1851
20
-766.5
10
1847.5
20
-763
10
1850
20
-759.5
10
1862
20
-759.5
10
1864
20
-756.5
10
1866.5
20
-757
10
1866.5
20
-778
0
LWPOLYLINE
8
REFERENCE_STROKES
90
22
70
0
10
147
20
-789.5
10
138
20
-789.5
10
133.5
20
-785
10
135
20
-781.5
10
139
20
-782.5
10
141
20
-785.5
10
146.5
20
-784
10
145
20
-779.5
10
139.5
20
-778
10
139.5
20
-775
10
144
20
-773.5
10
146.5
20
-770
10
145
20
-768.5
10
141
20
-768.5
10
138
20
-771.5
10
134.5
20
-770
10
135.5
20
-766
10
139
20
-763.5
10
146
20
-763.5
10
151.5
20
-769
10
149.5
20
-775
10
151.5
20
-785
0
LWPOLYLINE
8
REFERENCE_STROKES
90
11
70
0
10
169
20
-790.5
10
154.5
20
-789
10
156
20
-785.5
10
160.5
20
-785
10
160.5
20
-772
10
157
20
-771.5
10
155.5
20
-769
10
163
20
-763.5
10
165.5
20
-765
10
165.5
20
-785
10
171.5
20
-787
0
LWPOLYLINE
8
REFERENCE_STROKES
90
10
70
0
10
186
20
-790.5
10
183.5
20
-789
10
183
20
-784.5
10
173
20
-784.5
10
171.5
20
-783
10
173.5
20
-777
10
184
20
-764.5
10
188.5
20
-766
10
188.5
20
-779
10
191.5
20
-782
0
LWPOLYLINE
8
REFERENCE_STROKES
90
17
70
0
10
203
20
-790.5
10
199
20
-790.5
10
192.5
20
-787
10
194
20
-782.5
10
202
20
-786.5
10
205.5
20
-782
10
203
20
-777.5
10
194
20
-778.5
10
192.5
20
-777
10
195
20
-764.5
10
209.5
20
-765
10
208
20
-768.5
10
198.5
20
-769
10
199
20
-773.5
10
205
20
-773.5
10
210.5
20
-778
10
210.5
20
-785
0
LWPOLYLINE
8
REFERENCE_STROKES
90
21
70
0
10
297
20
-790.5
10
287
20
-790.5
10
283.5
20
-787
10
285
20
-782.5
10
291
20
-786.5
10
296.5
20
-785
10
295
20
-780.5
10
289.5
20
-779
10
289.5
20
-776
10
295
20
-774.5
10
296.5
20
-771
10
295
20
-769.5
10
291
20
-769.5
10
288
20
-772.5
10
284.5
20
-771
10
284.5
20
-768
10
290
20
-764.5
10
298
20
-765.5
10
301.5
20
-770
10
299.5
20
-777
10
301.5
20
-786
0
LWPOLYLINE
8
REFERENCE_STROKES
90
12
70
1
10
320
20
-791.5
10
306
20
-791.5
10
304.5
20
-790
10
305
20
-787.5
10
310.5
20
-786
10
310.5
20
-773
10
307
20
-772.5
10
305.5
20
-770
10
311
20
-765.5
10
316.5
20
-767
10
315.5
20
-786
10
321.5
20
-789
0
LWPOLYLINE
8
REFERENCE_STROKES
90
9
70
0
10
337
20
-791.5
10
333.5
20
-790
10
332
20
-785.5
10
322.5
20
-784
10
324.5
20
-778
10
335
20
-765.5
10
339.5
20
-767
10
339.5
20
-781
10
342.5
20
-783
0
LWPOLYLINE
8
REFERENCE_STROKES
90
9
70
0
10
350
20
-792.5
10
347.5
20
-789
10
354.5
20
-770
10
345
20
-769.5
10
343.5
20
-766
10
360
20
-765.5
10
361.5
20
-770
10
355.5
20
-779
10
353.5
20
-790
0
LWPOLYLINE
8
REFERENCE_STROKES
90
22
70
0
10
450
20
-791.5
10
441
20
-792.5
10
434.5
20
-787
10
436
20
-784.5
10
439
20
-784.5
10
443
20
-788.5
10
448.5
20
-786
10
448
20
-782.5
10
441.5
20
-780
10
441.5
20
-778
10
446
20
-776.5
10
448.5
20
-773
10
446
20
-770.5
10
443
20
-770.5
10
438
20
-774.5
10
435.5
20
-772
10
440
20
-766.5
10
449
20
-766.5
10
453.5
20
-771
10
453.5
20
-776
10
451.5
20
-778
10
453.5
20
-788
0
LWPOLYLINE
8
REFERENCE_STROKES
90
13
70
1
10
472
20
-792.5
10
457
20
-792.5
10
455.5
20
-791
10
457
20
-788.5
10
462.5
20
-788
10
462.5
20
-774
10
458
20
-774.5
10
457.5
20
-771
10
464
20
-766.5
10
467
20
-766.5
10
468.5
20
-769
10
467.5
20
-787
10
473.5
20
-790
0
LWPOLYLINE
8
REFERENCE_STROKES
90
11
70
0
10
489
20
-793.5
10
486.5
20
-792
10
486
20
-787.5
10
474.5
20
-786
10
475.5
20
-781
10
488
20
-766.5
10
490.5
20
-768
10
490.5
20
-781
10
494.5
20
-784
10
494.5
20
-786
10
490.5
20
-788
0
LWPOLYLINE
8
REFERENCE_STROKES
90
14
70
0
10
502
20
-793.5
10
497.5
20
-791
10
496.5
20
-787
10
506
20
-788.5
10
508.5
20
-784
10
499
20
-783.5
10
496.5
20
-781
10
495.5
20
-773
10
500
20
-767.5
10
506
20
-766.5
10
511
20
-768.5
10
513.5
20
-773
10
513.5
20
-785
10
508
20
-792.5
0
LWPOLYLINE
8
REFERENCE_STROKES
90
21
70
0
10
605
20
-794.5
10
598
20
-793.5
10
594.5
20
-790
10
596
20
-785.5
10
601
20
-789.5
10
607.5
20
-788
10
606
20
-783.5
10
600.5
20
-782
10
602
20
-778.5
10
606.5
20
-777
10
606.5
20
-773
10
601
20
-772.5
10
598
20
-775.5
10
595.5
20
-775
10
595.5
20
-772
10
603
20
-767.5
10
609
20
-768.5
10
612.5
20
-773
10
609.5
20
-780
10
612.5
20
-784
10
612.5
20
-790
0
LWPOLYLINE
8
REFERENCE_STROKES
90
12
70
1
10
631
20
-794.5
10
617
20
-794.5
10
615.5
20
-793
10
618
20
-789.5
10
622.5
20
-789
10
622.5
20
-775
10
617.5
20
-776
10
617.5
20
-773
10
622
20
-768.5
10
627.5
20
-770
10
627.5
20
-789
10
633.5
20
-792
0
LWPOLYLINE
8
REFERENCE_STROKES
90
20
70
0
10
646
20
-794.5
10
640
20
-794.5
10
634.5
20
-790
10
637
20
-786.5
10
642
20
-790.5
10
645
20
-790.5
10
648.5
20
-786
10
645
20
-781.5
10
638
20
-783.5
10
635.5
20
-782
10
637
20
-768.5
10
651.5
20
-769
10
651
20
-772.5
10
642
20
-772.5
10
640.5
20
-774
10
641
20
-777.5
10
648
20
-777.5
10
651
20
-779.5
10
653.5
20
-785
10
651.5
20
-791
0
LWPOLYLINE
8
REFERENCE_STROKES
90
11
70
0
10
672
20
-794.5
10
655.5
20
-794
10
657
20
-790.5
10
661.5
20
-789
10
661.5
20
-776
10
657
20
-776.5
10
656.5
20
-773
10
662
20
-768.5
10
666.5
20
-770
10
666.5
20
-790
10
671
20
-790.5
0
LWPOLYLINE
8
REFERENCE_STROKES
90
20
70
0
10
764
20
-794.5
10
754
20
-795.5
10
749.5
20
-792
10
750
20
-787.5
10
754
20
-787.5
10
757
20
-791.5
10
762.5
20
-789
10
761
20
-785.5
10
754.5
20
-783
10
757
20
-779.5
10
761.5
20
-778
10
761.5
20
-775
10
757
20
-773.5
10
753
20
-777.5
10
749.5
20
-776
10
754
20
-769.5
10
762
20
-769.5
10
767.5
20
-775
10
765.5
20
-781
10
767.5
20
-789
0
LWPOLYLINE
8
REFERENCE_STROKES
90
12
70
1
10
786
20
-795.5
10
770.5
20
-795
10
771
20
-791.5
10
775.5
20
-791
10
776.5
20
-778
10
773
20
-777.5
10
771.5
20
-775
10
778
20
-769.5
10
781.5
20
-771
10
781.5
20
-791
10
786
20
-791.5
10
787.5
20
-793
0
LWPOLYLINE
8
REFERENCE_STROKES
90
40
70
0
10
826.5
20
-792
10
819
20
-796.5
10
811
20
-794.5
10
808
20
-790.5
10
801
20
-795.5
10
793
20
-795.5
10
789.5
20
-793
10
789.5
20
-789
10
793
20
-788.5
10
796
20
-791.5
10
800
20
-791.5
10
801.5
20
-785
10
800
20
-783.5
10
789.5
20
-784
10
790.5
20
-771
10
792
20
-769.5
10
806
20
-770.5
10
805
20
-774.5
10
796
20
-774.5
10
794.5
20
-778
10
805
20
-780.5
10
807.5
20
-784
10
808
20
-789.5
10
812
20
-787.5
10
819
20
-792.5
10
821.5
20
-787
10
816
20
-785.5
10
814.5
20
-782
10
819
20
-780.5
10
821.5
20
-776
10
816
20
-774.5
10
813
20
-777.5
10
810
20
-777.5
10
809.5
20
-774
10
813
20
-770.5
10
823
20
-770.5
10
826.5
20
-774
10
826.5
20
-780
10
824.5
20
-782
10
827.5
20
-788
0
LWPOLYLINE
8
REFERENCE_STROKES
90
19
70
0
10
917.5
20
-785
10
914
20
-787.5
10
911.5
20
-786
10
914.5
20
-781
10
914.5
20
-777
10
912
20
-774.5
10
908
20
-774.5
10
906
20
-786.5
10
894
20
-786.5
10
892.5
20
-784
10
893.5
20
-771
10
896
20
-770.5
10
897.5
20
-773
10
897.5
20
-781
10
901
20
-781.5
10
902.5
20
-774
10
907
20
-769.5
10
915
20
-770.5
10
919.5
20
-778
0
LWPOLYLINE
8
REFERENCE_STROKES
90
7
70
1
10
1420
20
-898.5
10
1335
20
-897.5
10
1331.5
20
-895
10
1332.5
20
-771
10
1334
20
-769.5
10
1423.5
20
-771
10
1422.5
20
-896
0
LWPOLYLINE
8
REFERENCE_STROKES
90
7
70
0
10
506
20
-780.5
10
508.5
20
-778
10
508.5
20
-774
10
507
20
-771.5
10
502
20
-771.5
10
500.5
20
-777
10
502
20
-779.5
0
LWPOLYLINE
8
REFERENCE_STROKES
90
16
70
0
10
1008.5
20
-784
10
1005
20
-788.5
10
1002
20
-788.5
10
1004.5
20
-778
10
998
20
-776.5
10
996
20
-788.5
10
984
20
-787.5
10
982.5
20
-775
10
986
20
-772.5
10
987.5
20
-774
10
987.5
20
-783
10
992
20
-783.5
10
993.5
20
-774
10
997
20
-771.5
10
1003
20
-771.5
10
1008.5
20
-777
0
LWPOLYLINE
8
REFERENCE_STROKES
90
6
70
0
10
1418
20
-894.5
10
1419.5
20
-774
10
1337
20
-773.5
10
1335.5
20
-775
10
1335.5
20
-892
10
1337
20
-893.5
0
LWPOLYLINE
8
REFERENCE_STROKES
90
4
70
1
10
180
20
-779.5
10
183.5
20
-779
10
183
20
-774.5
10
180.5
20
-776
0
LWPOLYLINE
8
REFERENCE_STROKES
90
4
70
1
10
330
20
-781.5
10
333.5
20
-780
10
333
20
-776.5
10
329.5
20
-779
0
LWPOLYLINE
8
REFERENCE_STROKES
90
3
70
0
10
482
20
-782.5
10
486.5
20
-782
10
486
20
-776.5
0
LWPOLYLINE
8
REFERENCE_STROKES
90
20
70
0
10
1489
20
-802.5
10
1480
20
-801.5
10
1476.5
20
-796
10
1480
20
-793.5
10
1487
20
-798.5
10
1490.5
20
-795
10
1488
20
-791.5
10
1482.5
20
-790
10
1484
20
-786.5
10
1489.5
20
-785
10
1488
20
-780.5
10
1484
20
-780.5
10
1482
20
-783.5
10
1477.5
20
-783
10
1478.5
20
-779
10
1482
20
-776.5
10
1490
20
-776.5
10
1495.5
20
-782
10
1493.5
20
-788
10
1495.5
20
-797
0
LWPOLYLINE
8
REFERENCE_STROKES
90
21
70
1
10
1531.5
20
-802
10
1500
20
-802.5
10
1498.5
20
-799
10
1503
20
-798.5
10
1504.5
20
-796
10
1504.5
20
-784
10
1500
20
-784.5
10
1498.5
20
-783
10
1505
20
-776.5
10
1508
20
-776.5
10
1509.5
20
-778
10
1509.5
20
-797
10
1511
20
-798.5
10
1520
20
-798.5
10
1520.5
20
-784
10
1515.5
20
-783
10
1519
20
-778.5
10
1525
20
-776.5
10
1526.5
20
-778
10
1526.5
20
-798
10
1531
20
-798.5
0
LWPOLYLINE
8
REFERENCE_STROKES
90
21
70
0
10
1547
20
-802.5
10
1538
20
-802.5
10
1533.5
20
-798
10
1535
20
-794.5
10
1541
20
-798.5
10
1545
20
-798.5
10
1546.5
20
-796
10
1545
20
-792.5
10
1539.5
20
-791
10
1539.5
20
-788
10
1544
20
-786.5
10
1545.5
20
-782
10
1542
20
-780.5
10
1537
20
-784.5
10
1533.5
20
-783
10
1539
20
-776.5
10
1548
20
-777.5
10
1551.5
20
-782
10
1548.5
20
-789
10
1551.5
20
-792
10
1551.5
20
-798
0
LWPOLYLINE
8
REFERENCE_STROKES
90
21
70
0
10
1687
20
-804.5
10
1679
20
-803.5
10
1675.5
20
-798
10
1678
20
-795.5
10
1685
20
-800.5
10
1688.5
20
-798
10
1687
20
-793.5
10
1681.5
20
-792
10
1681.5
20
-790
10
1686
20
-788.5
10
1688.5
20
-784
10
1683
20
-782.5
10
1680
20
-785.5
10
1676.5
20
-785
10
1677.5
20
-781
10
1684
20
-777.5
10
1690
20
-778.5
10
1693.5
20
-782
10
1691.5
20
-792
10
1693.5
20
-793
10
1694.5
20
-798
0
LWPOLYLINE
8
REFERENCE_STROKES
90
23
70
1
10
1731.5
20
-803
10
1730
20
-804.5
10
1698
20
-804.5
10
1697.5
20
-801
10
1703.5
20
-798
10
1703.5
20
-786
10
1700
20
-786.5
10
1698.5
20
-783
10
1704
20
-778.5
10
1707
20
-778.5
10
1708.5
20
-780
10
1708.5
20
-799
10
1710
20
-800.5
10
1719
20
-800.5
10
1720.5
20
-799
10
1720.5
20
-786
10
1717
20
-786.5
10
1715.5
20
-783
10
1721
20
-778.5
10
1724
20
-778.5
10
1725.5
20
-780
10
1725.5
20
-799
10
1731
20
-800.5
0
LWPOLYLINE
8
REFERENCE_STROKES
90
20
70
0
10
1745
20
-804.5
10
1738
20
-804.5
10
1733.5
20
-801
10
1734
20
-797.5
10
1743
20
-800.5
10
1746.5
20
-797
10
1743
20
-791.5
10
1738
20
-793.5
10
1733.5
20
-792
10
1733.5
20
-784
10
1736
20
-778.5
10
1749
20
-778.5
10
1750.5
20
-780
10
1748
20
-783.5
10
1741
20
-782.5
10
1739.5
20
-784
10
1740
20
-787.5
10
1745
20
-787.5
10
1751.5
20
-793
10
1750.5
20
-800
0
LWPOLYLINE
8
REFERENCE_STROKES
90
13
70
0
10
1866.5
20
-790
10
1865
20
-792.5
10
1861
20
-793.5
10
1862
20
-785.5
10
1857
20
-789.5
10
1852
20
-785.5
10
1853.5
20
-792
10
1850
20
-792.5
10
1847.5
20
-790
10
1847.5
20
-784
10
1851
20
-781.5
10
1862
20
-780.5
10
1866.5
20
-784
0
LWPOLYLINE
8
REFERENCE_STROKES
90
20
70
0
10
1975
20
-807.5
10
1970
20
-805.5
10
1967.5
20
-800
10
1972
20
-798.5
10
1976
20
-802.5
10
1981.5
20
-800
10
1979
20
-796.5
10
1973.5
20
-794
10
1980.5
20
-789
10
1980.5
20
-786
10
1975
20
-785.5
10
1972
20
-788.5
10
1969
20
-788.5
10
1968.5
20
-786
10
1974
20
-780.5
10
1981
20
-780.5
10
1986.5
20
-785
10
1984.5
20
-793
10
1986.5
20
-802
10
1982
20
-806.5
0
LWPOLYLINE
8
REFERENCE_STROKES
90
22
70
1
10
2023.5
20
-806
10
2022
20
-807.5
10
1991
20
-807.5
10
1988.5
20
-805
10
1991
20
-802.5
10
1995.5
20
-802
10
1995.5
20
-788
10
1991
20
-788.5
10
1990.5
20
-786
10
1996
20
-781.5
10
2000
20
-781.5
10
2000.5
20
-802
10
2008
20
-803.5
10
2012.5
20
-801
10
2012.5
20
-789
10
2008
20
-788.5
10
2007.5
20
-786
10
2013
20
-781.5
10
2017
20
-781.5
10
2018.5
20
-783
10
2017.5
20
-802
10
2023
20
-803.5
0
LWPOLYLINE
8
REFERENCE_STROKES
90
9
70
0
10
2030
20
-807.5
10
2029.5
20
-801
10
2036.5
20
-786
10
2026
20
-785.5
10
2025.5
20
-782
10
2043
20
-781.5
10
2043.5
20
-786
10
2037.5
20
-795
10
2034
20
-807.5
0
LWPOLYLINE
8
REFERENCE_STROKES
90
19
70
0
10
2177
20
-807.5
10
2167
20
-807.5
10
2163.5
20
-804
10
2165
20
-799.5
10
2170
20
-803.5
10
2176.5
20
-802
10
2175
20
-797.5
10
2168.5
20
-795
10
2175
20
-791.5
10
2176.5
20
-788
10
2174
20
-786.5
10
2167
20
-789.5
10
2163.5
20
-788
10
2164.5
20
-785
10
2170
20
-781.5
10
2179
20
-782.5
10
2181.5
20
-786
10
2179.5
20
-795
10
2182.5
20
-801
0
LWPOLYLINE
8
REFERENCE_STROKES
90
20
70
0
10
2218.5
20
-807
10
2217
20
-808.5
10
2186
20
-808.5
10
2184.5
20
-805
10
2190.5
20
-803
10
2190.5
20
-790
10
2186
20
-789.5
10
2185.5
20
-787
10
2191
20
-782.5
10
2195
20
-782.5
10
2196.5
20
-784
10
2195.5
20
-803
10
2203
20
-804.5
10
2207.5
20
-803
10
2207.5
20
-790
10
2203
20
-789.5
10
2202.5
20
-787
10
2208
20
-782.5
10
2212
20
-782.5
10
2212.5
20
-803
0
LWPOLYLINE
8
REFERENCE_STROKES
90
14
70
0
10
2231
20
-808.5
10
2225
20
-808.5
10
2220.5
20
-806
10
2222
20
-801.5
10
2226
20
-803.5
10
2231.5
20
-802
10
2231
20
-799.5
10
2222
20
-798.5
10
2219.5
20
-794
10
2219.5
20
-789
10
2225
20
-782.5
10
2235
20
-783.5
10
2238.5
20
-791
10
2237.5
20
-801
0
LWPOLYLINE
8
REFERENCE_STROKES
90
5
70
0
10
2230
20
-795.5
10
2232.5
20
-790
10
2228
20
-786.5
10
2225.5
20
-789
10
2225.5
20
-794
0
LWPOLYLINE
8
REFERENCE_STROKES
90
11
70
0
10
918.5
20
-790
10
918.5
20
-804
10
916
20
-806.5
10
913
20
-799.5
10
900
20
-799.5
10
900.5
20
-804
10
897
20
-804.5
10
892.5
20
-799
10
894
20
-795.5
10
913
20
-795.5
10
914.5
20
-790
0
LWPOLYLINE
8
REFERENCE_STROKES
90
13
70
0
10
1008.5
20
-806
10
1006
20
-807.5
10
1004
20
-801.5
10
990
20
-801.5
10
990.5
20
-805
10
988
20
-806.5
10
983.5
20
-802
10
982.5
20
-798
10
984
20
-796.5
10
1004
20
-796.5
10
1004.5
20
-792
10
1007
20
-790.5
10
1008.5
20
-792
0
LWPOLYLINE
8
REFERENCE_STROKES
90
5
70
0
10
954
20
-824.5
10
950.5
20
-824
10
950.5
20
-797
10
952
20
-795.5
10
955.5
20
-798
0
LWPOLYLINE
8
REFERENCE_STROKES
90
5
70
0
10
963
20
-824.5
10
959.5
20
-824
10
959.5
20
-797
10
961
20
-795.5
10
963.5
20
-796
0
LWPOLYLINE
8
REFERENCE_STROKES
90
20
70
0
10
918.5
20
-822
10
914
20
-826.5
10
911
20
-826.5
10
910.5
20
-823
10
914.5
20
-818
10
912
20
-813.5
10
908.5
20
-814
10
906
20
-820.5
10
902.5
20
-819
10
901
20
-814.5
10
898
20
-814.5
10
896.5
20
-819
10
900.5
20
-825
10
897
20
-826.5
10
892.5
20
-822
10
892.5
20
-813
10
899
20
-808.5
10
904
20
-810.5
10
914
20
-808.5
10
918.5
20
-813
0
LWPOLYLINE
8
REFERENCE_STROKES
90
21
70
0
10
1008.5
20
-823
10
1004
20
-828.5
10
1001
20
-828.5
10
1000.5
20
-824
10
1004.5
20
-821
10
1004.5
20
-817
10
999
20
-815.5
10
997.5
20
-821
10
994
20
-822.5
10
992.5
20
-817
10
989
20
-815.5
10
987.5
20
-821
10
990.5
20
-826
10
986
20
-827.5
10
982.5
20
-823
10
982.5
20
-816
10
988
20
-810.5
10
992
20
-810.5
10
994
20
-812.5
10
1004
20
-810.5
10
1008.5
20
-816
0
LWPOLYLINE
8
REFERENCE_STROKES
90
18
70
0
10
1358
20
-839.5
10
1350
20
-839.5
10
1347.5
20
-836
10
1349
20
-832.5
10
1353
20
-835.5
10
1357.5
20
-834
10
1357
20
-831.5
10
1352.5
20
-830
10
1352.5
20
-828
10
1356.5
20
-826
10
1356.5
20
-823
10
1353
20
-822.5
10
1350
20
-825.5
10
1347.5
20
-824
10
1351
20
-818.5
10
1357
20
-818.5
10
1361.5
20
-822
10
1361.5
20
-836
0
LWPOLYLINE
8
REFERENCE_STROKES
90
10
70
1
10
1376
20
-839.5
10
1364.5
20
-839
10
1364.5
20
-837
10
1368.5
20
-835
10
1368.5
20
-825
10
1364.5
20
-823
10
1369
20
-818.5
10
1373.5
20
-820
10
1372.5
20
-835
10
1377.5
20
-838
0
LWPOLYLINE
8
REFERENCE_STROKES
90
19
70
0
10
1407.5
20
-837
10
1403
20
-840.5
10
1397
20
-839.5
10
1396
20
-834.5
10
1403
20
-836.5
10
1404.5
20
-833
10
1400
20
-833.5
10
1394
20
-829.5
10
1393.5
20
-834
10
1389
20
-839.5
10
1385
20
-840.5
10
1381
20
-838.5
10
1378.5
20
-833
10
1380.5
20
-821
10
1388
20
-818.5
10
1394
20
-823.5
10
1401
20
-818.5
10
1407
20
-820.5
10
1409.5
20
-827
0
LWPOLYLINE
8
REFERENCE_STROKES
90
5
70
0
10
1388
20
-835.5
10
1389.5
20
-825
10
1385
20
-822.5
10
1383.5
20
-824
10
1383.5
20
-835
0
LWPOLYLINE
8
REFERENCE_STROKES
90
4
70
0
10
1403
20
-829.5
10
1404.5
20
-824
10
1401
20
-822.5
10
1398.5
20
-826
0
LWPOLYLINE
8
REFERENCE_STROKES
90
5
70
1
10
953
20
-866.5
10
949.5
20
-864
10
951
20
-836.5
10
954.5
20
-838
10
954.5
20
-865
0
LWPOLYLINE
8
REFERENCE_STROKES
90
6
70
1
10
962
20
-866.5
10
958.5
20
-865
10
959.5
20
-838
10
961
20
-836.5
10
963.5
20
-838
10
963.5
20
-865
0
LWPOLYLINE
8
REFERENCE_STROKES
90
15
70
0
10
1895.5
20
-869
10
1895.5
20
-851
10
1894
20
-848.5
10
1889.5
20
-851
10
1889.5
20
-855
10
1887
20
-857.5
10
1831
20
-857.5
10
1827.5
20
-855
10
1826
20
-848.5
10
1821.5
20
-850
10
1822
20
-870.5
10
1826.5
20
-870
10
1829
20
-862.5
10
1889
20
-863.5
10
1890
20
-870.5
0
LWPOLYLINE
8
REFERENCE_STROKES
90
15
70
0
10
1886.5
20
-900
10
1886.5
20
-895
10
1873.5
20
-885
10
1869.5
20
-874
10
1873
20
-870.5
10
1886
20
-870.5
10
1885
20
-866.5
10
1832
20
-865.5
10
1830.5
20
-867
10
1832
20
-870.5
10
1845
20
-870.5
10
1847.5
20
-874
10
1842.5
20
-886
10
1830.5
20
-894
10
1831
20
-899.5
0
LWPOLYLINE
8
REFERENCE_STROKES
90
7
70
0
10
98
20
-931.5
10
100.5
20
-930
10
100.5
20
-899
10
99
20
-897.5
10
90
20
-897.5
10
89.5
20
-929
10
92
20
-931.5
0
LWPOLYLINE
8
REFERENCE_STROKES
90
5
70
0
10
112
20
-931.5
10
114.5
20
-930
10
113.5
20
-898
10
104
20
-897.5
10
103.5
20
-930
0
LWPOLYLINE
8
REFERENCE_STROKES
90
5
70
0
10
126
20
-931.5
10
127.5
20
-930
10
127.5
20
-899
10
118
20
-897.5
10
117.5
20
-931
0
LWPOLYLINE
8
REFERENCE_STROKES
90
7
70
0
10
141
20
-931.5
10
141.5
20
-900
10
139
20
-897.5
10
132
20
-897.5
10
130.5
20
-899
10
130.5
20
-930
10
132
20
-931.5
0
LWPOLYLINE
8
REFERENCE_STROKES
90
5
70
0
10
154
20
-931.5
10
154.5
20
-899
10
146
20
-897.5
10
144.5
20
-899
10
144.5
20
-931
0
LWPOLYLINE
8
REFERENCE_STROKES
90
6
70
0
10
167
20
-931.5
10
168.5
20
-930
10
167.5
20
-899
10
160
20
-897.5
10
157.5
20
-899
10
157.5
20
-930
0
LWPOLYLINE
8
REFERENCE_STROKES
90
5
70
0
10
182
20
-931.5
10
181.5
20
-899
10
172
20
-898.5
10
170.5
20
-900
10
171.5
20
-931
0
LWPOLYLINE
8
REFERENCE_STROKES
90
6
70
0
10
2206
20
-950.5
10
2206.5
20
-917
10
2197
20
-916.5
10
2195.5
20
-918
10
2195.5
20
-949
10
2197
20
-950.5
0
LWPOLYLINE
8
REFERENCE_STROKES
90
5
70
0
10
2221
20
-950.5
10
2221.5
20
-917
10
2211
20
-916.5
10
2209.5
20
-949
10
2211
20
-950.5
0
LWPOLYLINE
8
REFERENCE_STROKES
90
6
70
0
10
2236
20
-950.5
10
2236.5
20
-918
10
2227
20
-916.5
10
2225.5
20
-918
10
2224.5
20
-949
10
2226
20
-950.5
0
LWPOLYLINE
8
REFERENCE_STROKES
90
6
70
0
10
2250
20
-950.5
10
2251.5
20
-949
10
2251.5
20
-918
10
2242
20
-916.5
10
2239.5
20
-918
10
2239.5
20
-950
0
LWPOLYLINE
8
REFERENCE_STROKES
90
6
70
0
10
2264
20
-951.5
10
2266.5
20
-950
10
2266.5
20
-918
10
2258
20
-916.5
10
2254.5
20
-918
10
2254.5
20
-950
0
LWPOLYLINE
8
REFERENCE_STROKES
90
6
70
0
10
2278
20
-951.5
10
2280.5
20
-950
10
2281.5
20
-919
10
2280
20
-917.5
10
2270
20
-917.5
10
2269.5
20
-950
0
LWPOLYLINE
8
REFERENCE_STROKES
90
5
70
0
10
234.5
20
-929
10
231
20
-934.5
10
206
20
-929.5
10
204.5
20
-927
10
231
20
-918.5
0
LWPOLYLINE
8
REFERENCE_STROKES
90
6
70
0
10
247
20
-931.5
10
241.5
20
-930
10
241.5
20
-926
10
244
20
-923.5
10
248
20
-924.5
10
249.5
20
-927
0
LWPOLYLINE
8
REFERENCE_STROKES
90
11
70
0
10
276.5
20
-930
10
275
20
-931.5
10
269
20
-930.5
10
266
20
-934.5
10
263
20
-934.5
10
255.5
20
-929
10
255.5
20
-926
10
261
20
-924.5
10
268
20
-927.5
10
271
20
-924.5
10
275
20
-924.5
0
LWPOLYLINE
8
REFERENCE_STROKES
90
5
70
0
10
289
20
-931.5
10
285
20
-931.5
10
282.5
20
-929
10
285
20
-924.5
10
290.5
20
-926
0
LWPOLYLINE
8
REFERENCE_STROKES
90
5
70
0
10
302
20
-932.5
10
297.5
20
-931
10
297.5
20
-926
10
300
20
-924.5
10
305.5
20
-927
0
LWPOLYLINE
8
REFERENCE_STROKES
90
6
70
1
10
318
20
-931.5
10
315
20
-932.5
10
310.5
20
-928
10
313
20
-924.5
10
318.5
20
-926
10
319.5
20
-929
0
LWPOLYLINE
8
REFERENCE_STROKES
90
4
70
0
10
331
20
-932.5
10
325.5
20
-930
10
327
20
-924.5
10
333.5
20
-927
0
LWPOLYLINE
8
REFERENCE_STROKES
90
6
70
1
10
346
20
-932.5
10
342
20
-932.5
10
339.5
20
-930
10
342
20
-924.5
10
347.5
20
-926
10
348.5
20
-930
0
LWPOLYLINE
8
REFERENCE_STROKES
90
6
70
0
10
360
20
-932.5
10
356
20
-932.5
10
353.5
20
-929
10
357
20
-924.5
10
360
20
-924.5
10
362.5
20
-928
0
LWPOLYLINE
8
REFERENCE_STROKES
90
5
70
0
10
374
20
-932.5
10
368.5
20
-930
10
368.5
20
-927
10
372
20
-924.5
10
376.5
20
-928
0
LWPOLYLINE
8
REFERENCE_STROKES
90
5
70
1
10
389
20
-932.5
10
382.5
20
-931
10
384
20
-925.5
10
389.5
20
-926
10
390.5
20
-930
0
LWPOLYLINE
8
REFERENCE_STROKES
90
5
70
0
10
402
20
-932.5
10
398
20
-932.5
10
396.5
20
-930
10
399
20
-925.5
10
404.5
20
-927
0
LWPOLYLINE
8
REFERENCE_STROKES
90
5
70
0
10
419.5
20
-930
10
415
20
-933.5
10
410.5
20
-931
10
412
20
-925.5
10
417
20
-925.5
0
LWPOLYLINE
8
REFERENCE_STROKES
90
5
70
0
10
431
20
-933.5
10
424.5
20
-930
10
427
20
-925.5
10
431
20
-925.5
10
433.5
20
-928
0
LWPOLYLINE
8
REFERENCE_STROKES
90
6
70
0
10
446
20
-932.5
10
442
20
-933.5
10
438.5
20
-930
10
441
20
-925.5
10
445
20
-925.5
10
447.5
20
-928
0
LWPOLYLINE
8
REFERENCE_STROKES
90
5
70
0
10
457
20
-933.5
10
453.5
20
-931
10
453.5
20
-928
10
459
20
-925.5
10
461.5
20
-930
0
LWPOLYLINE
8
REFERENCE_STROKES
90
5
70
1
10
473
20
-933.5
10
467.5
20
-931
10
470
20
-925.5
10
475.5
20
-927
10
475.5
20
-931
0
LWPOLYLINE
8
REFERENCE_STROKES
90
6
70
1
10
487
20
-933.5
10
481.5
20
-931
10
481.5
20
-928
10
485
20
-925.5
10
489.5
20
-927
10
489.5
20
-932
0
LWPOLYLINE
8
REFERENCE_STROKES
90
6
70
0
10
501
20
-933.5
10
496.5
20
-932
10
496.5
20
-928
10
499
20
-925.5
10
504.5
20
-928
10
504.5
20
-931
0
LWPOLYLINE
8
REFERENCE_STROKES
90
5
70
0
10
516
20
-933.5
10
510.5
20
-932
10
510.5
20
-928
10
513
20
-925.5
10
518.5
20
-928
0
LWPOLYLINE
8
REFERENCE_STROKES
90
6
70
0
10
542
20
-934.5
10
539.5
20
-932
10
539.5
20
-928
10
543
20
-925.5
10
547.5
20
-929
10
547.5
20
-931
0
LWPOLYLINE
8
REFERENCE_STROKES
90
6
70
1
10
659
20
-935.5
10
655
20
-934.5
10
652.5
20
-931
10
657
20
-925.5
10
660.5
20
-926
10
661.5
20
-933
0
LWPOLYLINE
8
REFERENCE_STROKES
90
5
70
0
10
531
20
-933.5
10
527
20
-933.5
10
524.5
20
-931
10
526
20
-926.5
10
532.5
20
-928
0
LWPOLYLINE
8
REFERENCE_STROKES
90
7
70
0
10
560
20
-933.5
10
557
20
-934.5
10
554.5
20
-933
10
553.5
20
-928
10
555
20
-926.5
10
559
20
-926.5
10
561.5
20
-929
0
LWPOLYLINE
8
REFERENCE_STROKES
90
5
70
0
10
574
20
-933.5
10
571
20
-934.5
10
567.5
20
-932
10
569
20
-926.5
10
575.5
20
-928
0
LWPOLYLINE
8
REFERENCE_STROKES
90
6
70
1
10
589
20
-933.5
10
585
20
-934.5
10
581.5
20
-929
10
584
20
-926.5
10
588
20
-926.5
10
590.5
20
-930
0
LWPOLYLINE
8
REFERENCE_STROKES
90
5
70
0
10
600
20
-934.5
10
595.5
20
-932
10
598
20
-926.5
10
603.5
20
-928
10
603.5
20
-932
0
LWPOLYLINE
8
REFERENCE_STROKES
90
5
70
0
10
616
20
-934.5
10
612
20
-934.5
10
609.5
20
-932
10
612
20
-926.5
10
617.5
20
-928
0
LWPOLYLINE
8
REFERENCE_STROKES
90
5
70
0
10
630
20
-934.5
10
624.5
20
-932
10
627
20
-926.5
10
631
20
-927.5
10
632.5
20
-930
0
LWPOLYLINE
8
REFERENCE_STROKES
90
4
70
0
10
644
20
-934.5
10
638.5
20
-932
10
641
20
-926.5
10
646.5
20
-929
0
LWPOLYLINE
8
REFERENCE_STROKES
90
78
70
0
10
784.5
20
-1162
10
783
20
-1163.5
10
678
20
-1162.5
10
676.5
20
-1174
10
679
20
-1176.5
10
688
20
-1176.5
10
690.5
20
-1179
10
689
20
-1185.5
10
679
20
-1185.5
10
668.5
20
-1179
10
668.5
20
-1164
10
667
20
-1162.5
10
310
20
-1161.5
10
307.5
20
-1159
10
309.5
20
-959
10
312
20
-957.5
10
447
20
-958.5
10
448.5
20
-960
10
448.5
20
-969
10
447
20
-970.5
10
375.5
20
-971
10
375.5
20
-986
10
377
20
-987.5
10
390.5
20
-988
10
390.5
20
-1029
10
375.5
20
-1032
10
374.5
20
-1055
10
376
20
-1056.5
10
455
20
-1056.5
10
454.5
20
-1049
10
457.5
20
-1045
10
454.5
20
-1038
10
457.5
20
-1030
10
454.5
20
-1023
10
457.5
20
-1015
10
454.5
20
-1008
10
455.5
20
-1003
10
462
20
-997.5
10
471
20
-998.5
10
473
20
-988.5
10
483
20
-988.5
10
485
20
-998.5
10
494
20
-997.5
10
501.5
20
-1004
10
501.5
20
-1009
10
498.5
20
-1014
10
501.5
20
-1019
10
501.5
20
-1024
10
498.5
20
-1029
10
501.5
20
-1035
10
498.5
20
-1043
10
501
20
-1057.5
10
576
20
-1057.5
10
577.5
20
-1056
10
577.5
20
-1033
10
575
20
-1031.5
10
564
20
-1032.5
10
561.5
20
-1030
10
562.5
20
-989
10
577
20
-988.5
10
578.5
20
-987
10
578.5
20
-973
10
577
20
-971.5
10
510
20
-971.5
10
508.5
20
-970
10
509
20
-959.5
10
671
20
-960.5
10
671.5
20
-933
10
679
20
-926.5
10
693
20
-926.5
10
694.5
20
-933
10
692
20
-935.5
10
680.5
20
-936
10
679.5
20
-959
10
681
20
-960.5
10
785
20
-960.5
10
787.5
20
-962
10
787.5
20
-1053
0
LWPOLYLINE
8
REFERENCE_STROKES
90
5
70
0
10
727.5
20
-933
10
725
20
-935.5
10
708
20
-935.5
10
706.5
20
-927
10
726
20
-926.5
0
LWPOLYLINE
8
REFERENCE_STROKES
90
5
70
0
10
760.5
20
-933
10
759
20
-935.5
10
740
20
-935.5
10
739.5
20
-927
10
759
20
-926.5
0
LWPOLYLINE
8
REFERENCE_STROKES
90
7
70
0
10
793.5
20
-934
10
792
20
-935.5
10
774
20
-935.5
10
772.5
20
-928
10
774
20
-926.5
10
791
20
-926.5
10
793.5
20
-928
0
LWPOLYLINE
8
REFERENCE_STROKES
90
9
70
0
10
805.5
20
-935
10
807
20
-926.5
10
837
20
-926.5
10
838.5
20
-928
10
838
20
-935.5
10
824.5
20
-937
10
823
20
-949.5
10
815
20
-949.5
10
814.5
20
-937
0
LWPOLYLINE
8
REFERENCE_STROKES
90
6
70
0
10
872.5
20
-935
10
871
20
-936.5
10
853
20
-936.5
10
851.5
20
-928
10
854
20
-926.5
10
872
20
-927.5
0
LWPOLYLINE
8
REFERENCE_STROKES
90
6
70
0
10
907.5
20
-935
10
906
20
-936.5
10
887
20
-936.5
10
885.5
20
-929
10
888
20
-926.5
10
906
20
-927.5
0
LWPOLYLINE
8
REFERENCE_STROKES
90
6
70
0
10
941.5
20
-935
10
940
20
-936.5
10
921
20
-936.5
10
919.5
20
-931
10
921
20
-927.5
10
940
20
-927.5
0
LWPOLYLINE
8
REFERENCE_STROKES
90
6
70
0
10
976.5
20
-935
10
975
20
-936.5
10
955
20
-936.5
10
954.5
20
-929
10
956
20
-927.5
10
975
20
-927.5
0
LWPOLYLINE
8
REFERENCE_STROKES
90
6
70
0
10
1010.5
20
-935
10
1008
20
-937.5
10
990
20
-937.5
10
988.5
20
-929
10
990
20
-927.5
10
1009
20
-927.5
0
LWPOLYLINE
8
REFERENCE_STROKES
90
6
70
0
10
1044.5
20
-936
10
1043
20
-937.5
10
1024
20
-937.5
10
1022.5
20
-929
10
1024
20
-927.5
10
1044
20
-928.5
0
LWPOLYLINE
8
REFERENCE_STROKES
90
6
70
0
10
1079.5
20
-935
10
1078
20
-937.5
10
1058
20
-937.5
10
1057.5
20
-930
10
1059
20
-928.5
10
1078
20
-928.5
0
LWPOLYLINE
8
REFERENCE_STROKES
90
5
70
0
10
1112.5
20
-937
10
1092
20
-937.5
10
1090.5
20
-931
10
1092
20
-928.5
10
1111
20
-928.5
0
LWPOLYLINE
8
REFERENCE_STROKES
90
9
70
0
10
1149
20
-952.5
10
1140.5
20
-952
10
1138
20
-938.5
10
1127
20
-938.5
10
1124.5
20
-936
10
1126
20
-928.5
10
1139
20
-928.5
10
1146.5
20
-933
10
1149.5
20
-941
0
LWPOLYLINE
8
REFERENCE_STROKES
90
5
70
0
10
99
20
-975.5
10
99.5
20
-942
10
92
20
-940.5
10
88.5
20
-943
10
89.5
20
-975
0
LWPOLYLINE
8
REFERENCE_STROKES
90
6
70
0
10
266
20
-948.5
10
262
20
-948.5
10
260.5
20
-946
10
263
20
-940.5
10
266
20
-940.5
10
268.5
20
-944
0
LWPOLYLINE
8
REFERENCE_STROKES
90
6
70
0
10
113
20
-975.5
10
114.5
20
-974
10
113.5
20
-942
10
103
20
-941.5
10
102.5
20
-974
10
104
20
-975.5
0
LWPOLYLINE
8
REFERENCE_STROKES
90
5
70
0
10
127
20
-975.5
10
127.5
20
-943
10
118
20
-941.5
10
116.5
20
-943
10
117.5
20
-975
0
LWPOLYLINE
8
REFERENCE_STROKES
90
5
70
0
10
141
20
-975.5
10
141.5
20
-943
10
140
20
-941.5
10
131
20
-941.5
10
130.5
20
-975
0
LWPOLYLINE
8
REFERENCE_STROKES
90
5
70
0
10
153
20
-976.5
10
154.5
20
-975
10
154.5
20
-943
10
145
20
-941.5
10
144.5
20
-975
0
LWPOLYLINE
8
REFERENCE_STROKES
90
6
70
0
10
167
20
-976.5
10
168.5
20
-975
10
168.5
20
-943
10
159
20
-941.5
10
157.5
20
-944
10
157.5
20
-975
0
LWPOLYLINE
8
REFERENCE_STROKES
90
6
70
0
10
181
20
-976.5
10
182.5
20
-975
10
182.5
20
-943
10
173
20
-941.5
10
171.5
20
-943
10
171.5
20
-976
0
LWPOLYLINE
8
REFERENCE_STROKES
90
6
70
0
10
195
20
-976.5
10
196.5
20
-975
10
195.5
20
-943
10
187
20
-941.5
10
185.5
20
-943
10
185.5
20
-976
0
LWPOLYLINE
8
REFERENCE_STROKES
90
5
70
0
10
266
20
-962.5
10
260.5
20
-961
10
260.5
20
-957
10
264
20
-954.5
10
268.5
20
-957
0
LWPOLYLINE
8
REFERENCE_STROKES
90
5
70
0
10
2192
20
-994.5
10
2192.5
20
-962
10
2191
20
-960.5
10
2182
20
-960.5
10
2181.5
20
-994
0
LWPOLYLINE
8
REFERENCE_STROKES
90
8
70
0
10
2206
20
-994.5
10
2207.5
20
-993
10
2207.5
20
-962
10
2206
20
-960.5
10
2197
20
-960.5
10
2195.5
20
-962
10
2195.5
20
-993
10
2197
20
-994.5
0
LWPOLYLINE
8
REFERENCE_STROKES
90
5
70
0
10
2221
20
-994.5
10
2222.5
20
-993
10
2221.5
20
-961
10
2211
20
-960.5
10
2210.5
20
-994
0
LWPOLYLINE
8
REFERENCE_STROKES
90
6
70
0
10
2236
20
-994.5
10
2237.5
20
-993
10
2236.5
20
-962
10
2227
20
-960.5
10
2225.5
20
-962
10
2225.5
20
-994
0
LWPOLYLINE
8
REFERENCE_STROKES
90
5
70
0
10
2251
20
-994.5
10
2251.5
20
-962
10
2242
20
-960.5
10
2240.5
20
-962
10
2240.5
20
-994
0
LWPOLYLINE
8
REFERENCE_STROKES
90
6
70
0
10
2264
20
-995.5
10
2266.5
20
-994
10
2266.5
20
-962
10
2258
20
-960.5
10
2254.5
20
-962
10
2254.5
20
-994
0
LWPOLYLINE
8
REFERENCE_STROKES
90
26
70
0
10
781.5
20
-1159
10
784.5
20
-966
10
783
20
-964.5
10
514
20
-962.5
10
511.5
20
-965
10
513
20
-967.5
10
580
20
-968.5
10
581.5
20
-970
10
580.5
20
-1059
10
579
20
-1060.5
10
481
20
-1059.5
10
480.5
20
-992
10
476
20
-991.5
10
474.5
20
-994
10
474.5
20
-1058
10
473
20
-1059.5
10
425
20
-1060.5
10
373
20
-1059.5
10
371.5
20
-1058
10
372.5
20
-969
10
376
20
-966.5
10
443
20
-967.5
10
444
20
-962.5
10
313.5
20
-962
10
312
20
-1157.5
10
731
20
-1160.5
0
LWPOLYLINE
8
REFERENCE_STROKES
90
6
70
0
10
2280
20
-995.5
10
2281.5
20
-994
10
2281.5
20
-962
10
2271
20
-961.5
10
2269.5
20
-963
10
2269.5
20
-994
0
LWPOLYLINE
8
REFERENCE_STROKES
90
5
70
1
10
822
20
-982.5
10
813.5
20
-981
10
815
20
-962.5
10
823.5
20
-964
10
823.5
20
-981
0
LWPOLYLINE
8
REFERENCE_STROKES
90
7
70
0
10
1141
20
-988.5
10
1139.5
20
-987
10
1139.5
20
-968
10
1141
20
-965.5
10
1147
20
-964.5
10
1149.5
20
-966
10
1149.5
20
-987
0
LWPOLYLINE
8
REFERENCE_STROKES
90
8
70
0
10
360
20
-1153.5
10
320
20
-1153.5
10
316.5
20
-1151
10
318.5
20
-968
10
320
20
-966.5
10
365
20
-966.5
10
367.5
20
-971
10
364.5
20
-1151
0
LWPOLYLINE
8
REFERENCE_STROKES
90
57
70
0
10
2018.5
20
-1173
10
2016
20
-1175.5
10
1504
20
-1169.5
10
1501.5
20
-1166
10
1501.5
20
-969
10
1504
20
-966.5
10
1805
20
-970.5
10
1805.5
20
-981
10
1803
20
-982.5
10
1710.5
20
-982
10
1710.5
20
-997
10
1726
20
-997.5
10
1727.5
20
-999
10
1727.5
20
-1040
10
1726
20
-1041.5
10
1710.5
20
-1042
10
1710.5
20
-1066
10
1720
20
-1067.5
10
1813
20
-1068.5
10
1812.5
20
-1060
10
1814.5
20
-1058
10
1814.5
20
-1054
10
1812.5
20
-1051
10
1812.5
20
-1045
10
1814.5
20
-1040
10
1812.5
20
-1037
10
1812.5
20
-1030
10
1814.5
20
-1025
10
1811.5
20
-1017
10
1816
20
-1010.5
10
1828
20
-1010.5
10
1830
20
-999.5
10
1839
20
-999.5
10
1841.5
20
-1001
10
1842
20
-1011.5
10
1853
20
-1010.5
10
1859.5
20
-1016
10
1859.5
20
-1022
10
1856.5
20
-1027
10
1859.5
20
-1031
10
1859.5
20
-1038
10
1857.5
20
-1040
10
1859.5
20
-1053
10
1857.5
20
-1058
10
1859.5
20
-1060
10
1861
20
-1069.5
10
1949.5
20
-1069
10
1949.5
20
-1046
10
1935.5
20
-1044
10
1934.5
20
-1002
10
1948.5
20
-1001
10
1948.5
20
-985
10
1867
20
-983.5
10
1865.5
20
-982
10
1866
20
-971.5
10
2015
20
-972.5
10
2017.5
20
-974
0
LWPOLYLINE
8
REFERENCE_STROKES
90
8
70
1
10
645
20
-1060.5
10
589
20
-1061.5
10
586.5
20
-1060
10
586.5
20
-973
10
589
20
-968.5
10
645
20
-968.5
10
647.5
20
-971
10
646.5
20
-1059
0
LWPOLYLINE
8
REFERENCE_STROKES
90
9
70
0
10
775
20
-1153.5
10
691
20
-1154.5
10
652
20
-1153.5
10
650.5
20
-1152
10
653.5
20
-970
10
655
20
-968.5
10
777
20
-969.5
10
778.5
20
-971
10
776.5
20
-1149
0
LWPOLYLINE
8
REFERENCE_STROKES
90
5
70
0
10
267
20
-976.5
10
263
20
-976.5
10
260.5
20
-974
10
263
20
-969.5
10
268.5
20
-971
0
LWPOLYLINE
8
REFERENCE_STROKES
90
7
70
0
10
360
20
-1149.5
10
361.5
20
-1148
10
363.5
20
-972
10
362
20
-970.5
10
324
20
-969.5
10
322.5
20
-971
10
320.5
20
-1149
0
LWPOLYLINE
8
REFERENCE_STROKES
90
43
70
1
10
551.5
20
-1427
10
551.5
20
-1362
10
556.5
20
-1212
10
559
20
-1209.5
10
807
20
-1211.5
10
808.5
20
-1218
10
805.5
20
-1340
10
809
20
-1340.5
10
810.5
20
-1338
10
812.5
20
-1215
10
815
20
-1211.5
10
892
20
-1211.5
10
893.5
20
-1213
10
891.5
20
-1290
10
893
20
-1291.5
10
897.5
20
-1290
10
898.5
20
-1207
10
895
20
-1205.5
10
854
20
-1205.5
10
852.5
20
-1204
10
857.5
20
-972
10
859
20
-970.5
10
1022
20
-970.5
10
1041
20
-971.5
10
1042.5
20
-973
10
1036.5
20
-1325
10
1034
20
-1327.5
10
898
20
-1327.5
10
896
20
-1316.5
10
891.5
20
-1317
10
891.5
20
-1325
10
889
20
-1327.5
10
862
20
-1327.5
10
859.5
20
-1429
10
858
20
-1430.5
10
813
20
-1430.5
10
808.5
20
-1427
10
809.5
20
-1367
10
808
20
-1365.5
10
804.5
20
-1367
10
804.5
20
-1425
10
802
20
-1430.5
10
554
20
-1429.5
0
LWPOLYLINE
8
REFERENCE_STROKES
90
29
70
0
10
2014.5
20
-1171
10
2014.5
20
-1004
10
2013
20
-976.5
10
1870
20
-974.5
10
1870
20
-979.5
10
1950
20
-980.5
10
1951.5
20
-982
10
1953.5
20
-1003
10
1953.5
20
-1071
10
1952
20
-1072.5
10
1848
20
-1072.5
10
1841
20
-1071.5
10
1838.5
20
-1069
10
1838.5
20
-1009
10
1837
20
-1003.5
10
1832.5
20
-1004
10
1832.5
20
-1070
10
1831
20
-1071.5
10
1711
20
-1070.5
10
1707.5
20
-1068
10
1707.5
20
-979
10
1709
20
-977.5
10
1801
20
-978.5
10
1800
20
-973.5
10
1507
20
-970.5
10
1505.5
20
-972
10
1505.5
20
-1164
10
1507
20
-1165.5
10
1828
20
-1170.5
0
LWPOLYLINE
8
REFERENCE_STROKES
90
7
70
0
10
642
20
-1057.5
10
643.5
20
-1056
10
644.5
20
-974
10
640
20
-971.5
10
592
20
-971.5
10
590.5
20
-973
10
590.5
20
-1057
0
LWPOLYLINE
8
REFERENCE_STROKES
90
23
70
0
10
769
20
-1150.5
10
770.5
20
-1148
10
767.5
20
-1144
10
770
20
-1143.5
10
772.5
20
-1139
10
772.5
20
-1120
10
766.5
20
-1116
10
772
20
-1113.5
10
772.5
20
-1111
10
770.5
20
-1109
10
771.5
20
-1107
10
766.5
20
-1105
10
772.5
20
-1101
10
771.5
20
-1097
10
773.5
20
-1087
10
774.5
20
-986
10
767.5
20
-978
10
774
20
-976.5
10
774.5
20
-974
10
658
20
-972.5
10
656.5
20
-979
10
656.5
20
-1061
10
653.5
20
-1149
0
LWPOLYLINE
8
REFERENCE_STROKES
90
17
70
0
10
1031
20
-1324.5
10
1032.5
20
-1323
10
1034.5
20
-1266
10
1039.5
20
-975
10
861
20
-973.5
10
855.5
20
-1201
10
857
20
-1202.5
10
901
20
-1202.5
10
903.5
20
-1206
10
900.5
20
-1294
10
885
20
-1297.5
10
878.5
20
-1303
10
875.5
20
-1311
10
877
20
-1312.5
10
898
20
-1312.5
10
900.5
20
-1315
10
901
20
-1323.5
0
LWPOLYLINE
8
REFERENCE_STROKES
90
42
70
0
10
1737.5
20
-1434
10
1735
20
-1436.5
10
1485
20
-1434.5
10
1480.5
20
-1431
10
1481.5
20
-1373
10
1480
20
-1370.5
10
1476.5
20
-1371
10
1475.5
20
-1432
10
1474
20
-1433.5
10
1427
20
-1433.5
10
1424.5
20
-1431
10
1426.5
20
-1332
10
1425
20
-1330.5
10
1402
20
-1330.5
10
1399
20
-1319.5
10
1395.5
20
-1321
10
1395.5
20
-1328
10
1393
20
-1330.5
10
1254
20
-1328.5
10
1252.5
20
-1327
10
1254.5
20
-976
10
1257
20
-973.5
10
1439
20
-975.5
10
1440.5
20
-977
10
1439.5
20
-1208
10
1437
20
-1210.5
10
1397
20
-1209.5
10
1395.5
20
-1211
10
1395.5
20
-1294
10
1401.5
20
-1293
10
1400.5
20
-1221
10
1402
20
-1215.5
10
1475
20
-1216.5
10
1476.5
20
-1219
10
1476.5
20
-1344
10
1478
20
-1345.5
10
1481.5
20
-1343
10
1480.5
20
-1222
10
1481.5
20
-1218
10
1485
20
-1215.5
10
1737
20
-1220.5
10
1738.5
20
-1223
0
LWPOLYLINE
8
REFERENCE_STROKES
90
8
70
0
10
1635
20
-1162.5
10
1513
20
-1160.5
10
1511.5
20
-1159
10
1510.5
20
-979
10
1513
20
-975.5
10
1634
20
-976.5
10
1636.5
20
-978
10
1638.5
20
-1158
0
LWPOLYLINE
8
REFERENCE_STROKES
90
8
70
1
10
1700
20
-1069.5
10
1645
20
-1069.5
10
1643.5
20
-1068
10
1643.5
20
-978
10
1645
20
-976.5
10
1699
20
-977.5
10
1701.5
20
-979
10
1701.5
20
-1068
0
LWPOLYLINE
8
REFERENCE_STROKES
90
18
70
0
10
1391
20
-1326.5
10
1392
20
-1316.5
10
1400
20
-1314.5
10
1414
20
-1315.5
10
1415.5
20
-1314
10
1414.5
20
-1308
10
1409
20
-1301.5
10
1403
20
-1298.5
10
1393
20
-1298.5
10
1391.5
20
-1297
10
1391.5
20
-1208
10
1395
20
-1205.5
10
1435
20
-1206.5
10
1436.5
20
-1205
10
1437.5
20
-980
10
1428
20
-978.5
10
1259
20
-977.5
10
1256.5
20
-1325
0
LWPOLYLINE
8
REFERENCE_STROKES
90
6
70
0
10
1634
20
-1158.5
10
1633.5
20
-981
10
1516
20
-978.5
10
1514.5
20
-980
10
1514.5
20
-1156
10
1516
20
-1157.5
0
LWPOLYLINE
8
REFERENCE_STROKES
90
35
70
1
10
607
20
-1022.5
10
604.5
20
-1020
10
604.5
20
-1013
10
608
20
-1010.5
10
615
20
-1011.5
10
615.5
20
-1009
10
606
20
-1003.5
10
604.5
20
-1000
10
606
20
-998.5
10
615
20
-998.5
10
617.5
20
-995
10
606
20
-990.5
10
604.5
20
-987
10
623
20
-979.5
10
624.5
20
-982
10
618.5
20
-986
10
618.5
20
-991
10
623.5
20
-994
10
622
20
-996.5
10
619.5
20
-996
10
623.5
20
-999
10
623.5
20
-1001
10
619.5
20
-1003
10
619.5
20
-1010
10
623.5
20
-1014
10
623.5
20
-1019
10
621
20
-1022.5
10
618
20
-1022.5
10
616.5
20
-1021
10
619.5
20
-1018
10
619
20
-1014.5
10
615
20
-1018.5
10
609
20
-1014.5
10
608.5
20
-1018
10
610.5
20
-1021
0
LWPOLYLINE
8
REFERENCE_STROKES
90
7
70
0
10
1697
20
-1066.5
10
1698.5
20
-1065
10
1698.5
20
-983
10
1686
20
-980.5
10
1648
20
-980.5
10
1646.5
20
-983
10
1647.5
20
-1065
0
LWPOLYLINE
8
REFERENCE_STROKES
90
8
70
0
10
2006
20
-1166.5
10
1972
20
-1166.5
10
1959.5
20
-1164
10
1957.5
20
-983
10
1961
20
-980.5
10
2007
20
-981.5
10
2008.5
20
-983
10
2009.5
20
-1163
0
LWPOLYLINE
8
REFERENCE_STROKES
90
5
70
0
10
265
20
-990.5
10
260.5
20
-987
10
264
20
-981.5
10
268.5
20
-984
10
268.5
20
-988
0
LWPOLYLINE
8
REFERENCE_STROKES
90
10
70
1
10
198
20
-1200.5
10
147
20
-1201.5
10
43
20
-1200.5
10
33.5
20
-1199
10
32.5
20
-1126
10
36.5
20
-986
10
38
20
-984.5
10
198
20
-985.5
10
201.5
20
-987
10
199.5
20
-1199
0
LWPOLYLINE
8
REFERENCE_STROKES
90
7
70
0
10
2005
20
-1162.5
10
2004.5
20
-985
10
1962
20
-984.5
10
1960.5
20
-988
10
1963.5
20
-1100
10
1962.5
20
-1160
10
1964
20
-1162.5
0
LWPOLYLINE
8
REFERENCE_STROKES
90
11
70
0
10
195
20
-1197.5
10
196.5
20
-1196
10
195.5
20
-1125
10
198.5
20
-991
10
197
20
-989.5
10
41
20
-987.5
10
39.5
20
-989
10
39.5
20
-1048
10
36.5
20
-1112
10
36.5
20
-1195
10
38
20
-1196.5
0
LWPOLYLINE
8
REFERENCE_STROKES
90
9
70
0
10
1677.5
20
-989
10
1677.5
20
-992
10
1672.5
20
-995
10
1672.5
20
-1000
10
1676
20
-1001.5
10
1677
20
-1004.5
10
1665
20
-1001.5
10
1658.5
20
-997
10
1662
20
-993.5
0
LWPOLYLINE
8
REFERENCE_STROKES
90
6
70
1
10
384
20
-1003.5
10
385.5
20
-996
10
382
20
-993.5
10
380.5
20
-996
10
382.5
20
-1000
10
380.5
20
-1003
0
LWPOLYLINE
8
REFERENCE_STROKES
90
8
70
1
10
821
20
-1016.5
10
815
20
-1016.5
10
813.5
20
-1014
10
814.5
20
-996
10
816
20
-994.5
10
821
20
-994.5
10
823.5
20
-997
10
822.5
20
-1015
0
LWPOLYLINE
8
REFERENCE_STROKES
90
6
70
1
10
572
20
-1005.5
10
570.5
20
-999
10
572.5
20
-996
10
569
20
-995.5
10
566.5
20
-1001
10
569
20
-1005.5
0
LWPOLYLINE
8
REFERENCE_STROKES
90
5
70
1
10
266
20
-1004.5
10
260.5
20
-1003
10
262
20
-996.5
10
268.5
20
-998
10
268.5
20
-1002
0
LWPOLYLINE
8
REFERENCE_STROKES
90
7
70
1
10
1148
20
-1023.5
10
1139.5
20
-1023
10
1139.5
20
-1002
10
1141
20
-1000.5
10
1148
20
-1000.5
10
1149.5
20
-1003
10
1149.5
20
-1021
0
LWPOLYLINE
8
REFERENCE_STROKES
90
9
70
1
10
2332
20
-1219.5
10
2167
20
-1219.5
10
2163.5
20
-1217
10
2162.5
20
-1007
10
2165
20
-1002.5
10
2330
20
-1003.5
10
2332.5
20
-1006
10
2334.5
20
-1145
10
2333.5
20
-1218
0
LWPOLYLINE
8
REFERENCE_STROKES
90
6
70
0
10
1721
20
-1013.5
10
1722.5
20
-1007
10
1721
20
-1004.5
10
1717
20
-1004.5
10
1719.5
20
-1010
10
1716.5
20
-1013
0
LWPOLYLINE
8
REFERENCE_STROKES
90
7
70
0
10
375.5
20
-1011
10
377
20
-1012.5
10
380
20
-1010.5
10
387
20
-1011.5
10
387.5
20
-1007
10
381
20
-1007.5
10
377
20
-1005.5
0
LWPOLYLINE
8
REFERENCE_STROKES
90
12
70
0
10
1677.5
20
-1014
10
1673
20
-1017.5
10
1664
20
-1017.5
10
1659.5
20
-1014
10
1658.5
20
-1009
10
1663
20
-1006.5
10
1662.5
20
-1012
10
1665
20
-1013.5
10
1665.5
20
-1008
10
1668
20
-1005.5
10
1673
20
-1005.5
10
1677.5
20
-1009
0
LWPOLYLINE
8
REFERENCE_STROKES
90
6
70
0
10
2328
20
-1216.5
10
2329.5
20
-1215
10
2330.5
20
-1157
10
2328.5
20
-1008
10
2167
20
-1006.5
10
2167.5
20
-1215
0
LWPOLYLINE
8
REFERENCE_STROKES
90
6
70
0
10
577.5
20
-1014
10
577
20
-1007.5
10
572
20
-1009.5
10
565.5
20
-1009
10
566
20
-1012.5
10
572
20
-1011.5
0
LWPOLYLINE
8
REFERENCE_STROKES
90
7
70
1
10
1944
20
-1018.5
10
1945.5
20
-1015
10
1943.5
20
-1012
10
1945.5
20
-1009
10
1942
20
-1007.5
10
1939.5
20
-1014
10
1940.5
20
-1017
0
LWPOLYLINE
8
REFERENCE_STROKES
90
4
70
0
10
1674.5
20
-1012
10
1673
20
-1009.5
10
1668.5
20
-1010
10
1669
20
-1013.5
0
LWPOLYLINE
8
REFERENCE_STROKES
90
4
70
0
10
266
20
-1018.5
10
260.5
20
-1016
10
263
20
-1010.5
10
268.5
20
-1013
0
LWPOLYLINE
8
REFERENCE_STROKES
90
6
70
0
10
381
20
-1024.5
10
385.5
20
-1022
10
385.5
20
-1016
10
383
20
-1013.5
10
380.5
20
-1015
10
382.5
20
-1018
0
LWPOLYLINE
8
REFERENCE_STROKES
90
6
70
0
10
571
20
-1025.5
10
572.5
20
-1023
10
570.5
20
-1019
10
572.5
20
-1016
10
569
20
-1015.5
10
566.5
20
-1022
0
LWPOLYLINE
8
REFERENCE_STROKES
90
6
70
0
10
1712.5
20
-1023
10
1718
20
-1020.5
10
1724
20
-1021.5
10
1723.5
20
-1017
10
1717
20
-1017.5
10
1713
20
-1015.5
0
LWPOLYLINE
8
REFERENCE_STROKES
90
18
70
0
10
1677
20
-1042.5
10
1675
20
-1042.5
10
1673
20
-1038.5
10
1665
20
-1038.5
10
1663
20
-1042.5
10
1659.5
20
-1039
10
1661
20
-1034.5
10
1673
20
-1034.5
10
1674.5
20
-1033
10
1673
20
-1026.5
10
1665
20
-1026.5
10
1664.5
20
-1029
10
1662
20
-1029.5
10
1659.5
20
-1027
10
1661
20
-1022.5
10
1673
20
-1022.5
10
1676
20
-1018.5
10
1677.5
20
-1020
0
LWPOLYLINE
8
REFERENCE_STROKES
90
5
70
1
10
494
20
-1024.5
10
496.5
20
-1022
10
495
20
-1019.5
10
492.5
20
-1020
10
492.5
20
-1024
0
LWPOLYLINE
8
REFERENCE_STROKES
90
6
70
0
10
1950.5
20
-1026
10
1949
20
-1020.5
10
1944
20
-1022.5
10
1938.5
20
-1022
10
1939
20
-1025.5
10
1945
20
-1024.5
0
LWPOLYLINE
8
REFERENCE_STROKES
90
11
70
0
10
623.5
20
-1034
10
621
20
-1035.5
10
619
20
-1031.5
10
610
20
-1031.5
10
609.5
20
-1034
10
607
20
-1034.5
10
604.5
20
-1032
10
604.5
20
-1028
10
619
20
-1027.5
10
622
20
-1023.5
10
623.5
20
-1025
0
LWPOLYLINE
8
REFERENCE_STROKES
90
6
70
0
10
264
20
-1032.5
10
260.5
20
-1030
10
262
20
-1024.5
10
266
20
-1024.5
10
268.5
20
-1027
10
268.5
20
-1029
0
LWPOLYLINE
8
REFERENCE_STROKES
90
6
70
0
10
1721
20
-1034.5
10
1722.5
20
-1027
10
1721
20
-1024.5
10
1718
20
-1024.5
10
1719.5
20
-1030
10
1716.5
20
-1033
0
LWPOLYLINE
8
REFERENCE_STROKES
90
6
70
1
10
821
20
-1049.5
10
813.5
20
-1048
10
813.5
20
-1030
10
815
20
-1028.5
10
822.5
20
-1029
10
822.5
20
-1048
0
LWPOLYLINE
8
REFERENCE_STROKES
90
6
70
0
10
1945
20
-1038.5
10
1946.5
20
-1036
10
1943.5
20
-1032
10
1945.5
20
-1029
10
1942
20
-1028.5
10
1940.5
20
-1037
0
LWPOLYLINE
8
REFERENCE_STROKES
90
4
70
1
10
1853
20
-1036.5
10
1854.5
20
-1033
10
1851
20
-1031.5
10
1850.5
20
-1036
0
LWPOLYLINE
8
REFERENCE_STROKES
90
4
70
0
10
463
20
-1039.5
10
463.5
20
-1035
10
461
20
-1034.5
10
459.5
20
-1037
0
LWPOLYLINE
8
REFERENCE_STROKES
90
5
70
1
10
494
20
-1039.5
10
496.5
20
-1037
10
495
20
-1034.5
10
492.5
20
-1035
10
492.5
20
-1039
0
LWPOLYLINE
8
REFERENCE_STROKES
90
6
70
1
10
1147
20
-1059.5
10
1139.5
20
-1059
10
1139.5
20
-1038
10
1141
20
-1036.5
10
1148.5
20
-1038
10
1148.5
20
-1058
0
LWPOLYLINE
8
REFERENCE_STROKES
90
16
70
0
10
622.5
20
-1048
10
620
20
-1049.5
10
616.5
20
-1048
10
619.5
20
-1045
10
619
20
-1041.5
10
617
20
-1041.5
10
615
20
-1045.5
10
609
20
-1041.5
10
607.5
20
-1044
10
610.5
20
-1048
10
607
20
-1049.5
10
603.5
20
-1045
10
603.5
20
-1042
10
608
20
-1037.5
10
620
20
-1037.5
10
623.5
20
-1042
0
LWPOLYLINE
8
REFERENCE_STROKES
90
6
70
0
10
265
20
-1046.5
10
261
20
-1045.5
10
259.5
20
-1043
10
262
20
-1038.5
10
267
20
-1038.5
10
268.5
20
-1041
0
LWPOLYLINE
8
REFERENCE_STROKES
90
15
70
0
10
1677.5
20
-1054
10
1672
20
-1056.5
10
1673.5
20
-1049
10
1671
20
-1048.5
10
1670.5
20
-1051
10
1667
20
-1052.5
10
1664
20
-1048.5
10
1662.5
20
-1051
10
1664.5
20
-1056
10
1662
20
-1056.5
10
1658.5
20
-1052
10
1658.5
20
-1048
10
1663
20
-1044.5
10
1674
20
-1044.5
10
1677.5
20
-1048
0
LWPOLYLINE
8
REFERENCE_STROKES
90
4
70
1
10
1851
20
-1051.5
10
1854.5
20
-1050
10
1853
20
-1046.5
10
1850.5
20
-1048
0
LWPOLYLINE
8
REFERENCE_STROKES
90
20
70
0
10
686
20
-1069.5
10
683.5
20
-1063
10
686
20
-1061.5
10
689
20
-1064.5
10
693
20
-1064.5
10
693.5
20
-1062
10
690
20
-1060.5
10
688.5
20
-1057
10
693.5
20
-1053
10
690
20
-1051.5
10
687
20
-1054.5
10
684
20
-1054.5
10
683.5
20
-1051
10
687
20
-1048.5
10
694
20
-1047.5
10
698.5
20
-1052
10
696.5
20
-1057
10
698.5
20
-1061
10
697.5
20
-1067
10
693
20
-1069.5
0
LWPOLYLINE
8
REFERENCE_STROKES
90
36
70
0
10
746.5
20
-1063
10
743.5
20
-1065
10
743
20
-1069.5
10
740
20
-1069.5
10
738
20
-1064.5
10
730
20
-1064.5
10
725
20
-1069.5
10
720
20
-1069.5
10
716
20
-1066.5
10
712
20
-1069.5
10
701
20
-1069.5
10
699.5
20
-1067
10
705.5
20
-1064
10
705.5
20
-1055
10
702
20
-1054.5
10
700.5
20
-1052
10
707
20
-1047.5
10
709
20
-1048.5
10
709.5
20
-1064
10
715
20
-1065.5
10
717
20
-1061.5
10
723
20
-1065.5
10
725.5
20
-1062
10
720
20
-1060.5
10
719.5
20
-1058
10
724.5
20
-1053
10
717
20
-1054.5
10
715.5
20
-1051
10
718
20
-1048.5
10
727
20
-1048.5
10
729.5
20
-1051
10
728.5
20
-1059
10
730
20
-1060.5
10
738
20
-1049.5
10
743
20
-1048.5
10
743.5
20
-1060
0
LWPOLYLINE
8
REFERENCE_STROKES
90
5
70
1
10
494
20
-1054.5
10
496.5
20
-1052
10
495
20
-1049.5
10
492.5
20
-1050
10
492.5
20
-1054
0
LWPOLYLINE
8
REFERENCE_STROKES
90
5
70
1
10
265
20
-1060.5
10
259.5
20
-1058
10
262
20
-1052.5
10
267.5
20
-1054
10
267.5
20
-1058
0
LWPOLYLINE
8
REFERENCE_STROKES
90
20
70
0
10
1554
20
-1075.5
10
1550
20
-1075.5
10
1544.5
20
-1071
10
1546
20
-1067.5
10
1551
20
-1070.5
10
1554.5
20
-1070
10
1554.5
20
-1068
10
1549.5
20
-1065
10
1549.5
20
-1063
10
1554.5
20
-1059
10
1551
20
-1057.5
10
1548
20
-1060.5
10
1545.5
20
-1060
10
1545.5
20
-1056
10
1550
20
-1053.5
10
1554
20
-1053.5
10
1558.5
20
-1057
10
1557.5
20
-1065
10
1559.5
20
-1067
10
1559.5
20
-1071
0
LWPOLYLINE
8
REFERENCE_STROKES
90
19
70
1
10
1587.5
20
-1075
10
1562
20
-1074.5
10
1561.5
20
-1072
10
1565.5
20
-1070
10
1565.5
20
-1060
10
1563
20
-1060.5
10
1561.5
20
-1058
10
1568
20
-1053.5
10
1570.5
20
-1056
10
1570.5
20
-1070
10
1578
20
-1071.5
10
1579.5
20
-1070
10
1579.5
20
-1061
10
1576
20
-1060.5
10
1575.5
20
-1057
10
1579
20
-1054.5
10
1583
20
-1054.5
10
1583.5
20
-1070
10
1587.5
20
-1072
0
LWPOLYLINE
8
REFERENCE_STROKES
90
14
70
0
10
1597
20
-1076.5
10
1594
20
-1075.5
10
1589.5
20
-1069
10
1589.5
20
-1061
10
1594
20
-1054.5
10
1600
20
-1054.5
10
1603.5
20
-1057
10
1603
20
-1059.5
10
1596
20
-1058.5
10
1594.5
20
-1060
10
1595
20
-1061.5
10
1602
20
-1062.5
10
1604.5
20
-1067
10
1602.5
20
-1074
0
LWPOLYLINE
8
REFERENCE_STROKES
90
4
70
1
10
1821
20
-1065.5
10
1821.5
20
-1063
10
1819
20
-1060.5
10
1817.5
20
-1065
0
LWPOLYLINE
8
REFERENCE_STROKES
90
6
70
0
10
821
20
-1082.5
10
812.5
20
-1081
10
813.5
20
-1063
10
815
20
-1061.5
10
821
20
-1061.5
10
822.5
20
-1064
0
LWPOLYLINE
8
REFERENCE_STROKES
90
4
70
1
10
1853
20
-1066.5
10
1854.5
20
-1063
10
1852
20
-1061.5
10
1850.5
20
-1065
0
LWPOLYLINE
8
REFERENCE_STROKES
90
5
70
0
10
265
20
-1073.5
10
259.5
20
-1071
10
259.5
20
-1068
10
263
20
-1065.5
10
267.5
20
-1068
0
LWPOLYLINE
8
REFERENCE_STROKES
90
7
70
0
10
473.5
20
-1152
10
472
20
-1153.5
10
373
20
-1153.5
10
369.5
20
-1149
10
371.5
20
-1067
10
373
20
-1065.5
10
474
20
-1066.5
0
LWPOLYLINE
8
REFERENCE_STROKES
90
4
70
1
10
1598
20
-1071.5
10
1599.5
20
-1067
10
1595
20
-1065.5
10
1594.5
20
-1070
0
LWPOLYLINE
8
REFERENCE_STROKES
90
7
70
0
10
519
20
-1153.5
10
481
20
-1153.5
10
478.5
20
-1150
10
479.5
20
-1069
10
481
20
-1066.5
10
521.5
20
-1067
10
521.5
20
-1148
0
LWPOLYLINE
8
REFERENCE_STROKES
90
8
70
1
10
578
20
-1153.5
10
530
20
-1154.5
10
526.5
20
-1152
10
527.5
20
-1068
10
529
20
-1066.5
10
579
20
-1066.5
10
580.5
20
-1068
10
579.5
20
-1152
0
LWPOLYLINE
8
REFERENCE_STROKES
90
8
70
1
10
642
20
-1154.5
10
587
20
-1154.5
10
584.5
20
-1152
10
585.5
20
-1070
10
588
20
-1066.5
10
639
20
-1066.5
10
645.5
20
-1068
10
644.5
20
-1152
0
LWPOLYLINE
8
REFERENCE_STROKES
90
6
70
0
10
470.5
20
-1148
10
470
20
-1069.5
10
374.5
20
-1070
10
373.5
20
-1148
10
375
20
-1149.5
10
467
20
-1150.5
0
LWPOLYLINE
8
REFERENCE_STROKES
90
8
70
0
10
516
20
-1150.5
10
517.5
20
-1149
10
518.5
20
-1071
10
516
20
-1069.5
10
485
20
-1069.5
10
483.5
20
-1071
10
482.5
20
-1149
10
484
20
-1150.5
0
LWPOLYLINE
8
REFERENCE_STROKES
90
6
70
0
10
575
20
-1150.5
10
576.5
20
-1071
10
533
20
-1069.5
10
530.5
20
-1083
10
529.5
20
-1149
10
531
20
-1150.5
0
LWPOLYLINE
8
REFERENCE_STROKES
90
19
70
0
10
641
20
-1150.5
10
641.5
20
-1135
10
640
20
-1133.5
10
626.5
20
-1133
10
626.5
20
-1112
10
629
20
-1109.5
10
641
20
-1109.5
10
642.5
20
-1108
10
642.5
20
-1093
10
641
20
-1091.5
10
629
20
-1092.5
10
624.5
20
-1088
10
624.5
20
-1080
10
631
20
-1074.5
10
642
20
-1075.5
10
642.5
20
-1071
10
591
20
-1070.5
10
589.5
20
-1072
10
588.5
20
-1150
0
LWPOLYLINE
8
REFERENCE_STROKES
90
6
70
1
10
1147
20
-1094.5
10
1138.5
20
-1093
10
1138.5
20
-1074
10
1141
20
-1071.5
10
1148.5
20
-1073
10
1148.5
20
-1092
0
LWPOLYLINE
8
REFERENCE_STROKES
90
20
70
0
10
89
20
-1101.5
10
84
20
-1101.5
10
77.5
20
-1096
10
79
20
-1092.5
10
85
20
-1096.5
10
89
20
-1096.5
10
91.5
20
-1094
10
90
20
-1090.5
10
83.5
20
-1088
10
90.5
20
-1083
10
90.5
20
-1080
10
86
20
-1078.5
10
82
20
-1082.5
10
78.5
20
-1081
10
78.5
20
-1079
10
84
20
-1074.5
10
93
20
-1075.5
10
95.5
20
-1079
10
94.5
20
-1089
10
96.5
20
-1095
0
LWPOLYLINE
8
REFERENCE_STROKES
90
10
70
0
10
113
20
-1101.5
10
98.5
20
-1100
10
100
20
-1096.5
10
104.5
20
-1096
10
105.5
20
-1082
10
99.5
20
-1081
10
107
20
-1074.5
10
110.5
20
-1077
10
109.5
20
-1096
10
115.5
20
-1098
0
LWPOLYLINE
8
REFERENCE_STROKES
90
29
70
0
10
154.5
20
-1079
10
154.5
20
-1085
10
152.5
20
-1088
10
155.5
20
-1092
10
155.5
20
-1096
10
150
20
-1101.5
10
141
20
-1101.5
10
136
20
-1095.5
10
134
20
-1095.5
10
130
20
-1101.5
10
126
20
-1095.5
10
116.5
20
-1095
10
116.5
20
-1091
10
129
20
-1075.5
10
132
20
-1075.5
10
133.5
20
-1078
10
132.5
20
-1090
10
147
20
-1097.5
10
149.5
20
-1096
10
149.5
20
-1092
10
144
20
-1090.5
10
142.5
20
-1087
10
147
20
-1085.5
10
149.5
20
-1081
10
144
20
-1079.5
10
139
20
-1082.5
10
137.5
20
-1079
10
142
20
-1075.5
10
151
20
-1075.5
0
LWPOLYLINE
8
REFERENCE_STROKES
90
7
70
0
10
1700
20
-1162.5
10
1644.5
20
-1162
10
1643.5
20
-1077
10
1645
20
-1075.5
10
1699
20
-1075.5
10
1701.5
20
-1077
10
1702.5
20
-1159
0
LWPOLYLINE
8
REFERENCE_STROKES
90
7
70
1
10
1765
20
-1163.5
10
1710
20
-1163.5
10
1707.5
20
-1161
10
1708
20
-1076.5
10
1764
20
-1076.5
10
1765.5
20
-1078
10
1766.5
20
-1162
0
LWPOLYLINE
8
REFERENCE_STROKES
90
8
70
0
10
1832
20
-1164.5
10
1787
20
-1164.5
10
1772.5
20
-1162
10
1771.5
20
-1079
10
1773
20
-1077.5
10
1832
20
-1077.5
10
1833.5
20
-1079
10
1834.5
20
-1160
0
LWPOLYLINE
8
REFERENCE_STROKES
90
7
70
0
10
1953.5
20
-1165
10
1841
20
-1164.5
10
1838.5
20
-1160
10
1838.5
20
-1080
10
1841
20
-1077.5
10
1952
20
-1079.5
10
1954.5
20
-1083
0
LWPOLYLINE
8
REFERENCE_STROKES
90
19
70
0
10
1698
20
-1159.5
10
1698.5
20
-1080
10
1648
20
-1078.5
10
1646.5
20
-1081
10
1648
20
-1088.5
10
1660
20
-1088.5
10
1662.5
20
-1091
10
1662.5
20
-1110
10
1661
20
-1112.5
10
1647.5
20
-1113
10
1646.5
20
-1129
10
1648
20
-1130.5
10
1660
20
-1130.5
10
1664.5
20
-1135
10
1664.5
20
-1142
10
1657
20
-1147.5
10
1648
20
-1146.5
10
1647.5
20
-1158
10
1649
20
-1159.5
0
LWPOLYLINE
8
REFERENCE_STROKES
90
6
70
0
10
265
20
-1087.5
10
261
20
-1087.5
10
258.5
20
-1085
10
260
20
-1080.5
10
265
20
-1079.5
10
267.5
20
-1084
0
LWPOLYLINE
8
REFERENCE_STROKES
90
7
70
0
10
1761
20
-1160.5
10
1762.5
20
-1159
10
1762.5
20
-1082
10
1761
20
-1080.5
10
1712
20
-1079.5
10
1710.5
20
-1082
10
1711.5
20
-1159
0
LWPOLYLINE
8
REFERENCE_STROKES
90
7
70
0
10
1829
20
-1160.5
10
1830.5
20
-1159
10
1829.5
20
-1082
10
1828
20
-1080.5
10
1776
20
-1080.5
10
1775.5
20
-1159
10
1777
20
-1160.5
0
LWPOLYLINE
8
REFERENCE_STROKES
90
7
70
1
10
1950.5
20
-1160
10
1950.5
20
-1084
10
1949
20
-1082.5
10
1842.5
20
-1082
10
1842.5
20
-1159
10
1845
20
-1161.5
10
1949
20
-1161.5
0
LWPOLYLINE
8
REFERENCE_STROKES
90
16
70
0
10
501
20
-1110.5
10
488.5
20
-1103
10
490
20
-1098.5
10
501.5
20
-1097
10
501
20
-1095.5
10
492
20
-1095.5
10
488.5
20
-1093
10
487.5
20
-1088
10
493
20
-1082.5
10
503
20
-1082.5
10
507.5
20
-1087
10
507.5
20
-1091
10
502.5
20
-1095
10
506.5
20
-1101
10
503.5
20
-1103
10
503.5
20
-1107
0
LWPOLYLINE
8
REFERENCE_STROKES
90
21
70
0
10
559
20
-1107.5
10
553.5
20
-1108
10
556.5
20
-1104
10
555
20
-1100.5
10
551
20
-1104.5
10
546
20
-1101.5
10
546
20
-1108.5
10
541.5
20
-1107
10
541.5
20
-1099
10
544
20
-1096.5
10
551
20
-1097.5
10
552.5
20
-1096
10
552
20
-1094.5
10
544
20
-1094.5
10
541.5
20
-1092
10
543
20
-1083.5
10
558
20
-1082.5
10
560.5
20
-1085
10
560.5
20
-1092
10
556.5
20
-1095
10
560.5
20
-1101
0
LWPOLYLINE
8
REFERENCE_STROKES
90
4
70
1
10
124
20
-1091.5
10
128.5
20
-1090
10
128
20
-1085.5
10
123.5
20
-1089
0
LWPOLYLINE
8
REFERENCE_STROKES
90
5
70
0
10
503.5
20
-1090
10
502
20
-1086.5
10
494
20
-1086.5
10
491.5
20
-1089
10
496
20
-1092.5
0
LWPOLYLINE
8
REFERENCE_STROKES
90
21
70
0
10
1740
20
-1119.5
10
1737.5
20
-1119
10
1739
20
-1109.5
10
1736
20
-1109.5
10
1734
20
-1114.5
10
1732
20
-1114.5
10
1728
20
-1109.5
10
1726.5
20
-1111
10
1728
20
-1118.5
10
1722.5
20
-1115
10
1723.5
20
-1107
10
1728.5
20
-1104
10
1722.5
20
-1098
10
1722.5
20
-1094
10
1726
20
-1089.5
10
1740
20
-1089.5
10
1744.5
20
-1095
10
1743.5
20
-1100
10
1737.5
20
-1103
10
1743.5
20
-1108
10
1743.5
20
-1116
0
LWPOLYLINE
8
REFERENCE_STROKES
90
9
70
0
10
1809.5
20
-1100
10
1805
20
-1103.5
10
1798
20
-1101.5
10
1792
20
-1102.5
10
1788.5
20
-1099
10
1788.5
20
-1093
10
1792
20
-1089.5
10
1806
20
-1089.5
10
1809.5
20
-1093
0
LWPOLYLINE
8
REFERENCE_STROKES
90
7
70
1
10
1740.5
20
-1097
10
1736
20
-1092.5
10
1729
20
-1092.5
10
1726.5
20
-1095
10
1726.5
20
-1098
10
1729
20
-1099.5
10
1738
20
-1099.5
0
LWPOLYLINE
8
REFERENCE_STROKES
90
5
70
0
10
264
20
-1101.5
10
258.5
20
-1099
10
259.5
20
-1095
10
265
20
-1093.5
10
266.5
20
-1096
0
LWPOLYLINE
8
REFERENCE_STROKES
90
19
70
0
10
400
20
-1116.5
10
392
20
-1116.5
10
388.5
20
-1113
10
390
20
-1109.5
10
395
20
-1112.5
10
399.5
20
-1112
10
399.5
20
-1108
10
393.5
20
-1106
10
393.5
20
-1104
10
398.5
20
-1101
10
398.5
20
-1098
10
396
20
-1097.5
10
392
20
-1100.5
10
388.5
20
-1099
10
394
20
-1093.5
10
402
20
-1094.5
10
404.5
20
-1099
10
402.5
20
-1103
10
404.5
20
-1112
0
LWPOLYLINE
8
REFERENCE_STROKES
90
13
70
1
10
421
20
-1116.5
10
407.5
20
-1116
10
407.5
20
-1113
10
411
20
-1112.5
10
412.5
20
-1110
10
412.5
20
-1101
10
408
20
-1100.5
10
407.5
20
-1098
10
413
20
-1093.5
10
416
20
-1093.5
10
417.5
20
-1096
10
416.5
20
-1111
10
422.5
20
-1115
0
LWPOLYLINE
8
REFERENCE_STROKES
90
9
70
0
10
436
20
-1116.5
10
433
20
-1116.5
10
431
20
-1112.5
10
422.5
20
-1111
10
424.5
20
-1105
10
433
20
-1093.5
10
436.5
20
-1095
10
436.5
20
-1107
10
439.5
20
-1110
0
LWPOLYLINE
8
REFERENCE_STROKES
90
15
70
1
10
455
20
-1116.5
10
442
20
-1116.5
10
440.5
20
-1115
10
451.5
20
-1102
10
449
20
-1097.5
10
442
20
-1100.5
10
441.5
20
-1097
10
444
20
-1094.5
10
451
20
-1093.5
10
455.5
20
-1097
10
454.5
20
-1105
10
447.5
20
-1111
10
448
20
-1112.5
10
455
20
-1112.5
10
456.5
20
-1114
0
LWPOLYLINE
8
REFERENCE_STROKES
90
4
70
0
10
1804
20
-1099.5
10
1805.5
20
-1094
10
1802
20
-1093.5
10
1800.5
20
-1097
0
LWPOLYLINE
8
REFERENCE_STROKES
90
21
70
0
10
2223
20
-1120.5
10
2215
20
-1119.5
10
2210.5
20
-1114
10
2212
20
-1111.5
10
2218
20
-1115.5
10
2223.5
20
-1114
10
2223.5
20
-1111
10
2216.5
20
-1107
10
2222.5
20
-1103
10
2222.5
20
-1099
10
2219
20
-1098.5
10
2216
20
-1101.5
10
2211.5
20
-1101
10
2212.5
20
-1096
10
2218
20
-1093.5
10
2224
20
-1094.5
10
2228.5
20
-1098
10
2228.5
20
-1104
10
2226.5
20
-1107
10
2229.5
20
-1110
10
2229.5
20
-1115
0
LWPOLYLINE
8
REFERENCE_STROKES
90
23
70
0
10
2268.5
20
-1119
10
2267
20
-1120.5
10
2232
20
-1119.5
10
2233
20
-1115.5
10
2237.5
20
-1115
10
2237.5
20
-1102
10
2233
20
-1101.5
10
2231.5
20
-1100
10
2238
20
-1094.5
10
2242.5
20
-1096
10
2242.5
20
-1115
10
2250
20
-1116.5
10
2262.5
20
-1102
10
2260
20
-1098.5
10
2257
20
-1098.5
10
2255
20
-1101.5
10
2251
20
-1101.5
10
2250.5
20
-1098
10
2258
20
-1093.5
10
2265
20
-1095.5
10
2267.5
20
-1102
10
2257.5
20
-1115
10
2265
20
-1115.5
0
LWPOLYLINE
8
REFERENCE_STROKES
90
11
70
1
10
2286
20
-1120.5
10
2272
20
-1120.5
10
2270.5
20
-1119
10
2271
20
-1116.5
10
2276.5
20
-1115
10
2276.5
20
-1102
10
2270.5
20
-1100
10
2277
20
-1094.5
10
2282.5
20
-1097
10
2282.5
20
-1115
10
2287.5
20
-1118
0
LWPOLYLINE
8
REFERENCE_STROKES
90
6
70
1
10
819
20
-1116.5
10
812.5
20
-1115
10
812.5
20
-1097
10
814
20
-1095.5
10
821.5
20
-1097
10
821.5
20
-1114
0
LWPOLYLINE
8
REFERENCE_STROKES
90
6
70
1
10
1655
20
-1105.5
10
1656.5
20
-1097
10
1653
20
-1095.5
10
1651.5
20
-1098
10
1653.5
20
-1101
10
1651.5
20
-1104
0
LWPOLYLINE
8
REFERENCE_STROKES
90
4
70
1
10
1735.5
20
-1105
10
1735
20
-1103.5
10
1729.5
20
-1104
10
1732
20
-1106.5
0
LWPOLYLINE
8
REFERENCE_STROKES
90
15
70
0
10
1809.5
20
-1118
10
1805
20
-1118.5
10
1798
20
-1110.5
10
1794
20
-1109.5
10
1792.5
20
-1113
10
1794.5
20
-1118
10
1792
20
-1118.5
10
1788.5
20
-1115
10
1788.5
20
-1108
10
1792
20
-1105.5
10
1797
20
-1105.5
10
1805
20
-1111.5
10
1805.5
20
-1106
10
1808
20
-1104.5
10
1809.5
20
-1106
0
LWPOLYLINE
8
REFERENCE_STROKES
90
21
70
0
10
1874
20
-1128.5
10
1867
20
-1128.5
10
1862.5
20
-1125
10
1863
20
-1121.5
10
1866
20
-1121.5
10
1869
20
-1124.5
10
1873.5
20
-1123
10
1873.5
20
-1120
10
1867.5
20
-1117
10
1869
20
-1114.5
10
1872.5
20
-1114
10
1872.5
20
-1110
10
1869
20
-1109.5
10
1866
20
-1112.5
10
1862.5
20
-1111
10
1862.5
20
-1109
10
1867
20
-1105.5
10
1874
20
-1105.5
10
1877.5
20
-1109
10
1876.5
20
-1117
10
1878.5
20
-1124
0
LWPOLYLINE
8
REFERENCE_STROKES
90
12
70
1
10
1894
20
-1128.5
10
1882
20
-1128.5
10
1880.5
20
-1127
10
1881
20
-1124.5
10
1886.5
20
-1123
10
1886.5
20
-1113
10
1882
20
-1112.5
10
1881.5
20
-1110
10
1887
20
-1105.5
10
1890.5
20
-1107
10
1890.5
20
-1123
10
1895.5
20
-1126
0
LWPOLYLINE
8
REFERENCE_STROKES
90
15
70
1
10
1912
20
-1128.5
10
1899
20
-1128.5
10
1897.5
20
-1127
10
1898.5
20
-1123
10
1907.5
20
-1115
10
1906
20
-1109.5
10
1900
20
-1113.5
10
1898
20
-1112.5
10
1899
20
-1107.5
10
1908
20
-1105.5
10
1911.5
20
-1109
10
1911.5
20
-1116
10
1904.5
20
-1124
10
1911
20
-1124.5
10
1913.5
20
-1127
0
LWPOLYLINE
8
REFERENCE_STROKES
90
14
70
0
10
1925
20
-1129.5
10
1919
20
-1128.5
10
1914.5
20
-1122
10
1914.5
20
-1113
10
1916.5
20
-1109
10
1922
20
-1105.5
10
1927
20
-1106.5
10
1930.5
20
-1110
10
1929
20
-1112.5
10
1924
20
-1110.5
10
1920.5
20
-1112
10
1927
20
-1114.5
10
1931.5
20
-1120
10
1929.5
20
-1127
0
LWPOLYLINE
8
REFERENCE_STROKES
90
4
70
0
10
265
20
-1114.5
10
258.5
20
-1113
10
261
20
-1107.5
10
266.5
20
-1109
0
LWPOLYLINE
8
REFERENCE_STROKES
90
5
70
0
10
1147
20
-1130.5
10
1138.5
20
-1130
10
1138.5
20
-1110
10
1141
20
-1107.5
10
1147.5
20
-1109
0
LWPOLYLINE
8
REFERENCE_STROKES
90
11
70
0
10
560.5
20
-1121
10
557
20
-1122.5
10
555
20
-1118.5
10
547
20
-1118.5
10
546.5
20
-1121
10
544
20
-1121.5
10
540.5
20
-1116
10
543
20
-1113.5
10
553
20
-1114.5
10
559
20
-1110.5
10
560.5
20
-1112
0
LWPOLYLINE
8
REFERENCE_STROKES
90
10
70
1
10
506.5
20
-1112
10
506
20
-1122.5
10
504
20
-1122.5
10
502
20
-1118.5
10
494
20
-1118.5
10
492
20
-1122.5
10
487.5
20
-1117
10
490
20
-1114.5
10
503
20
-1114.5
10
505
20
-1111.5
0
LWPOLYLINE
8
REFERENCE_STROKES
90
6
70
0
10
635
20
-1126.5
10
636.5
20
-1125
10
634.5
20
-1123
10
636
20
-1116.5
10
631.5
20
-1119
10
631.5
20
-1124
0
LWPOLYLINE
8
REFERENCE_STROKES
90
5
70
0
10
1923
20
-1125.5
10
1926.5
20
-1121
10
1925
20
-1118.5
10
1921
20
-1117.5
10
1919.5
20
-1123
0
LWPOLYLINE
8
REFERENCE_STROKES
90
9
70
0
10
1743.5
20
-1133
10
1741
20
-1133.5
10
1739
20
-1129.5
10
1730
20
-1129.5
10
1727
20
-1133.5
10
1722.5
20
-1126
10
1739
20
-1125.5
10
1742
20
-1120.5
10
1743.5
20
-1122
0
LWPOLYLINE
8
REFERENCE_STROKES
90
11
70
0
10
1809.5
20
-1133
10
1807
20
-1133.5
10
1805
20
-1129.5
10
1796
20
-1128.5
10
1793
20
-1133.5
10
1790.5
20
-1132
10
1788.5
20
-1126
10
1790
20
-1124.5
10
1804
20
-1125.5
10
1808
20
-1120.5
10
1809.5
20
-1122
0
LWPOLYLINE
8
REFERENCE_STROKES
90
4
70
0
10
265
20
-1128.5
10
258.5
20
-1127
10
261
20
-1121.5
10
266.5
20
-1124
0
LWPOLYLINE
8
REFERENCE_STROKES
90
14
70
0
10
506.5
20
-1135
10
504
20
-1137.5
10
500.5
20
-1137
10
502.5
20
-1132
10
501
20
-1128.5
10
497
20
-1133.5
10
492
20
-1129.5
10
493.5
20
-1136
10
490
20
-1136.5
10
487.5
20
-1133
10
487.5
20
-1128
10
491
20
-1124.5
10
503
20
-1124.5
10
506.5
20
-1127
0
LWPOLYLINE
8
REFERENCE_STROKES
90
15
70
0
10
559.5
20
-1134
10
555
20
-1137.5
10
553.5
20
-1136
10
556.5
20
-1131
10
555
20
-1128.5
10
553
20
-1128.5
10
551
20
-1132.5
10
545
20
-1129.5
10
546.5
20
-1136
10
543
20
-1136.5
10
540.5
20
-1134
10
540.5
20
-1128
10
544
20
-1124.5
10
557
20
-1124.5
10
560.5
20
-1130
0
LWPOLYLINE
8
REFERENCE_STROKES
90
6
70
1
10
819
20
-1149.5
10
811.5
20
-1148
10
811.5
20
-1131
10
813
20
-1128.5
10
821.5
20
-1130
10
820.5
20
-1148
0
LWPOLYLINE
8
REFERENCE_STROKES
90
21
70
0
10
919
20
-1156.5
10
914
20
-1156.5
10
908.5
20
-1152
10
910
20
-1147.5
10
916
20
-1151.5
10
921.5
20
-1149
10
920
20
-1145.5
10
914.5
20
-1144
10
915
20
-1140.5
10
920.5
20
-1139
10
920.5
20
-1135
10
917
20
-1133.5
10
912
20
-1137.5
10
909.5
20
-1137
10
909.5
20
-1133
10
913
20
-1129.5
10
922
20
-1129.5
10
926.5
20
-1135
10
923.5
20
-1142
10
926.5
20
-1146
10
926.5
20
-1150
0
LWPOLYLINE
8
REFERENCE_STROKES
90
12
70
0
10
944
20
-1156.5
10
931
20
-1156.5
10
929.5
20
-1155
10
931
20
-1151.5
10
935.5
20
-1150
10
935.5
20
-1137
10
931
20
-1137.5
10
930.5
20
-1135
10
937
20
-1129.5
10
940.5
20
-1131
10
940.5
20
-1151
10
946.5
20
-1153
0
LWPOLYLINE
8
REFERENCE_STROKES
90
21
70
0
10
959
20
-1156.5
10
954
20
-1156.5
10
948.5
20
-1153
10
949
20
-1147.5
10
955
20
-1151.5
10
960.5
20
-1150
10
959
20
-1145.5
10
953.5
20
-1144
10
953.5
20
-1141
10
959
20
-1139.5
10
960.5
20
-1136
10
959
20
-1134.5
10
955
20
-1134.5
10
952
20
-1137.5
10
948.5
20
-1136
10
948.5
20
-1134
10
954
20
-1129.5
10
960
20
-1129.5
10
965.5
20
-1135
10
963.5
20
-1141
10
965.5
20
-1151
0
LWPOLYLINE
8
REFERENCE_STROKES
90
21
70
0
10
979
20
-1156.5
10
973
20
-1156.5
10
967.5
20
-1152
10
967.5
20
-1149
10
970
20
-1147.5
10
976
20
-1152.5
10
980.5
20
-1150
10
978
20
-1145.5
10
973.5
20
-1145
10
973.5
20
-1141
10
979
20
-1139.5
10
979.5
20
-1136
10
974
20
-1134.5
10
972
20
-1137.5
10
968.5
20
-1137
10
968.5
20
-1134
10
973
20
-1129.5
10
982
20
-1130.5
10
985.5
20
-1136
10
983.5
20
-1141
10
985.5
20
-1150
0
LWPOLYLINE
8
REFERENCE_STROKES
90
20
70
0
10
1321
20
-1156.5
10
1314
20
-1156.5
10
1308.5
20
-1152
10
1308.5
20
-1149
10
1311
20
-1147.5
10
1317
20
-1152.5
10
1321.5
20
-1150
10
1320
20
-1145.5
10
1314.5
20
-1144
10
1316
20
-1140.5
10
1320.5
20
-1139
10
1320.5
20
-1136
10
1316
20
-1134.5
10
1312
20
-1138.5
10
1308.5
20
-1136
10
1314
20
-1129.5
10
1323
20
-1130.5
10
1326.5
20
-1136
10
1324.5
20
-1142
10
1326.5
20
-1151
0
LWPOLYLINE
8
REFERENCE_STROKES
90
11
70
1
10
1345
20
-1156.5
10
1331
20
-1156.5
10
1329.5
20
-1155
10
1335.5
20
-1151
10
1335.5
20
-1138
10
1331
20
-1138.5
10
1330.5
20
-1135
10
1337
20
-1129.5
10
1340.5
20
-1131
10
1340.5
20
-1151
10
1346.5
20
-1154
0
LWPOLYLINE
8
REFERENCE_STROKES
90
22
70
0
10
1358
20
-1157.5
10
1352
20
-1156.5
10
1348.5
20
-1153
10
1349
20
-1148.5
10
1352
20
-1148.5
10
1355
20
-1152.5
10
1360.5
20
-1151
10
1360.5
20
-1148
10
1353.5
20
-1144
10
1353.5
20
-1142
10
1359
20
-1140.5
10
1360.5
20
-1137
10
1355
20
-1134.5
10
1351
20
-1138.5
10
1348.5
20
-1138
10
1349.5
20
-1133
10
1355
20
-1129.5
10
1363
20
-1131.5
10
1365.5
20
-1136
10
1363.5
20
-1142
10
1366.5
20
-1149
10
1363
20
-1155.5
0
LWPOLYLINE
8
REFERENCE_STROKES
90
12
70
1
10
1384
20
-1157.5
10
1371
20
-1157.5
10
1368.5
20
-1155
10
1370
20
-1152.5
10
1375.5
20
-1151
10
1374.5
20
-1138
10
1369.5
20
-1138
10
1370.5
20
-1134
10
1375
20
-1130.5
10
1379.5
20
-1131
10
1379.5
20
-1152
10
1385.5
20
-1154
0
LWPOLYLINE
8
REFERENCE_STROKES
90
6
70
0
10
263
20
-1142.5
10
258.5
20
-1141
10
258.5
20
-1137
10
262
20
-1134.5
10
266.5
20
-1137
10
266.5
20
-1140
0
LWPOLYLINE
8
REFERENCE_STROKES
90
17
70
0
10
1743.5
20
-1148
10
1741
20
-1150.5
10
1737.5
20
-1150
10
1740.5
20
-1144
10
1739
20
-1140.5
10
1737
20
-1140.5
10
1734
20
-1145.5
10
1728
20
-1141.5
10
1726.5
20
-1144
10
1729.5
20
-1149
10
1727
20
-1150.5
10
1722.5
20
-1145
10
1722.5
20
-1141
10
1726
20
-1136.5
10
1734
20
-1137.5
10
1739
20
-1135.5
10
1743.5
20
-1139
0
LWPOLYLINE
8
REFERENCE_STROKES
90
15
70
0
10
1810.5
20
-1144
10
1808.5
20
-1149
10
1804
20
-1150.5
10
1805.5
20
-1142
10
1803
20
-1140.5
10
1801.5
20
-1144
10
1798
20
-1145.5
10
1794
20
-1140.5
10
1792.5
20
-1144
10
1795.5
20
-1149
10
1793
20
-1150.5
10
1788.5
20
-1146
10
1788.5
20
-1140
10
1792
20
-1136.5
10
1806
20
-1136.5
0
LWPOLYLINE
8
REFERENCE_STROKES
90
5
70
1
10
1146
20
-1166.5
10
1138.5
20
-1166
10
1139
20
-1143.5
10
1147.5
20
-1144
10
1147.5
20
-1165
0
LWPOLYLINE
8
REFERENCE_STROKES
90
5
70
0
10
264
20
-1156.5
10
258.5
20
-1155
10
258.5
20
-1151
10
261
20
-1148.5
10
266.5
20
-1151
0
LWPOLYLINE
8
REFERENCE_STROKES
90
8
70
0
10
798
20
-1186.5
10
796.5
20
-1179
10
810
20
-1175.5
10
811.5
20
-1163
10
819
20
-1161.5
10
820.5
20
-1163
10
819.5
20
-1178
10
805
20
-1188.5
0
LWPOLYLINE
8
REFERENCE_STROKES
90
6
70
0
10
264
20
-1170.5
10
258.5
20
-1169
10
258.5
20
-1165
10
261
20
-1162.5
10
265
20
-1163.5
10
266.5
20
-1166
0
LWPOLYLINE
8
REFERENCE_STROKES
90
6
70
1
10
1109.5
20
-1174
10
1108
20
-1164.5
10
1050
20
-1163.5
10
1048.5
20
-1166
10
1050
20
-1175.5
10
1108
20
-1175.5
0
LWPOLYLINE
8
REFERENCE_STROKES
90
6
70
1
10
1244.5
20
-1176
10
1244
20
-1165.5
10
1186
20
-1165.5
10
1184.5
20
-1167
10
1185
20
-1176.5
10
1243
20
-1177.5
0
LWPOLYLINE
8
REFERENCE_STROKES
90
5
70
0
10
271
20
-1179.5
10
266.5
20
-1176
10
269
20
-1171.5
10
274.5
20
-1173
10
274.5
20
-1177
0
LWPOLYLINE
8
REFERENCE_STROKES
90
5
70
0
10
286
20
-1179.5
10
282
20
-1178.5
10
280.5
20
-1176
10
284
20
-1171.5
10
288.5
20
-1174
0
LWPOLYLINE
8
REFERENCE_STROKES
90
5
70
1
10
300
20
-1179.5
10
294.5
20
-1177
10
298
20
-1171.5
10
302.5
20
-1173
10
302.5
20
-1177
0
LWPOLYLINE
8
REFERENCE_STROKES
90
5
70
0
10
315
20
-1179.5
10
311
20
-1179.5
10
308.5
20
-1176
10
312
20
-1171.5
10
316.5
20
-1173
0
LWPOLYLINE
8
REFERENCE_STROKES
90
5
70
0
10
329
20
-1179.5
10
323.5
20
-1178
10
325
20
-1172.5
10
329
20
-1172.5
10
331.5
20
-1175
0
LWPOLYLINE
8
REFERENCE_STROKES
90
4
70
0
10
344
20
-1179.5
10
337.5
20
-1178
10
340
20
-1172.5
10
345.5
20
-1174
0
LWPOLYLINE
8
REFERENCE_STROKES
90
5
70
0
10
358
20
-1179.5
10
354
20
-1179.5
10
351.5
20
-1177
10
354
20
-1172.5
10
359.5
20
-1174
0
LWPOLYLINE
8
REFERENCE_STROKES
90
6
70
1
10
371
20
-1180.5
10
366.5
20
-1179
10
366.5
20
-1175
10
369
20
-1172.5
10
374.5
20
-1175
10
373.5
20
-1179
0
LWPOLYLINE
8
REFERENCE_STROKES
90
6
70
0
10
387
20
-1179.5
10
383
20
-1180.5
10
380.5
20
-1178
10
382
20
-1172.5
10
386
20
-1172.5
10
388.5
20
-1175
0
LWPOLYLINE
8
REFERENCE_STROKES
90
4
70
0
10
400
20
-1180.5
10
394.5
20
-1178
10
397
20
-1172.5
10
402.5
20
-1175
0
LWPOLYLINE
8
REFERENCE_STROKES
90
6
70
1
10
414
20
-1180.5
10
411
20
-1180.5
10
408.5
20
-1177
10
412
20
-1172.5
10
416.5
20
-1174
10
416.5
20
-1178
0
LWPOLYLINE
8
REFERENCE_STROKES
90
5
70
0
10
429
20
-1180.5
10
423.5
20
-1179
10
425
20
-1172.5
10
430.5
20
-1174
10
431.5
20
-1177
0
LWPOLYLINE
8
REFERENCE_STROKES
90
6
70
1
10
457
20
-1180.5
10
451.5
20
-1178
10
452.5
20
-1174
10
455
20
-1172.5
10
459.5
20
-1175
10
459.5
20
-1179
0
LWPOLYLINE
8
REFERENCE_STROKES
90
6
70
0
10
472
20
-1180.5
10
468
20
-1180.5
10
465.5
20
-1178
10
469
20
-1172.5
10
471
20
-1172.5
10
474.5
20
-1177
0
LWPOLYLINE
8
REFERENCE_STROKES
90
6
70
0
10
659
20
-1182.5
10
653
20
-1181.5
10
651.5
20
-1179
10
652.5
20
-1175
10
657
20
-1172.5
10
660.5
20
-1175
0
LWPOLYLINE
8
REFERENCE_STROKES
90
4
70
0
10
443
20
-1180.5
10
437.5
20
-1179
10
440
20
-1173.5
10
445.5
20
-1175
0
LWPOLYLINE
8
REFERENCE_STROKES
90
5
70
0
10
486
20
-1180.5
10
480.5
20
-1179
10
482
20
-1173.5
10
487.5
20
-1174
10
488.5
20
-1177
0
LWPOLYLINE
8
REFERENCE_STROKES
90
4
70
0
10
501
20
-1180.5
10
494.5
20
-1179
10
496
20
-1173.5
10
502.5
20
-1175
0
LWPOLYLINE
8
REFERENCE_STROKES
90
5
70
0
10
513
20
-1181.5
10
508.5
20
-1179
10
511
20
-1173.5
10
516.5
20
-1175
10
516.5
20
-1179
0
LWPOLYLINE
8
REFERENCE_STROKES
90
6
70
0
10
529
20
-1180.5
10
523.5
20
-1180
10
522.5
20
-1178
10
525
20
-1173.5
10
530.5
20
-1175
10
531.5
20
-1177
0
LWPOLYLINE
8
REFERENCE_STROKES
90
6
70
0
10
544
20
-1180.5
10
540
20
-1181.5
10
537.5
20
-1179
10
539
20
-1173.5
10
543
20
-1173.5
10
545.5
20
-1176
0
LWPOLYLINE
8
REFERENCE_STROKES
90
6
70
0
10
559
20
-1180.5
10
554
20
-1181.5
10
551.5
20
-1176
10
554
20
-1173.5
10
558
20
-1173.5
10
559.5
20
-1175
0
LWPOLYLINE
8
REFERENCE_STROKES
90
4
70
0
10
571
20
-1181.5
10
565.5
20
-1179
10
568
20
-1173.5
10
573.5
20
-1176
0
LWPOLYLINE
8
REFERENCE_STROKES
90
5
70
0
10
585
20
-1181.5
10
579.5
20
-1179
10
582
20
-1173.5
10
586
20
-1173.5
10
588.5
20
-1176
0
LWPOLYLINE
8
REFERENCE_STROKES
90
5
70
1
10
599
20
-1181.5
10
593.5
20
-1178
10
596
20
-1173.5
10
601.5
20
-1175
10
601.5
20
-1179
0
LWPOLYLINE
8
REFERENCE_STROKES
90
5
70
0
10
613
20
-1181.5
10
607.5
20
-1179
10
611
20
-1173.5
10
616.5
20
-1176
10
616.5
20
-1179
0
LWPOLYLINE
8
REFERENCE_STROKES
90
5
70
0
10
628
20
-1181.5
10
622.5
20
-1179
10
622.5
20
-1176
10
626
20
-1173.5
10
630.5
20
-1176
0
LWPOLYLINE
8
REFERENCE_STROKES
90
6
70
0
10
643
20
-1181.5
10
639
20
-1181.5
10
636.5
20
-1179
10
638
20
-1174.5
10
643
20
-1173.5
10
644.5
20
-1175
0
LWPOLYLINE
8
REFERENCE_STROKES
90
7
70
1
10
701.5
20
-1185
10
701.5
20
-1179
10
704
20
-1176.5
10
719
20
-1176.5
10
721.5
20
-1178
10
721
20
-1185.5
10
704
20
-1186.5
0
LWPOLYLINE
8
REFERENCE_STROKES
90
7
70
1
10
733.5
20
-1185
10
733.5
20
-1178
10
736
20
-1176.5
10
751
20
-1176.5
10
753.5
20
-1178
10
752
20
-1185.5
10
735
20
-1186.5
0
LWPOLYLINE
8
REFERENCE_STROKES
90
7
70
0
10
785.5
20
-1184
10
783
20
-1186.5
10
767
20
-1186.5
10
764.5
20
-1183
10
765.5
20
-1178
10
768
20
-1176.5
10
785
20
-1177.5
0
LWPOLYLINE
8
REFERENCE_STROKES
90
6
70
1
10
1109.5
20
-1188
10
1108
20
-1178.5
10
1050
20
-1178.5
10
1048.5
20
-1180
10
1049
20
-1189.5
10
1108
20
-1190.5
0
LWPOLYLINE
8
REFERENCE_STROKES
90
5
70
0
10
1146
20
-1202.5
10
1137.5
20
-1201
10
1137.5
20
-1182
10
1139
20
-1179.5
10
1147.5
20
-1181
0
LWPOLYLINE
8
REFERENCE_STROKES
90
6
70
0
10
1244.5
20
-1191
10
1244.5
20
-1182
10
1243
20
-1180.5
10
1184.5
20
-1181
10
1184.5
20
-1190
10
1186
20
-1191.5
0
LWPOLYLINE
8
REFERENCE_STROKES
90
5
70
1
10
1108.5
20
-1204
10
1108
20
-1193.5
10
1048.5
20
-1194
10
1049
20
-1204.5
10
1107
20
-1205.5
0
LWPOLYLINE
8
REFERENCE_STROKES
90
6
70
1
10
1244.5
20
-1206
10
1244
20
-1195.5
10
1186
20
-1194.5
10
1184.5
20
-1196
10
1185
20
-1206.5
10
1242
20
-1207.5
0
LWPOLYLINE
8
REFERENCE_STROKES
90
10
70
1
10
236
20
-1424.5
10
96
20
-1423.5
10
86.5
20
-1421
10
91.5
20
-1313
10
92.5
20
-1207
10
94
20
-1205.5
10
240
20
-1206.5
10
243.5
20
-1209
10
241.5
20
-1339
10
238.5
20
-1422
0
LWPOLYLINE
8
REFERENCE_STROKES
90
9
70
1
10
391
20
-1426.5
10
244.5
20
-1425
10
243.5
20
-1400
10
248.5
20
-1284
10
248.5
20
-1210
10
250
20
-1207.5
10
396
20
-1208.5
10
397.5
20
-1210
10
392.5
20
-1423
0
LWPOLYLINE
8
REFERENCE_STROKES
90
6
70
0
10
545
20
-1428.5
10
399
20
-1427.5
10
396.5
20
-1425
10
403
20
-1209.5
10
549
20
-1209.5
10
551.5
20
-1212
0
LWPOLYLINE
8
REFERENCE_STROKES
90
4
70
0
10
1108.5
20
-1220
10
1108
20
-1208.5
10
1048.5
20
-1209
10
1049
20
-1220.5
0
LWPOLYLINE
8
REFERENCE_STROKES
90
9
70
0
10
234
20
-1420.5
10
238.5
20
-1318
10
240.5
20
-1212
10
239
20
-1210.5
10
97
20
-1209.5
10
95.5
20
-1211
10
94.5
20
-1340
10
90.5
20
-1418
10
92
20
-1419.5
0
LWPOLYLINE
8
REFERENCE_STROKES
90
7
70
0
10
387
20
-1423.5
10
388.5
20
-1422
10
393.5
20
-1213
10
254
20
-1210.5
10
252.5
20
-1212
10
251.5
20
-1308
10
247.5
20
-1421
0
LWPOLYLINE
8
REFERENCE_STROKES
90
6
70
1
10
1244.5
20
-1221
10
1244.5
20
-1212
10
1243
20
-1210.5
10
1184.5
20
-1211
10
1185
20
-1221.5
10
1243
20
-1222.5
0
LWPOLYLINE
8
REFERENCE_STROKES
90
7
70
0
10
541
20
-1425.5
10
542.5
20
-1424
10
542.5
20
-1362
10
547.5
20
-1214
10
407
20
-1212.5
10
405.5
20
-1214
10
400.5
20
-1423
0
LWPOLYLINE
8
REFERENCE_STROKES
90
12
70
0
10
800.5
20
-1426
10
800.5
20
-1364
10
803
20
-1361.5
10
825.5
20
-1362
10
824.5
20
-1355
10
820
20
-1349.5
10
813
20
-1345.5
10
801.5
20
-1343
10
804
20
-1214.5
10
560.5
20
-1214
10
554.5
20
-1424
10
556
20
-1425.5
0
LWPOLYLINE
8
REFERENCE_STROKES
90
21
70
0
10
855
20
-1426.5
10
856.5
20
-1425
10
857.5
20
-1327
10
860
20
-1323.5
10
887.5
20
-1323
10
886
20
-1315.5
10
875
20
-1316.5
10
871.5
20
-1314
10
871.5
20
-1309
10
874.5
20
-1302
10
882
20
-1294.5
10
888.5
20
-1291
10
889.5
20
-1215
10
818
20
-1214.5
10
816.5
20
-1216
10
813.5
20
-1341
10
826.5
20
-1351
10
830.5
20
-1364
10
828
20
-1366.5
10
813.5
20
-1367
10
812.5
20
-1426
0
LWPOLYLINE
8
REFERENCE_STROKES
90
6
70
1
10
1145
20
-1239.5
10
1137.5
20
-1239
10
1137.5
20
-1217
10
1139
20
-1215.5
10
1146.5
20
-1217
10
1146.5
20
-1238
0
LWPOLYLINE
8
REFERENCE_STROKES
90
21
70
0
10
1471
20
-1430.5
10
1472.5
20
-1429
10
1472.5
20
-1371
10
1458
20
-1370.5
10
1455.5
20
-1366
10
1459.5
20
-1355
10
1472.5
20
-1345
10
1472.5
20
-1220
10
1405
20
-1218.5
10
1404.5
20
-1295
10
1410
20
-1297.5
10
1416.5
20
-1304
10
1420.5
20
-1316
10
1419
20
-1318.5
10
1405
20
-1318.5
10
1404.5
20
-1326
10
1406
20
-1327.5
10
1429
20
-1327.5
10
1430.5
20
-1331
10
1428.5
20
-1429
10
1430
20
-1430.5
0
LWPOLYLINE
8
REFERENCE_STROKES
90
10
70
0
10
1733.5
20
-1432
10
1734
20
-1223.5
10
1484.5
20
-1220
10
1484.5
20
-1348
10
1469
20
-1351.5
10
1462.5
20
-1358
10
1460.5
20
-1366
10
1483
20
-1366.5
10
1484.5
20
-1368
10
1485
20
-1430.5
0
LWPOLYLINE
8
REFERENCE_STROKES
90
8
70
1
10
1921
20
-1437.5
10
1745
20
-1436.5
10
1742.5
20
-1434
10
1743.5
20
-1222
10
1745
20
-1220.5
10
1923
20
-1222.5
10
1924.5
20
-1224
10
1922.5
20
-1436
0
LWPOLYLINE
8
REFERENCE_STROKES
90
9
70
1
10
2105
20
-1438.5
10
1933
20
-1438.5
10
1927.5
20
-1435
10
1929.5
20
-1226
10
1931
20
-1223.5
10
1994
20
-1222.5
10
2102
20
-1223.5
10
2110.5
20
-1225
10
2107.5
20
-1436
0
LWPOLYLINE
8
REFERENCE_STROKES
90
7
70
1
10
1108.5
20
-1234
10
1108.5
20
-1225
10
1107
20
-1223.5
10
1049
20
-1223.5
10
1047.5
20
-1225
10
1048
20
-1234.5
10
1107
20
-1235.5
0
LWPOLYLINE
8
REFERENCE_STROKES
90
8
70
0
10
1917
20
-1434.5
10
1918.5
20
-1433
10
1920.5
20
-1227
10
1919
20
-1225.5
10
1748
20
-1223.5
10
1746.5
20
-1225
10
1746.5
20
-1432
10
1754
20
-1433.5
0
LWPOLYLINE
8
REFERENCE_STROKES
90
6
70
0
10
1244.5
20
-1232
10
1243
20
-1225.5
10
1186
20
-1224.5
10
1184.5
20
-1226
10
1185
20
-1236.5
10
1242
20
-1237.5
0
LWPOLYLINE
8
REFERENCE_STROKES
90
8
70
1
10
2280
20
-1439.5
10
2115
20
-1438.5
10
2112.5
20
-1437
10
2115.5
20
-1228
10
2118
20
-1224.5
10
2284
20
-1224.5
10
2286.5
20
-1227
10
2282.5
20
-1437
0
LWPOLYLINE
8
REFERENCE_STROKES
90
7
70
0
10
2103
20
-1434.5
10
2107.5
20
-1229
10
2106
20
-1227.5
10
1935
20
-1225.5
10
1933.5
20
-1227
10
1931.5
20
-1433
10
1933
20
-1434.5
0
LWPOLYLINE
8
REFERENCE_STROKES
90
8
70
0
10
2278
20
-1435.5
10
2282.5
20
-1230
10
2281
20
-1228.5
10
2121
20
-1227.5
10
2119.5
20
-1229
10
2118.5
20
-1348
10
2115.5
20
-1433
10
2117
20
-1434.5
0
LWPOLYLINE
8
REFERENCE_STROKES
90
7
70
1
10
1108.5
20
-1249
10
1108.5
20
-1240
10
1107
20
-1238.5
10
1047.5
20
-1239
10
1047.5
20
-1249
10
1049
20
-1250.5
10
1107
20
-1250.5
0
LWPOLYLINE
8
REFERENCE_STROKES
90
5
70
0
10
1243.5
20
-1252
10
1243
20
-1240.5
10
1186
20
-1239.5
10
1183.5
20
-1242
10
1185
20
-1251.5
0
LWPOLYLINE
8
REFERENCE_STROKES
90
6
70
1
10
1145
20
-1275.5
10
1136.5
20
-1274
10
1136.5
20
-1255
10
1139
20
-1252.5
10
1146.5
20
-1255
10
1146.5
20
-1273
0
LWPOLYLINE
8
REFERENCE_STROKES
90
6
70
1
10
1108.5
20
-1264
10
1108.5
20
-1255
10
1107
20
-1253.5
10
1047.5
20
-1254
10
1048
20
-1264.5
10
1107
20
-1265.5
0
LWPOLYLINE
8
REFERENCE_STROKES
90
6
70
1
10
1243.5
20
-1266
10
1243
20
-1255.5
10
1186
20
-1254.5
10
1183.5
20
-1257
10
1184
20
-1266.5
10
1242
20
-1267.5
0
LWPOLYLINE
8
REFERENCE_STROKES
90
6
70
0
10
1108.5
20
-1273
10
1107
20
-1268.5
10
1048
20
-1268.5
10
1047.5
20
-1279
10
1049
20
-1280.5
10
1107
20
-1280.5
0
LWPOLYLINE
8
REFERENCE_STROKES
90
4
70
0
10
1243.5
20
-1282
10
1243
20
-1270.5
10
1183.5
20
-1271
10
1184
20
-1281.5
0
LWPOLYLINE
8
REFERENCE_STROKES
90
5
70
0
10
1107.5
20
-1295
10
1107
20
-1283.5
10
1048
20
-1283.5
10
1046.5
20
-1286
10
1048
20
-1295.5
0
LWPOLYLINE
8
REFERENCE_STROKES
90
5
70
0
10
1243.5
20
-1297
10
1243
20
-1285.5
10
1183.5
20
-1286
10
1183.5
20
-1296
10
1185
20
-1297.5
0
LWPOLYLINE
8
REFERENCE_STROKES
90
21
70
0
10
141
20
-1322.5
10
133
20
-1322.5
10
127.5
20
-1317
10
129
20
-1314.5
10
132
20
-1314.5
10
136
20
-1318.5
10
140.5
20
-1317
10
140.5
20
-1313
10
133.5
20
-1310
10
135
20
-1306.5
10
140.5
20
-1305
10
140.5
20
-1302
10
136
20
-1300.5
10
132
20
-1304.5
10
128.5
20
-1303
10
129.5
20
-1299
10
136
20
-1295.5
10
142
20
-1296.5
10
146.5
20
-1303
10
143.5
20
-1309
10
146.5
20
-1316
0
LWPOLYLINE
8
REFERENCE_STROKES
90
12
70
1
10
164
20
-1323.5
10
150
20
-1323.5
10
148.5
20
-1322
10
150
20
-1318.5
10
154.5
20
-1317
10
155.5
20
-1304
10
151
20
-1304.5
10
149.5
20
-1302
10
155
20
-1296.5
10
159.5
20
-1297
10
159.5
20
-1317
10
165.5
20
-1320
0
LWPOLYLINE
8
REFERENCE_STROKES
90
9
70
0
10
181
20
-1323.5
10
178.5
20
-1323
10
176
20
-1317.5
10
166.5
20
-1317
10
167.5
20
-1311
10
179
20
-1296.5
10
183.5
20
-1298
10
182.5
20
-1312
10
186.5
20
-1315
0
LWPOLYLINE
8
REFERENCE_STROKES
90
11
70
1
10
204
20
-1323.5
10
188.5
20
-1323
10
188.5
20
-1320
10
194.5
20
-1317
10
194.5
20
-1305
10
190
20
-1304.5
10
188.5
20
-1302
10
196
20
-1296.5
10
199.5
20
-1298
10
199.5
20
-1318
10
204.5
20
-1320
0
LWPOLYLINE
8
REFERENCE_STROKES
90
21
70
0
10
295
20
-1324.5
10
287
20
-1324.5
10
282.5
20
-1321
10
283
20
-1316.5
10
286
20
-1316.5
10
290
20
-1320.5
10
294.5
20
-1319
10
294.5
20
-1315
10
288.5
20
-1313
10
288.5
20
-1310
10
293
20
-1308.5
10
294.5
20
-1304
10
291
20
-1302.5
10
286
20
-1306.5
10
282.5
20
-1304
10
286
20
-1299.5
10
291
20
-1297.5
10
298
20
-1299.5
10
300.5
20
-1303
10
298.5
20
-1310
10
300.5
20
-1320
0
LWPOLYLINE
8
REFERENCE_STROKES
90
11
70
1
10
318
20
-1325.5
10
302.5
20
-1325
10
304
20
-1320.5
10
309.5
20
-1319
10
309.5
20
-1306
10
305
20
-1306.5
10
303.5
20
-1304
10
310
20
-1298.5
10
314.5
20
-1300
10
313.5
20
-1320
10
319.5
20
-1322
0
LWPOLYLINE
8
REFERENCE_STROKES
90
20
70
0
10
333
20
-1325.5
10
327
20
-1325.5
10
321.5
20
-1322
10
324
20
-1316.5
10
329
20
-1321.5
10
334.5
20
-1319
10
332
20
-1314.5
10
327.5
20
-1314
10
327.5
20
-1310
10
333
20
-1308.5
10
334.5
20
-1306
10
332
20
-1303.5
10
329
20
-1303.5
10
326
20
-1306.5
10
321.5
20
-1305
10
328
20
-1298.5
10
334
20
-1298.5
10
339.5
20
-1303
10
337.5
20
-1311
10
339.5
20
-1320
0
LWPOLYLINE
8
REFERENCE_STROKES
90
12
70
0
10
346
20
-1326.5
10
342.5
20
-1320
10
345
20
-1318.5
10
350
20
-1321.5
10
353.5
20
-1317
10
344
20
-1315.5
10
341.5
20
-1306
10
346
20
-1299.5
10
352
20
-1298.5
10
358.5
20
-1304
10
358.5
20
-1318
10
353
20
-1325.5
0
LWPOLYLINE
8
REFERENCE_STROKES
90
22
70
0
10
443
20
-1327.5
10
436.5
20
-1323
10
436.5
20
-1320
10
440
20
-1318.5
10
443
20
-1322.5
10
447
20
-1322.5
10
449.5
20
-1320
10
448
20
-1316.5
10
442.5
20
-1315
10
442.5
20
-1312
10
447
20
-1310.5
10
448.5
20
-1306
10
443
20
-1305.5
10
440
20
-1308.5
10
436.5
20
-1306
10
440
20
-1301.5
10
447
20
-1299.5
10
453.5
20
-1304
10
454.5
20
-1307
10
452.5
20
-1314
10
454.5
20
-1322
10
450
20
-1326.5
0
LWPOLYLINE
8
REFERENCE_STROKES
90
12
70
1
10
472
20
-1327.5
10
458
20
-1327.5
10
456.5
20
-1326
10
459
20
-1322.5
10
463.5
20
-1321
10
463.5
20
-1308
10
460
20
-1308.5
10
458.5
20
-1306
10
464
20
-1300.5
10
468.5
20
-1301
10
468.5
20
-1322
10
474.5
20
-1325
0
LWPOLYLINE
8
REFERENCE_STROKES
90
22
70
0
10
487
20
-1327.5
10
481
20
-1327.5
10
475.5
20
-1322
10
478
20
-1318.5
10
484
20
-1323.5
10
488.5
20
-1321
10
487
20
-1316.5
10
481.5
20
-1315
10
481.5
20
-1313
10
487
20
-1310.5
10
488.5
20
-1307
10
487
20
-1305.5
10
483
20
-1305.5
10
480
20
-1308.5
10
476.5
20
-1307
10
476.5
20
-1305
10
482
20
-1300.5
10
491
20
-1301.5
10
494.5
20
-1308
10
491.5
20
-1313
10
493.5
20
-1316
10
493.5
20
-1322
0
LWPOLYLINE
8
REFERENCE_STROKES
90
10
70
1
10
502
20
-1328.5
10
500.5
20
-1321
10
507.5
20
-1306
10
497
20
-1305.5
10
495.5
20
-1303
10
498
20
-1300.5
10
513
20
-1301.5
10
514.5
20
-1304
10
507.5
20
-1316
10
505.5
20
-1327
0
LWPOLYLINE
8
REFERENCE_STROKES
90
21
70
0
10
654
20
-1328.5
10
646
20
-1328.5
10
641.5
20
-1325
10
643
20
-1319.5
10
648
20
-1324.5
10
652
20
-1324.5
10
654.5
20
-1322
10
653
20
-1318.5
10
647.5
20
-1316
10
649
20
-1312.5
10
653.5
20
-1311
10
653.5
20
-1308
10
649
20
-1306.5
10
645
20
-1310.5
10
641.5
20
-1309
10
641.5
20
-1307
10
649
20
-1301.5
10
656
20
-1302.5
10
659.5
20
-1307
10
657.5
20
-1314
10
659.5
20
-1324
0
LWPOLYLINE
8
REFERENCE_STROKES
90
13
70
0
10
664
20
-1329.5
10
661.5
20
-1327
10
664
20
-1324.5
10
668.5
20
-1324
10
669.5
20
-1310
10
665
20
-1310.5
10
663.5
20
-1307
10
672
20
-1301.5
10
673.5
20
-1303
10
673.5
20
-1324
10
678
20
-1324.5
10
679.5
20
-1328
10
677
20
-1329.5
0
LWPOLYLINE
8
REFERENCE_STROKES
90
23
70
0
10
691
20
-1329.5
10
685
20
-1328.5
10
681.5
20
-1325
10
683
20
-1320.5
10
688
20
-1324.5
10
692
20
-1324.5
10
694.5
20
-1322
10
693
20
-1318.5
10
689
20
-1318.5
10
686.5
20
-1316
10
689
20
-1312.5
10
693.5
20
-1311
10
693.5
20
-1308
10
690
20
-1306.5
10
685
20
-1310.5
10
681.5
20
-1309
10
686
20
-1302.5
10
695
20
-1302.5
10
698.5
20
-1306
10
696.5
20
-1316
10
699.5
20
-1319
10
699.5
20
-1323
10
696
20
-1327.5
0
LWPOLYLINE
8
REFERENCE_STROKES
90
18
70
0
10
715
20
-1328.5
10
707
20
-1329.5
10
701.5
20
-1325
10
703
20
-1321.5
10
707
20
-1324.5
10
712
20
-1324.5
10
714.5
20
-1320
10
712
20
-1316.5
10
703
20
-1317.5
10
701.5
20
-1316
10
704
20
-1302.5
10
718.5
20
-1303
10
718
20
-1306.5
10
708
20
-1307.5
10
707
20
-1311.5
10
714
20
-1311.5
10
719.5
20
-1316
10
719.5
20
-1323
0
LWPOLYLINE
8
REFERENCE_STROKES
90
5
70
0
10
352
20
-1312.5
10
354.5
20
-1306
10
350
20
-1303.5
10
347.5
20
-1305
10
346.5
20
-1310
0
LWPOLYLINE
8
REFERENCE_STROKES
90
4
70
1
10
174
20
-1313.5
10
178.5
20
-1312
10
178
20
-1307.5
10
174.5
20
-1310
0
LWPOLYLINE
8
REFERENCE_STROKES
90
22
70
0
10
1585
20
-1334.5
10
1578
20
-1334.5
10
1572.5
20
-1330
10
1574
20
-1325.5
10
1579
20
-1329.5
10
1585.5
20
-1328
10
1584
20
-1323.5
10
1578.5
20
-1322
10
1578.5
20
-1319
10
1584
20
-1317.5
10
1584.5
20
-1314
10
1583
20
-1312.5
10
1579
20
-1312.5
10
1576
20
-1315.5
10
1572.5
20
-1314
10
1572.5
20
-1312
10
1578
20
-1307.5
10
1585
20
-1307.5
10
1590.5
20
-1313
10
1590.5
20
-1317
10
1588.5
20
-1319
10
1590.5
20
-1330
0
LWPOLYLINE
8
REFERENCE_STROKES
90
17
70
1
10
1628
20
-1335.5
10
1612.5
20
-1333
10
1613.5
20
-1329
10
1624.5
20
-1318
10
1623
20
-1312.5
10
1620
20
-1312.5
10
1616
20
-1316.5
10
1612.5
20
-1315
10
1613.5
20
-1311
10
1617
20
-1308.5
10
1626
20
-1308.5
10
1629.5
20
-1313
10
1629.5
20
-1319
10
1619.5
20
-1328
10
1621
20
-1330.5
10
1629
20
-1330.5
10
1630.5
20
-1333
0
LWPOLYLINE
8
REFERENCE_STROKES
90
13
70
1
10
1609
20
-1334.5
10
1595
20
-1334.5
10
1592.5
20
-1332
10
1594
20
-1329.5
10
1599.5
20
-1329
10
1599.5
20
-1315
10
1595
20
-1315.5
10
1594.5
20
-1312
10
1600
20
-1308.5
10
1604
20
-1308.5
10
1605.5
20
-1311
10
1605.5
20
-1329
10
1610.5
20
-1332
0
LWPOLYLINE
8
REFERENCE_STROKES
90
14
70
0
10
1641
20
-1335.5
10
1636
20
-1334.5
10
1632.5
20
-1331
10
1635
20
-1327.5
10
1639
20
-1330.5
10
1643.5
20
-1329
10
1643
20
-1326.5
10
1635
20
-1325.5
10
1631.5
20
-1319
10
1633.5
20
-1311
10
1637
20
-1308.5
10
1646
20
-1309.5
10
1649.5
20
-1316
10
1648.5
20
-1330
0
LWPOLYLINE
8
REFERENCE_STROKES
90
21
70
0
10
1804
20
-1337.5
10
1796
20
-1337.5
10
1790.5
20
-1331
10
1795
20
-1329.5
10
1799
20
-1333.5
10
1804.5
20
-1331
10
1803
20
-1327.5
10
1796.5
20
-1326
10
1796.5
20
-1323
10
1802
20
-1321.5
10
1803.5
20
-1318
10
1802
20
-1316.5
10
1798
20
-1316.5
10
1795
20
-1319.5
10
1791.5
20
-1318
10
1792.5
20
-1314
10
1796
20
-1311.5
10
1804
20
-1311.5
10
1808.5
20
-1316
10
1807.5
20
-1326
10
1809.5
20
-1332
0
LWPOLYLINE
8
REFERENCE_STROKES
90
12
70
1
10
1827
20
-1338.5
10
1813
20
-1338.5
10
1811.5
20
-1337
10
1813
20
-1333.5
10
1818.5
20
-1332
10
1818.5
20
-1320
10
1814
20
-1319.5
10
1812.5
20
-1317
10
1819
20
-1311.5
10
1823.5
20
-1313
10
1823.5
20
-1333
10
1828.5
20
-1335
0
LWPOLYLINE
8
REFERENCE_STROKES
90
16
70
0
10
1848
20
-1338.5
10
1832
20
-1338.5
10
1830.5
20
-1337
10
1832.5
20
-1331
10
1842.5
20
-1322
10
1842
20
-1316.5
10
1838
20
-1316.5
10
1835
20
-1319.5
10
1831.5
20
-1319
10
1832.5
20
-1314
10
1836
20
-1311.5
10
1843
20
-1311.5
10
1847.5
20
-1316
10
1847.5
20
-1323
10
1837.5
20
-1333
10
1847
20
-1333.5
0
LWPOLYLINE
8
REFERENCE_STROKES
90
11
70
0
10
1856
20
-1338.5
10
1854.5
20
-1337
10
1855.5
20
-1331
10
1861.5
20
-1317
10
1852
20
-1316.5
10
1850.5
20
-1313
10
1853
20
-1311.5
10
1867
20
-1311.5
10
1869.5
20
-1315
10
1861.5
20
-1328
10
1860.5
20
-1337
0
LWPOLYLINE
8
REFERENCE_STROKES
90
5
70
0
10
1643
20
-1321.5
10
1644.5
20
-1316
10
1640
20
-1312.5
10
1637.5
20
-1314
10
1637.5
20
-1320
0
LWPOLYLINE
8
REFERENCE_STROKES
90
20
70
0
10
2177
20
-1340.5
10
2171
20
-1340.5
10
2164.5
20
-1336
10
2166
20
-1331.5
10
2174
20
-1336.5
10
2178.5
20
-1334
10
2177
20
-1330.5
10
2170.5
20
-1327
10
2172
20
-1324.5
10
2176
20
-1324.5
10
2177.5
20
-1320
10
2173
20
-1318.5
10
2170
20
-1321.5
10
2165.5
20
-1321
10
2165.5
20
-1318
10
2173
20
-1313.5
10
2179
20
-1314.5
10
2183.5
20
-1320
10
2181.5
20
-1325
10
2183.5
20
-1335
0
LWPOLYLINE
8
REFERENCE_STROKES
90
17
70
1
10
2220
20
-1341.5
10
2204.5
20
-1339
10
2208.5
20
-1331
10
2216.5
20
-1324
10
2216.5
20
-1320
10
2214
20
-1318.5
10
2210
20
-1321.5
10
2205.5
20
-1321
10
2205.5
20
-1318
10
2209
20
-1314.5
10
2215
20
-1313.5
10
2221.5
20
-1318
10
2221.5
20
-1325
10
2211.5
20
-1334
10
2212
20
-1335.5
10
2219
20
-1335.5
10
2221.5
20
-1338
0
LWPOLYLINE
8
REFERENCE_STROKES
90
11
70
1
10
2202
20
-1340.5
10
2187
20
-1340.5
10
2185.5
20
-1339
10
2187
20
-1335.5
10
2192.5
20
-1335
10
2192.5
20
-1322
10
2186.5
20
-1320
10
2193
20
-1314.5
10
2197.5
20
-1316
10
2197.5
20
-1335
10
2202.5
20
-1338
0
LWPOLYLINE
8
REFERENCE_STROKES
90
18
70
0
10
2235
20
-1340.5
10
2229
20
-1340.5
10
2223.5
20
-1335
10
2224
20
-1332.5
10
2227
20
-1332.5
10
2230
20
-1335.5
10
2236.5
20
-1334
10
2235
20
-1330.5
10
2228.5
20
-1327
10
2234
20
-1324.5
10
2236.5
20
-1321
10
2235
20
-1319.5
10
2224.5
20
-1321
10
2229
20
-1314.5
10
2237
20
-1314.5
10
2241.5
20
-1319
10
2239.5
20
-1326
10
2241.5
20
-1335
0
LWPOLYLINE
8
REFERENCE_STROKES
90
20
70
0
10
1992
20
-1342.5
10
1985
20
-1341.5
10
1981.5
20
-1337
10
1984
20
-1333.5
10
1989
20
-1337.5
10
1994.5
20
-1335
10
1993
20
-1331.5
10
1987.5
20
-1329
10
1993.5
20
-1324
10
1992.5
20
-1321
10
1989
20
-1320.5
10
1986
20
-1324.5
10
1982.5
20
-1323
10
1982.5
20
-1320
10
1987
20
-1316.5
10
1993
20
-1316.5
10
1998.5
20
-1321
10
1997.5
20
-1329
10
1999.5
20
-1336
10
1997
20
-1340.5
0
LWPOLYLINE
8
REFERENCE_STROKES
90
8
70
1
10
2012
20
-1342.5
10
2008.5
20
-1341
10
2008.5
20
-1327
10
2003.5
20
-1325
10
2003.5
20
-1323
10
2011
20
-1316.5
10
2014.5
20
-1319
10
2013.5
20
-1341
0
LWPOLYLINE
8
REFERENCE_STROKES
90
14
70
0
10
2035
20
-1342.5
10
2026
20
-1342.5
10
2018.5
20
-1340
10
2031.5
20
-1325
10
2029
20
-1320.5
10
2023
20
-1325.5
10
2019.5
20
-1323
10
2025
20
-1316.5
10
2031
20
-1316.5
10
2036.5
20
-1321
10
2036.5
20
-1327
10
2027.5
20
-1336
10
2028
20
-1337.5
10
2036
20
-1338.5
0
LWPOLYLINE
8
REFERENCE_STROKES
90
18
70
0
10
2050
20
-1342.5
10
2043
20
-1342.5
10
2038.5
20
-1338
10
2040
20
-1334.5
10
2046
20
-1338.5
10
2050.5
20
-1335
10
2048
20
-1329.5
10
2040
20
-1330.5
10
2038.5
20
-1329
10
2040.5
20
-1319
10
2043
20
-1316.5
10
2053
20
-1316.5
10
2054.5
20
-1318
10
2054
20
-1321.5
10
2044.5
20
-1323
10
2051
20
-1325.5
10
2055.5
20
-1330
10
2055.5
20
-1337
0
LWPOLYLINE
8
REFERENCE_BASE
90
61
70
0
10
2291.5
20
-1447
10
2290
20
-1448.5
10
1924
20
-1447.5
10
1418
20
-1442.5
10
1415.5
20
-1440
10
1417.5
20
-1341
10
1416
20
-1339.5
10
1059
20
-1336.5
10
870
20
-1336.5
10
868.5
20
-1438
10
867
20
-1439.5
10
524
20
-1438.5
10
80
20
-1432.5
10
76.5
20
-1429
10
81.5
20
-1348
10
83.5
20
-1210
10
82
20
-1208.5
10
26
20
-1208.5
10
23.5
20
-1206
10
23.5
20
-1128
10
27.5
20
-1024
10
26.5
20
-887
10
28
20
-884.5
10
85.5
20
-884
10
88.5
20
-778
10
88.5
20
-668
10
91
20
-665.5
10
186
20
-665.5
10
1040
20
-675.5
10
1045.5
20
-24
10
1069
20
-23.5
10
1070.5
20
-25
10
1070.5
20
-47
10
1072
20
-48.5
10
1083.5
20
-42
10
1090
20
-28.5
10
1092.5
20
-31
10
1092.5
20
-37
10
1101
20
-46.5
10
1108
20
-48.5
10
1108.5
20
-26
10
1111
20
-23.5
10
1457
20
-27.5
10
1458.5
20
-30
10
1456.5
20
-145
10
1458
20
-146.5
10
1482
20
-146.5
10
1483.5
20
-149
10
1478.5
20
-489
10
1478
20
-679.5
10
2298
20
-686.5
10
2299.5
20
-688
10
2296.5
20
-811
10
2296.5
20
-903
10
2302
20
-905.5
10
2341
20
-905.5
10
2342.5
20
-907
10
2342.5
20
-1227
10
2341
20
-1228.5
10
2296
20
-1228.5
10
2294.5
20
-1230
0
LWPOLYLINE
8
REFERENCE_BASE
90
118
70
1
10
2287.5
20
-1443
10
2291.5
20
-1226
10
2293
20
-1224.5
10
2338.5
20
-1224
10
2338.5
20
-911
10
2332
20
-908.5
10
2296
20
-908.5
10
2293.5
20
-906
10
2292.5
20
-809
10
2295.5
20
-691
10
2291
20
-689.5
10
1475
20
-682.5
10
1473.5
20
-681
10
1474.5
20
-505
10
1479.5
20
-152
10
1478
20
-150.5
10
1457
20
-150.5
10
1453.5
20
-148
10
1454
20
-31.5
10
1290
20
-28.5
10
1112.5
20
-28
10
1113
20
-32.5
10
1255
20
-33.5
10
1257.5
20
-36
10
1258
20
-74.5
10
1262.5
20
-73
10
1262.5
20
-38
10
1264
20
-34.5
10
1447
20
-36.5
10
1449.5
20
-39
10
1448.5
20
-146
10
1446
20
-149.5
10
1263
20
-147.5
10
1261.5
20
-146
10
1261.5
20
-122
10
1256.5
20
-121
10
1249.5
20
-685
10
1251
20
-686.5
10
1379
20
-687.5
10
1381.5
20
-691
10
1380
20
-725.5
10
1249.5
20
-726
10
1250
20
-730.5
10
1325
20
-731.5
10
1327.5
20
-734
10
1326.5
20
-901
10
1328
20
-902.5
10
1496
20
-903.5
10
1831
20
-909.5
10
2332
20
-914.5
10
2333.5
20
-916
10
2332.5
20
-997
10
2331
20
-998.5
10
2159
20
-997.5
10
2157.5
20
-999
10
2158.5
20
-1217
10
2156
20
-1219.5
10
1448
20
-1210.5
10
1445.5
20
-1209
10
1444.5
20
-1204
10
1445.5
20
-971
10
1426
20
-969.5
10
1250
20
-968.5
10
1246.5
20
-1327
10
1245
20
-1328.5
10
1043
20
-1327.5
10
1047.5
20
-967
10
1021
20
-965.5
10
851.5
20
-966
10
847.5
20
-1196
10
845
20
-1205.5
10
452
20
-1204.5
10
205.5
20
-1201
10
204.5
20
-1116
10
207.5
20
-982
10
206
20
-980.5
10
37
20
-978.5
10
35.5
20
-895
10
37
20
-893.5
10
727
20
-899.5
10
1045
20
-900.5
10
1046.5
20
-899
10
1050.5
20
-582
10
1053.5
20
-43
10
1054.5
20
-34
10
1056
20
-32.5
10
1065
20
-32.5
10
1066.5
20
-31
10
1065
20
-26.5
10
1050
20
-26.5
10
1048.5
20
-28
10
1044.5
20
-675
10
1043
20
-678.5
10
917
20
-678.5
10
332
20
-670.5
10
92.5
20
-670
10
92.5
20
-774
10
89.5
20
-885
10
87
20
-888.5
10
30.5
20
-889
10
31.5
20
-983
10
27.5
20
-1103
10
27.5
20
-1204
10
85
20
-1205.5
10
86.5
20
-1207
10
86.5
20
-1299
10
81.5
20
-1405
10
82
20
-1428.5
10
508
20
-1434.5
10
864
20
-1435.5
10
865.5
20
-1337
10
869
20
-1332.5
10
1189
20
-1333.5
10
1420
20
-1336.5
10
1421.5
20
-1340
10
1420
20
-1438.5
10
1925
20
-1443.5
10
2286
20
-1444.5
0
LWPOLYLINE
8
REFERENCE_BASE
90
123
70
0
10
2154
20
-1215.5
10
2153.5
20
-996
10
2156
20
-993.5
10
2177.5
20
-993
10
2177.5
20
-958
10
2179
20
-956.5
10
2283
20
-957.5
10
2285.5
20
-960
10
2284.5
20
-993
10
2286
20
-994.5
10
2328
20
-994.5
10
2329.5
20
-974
10
2329.5
20
-919
10
2328
20
-917.5
10
2285
20
-917.5
10
2284
20
-953.5
10
2244
20
-954.5
10
2193
20
-953.5
10
2191.5
20
-952
10
2192.5
20
-918
10
2191
20
-916.5
10
1326
20
-906.5
10
1322.5
20
-903
10
1324.5
20
-736
10
1323
20
-734.5
10
1249
20
-734.5
10
1245.5
20
-731
10
1246.5
20
-723
10
1256.5
20
-720
10
1256.5
20
-691
10
1246.5
20
-688
10
1252.5
20
-118
10
1254
20
-116.5
10
1277.5
20
-117
10
1274.5
20
-107
10
1266
20
-100.5
10
1259
20
-99.5
10
1258.5
20
-97
10
1271
20
-92.5
10
1278.5
20
-81
10
1277
20
-78.5
10
1255
20
-78.5
10
1253.5
20
-77
10
1253
20
-37.5
10
1113
20
-36.5
10
1112.5
20
-51
10
1110
20
-52.5
10
1098
20
-49.5
10
1090
20
-39.5
10
1081
20
-49.5
10
1069
20
-52.5
10
1066.5
20
-50
10
1066.5
20
-37
10
1065
20
-35.5
10
1057.5
20
-37
10
1053.5
20
-649
10
1051.5
20
-708
10
1050.5
20
-901
10
1049
20
-903.5
10
555
20
-902.5
10
186
20
-898.5
10
185.5
20
-933
10
183
20
-935.5
10
88
20
-934.5
10
86.5
20
-933
10
86.5
20
-899
10
85
20
-897.5
10
39.5
20
-898
10
39.5
20
-974
10
41
20
-975.5
10
85
20
-975.5
10
85.5
20
-939
10
87
20
-937.5
10
198
20
-938.5
10
199.5
20
-940
10
199.5
20
-976
10
201
20
-977.5
10
207
20
-976.5
10
211.5
20
-982
10
208.5
20
-1104
10
208.5
20
-1197
10
210
20
-1198.5
10
842
20
-1202.5
10
843.5
20
-1201
10
847.5
20
-964
10
850
20
-961.5
10
1048
20
-962.5
10
1051.5
20
-965
10
1048.5
20
-1159
10
1050
20
-1160.5
10
1112
20
-1160.5
10
1113.5
20
-1166
10
1111.5
20
-1298
10
1110
20
-1299.5
10
1047
20
-1298.5
10
1045.5
20
-1301
10
1045.5
20
-1323
10
1047
20
-1324.5
10
1138
20
-1324.5
10
1138.5
20
-1321
10
1132.5
20
-1305
10
1132.5
20
-1300
10
1136.5
20
-1298
10
1138
20
-1289.5
10
1145
20
-1289.5
10
1145.5
20
-1298
10
1149.5
20
-1301
10
1143.5
20
-1319
10
1144
20
-1324.5
10
1242
20
-1325.5
10
1243.5
20
-1324
10
1243
20
-1301.5
10
1181
20
-1300.5
10
1179.5
20
-1299
10
1180.5
20
-1164
10
1182
20
-1161.5
10
1244.5
20
-1161
10
1245.5
20
-967
10
1248
20
-964.5
10
1447
20
-966.5
10
1449.5
20
-968
10
1449
20
-1206.5
10
1886
20
-1213.5
0
LWPOLYLINE
8
REFERENCE_BASE
90
30
70
1
10
1444.5
20
-145
10
1445.5
20
-41
10
1444
20
-39.5
10
1431.5
20
-40
10
1431.5
20
-83
10
1430
20
-88.5
10
1318
20
-87.5
10
1315.5
20
-85
10
1316
20
-38.5
10
1266.5
20
-38
10
1265.5
20
-74
10
1267
20
-75.5
10
1281
20
-75.5
10
1282.5
20
-81
10
1278.5
20
-90
10
1269.5
20
-97
10
1278.5
20
-106
10
1281.5
20
-112
10
1281.5
20
-120
10
1280
20
-121.5
10
1265.5
20
-122
10
1266
20
-144.5
10
1301
20
-144.5
10
1301.5
20
-97
10
1303
20
-95.5
10
1416
20
-97.5
10
1417.5
20
-100
10
1416.5
20
-145
10
1418
20
-146.5
10
1443
20
-146.5
0
LWPOLYLINE
8
REFERENCE_BASE
90
5
70
0
10
1329
20
-83.5
10
1330.5
20
-82
10
1330.5
20
-40
10
1321
20
-38.5
10
1319.5
20
-82
0
LWPOLYLINE
8
REFERENCE_BASE
90
5
70
0
10
1343
20
-84.5
10
1344.5
20
-40
10
1336
20
-38.5
10
1333.5
20
-41
10
1333.5
20
-83
0
LWPOLYLINE
8
REFERENCE_BASE
90
5
70
0
10
1357
20
-84.5
10
1358.5
20
-83
10
1358.5
20
-40
10
1348
20
-39.5
10
1347.5
20
-83
0
LWPOLYLINE
8
REFERENCE_BASE
90
5
70
0
10
1371
20
-84.5
10
1372.5
20
-41
10
1363
20
-39.5
10
1361.5
20
-41
10
1361.5
20
-84
0
LWPOLYLINE
8
REFERENCE_BASE
90
5
70
0
10
1385
20
-84.5
10
1386.5
20
-41
10
1377
20
-39.5
10
1375.5
20
-41
10
1375.5
20
-84
0
LWPOLYLINE
8
REFERENCE_BASE
90
5
70
0
10
1399
20
-84.5
10
1400.5
20
-41
10
1391
20
-39.5
10
1389.5
20
-41
10
1389.5
20
-84
0
LWPOLYLINE
8
REFERENCE_BASE
90
6
70
0
10
1412
20
-85.5
10
1413.5
20
-84
10
1414.5
20
-41
10
1405
20
-39.5
10
1403.5
20
-41
10
1403.5
20
-84
0
LWPOLYLINE
8
REFERENCE_BASE
90
6
70
0
10
1426
20
-85.5
10
1427.5
20
-84
10
1427.5
20
-41
10
1419
20
-39.5
10
1417.5
20
-41
10
1417.5
20
-85
0
LWPOLYLINE
8
REFERENCE_BASE
90
5
70
0
10
1315
20
-144.5
10
1315.5
20
-100
10
1306
20
-99.5
10
1304.5
20
-143
10
1306
20
-144.5
0
LWPOLYLINE
8
REFERENCE_BASE
90
5
70
0
10
1325
20
-145.5
10
1329.5
20
-144
10
1329.5
20
-100
10
1320
20
-99.5
10
1319.5
20
-144
0
LWPOLYLINE
8
REFERENCE_BASE
90
6
70
0
10
1342
20
-145.5
10
1343.5
20
-144
10
1343.5
20
-100
10
1334
20
-99.5
10
1332.5
20
-143
10
1335
20
-145.5
0
LWPOLYLINE
8
REFERENCE_BASE
90
6
70
0
10
1356
20
-145.5
10
1357.5
20
-144
10
1357.5
20
-100
10
1348
20
-99.5
10
1346.5
20
-101
10
1346.5
20
-144
0
LWPOLYLINE
8
REFERENCE_BASE
90
6
70
0
10
1370
20
-145.5
10
1371.5
20
-144
10
1371.5
20
-101
10
1363
20
-99.5
10
1361.5
20
-101
10
1360.5
20
-144
0
LWPOLYLINE
8
REFERENCE_BASE
90
5
70
0
10
1384
20
-145.5
10
1385.5
20
-101
10
1377
20
-99.5
10
1375.5
20
-101
10
1374.5
20
-145
0
LWPOLYLINE
8
REFERENCE_BASE
90
6
70
0
10
1398
20
-145.5
10
1399.5
20
-144
10
1399.5
20
-101
10
1390
20
-100.5
10
1388.5
20
-102
10
1388.5
20
-145
0
LWPOLYLINE
8
REFERENCE_BASE
90
6
70
0
10
1411
20
-146.5
10
1412.5
20
-145
10
1413.5
20
-102
10
1404
20
-100.5
10
1402.5
20
-102
10
1402.5
20
-145
0
LWPOLYLINE
8
REFERENCE_BASE
90
6
70
0
10
1471.5
20
-328
10
1260
20
-326.5
10
1261.5
20
-155
10
1263
20
-153.5
10
1474
20
-156.5
10
1473.5
20
-289
0
LWPOLYLINE
8
REFERENCE_BASE
90
6
70
0
10
1468.5
20
-325
10
1470
20
-159.5
10
1266
20
-157.5
10
1264.5
20
-159
10
1262.5
20
-322
10
1264
20
-323.5
0
LWPOLYLINE
8
REFERENCE_BASE
90
8
70
0
10
1469.5
20
-507
10
1258
20
-506.5
10
1256.5
20
-504
10
1259.5
20
-334
10
1261
20
-332.5
10
1356
20
-332.5
10
1471
20
-334.5
10
1472.5
20
-337
0
LWPOLYLINE
8
REFERENCE_BASE
90
6
70
0
10
1466.5
20
-504
10
1468
20
-337.5
10
1272
20
-335.5
10
1262.5
20
-337
10
1260.5
20
-502
10
1262
20
-503.5
0
LWPOLYLINE
8
REFERENCE_BASE
90
8
70
0
10
1468.5
20
-681
10
1467
20
-682.5
10
1256
20
-680.5
10
1254.5
20
-678
10
1256.5
20
-514
10
1259
20
-511.5
10
1469
20
-513.5
10
1470.5
20
-516
0
LWPOLYLINE
8
REFERENCE_BASE
90
5
70
0
10
1464.5
20
-678
10
1466
20
-516.5
10
1262
20
-514.5
10
1259.5
20
-517
10
1259
20
-677.5
0
LWPOLYLINE
8
REFERENCE_BASE
90
21
70
1
10
951
20
-894.5
10
869
20
-893.5
10
867.5
20
-892
10
869.5
20
-687
10
873
20
-682.5
10
953
20
-683.5
10
956.5
20
-688
10
956.5
20
-699
10
955
20
-700.5
10
952.5
20
-700
10
952.5
20
-688
10
950
20
-686.5
10
875
20
-686.5
10
873.5
20
-688
10
871.5
20
-890
10
949
20
-890.5
10
950.5
20
-889
10
949.5
20
-880
10
953
20
-878.5
10
954.5
20
-881
10
953.5
20
-892
0
LWPOLYLINE
8
REFERENCE_BASE
90
20
70
1
10
1040
20
-894.5
10
961
20
-894.5
10
958.5
20
-892
10
958.5
20
-880
10
960
20
-878.5
10
962.5
20
-879
10
962.5
20
-890
10
964
20
-891.5
10
1037
20
-891.5
10
1038.5
20
-856
10
1039.5
20
-689
10
1037
20
-687.5
10
965
20
-687.5
10
964.5
20
-700
10
962
20
-700.5
10
960.5
20
-692
10
963
20
-683.5
10
1041
20
-684.5
10
1043.5
20
-687
10
1041.5
20
-892
0
LWPOLYLINE
8
REFERENCE_BASE
90
34
70
0
10
2111.5
20
-904
10
2110
20
-906.5
10
1898
20
-904.5
10
1893
20
-894.5
10
1889.5
20
-896
10
1889.5
20
-902
10
1887
20
-904.5
10
1830
20
-903.5
10
1827.5
20
-902
10
1825
20
-894.5
10
1821.5
20
-896
10
1821.5
20
-902
10
1819
20
-903.5
10
1606
20
-900.5
10
1602.5
20
-896
10
1604.5
20
-692
10
1606
20
-689.5
10
1821
20
-690.5
10
1823.5
20
-693
10
1823
20
-824.5
10
1827.5
20
-823
10
1828.5
20
-700
10
1829.5
20
-693
10
1833
20
-690.5
10
1890
20
-691.5
10
1891.5
20
-693
10
1889.5
20
-817
10
1891
20
-824.5
10
1895.5
20
-823
10
1898
20
-692.5
10
2112
20
-693.5
10
2113.5
20
-695
10
2113.5
20
-765
10
2111.5
20
-801
0
LWPOLYLINE
8
REFERENCE_BASE
90
19
70
0
10
1841.5
20
-881
10
1842.5
20
-875
10
1841
20
-873.5
10
1819
20
-874.5
10
1817.5
20
-873
10
1818.5
20
-845
10
1843.5
20
-844
10
1842.5
20
-838
10
1835
20
-830.5
10
1825
20
-827.5
10
1821
20
-828.5
10
1817.5
20
-825
10
1819
20
-694.5
10
1610
20
-692.5
10
1608.5
20
-694
10
1607
20
-896.5
10
1817
20
-899.5
10
1819
20
-891.5
10
1832
20
-889.5
0
LWPOLYLINE
8
REFERENCE_BASE
90
19
70
0
10
1884
20
-854.5
10
1886.5
20
-853
10
1885
20
-849.5
10
1872
20
-849.5
10
1869.5
20
-847
10
1869.5
20
-843
10
1874.5
20
-833
10
1886.5
20
-826
10
1888.5
20
-696
10
1887
20
-694.5
10
1833
20
-694.5
10
1830.5
20
-824
10
1839
20
-828.5
10
1844.5
20
-834
10
1848.5
20
-845
10
1846
20
-848.5
10
1831
20
-848.5
10
1830.5
20
-852
10
1832
20
-853.5
0
LWPOLYLINE
8
REFERENCE_BASE
90
24
70
0
10
2106
20
-903.5
10
2107.5
20
-902
10
2107.5
20
-801
10
2110.5
20
-699
10
2107
20
-696.5
10
1902
20
-695.5
10
1900.5
20
-697
10
1899.5
20
-826
10
1897
20
-828.5
10
1881
20
-832.5
10
1875.5
20
-838
10
1873.5
20
-843
10
1876
20
-846.5
10
1893
20
-844.5
10
1898.5
20
-846
10
1898.5
20
-873
10
1897
20
-874.5
10
1875
20
-874.5
10
1874.5
20
-878
10
1878.5
20
-885
10
1886
20
-890.5
10
1897
20
-891.5
10
1898.5
20
-900
10
1903
20
-901.5
0
LWPOLYLINE
8
REFERENCE_BASE
90
15
70
0
10
1895.5
20
-869
10
1895.5
20
-851
10
1894
20
-848.5
10
1889.5
20
-851
10
1889.5
20
-855
10
1887
20
-857.5
10
1831
20
-857.5
10
1827.5
20
-855
10
1826
20
-848.5
10
1821.5
20
-850
10
1822
20
-870.5
10
1826.5
20
-870
10
1829
20
-862.5
10
1889
20
-863.5
10
1890
20
-870.5
0
LWPOLYLINE
8
REFERENCE_BASE
90
15
70
0
10
1886.5
20
-900
10
1886.5
20
-895
10
1873.5
20
-885
10
1869.5
20
-874
10
1873
20
-870.5
10
1886
20
-870.5
10
1885
20
-866.5
10
1832
20
-865.5
10
1830.5
20
-867
10
1832
20
-870.5
10
1845
20
-870.5
10
1847.5
20
-874
10
1842.5
20
-886
10
1830.5
20
-894
10
1831
20
-899.5
0
LWPOLYLINE
8
REFERENCE_BASE
90
7
70
0
10
98
20
-931.5
10
100.5
20
-930
10
100.5
20
-899
10
99
20
-897.5
10
90
20
-897.5
10
89.5
20
-929
10
92
20
-931.5
0
LWPOLYLINE
8
REFERENCE_BASE
90
5
70
0
10
112
20
-931.5
10
114.5
20
-930
10
113.5
20
-898
10
104
20
-897.5
10
103.5
20
-930
0
LWPOLYLINE
8
REFERENCE_BASE
90
5
70
0
10
126
20
-931.5
10
127.5
20
-930
10
127.5
20
-899
10
118
20
-897.5
10
117.5
20
-931
0
LWPOLYLINE
8
REFERENCE_BASE
90
7
70
0
10
141
20
-931.5
10
141.5
20
-900
10
139
20
-897.5
10
132
20
-897.5
10
130.5
20
-899
10
130.5
20
-930
10
132
20
-931.5
0
LWPOLYLINE
8
REFERENCE_BASE
90
5
70
0
10
154
20
-931.5
10
154.5
20
-899
10
146
20
-897.5
10
144.5
20
-899
10
144.5
20
-931
0
LWPOLYLINE
8
REFERENCE_BASE
90
6
70
0
10
167
20
-931.5
10
168.5
20
-930
10
167.5
20
-899
10
160
20
-897.5
10
157.5
20
-899
10
157.5
20
-930
0
LWPOLYLINE
8
REFERENCE_BASE
90
5
70
0
10
182
20
-931.5
10
181.5
20
-899
10
172
20
-898.5
10
170.5
20
-900
10
171.5
20
-931
0
LWPOLYLINE
8
REFERENCE_BASE
90
6
70
0
10
2206
20
-950.5
10
2206.5
20
-917
10
2197
20
-916.5
10
2195.5
20
-918
10
2195.5
20
-949
10
2197
20
-950.5
0
LWPOLYLINE
8
REFERENCE_BASE
90
5
70
0
10
2221
20
-950.5
10
2221.5
20
-917
10
2211
20
-916.5
10
2209.5
20
-949
10
2211
20
-950.5
0
LWPOLYLINE
8
REFERENCE_BASE
90
6
70
0
10
2236
20
-950.5
10
2236.5
20
-918
10
2227
20
-916.5
10
2225.5
20
-918
10
2224.5
20
-949
10
2226
20
-950.5
0
LWPOLYLINE
8
REFERENCE_BASE
90
6
70
0
10
2250
20
-950.5
10
2251.5
20
-949
10
2251.5
20
-918
10
2242
20
-916.5
10
2239.5
20
-918
10
2239.5
20
-950
0
LWPOLYLINE
8
REFERENCE_BASE
90
6
70
0
10
2264
20
-951.5
10
2266.5
20
-950
10
2266.5
20
-918
10
2258
20
-916.5
10
2254.5
20
-918
10
2254.5
20
-950
0
LWPOLYLINE
8
REFERENCE_BASE
90
6
70
0
10
2278
20
-951.5
10
2280.5
20
-950
10
2281.5
20
-919
10
2280
20
-917.5
10
2270
20
-917.5
10
2269.5
20
-950
0
LWPOLYLINE
8
REFERENCE_BASE
90
78
70
0
10
784.5
20
-1162
10
783
20
-1163.5
10
678
20
-1162.5
10
676.5
20
-1174
10
679
20
-1176.5
10
688
20
-1176.5
10
690.5
20
-1179
10
689
20
-1185.5
10
679
20
-1185.5
10
668.5
20
-1179
10
668.5
20
-1164
10
667
20
-1162.5
10
310
20
-1161.5
10
307.5
20
-1159
10
309.5
20
-959
10
312
20
-957.5
10
447
20
-958.5
10
448.5
20
-960
10
448.5
20
-969
10
447
20
-970.5
10
375.5
20
-971
10
375.5
20
-986
10
377
20
-987.5
10
390.5
20
-988
10
390.5
20
-1029
10
375.5
20
-1032
10
374.5
20
-1055
10
376
20
-1056.5
10
455
20
-1056.5
10
454.5
20
-1049
10
457.5
20
-1045
10
454.5
20
-1038
10
457.5
20
-1030
10
454.5
20
-1023
10
457.5
20
-1015
10
454.5
20
-1008
10
455.5
20
-1003
10
462
20
-997.5
10
471
20
-998.5
10
473
20
-988.5
10
483
20
-988.5
10
485
20
-998.5
10
494
20
-997.5
10
501.5
20
-1004
10
501.5
20
-1009
10
498.5
20
-1014
10
501.5
20
-1019
10
501.5
20
-1024
10
498.5
20
-1029
10
501.5
20
-1035
10
498.5
20
-1043
10
501
20
-1057.5
10
576
20
-1057.5
10
577.5
20
-1056
10
577.5
20
-1033
10
575
20
-1031.5
10
564
20
-1032.5
10
561.5
20
-1030
10
562.5
20
-989
10
577
20
-988.5
10
578.5
20
-987
10
578.5
20
-973
10
577
20
-971.5
10
510
20
-971.5
10
508.5
20
-970
10
509
20
-959.5
10
671
20
-960.5
10
671.5
20
-933
10
679
20
-926.5
10
693
20
-926.5
10
694.5
20
-933
10
692
20
-935.5
10
680.5
20
-936
10
679.5
20
-959
10
681
20
-960.5
10
785
20
-960.5
10
787.5
20
-962
10
787.5
20
-1053
0
LWPOLYLINE
8
REFERENCE_BASE
90
5
70
0
10
99
20
-975.5
10
99.5
20
-942
10
92
20
-940.5
10
88.5
20
-943
10
89.5
20
-975
0
LWPOLYLINE
8
REFERENCE_BASE
90
6
70
0
10
113
20
-975.5
10
114.5
20
-974
10
113.5
20
-942
10
103
20
-941.5
10
102.5
20
-974
10
104
20
-975.5
0
LWPOLYLINE
8
REFERENCE_BASE
90
5
70
0
10
127
20
-975.5
10
127.5
20
-943
10
118
20
-941.5
10
116.5
20
-943
10
117.5
20
-975
0
LWPOLYLINE
8
REFERENCE_BASE
90
5
70
0
10
141
20
-975.5
10
141.5
20
-943
10
140
20
-941.5
10
131
20
-941.5
10
130.5
20
-975
0
LWPOLYLINE
8
REFERENCE_BASE
90
5
70
0
10
153
20
-976.5
10
154.5
20
-975
10
154.5
20
-943
10
145
20
-941.5
10
144.5
20
-975
0
LWPOLYLINE
8
REFERENCE_BASE
90
6
70
0
10
167
20
-976.5
10
168.5
20
-975
10
168.5
20
-943
10
159
20
-941.5
10
157.5
20
-944
10
157.5
20
-975
0
LWPOLYLINE
8
REFERENCE_BASE
90
6
70
0
10
181
20
-976.5
10
182.5
20
-975
10
182.5
20
-943
10
173
20
-941.5
10
171.5
20
-943
10
171.5
20
-976
0
LWPOLYLINE
8
REFERENCE_BASE
90
6
70
0
10
195
20
-976.5
10
196.5
20
-975
10
195.5
20
-943
10
187
20
-941.5
10
185.5
20
-943
10
185.5
20
-976
0
LWPOLYLINE
8
REFERENCE_BASE
90
5
70
0
10
2192
20
-994.5
10
2192.5
20
-962
10
2191
20
-960.5
10
2182
20
-960.5
10
2181.5
20
-994
0
LWPOLYLINE
8
REFERENCE_BASE
90
8
70
0
10
2206
20
-994.5
10
2207.5
20
-993
10
2207.5
20
-962
10
2206
20
-960.5
10
2197
20
-960.5
10
2195.5
20
-962
10
2195.5
20
-993
10
2197
20
-994.5
0
LWPOLYLINE
8
REFERENCE_BASE
90
5
70
0
10
2221
20
-994.5
10
2222.5
20
-993
10
2221.5
20
-961
10
2211
20
-960.5
10
2210.5
20
-994
0
LWPOLYLINE
8
REFERENCE_BASE
90
6
70
0
10
2236
20
-994.5
10
2237.5
20
-993
10
2236.5
20
-962
10
2227
20
-960.5
10
2225.5
20
-962
10
2225.5
20
-994
0
LWPOLYLINE
8
REFERENCE_BASE
90
5
70
0
10
2251
20
-994.5
10
2251.5
20
-962
10
2242
20
-960.5
10
2240.5
20
-962
10
2240.5
20
-994
0
LWPOLYLINE
8
REFERENCE_BASE
90
6
70
0
10
2264
20
-995.5
10
2266.5
20
-994
10
2266.5
20
-962
10
2258
20
-960.5
10
2254.5
20
-962
10
2254.5
20
-994
0
LWPOLYLINE
8
REFERENCE_BASE
90
26
70
0
10
781.5
20
-1159
10
784.5
20
-966
10
783
20
-964.5
10
514
20
-962.5
10
511.5
20
-965
10
513
20
-967.5
10
580
20
-968.5
10
581.5
20
-970
10
580.5
20
-1059
10
579
20
-1060.5
10
481
20
-1059.5
10
480.5
20
-992
10
476
20
-991.5
10
474.5
20
-994
10
474.5
20
-1058
10
473
20
-1059.5
10
425
20
-1060.5
10
373
20
-1059.5
10
371.5
20
-1058
10
372.5
20
-969
10
376
20
-966.5
10
443
20
-967.5
10
444
20
-962.5
10
313.5
20
-962
10
312
20
-1157.5
10
731
20
-1160.5
0
LWPOLYLINE
8
REFERENCE_BASE
90
6
70
0
10
2280
20
-995.5
10
2281.5
20
-994
10
2281.5
20
-962
10
2271
20
-961.5
10
2269.5
20
-963
10
2269.5
20
-994
0
LWPOLYLINE
8
REFERENCE_BASE
90
8
70
0
10
360
20
-1153.5
10
320
20
-1153.5
10
316.5
20
-1151
10
318.5
20
-968
10
320
20
-966.5
10
365
20
-966.5
10
367.5
20
-971
10
364.5
20
-1151
0
LWPOLYLINE
8
REFERENCE_BASE
90
57
70
0
10
2018.5
20
-1173
10
2016
20
-1175.5
10
1504
20
-1169.5
10
1501.5
20
-1166
10
1501.5
20
-969
10
1504
20
-966.5
10
1805
20
-970.5
10
1805.5
20
-981
10
1803
20
-982.5
10
1710.5
20
-982
10
1710.5
20
-997
10
1726
20
-997.5
10
1727.5
20
-999
10
1727.5
20
-1040
10
1726
20
-1041.5
10
1710.5
20
-1042
10
1710.5
20
-1066
10
1720
20
-1067.5
10
1813
20
-1068.5
10
1812.5
20
-1060
10
1814.5
20
-1058
10
1814.5
20
-1054
10
1812.5
20
-1051
10
1812.5
20
-1045
10
1814.5
20
-1040
10
1812.5
20
-1037
10
1812.5
20
-1030
10
1814.5
20
-1025
10
1811.5
20
-1017
10
1816
20
-1010.5
10
1828
20
-1010.5
10
1830
20
-999.5
10
1839
20
-999.5
10
1841.5
20
-1001
10
1842
20
-1011.5
10
1853
20
-1010.5
10
1859.5
20
-1016
10
1859.5
20
-1022
10
1856.5
20
-1027
10
1859.5
20
-1031
10
1859.5
20
-1038
10
1857.5
20
-1040
10
1859.5
20
-1053
10
1857.5
20
-1058
10
1859.5
20
-1060
10
1861
20
-1069.5
10
1949.5
20
-1069
10
1949.5
20
-1046
10
1935.5
20
-1044
10
1934.5
20
-1002
10
1948.5
20
-1001
10
1948.5
20
-985
10
1867
20
-983.5
10
1865.5
20
-982
10
1866
20
-971.5
10
2015
20
-972.5
10
2017.5
20
-974
0
LWPOLYLINE
8
REFERENCE_BASE
90
7
70
0
10
360
20
-1149.5
10
361.5
20
-1148
10
363.5
20
-972
10
362
20
-970.5
10
324
20
-969.5
10
322.5
20
-971
10
320.5
20
-1149
0
LWPOLYLINE
8
REFERENCE_BASE
90
43
70
1
10
551.5
20
-1427
10
551.5
20
-1362
10
556.5
20
-1212
10
559
20
-1209.5
10
807
20
-1211.5
10
808.5
20
-1218
10
805.5
20
-1340
10
809
20
-1340.5
10
810.5
20
-1338
10
812.5
20
-1215
10
815
20
-1211.5
10
892
20
-1211.5
10
893.5
20
-1213
10
891.5
20
-1290
10
893
20
-1291.5
10
897.5
20
-1290
10
898.5
20
-1207
10
895
20
-1205.5
10
854
20
-1205.5
10
852.5
20
-1204
10
857.5
20
-972
10
859
20
-970.5
10
1022
20
-970.5
10
1041
20
-971.5
10
1042.5
20
-973
10
1036.5
20
-1325
10
1034
20
-1327.5
10
898
20
-1327.5
10
896
20
-1316.5
10
891.5
20
-1317
10
891.5
20
-1325
10
889
20
-1327.5
10
862
20
-1327.5
10
859.5
20
-1429
10
858
20
-1430.5
10
813
20
-1430.5
10
808.5
20
-1427
10
809.5
20
-1367
10
808
20
-1365.5
10
804.5
20
-1367
10
804.5
20
-1425
10
802
20
-1430.5
10
554
20
-1429.5
0
LWPOLYLINE
8
REFERENCE_BASE
90
29
70
0
10
2014.5
20
-1171
10
2014.5
20
-1004
10
2013
20
-976.5
10
1870
20
-974.5
10
1870
20
-979.5
10
1950
20
-980.5
10
1951.5
20
-982
10
1953.5
20
-1003
10
1953.5
20
-1071
10
1952
20
-1072.5
10
1848
20
-1072.5
10
1841
20
-1071.5
10
1838.5
20
-1069
10
1838.5
20
-1009
10
1837
20
-1003.5
10
1832.5
20
-1004
10
1832.5
20
-1070
10
1831
20
-1071.5
10
1711
20
-1070.5
10
1707.5
20
-1068
10
1707.5
20
-979
10
1709
20
-977.5
10
1801
20
-978.5
10
1800
20
-973.5
10
1507
20
-970.5
10
1505.5
20
-972
10
1505.5
20
-1164
10
1507
20
-1165.5
10
1828
20
-1170.5
0
LWPOLYLINE
8
REFERENCE_BASE
90
17
70
0
10
1031
20
-1324.5
10
1032.5
20
-1323
10
1034.5
20
-1266
10
1039.5
20
-975
10
861
20
-973.5
10
855.5
20
-1201
10
857
20
-1202.5
10
901
20
-1202.5
10
903.5
20
-1206
10
900.5
20
-1294
10
885
20
-1297.5
10
878.5
20
-1303
10
875.5
20
-1311
10
877
20
-1312.5
10
898
20
-1312.5
10
900.5
20
-1315
10
901
20
-1323.5
0
LWPOLYLINE
8
REFERENCE_BASE
90
42
70
0
10
1737.5
20
-1434
10
1735
20
-1436.5
10
1485
20
-1434.5
10
1480.5
20
-1431
10
1481.5
20
-1373
10
1480
20
-1370.5
10
1476.5
20
-1371
10
1475.5
20
-1432
10
1474
20
-1433.5
10
1427
20
-1433.5
10
1424.5
20
-1431
10
1426.5
20
-1332
10
1425
20
-1330.5
10
1402
20
-1330.5
10
1399
20
-1319.5
10
1395.5
20
-1321
10
1395.5
20
-1328
10
1393
20
-1330.5
10
1254
20
-1328.5
10
1252.5
20
-1327
10
1254.5
20
-976
10
1257
20
-973.5
10
1439
20
-975.5
10
1440.5
20
-977
10
1439.5
20
-1208
10
1437
20
-1210.5
10
1397
20
-1209.5
10
1395.5
20
-1211
10
1395.5
20
-1294
10
1401.5
20
-1293
10
1400.5
20
-1221
10
1402
20
-1215.5
10
1475
20
-1216.5
10
1476.5
20
-1219
10
1476.5
20
-1344
10
1478
20
-1345.5
10
1481.5
20
-1343
10
1480.5
20
-1222
10
1481.5
20
-1218
10
1485
20
-1215.5
10
1737
20
-1220.5
10
1738.5
20
-1223
0
LWPOLYLINE
8
REFERENCE_BASE
90
18
70
0
10
1391
20
-1326.5
10
1392
20
-1316.5
10
1400
20
-1314.5
10
1414
20
-1315.5
10
1415.5
20
-1314
10
1414.5
20
-1308
10
1409
20
-1301.5
10
1403
20
-1298.5
10
1393
20
-1298.5
10
1391.5
20
-1297
10
1391.5
20
-1208
10
1395
20
-1205.5
10
1435
20
-1206.5
10
1436.5
20
-1205
10
1437.5
20
-980
10
1428
20
-978.5
10
1259
20
-977.5
10
1256.5
20
-1325
0
LWPOLYLINE
8
REFERENCE_BASE
90
8
70
0
10
2006
20
-1166.5
10
1972
20
-1166.5
10
1959.5
20
-1164
10
1957.5
20
-983
10
1961
20
-980.5
10
2007
20
-981.5
10
2008.5
20
-983
10
2009.5
20
-1163
0
LWPOLYLINE
8
REFERENCE_BASE
90
7
70
0
10
2005
20
-1162.5
10
2004.5
20
-985
10
1962
20
-984.5
10
1960.5
20
-988
10
1963.5
20
-1100
10
1962.5
20
-1160
10
1964
20
-1162.5
0
LWPOLYLINE
8
REFERENCE_BASE
90
6
70
1
10
384
20
-1003.5
10
385.5
20
-996
10
382
20
-993.5
10
380.5
20
-996
10
382.5
20
-1000
10
380.5
20
-1003
0
LWPOLYLINE
8
REFERENCE_BASE
90
6
70
1
10
572
20
-1005.5
10
570.5
20
-999
10
572.5
20
-996
10
569
20
-995.5
10
566.5
20
-1001
10
569
20
-1005.5
0
LWPOLYLINE
8
REFERENCE_BASE
90
6
70
0
10
1721
20
-1013.5
10
1722.5
20
-1007
10
1721
20
-1004.5
10
1717
20
-1004.5
10
1719.5
20
-1010
10
1716.5
20
-1013
0
LWPOLYLINE
8
REFERENCE_BASE
90
7
70
0
10
375.5
20
-1011
10
377
20
-1012.5
10
380
20
-1010.5
10
387
20
-1011.5
10
387.5
20
-1007
10
381
20
-1007.5
10
377
20
-1005.5
0
LWPOLYLINE
8
REFERENCE_BASE
90
6
70
0
10
577.5
20
-1014
10
577
20
-1007.5
10
572
20
-1009.5
10
565.5
20
-1009
10
566
20
-1012.5
10
572
20
-1011.5
0
LWPOLYLINE
8
REFERENCE_BASE
90
7
70
1
10
1944
20
-1018.5
10
1945.5
20
-1015
10
1943.5
20
-1012
10
1945.5
20
-1009
10
1942
20
-1007.5
10
1939.5
20
-1014
10
1940.5
20
-1017
0
LWPOLYLINE
8
REFERENCE_BASE
90
6
70
0
10
381
20
-1024.5
10
385.5
20
-1022
10
385.5
20
-1016
10
383
20
-1013.5
10
380.5
20
-1015
10
382.5
20
-1018
0
LWPOLYLINE
8
REFERENCE_BASE
90
6
70
0
10
571
20
-1025.5
10
572.5
20
-1023
10
570.5
20
-1019
10
572.5
20
-1016
10
569
20
-1015.5
10
566.5
20
-1022
0
LWPOLYLINE
8
REFERENCE_BASE
90
6
70
0
10
1712.5
20
-1023
10
1718
20
-1020.5
10
1724
20
-1021.5
10
1723.5
20
-1017
10
1717
20
-1017.5
10
1713
20
-1015.5
0
LWPOLYLINE
8
REFERENCE_BASE
90
5
70
1
10
494
20
-1024.5
10
496.5
20
-1022
10
495
20
-1019.5
10
492.5
20
-1020
10
492.5
20
-1024
0
LWPOLYLINE
8
REFERENCE_BASE
90
6
70
0
10
1950.5
20
-1026
10
1949
20
-1020.5
10
1944
20
-1022.5
10
1938.5
20
-1022
10
1939
20
-1025.5
10
1945
20
-1024.5
0
LWPOLYLINE
8
REFERENCE_BASE
90
6
70
0
10
1721
20
-1034.5
10
1722.5
20
-1027
10
1721
20
-1024.5
10
1718
20
-1024.5
10
1719.5
20
-1030
10
1716.5
20
-1033
0
LWPOLYLINE
8
REFERENCE_BASE
90
6
70
0
10
1945
20
-1038.5
10
1946.5
20
-1036
10
1943.5
20
-1032
10
1945.5
20
-1029
10
1942
20
-1028.5
10
1940.5
20
-1037
0
LWPOLYLINE
8
REFERENCE_BASE
90
4
70
1
10
1853
20
-1036.5
10
1854.5
20
-1033
10
1851
20
-1031.5
10
1850.5
20
-1036
0
LWPOLYLINE
8
REFERENCE_BASE
90
4
70
0
10
463
20
-1039.5
10
463.5
20
-1035
10
461
20
-1034.5
10
459.5
20
-1037
0
LWPOLYLINE
8
REFERENCE_BASE
90
5
70
1
10
494
20
-1039.5
10
496.5
20
-1037
10
495
20
-1034.5
10
492.5
20
-1035
10
492.5
20
-1039
0
LWPOLYLINE
8
REFERENCE_BASE
90
4
70
1
10
1851
20
-1051.5
10
1854.5
20
-1050
10
1853
20
-1046.5
10
1850.5
20
-1048
0
LWPOLYLINE
8
REFERENCE_BASE
90
5
70
1
10
494
20
-1054.5
10
496.5
20
-1052
10
495
20
-1049.5
10
492.5
20
-1050
10
492.5
20
-1054
0
LWPOLYLINE
8
REFERENCE_BASE
90
4
70
1
10
1821
20
-1065.5
10
1821.5
20
-1063
10
1819
20
-1060.5
10
1817.5
20
-1065
0
LWPOLYLINE
8
REFERENCE_BASE
90
4
70
1
10
1853
20
-1066.5
10
1854.5
20
-1063
10
1852
20
-1061.5
10
1850.5
20
-1065
0
LWPOLYLINE
8
REFERENCE_BASE
90
6
70
1
10
1109.5
20
-1174
10
1108
20
-1164.5
10
1050
20
-1163.5
10
1048.5
20
-1166
10
1050
20
-1175.5
10
1108
20
-1175.5
0
LWPOLYLINE
8
REFERENCE_BASE
90
6
70
1
10
1244.5
20
-1176
10
1244
20
-1165.5
10
1186
20
-1165.5
10
1184.5
20
-1167
10
1185
20
-1176.5
10
1243
20
-1177.5
0
LWPOLYLINE
8
REFERENCE_BASE
90
6
70
1
10
1109.5
20
-1188
10
1108
20
-1178.5
10
1050
20
-1178.5
10
1048.5
20
-1180
10
1049
20
-1189.5
10
1108
20
-1190.5
0
LWPOLYLINE
8
REFERENCE_BASE
90
6
70
0
10
1244.5
20
-1191
10
1244.5
20
-1182
10
1243
20
-1180.5
10
1184.5
20
-1181
10
1184.5
20
-1190
10
1186
20
-1191.5
0
LWPOLYLINE
8
REFERENCE_BASE
90
5
70
1
10
1108.5
20
-1204
10
1108
20
-1193.5
10
1048.5
20
-1194
10
1049
20
-1204.5
10
1107
20
-1205.5
0
LWPOLYLINE
8
REFERENCE_BASE
90
6
70
1
10
1244.5
20
-1206
10
1244
20
-1195.5
10
1186
20
-1194.5
10
1184.5
20
-1196
10
1185
20
-1206.5
10
1242
20
-1207.5
0
LWPOLYLINE
8
REFERENCE_BASE
90
4
70
0
10
1108.5
20
-1220
10
1108
20
-1208.5
10
1048.5
20
-1209
10
1049
20
-1220.5
0
LWPOLYLINE
8
REFERENCE_BASE
90
6
70
1
10
1244.5
20
-1221
10
1244.5
20
-1212
10
1243
20
-1210.5
10
1184.5
20
-1211
10
1185
20
-1221.5
10
1243
20
-1222.5
0
LWPOLYLINE
8
REFERENCE_BASE
90
12
70
0
10
800.5
20
-1426
10
800.5
20
-1364
10
803
20
-1361.5
10
825.5
20
-1362
10
824.5
20
-1355
10
820
20
-1349.5
10
813
20
-1345.5
10
801.5
20
-1343
10
804
20
-1214.5
10
560.5
20
-1214
10
554.5
20
-1424
10
556
20
-1425.5
0
LWPOLYLINE
8
REFERENCE_BASE
90
21
70
0
10
855
20
-1426.5
10
856.5
20
-1425
10
857.5
20
-1327
10
860
20
-1323.5
10
887.5
20
-1323
10
886
20
-1315.5
10
875
20
-1316.5
10
871.5
20
-1314
10
871.5
20
-1309
10
874.5
20
-1302
10
882
20
-1294.5
10
888.5
20
-1291
10
889.5
20
-1215
10
818
20
-1214.5
10
816.5
20
-1216
10
813.5
20
-1341
10
826.5
20
-1351
10
830.5
20
-1364
10
828
20
-1366.5
10
813.5
20
-1367
10
812.5
20
-1426
0
LWPOLYLINE
8
REFERENCE_BASE
90
21
70
0
10
1471
20
-1430.5
10
1472.5
20
-1429
10
1472.5
20
-1371
10
1458
20
-1370.5
10
1455.5
20
-1366
10
1459.5
20
-1355
10
1472.5
20
-1345
10
1472.5
20
-1220
10
1405
20
-1218.5
10
1404.5
20
-1295
10
1410
20
-1297.5
10
1416.5
20
-1304
10
1420.5
20
-1316
10
1419
20
-1318.5
10
1405
20
-1318.5
10
1404.5
20
-1326
10
1406
20
-1327.5
10
1429
20
-1327.5
10
1430.5
20
-1331
10
1428.5
20
-1429
10
1430
20
-1430.5
0
LWPOLYLINE
8
REFERENCE_BASE
90
10
70
0
10
1733.5
20
-1432
10
1734
20
-1223.5
10
1484.5
20
-1220
10
1484.5
20
-1348
10
1469
20
-1351.5
10
1462.5
20
-1358
10
1460.5
20
-1366
10
1483
20
-1366.5
10
1484.5
20
-1368
10
1485
20
-1430.5
0
LWPOLYLINE
8
REFERENCE_BASE
90
8
70
1
10
1921
20
-1437.5
10
1745
20
-1436.5
10
1742.5
20
-1434
10
1743.5
20
-1222
10
1745
20
-1220.5
10
1923
20
-1222.5
10
1924.5
20
-1224
10
1922.5
20
-1436
0
LWPOLYLINE
8
REFERENCE_BASE
90
9
70
1
10
2105
20
-1438.5
10
1933
20
-1438.5
10
1927.5
20
-1435
10
1929.5
20
-1226
10
1931
20
-1223.5
10
1994
20
-1222.5
10
2102
20
-1223.5
10
2110.5
20
-1225
10
2107.5
20
-1436
0
LWPOLYLINE
8
REFERENCE_BASE
90
7
70
1
10
1108.5
20
-1234
10
1108.5
20
-1225
10
1107
20
-1223.5
10
1049
20
-1223.5
10
1047.5
20
-1225
10
1048
20
-1234.5
10
1107
20
-1235.5
0
LWPOLYLINE
8
REFERENCE_BASE
90
8
70
0
10
1917
20
-1434.5
10
1918.5
20
-1433
10
1920.5
20
-1227
10
1919
20
-1225.5
10
1748
20
-1223.5
10
1746.5
20
-1225
10
1746.5
20
-1432
10
1754
20
-1433.5
0
LWPOLYLINE
8
REFERENCE_BASE
90
6
70
0
10
1244.5
20
-1232
10
1243
20
-1225.5
10
1186
20
-1224.5
10
1184.5
20
-1226
10
1185
20
-1236.5
10
1242
20
-1237.5
0
LWPOLYLINE
8
REFERENCE_BASE
90
7
70
0
10
2103
20
-1434.5
10
2107.5
20
-1229
10
2106
20
-1227.5
10
1935
20
-1225.5
10
1933.5
20
-1227
10
1931.5
20
-1433
10
1933
20
-1434.5
0
LWPOLYLINE
8
REFERENCE_BASE
90
7
70
1
10
1108.5
20
-1249
10
1108.5
20
-1240
10
1107
20
-1238.5
10
1047.5
20
-1239
10
1047.5
20
-1249
10
1049
20
-1250.5
10
1107
20
-1250.5
0
LWPOLYLINE
8
REFERENCE_BASE
90
5
70
0
10
1243.5
20
-1252
10
1243
20
-1240.5
10
1186
20
-1239.5
10
1183.5
20
-1242
10
1185
20
-1251.5
0
LWPOLYLINE
8
REFERENCE_BASE
90
6
70
1
10
1108.5
20
-1264
10
1108.5
20
-1255
10
1107
20
-1253.5
10
1047.5
20
-1254
10
1048
20
-1264.5
10
1107
20
-1265.5
0
LWPOLYLINE
8
REFERENCE_BASE
90
6
70
1
10
1243.5
20
-1266
10
1243
20
-1255.5
10
1186
20
-1254.5
10
1183.5
20
-1257
10
1184
20
-1266.5
10
1242
20
-1267.5
0
LWPOLYLINE
8
REFERENCE_BASE
90
6
70
0
10
1108.5
20
-1273
10
1107
20
-1268.5
10
1048
20
-1268.5
10
1047.5
20
-1279
10
1049
20
-1280.5
10
1107
20
-1280.5
0
LWPOLYLINE
8
REFERENCE_BASE
90
4
70
0
10
1243.5
20
-1282
10
1243
20
-1270.5
10
1183.5
20
-1271
10
1184
20
-1281.5
0
LWPOLYLINE
8
REFERENCE_BASE
90
5
70
0
10
1107.5
20
-1295
10
1107
20
-1283.5
10
1048
20
-1283.5
10
1046.5
20
-1286
10
1048
20
-1295.5
0
LWPOLYLINE
8
REFERENCE_BASE
90
5
70
0
10
1243.5
20
-1297
10
1243
20
-1285.5
10
1183.5
20
-1286
10
1183.5
20
-1296
10
1185
20
-1297.5
0
ENDSEC
0
EOF
