<?xml version="1.0" encoding="UTF-8"?>
<svg xmlns="http://www.w3.org/2000/svg" width="2376" height="1434" viewBox="0 0 2376 1434">
  <rect width="100%" height="100%" fill="#ffffff"/>
  <g id="editable-stroke-linework" fill="none" stroke="#111827" stroke-width="2.2" stroke-linecap="round" stroke-linejoin="round">
    <path d="M 2291.5 170.0 L 2288.5 179.0 L 2284.0 183.5 L 2273.0 187.5 L 2260.0 199.5 L 2247.0 204.5 L 2231.0 204.5 L 2216.0 200.5 L 2170.0 174.5 L 2145.0 167.5 L 2134.0 166.5 L 2121.0 168.5 L 2080.0 186.5 L 2061.0 191.5 L 2042.0 191.5 L 2022.0 184.5 L 2008.0 172.5 L 1997.0 166.5 L 1955.0 153.5 L 1898.0 144.5 L 1835.0 139.5 L 1821.0 140.5 L 1820.5 139.0 L 1865.0 118.5 L 1914.0 99.5 L 1933.0 78.5 L 1955.0 83.5 L 1969.0 64.5 L 1991.0 72.5 L 2008.0 51.5 L 2033.0 61.5 L 2047.0 43.5 L 2056.0 46.5 L 2069.0 55.5 L 2076.0 55.5 L 2102.0 39.5 L 2117.0 36.5 L 2131.0 39.5 L 2144.0 50.5 L 2149.0 49.5 L 2160.0 53.5 L 2169.5 64.0 L 2184.5 96.0 L 2198.0 107.5 L 2226.0 114.5 L 2244.0 112.5 L 2257.0 118.5 L 2270.0 120.5 L 2281.5 131.0 L 2288.5 142.0"/>
    <path d="M 2054.5 54.0 L 2052.0 51.5 L 2048.5 52.0 L 2049.0 54.5"/>
    <path d="M 2140.5 79.0 L 2140.5 76.0 L 2135.0 67.5 L 2126.0 74.5 L 2122.5 74.0 L 2121.5 67.0 L 2124.5 59.0 L 2124.0 54.5 L 2116.0 51.5 L 2108.5 53.0 L 2106.5 66.0 L 2109.5 74.0 L 2114.0 78.5 L 2124.0 82.5 L 2136.0 81.5"/>
    <path d="M 2018.5 63.0 L 2015.0 59.5 L 2011.0 58.5 L 2009.5 60.0 L 2011.0 62.5"/>
    <path d="M 1977.5 75.0 L 1977.5 73.0 L 1974.0 71.5 L 1970.5 73.0 L 1971.0 75.5"/>
    <path d="M 2011.5 152.0 L 2015.0 159.5 L 2018.0 155.5 L 2018.5 159.0 L 2021.0 160.5 L 2023.5 159.0 L 2023.5 151.0 L 2021.5 149.0 L 2023.0 147.5 L 2031.0 150.5 L 2033.0 148.5 L 2030.5 154.0 L 2034.0 154.5 L 2034.5 158.0 L 2036.5 158.0 L 2039.5 137.0 L 2045.5 127.0 L 2045.5 124.0 L 2043.0 123.5 L 2042.5 121.0 L 2047.0 111.5 L 2049.0 114.5 L 2053.5 113.0 L 2048.5 110.0 L 2053.0 104.5 L 2054.5 105.0 L 2056.5 119.0 L 2054.0 120.5 L 2048.0 117.5 L 2045.5 120.0 L 2046.0 122.5 L 2050.0 120.5 L 2051.5 122.0 L 2049.5 130.0 L 2050.5 134.0 L 2047.5 138.0 L 2046.5 145.0 L 2048.0 157.5 L 2050.5 157.0 L 2053.5 146.0 L 2064.5 130.0 L 2070.0 127.5 L 2080.0 118.5 L 2089.0 114.5 L 2100.0 112.5 L 2105.0 109.5 L 2126.0 108.5 L 2148.0 111.5 L 2166.0 118.5 L 2167.5 117.0 L 2139.0 101.5 L 2121.0 98.5 L 2098.0 99.5 L 2065.0 112.5 L 2063.5 107.0 L 2064.5 94.0 L 2067.5 87.0 L 2065.0 85.5 L 2047.5 99.0 L 2035.0 118.5 L 2031.5 112.0 L 2031.5 102.0 L 2027.5 102.0 L 2015.5 123.0 L 2011.5 138.0"/>
    <path d="M 2224.5 1367.0 L 2200.0 1367.5 L 2050.0 1361.5 L 2049.5 1375.0 L 2046.0 1379.5 L 2033.0 1373.5 L 2026.5 1362.0 L 2022.0 1359.5 L 1748.0 1350.5 L 1463.0 1337.5 L 1460.5 1343.0 L 1453.0 1350.5 L 1440.0 1353.5 L 1438.5 1352.0 L 1438.5 1337.0 L 1437.0 1335.5 L 1427.0 1336.5 L 1423.5 1333.0 L 1426.5 1238.0 L 1425.0 1236.5 L 1188.0 1227.5 L 1186.5 1244.0 L 1184.0 1245.5 L 1173.0 1241.5 L 1166.0 1231.5 L 1157.0 1240.5 L 1144.0 1243.5 L 1142.5 1242.0 L 1143.5 1227.0 L 1142.0 1225.5 L 1117.0 1225.5 L 1116.5 1240.0 L 1114.0 1242.5 L 1101.0 1237.5 L 1095.0 1228.5 L 1085.0 1238.5 L 1073.0 1240.5 L 1071.5 1238.0 L 1072.5 1224.0 L 1069.0 1222.5 L 916.0 1218.5 L 838.0 1214.5 L 835.5 1216.0 L 832.5 1309.0 L 830.0 1312.5 L 814.0 1311.5 L 811.5 1314.0 L 811.5 1328.0 L 810.0 1329.5 L 797.0 1325.5 L 787.0 1310.5 L 580.0 1304.5 L 505.0 1300.5 L 502.0 1316.5 L 494.0 1315.5 L 485.0 1308.5 L 477.0 1308.5 L 468.0 1314.5 L 460.0 1315.5 L 459.5 1300.0 L 457.0 1298.5 L 350.0 1296.5 L 239.0 1292.5 L 238.5 1307.0 L 236.0 1309.5 L 232.0 1309.5 L 225.0 1306.5 L 217.5 1299.0 L 215.5 1292.0 L 211.0 1290.5 L 93.0 1287.5 L 90.5 1285.0 L 98.5 1075.0 L 52.0 1073.5 L 49.5 1072.0 L 61.5 812.0 L 60.0 810.5 L 46.0 810.5 L 43.5 808.0 L 46.5 798.0 L 54.5 791.0 L 46.5 779.0 L 45.5 772.0 L 47.0 770.5 L 63.0 770.5 L 63.5 764.0 L 68.0 761.5 L 112.0 763.5 L 113.5 761.0 L 121.5 554.0 L 124.0 552.5 L 396.0 562.5 L 404.0 551.5 L 413.0 547.5 L 419.0 547.5 L 420.5 549.0 L 420.5 563.0 L 435.0 564.5 L 1058.0 586.5 L 1059.5 585.0 L 1063.5 468.0 L 1058.0 465.5 L 1051.5 459.0 L 1048.5 446.0 L 1050.0 444.5 L 1063.0 445.5 L 1064.5 444.0 L 1076.5 104.0 L 1082.0 101.5 L 1129.0 104.5 L 1468.0 114.5 L 1469.5 116.0 L 1462.5 293.0 L 1469.0 295.5 L 1474.5 301.0 L 1477.5 308.0 L 1477.5 315.0 L 1476.0 316.5 L 1461.5 317.0 L 1458.5 400.0 L 1473.0 401.5 L 1474.5 405.0 L 1470.5 415.0 L 1456.5 426.0 L 1451.0 598.5 L 1452.5 598.0 L 1452.5 587.0 L 1458.0 585.5 L 1467.0 589.5 L 1472.5 595.0 L 1475.0 601.5 L 1651.0 607.5 L 1651.5 595.0 L 1657.0 592.5 L 1667.0 596.5 L 1673.5 603.0 L 1675.0 608.5 L 2036.0 621.5 L 2057.0 621.5 L 2059.5 616.0 L 2066.0 609.5 L 2079.0 606.5 L 2080.5 608.0 L 2081.0 622.5 L 2248.0 628.5 L 2250.5 631.0 L 2243.5 840.0 L 2245.0 841.5 L 2286.0 842.5 L 2288.0 851.5 L 2305.0 852.5 L 2307.5 855.0 L 2305.5 863.0 L 2301.5 869.0 L 2294.5 874.0 L 2303.5 882.0 L 2306.5 894.0 L 2304.0 896.5 L 2287.0 895.5 L 2285.5 897.0 L 2277.5 1154.0 L 2276.0 1155.5 L 2231.5 1154.0"/>
    <path d="M 2283.5 850.0 L 2283.5 847.0 L 2281.0 845.5 L 2256.0 845.5 L 2240.5 843.0 L 2246.5 633.0 L 2236.0 631.5 L 2081.0 626.5 L 2079.5 630.0 L 2084.0 631.5 L 2086.5 635.0 L 2079.5 836.0 L 2077.0 838.5 L 1890.0 831.5 L 1886.5 829.0 L 1889.5 728.0 L 1884.5 728.0 L 1883.5 752.0 L 1881.0 754.5 L 1833.0 752.5 L 1830.5 750.0 L 1831.5 708.0 L 1834.0 698.5 L 1882.0 699.5 L 1886.0 704.5 L 1890.5 703.0 L 1890.0 689.5 L 1886.0 689.5 L 1883.0 694.5 L 1841.0 693.5 L 1832.5 691.0 L 1834.5 626.0 L 1836.0 623.5 L 1886.0 624.5 L 1887.5 626.0 L 1887.0 666.5 L 1891.5 666.0 L 1892.5 627.0 L 1896.0 624.5 L 2054.0 630.5 L 2055.0 625.5 L 1700.0 612.5 L 1675.5 613.0 L 1677.0 617.5 L 1827.0 622.5 L 1829.5 625.0 L 1823.5 798.0 L 1825.0 799.5 L 1829.5 798.0 L 1829.5 767.0 L 1832.0 757.5 L 1882.0 759.5 L 1883.5 761.0 L 1881.5 828.0 L 1880.0 830.5 L 1830.0 828.5 L 1826.0 822.5 L 1822.5 824.0 L 1821.0 828.5 L 1564.0 818.5 L 1561.5 815.0 L 1563.5 778.0 L 1637.5 619.0 L 1640.0 616.5 L 1650.0 616.5 L 1651.5 612.0 L 1476.0 605.5 L 1476.0 610.5 L 1609.0 614.5 L 1631.5 617.0 L 1631.5 621.0 L 1557.5 780.0 L 1556.5 816.0 L 1555.0 817.5 L 1527.0 817.5 L 1359.0 810.5 L 1356.5 808.0 L 1361.5 670.0 L 1356.5 669.0 L 1355.5 701.0 L 1353.0 703.5 L 1237.0 699.5 L 1234.5 697.0 L 1236.5 639.0 L 1238.0 636.5 L 1355.0 640.5 L 1357.5 646.0 L 1361.0 646.5 L 1362.5 637.0 L 1361.0 635.5 L 1351.0 635.5 L 1348.5 632.0 L 1349.5 608.0 L 1351.0 606.5 L 1450.0 609.5 L 1451.5 605.0 L 1447.5 603.0 L 1447.5 574.0 L 1453.5 425.0 L 1452.0 423.5 L 1448.5 425.0 L 1443.5 577.0 L 1441.0 603.5 L 1379.0 602.5 L 1238.5 596.0 L 1245.5 396.0 L 1247.0 394.5 L 1421.5 399.0 L 1421.0 394.5 L 1249.0 389.5 L 1245.5 386.0 L 1248.5 316.0 L 1250.0 314.5 L 1425.5 319.0 L 1424.0 314.5 L 1251.0 309.5 L 1249.5 308.0 L 1255.5 121.0 L 1257.0 117.5 L 1261.0 116.5 L 1458.0 122.5 L 1460.5 125.0 L 1454.5 269.0 L 1454.5 292.0 L 1458.0 292.5 L 1459.5 288.0 L 1465.5 119.0 L 1463.0 117.5 L 1080.5 106.0 L 1067.5 436.0 L 1069.0 445.5 L 1072.5 445.0 L 1078.5 268.0 L 1080.0 265.5 L 1136.5 266.0 L 1136.0 261.5 L 1088.0 260.5 L 1079.5 258.0 L 1084.5 113.0 L 1086.0 111.5 L 1231.0 115.5 L 1249.0 116.5 L 1251.5 120.0 L 1245.5 264.0 L 1244.0 265.5 L 1182.0 263.5 L 1180.5 265.0 L 1182.0 268.5 L 1243.0 270.5 L 1245.5 273.0 L 1235.5 554.0 L 1231.5 612.0 L 1225.5 809.0 L 1227.0 810.5 L 2155.0 845.5 L 2224.0 849.5"/>
    <path d="M 1925.5 112.0 L 1923.0 111.5 L 1915.0 115.5 L 1897.0 112.5 L 1895.0 115.5 L 1905.5 118.0 L 1890.0 125.5 L 1872.0 123.5 L 1871.5 125.0 L 1901.0 129.5 L 1901.5 128.0 L 1898.5 126.0 L 1900.0 123.5 L 1904.0 122.5 L 1907.0 118.5 L 1920.0 119.5 L 1919.5 116.0"/>
    <path d="M 2113.0 128.5 L 2119.5 124.0 L 2124.5 116.0 L 2123.0 113.5 L 2117.0 113.5 L 2112.5 116.0"/>
    <path d="M 1242.5 261.0 L 1247.0 120.5 L 1096.0 114.5 L 1087.5 116.0 L 1082.5 250.0 L 1084.0 256.5 L 1139.0 258.5 L 1140.5 260.0 L 1141.0 282.5 L 1147.0 281.5 L 1154.5 274.0 L 1156.5 266.0 L 1160.0 264.5 L 1162.5 274.0 L 1172.0 283.5 L 1176.5 283.0 L 1177.5 261.0 L 1180.0 259.5 L 1238.0 262.5"/>
    <path d="M 2136.0 129.5 L 2138.0 129.5 L 2146.5 121.0 L 2145.0 116.5 L 2136.5 116.0"/>
    <path d="M 2183.0 125.5 L 2182.5 121.0 L 2177.0 117.5 L 2177.5 123.0"/>
    <path d="M 2090.0 130.5 L 2095.5 127.0 L 2098.0 118.5 L 2087.5 123.0"/>
    <path d="M 1473.5 312.0 L 1473.5 308.0 L 1469.0 300.5 L 1465.0 297.5 L 1450.5 294.0 L 1455.5 185.0 L 1456.0 126.5 L 1261.0 120.5 L 1259.5 122.0 L 1253.0 305.5 L 1429.0 311.5 L 1429.5 323.0 L 1431.5 327.0 L 1442.0 335.5 L 1444.5 335.0 L 1445.5 314.0 L 1447.0 312.5"/>
    <path d="M 1900.5 139.0 L 1907.0 138.5 L 1914.0 132.5 L 1923.0 132.5 L 1930.0 126.5 L 1936.0 123.5 L 1941.0 123.5 L 1942.5 121.0 L 1931.0 121.5 L 1928.0 125.5 L 1912.0 130.5"/>
    <path d="M 2121.0 133.5 L 2126.0 133.5 L 2129.5 130.0 L 2129.0 122.5 L 2121.5 130.0 Z"/>
    <path d="M 2029.0 139.5 L 2026.5 139.0 L 2028.5 132.0 L 2023.5 127.0 L 2026.0 123.5 L 2028.5 125.0 L 2032.5 136.0"/>
    <path d="M 2157.0 135.5 L 2166.5 129.0 L 2160.0 123.5 L 2156.5 124.0 L 2155.5 134.0 Z"/>
    <path d="M 2099.0 135.5 L 2106.5 134.0 L 2107.5 126.0 L 2106.0 124.5 L 2101.5 128.0"/>
    <path d="M 2073.0 137.5 L 2076.5 135.0 L 2079.0 127.5 L 2071.5 132.0 L 2070.5 135.0 Z"/>
    <path d="M 2192.5 136.0 L 2192.5 133.0 L 2187.0 127.5 L 2182.5 130.0 L 2184.0 132.5"/>
    <path d="M 1868.5 135.0 L 1876.0 134.5 L 1883.5 129.0 L 1879.0 128.5"/>
    <path d="M 2143.0 136.5 L 2149.5 135.0 L 2150.0 128.5 L 2142.5 134.0 Z"/>
    <path d="M 1936.5 137.0 L 1943.0 136.5 L 1943.5 135.0 L 1938.0 134.5 Z"/>
    <path d="M 2081.0 140.5 L 2086.5 137.0 L 2086.0 134.5 L 2080.5 137.0 Z"/>
    <path d="M 2174.0 143.5 L 2179.5 140.0 L 2177.0 135.5 L 2174.5 136.0"/>
    <path d="M 2168.5 138.0 L 2166.0 137.5 L 2163.5 141.0 L 2167.0 141.5 Z"/>
    <path d="M 2131.5 141.0 L 2131.0 138.5 L 2124.5 139.0 L 2125.0 140.5"/>
    <path d="M 2087.5 145.0 L 2076.0 147.5 L 2068.5 152.0 L 2075.0 152.5 L 2077.0 155.5 L 2083.0 156.5 L 2083.5 154.0 L 2081.0 153.5 L 2079.5 150.0 L 2086.0 148.5 Z"/>
    <path d="M 2188.5 150.0 L 2186.0 145.5 L 2181.5 147.0 L 2185.0 150.5 Z"/>
    <path d="M 2091.5 154.0 L 2096.0 155.5 L 2102.5 151.0 L 2096.0 150.5"/>
    <path d="M 2214.5 160.0 L 2204.0 150.5 L 2201.5 152.0 L 2206.0 157.5"/>
    <path d="M 2078.5 159.0 L 2073.0 154.5 L 2067.5 157.0 L 2071.0 161.5"/>
    <path d="M 564.5 353.0 L 563.0 355.5 L 334.0 346.5 L 93.0 339.5 L 89.5 337.0 L 98.5 157.0 L 100.0 155.5 L 221.0 157.5 L 569.0 170.5 L 570.5 172.0"/>
    <path d="M 555.5 346.0 L 561.5 180.0 L 559.0 178.5 L 239.0 166.5 L 107.5 165.0 L 100.5 270.0 L 98.5 321.0 L 100.0 330.5"/>
    <path d="M 2242.5 172.0 L 2236.0 168.5 L 2231.0 168.5 L 2228.0 165.5 L 2221.5 165.0 L 2232.0 173.5 L 2235.0 171.5 L 2239.0 173.5 Z"/>
    <path d="M 2215.5 175.0 L 2214.0 171.5 L 2209.0 170.5 L 2207.5 177.0 L 2212.0 177.5"/>
    <path d="M 2229.0 187.5 L 2232.5 184.0 L 2231.0 181.5 L 2226.5 182.0"/>
    <path d="M 2230.5 194.0 L 2237.0 190.5 L 2244.0 191.5 L 2244.5 190.0 L 2239.0 186.5"/>
    <path d="M 1876.0 340.5 L 1832.0 338.5 L 1811.5 321.0 L 1815.5 215.0 L 1835.0 198.5 L 1882.0 199.5 L 1903.5 218.0 L 1902.5 242.0 L 1901.0 243.5 L 1876.0 242.5 L 1875.0 223.5 L 1834.5 223.0 L 1836.0 225.5 L 1844.5 229.0 L 1841.5 314.0 L 1843.0 315.5 L 1871.0 316.5 L 1872.5 315.0 L 1873.5 292.0 L 1864.5 289.0 L 1865.5 268.0 L 1867.0 266.5 L 1900.0 267.5 L 1901.5 270.0 L 1899.5 323.0 L 1891.0 331.5"/>
    <path d="M 1333.0 222.5 L 1325.0 221.5 L 1322.5 217.0 L 1322.5 206.0 L 1324.5 202.0 L 1329.0 199.5 L 1334.0 200.5 L 1338.5 207.0 L 1337.5 217.0"/>
    <path d="M 1352.0 223.5 L 1339.5 221.0 L 1341.0 218.5 L 1344.5 218.0 L 1344.5 208.0 L 1340.5 205.0 L 1345.0 200.5 L 1349.5 202.0 L 1349.5 218.0 L 1354.5 221.0 Z"/>
    <path d="M 1365.0 223.5 L 1358.0 222.5 L 1354.5 216.0 L 1355.5 206.0 L 1362.0 200.5 L 1369.5 204.0 L 1371.5 211.0 L 1368.5 221.0"/>
    <path d="M 1927.0 234.5 L 1914.0 236.5 L 1908.5 232.0 L 1908.5 206.0 L 1913.0 200.5 L 1927.0 200.5 L 1931.5 207.0 L 1929.0 211.5 L 1926.0 211.5 L 1922.0 205.5 L 1914.5 207.0 L 1913.5 229.0 L 1915.0 230.5 L 1923.5 229.0 L 1923.5 225.0 L 1921.5 223.0 L 1923.0 217.5 L 1931.5 219.0 L 1929.5 224.0 L 1930.5 232.0"/>
    <path d="M 1960.0 237.5 L 1953.5 235.0 L 1949.0 222.5 L 1944.5 223.0 L 1943.5 234.0 L 1940.0 236.5 L 1936.5 235.0 L 1937.5 202.0 L 1939.0 200.5 L 1955.0 201.5 L 1958.5 205.0 L 1958.5 217.0 L 1955.5 224.0 L 1960.5 235.0 Z"/>
    <path d="M 1385.0 224.5 L 1372.5 223.0 L 1372.5 220.0 L 1377.5 218.0 L 1377.5 208.0 L 1375.0 208.5 L 1373.5 206.0 L 1378.0 201.5 L 1382.5 202.0 L 1382.5 219.0 L 1386.5 221.0 Z"/>
    <path d="M 1985.0 238.5 L 1979.0 236.5 L 1967.0 237.5 L 1965.5 236.0 L 1965.5 216.0 L 1968.0 201.5 L 1988.5 203.0 L 1986.0 208.5 L 1973.5 209.0 L 1975.0 215.5 L 1984.5 217.0 L 1983.0 222.5 L 1975.0 221.5 L 1973.5 223.0 L 1973.5 231.0 L 1985.0 231.5 L 1986.5 233.0"/>
    <path d="M 211.5 226.0 L 209.0 226.5 L 205.0 222.5 L 200.0 226.5 L 197.0 224.5 L 193.0 225.5 L 191.0 222.5 L 186.0 225.5 L 183.0 221.5 L 179.0 225.5 L 175.0 222.5 L 170.0 224.5 L 169.0 216.5 L 164.5 220.0 L 165.5 223.0 L 164.0 224.5 L 155.0 224.5 L 152.5 220.0 L 153.0 213.5 L 144.0 217.5 L 141.5 224.0 L 138.0 224.5 L 136.5 222.0 L 137.5 207.0 L 140.0 202.5 L 147.0 202.5 L 151.0 204.5 L 161.0 202.5 L 170.0 209.5 L 170.5 206.0 L 175.0 204.5 L 174.5 220.0 L 176.0 220.5 L 181.0 204.5 L 184.0 204.5 L 186.0 209.5 L 192.0 204.5 L 194.5 209.0 L 196.0 219.5 L 198.5 218.0 L 202.5 207.0 L 208.0 204.5 L 212.5 211.0"/>
    <path d="M 2013.0 237.5 L 1994.0 238.5 L 1992.5 237.0 L 1993.5 211.0 L 1996.0 202.5 L 2015.5 204.0 L 2015.5 207.0 L 2012.0 209.5 L 2002.0 208.5 L 2000.5 210.0 L 2000.5 215.0 L 2003.0 217.5 L 2011.0 216.5 L 2011.5 222.0 L 2010.0 223.5 L 2002.0 222.5 L 1999.5 225.0 L 1999.5 230.0 L 2002.0 232.5 L 2011.0 232.5"/>
    <path d="M 2047.0 240.5 L 2038.5 239.0 L 2032.0 218.5 L 2029.5 221.0 L 2029.5 238.0 L 2028.0 239.5 L 2022.5 238.0 L 2023.5 205.0 L 2025.0 203.5 L 2035.5 206.0 L 2040.0 222.5 L 2041.5 222.0 L 2041.5 205.0 L 2049.0 204.5 L 2050.5 206.0 L 2048.5 218.0 L 2049.5 238.0 Z"/>
    <path d="M 243.5 225.0 L 241.0 227.5 L 236.0 227.5 L 235.5 224.0 L 238.5 221.0 L 230.0 216.5 L 225.5 221.0 L 226.5 225.0 L 225.0 226.5 L 216.0 226.5 L 214.5 225.0 L 214.5 206.0 L 221.0 204.5 L 230.0 209.5 L 233.0 205.5 L 235.5 208.0 L 237.0 214.5 L 239.5 213.0 L 240.5 209.0 L 245.0 206.5 L 246.5 208.0 L 246.5 218.0"/>
    <path d="M 1332.0 217.5 L 1333.5 206.0 L 1329.0 204.5 L 1326.5 209.0 L 1328.0 217.5"/>
    <path d="M 2088.0 241.5 L 2081.0 239.5 L 2074.0 241.5 L 2070.5 240.0 L 2072.0 205.5 L 2077.0 204.5 L 2079.5 207.0 L 2077.5 234.0 L 2088.0 234.5 L 2089.5 236.0"/>
    <path d="M 1363.0 219.5 L 1365.5 217.0 L 1365.5 207.0 L 1364.0 205.5 L 1359.5 208.0 L 1359.5 217.0"/>
    <path d="M 2113.0 242.5 L 2094.0 241.5 L 2092.5 239.0 L 2093.5 209.0 L 2097.0 205.5 L 2115.0 206.5 L 2116.5 208.0 L 2113.0 213.5 L 2101.5 213.0 L 2103.0 220.5 L 2111.0 219.5 L 2112.5 221.0 L 2112.0 225.5 L 2101.5 227.0 L 2101.5 235.0 L 2112.0 235.5 L 2114.5 238.0"/>
    <path d="M 324.5 212.0 L 319.5 214.0 L 318.5 229.0 L 317.0 230.5 L 313.5 229.0 L 313.5 215.0 L 312.0 213.5 L 308.5 214.0 L 306.5 225.0 L 302.0 229.5 L 297.0 229.5 L 292.5 225.0 L 292.0 221.5 L 286.0 227.5 L 278.0 228.5 L 273.5 224.0 L 273.0 219.5 L 268.5 223.0 L 269.5 227.0 L 268.0 228.5 L 264.0 226.5 L 260.0 228.5 L 258.5 227.0 L 258.5 213.0 L 256.5 209.0 L 259.0 206.5 L 265.0 206.5 L 274.0 214.5 L 280.0 206.5 L 286.0 207.5 L 291.0 213.5 L 292.5 213.0 L 292.5 209.0 L 296.0 207.5 L 298.5 211.0 L 297.5 222.0 L 299.0 223.5 L 301.5 222.0 L 302.5 209.0 L 305.0 207.5 L 323.0 208.5 Z"/>
    <path d="M 1951.5 215.0 L 1952.0 207.5 L 1943.5 208.0 L 1946.0 215.5"/>
    <path d="M 2138.0 242.5 L 2130.0 242.5 L 2127.5 239.0 L 2123.0 207.5 L 2130.5 207.0 L 2133.0 226.5 L 2136.5 224.0 L 2138.5 209.0 L 2143.0 207.5 L 2147.5 209.0 L 2141.5 233.0 L 2138.5 236.0 L 2139.5 241.0 Z"/>
    <path d="M 327.0 230.5 L 324.5 224.0 L 327.5 211.0 L 330.0 208.5 L 338.0 208.5 L 340.5 212.0 L 334.5 214.0 L 337.5 219.0 L 332.0 221.5 L 330.5 225.0 L 337.0 224.5 L 338.5 227.0 L 333.0 230.5"/>
    <path d="M 2170.0 243.5 L 2151.0 243.5 L 2149.5 242.0 L 2150.5 210.0 L 2152.0 208.5 L 2172.5 209.0 L 2172.5 212.0 L 2169.0 215.5 L 2159.0 214.5 L 2157.5 216.0 L 2157.5 222.0 L 2167.0 221.5 L 2168.5 227.0 L 2167.0 228.5 L 2159.0 227.5 L 2156.5 230.0 L 2156.5 236.0 L 2158.0 237.5 L 2168.0 237.5 L 2171.5 242.0 Z"/>
    <path d="M 2195.0 245.5 L 2188.0 242.5 L 2182.0 244.5 L 2178.5 243.0 L 2180.5 210.0 L 2183.0 208.5 L 2186.5 210.0 L 2185.5 238.0 L 2197.0 238.5 L 2197.5 242.0"/>
    <path d="M 280.0 223.5 L 283.0 223.5 L 285.5 219.0 L 285.5 215.0 L 283.0 212.5 L 278.5 219.0"/>
    <path d="M 2266.0 353.5 L 2221.0 351.5 L 2200.5 333.0 L 2201.5 311.0 L 2203.0 309.5 L 2232.0 310.5 L 2232.5 322.0 L 2235.0 323.5 L 2255.0 323.5 L 2256.5 322.0 L 2256.5 296.0 L 2255.0 294.5 L 2220.0 293.5 L 2202.5 278.0 L 2203.5 229.0 L 2221.0 212.5 L 2270.0 213.5 L 2290.5 231.0 L 2289.0 253.5 L 2259.0 252.5 L 2257.0 240.5 L 2218.5 240.0 L 2234.5 248.0 L 2233.5 265.0 L 2236.0 267.5 L 2270.0 268.5 L 2288.5 284.0 L 2287.5 338.0"/>
    <path d="M 399.5 223.0 L 384.0 223.5 L 382.5 218.0 L 385.0 214.5 L 397.0 215.5 L 399.5 217.0"/>
    <path d="M 435.5 224.0 L 434.0 225.5 L 414.0 224.5 L 412.5 218.0 L 414.0 216.5 L 435.0 217.5"/>
    <path d="M 504.5 227.0 L 504.5 221.0 L 506.0 219.5 L 511.0 220.5 L 513.0 216.5 L 537.5 224.0 L 536.0 227.5 L 514.0 232.5 L 511.0 228.5"/>
    <path d="M 469.5 225.0 L 468.0 226.5 L 450.0 225.5 L 448.5 219.0 L 450.0 217.5 L 468.0 218.5"/>
    <path d="M 495.5 226.0 L 494.0 227.5 L 479.0 226.5 L 478.5 220.0 L 480.0 218.5 L 494.0 219.5"/>
    <path d="M 1980.0 343.5 L 1955.0 342.5 L 1952.5 337.0 L 1951.5 324.0 L 1948.0 321.5 L 1937.0 321.5 L 1935.5 323.0 L 1931.0 341.5 L 1908.0 341.5 L 1906.5 340.0 L 1923.5 269.0 L 1923.5 262.0 L 1927.5 252.0 L 1927.5 248.0 L 1920.0 244.5 L 1919.0 241.5 L 1934.0 240.5 L 1953.0 242.5 L 1961.0 241.5 L 1963.5 243.0 L 1963.5 250.0 L 1971.5 283.0 L 1973.5 307.0 L 1978.5 325.0"/>
    <path d="M 2029.0 345.5 L 1994.5 344.0 L 2000.5 331.0 L 2002.5 266.0 L 2000.0 264.5 L 1993.0 265.5 L 1986.0 273.5 L 1982.5 274.0 L 1982.5 246.0 L 1985.0 242.5 L 2035.0 245.5 L 2046.0 244.5 L 2047.5 246.0 L 2045.5 265.0 L 2046.5 275.0 L 2043.0 276.5 L 2035.0 266.5 L 2026.5 267.0 L 2024.5 334.0 L 2029.5 342.0 Z"/>
    <path d="M 2105.0 347.5 L 2070.0 346.5 L 2062.0 337.5 L 2058.5 336.0 L 2057.5 315.0 L 2060.5 257.0 L 2073.0 245.5 L 2098.0 247.5 L 2109.0 246.5 L 2120.5 259.0 L 2119.5 334.0"/>
    <path d="M 2202.0 350.5 L 2176.0 350.5 L 2173.5 349.0 L 2171.5 337.0 L 2164.5 320.0 L 2163.5 311.0 L 2161.0 308.5 L 2152.5 310.0 L 2152.5 347.0 L 2149.0 349.5 L 2128.5 347.0 L 2131.5 255.0 L 2123.0 250.5 L 2122.0 247.5 L 2181.0 250.5 L 2192.5 262.0 L 2192.5 279.0 L 2190.5 284.0 L 2191.5 296.0 L 2182.5 305.0 L 2194.5 335.0 L 2195.5 343.0 L 2202.5 349.0 Z"/>
    <path d="M 146.5 283.0 L 140.0 287.5 L 135.0 287.5 L 133.0 285.5 L 128.0 287.5 L 124.0 282.5 L 120.0 287.5 L 116.5 286.0 L 117.5 277.0 L 123.0 266.5 L 129.0 266.5 L 132.0 272.5 L 134.5 267.0 L 138.0 266.5 L 139.5 268.0 L 138.5 281.0 L 144.0 279.5"/>
    <path d="M 154.0 288.5 L 150.5 287.0 L 151.5 273.0 L 145.5 269.0 L 147.0 266.5 L 160.0 266.5 L 161.5 268.0 L 161.0 270.5 L 156.5 272.0 L 155.5 287.0 Z"/>
    <path d="M 2095.0 326.5 L 2094.5 315.0 L 2096.5 307.0 L 2095.5 280.0 L 2097.5 271.0 L 2096.0 267.5 L 2076.0 266.5 L 2075.5 268.0 L 2083.5 274.0 L 2083.5 298.0 L 2081.5 300.0 L 2083.5 313.0 L 2081.5 317.0 L 2081.5 326.0"/>
    <path d="M 228.5 289.0 L 224.0 290.5 L 219.0 285.5 L 216.0 290.5 L 213.0 286.5 L 208.0 290.5 L 204.0 290.5 L 202.0 288.5 L 197.0 289.5 L 195.5 281.0 L 194.0 280.5 L 190.5 284.0 L 191.5 288.0 L 190.0 289.5 L 182.0 289.5 L 179.5 287.0 L 180.5 274.0 L 178.0 270.5 L 173.0 271.5 L 171.5 274.0 L 174.5 277.0 L 168.5 280.0 L 169.0 283.5 L 175.0 282.5 L 175.5 286.0 L 166.0 289.5 L 162.5 286.0 L 162.5 278.0 L 167.0 267.5 L 186.0 267.5 L 191.0 269.5 L 195.0 275.5 L 197.5 274.0 L 197.5 271.0 L 202.0 268.5 L 204.5 283.0 L 206.0 283.5 L 207.5 279.0 L 206.5 271.0 L 209.0 268.5 L 211.5 270.0 L 213.0 280.5 L 219.0 270.5 L 225.0 269.5 L 228.5 274.0"/>
    <path d="M 2302.5 891.0 L 2300.5 885.0 L 2294.0 877.5 L 2286.0 875.5 L 2283.5 873.0 L 2296.0 868.5 L 2300.5 864.0 L 2302.5 857.0 L 2285.0 854.5 L 2247.0 852.5 L 2245.5 854.0 L 2244.5 889.0 L 2243.0 890.5 L 2174.0 887.5 L 2171.5 877.0 L 2173.5 852.0 L 2170.0 849.5 L 2080.0 847.5 L 1223.0 813.5 L 1221.5 801.0 L 1241.5 296.0 L 1241.5 275.0 L 1238.0 273.5 L 1183.0 271.5 L 1180.5 273.0 L 1180.5 285.0 L 1177.0 288.5 L 1168.0 285.5 L 1159.0 274.5 L 1151.0 283.5 L 1143.0 286.5 L 1137.0 286.5 L 1136.0 270.5 L 1082.5 269.0 L 1076.5 446.0 L 1074.0 449.5 L 1052.5 449.0 L 1053.5 454.0 L 1058.0 460.5 L 1075.5 468.0 L 1063.5 797.0 L 1061.0 808.5 L 876.0 802.5 L 842.0 799.5 L 197.0 778.5 L 195.5 780.0 L 194.5 813.0 L 193.0 814.5 L 125.0 812.5 L 123.5 811.0 L 125.5 780.0 L 124.0 776.5 L 51.0 774.5 L 51.5 781.0 L 57.0 786.5 L 65.5 791.0 L 56.0 794.5 L 48.5 804.0 L 49.0 806.5 L 70.0 807.5 L 73.5 810.0 L 72.0 849.5 L 108.0 850.5 L 109.5 817.0 L 111.0 815.5 L 192.0 818.5 L 194.5 827.0 L 192.5 853.0 L 194.0 854.5 L 222.0 854.5 L 227.5 857.0 L 217.5 1065.0 L 220.0 1067.5 L 828.0 1086.5 L 830.5 1072.0 L 839.5 858.0 L 848.0 856.5 L 1009.0 861.5 L 1010.5 863.0 L 1010.0 906.5 L 1046.0 907.5 L 1058.5 910.0 L 1052.5 1070.0 L 1054.0 1071.5 L 1102.0 1072.5 L 1103.5 1074.0 L 1099.5 1184.0 L 1098.0 1185.5 L 1049.0 1183.5 L 1047.5 1185.0 L 1046.5 1209.0 L 1048.0 1210.5 L 1075.0 1211.5 L 1076.5 1213.0 L 1076.0 1236.5 L 1083.0 1235.5 L 1087.0 1232.5 L 1091.5 1226.0 L 1092.5 1220.0 L 1096.0 1218.5 L 1099.5 1230.0 L 1106.0 1236.5 L 1112.5 1238.0 L 1113.5 1214.0 L 1115.0 1212.5 L 1144.0 1213.5 L 1146.5 1216.0 L 1147.0 1239.5 L 1156.0 1236.5 L 1160.5 1232.0 L 1163.5 1222.0 L 1166.0 1221.5 L 1170.5 1233.0 L 1177.0 1239.5 L 1183.0 1240.5 L 1183.5 1220.0 L 1186.0 1215.5 L 1208.5 1216.0 L 1209.0 1190.5 L 1172.0 1189.5 L 1159.5 1187.0 L 1163.5 1077.0 L 1165.0 1075.5 L 1209.0 1077.5 L 1213.5 1076.0 L 1218.5 917.0 L 1221.0 914.5 L 1269.0 916.5 L 1270.5 876.0 L 1274.0 872.5 L 1447.0 878.5 L 1449.5 881.0 L 1443.0 1110.5 L 2108.0 1137.5 L 2109.5 1135.0 L 2115.5 927.0 L 2118.0 924.5 L 2156.0 926.5 L 2157.5 925.0 L 2157.5 893.0 L 2160.0 890.5 L 2242.0 893.5 L 2244.5 896.0 L 2243.5 929.0 L 2272.0 930.5 L 2273.5 893.0 L 2277.0 890.5 L 2295.0 892.5"/>
    <path d="M 237.0 291.5 L 233.5 288.0 L 234.5 275.0 L 229.5 273.0 L 230.0 269.5 L 244.0 269.5 L 245.5 271.0 L 239.5 275.0 L 239.5 286.0"/>
    <path d="M 248.0 291.5 L 245.5 288.0 L 245.5 282.0 L 248.5 272.0 L 255.0 269.5 L 261.5 272.0 L 260.0 274.5 L 254.5 275.0 L 257.5 280.0 L 251.5 283.0 L 252.0 285.5 L 257.0 284.5 L 259.5 287.0 L 258.5 289.0 L 254.0 291.5"/>
    <path d="M 2169.5 287.0 L 2169.5 271.0 L 2168.0 269.5 L 2146.5 270.0 L 2154.5 274.0 L 2154.0 288.5 L 2167.0 289.5 Z"/>
    <path d="M 338.5 276.0 L 333.5 278.0 L 333.5 288.0 L 331.0 294.5 L 327.5 293.0 L 328.5 279.0 L 324.0 276.5 L 322.5 277.0 L 320.5 289.0 L 317.0 293.5 L 311.0 293.5 L 306.5 289.0 L 306.0 285.5 L 297.0 293.5 L 292.0 292.5 L 287.0 284.5 L 283.5 287.0 L 284.5 291.0 L 283.0 292.5 L 274.0 292.5 L 272.5 291.0 L 271.5 272.0 L 273.0 270.5 L 281.0 271.5 L 287.0 277.5 L 289.0 277.5 L 294.0 271.5 L 299.0 271.5 L 305.0 276.5 L 308.0 272.5 L 311.0 272.5 L 312.5 274.0 L 311.5 285.0 L 313.0 287.5 L 315.5 287.0 L 318.0 272.5 L 337.0 272.5 Z"/>
    <path d="M 1939.0 302.5 L 1950.5 301.0 L 1945.0 271.5 L 1942.5 273.0 L 1940.5 292.0 L 1937.5 298.0"/>
    <path d="M 342.0 294.5 L 339.5 292.0 L 339.5 285.0 L 344.0 273.5 L 354.0 273.5 L 355.5 276.0 L 349.5 278.0 L 351.5 283.0 L 345.5 286.0 L 346.0 288.5 L 351.0 287.5 L 353.5 291.0 L 348.0 294.5"/>
    <path d="M 280.0 282.5 L 281.5 278.0 L 279.0 276.5 L 278.5 282.0 Z"/>
    <path d="M 294.0 287.5 L 297.0 287.5 L 300.5 282.0 L 298.0 276.5 L 294.5 278.0"/>
    <path d="M 388.0 288.5 L 382.0 289.5 L 380.5 288.0 L 382.0 279.5 L 389.5 283.0"/>
    <path d="M 402.0 289.5 L 398.0 289.5 L 395.5 287.0 L 398.0 281.5 L 403.5 283.0"/>
    <path d="M 415.0 290.5 L 410.5 288.0 L 410.5 284.0 L 414.0 281.5 L 418.5 284.0 L 418.5 288.0"/>
    <path d="M 507.5 287.0 L 512.0 281.5 L 530.0 287.5 L 533.5 291.0 L 511.0 298.5 L 507.5 292.0"/>
    <path d="M 430.0 290.5 L 427.0 290.5 L 424.5 287.0 L 428.0 282.5 L 432.5 284.0 L 432.5 288.0 Z"/>
    <path d="M 445.0 291.5 L 439.5 289.0 L 440.5 284.0 L 443.0 282.5 L 447.5 285.0 L 447.5 289.0 Z"/>
    <path d="M 460.0 291.5 L 454.5 289.0 L 457.0 283.5 L 462.5 286.0"/>
    <path d="M 474.0 291.5 L 471.0 292.5 L 467.5 290.0 L 469.0 284.5 L 475.5 286.0"/>
    <path d="M 486.0 292.5 L 480.5 290.0 L 482.0 284.5 L 486.0 284.5 L 488.5 287.0"/>
    <path d="M 495.0 292.5 L 493.5 287.0 L 500.0 285.5 L 502.5 289.0 L 501.5 291.0 L 497.0 293.5 Z"/>
    <path d="M 1446.0 400.5 L 1454.5 400.0 L 1457.5 317.0 L 1456.0 315.5 L 1449.5 317.0 L 1449.5 320.0 L 1452.5 322.0 L 1450.5 390.0 L 1449.5 394.0 L 1445.5 396.0"/>
    <path d="M 1447.5 385.0 L 1448.5 339.0 L 1444.0 339.5 L 1434.0 335.5 L 1425.0 322.5 L 1253.0 317.5 L 1251.5 319.0 L 1250.0 385.5 L 1422.0 391.5 L 1424.5 386.0 L 1432.0 378.5 L 1440.0 375.5 L 1445.5 378.0 L 1445.5 385.0 Z"/>
    <path d="M 1328.0 362.5 L 1321.0 362.5 L 1317.5 359.0 L 1317.5 345.0 L 1322.0 340.5 L 1328.0 340.5 L 1332.5 346.0 L 1332.5 356.0"/>
    <path d="M 1347.0 363.5 L 1336.0 363.5 L 1334.5 362.0 L 1335.0 359.5 L 1339.5 358.0 L 1339.5 348.0 L 1336.0 347.5 L 1335.5 345.0 L 1340.0 340.5 L 1343.5 342.0 L 1343.5 358.0 L 1348.5 361.0 Z"/>
    <path d="M 1381.5 358.0 L 1379.5 362.0 L 1375.0 364.5 L 1369.0 363.5 L 1366.0 359.5 L 1360.0 363.5 L 1354.0 363.5 L 1349.5 358.0 L 1350.5 345.0 L 1355.0 341.5 L 1362.0 342.5 L 1365.5 349.0 L 1364.5 358.0 L 1369.0 356.5 L 1374.0 360.5 L 1375.5 356.0 L 1371.0 354.5 L 1370.5 352.0 L 1375.0 350.5 L 1376.5 347.0 L 1373.0 345.5 L 1368.0 348.5 L 1367.5 345.0 L 1372.0 341.5 L 1378.0 342.5 L 1380.5 345.0 L 1379.5 354.0"/>
    <path d="M 1326.0 358.5 L 1328.5 354.0 L 1328.5 347.0 L 1324.0 344.5 L 1321.5 347.0 L 1321.5 356.0 L 1323.0 358.5 Z"/>
    <path d="M 1358.0 359.5 L 1360.5 357.0 L 1360.5 347.0 L 1356.0 345.5 L 1353.5 350.0 L 1353.5 356.0"/>
    <path d="M 2284.5 487.0 L 2112.0 481.5 L 2099.0 479.5 L 2047.0 479.5 L 1940.0 474.5 L 1806.0 471.5 L 1804.5 470.0 L 1804.5 455.0 L 1808.5 409.0 L 1808.5 365.0 L 1810.0 363.5 L 1834.0 363.5 L 1875.0 366.5 L 1896.0 365.5 L 1913.0 367.5 L 1971.0 368.5 L 1973.0 370.5 L 1977.0 368.5 L 2014.0 370.5 L 2030.0 369.5 L 2045.0 371.5 L 2072.0 371.5 L 2084.0 374.5 L 2090.0 371.5 L 2092.0 373.5 L 2108.0 372.5 L 2123.0 374.5 L 2146.0 373.5 L 2155.0 375.5 L 2170.0 374.5 L 2215.0 377.5 L 2286.0 378.5 L 2287.5 380.0"/>
    <path d="M 1438.0 600.5 L 1445.5 421.0 L 1461.0 418.5 L 1468.5 411.0 L 1469.5 405.0 L 1444.0 404.5 L 1441.5 402.0 L 1442.0 379.5 L 1434.0 381.5 L 1428.5 387.0 L 1423.0 403.5 L 1250.0 397.5 L 1248.5 399.0 L 1241.5 593.0 L 1243.0 594.5"/>
    <path d="M 1886.0 436.5 L 1892.5 433.0 L 1894.5 424.0 L 1905.0 406.5 L 1907.5 407.0 L 1905.0 397.5 L 1898.5 399.0 L 1897.5 405.0 L 1894.5 406.0 L 1893.5 413.0 L 1889.0 420.5 L 1887.5 416.0 L 1888.5 411.0 L 1886.5 409.0 L 1885.5 402.0 L 1887.0 398.5 L 1889.0 400.5 L 1890.5 399.0 L 1888.0 395.5 L 1883.0 394.5 L 1877.5 400.0 L 1883.5 425.0 L 1883.5 433.0"/>
    <path d="M 1850.0 434.5 L 1860.0 434.5 L 1872.5 428.0 L 1869.0 424.5 L 1865.0 424.5 L 1855.0 428.5 L 1854.5 420.0 L 1859.0 416.5 L 1864.0 416.5 L 1871.5 413.0 L 1871.0 409.5 L 1859.0 409.5 L 1858.5 407.0 L 1862.0 403.5 L 1869.0 404.5 L 1875.5 400.0 L 1875.0 397.5 L 1859.0 396.5 L 1853.5 398.0 L 1846.5 431.0"/>
    <path d="M 1904.0 437.5 L 1908.5 436.0 L 1911.0 425.5 L 1918.0 428.5 L 1923.0 436.5 L 1926.0 436.5 L 1928.5 433.0 L 1928.5 403.0 L 1923.0 397.5 L 1917.0 398.5 L 1911.5 404.0 L 1909.5 410.0 L 1904.5 411.0 L 1904.5 413.0 L 1907.5 414.0 L 1901.5 431.0"/>
    <path d="M 1941.0 438.5 L 1950.0 436.5 L 1956.5 431.0 L 1955.0 427.5 L 1942.0 430.5 L 1939.5 427.0 L 1940.5 420.0 L 1948.0 406.5 L 1949.5 407.0 L 1949.0 415.5 L 1954.0 415.5 L 1956.5 413.0 L 1955.5 401.0 L 1951.0 398.5 L 1944.0 399.5 L 1937.5 406.0 L 1934.5 414.0 L 1933.5 431.0"/>
    <path d="M 1979.0 438.5 L 1985.5 433.0 L 1988.5 424.0 L 1990.5 401.0 L 1988.0 399.5 L 1980.5 401.0 L 1981.5 422.0 L 1977.5 430.0 L 1973.0 431.5 L 1968.5 427.0 L 1971.5 404.0 L 1970.0 400.5 L 1964.0 399.5 L 1960.5 410.0 L 1961.5 421.0 L 1959.5 428.0 L 1968.0 437.5"/>
    <path d="M 2033.0 440.5 L 2036.0 440.5 L 2040.0 436.5 L 2044.0 437.5 L 2045.5 436.0 L 2041.5 434.0 L 2041.5 429.0 L 2039.5 427.0 L 2040.5 411.0 L 2042.0 408.5 L 2050.0 407.5 L 2051.5 404.0 L 2054.5 403.0 L 2051.0 399.5 L 2043.0 401.5 L 2023.5 401.0 L 2022.5 407.0 L 2032.5 410.0 L 2030.5 438.0 Z"/>
    <path d="M 1994.0 439.5 L 1999.5 437.0 L 2001.0 428.5 L 2006.0 430.5 L 2013.0 440.5 L 2018.5 437.0 L 2018.5 412.0 L 2014.0 400.5 L 2007.0 400.5 L 1997.5 409.0 L 1995.5 421.0 L 1990.5 433.0"/>
    <path d="M 2086.0 440.5 L 2094.5 431.0 L 2096.5 425.0 L 2095.5 410.0 L 2091.0 404.5 L 2077.0 402.5 L 2069.5 409.0 L 2066.5 416.0 L 2065.5 430.0 L 2068.5 438.0 L 2073.0 441.5"/>
    <path d="M 2054.0 441.5 L 2060.5 439.0 L 2060.5 422.0 L 2063.5 406.0 L 2061.0 403.5 L 2056.5 404.0 L 2052.5 426.0 L 2051.0 428.5 L 2048.5 428.0 L 2048.5 430.0 L 2052.5 432.0 L 2051.5 438.0"/>
    <path d="M 1921.0 422.5 L 1911.5 419.0 L 1919.0 404.5 L 1921.5 406.0"/>
    <path d="M 2127.0 441.5 L 2130.5 428.0 L 2128.5 406.0 L 2123.0 404.5 L 2120.5 407.0 L 2122.5 426.0 L 2121.5 431.0 L 2117.0 434.5 L 2113.5 425.0 L 2114.5 408.0 L 2111.0 404.5 L 2108.0 404.5 L 2102.5 416.0 L 2100.5 436.0 L 2098.5 440.0 L 2101.0 443.5 L 2106.0 443.5 L 2108.0 436.5 L 2115.0 443.5"/>
    <path d="M 2187.5 444.0 L 2187.5 436.0 L 2183.5 419.0 L 2185.0 406.5 L 2177.0 406.5 L 2174.5 409.0 L 2170.0 425.5 L 2168.5 425.0 L 2167.5 417.0 L 2168.5 410.0 L 2165.0 406.5 L 2159.0 406.5 L 2157.0 410.5 L 2150.5 410.0 L 2150.5 419.0 L 2155.5 419.0 L 2149.5 439.0 L 2151.0 444.5 L 2157.5 443.0 L 2161.0 427.5 L 2162.5 428.0 L 2164.5 441.0 L 2167.0 445.5 L 2186.0 445.5 Z"/>
    <path d="M 2007.0 424.5 L 2002.0 422.5 L 2001.5 420.0 L 2006.5 410.0 L 2010.0 407.5 L 2011.5 409.0 L 2010.5 424.0 Z"/>
    <path d="M 2191.0 445.5 L 2201.5 443.0 L 2198.5 441.0 L 2200.0 435.5 L 2206.0 437.5 L 2212.0 447.5 L 2216.5 445.0 L 2217.5 418.0 L 2213.0 408.5 L 2206.0 407.5 L 2198.5 414.0 L 2192.5 428.0"/>
    <path d="M 2225.0 447.5 L 2229.5 444.0 L 2229.5 438.0 L 2232.0 434.5 L 2243.0 430.5 L 2250.5 425.0 L 2250.5 417.0 L 2246.0 411.5 L 2232.0 407.5 L 2222.5 411.0 L 2222.5 438.0 L 2220.5 444.0"/>
    <path d="M 2078.0 436.5 L 2072.5 431.0 L 2071.5 424.0 L 2074.5 415.0 L 2080.0 409.5 L 2083.0 409.5 L 2088.5 413.0 L 2089.5 422.0 L 2085.5 432.0"/>
    <path d="M 2209.0 431.5 L 2200.5 428.0 L 2207.0 414.5 L 2209.5 417.0 L 2210.5 429.0 Z"/>
    <path d="M 2230.0 427.5 L 2231.0 415.5 L 2238.0 415.5 L 2242.5 419.0 L 2240.0 423.5"/>
    <path d="M 2095.5 441.0 L 2088.5 445.0 L 2094.0 445.5"/>
    <path d="M 2090.0 452.5 L 2092.5 449.0 L 2091.0 446.5 L 2088.5 447.0 L 2088.5 452.0 Z"/>
    <path d="M 1071.5 470.0 L 1069.0 468.5 L 1066.5 470.0 L 1063.5 567.0 L 1061.0 590.5 L 445.0 567.5 L 419.5 568.0 L 421.0 572.5 L 525.0 575.5 L 536.5 578.0 L 534.0 690.5 L 537.0 690.5 L 538.5 687.0 L 541.5 579.0 L 544.0 576.5 L 603.0 578.5 L 605.5 581.0 L 602.0 691.5 L 606.5 691.0 L 609.5 591.0 L 612.0 579.5 L 865.0 588.5 L 867.5 592.0 L 860.5 789.0 L 858.0 792.5 L 609.0 784.5 L 603.5 782.0 L 604.5 753.0 L 603.0 751.5 L 599.5 752.0 L 598.5 780.0 L 596.0 783.5 L 549.0 782.5 L 534.5 780.0 L 537.0 723.5 L 597.0 724.5 L 601.0 728.5 L 604.0 728.5 L 605.5 727.0 L 605.5 716.0 L 602.0 714.5 L 598.0 719.5 L 540.0 717.5 L 536.0 713.5 L 533.0 713.5 L 531.5 715.0 L 529.5 779.0 L 528.0 780.5 L 273.0 772.5 L 271.5 771.0 L 271.5 744.0 L 279.5 568.0 L 284.0 566.5 L 394.0 571.5 L 395.5 567.0 L 391.0 565.5 L 127.0 556.5 L 125.5 558.0 L 116.5 765.0 L 112.0 767.5 L 68.0 765.5 L 67.5 770.0 L 71.0 771.5 L 180.0 775.5 L 352.0 779.5 L 1058.0 804.5 L 1059.5 803.0"/>
    <path d="M 1322.0 505.5 L 1315.0 504.5 L 1311.5 498.0 L 1312.5 488.0 L 1317.0 483.5 L 1325.0 484.5 L 1328.5 492.0 L 1327.5 499.0"/>
    <path d="M 1343.0 505.5 L 1329.5 505.0 L 1329.5 502.0 L 1333.5 501.0 L 1333.5 491.0 L 1330.5 487.0 L 1335.0 483.5 L 1338.0 483.5 L 1339.5 486.0 L 1338.5 500.0 L 1343.5 503.0 Z"/>
    <path d="M 1375.5 504.0 L 1370.0 507.5 L 1364.0 506.5 L 1361.5 501.0 L 1364.0 500.5 L 1369.0 503.5 L 1371.5 499.0 L 1370.0 496.5 L 1361.0 496.5 L 1356.0 505.5 L 1350.0 506.5 L 1344.5 501.0 L 1344.5 490.0 L 1349.0 484.5 L 1357.0 485.5 L 1360.0 491.5 L 1364.0 484.5 L 1374.0 484.5 L 1375.5 488.0 L 1368.0 488.5 L 1366.5 492.0 L 1372.0 492.5 L 1375.5 496.0"/>
    <path d="M 1320.0 501.5 L 1323.5 495.0 L 1322.0 487.5 L 1318.0 487.5 L 1316.5 490.0 L 1316.5 499.0"/>
    <path d="M 1353.0 502.5 L 1355.5 499.0 L 1355.5 491.0 L 1354.0 488.5 L 1351.0 488.5 L 1348.5 498.0 L 1349.5 501.0 Z"/>
    <path d="M 525.5 777.0 L 528.5 711.0 L 530.0 709.5 L 552.0 710.5 L 553.5 709.0 L 550.5 701.0 L 546.0 696.5 L 538.0 693.5 L 529.5 693.0 L 533.5 581.0 L 532.0 579.5 L 417.0 575.5 L 416.0 551.5 L 408.0 553.5 L 402.5 559.0 L 399.5 565.0 L 399.5 572.0 L 397.0 574.5 L 291.0 570.5 L 282.5 572.0 L 279.5 676.0 L 274.5 760.0 L 276.0 769.5"/>
    <path d="M 264.0 772.5 L 121.5 767.0 L 129.5 565.0 L 131.0 562.5 L 254.0 565.5 L 273.5 568.0 L 270.5 684.0 L 266.5 763.0"/>
    <path d="M 262.0 768.5 L 270.5 571.0 L 135.0 565.5 L 133.5 567.0 L 130.5 661.0 L 124.5 763.0 L 126.0 764.5"/>
    <path d="M 583.0 715.5 L 582.5 707.0 L 584.5 702.0 L 598.5 691.0 L 601.5 583.0 L 600.0 581.5 L 546.0 580.5 L 544.5 584.0 L 541.5 690.0 L 553.5 699.0 L 556.5 705.0 L 555.0 714.5"/>
    <path d="M 856.5 789.0 L 863.5 618.0 L 863.0 591.5 L 623.0 582.5 L 613.5 584.0 L 610.5 693.0 L 596.0 696.5 L 588.5 703.0 L 585.5 709.0 L 587.0 711.5 L 608.0 711.5 L 609.5 714.0 L 608.5 730.0 L 607.0 731.5 L 587.0 731.5 L 585.5 733.0 L 591.0 743.5 L 598.0 747.5 L 607.5 749.0 L 606.5 779.0 L 608.0 780.5"/>
    <path d="M 580.5 609.0 L 579.0 610.5 L 573.0 609.5 L 558.0 602.5 L 555.5 599.0 L 561.0 594.5 L 580.0 588.5 L 580.5 592.0 L 574.5 596.0 L 573.5 603.0"/>
    <path d="M 1053.0 799.5 L 867.0 793.5 L 865.5 792.0 L 872.5 590.0 L 874.0 588.5 L 1060.0 595.5 L 1061.5 597.0 L 1055.5 788.0"/>
    <path d="M 1552.0 814.5 L 1553.5 813.0 L 1554.5 777.0 L 1627.5 620.0 L 1626.0 618.5 L 1472.0 613.5 L 1470.5 599.0 L 1466.0 593.5 L 1459.0 589.5 L 1455.5 590.0 L 1454.5 611.0 L 1451.0 613.5 L 1353.0 609.5 L 1351.5 631.0 L 1365.5 634.0 L 1365.5 648.0 L 1364.0 649.5 L 1341.0 648.5 L 1340.5 651.0 L 1347.0 661.5 L 1355.0 665.5 L 1364.5 667.0 L 1360.5 806.0 L 1362.0 807.5"/>
    <path d="M 1050.0 796.5 L 1051.5 795.0 L 1058.5 600.0 L 1057.0 598.5 L 877.0 592.5 L 875.5 596.0 L 868.5 788.0 L 874.0 790.5"/>
    <path d="M 1843.0 820.5 L 1842.5 814.0 L 1835.0 805.5 L 1820.5 801.0 L 1825.5 626.0 L 1673.0 620.5 L 1670.5 606.0 L 1663.0 598.5 L 1657.0 596.5 L 1655.5 598.0 L 1654.5 619.0 L 1652.0 620.5 L 1642.0 619.5 L 1566.5 780.0 L 1565.5 814.0 L 1568.0 815.5 L 1819.0 824.5 L 1821.0 819.5"/>
    <path d="M 569.5 601.0 L 569.0 597.5 L 563.5 599.0 L 564.0 600.5"/>
    <path d="M 1343.5 633.0 L 1342.0 634.5 L 1239.0 631.5 L 1236.5 627.0 L 1237.5 605.0 L 1239.0 602.5 L 1342.0 605.5 L 1344.5 608.0"/>
    <path d="M 2075.0 834.5 L 2076.5 833.0 L 2082.5 646.0 L 2082.5 636.0 L 2076.5 633.0 L 2077.5 612.0 L 2076.0 610.5 L 2071.0 611.5 L 2063.5 617.0 L 2057.0 633.5 L 1897.0 628.5 L 1895.5 630.0 L 1894.5 669.0 L 1880.0 671.5 L 1871.5 681.0 L 1872.0 685.5 L 1886.0 685.5 L 1894.5 688.0 L 1893.5 707.0 L 1869.5 708.0 L 1871.5 715.0 L 1878.0 721.5 L 1892.5 726.0 L 1889.5 826.0 L 1891.0 827.5"/>
    <path d="M 573.0 647.5 L 569.0 647.5 L 554.5 636.0 L 557.0 631.5 L 569.0 632.5 L 572.5 628.0 L 572.5 624.0 L 576.5 621.0 L 576.5 619.0 L 572.0 616.5 L 567.0 623.5 L 562.0 616.5 L 559.5 618.0 L 559.5 621.0 L 562.5 626.0 L 559.0 627.5 L 555.5 624.0 L 555.5 615.0 L 560.0 611.5 L 566.0 613.5 L 575.0 611.5 L 580.5 618.0 L 579.5 625.0 L 574.5 629.0 L 574.5 632.0 L 579.0 633.5 L 579.5 636.0 L 574.5 638.0"/>
    <path d="M 1881.0 691.5 L 1881.0 688.5 L 1869.0 688.5 L 1867.5 682.0 L 1871.5 674.0 L 1883.5 665.0 L 1884.5 629.0 L 1883.0 627.5 L 1839.0 626.5 L 1837.5 628.0 L 1836.5 689.0"/>
    <path d="M 2233.0 843.5 L 2093.0 839.5 L 2085.5 837.0 L 2092.0 632.5 L 2236.0 636.5 L 2240.5 639.0 L 2234.5 842.0 Z"/>
    <path d="M 2230.0 840.5 L 2231.5 834.0 L 2237.5 642.0 L 2236.0 640.5 L 2096.0 635.5 L 2094.5 637.0 L 2088.5 834.0 L 2090.0 835.5"/>
    <path d="M 569.5 640.0 L 568.0 636.5 L 563.5 637.0 L 567.0 640.5 Z"/>
    <path d="M 1351.5 700.0 L 1352.5 668.0 L 1341.5 661.0 L 1337.5 653.0 L 1337.5 647.0 L 1339.0 645.5 L 1353.0 645.5 L 1353.0 643.5 L 1241.0 639.5 L 1239.5 641.0 L 1237.5 691.0 L 1239.0 696.5"/>
    <path d="M 578.5 663.0 L 576.0 664.5 L 573.0 658.5 L 561.0 658.5 L 559.0 663.5 L 554.5 659.0 L 553.5 655.0 L 555.0 653.5 L 572.0 654.5 L 574.5 653.0 L 575.5 649.0 L 578.0 648.5"/>
    <path d="M 177.0 673.5 L 170.0 673.5 L 166.5 671.0 L 165.5 658.0 L 170.0 651.5 L 177.0 651.5 L 181.5 655.0 L 181.5 668.0"/>
    <path d="M 195.0 674.5 L 182.5 672.0 L 187.5 669.0 L 187.5 659.0 L 183.5 656.0 L 190.0 651.5 L 193.5 654.0 L 192.5 669.0 L 197.5 672.0 Z"/>
    <path d="M 210.0 674.5 L 208.0 674.5 L 206.0 670.5 L 197.5 668.0 L 208.0 652.5 L 211.0 652.5 L 212.5 655.0 L 211.5 665.0 L 213.5 669.0"/>
    <path d="M 229.0 675.5 L 217.0 675.5 L 215.5 674.0 L 216.0 671.5 L 220.5 670.0 L 220.5 660.0 L 217.0 659.5 L 216.5 657.0 L 223.0 652.5 L 226.5 656.0 L 225.5 671.0 L 230.5 673.0 Z"/>
    <path d="M 174.0 669.5 L 177.5 663.0 L 175.0 655.5 L 173.0 655.5 L 170.5 660.0 L 170.5 667.0"/>
    <path d="M 379.0 681.5 L 375.0 680.5 L 371.5 676.0 L 371.5 664.0 L 376.0 658.5 L 382.0 658.5 L 387.5 664.0 L 386.5 676.0 L 383.0 680.5"/>
    <path d="M 402.0 681.5 L 390.0 681.5 L 388.5 680.0 L 389.0 677.5 L 393.5 677.0 L 394.5 666.0 L 390.0 665.5 L 389.5 663.0 L 394.0 659.5 L 399.5 661.0 L 398.5 676.0 L 402.5 679.0 Z"/>
    <path d="M 436.5 665.0 L 434.5 670.0 L 436.5 678.0 L 432.0 682.5 L 425.0 682.5 L 420.0 677.5 L 415.0 682.5 L 412.0 677.5 L 406.0 677.5 L 403.5 675.0 L 408.5 666.0 L 415.0 659.5 L 418.5 662.0 L 418.5 673.0 L 428.0 678.5 L 431.0 677.5 L 431.5 675.0 L 425.5 671.0 L 431.5 666.0 L 427.0 664.5 L 423.0 667.5 L 421.5 664.0 L 425.0 660.5 L 433.0 660.5"/>
    <path d="M 1269.0 678.5 L 1265.0 677.5 L 1261.5 672.0 L 1261.5 666.0 L 1266.0 660.5 L 1271.0 660.5 L 1274.5 665.0 L 1274.5 673.0"/>
    <path d="M 1285.0 678.5 L 1275.5 677.0 L 1279.5 674.0 L 1279.5 666.0 L 1276.5 664.0 L 1281.0 660.5 L 1283.5 662.0 L 1283.5 674.0 L 1286.5 676.0 Z"/>
    <path d="M 1313.5 673.0 L 1308.0 679.5 L 1302.5 678.0 L 1301.5 676.0 L 1303.5 673.0 L 1302.0 671.5 L 1297.0 678.5 L 1292.0 678.5 L 1288.5 675.0 L 1287.5 668.0 L 1292.0 661.5 L 1297.0 661.5 L 1300.0 664.5 L 1309.0 661.5 L 1313.5 666.0"/>
    <path d="M 1329.0 679.5 L 1324.0 675.5 L 1319.0 675.5 L 1315.0 679.5 L 1313.5 678.0 L 1318.5 665.0 L 1322.0 661.5 L 1329.5 676.0 Z"/>
    <path d="M 378.0 676.5 L 382.5 674.0 L 382.5 665.0 L 380.0 662.5 L 376.5 665.0 L 376.5 675.0 Z"/>
    <path d="M 1267.0 674.5 L 1270.5 672.0 L 1269.0 663.5 L 1265.5 667.0"/>
    <path d="M 1293.0 675.5 L 1296.5 674.0 L 1295.0 664.5 L 1291.5 667.0"/>
    <path d="M 1306.0 669.5 L 1309.5 668.0 L 1308.0 664.5 L 1305.5 666.0 Z"/>
    <path d="M 578.5 677.0 L 575.0 682.5 L 560.0 683.5 L 553.5 679.0 L 553.5 671.0 L 560.0 666.5 L 569.0 666.5 L 577.5 671.0"/>
    <path d="M 574.5 676.0 L 573.0 672.5 L 566.0 670.5 L 560.0 671.5 L 557.5 674.0 L 561.0 678.5 L 571.0 678.5"/>
    <path d="M 714.0 692.5 L 708.0 692.5 L 703.5 688.0 L 703.5 676.0 L 708.0 670.5 L 715.0 670.5 L 719.5 676.0 L 719.5 685.0 L 717.5 690.0"/>
    <path d="M 733.0 693.5 L 723.0 693.5 L 721.5 690.0 L 726.5 687.0 L 726.5 678.0 L 723.0 677.5 L 721.5 675.0 L 728.0 670.5 L 730.5 672.0 L 730.5 688.0 L 735.5 691.0 Z"/>
    <path d="M 767.5 673.0 L 767.0 675.5 L 758.5 677.0 L 759.0 679.5 L 764.0 679.5 L 768.5 684.0 L 768.5 689.0 L 765.0 693.5 L 756.0 693.5 L 752.0 688.5 L 748.0 693.5 L 746.0 693.5 L 745.0 689.5 L 735.5 687.0 L 742.5 675.0 L 748.0 671.5 L 749.5 673.0 L 749.5 684.0 L 753.0 687.5 L 761.0 690.5 L 763.5 688.0 L 761.0 683.5 L 753.5 684.0 L 754.5 673.0 L 756.0 671.5"/>
    <path d="M 712.0 688.5 L 714.5 686.0 L 714.5 676.0 L 710.0 674.5 L 708.5 686.0"/>
    <path d="M 940.0 700.5 L 936.0 700.5 L 931.5 696.0 L 930.5 692.0 L 931.5 683.0 L 935.0 678.5 L 944.0 679.5 L 947.5 686.0 L 944.5 698.0"/>
    <path d="M 961.0 701.5 L 948.5 700.0 L 950.0 696.5 L 953.5 696.0 L 953.5 685.0 L 950.0 685.5 L 948.5 683.0 L 954.0 678.5 L 957.0 678.5 L 958.5 681.0 L 957.5 696.0 L 962.5 698.0 Z"/>
    <path d="M 975.0 701.5 L 971.0 696.5 L 965.0 696.5 L 962.5 694.0 L 973.0 679.5 L 976.5 680.0 L 976.5 691.0 L 979.5 695.0"/>
    <path d="M 985.0 702.5 L 983.5 697.0 L 989.5 684.0 L 982.0 683.5 L 980.5 680.0 L 994.0 679.5 L 996.5 682.0 L 989.5 693.0 L 988.5 701.0 Z"/>
    <path d="M 938.0 696.5 L 941.0 695.5 L 942.5 692.0 L 941.0 682.5 L 938.0 682.5 L 935.5 686.0 L 935.5 693.0"/>
    <path d="M 1436.0 718.5 L 1430.0 716.5 L 1427.5 710.0 L 1428.5 700.0 L 1435.0 695.5 L 1441.0 697.5 L 1443.5 702.0 L 1442.5 714.0"/>
    <path d="M 1457.0 719.5 L 1447.0 719.5 L 1444.5 717.0 L 1450.5 712.0 L 1450.5 703.0 L 1447.0 703.5 L 1446.5 700.0 L 1451.0 696.5 L 1454.5 697.0 L 1454.5 714.0 L 1459.5 717.0 Z"/>
    <path d="M 1491.5 715.0 L 1486.0 720.5 L 1480.0 719.5 L 1477.5 715.0 L 1480.0 713.5 L 1482.0 715.5 L 1486.0 715.5 L 1486.5 713.0 L 1481.0 712.5 L 1477.0 709.5 L 1472.0 718.5 L 1466.0 719.5 L 1460.5 714.0 L 1461.5 701.0 L 1465.0 697.5 L 1471.0 697.5 L 1477.0 703.5 L 1480.0 698.5 L 1488.0 698.5 L 1492.5 704.0"/>
    <path d="M 1436.0 714.5 L 1438.5 712.0 L 1439.5 706.0 L 1438.5 702.0 L 1434.0 700.5 L 1432.5 712.0"/>
    <path d="M 1469.0 715.5 L 1471.5 712.0 L 1471.5 704.0 L 1470.0 701.5 L 1467.0 701.5 L 1464.5 706.0 L 1465.5 714.0 Z"/>
    <path d="M 1485.0 709.5 L 1487.5 704.0 L 1484.0 701.5 L 1481.5 707.0"/>
    <path d="M 1880.0 750.5 L 1881.5 729.0 L 1869.5 719.0 L 1866.5 713.0 L 1866.5 705.0 L 1880.0 704.5 L 1880.5 703.0 L 1836.0 701.5 L 1834.5 749.0"/>
    <path d="M 1351.5 808.0 L 1350.0 809.5 L 1324.0 809.5 L 1233.0 805.5 L 1230.5 803.0 L 1234.5 705.0 L 1239.0 703.5 L 1353.0 708.5 L 1354.5 710.0"/>
    <path d="M 1348.5 805.0 L 1351.5 720.0 L 1350.0 711.5 L 1245.0 707.5 L 1237.5 709.0 L 1235.0 802.5 L 1342.0 806.5"/>
    <path d="M 1710.0 729.5 L 1704.0 728.5 L 1700.5 724.0 L 1700.5 712.0 L 1704.0 707.5 L 1712.0 707.5 L 1716.5 714.0 L 1716.5 722.0"/>
    <path d="M 1761.5 729.0 L 1760.0 730.5 L 1719.0 729.5 L 1717.5 726.0 L 1722.5 724.0 L 1723.5 715.0 L 1720.0 714.5 L 1718.5 712.0 L 1720.0 709.5 L 1727.0 707.5 L 1727.5 724.0 L 1733.0 726.5 L 1736.5 725.0 L 1737.0 714.5 L 1733.5 714.0 L 1733.5 711.0 L 1737.0 708.5 L 1742.0 708.5 L 1742.5 725.0 L 1750.0 726.5 L 1751.5 725.0 L 1751.5 715.0 L 1749.0 715.5 L 1747.5 712.0 L 1752.0 708.5 L 1756.0 708.5 L 1756.5 726.0 L 1760.0 726.5 Z"/>
    <path d="M 1710.0 724.5 L 1711.5 713.0 L 1707.0 710.5 L 1705.5 723.0"/>
    <path d="M 596.5 716.0 L 596.0 714.5 L 586.5 715.0 L 587.0 716.5"/>
    <path d="M 1966.0 737.5 L 1959.0 737.5 L 1955.5 734.0 L 1954.5 723.0 L 1955.5 719.0 L 1960.0 715.5 L 1966.0 715.5 L 1970.5 720.0 L 1970.5 732.0"/>
    <path d="M 2001.5 738.0 L 1999.0 739.5 L 1974.0 738.5 L 1972.5 735.0 L 1977.5 733.0 L 1977.5 723.0 L 1974.0 722.5 L 1973.5 720.0 L 1979.0 715.5 L 1982.0 716.5 L 1981.5 733.0 L 1991.0 734.5 L 1992.5 723.0 L 1989.0 723.5 L 1987.5 720.0 L 1996.0 716.5 L 1997.5 718.0 L 1996.5 734.0"/>
    <path d="M 2007.0 739.5 L 2002.5 734.0 L 2006.0 731.5 L 2009.0 735.5 L 2012.0 735.5 L 2013.5 732.0 L 2009.0 730.5 L 2007.5 727.0 L 2013.0 725.5 L 2013.5 723.0 L 2009.0 721.5 L 2005.0 723.5 L 2003.5 721.0 L 2007.0 717.5 L 2015.0 717.5 L 2018.5 722.0 L 2016.5 727.0 L 2018.5 731.0 L 2017.5 737.0 L 2014.0 739.5"/>
    <path d="M 1964.0 733.5 L 1966.5 723.0 L 1962.0 719.5 L 1959.5 722.0 L 1958.5 728.0 L 1959.5 732.0"/>
    <path d="M 2144.0 744.5 L 2139.0 744.5 L 2134.5 740.0 L 2134.5 729.0 L 2139.0 723.5 L 2146.0 724.5 L 2149.5 731.0 L 2147.5 742.0"/>
    <path d="M 2176.5 744.0 L 2175.0 745.5 L 2151.0 744.5 L 2150.5 742.0 L 2155.5 738.0 L 2155.5 731.0 L 2152.0 730.5 L 2151.5 728.0 L 2158.0 724.5 L 2159.5 726.0 L 2159.5 740.0 L 2167.0 741.5 L 2168.5 731.0 L 2165.0 730.5 L 2164.5 728.0 L 2171.0 724.5 L 2173.5 727.0 L 2172.5 740.0"/>
    <path d="M 593.0 780.5 L 595.5 774.0 L 595.5 750.0 L 585.5 743.0 L 581.5 731.0 L 583.5 728.0 L 541.0 725.5 L 539.5 727.0 L 537.5 777.0 L 539.0 778.5"/>
    <path d="M 2189.0 745.5 L 2181.0 745.5 L 2177.5 742.0 L 2179.0 739.5 L 2183.0 741.5 L 2187.5 740.0 L 2186.0 736.5 L 2178.5 736.0 L 2178.5 727.0 L 2180.0 725.5 L 2191.5 726.0 L 2190.0 729.5 L 2183.5 730.0 L 2184.0 732.5 L 2189.0 732.5 L 2192.5 736.0 L 2192.5 741.0"/>
    <path d="M 2142.0 740.5 L 2144.5 738.0 L 2144.5 729.0 L 2140.0 727.5 L 2138.5 738.0"/>
    <path d="M 1269.0 764.5 L 1264.0 763.5 L 1260.5 758.0 L 1261.5 746.0 L 1267.0 741.5 L 1272.0 742.5 L 1276.5 750.0 L 1274.5 761.0"/>
    <path d="M 1291.0 764.5 L 1279.0 764.5 L 1277.5 763.0 L 1278.0 760.5 L 1282.5 759.0 L 1283.5 750.0 L 1278.5 747.0 L 1284.0 742.5 L 1287.5 744.0 L 1286.5 759.0 L 1291.5 762.0 Z"/>
    <path d="M 1303.0 765.5 L 1298.0 765.5 L 1293.5 761.0 L 1293.5 748.0 L 1297.0 743.5 L 1304.0 743.5 L 1308.5 749.0 L 1308.5 758.0 L 1306.5 763.0"/>
    <path d="M 1317.0 765.5 L 1313.5 765.0 L 1313.5 760.0 L 1318.5 748.0 L 1311.0 747.5 L 1311.0 743.5 L 1323.0 743.5 L 1324.5 745.0 L 1324.5 749.0 L 1318.5 758.0"/>
    <path d="M 1267.0 759.5 L 1271.5 756.0 L 1271.5 749.0 L 1269.0 745.5 L 1265.5 748.0 L 1264.5 752.0"/>
    <path d="M 1301.0 761.5 L 1303.5 759.0 L 1304.5 751.0 L 1303.5 748.0 L 1300.0 746.5 L 1297.5 749.0 L 1297.5 759.0"/>
    <path d="M 1877.0 826.5 L 1878.5 825.0 L 1879.5 763.0 L 1835.0 760.5 L 1833.5 762.0 L 1832.5 801.0 L 1840.0 804.5 L 1845.5 811.0 L 1847.5 821.0 L 1846.0 823.5 L 1833.0 823.5 L 1832.5 825.0"/>
    <path d="M 137.0 809.5 L 138.5 778.0 L 129.0 776.5 L 127.5 809.0"/>
    <path d="M 149.0 810.5 L 150.5 809.0 L 152.5 779.0 L 151.0 777.5 L 142.0 777.5 L 140.5 809.0"/>
    <path d="M 163.0 810.5 L 164.5 809.0 L 165.5 779.0 L 156.0 777.5 L 153.5 809.0"/>
    <path d="M 175.0 811.5 L 177.5 810.0 L 179.5 780.0 L 170.0 778.5 L 168.5 781.0 L 167.5 810.0"/>
    <path d="M 190.0 811.5 L 191.5 810.0 L 192.5 780.0 L 184.0 778.5 L 182.5 780.0 L 180.5 810.0"/>
    <path d="M 242.5 811.0 L 241.0 824.5 L 217.5 818.0 L 220.0 814.5 L 241.0 809.5 Z"/>
    <path d="M 458.0 1296.5 L 459.0 1290.5 L 260.0 1284.5 L 249.5 1282.0 L 256.5 1080.0 L 259.0 1077.5 L 284.0 1077.5 L 285.5 1073.0 L 217.0 1070.5 L 214.5 1068.0 L 223.5 860.0 L 222.0 858.5 L 70.0 853.5 L 68.5 852.0 L 69.5 812.0 L 66.0 811.5 L 63.5 827.0 L 53.5 1068.0 L 55.0 1069.5 L 97.0 1070.5 L 101.5 1073.0 L 94.5 1283.0 L 102.0 1284.5 L 107.5 1283.0 L 106.0 1278.5 L 99.5 1277.0 L 105.5 1126.0 L 237.0 1129.5 L 248.5 1132.0 L 243.5 1282.0 L 238.5 1285.0 L 240.0 1289.5"/>
    <path d="M 254.0 822.5 L 249.5 819.0 L 252.0 813.5 L 257.5 816.0 L 257.5 819.0"/>
    <path d="M 268.0 822.5 L 262.5 821.0 L 264.0 814.5 L 269.5 816.0 L 270.5 819.0"/>
    <path d="M 281.0 822.5 L 274.5 821.0 L 274.5 817.0 L 277.0 814.5 L 282.5 817.0"/>
    <path d="M 290.0 823.5 L 287.5 822.0 L 286.5 818.0 L 291.0 814.5 L 294.5 817.0 L 294.5 821.0"/>
    <path d="M 121.0 851.5 L 122.5 850.0 L 123.5 820.0 L 114.0 819.5 L 112.5 822.0 L 111.5 850.0"/>
    <path d="M 135.0 851.5 L 136.5 821.0 L 128.0 819.5 L 126.5 821.0 L 125.5 851.0"/>
    <path d="M 148.0 852.5 L 150.5 822.0 L 149.0 820.5 L 140.0 820.5 L 138.5 852.0"/>
    <path d="M 160.0 853.5 L 162.5 852.0 L 163.5 822.0 L 154.0 820.5 L 152.5 852.0"/>
    <path d="M 175.0 853.5 L 176.5 822.0 L 168.0 821.5 L 165.5 852.0"/>
    <path d="M 188.0 853.5 L 189.5 852.0 L 190.5 823.0 L 181.0 821.5 L 179.5 853.0"/>
    <path d="M 303.5 829.0 L 301.0 831.5 L 296.0 831.5 L 294.5 826.0 L 300.0 823.5 L 302.5 825.0"/>
    <path d="M 301.0 844.5 L 295.0 844.5 L 293.5 840.0 L 296.0 837.5 L 301.0 837.5 L 302.5 839.0"/>
    <path d="M 787.5 1048.0 L 786.0 1049.5 L 690.0 1047.5 L 687.5 1046.0 L 687.5 1038.0 L 684.5 1030.0 L 675.0 1021.5 L 670.5 1022.0 L 669.0 1045.5 L 331.0 1035.5 L 332.5 958.0 L 338.5 843.0 L 340.0 841.5 L 450.0 844.5 L 470.0 845.5 L 472.5 850.0 L 470.0 857.5 L 402.0 855.5 L 400.5 857.0 L 400.5 869.0 L 402.0 870.5 L 412.0 870.5 L 413.5 872.0 L 411.5 911.0 L 410.0 912.5 L 397.5 913.0 L 396.5 935.0 L 398.0 936.5 L 474.0 938.5 L 473.5 932.0 L 477.5 926.0 L 474.5 922.0 L 474.5 916.0 L 477.5 912.0 L 474.5 905.0 L 477.5 899.0 L 475.5 889.0 L 480.0 882.5 L 493.0 882.5 L 495.0 873.5 L 504.0 873.5 L 505.5 875.0 L 505.5 884.0 L 515.0 883.5 L 521.5 891.0 L 518.5 898.0 L 521.5 907.0 L 517.5 912.0 L 520.5 918.0 L 520.5 922.0 L 517.5 926.0 L 519.5 931.0 L 519.0 940.5 L 583.0 942.5 L 592.5 941.0 L 593.5 919.0 L 580.0 917.5 L 578.5 915.0 L 580.5 883.0 L 582.0 876.5 L 594.0 876.5 L 595.5 875.0 L 595.5 862.0 L 531.0 859.5 L 529.5 858.0 L 529.5 849.0 L 531.0 847.5 L 676.0 852.5 L 679.5 866.0 L 690.0 875.5 L 694.5 874.0 L 694.5 855.0 L 697.0 852.5 L 794.0 855.5 L 795.5 857.0"/>
    <path d="M 666.5 1042.0 L 666.0 1037.5 L 659.5 1036.0 L 658.5 1028.0 L 666.5 866.0 L 669.0 860.5 L 673.5 860.0 L 673.0 855.5 L 534.0 851.5 L 535.0 856.5 L 598.0 858.5 L 599.5 861.0 L 595.5 942.0 L 593.0 945.5 L 501.0 942.5 L 499.5 941.0 L 502.5 883.0 L 501.0 876.5 L 498.0 876.5 L 496.5 881.0 L 494.5 930.0 L 492.0 941.5 L 396.0 939.5 L 393.5 937.0 L 397.5 854.0 L 400.0 851.5 L 468.0 853.5 L 468.5 850.0 L 464.0 848.5 L 380.0 845.5 L 342.5 846.0 L 336.5 944.0 L 333.5 1031.0 L 335.0 1032.5"/>
    <path d="M 385.0 939.5 L 346.0 938.5 L 342.5 937.0 L 346.5 851.0 L 349.0 849.5 L 392.5 852.0 L 388.5 937.0"/>
    <path d="M 300.0 858.5 L 296.0 859.5 L 292.5 854.0 L 295.0 851.5 L 299.0 851.5 L 301.5 854.0"/>
    <path d="M 2184.0 885.5 L 2186.5 881.0 L 2186.5 853.0 L 2177.0 851.5 L 2175.5 884.0"/>
    <path d="M 2199.0 885.5 L 2200.5 854.0 L 2191.0 852.5 L 2189.5 854.0 L 2189.5 885.0"/>
    <path d="M 2212.0 886.5 L 2213.5 885.0 L 2214.5 854.0 L 2205.0 852.5 L 2203.5 854.0 L 2202.5 884.0"/>
    <path d="M 384.0 935.5 L 388.5 856.0 L 387.0 854.5 L 351.0 853.5 L 349.5 856.0 L 345.5 933.0 L 359.0 935.5"/>
    <path d="M 2227.0 886.5 L 2228.5 854.0 L 2218.0 853.5 L 2216.5 885.0 L 2218.0 886.5"/>
    <path d="M 2240.0 886.5 L 2241.5 885.0 L 2241.5 855.0 L 2234.0 853.5 L 2231.5 855.0 L 2230.5 885.0"/>
    <path d="M 783.0 1045.5 L 785.5 1022.0 L 791.5 860.0 L 699.0 856.5 L 700.0 861.5 L 783.0 863.5 L 786.5 866.0 L 781.5 998.0 L 778.0 1040.5 L 692.0 1038.5 L 690.5 1042.0 L 692.0 1043.5"/>
    <path d="M 208.0 1069.5 L 69.0 1065.5 L 58.5 1063.0 L 66.5 872.0 L 69.0 858.5 L 215.0 863.5 L 218.5 866.0 L 211.5 1002.0 L 210.5 1058.0"/>
    <path d="M 656.0 947.5 L 600.5 945.0 L 603.5 869.0 L 606.0 858.5 L 659.0 859.5 L 661.5 861.0 L 658.5 942.0"/>
    <path d="M 1072.5 1219.0 L 1072.0 1214.5 L 1045.0 1213.5 L 1043.5 1212.0 L 1054.5 913.0 L 1053.0 911.5 L 1008.0 910.5 L 1005.5 908.0 L 1006.0 865.5 L 844.0 860.5 L 842.5 862.0 L 833.5 1086.0 L 829.0 1090.5 L 290.5 1073.0 L 292.0 1078.5 L 514.0 1085.5 L 515.5 1087.0 L 515.5 1115.0 L 509.5 1254.0 L 511.0 1255.5 L 515.5 1253.0 L 519.5 1154.0 L 527.0 1152.5 L 589.0 1154.5 L 604.5 1157.0 L 598.5 1294.0 L 597.0 1295.5 L 515.0 1292.5 L 513.5 1291.0 L 513.5 1279.0 L 510.0 1277.5 L 508.5 1279.0 L 508.5 1289.0 L 503.5 1294.0 L 505.0 1298.5 L 724.0 1304.5 L 787.0 1307.5 L 788.5 1306.0 L 788.0 1302.5 L 605.0 1295.5 L 604.5 1273.0 L 610.5 1145.0 L 607.0 1143.5 L 602.0 1150.5 L 521.0 1147.5 L 519.5 1146.0 L 521.5 1087.0 L 523.0 1085.5 L 605.0 1087.5 L 607.5 1091.0 L 606.5 1119.0 L 608.0 1120.5 L 611.5 1120.0 L 612.5 1091.0 L 616.0 1087.5 L 831.0 1095.5 L 832.5 1105.0 L 824.5 1299.0 L 821.0 1303.5 L 813.0 1303.5 L 813.0 1308.5 L 828.5 1308.0 L 832.5 1213.0 L 835.0 1211.5"/>
    <path d="M 654.0 943.5 L 658.5 865.0 L 657.0 863.5 L 641.0 862.5 L 639.5 867.0 L 634.5 869.0 L 634.5 876.0 L 639.5 880.0 L 639.0 881.5 L 635.0 881.5 L 620.0 874.5 L 618.5 872.0 L 622.0 868.5 L 635.0 864.5 L 635.0 862.5 L 610.0 861.5 L 607.5 867.0 L 604.5 942.0"/>
    <path d="M 205.0 1066.5 L 206.5 1065.0 L 208.5 985.0 L 215.5 869.0 L 203.0 866.5 L 72.0 862.5 L 70.5 865.0 L 61.5 1060.0 L 63.0 1061.5"/>
    <path d="M 775.0 1037.5 L 783.5 869.0 L 782.0 867.5 L 699.0 864.5 L 697.5 878.0 L 690.0 879.5 L 678.5 871.0 L 675.0 863.5 L 672.0 863.5 L 669.5 869.0 L 662.5 1034.0 L 666.5 1034.0 L 667.5 1019.0 L 673.0 1017.5 L 681.0 1020.5 L 687.5 1027.0 L 692.0 1035.5"/>
    <path d="M 299.0 872.5 L 292.5 871.0 L 292.5 867.0 L 295.0 864.5 L 300.5 866.0 L 301.5 870.0 Z"/>
    <path d="M 368.0 894.5 L 364.0 893.5 L 353.5 885.0 L 355.0 881.5 L 366.5 881.0 L 354.5 876.0 L 353.5 870.0 L 359.0 864.5 L 368.0 864.5 L 374.5 869.0 L 374.5 874.0 L 369.5 879.0 L 373.5 885.0 L 369.5 887.0"/>
    <path d="M 1036.0 1213.5 L 835.0 1206.5 L 832.5 1204.0 L 845.5 912.0 L 847.0 910.5 L 967.5 914.0 L 967.0 908.5 L 847.0 904.5 L 845.5 902.0 L 846.5 876.0 L 849.0 865.5 L 1000.0 870.5 L 1001.5 872.0 L 1000.5 907.0 L 999.0 909.5 L 992.5 910.0 L 991.5 914.0 L 993.0 915.5 L 1042.0 916.5 L 1049.5 919.0 L 1038.5 1211.0 Z"/>
    <path d="M 370.5 871.0 L 366.0 868.5 L 358.5 870.0 L 360.0 874.5 L 369.0 874.5 Z"/>
    <path d="M 997.5 905.0 L 998.5 875.0 L 997.0 873.5 L 855.0 868.5 L 850.5 870.0 L 850.0 901.5 L 969.0 905.5 L 971.5 900.0 L 979.0 892.5 L 990.0 889.5 L 992.5 892.0 L 992.5 906.0"/>
    <path d="M 902.0 896.5 L 896.0 896.5 L 891.5 890.0 L 892.5 879.0 L 897.0 874.5 L 903.0 874.5 L 907.5 881.0 L 906.5 892.0"/>
    <path d="M 921.0 897.5 L 912.0 897.5 L 908.5 895.0 L 913.5 892.0 L 914.5 882.0 L 911.0 881.5 L 910.5 879.0 L 914.0 875.5 L 918.5 876.0 L 918.5 893.0 L 922.5 894.0 Z"/>
    <path d="M 938.0 897.5 L 926.0 897.5 L 924.5 896.0 L 925.5 892.0 L 934.5 884.0 L 933.0 879.5 L 928.0 882.5 L 925.5 882.0 L 925.5 879.0 L 929.0 875.5 L 935.0 875.5 L 938.5 879.0 L 938.5 885.0 L 931.5 892.0 L 933.0 894.5 L 938.0 894.5 L 939.5 896.0 Z"/>
    <path d="M 951.0 898.5 L 945.0 898.5 L 940.5 894.0 L 940.5 889.0 L 942.5 887.0 L 941.5 880.0 L 947.0 875.5 L 954.0 877.5 L 955.5 880.0 L 955.5 894.0"/>
    <path d="M 407.0 886.5 L 408.5 878.0 L 405.0 876.5 L 403.5 879.0 L 405.5 882.0 L 403.5 886.0 Z"/>
    <path d="M 2220.5 1363.0 L 2227.5 1152.0 L 2231.0 1149.5 L 2272.0 1151.5 L 2273.5 1150.0 L 2282.0 894.5 L 2277.5 895.0 L 2276.5 932.0 L 2273.0 934.5 L 2119.5 929.0 L 2112.5 1139.0 L 2111.0 1140.5 L 1443.0 1114.5 L 1439.5 1113.0 L 1438.5 1103.0 L 1444.5 947.0 L 1445.0 882.5 L 1275.0 876.5 L 1273.5 915.0 L 1271.0 919.5 L 1222.5 919.0 L 1212.5 1218.0 L 1211.0 1219.5 L 1189.0 1218.5 L 1187.5 1223.0 L 1189.0 1224.5 L 1428.0 1233.5 L 1429.5 1235.0 L 1427.5 1331.0 L 1429.0 1332.5 L 1438.5 1332.0 L 1438.5 1328.0 L 1432.5 1324.0 L 1438.5 1121.0 L 1444.0 1118.5 L 1650.0 1127.5 L 1652.5 1130.0 L 1646.5 1335.0 L 1645.0 1336.5 L 1480.0 1328.5 L 1464.0 1328.5 L 1464.0 1333.5 L 1790.0 1348.5 L 2025.5 1356.0 L 2024.0 1351.5 L 1749.0 1341.5 L 1745.5 1340.0 L 1745.5 1308.0 L 1744.0 1306.5 L 1740.5 1309.0 L 1740.5 1338.0 L 1738.0 1340.5 L 1654.0 1336.5 L 1652.5 1335.0 L 1653.5 1281.0 L 1655.0 1279.5 L 1744.0 1283.5 L 1746.5 1282.0 L 1750.5 1133.0 L 1752.0 1131.5 L 2062.0 1144.5 L 2064.5 1147.0 L 2058.5 1333.0 L 2057.5 1350.0 L 2056.0 1352.5 L 2051.0 1352.5 L 2050.5 1357.0 L 2192.0 1363.5"/>
    <path d="M 299.0 885.5 L 293.0 885.5 L 291.5 881.0 L 294.0 878.5 L 298.0 878.5 L 300.5 882.0 Z"/>
    <path d="M 901.0 892.5 L 903.5 882.0 L 899.0 878.5 L 896.5 881.0 L 896.5 891.0"/>
    <path d="M 950.0 884.5 L 950.5 881.0 L 947.0 879.5 L 945.5 883.0"/>
    <path d="M 635.0 910.5 L 631.5 910.0 L 634.5 905.0 L 633.0 901.5 L 631.0 901.5 L 628.0 906.5 L 623.0 901.5 L 621.5 903.0 L 623.5 907.0 L 622.0 910.5 L 617.5 907.0 L 617.5 901.0 L 622.5 896.0 L 618.5 892.0 L 620.0 883.5 L 632.0 881.5 L 638.5 886.0 L 638.5 892.0 L 633.5 896.0 L 638.5 901.0 L 638.5 906.0"/>
    <path d="M 1356.5 922.0 L 1280.0 920.5 L 1277.5 918.0 L 1278.5 884.0 L 1281.0 881.5 L 1357.0 884.5"/>
    <path d="M 1987.5 1092.0 L 1983.0 1096.5 L 1612.0 1081.5 L 1605.5 1079.0 L 1603.5 1065.0 L 1593.0 1055.5 L 1588.5 1056.0 L 1588.5 1076.0 L 1587.0 1079.5 L 1489.0 1075.5 L 1487.5 1073.0 L 1493.5 883.0 L 1495.0 881.5 L 1592.0 885.5 L 1595.5 899.0 L 1607.0 909.5 L 1610.5 909.0 L 1612.0 886.5 L 1785.0 893.5 L 1786.5 903.0 L 1784.0 905.5 L 1696.0 901.5 L 1694.5 903.0 L 1693.5 926.0 L 1708.5 929.0 L 1707.5 967.0 L 1706.0 968.5 L 1693.0 968.5 L 1692.5 982.0 L 1696.0 983.5 L 1791.0 987.5 L 1790.5 980.0 L 1793.5 976.0 L 1791.5 964.0 L 1794.5 960.0 L 1791.5 956.0 L 1791.5 950.0 L 1794.5 946.0 L 1791.5 940.0 L 1792.5 935.0 L 1798.0 930.5 L 1809.0 931.5 L 1811.0 921.5 L 1820.0 921.5 L 1822.5 924.0 L 1821.5 931.0 L 1823.0 932.5 L 1831.0 931.5 L 1836.0 933.5 L 1838.5 937.0 L 1838.5 944.0 L 1835.5 947.0 L 1838.5 952.0 L 1838.5 956.0 L 1835.5 961.0 L 1838.5 969.0 L 1835.5 975.0 L 1838.0 989.5 L 1922.0 992.5 L 1923.5 991.0 L 1923.5 978.0 L 1909.5 975.0 L 1910.5 937.0 L 1912.0 935.5 L 1924.5 935.0 L 1925.5 912.0 L 1924.0 910.5 L 1846.0 907.5 L 1844.5 906.0 L 1845.5 897.0 L 1873.0 896.5 L 1974.0 901.5 L 1990.0 900.5 L 1992.5 903.0"/>
    <path d="M 590.0 892.5 L 588.5 887.0 L 590.5 883.0 L 588.0 882.5 L 585.5 885.0 L 585.5 891.0"/>
    <path d="M 1429.0 1227.5 L 1221.0 1220.5 L 1217.5 1218.0 L 1226.5 936.0 L 1229.0 924.5 L 1367.0 929.5 L 1368.5 925.0 L 1362.5 922.0 L 1362.5 892.0 L 1365.0 884.5 L 1438.0 886.5 L 1440.5 889.0 L 1439.5 924.0 L 1437.0 926.5 L 1392.5 925.0 L 1394.0 930.5 L 1436.0 931.5 L 1438.5 933.0 L 1430.5 1226.0 Z"/>
    <path d="M 634.5 890.0 L 634.5 887.0 L 631.0 885.5 L 622.5 887.0 L 624.0 891.5 L 633.0 891.5 Z"/>
    <path d="M 1353.5 919.0 L 1354.0 887.5 L 1282.5 886.0 L 1282.0 916.5"/>
    <path d="M 1583.0 1076.5 L 1584.5 1075.0 L 1583.0 1071.5 L 1505.0 1068.5 L 1496.5 1066.0 L 1501.5 893.0 L 1503.0 890.5 L 1588.0 894.5 L 1589.5 890.0 L 1585.0 888.5 L 1498.0 885.5 L 1496.5 887.0 L 1491.5 1071.0 L 1493.0 1072.5"/>
    <path d="M 1436.5 921.0 L 1436.0 890.5 L 1372.0 887.5 L 1366.5 889.0 L 1366.0 920.5 L 1369.5 918.0 L 1369.5 906.0 L 1375.0 904.5 L 1384.0 908.5 L 1393.0 921.5 L 1435.0 922.5 Z"/>
    <path d="M 398.5 894.0 L 409.0 893.5 L 409.5 891.0 L 400.0 888.5"/>
    <path d="M 950.5 894.0 L 949.0 888.5 L 944.5 891.0 L 946.0 894.5"/>
    <path d="M 1301.0 907.5 L 1294.0 906.5 L 1291.5 900.0 L 1293.5 892.0 L 1297.0 889.5 L 1301.0 889.5 L 1304.5 893.0 L 1304.5 904.0"/>
    <path d="M 1343.5 907.0 L 1340.0 909.5 L 1336.0 909.5 L 1332.0 905.5 L 1327.0 908.5 L 1322.0 908.5 L 1318.0 905.5 L 1316.0 908.5 L 1309.0 908.5 L 1306.5 905.0 L 1310.5 903.0 L 1310.5 896.0 L 1308.0 895.5 L 1307.5 893.0 L 1310.0 890.5 L 1314.5 892.0 L 1313.5 903.0 L 1318.0 904.5 L 1318.5 895.0 L 1321.0 891.5 L 1327.0 890.5 L 1332.0 896.5 L 1335.0 891.5 L 1339.0 890.5 L 1343.5 894.0"/>
    <path d="M 1983.5 1091.0 L 1988.5 906.0 L 1987.0 904.5 L 1848.5 900.0 L 1849.0 904.5 L 1914.0 906.5 L 1928.5 909.0 L 1926.5 994.0 L 1925.0 995.5 L 1906.0 995.5 L 1818.0 990.5 L 1818.5 926.0 L 1817.0 924.5 L 1812.5 926.0 L 1811.5 981.0 L 1809.0 990.5 L 1690.0 985.5 L 1688.5 975.0 L 1692.0 898.5 L 1782.0 901.5 L 1782.5 898.0 L 1781.0 896.5 L 1614.5 891.0 L 1616.0 895.5 L 1624.5 897.0 L 1619.5 1071.0 L 1610.0 1072.5 L 1610.0 1077.5 L 1972.0 1092.5 L 1982.0 1092.5 Z"/>
    <path d="M 299.5 898.0 L 297.0 900.5 L 293.0 900.5 L 290.5 895.0 L 297.0 892.5"/>
    <path d="M 594.5 901.0 L 594.0 893.5 L 589.0 896.5 L 583.5 895.0 L 584.0 899.5 L 589.0 898.5"/>
    <path d="M 1034.0 1209.5 L 1035.5 1205.0 L 1046.5 922.0 L 1045.0 920.5 L 989.0 918.5 L 989.5 895.0 L 988.0 893.5 L 981.0 895.5 L 974.5 902.0 L 970.0 917.5 L 850.0 913.5 L 848.5 915.0 L 836.5 1202.0 L 842.0 1203.5"/>
    <path d="M 1300.0 903.5 L 1301.5 896.0 L 1298.0 893.5 L 1296.5 903.0 Z"/>
    <path d="M 1615.0 1069.5 L 1616.5 1068.0 L 1621.5 900.0 L 1615.0 898.5 L 1613.5 912.0 L 1608.0 913.5 L 1599.0 909.5 L 1591.0 897.5 L 1506.0 893.5 L 1504.5 900.0 L 1500.5 1064.0 L 1583.0 1068.5 L 1584.5 1067.0 L 1584.5 1052.0 L 1588.0 1050.5 L 1598.0 1053.5 L 1605.5 1061.0 L 1609.0 1069.5"/>
    <path d="M 1326.0 904.5 L 1327.5 896.0 L 1324.0 894.5 L 1322.5 904.0 Z"/>
    <path d="M 2170.0 927.5 L 2171.5 925.0 L 2171.5 895.0 L 2163.0 894.5 L 2161.5 896.0 L 2160.5 926.0"/>
    <path d="M 2184.0 927.5 L 2185.5 896.0 L 2176.0 894.5 L 2174.5 896.0 L 2174.5 927.0"/>
    <path d="M 373.5 897.0 L 371.0 908.5 L 368.5 907.0 L 368.0 903.5 L 359.0 903.5 L 357.0 907.5 L 352.5 902.0 L 354.0 898.5 L 369.0 898.5 L 370.0 895.5 Z"/>
    <path d="M 1682.0 985.5 L 1641.0 984.5 L 1627.5 982.0 L 1629.5 900.0 L 1632.0 895.5 L 1685.0 897.5 L 1686.5 899.0 L 1684.5 974.0"/>
    <path d="M 2197.0 928.5 L 2198.5 927.0 L 2199.5 896.0 L 2190.0 895.5 L 2188.5 897.0 L 2187.5 927.0"/>
    <path d="M 2212.0 928.5 L 2213.5 897.0 L 2204.0 895.5 L 2202.5 897.0 L 2201.5 928.0"/>
    <path d="M 405.0 906.5 L 407.5 904.0 L 406.0 896.5 L 403.5 897.0 L 404.5 902.0 L 402.5 903.0"/>
    <path d="M 2225.0 929.5 L 2226.5 928.0 L 2226.5 897.0 L 2217.0 896.5 L 2215.5 928.0"/>
    <path d="M 2239.0 929.5 L 2240.5 898.0 L 2232.0 896.5 L 2230.5 898.0 L 2229.5 929.0"/>
    <path d="M 1679.0 982.5 L 1680.5 981.0 L 1682.5 902.0 L 1678.0 900.5 L 1634.0 899.5 L 1631.5 979.0 L 1633.0 980.5"/>
    <path d="M 589.0 911.5 L 587.5 906.0 L 589.5 903.0 L 586.0 902.5 L 584.5 910.0"/>
    <path d="M 296.0 914.5 L 289.5 911.0 L 294.0 905.5 L 298.5 909.0"/>
    <path d="M 1980.0 997.5 L 1934.0 996.5 L 1932.5 995.0 L 1933.5 918.0 L 1936.0 907.5 L 1982.5 910.0"/>
    <path d="M 1426.0 1224.5 L 1435.5 936.0 L 1431.0 934.5 L 1390.0 933.5 L 1386.5 917.0 L 1376.0 908.5 L 1372.5 909.0 L 1371.5 931.0 L 1370.0 932.5 L 1232.0 927.5 L 1230.5 929.0 L 1220.5 1215.0 L 1231.0 1217.5"/>
    <path d="M 371.5 921.0 L 368.0 923.5 L 359.0 924.5 L 352.5 921.0 L 351.5 916.0 L 357.0 909.5 L 366.0 909.5 L 372.5 915.0"/>
    <path d="M 1663.5 924.0 L 1659.0 924.5 L 1652.0 916.5 L 1649.0 915.5 L 1647.5 920.0 L 1649.5 923.0 L 1646.0 924.5 L 1642.5 919.0 L 1643.5 914.0 L 1647.0 911.5 L 1651.0 911.5 L 1659.0 918.5 L 1660.5 913.0 L 1663.0 911.5"/>
    <path d="M 1976.0 994.5 L 1977.5 993.0 L 1979.5 914.0 L 1977.0 912.5 L 1939.0 911.5 L 1937.5 913.0 L 1935.5 992.0"/>
    <path d="M 637.5 924.0 L 635.0 925.5 L 633.0 920.5 L 623.0 920.5 L 623.5 923.0 L 620.0 924.5 L 616.5 918.0 L 619.0 915.5 L 633.0 916.5 L 634.5 913.0 L 637.0 912.5"/>
    <path d="M 368.5 916.0 L 364.0 913.5 L 359.0 913.5 L 355.5 916.0 L 358.0 919.5 L 367.0 919.5 Z"/>
    <path d="M 482.0 921.5 L 482.5 917.0 L 480.0 916.5 L 478.5 919.0"/>
    <path d="M 296.0 928.5 L 292.0 928.5 L 289.5 926.0 L 292.0 920.5 L 296.0 920.5 L 298.5 923.0"/>
    <path d="M 1965.5 932.0 L 1961.0 937.5 L 1951.0 937.5 L 1944.5 933.0 L 1944.5 927.0 L 1949.0 924.5 L 1948.5 932.0 L 1951.0 932.5 L 1953.0 925.5 L 1961.0 924.5 L 1965.5 929.0 Z"/>
    <path d="M 635.5 938.0 L 628.0 941.5 L 620.0 940.5 L 616.5 937.0 L 615.5 932.0 L 621.0 926.5 L 631.0 926.5 L 636.5 931.0"/>
    <path d="M 1662.0 952.5 L 1660.0 952.5 L 1657.0 947.5 L 1649.0 947.5 L 1648.0 951.5 L 1643.5 949.0 L 1643.0 943.5 L 1659.0 943.5 L 1660.5 940.0 L 1658.0 934.5 L 1649.0 934.5 L 1648.5 938.0 L 1646.0 938.5 L 1642.5 934.0 L 1644.0 930.5 L 1659.0 930.5 L 1661.0 926.5 L 1663.5 928.0"/>
    <path d="M 1961.5 932.0 L 1959.0 928.5 L 1954.5 931.0 L 1956.0 933.5"/>
    <path d="M 482.0 935.5 L 482.5 931.0 L 480.0 930.5 L 478.5 934.0 Z"/>
    <path d="M 632.5 933.0 L 628.0 930.5 L 623.0 930.5 L 619.5 933.0 L 622.0 936.5 L 631.0 936.5 Z"/>
    <path d="M 511.0 936.5 L 514.5 935.0 L 513.0 931.5"/>
    <path d="M 295.0 941.5 L 289.5 940.0 L 289.5 936.0 L 293.0 933.5 L 297.5 936.0"/>
    <path d="M 1701.0 943.5 L 1703.5 940.0 L 1703.5 936.0 L 1699.0 933.5 L 1698.5 942.0 Z"/>
    <path d="M 2267.0 1146.5 L 2141.0 1142.5 L 2117.5 1140.0 L 2119.5 1041.0 L 2123.5 937.0 L 2125.0 934.5 L 2264.0 938.5 L 2275.5 941.0 L 2268.5 1145.0 Z"/>
    <path d="M 704.0 955.5 L 699.0 954.5 L 696.5 949.0 L 697.5 941.0 L 701.0 937.5 L 707.0 937.5 L 710.5 942.0 L 709.5 952.0"/>
    <path d="M 748.5 954.0 L 744.0 956.5 L 739.0 955.5 L 737.0 952.5 L 733.0 955.5 L 726.0 955.5 L 724.0 953.5 L 722.0 955.5 L 712.0 955.5 L 710.5 954.0 L 714.5 951.0 L 714.5 944.0 L 712.5 940.0 L 716.0 937.5 L 719.5 939.0 L 720.0 952.5 L 723.0 952.5 L 725.0 949.5 L 730.0 952.5 L 731.5 950.0 L 728.0 948.5 L 727.5 946.0 L 730.5 942.0 L 725.0 943.5 L 723.5 942.0 L 726.0 938.5 L 731.0 937.5 L 736.0 941.5 L 741.0 938.5 L 746.0 938.5 L 749.5 942.0"/>
    <path d="M 2265.0 1142.5 L 2272.5 944.0 L 2271.0 942.5 L 2128.0 937.5 L 2120.5 1136.0 L 2131.0 1138.5"/>
    <path d="M 1963.0 965.5 L 1961.0 965.5 L 1957.0 960.5 L 1950.0 960.5 L 1949.0 964.5 L 1945.5 963.0 L 1943.5 959.0 L 1945.0 956.5 L 1959.0 957.5 L 1960.5 949.0 L 1951.0 947.5 L 1948.0 951.5 L 1944.5 948.0 L 1945.0 944.5 L 1960.0 944.5 L 1962.0 939.5 L 1964.5 941.0 L 1964.5 962.0 Z"/>
    <path d="M 704.0 951.5 L 705.5 950.0 L 705.0 941.5 L 701.5 943.0 L 701.5 950.0 Z"/>
    <path d="M 1920.0 951.5 L 1920.5 948.0 L 1918.5 946.0 L 1920.5 942.0 L 1918.0 941.5 L 1915.5 944.0 L 1915.5 949.0 L 1917.0 951.5 Z"/>
    <path d="M 489.5 1031.0 L 479.0 1032.5 L 340.0 1027.5 L 338.5 1018.0 L 341.5 945.0 L 346.0 942.5 L 492.0 948.5 L 493.5 950.0"/>
    <path d="M 744.0 952.5 L 745.5 944.0 L 742.0 942.5 L 740.5 951.0 Z"/>
    <path d="M 1692.5 950.0 L 1694.0 951.5 L 1697.0 949.5 L 1704.0 950.5 L 1704.5 946.0 L 1699.0 946.5 L 1694.0 943.5"/>
    <path d="M 486.5 1028.0 L 489.5 978.0 L 489.0 951.5 L 345.5 947.0 L 342.5 1023.0 L 344.0 1024.5"/>
    <path d="M 116.0 970.5 L 110.0 969.5 L 106.5 964.0 L 107.5 951.0 L 112.0 947.5 L 119.0 948.5 L 122.5 954.0 L 121.5 965.0"/>
    <path d="M 169.5 966.0 L 165.0 971.5 L 158.0 971.5 L 155.5 968.0 L 158.0 965.5 L 164.0 967.5 L 164.5 965.0 L 159.0 964.5 L 154.0 957.5 L 152.5 960.0 L 154.5 962.0 L 154.5 966.0 L 149.0 971.5 L 143.0 971.5 L 141.0 969.5 L 125.0 970.5 L 123.5 968.0 L 129.5 964.0 L 129.5 956.0 L 126.0 955.5 L 124.5 953.0 L 126.0 950.5 L 133.0 948.5 L 133.5 966.0 L 139.0 967.5 L 140.0 964.5 L 143.0 964.5 L 147.0 967.5 L 149.5 964.0 L 143.5 960.0 L 148.5 956.0 L 148.5 954.0 L 141.0 955.5 L 139.5 953.0 L 142.0 949.5 L 149.0 948.5 L 154.0 952.5 L 160.0 949.5 L 166.0 949.5 L 170.5 956.0"/>
    <path d="M 295.0 955.5 L 288.5 954.0 L 290.0 948.5 L 295.0 948.5 L 297.5 951.0"/>
    <path d="M 533.0 1033.5 L 510.0 1033.5 L 495.5 1031.0 L 497.5 962.0 L 500.0 948.5 L 525.0 948.5 L 538.5 951.0 L 535.5 1031.0 Z"/>
    <path d="M 591.0 1034.5 L 544.0 1034.5 L 541.5 1033.0 L 543.5 952.0 L 546.0 949.5 L 591.0 950.5 L 594.5 952.0"/>
    <path d="M 116.0 965.5 L 117.5 964.0 L 117.5 954.0 L 114.0 951.5 L 111.5 954.0 L 111.5 964.0"/>
    <path d="M 530.0 1030.5 L 532.5 1029.0 L 535.5 954.0 L 534.0 952.5 L 502.0 951.5 L 498.5 1028.0 L 500.0 1029.5"/>
    <path d="M 651.0 1037.5 L 597.5 1035.0 L 599.5 954.0 L 602.0 951.5 L 654.0 952.5 L 656.5 954.0 L 653.5 1035.0 Z"/>
    <path d="M 1701.0 962.5 L 1703.5 957.0 L 1702.5 954.0 L 1699.0 952.5 L 1697.5 955.0 L 1699.5 958.0 L 1697.5 959.0 L 1697.5 962.0 Z"/>
    <path d="M 1830.0 957.5 L 1833.5 955.0 L 1832.0 952.5 L 1829.5 955.0 Z"/>
    <path d="M 1924.5 959.0 L 1924.0 952.5 L 1921.0 954.5 L 1913.5 954.0 L 1914.0 958.5 L 1920.0 957.5"/>
    <path d="M 164.0 960.5 L 165.5 955.0 L 162.0 953.5 L 160.5 959.0 Z"/>
    <path d="M 588.0 1031.5 L 591.5 955.0 L 548.0 953.5 L 546.5 955.0 L 544.5 1030.0"/>
    <path d="M 1662.5 964.0 L 1657.0 968.5 L 1648.0 968.5 L 1642.5 965.0 L 1641.5 960.0 L 1646.0 954.5 L 1657.0 954.5 L 1662.5 959.0"/>
    <path d="M 649.0 1033.5 L 650.5 1032.0 L 650.5 1018.0 L 637.5 1016.0 L 637.5 1001.0 L 639.0 994.5 L 650.0 994.5 L 651.5 993.0 L 652.5 979.0 L 641.0 976.5 L 636.5 971.0 L 636.5 967.0 L 642.0 960.5 L 652.0 961.5 L 653.5 957.0 L 651.0 955.5 L 605.0 954.5 L 602.5 965.0 L 600.5 1032.0"/>
    <path d="M 1658.5 963.0 L 1658.5 960.0 L 1656.0 958.5 L 1646.5 960.0 L 1647.0 963.5 L 1654.0 964.5"/>
    <path d="M 1919.0 971.5 L 1920.5 968.0 L 1917.5 966.0 L 1920.5 962.0 L 1917.0 960.5 L 1914.5 967.0"/>
    <path d="M 296.5 967.0 L 294.0 969.5 L 290.0 969.5 L 287.5 965.0 L 289.0 962.5 L 293.0 961.5 L 295.5 963.0"/>
    <path d="M 522.0 1003.5 L 520.0 1003.5 L 518.0 999.5 L 511.0 998.5 L 508.0 1002.5 L 504.5 999.0 L 506.0 995.5 L 519.0 995.5 L 520.5 991.0 L 517.5 990.0 L 520.5 985.0 L 519.0 982.5 L 514.0 986.5 L 510.0 982.5 L 508.5 984.0 L 510.5 987.0 L 509.0 990.5 L 505.5 988.0 L 504.5 983.0 L 508.0 978.5 L 515.5 979.0 L 515.5 977.0 L 505.5 969.0 L 507.0 966.5 L 516.0 966.5 L 519.0 964.5 L 523.5 968.0 L 519.5 972.0 L 519.5 978.0 L 523.5 982.0 L 521.5 990.0 L 523.5 994.0"/>
    <path d="M 1799.0 969.5 L 1799.5 965.0 L 1798.0 964.5 L 1795.5 968.0 Z"/>
    <path d="M 1540.0 986.5 L 1534.0 985.5 L 1530.5 979.0 L 1531.5 970.0 L 1536.0 965.5 L 1543.0 966.5 L 1545.5 970.0 L 1545.5 982.0"/>
    <path d="M 574.5 976.0 L 572.0 978.5 L 564.0 970.5 L 561.0 970.5 L 561.5 977.0 L 559.0 977.5 L 556.5 975.0 L 556.5 969.0 L 559.0 966.5 L 564.0 966.5 L 571.0 972.5 L 571.5 968.0 L 574.0 966.5 L 575.5 968.0"/>
    <path d="M 1573.5 986.0 L 1572.0 987.5 L 1548.0 986.5 L 1547.5 984.0 L 1551.5 982.0 L 1551.5 973.0 L 1548.5 972.0 L 1548.5 969.0 L 1554.0 966.5 L 1556.5 969.0 L 1555.5 982.0 L 1564.0 983.5 L 1564.5 974.0 L 1561.5 970.0 L 1565.0 967.5 L 1569.0 967.5 L 1569.5 983.0"/>
    <path d="M 1583.0 988.5 L 1578.0 987.5 L 1574.5 983.0 L 1574.5 973.0 L 1579.0 967.5 L 1586.0 968.5 L 1589.5 974.0 L 1588.5 985.0"/>
    <path d="M 1964.5 976.0 L 1960.0 981.5 L 1952.0 982.5 L 1943.5 978.0 L 1943.5 971.0 L 1948.0 967.5 L 1958.0 967.5 L 1963.5 971.0"/>
    <path d="M 1537.0 982.5 L 1541.5 979.0 L 1541.5 972.0 L 1539.0 969.5 L 1535.5 972.0"/>
    <path d="M 393.0 994.5 L 388.0 994.5 L 383.5 990.0 L 383.5 977.0 L 389.0 971.5 L 395.0 972.5 L 399.5 982.0 L 396.5 992.0"/>
    <path d="M 1582.0 984.5 L 1584.5 982.0 L 1584.5 973.0 L 1583.0 971.5 L 1579.5 973.0 L 1578.5 977.0 L 1579.5 983.0 Z"/>
    <path d="M 1959.5 976.0 L 1959.5 973.0 L 1957.0 971.5 L 1947.5 973.0 L 1947.5 976.0 L 1950.0 977.5"/>
    <path d="M 414.0 994.5 L 400.5 994.0 L 402.0 990.5 L 405.5 990.0 L 406.5 980.0 L 401.5 977.0 L 406.0 972.5 L 410.5 973.0 L 410.5 990.0 L 414.5 992.0 Z"/>
    <path d="M 447.5 993.0 L 444.0 995.5 L 437.0 995.5 L 432.0 990.5 L 426.0 995.5 L 419.0 994.5 L 416.5 992.0 L 418.0 987.5 L 423.0 991.5 L 426.5 990.0 L 426.5 987.0 L 421.5 985.0 L 426.5 978.0 L 422.0 977.5 L 419.0 979.5 L 417.5 975.0 L 422.0 972.5 L 430.0 974.5 L 431.5 981.0 L 429.5 984.0 L 433.0 986.5 L 434.5 985.0 L 434.5 976.0 L 438.0 973.5 L 445.0 973.5 L 448.5 978.0 L 446.5 983.0 L 448.5 987.0"/>
    <path d="M 295.5 981.0 L 290.0 983.5 L 287.5 981.0 L 287.5 977.0 L 294.0 975.5"/>
    <path d="M 391.0 990.5 L 394.5 986.0 L 394.5 979.0 L 392.0 975.5 L 387.5 978.0 L 387.5 988.0"/>
    <path d="M 443.5 980.0 L 442.0 977.5 L 438.5 978.0 L 439.0 981.5"/>
    <path d="M 574.5 987.0 L 570.0 992.5 L 568.5 991.0 L 570.0 983.5 L 568.0 983.5 L 566.0 987.5 L 560.0 984.5 L 561.5 990.0 L 559.0 991.5 L 555.5 988.0 L 555.5 983.0 L 560.0 979.5 L 570.0 979.5 L 573.5 982.0"/>
    <path d="M 1799.0 984.5 L 1799.5 980.0 L 1797.0 979.5 L 1795.5 982.0"/>
    <path d="M 443.5 990.0 L 443.0 986.5 L 437.5 988.0 L 439.0 991.5"/>
    <path d="M 293.0 997.5 L 289.0 997.5 L 286.5 995.0 L 289.0 989.5 L 294.5 991.0 L 295.5 994.0"/>
    <path d="M 1680.0 1075.5 L 1638.0 1074.5 L 1625.5 1072.0 L 1626.5 1003.0 L 1629.0 989.5 L 1680.0 990.5 L 1683.5 993.0 L 1681.5 1073.0 Z"/>
    <path d="M 1747.0 1077.5 L 1690.0 1076.5 L 1686.5 1074.0 L 1687.5 1004.0 L 1690.0 991.5 L 1734.0 992.5 L 1749.5 995.0"/>
    <path d="M 1676.0 1072.5 L 1678.5 1057.0 L 1679.5 995.0 L 1632.0 992.5 L 1632.0 995.5 L 1644.5 997.0 L 1644.5 1017.0 L 1629.5 1020.0 L 1629.5 1035.0 L 1631.0 1036.5 L 1642.0 1036.5 L 1645.5 1040.0 L 1646.5 1046.0 L 1642.0 1052.5 L 1629.5 1053.0 L 1629.5 1069.0"/>
    <path d="M 573.5 1003.0 L 571.0 1003.5 L 569.0 1000.5 L 561.0 1000.5 L 559.0 1003.5 L 556.5 1002.0 L 555.5 997.0 L 570.0 996.5 L 573.0 993.5"/>
    <path d="M 1743.0 1074.5 L 1744.5 1073.0 L 1746.5 998.0 L 1745.0 996.5 L 1693.0 994.5 L 1691.5 996.0 L 1689.5 1071.0 L 1691.0 1072.5"/>
    <path d="M 1806.0 1080.5 L 1755.0 1078.5 L 1752.5 1076.0 L 1754.5 998.0 L 1757.0 994.5 L 1780.0 994.5 L 1809.0 996.5 L 1810.5 998.0 L 1808.5 1078.0 Z"/>
    <path d="M 1804.0 1076.5 L 1805.5 1071.0 L 1806.5 1000.0 L 1760.0 997.5 L 1758.5 999.0 L 1756.5 1074.0 L 1758.0 1075.5"/>
    <path d="M 1978.5 1085.0 L 1976.0 1087.5 L 1815.0 1080.5 L 1816.5 998.0 L 1846.0 997.5 L 1978.0 1003.5 L 1980.5 1006.0"/>
    <path d="M 1974.5 1082.0 L 1976.5 1008.0 L 1975.0 1006.5 L 1819.5 1001.0 L 1817.5 1068.0 L 1819.0 1077.5 L 1965.0 1083.5"/>
    <path d="M 646.0 1010.5 L 647.5 1008.0 L 644.5 1005.0 L 647.5 1002.0 L 644.0 1001.5 L 642.5 1007.0"/>
    <path d="M 1638.0 1011.5 L 1640.5 1006.0 L 1636.0 1002.5 L 1637.5 1008.0 L 1635.5 1011.0 Z"/>
    <path d="M 293.0 1010.5 L 289.0 1011.5 L 286.5 1009.0 L 288.0 1003.5 L 293.5 1004.0 L 294.5 1008.0 Z"/>
    <path d="M 1724.5 1013.0 L 1722.0 1016.5 L 1711.0 1017.5 L 1704.5 1013.0 L 1703.5 1008.0 L 1708.0 1004.5 L 1709.5 1006.0 L 1708.5 1012.0 L 1710.0 1012.5 L 1710.5 1008.0 L 1718.0 1003.5 L 1723.5 1006.0"/>
    <path d="M 522.5 1014.0 L 518.0 1017.5 L 508.0 1017.5 L 503.5 1011.0 L 507.0 1005.5 L 516.0 1004.5 L 522.5 1009.0"/>
    <path d="M 573.5 1014.0 L 569.0 1018.5 L 559.0 1018.5 L 555.5 1016.0 L 554.5 1010.0 L 558.0 1006.5 L 566.0 1005.5 L 572.5 1009.0"/>
    <path d="M 1789.5 1012.0 L 1785.5 1014.0 L 1785.5 1019.0 L 1782.0 1021.5 L 1770.0 1013.5 L 1768.5 1009.0 L 1781.0 1008.5 L 1784.0 1006.5 L 1789.0 1009.5 Z"/>
    <path d="M 1720.5 1012.0 L 1719.0 1007.5 L 1714.5 1009.0 L 1716.0 1013.5"/>
    <path d="M 518.5 1013.0 L 518.5 1010.0 L 516.0 1008.5 L 507.5 1010.0 L 509.0 1013.5"/>
    <path d="M 569.5 1013.0 L 567.0 1009.5 L 558.5 1011.0 L 560.0 1014.5"/>
    <path d="M 290.0 1025.5 L 285.5 1024.0 L 285.5 1020.0 L 288.0 1017.5 L 292.0 1017.5 L 294.5 1020.0 L 294.5 1022.0"/>
    <path d="M 1723.5 1032.0 L 1718.0 1031.5 L 1711.0 1023.5 L 1709.0 1023.5 L 1707.5 1027.0 L 1709.5 1031.0 L 1707.0 1032.5 L 1703.5 1029.0 L 1704.5 1021.0 L 1712.0 1019.5 L 1720.0 1026.5 L 1720.5 1020.0 L 1723.0 1019.5 L 1724.5 1021.0"/>
    <path d="M 1788.0 1050.5 L 1786.0 1050.5 L 1783.0 1045.5 L 1775.0 1045.5 L 1773.0 1048.5 L 1768.5 1046.0 L 1767.5 1043.0 L 1769.0 1041.5 L 1784.0 1041.5 L 1786.5 1037.0 L 1776.0 1026.5 L 1772.5 1027.0 L 1774.5 1034.0 L 1772.0 1035.5 L 1767.5 1029.0 L 1771.0 1022.5 L 1776.0 1022.5 L 1783.0 1028.5 L 1785.5 1028.0 L 1787.0 1022.5 L 1789.5 1024.0 L 1789.5 1034.0 L 1787.5 1036.0"/>
    <path d="M 2173.0 1047.5 L 2165.5 1043.0 L 2164.5 1037.0 L 2165.5 1029.0 L 2171.0 1023.5 L 2177.0 1024.5 L 2181.5 1031.0 L 2179.5 1044.0"/>
    <path d="M 1876.0 1047.5 L 1869.0 1047.5 L 1864.5 1041.0 L 1865.5 1029.0 L 1872.0 1024.5 L 1876.0 1025.5 L 1880.5 1032.0 L 1880.5 1040.0"/>
    <path d="M 2211.5 1047.0 L 2207.0 1048.5 L 2183.0 1046.5 L 2182.5 1044.0 L 2187.5 1040.0 L 2187.5 1033.0 L 2184.0 1031.5 L 2183.5 1029.0 L 2191.0 1024.5 L 2192.5 1026.0 L 2192.5 1042.0 L 2200.0 1043.5 L 2201.5 1042.0 L 2201.5 1032.0 L 2198.0 1031.5 L 2197.5 1029.0 L 2206.0 1025.5 L 2207.5 1027.0 L 2206.5 1042.0"/>
    <path d="M 1896.0 1048.5 L 1884.0 1048.5 L 1881.5 1046.0 L 1887.5 1042.0 L 1887.5 1033.0 L 1884.0 1032.5 L 1883.5 1030.0 L 1889.0 1025.5 L 1892.5 1028.0 L 1891.5 1043.0 L 1896.5 1046.0 Z"/>
    <path d="M 2220.0 1048.5 L 2215.5 1046.0 L 2221.5 1030.0 L 2214.0 1029.5 L 2214.0 1025.5 L 2226.0 1025.5 L 2228.5 1028.0"/>
    <path d="M 1930.5 1048.0 L 1928.0 1050.5 L 1899.0 1048.5 L 1899.5 1043.0 L 1908.5 1035.0 L 1908.0 1031.5 L 1900.0 1033.5 L 1899.5 1029.0 L 1903.0 1026.5 L 1911.5 1028.0 L 1912.5 1036.0 L 1905.5 1044.0 L 1914.0 1046.5 L 1925.5 1035.0 L 1923.0 1031.5 L 1917.0 1034.5 L 1915.5 1031.0 L 1923.0 1026.5 L 1928.0 1028.5 L 1929.5 1037.0 L 1921.5 1045.0 L 1928.0 1045.5 Z"/>
    <path d="M 2174.0 1042.5 L 2176.5 1037.0 L 2176.5 1031.0 L 2172.0 1028.5 L 2169.5 1032.0 L 2169.5 1040.0"/>
    <path d="M 1874.0 1043.5 L 1876.5 1039.0 L 1876.5 1034.0 L 1874.0 1029.5 L 1871.0 1029.5 L 1868.5 1039.0 L 1871.0 1043.5 Z"/>
    <path d="M 291.0 1038.5 L 287.0 1038.5 L 284.5 1036.0 L 287.0 1031.5 L 293.5 1033.0"/>
    <path d="M 1723.5 1046.0 L 1721.0 1047.5 L 1718.0 1042.5 L 1710.0 1042.5 L 1707.0 1046.5 L 1703.5 1042.0 L 1703.5 1039.0 L 1705.0 1037.5 L 1719.0 1038.5 L 1722.0 1034.5 L 1723.5 1036.0"/>
    <path d="M 291.0 1052.5 L 287.0 1052.5 L 284.5 1050.0 L 284.5 1048.0 L 289.0 1044.5 L 292.5 1047.0"/>
    <path d="M 922.0 1066.5 L 915.0 1066.5 L 912.5 1064.0 L 911.5 1053.0 L 916.0 1045.5 L 922.0 1045.5 L 926.5 1051.0 L 926.5 1060.0"/>
    <path d="M 954.5 1067.0 L 928.0 1066.5 L 927.5 1064.0 L 931.5 1062.0 L 932.5 1054.0 L 928.5 1051.0 L 933.0 1046.5 L 936.0 1046.5 L 937.5 1049.0 L 936.5 1063.0 L 942.0 1063.5 L 951.5 1054.0 L 950.0 1051.5 L 943.0 1053.5 L 943.5 1049.0 L 947.0 1046.5 L 952.0 1046.5 L 955.5 1050.0 L 955.5 1054.0 L 949.5 1063.0 L 954.0 1063.5 Z"/>
    <path d="M 966.0 1068.5 L 960.0 1068.5 L 957.5 1066.0 L 959.0 1062.5 L 963.0 1064.5 L 965.5 1063.0 L 957.5 1059.0 L 957.5 1051.0 L 963.0 1046.5 L 967.0 1047.5 L 971.5 1054.0 L 970.5 1063.0"/>
    <path d="M 1723.5 1059.0 L 1719.0 1063.5 L 1709.0 1063.5 L 1703.5 1060.0 L 1702.5 1053.0 L 1708.0 1048.5 L 1719.0 1049.5 L 1723.5 1054.0"/>
    <path d="M 920.0 1062.5 L 921.5 1061.0 L 921.5 1051.0 L 918.0 1050.5 L 916.5 1052.0 L 916.5 1061.0 Z"/>
    <path d="M 964.0 1057.5 L 966.5 1055.0 L 965.0 1051.5 L 961.5 1053.0 L 961.5 1056.0 Z"/>
    <path d="M 1788.5 1061.0 L 1783.0 1066.5 L 1774.0 1066.5 L 1767.5 1062.0 L 1767.5 1056.0 L 1773.0 1051.5 L 1784.0 1052.5 L 1788.5 1057.0"/>
    <path d="M 1719.5 1057.0 L 1717.0 1053.5 L 1708.0 1053.5 L 1706.5 1057.0 L 1711.0 1059.5"/>
    <path d="M 1784.5 1060.0 L 1784.0 1057.5 L 1778.0 1055.5 L 1771.5 1058.0 L 1775.0 1062.5 L 1781.0 1062.5"/>
    <path d="M 288.0 1066.5 L 284.5 1064.0 L 284.5 1061.0 L 288.0 1058.5 L 292.5 1062.0"/>
    <path d="M 1308.0 1080.5 L 1301.0 1080.5 L 1296.5 1075.0 L 1296.5 1066.0 L 1298.5 1061.0 L 1302.0 1058.5 L 1309.0 1059.5 L 1312.5 1064.0 L 1312.5 1075.0"/>
    <path d="M 1344.5 1081.0 L 1343.0 1082.5 L 1332.0 1082.5 L 1329.0 1080.5 L 1326.0 1082.5 L 1315.0 1081.5 L 1314.5 1078.0 L 1319.5 1076.0 L 1319.5 1067.0 L 1316.0 1066.5 L 1315.5 1063.0 L 1321.0 1058.5 L 1324.5 1061.0 L 1323.5 1076.0 L 1330.0 1078.5 L 1340.5 1068.0 L 1338.0 1063.5 L 1331.0 1066.5 L 1330.5 1063.0 L 1335.0 1059.5 L 1342.0 1060.5 L 1344.5 1064.0 L 1344.5 1068.0 L 1337.5 1078.0 L 1343.0 1078.5 Z"/>
    <path d="M 1353.0 1083.5 L 1349.5 1082.0 L 1349.5 1079.0 L 1355.5 1065.0 L 1348.0 1064.5 L 1346.5 1061.0 L 1349.0 1059.5 L 1361.5 1062.0"/>
    <path d="M 1306.0 1076.5 L 1308.5 1067.0 L 1304.0 1062.5 L 1301.5 1066.0 L 1301.5 1075.0"/>
    <path d="M 175.5 1121.0 L 173.0 1122.5 L 107.0 1120.5 L 105.5 1119.0 L 106.5 1074.0 L 109.0 1071.5 L 175.0 1073.5 L 177.5 1076.0"/>
    <path d="M 249.5 1123.0 L 248.0 1124.5 L 213.0 1124.5 L 182.0 1122.5 L 180.5 1120.0 L 182.5 1076.0 L 184.0 1074.5 L 214.0 1074.5 L 249.0 1076.5 L 251.5 1080.0"/>
    <path d="M 1099.5 1085.0 L 1099.0 1076.5 L 1062.0 1074.5 L 1052.5 1076.0 L 1054.0 1085.5 L 1098.0 1086.5 Z"/>
    <path d="M 172.5 1118.0 L 173.0 1077.5 L 110.5 1076.0 L 108.5 1109.0 L 110.0 1116.5"/>
    <path d="M 246.5 1120.0 L 247.5 1081.0 L 246.0 1079.5 L 186.5 1078.0 L 184.5 1118.0 L 186.0 1119.5 L 245.0 1121.5 Z"/>
    <path d="M 1213.5 1090.0 L 1212.0 1080.5 L 1168.0 1079.5 L 1166.5 1084.0 L 1168.0 1089.5 L 1209.0 1091.5"/>
    <path d="M 500.5 1311.0 L 501.5 1289.0 L 500.0 1287.5 L 489.0 1288.5 L 484.0 1285.5 L 483.5 1283.0 L 487.0 1281.5 L 488.0 1286.5 L 499.0 1286.5 L 500.5 1283.0 L 503.5 1282.0 L 506.0 1275.5 L 521.0 1271.5 L 528.5 1263.0 L 528.0 1258.5 L 506.0 1257.5 L 503.5 1260.0 L 502.5 1268.0 L 498.0 1269.5 L 496.5 1266.0 L 498.0 1263.5 L 501.5 1264.0 L 499.5 1260.0 L 504.5 1254.0 L 502.0 1251.5 L 497.0 1252.5 L 495.5 1255.0 L 498.5 1258.0 L 495.0 1260.5 L 493.5 1259.0 L 494.5 1253.0 L 490.5 1250.0 L 497.0 1246.5 L 498.5 1240.0 L 505.5 1235.0 L 505.5 1220.0 L 507.5 1216.0 L 507.5 1171.0 L 509.5 1150.0 L 506.5 1148.0 L 506.5 1145.0 L 509.5 1142.0 L 507.5 1137.0 L 504.5 1135.0 L 507.0 1134.5 L 509.5 1130.0 L 504.5 1129.0 L 507.5 1120.0 L 504.5 1119.0 L 508.5 1114.0 L 505.5 1113.0 L 506.5 1098.0 L 504.0 1090.5 L 494.0 1088.5 L 489.0 1091.5 L 486.0 1088.5 L 431.0 1087.5 L 428.5 1091.0 L 430.5 1095.0 L 426.0 1095.5 L 423.0 1092.5 L 420.0 1092.5 L 419.0 1094.5 L 414.5 1094.0 L 416.5 1092.0 L 416.0 1089.5 L 423.0 1089.5 L 425.0 1086.5 L 413.0 1086.5 L 413.5 1090.0 L 409.0 1093.5 L 394.0 1093.5 L 395.0 1097.5 L 404.5 1098.0 L 402.0 1100.5 L 394.0 1100.5 L 393.0 1097.5 L 387.5 1098.0 L 390.0 1092.5 L 386.0 1093.5 L 385.0 1091.5 L 382.0 1092.5 L 378.0 1090.5 L 376.0 1095.5 L 374.0 1090.5 L 370.0 1092.5 L 365.0 1090.5 L 362.0 1085.5 L 352.0 1083.5 L 301.0 1082.5 L 299.0 1084.5 L 268.0 1081.5 L 267.0 1084.5 L 261.5 1084.0 L 257.5 1156.0 L 258.5 1188.0 L 261.5 1189.0 L 261.5 1193.0 L 256.5 1195.0 L 256.5 1200.0 L 265.5 1201.0 L 262.5 1203.0 L 264.5 1206.0 L 264.5 1213.0 L 261.5 1217.0 L 267.0 1219.5 L 268.5 1224.0 L 263.0 1232.5 L 260.0 1232.5 L 259.5 1228.0 L 257.5 1227.0 L 263.0 1227.5 L 263.5 1224.0 L 256.5 1224.0 L 255.0 1248.5 L 265.0 1247.5 L 263.5 1253.0 L 266.5 1255.0 L 268.0 1259.5 L 277.0 1252.5 L 283.0 1252.5 L 288.0 1255.5 L 289.0 1258.5 L 295.0 1255.5 L 299.5 1267.0 L 299.0 1270.5 L 297.0 1267.5 L 295.5 1270.0 L 300.0 1272.5 L 302.0 1276.5 L 309.5 1275.0 L 309.0 1277.5 L 304.0 1277.5 L 302.0 1281.5 L 308.0 1281.5 L 310.0 1279.5 L 312.0 1281.5 L 413.0 1283.5 L 456.0 1286.5 L 461.0 1285.5 L 465.0 1280.5 L 469.0 1283.5 L 473.0 1282.5 L 474.0 1287.5 L 462.5 1287.0 L 462.5 1311.0 L 467.0 1311.5 L 476.5 1304.0 L 478.0 1284.5 L 483.0 1286.5 L 485.5 1290.0 L 485.5 1305.0 L 493.0 1311.5 L 499.0 1312.5 Z"/>
    <path d="M 123.0 1100.5 L 118.0 1100.5 L 115.5 1098.0 L 115.5 1091.0 L 119.0 1086.5 L 122.0 1086.5 L 125.5 1090.0 L 125.5 1097.0"/>
    <path d="M 392.5 1091.0 L 396.0 1090.5 L 397.0 1088.5 L 400.0 1089.5 L 400.5 1087.0 L 395.0 1086.5"/>
    <path d="M 166.5 1101.0 L 159.0 1099.5 L 157.0 1101.5 L 150.0 1102.5 L 145.0 1099.5 L 142.0 1101.5 L 128.0 1101.5 L 126.5 1099.0 L 129.5 1096.0 L 127.5 1089.0 L 131.0 1087.5 L 132.5 1097.0 L 136.0 1097.5 L 138.5 1096.0 L 138.5 1093.0 L 135.5 1091.0 L 138.0 1087.5 L 145.0 1089.5 L 152.0 1087.5 L 153.5 1090.0 L 151.5 1093.0 L 154.0 1094.5 L 162.0 1088.5"/>
    <path d="M 337.5 1091.0 L 335.0 1093.5 L 330.0 1093.5 L 328.0 1090.5 L 322.5 1089.0 L 330.0 1088.5 L 331.0 1090.5 L 335.0 1089.5 Z"/>
    <path d="M 601.5 1146.0 L 600.0 1142.5 L 588.0 1142.5 L 586.5 1137.0 L 590.5 1128.0 L 602.5 1120.0 L 603.5 1092.0 L 602.0 1090.5 L 526.0 1088.5 L 524.5 1090.0 L 523.0 1144.5"/>
    <path d="M 1099.5 1098.0 L 1098.0 1089.5 L 1053.0 1088.5 L 1051.5 1093.0 L 1053.0 1098.5 L 1098.0 1099.5 Z"/>
    <path d="M 235.5 1102.0 L 232.0 1104.5 L 228.0 1104.5 L 226.0 1102.5 L 222.0 1104.5 L 217.0 1102.5 L 210.0 1104.5 L 206.5 1102.0 L 210.5 1096.0 L 207.0 1094.5 L 205.5 1101.0 L 203.0 1103.5 L 199.0 1103.5 L 195.5 1099.0 L 195.5 1094.0 L 199.0 1089.5 L 203.0 1089.5 L 206.0 1092.5 L 212.0 1089.5 L 213.5 1091.0 L 213.5 1100.0 L 216.0 1101.5 L 218.0 1099.5 L 221.5 1100.0 L 219.5 1098.0 L 221.5 1094.0 L 216.5 1093.0 L 218.0 1090.5 L 223.0 1090.5 L 225.0 1092.5 L 228.0 1090.5 L 234.0 1090.5 L 234.5 1093.0 L 230.5 1095.0 L 235.5 1098.0"/>
    <path d="M 121.0 1097.5 L 122.5 1096.0 L 122.0 1090.5 L 119.5 1091.0 L 119.5 1097.0 Z"/>
    <path d="M 476.0 1101.5 L 471.0 1097.5 L 466.5 1099.0 L 465.5 1092.0 L 467.0 1090.5 L 468.5 1091.0 L 467.5 1095.0 L 469.0 1096.5 L 473.0 1091.5 L 475.5 1094.0 L 473.5 1098.0"/>
    <path d="M 807.0 1325.5 L 808.5 1302.0 L 811.0 1299.5 L 819.0 1300.5 L 820.5 1299.0 L 828.5 1099.0 L 617.0 1091.5 L 614.5 1123.0 L 613.0 1124.5 L 601.0 1124.5 L 593.5 1131.0 L 590.5 1137.0 L 591.0 1139.5 L 606.0 1139.5 L 613.5 1142.0 L 607.5 1291.0 L 618.0 1293.5 L 790.0 1298.5 L 791.5 1300.0 L 791.5 1310.0 L 794.5 1317.0 L 801.0 1323.5"/>
    <path d="M 1212.5 1104.0 L 1212.0 1094.5 L 1171.0 1092.5 L 1166.5 1094.0 L 1167.0 1102.5"/>
    <path d="M 202.0 1099.5 L 202.5 1094.0 L 201.0 1093.5 L 199.5 1097.0 Z"/>
    <path d="M 331.0 1111.5 L 326.5 1107.0 L 327.0 1100.5 L 331.5 1104.0 L 330.5 1106.0 L 334.5 1108.0"/>
    <path d="M 370.5 1105.0 L 373.0 1100.5 L 380.5 1102.0"/>
    <path d="M 1098.5 1112.0 L 1098.0 1103.5 L 1053.0 1101.5 L 1051.5 1103.0 L 1052.0 1111.5 L 1089.0 1113.5"/>
    <path d="M 343.5 1118.0 L 349.0 1111.5 L 354.0 1111.5 L 355.5 1108.0 L 358.5 1107.0 L 359.5 1113.0 L 352.0 1117.5 L 349.0 1116.5 L 346.0 1119.5 Z"/>
    <path d="M 1212.5 1117.0 L 1211.0 1107.5 L 1167.0 1106.5 L 1165.5 1112.0 L 1167.0 1116.5 L 1206.0 1118.5"/>
    <path d="M 393.5 1119.0 L 397.0 1118.5 L 399.0 1114.5 L 402.5 1114.0 L 401.0 1107.5 L 416.5 1114.0 L 411.0 1115.5 L 406.0 1113.5 L 398.0 1120.5"/>
    <path d="M 1098.5 1125.0 L 1097.0 1116.5 L 1053.0 1114.5 L 1050.5 1117.0 L 1051.0 1125.5 L 1097.0 1126.5 Z"/>
    <path d="M 1211.5 1131.0 L 1211.0 1121.5 L 1165.5 1121.0 L 1166.0 1130.5 L 1206.0 1132.5"/>
    <path d="M 1443.0 1349.5 L 1450.0 1347.5 L 1457.5 1340.0 L 1459.5 1327.0 L 1462.0 1324.5 L 1625.0 1332.5 L 1643.5 1332.0 L 1648.0 1131.5 L 1443.0 1122.5 L 1441.5 1124.0 L 1436.5 1323.0 L 1442.5 1326.0 L 1441.5 1348.0 Z"/>
    <path d="M 386.0 1130.5 L 382.5 1129.0 L 385.0 1123.5 L 388.5 1126.0"/>
    <path d="M 366.5 1131.0 L 360.0 1129.5 L 354.0 1131.5 L 353.5 1129.0 L 357.0 1126.5 L 365.0 1128.5 Z"/>
    <path d="M 1740.0 1277.5 L 1676.0 1275.5 L 1654.5 1273.0 L 1657.5 1130.0 L 1659.0 1128.5 L 1682.0 1127.5 L 1742.0 1130.5 L 1745.5 1133.0 L 1742.5 1273.0"/>
    <path d="M 234.0 1305.5 L 235.5 1282.0 L 241.5 1278.0 L 245.5 1134.0 L 240.0 1132.5 L 109.0 1128.5 L 107.5 1131.0 L 106.5 1196.0 L 102.5 1275.0 L 200.0 1277.5 L 217.0 1279.5 L 219.5 1295.0 L 226.0 1302.5"/>
    <path d="M 1097.5 1140.0 L 1097.0 1130.5 L 1056.0 1128.5 L 1050.5 1130.0 L 1052.0 1139.5"/>
    <path d="M 1738.0 1274.5 L 1742.5 1136.0 L 1740.0 1133.5 L 1690.0 1131.5 L 1662.0 1132.5 L 1660.5 1140.0 L 1657.5 1270.0"/>
    <path d="M 1211.5 1144.0 L 1211.0 1135.5 L 1167.0 1133.5 L 1164.5 1139.0 L 1164.5 1143.0 L 1167.0 1144.5 L 1210.0 1145.5 Z"/>
    <path d="M 2045.5 1373.0 L 2046.5 1352.0 L 2048.0 1349.5 L 2053.5 1348.0 L 2060.5 1175.0 L 2060.0 1147.5 L 1761.0 1134.5 L 1753.5 1136.0 L 1750.5 1285.0 L 1747.0 1287.5 L 1734.0 1287.5 L 1725.5 1297.0 L 1727.0 1302.5 L 1741.0 1302.5 L 1749.5 1305.0 L 1749.0 1337.5 L 2026.0 1347.5 L 2029.5 1351.0 L 2029.5 1361.0 L 2032.5 1367.0 L 2040.0 1373.5 L 2044.0 1374.5 Z"/>
    <path d="M 323.5 1139.0 L 321.0 1141.5 L 309.5 1140.0 L 316.0 1136.5"/>
    <path d="M 1097.5 1153.0 L 1096.0 1143.5 L 1051.0 1142.5 L 1049.5 1145.0 L 1051.0 1153.5 L 1096.0 1154.5 Z"/>
    <path d="M 382.5 1146.0 L 377.0 1148.5 L 375.0 1146.5 L 370.0 1148.5 L 367.5 1144.0 L 374.0 1143.5"/>
    <path d="M 2214.0 1358.5 L 2066.0 1353.5 L 2062.5 1351.0 L 2069.5 1148.0 L 2072.0 1144.5 L 2219.0 1149.5 L 2222.5 1152.0 L 2216.5 1356.0 Z"/>
    <path d="M 1211.5 1156.0 L 1211.5 1150.0 L 1209.0 1148.5 L 1164.5 1148.0 L 1165.0 1157.5 L 1210.0 1159.5 Z"/>
    <path d="M 2212.0 1354.5 L 2218.5 1154.0 L 2213.0 1152.5 L 2074.0 1148.5 L 2068.5 1310.0 L 2065.5 1348.0 L 2076.0 1350.5"/>
    <path d="M 594.0 1292.5 L 596.5 1277.0 L 600.5 1159.0 L 523.0 1155.5 L 521.5 1157.0 L 518.5 1255.0 L 531.0 1255.5 L 532.5 1261.0 L 529.5 1268.0 L 517.5 1277.0 L 516.5 1288.0 L 531.0 1290.5"/>
    <path d="M 1096.5 1167.0 L 1095.0 1157.5 L 1049.5 1157.0 L 1050.0 1166.5"/>
    <path d="M 320.0 1172.5 L 315.5 1170.0 L 319.0 1160.5 L 322.5 1162.0 L 318.5 1166.0 L 318.5 1170.0 L 321.0 1168.5 L 322.5 1170.0 Z"/>
    <path d="M 1210.5 1172.0 L 1210.0 1162.5 L 1164.5 1162.0 L 1165.0 1171.5"/>
    <path d="M 297.5 1175.0 L 287.0 1175.5 L 286.5 1174.0 L 291.0 1172.5 L 294.0 1167.5"/>
    <path d="M 358.0 1191.5 L 353.0 1191.5 L 347.5 1181.0 L 350.5 1172.0 L 354.0 1168.5 L 362.0 1169.5 L 365.5 1175.0 L 365.5 1184.0 L 363.5 1188.0"/>
    <path d="M 367.0 1192.5 L 365.5 1191.0 L 366.5 1188.0 L 371.5 1185.0 L 371.5 1177.0 L 369.0 1176.5 L 367.5 1173.0 L 376.0 1168.5 L 377.5 1171.0 L 376.5 1187.0 L 380.0 1187.5 L 381.5 1190.0 L 377.0 1192.5"/>
    <path d="M 414.5 1189.0 L 408.0 1193.5 L 403.0 1193.5 L 398.0 1188.5 L 393.0 1192.5 L 386.0 1192.5 L 382.5 1189.0 L 382.5 1186.0 L 385.0 1184.5 L 389.0 1188.5 L 392.5 1187.0 L 391.0 1183.5 L 386.5 1182.0 L 386.5 1180.0 L 392.0 1177.5 L 392.5 1175.0 L 389.0 1174.5 L 384.0 1177.5 L 382.5 1173.0 L 388.0 1169.5 L 395.0 1170.5 L 398.0 1174.5 L 403.0 1170.5 L 411.0 1170.5 L 414.5 1174.0 L 412.5 1180.0"/>
    <path d="M 1096.5 1178.0 L 1095.0 1171.5 L 1057.0 1169.5 L 1048.5 1171.0 L 1050.0 1180.5 L 1095.0 1181.5 Z"/>
    <path d="M 359.0 1186.5 L 359.5 1175.0 L 356.0 1173.5 L 354.5 1186.0"/>
    <path d="M 408.0 1188.5 L 409.5 1186.0 L 402.5 1181.0 L 409.5 1176.0 L 406.0 1174.5 L 402.0 1177.5 L 398.0 1176.5 L 396.5 1179.0 L 397.5 1185.0"/>
    <path d="M 1210.5 1184.0 L 1210.0 1176.5 L 1165.0 1174.5 L 1163.5 1176.0 L 1165.0 1185.5 L 1209.0 1186.5 Z"/>
    <path d="M 567.5 1197.0 L 563.0 1197.5 L 545.0 1189.5 L 543.5 1184.0 L 564.0 1175.5 L 568.0 1175.5 L 568.5 1179.0 L 561.5 1182.0 L 561.5 1191.0 L 566.0 1193.5 Z"/>
    <path d="M 312.0 1178.5 L 317.0 1178.5 L 318.0 1176.5 L 324.5 1177.0 L 319.0 1181.5 L 315.0 1180.5 L 313.0 1182.5"/>
    <path d="M 695.0 1202.5 L 688.0 1200.5 L 685.5 1195.0 L 685.5 1187.0 L 691.0 1179.5 L 699.0 1180.5 L 702.5 1189.0 L 699.5 1200.0"/>
    <path d="M 716.0 1202.5 L 704.0 1202.5 L 702.5 1201.0 L 708.5 1197.0 L 708.5 1187.0 L 705.0 1186.5 L 704.5 1184.0 L 709.0 1180.5 L 713.5 1182.0 L 712.5 1197.0 L 717.5 1200.0 Z"/>
    <path d="M 729.0 1203.5 L 722.0 1202.5 L 718.5 1199.0 L 720.0 1195.5 L 725.0 1198.5 L 729.5 1197.0 L 723.5 1192.0 L 725.0 1189.5 L 729.0 1188.5 L 729.5 1186.0 L 728.0 1184.5 L 722.0 1187.5 L 719.5 1186.0 L 724.0 1180.5 L 732.0 1181.5 L 734.5 1186.0 L 732.5 1191.0 L 734.5 1197.0"/>
    <path d="M 750.0 1203.5 L 736.5 1203.0 L 736.5 1200.0 L 740.5 1199.0 L 741.5 1188.0 L 738.0 1187.5 L 737.5 1185.0 L 742.0 1181.5 L 746.5 1183.0 L 745.5 1199.0 L 750.0 1199.5"/>
    <path d="M 556.5 1188.0 L 556.0 1183.5 L 550.5 1186.0 L 553.0 1188.5 Z"/>
    <path d="M 692.0 1197.5 L 696.5 1196.0 L 697.5 1188.0 L 695.0 1183.5 L 692.0 1184.5 L 690.5 1188.0"/>
    <path d="M 1676.0 1208.5 L 1670.0 1207.5 L 1666.5 1203.0 L 1666.5 1192.0 L 1672.0 1185.5 L 1679.0 1186.5 L 1682.5 1192.0 L 1681.5 1204.0"/>
    <path d="M 1696.0 1209.5 L 1683.5 1207.0 L 1689.5 1203.0 L 1689.5 1194.0 L 1686.0 1193.5 L 1684.5 1191.0 L 1690.0 1186.5 L 1693.0 1186.5 L 1694.5 1189.0 L 1694.5 1204.0 L 1698.5 1207.0 Z"/>
    <path d="M 1713.0 1210.5 L 1700.5 1208.0 L 1702.5 1202.0 L 1710.5 1195.0 L 1709.0 1191.5 L 1706.0 1191.5 L 1703.0 1194.5 L 1700.5 1193.0 L 1700.5 1191.0 L 1707.0 1186.5 L 1710.0 1186.5 L 1714.5 1191.0 L 1714.5 1197.0 L 1706.5 1204.0 L 1707.0 1205.5 L 1714.0 1206.5"/>
    <path d="M 153.0 1210.5 L 146.0 1209.5 L 142.5 1204.0 L 143.5 1192.0 L 149.0 1187.5 L 155.0 1188.5 L 158.5 1193.0 L 158.5 1204.0"/>
    <path d="M 1727.0 1210.5 L 1721.0 1210.5 L 1716.5 1206.0 L 1718.0 1202.5 L 1723.0 1206.5 L 1726.5 1205.0 L 1726.5 1202.0 L 1721.5 1199.0 L 1726.5 1195.0 L 1726.5 1193.0 L 1717.5 1194.0 L 1718.5 1189.0 L 1721.0 1187.5 L 1727.0 1187.5 L 1731.5 1192.0 L 1730.5 1200.0 L 1732.5 1205.0"/>
    <path d="M 189.5 1209.0 L 187.0 1211.5 L 179.0 1211.5 L 176.0 1208.5 L 174.0 1210.5 L 161.0 1210.5 L 160.5 1207.0 L 164.5 1206.0 L 165.5 1196.0 L 162.0 1195.5 L 160.5 1193.0 L 164.0 1189.5 L 169.0 1188.5 L 170.5 1191.0 L 169.5 1206.0 L 175.0 1207.5 L 177.0 1204.5 L 181.0 1206.5 L 186.5 1205.0 L 185.0 1202.5 L 180.5 1202.0 L 180.5 1199.0 L 186.5 1195.0 L 182.0 1193.5 L 177.0 1195.5 L 176.5 1192.0 L 183.0 1188.5 L 189.0 1190.5 L 190.5 1193.0"/>
    <path d="M 196.0 1211.5 L 195.5 1207.0 L 201.5 1194.0 L 194.0 1193.5 L 192.5 1191.0 L 194.0 1189.5 L 206.0 1189.5 L 207.5 1194.0 L 201.5 1203.0 L 200.5 1210.0"/>
    <path d="M 1676.0 1203.5 L 1677.5 1192.0 L 1676.0 1189.5 L 1673.0 1189.5 L 1671.5 1202.0"/>
    <path d="M 305.5 1195.0 L 307.0 1191.5 L 315.5 1192.0 L 314.0 1195.5 L 308.0 1196.5 Z"/>
    <path d="M 152.0 1205.5 L 154.5 1196.0 L 153.0 1192.5 L 149.0 1192.5 L 147.5 1204.0"/>
    <path d="M 567.5 1210.0 L 563.0 1215.5 L 560.0 1215.5 L 559.5 1212.0 L 562.5 1209.0 L 562.5 1205.0 L 559.0 1203.5 L 554.0 1210.5 L 551.5 1204.0 L 548.0 1203.5 L 546.5 1209.0 L 549.5 1213.0 L 546.0 1214.5 L 541.5 1207.0 L 545.0 1199.5 L 556.0 1200.5 L 558.0 1198.5 L 562.0 1198.5 L 567.5 1204.0"/>
    <path d="M 328.5 1205.0 L 320.0 1206.5 L 316.5 1202.0 L 319.0 1200.5 L 321.0 1202.5 L 327.0 1201.5 Z"/>
    <path d="M 486.5 1210.0 L 478.0 1212.5 L 466.5 1211.0 L 467.0 1208.5 L 472.0 1207.5 L 480.0 1210.5 L 484.0 1207.5 Z"/>
    <path d="M 1521.0 1232.5 L 1513.0 1231.5 L 1510.5 1227.0 L 1510.5 1216.0 L 1516.0 1209.5 L 1522.0 1210.5 L 1525.5 1216.0 L 1525.5 1227.0"/>
    <path d="M 1558.5 1233.0 L 1557.0 1234.5 L 1543.0 1232.5 L 1529.0 1233.5 L 1527.5 1230.0 L 1532.5 1228.0 L 1532.5 1218.0 L 1528.5 1215.0 L 1535.0 1210.5 L 1537.5 1212.0 L 1537.5 1229.0 L 1543.0 1231.5 L 1544.5 1228.0 L 1553.5 1220.0 L 1552.0 1215.5 L 1547.0 1218.5 L 1543.5 1216.0 L 1548.0 1211.5 L 1556.0 1212.5 L 1558.5 1220.0 L 1550.5 1229.0 L 1557.0 1230.5 Z"/>
    <path d="M 1570.0 1235.5 L 1565.0 1235.5 L 1560.5 1232.0 L 1562.0 1227.5 L 1566.0 1230.5 L 1570.5 1229.0 L 1569.0 1224.5 L 1560.5 1224.0 L 1562.0 1212.5 L 1574.0 1212.5 L 1575.5 1214.0 L 1574.0 1216.5 L 1565.5 1218.0 L 1575.5 1225.0 L 1575.5 1231.0"/>
    <path d="M 1519.0 1228.5 L 1521.5 1224.0 L 1521.5 1217.0 L 1520.0 1214.5 L 1517.0 1214.5 L 1514.5 1218.0 L 1514.5 1225.0"/>
    <path d="M 1142.5 1222.0 L 1142.5 1218.0 L 1140.0 1216.5 L 1118.0 1216.5 L 1116.5 1218.0 L 1118.0 1221.5"/>
    <path d="M 566.5 1229.0 L 560.0 1234.5 L 558.5 1231.0 L 561.5 1228.0 L 561.0 1222.5 L 558.0 1222.5 L 555.0 1228.5 L 551.5 1227.0 L 550.0 1222.5 L 547.0 1222.5 L 545.5 1227.0 L 548.5 1232.0 L 546.0 1233.5 L 541.5 1229.0 L 541.5 1222.0 L 546.0 1217.5 L 553.0 1219.5 L 556.0 1217.5 L 562.0 1217.5 L 566.5 1223.0"/>
    <path d="M 304.0 1226.5 L 302.5 1225.0 L 303.5 1223.0 L 300.5 1221.0 L 305.0 1218.5 L 309.5 1224.0 L 306.0 1223.5 Z"/>
    <path d="M 317.0 1231.5 L 316.5 1224.0 L 320.0 1221.5 L 319.5 1225.0 L 321.5 1227.0"/>
    <path d="M 429.0 1232.5 L 426.0 1232.5 L 425.0 1229.5 L 420.5 1230.0 L 424.5 1227.0 L 423.5 1224.0 L 427.0 1221.5 L 430.5 1223.0 L 427.5 1228.0"/>
    <path d="M 1880.0 1248.5 L 1874.0 1246.5 L 1871.5 1242.0 L 1871.5 1231.0 L 1876.0 1225.5 L 1882.0 1225.5 L 1887.5 1231.0 L 1886.5 1243.0"/>
    <path d="M 1919.5 1249.0 L 1917.0 1250.5 L 1890.0 1248.5 L 1888.5 1246.0 L 1894.5 1243.0 L 1894.5 1233.0 L 1891.0 1232.5 L 1890.5 1230.0 L 1896.0 1225.5 L 1899.5 1228.0 L 1898.5 1243.0 L 1904.0 1246.5 L 1915.5 1235.0 L 1913.0 1230.5 L 1907.0 1233.5 L 1905.5 1232.0 L 1906.5 1229.0 L 1911.0 1226.5 L 1917.0 1227.5 L 1919.5 1230.0 L 1919.5 1236.0 L 1912.5 1245.0 L 1918.0 1245.5 Z"/>
    <path d="M 383.5 1228.0 L 381.0 1228.5 L 379.0 1232.5 L 370.5 1230.0 L 371.0 1227.5 L 377.0 1226.5"/>
    <path d="M 467.0 1238.5 L 464.5 1236.0 L 466.0 1234.5 L 469.0 1235.5 L 475.0 1226.5 L 474.5 1236.0"/>
    <path d="M 1936.0 1250.5 L 1924.0 1250.5 L 1921.5 1248.0 L 1927.5 1245.0 L 1927.5 1235.0 L 1924.0 1234.5 L 1923.5 1231.0 L 1930.0 1226.5 L 1932.5 1229.0 L 1932.5 1245.0 L 1937.5 1248.0 Z"/>
    <path d="M 1881.0 1243.5 L 1882.5 1232.0 L 1881.0 1229.5 L 1878.0 1229.5 L 1875.5 1238.0 L 1876.5 1242.0"/>
    <path d="M 406.5 1239.0 L 411.0 1231.5 L 415.5 1233.0 L 411.5 1235.0 L 410.0 1239.5 Z"/>
    <path d="M 344.5 1239.0 L 346.0 1234.5 L 354.5 1235.0 L 352.0 1238.5"/>
    <path d="M 2121.0 1258.5 L 2115.0 1257.5 L 2111.5 1253.0 L 2111.5 1241.0 L 2116.0 1235.5 L 2122.0 1235.5 L 2127.5 1241.0 L 2126.5 1254.0"/>
    <path d="M 2157.5 1258.0 L 2148.0 1259.5 L 2130.0 1257.5 L 2129.5 1255.0 L 2133.5 1253.0 L 2133.5 1243.0 L 2129.5 1240.0 L 2136.0 1235.5 L 2138.0 1236.5 L 2139.5 1241.0 L 2138.5 1253.0 L 2147.0 1254.5 L 2148.5 1253.0 L 2148.5 1244.0 L 2145.0 1242.5 L 2144.5 1240.0 L 2151.0 1236.5 L 2153.5 1239.0 L 2152.5 1254.0"/>
    <path d="M 565.5 1250.0 L 562.0 1251.5 L 560.0 1245.5 L 548.0 1245.5 L 547.5 1250.0 L 545.0 1250.5 L 541.5 1247.0 L 541.5 1242.0 L 543.0 1240.5 L 560.0 1241.5 L 561.5 1238.0 L 565.0 1236.5"/>
    <path d="M 2168.0 1260.5 L 2162.0 1259.5 L 2159.5 1257.0 L 2160.0 1253.5 L 2167.0 1255.5 L 2167.5 1253.0 L 2163.0 1252.5 L 2158.5 1247.0 L 2159.5 1240.0 L 2166.0 1236.5 L 2172.0 1238.5 L 2174.5 1243.0 L 2174.5 1252.0 L 2171.5 1258.0"/>
    <path d="M 422.0 1247.5 L 419.5 1245.0 L 426.0 1239.5 L 426.5 1243.0 L 424.5 1247.0 Z"/>
    <path d="M 2118.0 1253.5 L 2122.5 1251.0 L 2122.5 1242.0 L 2120.0 1239.5 L 2116.5 1242.0 L 2115.5 1247.0"/>
    <path d="M 2168.0 1248.5 L 2169.5 1243.0 L 2165.0 1241.5 L 2163.5 1245.0"/>
    <path d="M 469.5 1247.0 L 472.0 1244.5 L 475.0 1245.5 L 481.0 1243.5 L 483.5 1245.0 L 475.0 1248.5"/>
    <path d="M 564.5 1267.0 L 558.0 1271.5 L 547.0 1271.5 L 540.5 1267.0 L 540.5 1259.0 L 543.0 1255.5 L 548.0 1253.5 L 559.0 1254.5 L 564.5 1259.0"/>
    <path d="M 389.5 1265.0 L 383.0 1265.5 L 382.0 1262.5 L 379.0 1262.5 L 375.5 1259.0 L 380.0 1254.5 L 382.5 1261.0 L 389.0 1261.5 Z"/>
    <path d="M 456.5 1263.0 L 455.0 1264.5 L 448.5 1264.0 L 450.0 1259.5 L 454.5 1260.0 L 454.0 1257.5 L 456.5 1258.0"/>
    <path d="M 323.5 1265.0 L 316.0 1267.5 L 313.5 1265.0 L 317.5 1262.0 L 313.5 1260.0 L 315.0 1258.5 L 321.0 1259.5"/>
    <path d="M 560.5 1264.0 L 560.5 1262.0 L 555.0 1258.5 L 544.5 1260.0 L 544.5 1265.0 L 549.0 1267.5 L 555.0 1267.5"/>
    <path d="M 323.5 1270.0 L 326.0 1265.5 L 333.5 1264.0 L 333.0 1266.5 L 327.5 1267.0 L 328.0 1270.5"/>
    <path d="M 315.0 1274.5 L 309.5 1270.0 L 311.0 1267.5 L 316.5 1270.0"/>
    <path d="M 210.0 1288.5 L 214.5 1287.0 L 214.0 1282.5 L 208.5 1284.0"/>
    <path d="M 1736.5 1336.0 L 1737.5 1307.0 L 1736.0 1305.5 L 1723.0 1305.5 L 1720.5 1303.0 L 1721.5 1297.0 L 1729.0 1285.5 L 1657.5 1283.0 L 1655.5 1325.0 L 1657.0 1333.5"/>
    <path d="M 461.0 1353.5 L 459.5 1352.0 L 461.0 1346.5 L 474.5 1345.0 L 476.5 1328.0 L 482.0 1326.5 L 484.5 1330.0 L 483.5 1345.0 L 481.5 1349.0 L 473.0 1354.5"/>
    <path d="M 278.5 1346.0 L 269.0 1348.5 L 265.0 1351.5 L 246.0 1344.5 L 244.5 1341.0 L 267.0 1336.5 L 270.0 1340.5 L 278.0 1340.5"/>
    <path d="M 311.5 1348.0 L 292.0 1348.5 L 290.5 1344.0 L 293.0 1340.5 L 311.0 1341.5"/>
    <path d="M 346.5 1348.0 L 345.0 1349.5 L 325.0 1349.5 L 324.5 1343.0 L 326.0 1341.5 L 345.0 1342.5"/>
    <path d="M 380.5 1349.0 L 379.0 1350.5 L 360.0 1350.5 L 358.5 1344.0 L 360.0 1342.5 L 379.0 1342.5"/>
    <path d="M 414.5 1350.0 L 413.0 1351.5 L 393.0 1351.5 L 391.5 1349.0 L 393.0 1343.5 L 413.0 1344.5"/>
    <path d="M 448.5 1351.0 L 446.0 1353.5 L 427.0 1352.5 L 426.5 1346.0 L 428.0 1344.5 L 447.0 1345.5"/>
  </g>
</svg>
