<?xml version="1.0" encoding="UTF-8"?>
<svg xmlns="http://www.w3.org/2000/svg" width="2376" height="1482" viewBox="0 0 2376 1482">
  <rect width="100%" height="100%" fill="#ffffff"/>
  <g id="editable-stroke-linework" fill="none" stroke="#111827" stroke-width="2.2" stroke-linecap="round" stroke-linejoin="round">
    <path d="M 2375.0 159.5 L 2357.0 152.5 L 2328.0 135.5 L 2310.0 128.5 L 2295.0 125.5 L 2270.0 127.5 L 2224.0 148.5 L 2203.0 153.5 L 2194.0 153.5 L 2183.0 151.5 L 2168.0 144.5 L 2156.0 134.5 L 2145.0 128.5 L 2114.0 118.5 L 2084.0 112.5 L 2025.0 105.5 L 1980.0 103.5 L 1963.0 104.5 L 1961.5 103.0 L 2029.0 71.5 L 2057.0 60.5 L 2075.0 39.5 L 2097.0 44.5 L 2111.0 25.5 L 2120.0 26.5 L 2134.0 32.5 L 2151.0 11.5 L 2162.0 13.5 L 2174.0 20.5 L 2177.0 20.5 L 2192.0 1.5 L 2213.0 13.5 L 2220.0 13.5 L 2229.0 9.5 L 2238.5 0.0"/>
    <path d="M 2285.5 0.0 L 2288.0 5.5 L 2303.0 6.5 L 2314.5 16.0 L 2320.5 25.0 L 2330.5 48.0 L 2340.0 58.5 L 2356.0 66.5 L 2375.0 69.5"/>
    <path d="M 2291.5 37.0 L 2289.5 28.0 L 2281.5 14.0 L 2276.0 8.5 L 2264.0 3.5 L 2249.5 6.0 L 2253.5 8.0 L 2250.5 16.0 L 2250.5 27.0 L 2257.0 36.5 L 2263.0 39.5"/>
    <path d="M 2188.5 17.0 L 2195.0 14.5 L 2203.0 15.5 L 2204.5 13.0 L 2196.0 7.5 L 2193.0 7.5"/>
    <path d="M 2270.0 30.5 L 2268.5 26.0 L 2269.5 17.0 L 2273.0 12.5 L 2275.0 12.5 L 2280.5 23.0 L 2274.0 29.5"/>
    <path d="M 2165.5 23.0 L 2165.0 20.5 L 2156.0 16.5 L 2152.5 18.0 L 2153.0 21.5"/>
    <path d="M 2291.5 1447.0 L 2290.0 1448.5 L 1924.0 1447.5 L 1418.0 1442.5 L 1415.5 1440.0 L 1417.5 1341.0 L 1416.0 1339.5 L 1059.0 1336.5 L 870.0 1336.5 L 868.5 1438.0 L 867.0 1439.5 L 524.0 1438.5 L 80.0 1432.5 L 76.5 1429.0 L 81.5 1348.0 L 83.5 1210.0 L 82.0 1208.5 L 26.0 1208.5 L 23.5 1206.0 L 23.5 1128.0 L 27.5 1024.0 L 26.5 887.0 L 28.0 884.5 L 85.5 884.0 L 88.5 778.0 L 88.5 668.0 L 91.0 665.5 L 186.0 665.5 L 1040.0 675.5 L 1045.5 24.0 L 1069.0 23.5 L 1070.5 25.0 L 1070.5 47.0 L 1072.0 48.5 L 1083.5 42.0 L 1090.0 28.5 L 1092.5 31.0 L 1092.5 37.0 L 1101.0 46.5 L 1108.0 48.5 L 1108.5 26.0 L 1111.0 23.5 L 1457.0 27.5 L 1458.5 30.0 L 1456.5 145.0 L 1458.0 146.5 L 1482.0 146.5 L 1483.5 149.0 L 1478.5 489.0 L 1478.0 679.5 L 2298.0 686.5 L 2299.5 688.0 L 2296.5 811.0 L 2296.5 903.0 L 2302.0 905.5 L 2341.0 905.5 L 2342.5 907.0 L 2342.5 1227.0 L 2341.0 1228.5 L 2296.0 1228.5 L 2294.5 1230.0"/>
    <path d="M 2287.5 1443.0 L 2291.5 1226.0 L 2293.0 1224.5 L 2338.5 1224.0 L 2338.5 911.0 L 2332.0 908.5 L 2296.0 908.5 L 2293.5 906.0 L 2292.5 809.0 L 2295.5 691.0 L 2291.0 689.5 L 1475.0 682.5 L 1473.5 681.0 L 1474.5 505.0 L 1479.5 152.0 L 1478.0 150.5 L 1457.0 150.5 L 1453.5 148.0 L 1454.0 31.5 L 1290.0 28.5 L 1112.5 28.0 L 1113.0 32.5 L 1255.0 33.5 L 1257.5 36.0 L 1258.0 74.5 L 1262.5 73.0 L 1262.5 38.0 L 1264.0 34.5 L 1447.0 36.5 L 1449.5 39.0 L 1448.5 146.0 L 1446.0 149.5 L 1263.0 147.5 L 1261.5 146.0 L 1261.5 122.0 L 1256.5 121.0 L 1249.5 685.0 L 1251.0 686.5 L 1379.0 687.5 L 1381.5 691.0 L 1380.0 725.5 L 1249.5 726.0 L 1250.0 730.5 L 1325.0 731.5 L 1327.5 734.0 L 1326.5 901.0 L 1328.0 902.5 L 1496.0 903.5 L 1831.0 909.5 L 2332.0 914.5 L 2333.5 916.0 L 2332.5 997.0 L 2331.0 998.5 L 2159.0 997.5 L 2157.5 999.0 L 2158.5 1217.0 L 2156.0 1219.5 L 1448.0 1210.5 L 1445.5 1209.0 L 1444.5 1204.0 L 1445.5 971.0 L 1426.0 969.5 L 1250.0 968.5 L 1246.5 1327.0 L 1245.0 1328.5 L 1043.0 1327.5 L 1047.5 967.0 L 1021.0 965.5 L 851.5 966.0 L 847.5 1196.0 L 845.0 1205.5 L 452.0 1204.5 L 205.5 1201.0 L 204.5 1116.0 L 207.5 982.0 L 206.0 980.5 L 37.0 978.5 L 35.5 895.0 L 37.0 893.5 L 727.0 899.5 L 1045.0 900.5 L 1046.5 899.0 L 1050.5 582.0 L 1053.5 43.0 L 1054.5 34.0 L 1056.0 32.5 L 1065.0 32.5 L 1066.5 31.0 L 1065.0 26.5 L 1050.0 26.5 L 1048.5 28.0 L 1044.5 675.0 L 1043.0 678.5 L 917.0 678.5 L 332.0 670.5 L 92.5 670.0 L 92.5 774.0 L 89.5 885.0 L 87.0 888.5 L 30.5 889.0 L 31.5 983.0 L 27.5 1103.0 L 27.5 1204.0 L 85.0 1205.5 L 86.5 1207.0 L 86.5 1299.0 L 81.5 1405.0 L 82.0 1428.5 L 508.0 1434.5 L 864.0 1435.5 L 865.5 1337.0 L 869.0 1332.5 L 1189.0 1333.5 L 1420.0 1336.5 L 1421.5 1340.0 L 1420.0 1438.5 L 1925.0 1443.5 L 2286.0 1444.5 Z"/>
    <path d="M 2121.5 35.0 L 2117.0 31.5 L 2112.5 33.0 L 2113.0 35.5"/>
    <path d="M 2154.0 1215.5 L 2153.5 996.0 L 2156.0 993.5 L 2177.5 993.0 L 2177.5 958.0 L 2179.0 956.5 L 2283.0 957.5 L 2285.5 960.0 L 2284.5 993.0 L 2286.0 994.5 L 2328.0 994.5 L 2329.5 974.0 L 2329.5 919.0 L 2328.0 917.5 L 2285.0 917.5 L 2284.0 953.5 L 2244.0 954.5 L 2193.0 953.5 L 2191.5 952.0 L 2192.5 918.0 L 2191.0 916.5 L 1326.0 906.5 L 1322.5 903.0 L 1324.5 736.0 L 1323.0 734.5 L 1249.0 734.5 L 1245.5 731.0 L 1246.5 723.0 L 1256.5 720.0 L 1256.5 691.0 L 1246.5 688.0 L 1252.5 118.0 L 1254.0 116.5 L 1277.5 117.0 L 1274.5 107.0 L 1266.0 100.5 L 1259.0 99.5 L 1258.5 97.0 L 1271.0 92.5 L 1278.5 81.0 L 1277.0 78.5 L 1255.0 78.5 L 1253.5 77.0 L 1253.0 37.5 L 1113.0 36.5 L 1112.5 51.0 L 1110.0 52.5 L 1098.0 49.5 L 1090.0 39.5 L 1081.0 49.5 L 1069.0 52.5 L 1066.5 50.0 L 1066.5 37.0 L 1065.0 35.5 L 1057.5 37.0 L 1053.5 649.0 L 1051.5 708.0 L 1050.5 901.0 L 1049.0 903.5 L 555.0 902.5 L 186.0 898.5 L 185.5 933.0 L 183.0 935.5 L 88.0 934.5 L 86.5 933.0 L 86.5 899.0 L 85.0 897.5 L 39.5 898.0 L 39.5 974.0 L 41.0 975.5 L 85.0 975.5 L 85.5 939.0 L 87.0 937.5 L 198.0 938.5 L 199.5 940.0 L 199.5 976.0 L 201.0 977.5 L 207.0 976.5 L 211.5 982.0 L 208.5 1104.0 L 208.5 1197.0 L 210.0 1198.5 L 842.0 1202.5 L 843.5 1201.0 L 847.5 964.0 L 850.0 961.5 L 1048.0 962.5 L 1051.5 965.0 L 1048.5 1159.0 L 1050.0 1160.5 L 1112.0 1160.5 L 1113.5 1166.0 L 1111.5 1298.0 L 1110.0 1299.5 L 1047.0 1298.5 L 1045.5 1301.0 L 1045.5 1323.0 L 1047.0 1324.5 L 1138.0 1324.5 L 1138.5 1321.0 L 1132.5 1305.0 L 1132.5 1300.0 L 1136.5 1298.0 L 1138.0 1289.5 L 1145.0 1289.5 L 1145.5 1298.0 L 1149.5 1301.0 L 1143.5 1319.0 L 1144.0 1324.5 L 1242.0 1325.5 L 1243.5 1324.0 L 1243.0 1301.5 L 1181.0 1300.5 L 1179.5 1299.0 L 1180.5 1164.0 L 1182.0 1161.5 L 1244.5 1161.0 L 1245.5 967.0 L 1248.0 964.5 L 1447.0 966.5 L 1449.5 968.0 L 1449.0 1206.5 L 1886.0 1213.5"/>
    <path d="M 1444.5 145.0 L 1445.5 41.0 L 1444.0 39.5 L 1431.5 40.0 L 1431.5 83.0 L 1430.0 88.5 L 1318.0 87.5 L 1315.5 85.0 L 1316.0 38.5 L 1266.5 38.0 L 1265.5 74.0 L 1267.0 75.5 L 1281.0 75.5 L 1282.5 81.0 L 1278.5 90.0 L 1269.5 97.0 L 1278.5 106.0 L 1281.5 112.0 L 1281.5 120.0 L 1280.0 121.5 L 1265.5 122.0 L 1266.0 144.5 L 1301.0 144.5 L 1301.5 97.0 L 1303.0 95.5 L 1416.0 97.5 L 1417.5 100.0 L 1416.5 145.0 L 1418.0 146.5 L 1443.0 146.5 Z"/>
    <path d="M 1329.0 83.5 L 1330.5 82.0 L 1330.5 40.0 L 1321.0 38.5 L 1319.5 82.0"/>
    <path d="M 1343.0 84.5 L 1344.5 40.0 L 1336.0 38.5 L 1333.5 41.0 L 1333.5 83.0"/>
    <path d="M 1357.0 84.5 L 1358.5 83.0 L 1358.5 40.0 L 1348.0 39.5 L 1347.5 83.0"/>
    <path d="M 1371.0 84.5 L 1372.5 41.0 L 1363.0 39.5 L 1361.5 41.0 L 1361.5 84.0"/>
    <path d="M 1385.0 84.5 L 1386.5 41.0 L 1377.0 39.5 L 1375.5 41.0 L 1375.5 84.0"/>
    <path d="M 1399.0 84.5 L 1400.5 41.0 L 1391.0 39.5 L 1389.5 41.0 L 1389.5 84.0"/>
    <path d="M 1412.0 85.5 L 1413.5 84.0 L 1414.5 41.0 L 1405.0 39.5 L 1403.5 41.0 L 1403.5 84.0"/>
    <path d="M 1426.0 85.5 L 1427.5 84.0 L 1427.5 41.0 L 1419.0 39.5 L 1417.5 41.0 L 1417.5 85.0"/>
    <path d="M 2158.5 115.0 L 2162.0 119.5 L 2162.5 111.0 L 2166.0 104.5 L 2168.5 105.0 L 2168.0 108.5 L 2171.0 105.5 L 2178.0 108.5 L 2183.5 108.0 L 2186.5 95.0 L 2193.5 82.0 L 2197.5 79.0 L 2197.0 75.5 L 2193.0 76.5 L 2192.5 75.0 L 2199.0 64.5 L 2202.5 81.0 L 2198.5 84.0 L 2194.5 102.0 L 2198.0 108.5 L 2205.5 96.0 L 2214.0 87.5 L 2229.0 76.5 L 2247.0 68.5 L 2258.0 66.5 L 2284.0 66.5 L 2290.0 68.5 L 2305.0 68.5 L 2305.5 67.0 L 2294.0 60.5 L 2284.0 57.5 L 2253.0 55.5 L 2233.0 60.5 L 2211.0 70.5 L 2209.5 58.0 L 2213.5 44.0 L 2210.0 43.5 L 2193.5 57.0 L 2181.0 77.5 L 2177.5 73.0 L 2176.5 61.0 L 2174.0 60.5 L 2164.5 74.0 L 2158.5 93.0"/>
    <path d="M 2011.5 98.0 L 2015.0 98.5 L 2025.0 94.5 L 2026.0 90.5 L 2043.0 91.5 L 2041.5 88.0 L 2052.0 80.5 L 2067.0 82.5 L 2067.0 80.5 L 2062.5 79.0 L 2065.0 76.5 L 2083.0 69.5 L 2087.5 66.0 L 2057.0 77.5 L 2038.0 75.5 L 2038.0 77.5 L 2047.5 80.0 L 2033.0 87.5 L 2014.0 86.5 L 2014.0 88.5 L 2024.5 90.0"/>
    <path d="M 2261.0 86.5 L 2263.0 86.5 L 2268.5 80.0 L 2271.0 71.5 L 2263.0 71.5 L 2259.5 74.0"/>
    <path d="M 2285.0 87.5 L 2295.5 77.0 L 2295.0 74.5 L 2284.5 73.0 L 2283.5 86.0 Z"/>
    <path d="M 2238.0 89.5 L 2240.0 89.5 L 2243.5 84.0 L 2245.0 77.5 L 2241.0 77.5 L 2234.5 82.0"/>
    <path d="M 2044.5 101.0 L 2049.0 101.5 L 2058.0 95.5 L 2066.0 95.5 L 2069.0 91.5 L 2080.0 85.5 L 2085.0 85.5 L 2092.5 79.0 L 2081.0 83.5 L 2074.0 83.5 L 2071.0 87.5 L 2061.0 92.5 L 2054.0 92.5 L 2052.0 96.5"/>
    <path d="M 2269.0 91.5 L 2273.0 92.5 L 2276.5 90.0 L 2277.0 80.5 L 2275.0 80.5 L 2268.5 89.0 Z"/>
    <path d="M 2308.0 92.5 L 2315.5 85.0 L 2309.0 80.5 L 2306.0 80.5 L 2304.5 92.0 Z"/>
    <path d="M 2247.0 94.5 L 2253.0 93.5 L 2255.5 91.0 L 2255.5 86.0 L 2253.0 81.5 L 2246.5 91.0 Z"/>
    <path d="M 2177.0 100.5 L 2173.0 97.5 L 2170.0 100.5 L 2166.5 99.0 L 2167.5 90.0 L 2172.0 85.5 L 2178.5 96.0"/>
    <path d="M 2290.5 93.0 L 2297.0 94.5 L 2299.5 91.0 L 2299.5 86.0 L 2297.0 85.5"/>
    <path d="M 2218.0 96.5 L 2221.0 97.5 L 2223.5 95.0 L 2226.0 87.5 L 2223.0 87.5 L 2218.5 91.0"/>
    <path d="M 2228.0 99.5 L 2233.5 98.0 L 2232.0 92.5 L 2229.5 93.0"/>
    <path d="M 2324.0 100.5 L 2330.5 97.0 L 2327.0 92.5 L 2323.5 94.0"/>
    <path d="M 2314.0 99.5 L 2317.5 98.0 L 2317.0 94.5 L 2312.5 97.0 Z"/>
    <path d="M 2079.5 101.0 L 2088.5 97.0 L 2081.0 97.5 Z"/>
    <path d="M 1315.0 144.5 L 1315.5 100.0 L 1306.0 99.5 L 1304.5 143.0 L 1306.0 144.5"/>
    <path d="M 1325.0 145.5 L 1329.5 144.0 L 1329.5 100.0 L 1320.0 99.5 L 1319.5 144.0"/>
    <path d="M 1342.0 145.5 L 1343.5 144.0 L 1343.5 100.0 L 1334.0 99.5 L 1332.5 143.0 L 1335.0 145.5"/>
    <path d="M 1356.0 145.5 L 1357.5 144.0 L 1357.5 100.0 L 1348.0 99.5 L 1346.5 101.0 L 1346.5 144.0"/>
    <path d="M 1370.0 145.5 L 1371.5 144.0 L 1371.5 101.0 L 1363.0 99.5 L 1361.5 101.0 L 1360.5 144.0"/>
    <path d="M 1384.0 145.5 L 1385.5 101.0 L 1377.0 99.5 L 1375.5 101.0 L 1374.5 145.0"/>
    <path d="M 1398.0 145.5 L 1399.5 144.0 L 1399.5 101.0 L 1390.0 100.5 L 1388.5 102.0 L 1388.5 145.0"/>
    <path d="M 1411.0 146.5 L 1412.5 145.0 L 1413.5 102.0 L 1404.0 100.5 L 1402.5 102.0 L 1402.5 145.0"/>
    <path d="M 2073.5 105.0 L 2077.0 104.5 L 2078.5 102.0 L 2075.0 102.5 Z"/>
    <path d="M 2223.5 109.0 L 2229.0 109.5 L 2244.5 102.0 L 2238.0 102.5 L 2226.0 106.5 Z"/>
    <path d="M 2339.5 108.0 L 2335.0 101.5 L 2331.5 104.0 L 2333.0 106.5"/>
    <path d="M 2375.0 122.5 L 2375.0 120.5 L 2352.5 106.0 L 2356.0 112.5 L 2360.5 113.0 L 2359.5 116.0 L 2362.0 119.5"/>
    <path d="M 496.5 314.0 L 387.0 314.5 L 4.0 310.5 L 3.5 193.0 L 5.5 121.0 L 7.0 118.5 L 113.0 118.5 L 259.0 121.5 L 497.0 122.5 L 499.5 124.0"/>
    <path d="M 2360.0 135.5 L 2366.5 132.0 L 2366.5 130.0 L 2362.0 126.5 L 2359.5 128.0"/>
    <path d="M 487.5 304.0 L 489.0 132.5 L 16.0 127.5 L 14.5 130.0 L 12.5 300.0 L 14.0 301.5 L 486.0 305.5 Z"/>
    <path d="M 1471.5 328.0 L 1260.0 326.5 L 1261.5 155.0 L 1263.0 153.5 L 1474.0 156.5 L 1473.5 289.0"/>
    <path d="M 1468.5 325.0 L 1470.0 159.5 L 1266.0 157.5 L 1264.5 159.0 L 1262.5 322.0 L 1264.0 323.5"/>
    <path d="M 2072.0 200.5 L 2062.0 200.5 L 2055.5 197.0 L 2055.5 170.0 L 2061.0 163.5 L 2071.0 163.5 L 2078.5 169.0 L 2078.5 173.0 L 2076.0 175.5 L 2072.5 174.0 L 2071.0 169.5 L 2061.5 170.0 L 2062.5 193.0 L 2065.0 195.5 L 2071.5 195.0 L 2072.5 188.0 L 2069.5 186.0 L 2070.0 182.5 L 2076.0 181.5 L 2078.5 183.0 L 2078.5 196.0"/>
    <path d="M 2029.0 308.5 L 1982.0 308.5 L 1960.5 292.0 L 1960.5 182.0 L 1979.0 164.5 L 2029.0 164.5 L 2050.5 182.0 L 2050.5 206.0 L 2047.0 209.5 L 2024.0 208.5 L 2022.5 207.0 L 2022.0 188.5 L 1980.5 189.0 L 1983.0 192.5 L 1990.5 196.0 L 1991.0 284.5 L 2021.0 284.5 L 2022.5 283.0 L 2022.5 259.0 L 2013.5 256.0 L 2013.5 235.0 L 2015.0 233.5 L 2049.5 234.0 L 2049.5 291.0 L 2044.0 297.5"/>
    <path d="M 2108.0 200.5 L 2102.5 199.0 L 2099.5 188.0 L 2097.0 185.5 L 2093.5 187.0 L 2093.5 199.0 L 2092.0 200.5 L 2086.5 200.0 L 2086.0 164.5 L 2103.0 164.5 L 2107.5 169.0 L 2107.5 181.0 L 2104.5 188.0 L 2108.5 196.0"/>
    <path d="M 2135.0 201.5 L 2118.0 201.5 L 2115.5 199.0 L 2115.5 167.0 L 2117.0 165.5 L 2137.5 166.0 L 2134.0 171.5 L 2122.5 173.0 L 2124.0 179.5 L 2133.5 181.0 L 2132.0 185.5 L 2125.0 185.5 L 2122.5 188.0 L 2122.5 194.0 L 2135.0 196.5 L 2136.5 199.0 Z"/>
    <path d="M 2163.0 201.5 L 2145.0 201.5 L 2143.5 200.0 L 2142.5 168.0 L 2145.0 165.5 L 2163.0 165.5 L 2164.5 167.0 L 2160.0 172.5 L 2154.0 171.5 L 2149.5 174.0 L 2151.0 179.5 L 2158.0 179.5 L 2161.5 183.0 L 2160.0 185.5 L 2151.0 186.5 L 2149.5 193.0 L 2153.0 196.5 L 2162.0 196.5"/>
    <path d="M 2197.0 202.5 L 2189.5 201.0 L 2182.0 182.5 L 2179.5 185.0 L 2179.5 201.0 L 2173.5 201.0 L 2172.5 168.0 L 2174.0 166.5 L 2183.5 168.0 L 2189.0 184.5 L 2191.5 184.0 L 2192.5 177.0 L 2190.5 168.0 L 2192.0 166.5 L 2198.5 167.0 L 2198.5 201.0 Z"/>
    <path d="M 2238.0 202.5 L 2223.0 203.5 L 2221.5 202.0 L 2221.5 168.0 L 2223.0 166.5 L 2228.5 168.0 L 2228.5 196.0 L 2230.0 197.5 L 2239.0 197.5"/>
    <path d="M 2266.0 204.5 L 2244.5 203.0 L 2244.5 169.0 L 2246.0 167.5 L 2264.0 166.5 L 2266.5 168.0 L 2261.0 174.5 L 2253.0 173.5 L 2251.5 175.0 L 2253.0 181.5 L 2262.0 181.5 L 2263.5 184.0 L 2261.0 188.5 L 2253.0 187.5 L 2251.5 196.0 L 2253.0 197.5 L 2263.0 197.5 L 2266.5 202.0 Z"/>
    <path d="M 88.5 188.0 L 86.0 190.5 L 83.5 188.0 L 83.5 181.0 L 82.0 180.5 L 78.5 184.0 L 79.5 188.0 L 78.0 189.5 L 68.0 189.5 L 66.5 187.0 L 67.5 174.0 L 66.0 173.5 L 61.0 180.5 L 54.5 184.0 L 54.5 188.0 L 52.0 190.5 L 49.5 188.0 L 49.5 169.0 L 51.0 167.5 L 60.0 167.5 L 66.0 170.5 L 69.0 167.5 L 77.0 168.5 L 84.0 177.5 L 84.5 170.0 L 87.0 167.5 L 89.5 170.0"/>
    <path d="M 2289.0 203.5 L 2282.0 203.5 L 2280.5 201.0 L 2275.0 167.5 L 2280.0 167.5 L 2282.5 170.0 L 2285.0 188.5 L 2287.0 188.5 L 2290.5 169.0 L 2292.0 167.5 L 2297.5 168.0 L 2293.5 193.0"/>
    <path d="M 2323.0 204.5 L 2305.0 203.5 L 2303.5 202.0 L 2303.5 169.0 L 2305.0 167.5 L 2322.0 167.5 L 2324.5 169.0 L 2322.0 174.5 L 2311.0 174.5 L 2309.5 176.0 L 2312.0 182.5 L 2320.5 183.0 L 2318.0 188.5 L 2313.0 187.5 L 2310.5 189.0 L 2310.5 198.0 L 2322.0 198.5"/>
    <path d="M 129.5 189.0 L 125.0 190.5 L 121.0 185.5 L 119.0 185.5 L 117.0 190.5 L 113.0 188.5 L 109.0 190.5 L 106.0 185.5 L 104.5 189.0 L 101.0 190.5 L 97.0 184.5 L 93.0 190.5 L 90.5 188.0 L 94.5 170.0 L 99.0 168.5 L 100.5 174.0 L 103.0 174.5 L 103.5 171.0 L 108.0 168.5 L 111.5 185.0 L 113.0 185.5 L 118.5 171.0 L 121.0 168.5 L 125.0 168.5 L 129.5 177.0"/>
    <path d="M 164.5 186.0 L 161.0 190.5 L 156.0 191.5 L 154.5 188.0 L 159.5 184.0 L 152.0 182.5 L 148.0 177.5 L 147.5 181.0 L 143.5 185.0 L 144.5 189.0 L 142.0 191.5 L 139.0 189.5 L 134.0 190.5 L 132.5 189.0 L 132.5 174.0 L 130.5 172.0 L 133.0 168.5 L 140.0 168.5 L 148.0 174.5 L 148.5 170.0 L 151.0 168.5 L 153.5 171.0 L 153.5 176.0 L 157.0 178.5 L 163.0 169.5 L 165.5 172.0"/>
    <path d="M 212.5 182.0 L 210.5 186.0 L 202.0 192.5 L 195.5 188.0 L 194.0 181.5 L 188.5 186.0 L 189.0 191.5 L 184.0 189.5 L 180.0 191.5 L 178.5 190.0 L 178.5 175.0 L 176.5 172.0 L 182.0 168.5 L 188.0 170.5 L 195.0 176.5 L 200.0 169.5 L 206.0 169.5 L 211.5 174.0"/>
    <path d="M 2349.0 204.5 L 2335.0 204.5 L 2333.5 203.0 L 2333.0 168.5 L 2339.5 169.0 L 2339.5 198.0 L 2349.0 198.5 L 2350.5 200.0"/>
    <path d="M 223.0 192.5 L 218.0 191.5 L 214.5 188.0 L 214.5 171.0 L 216.0 169.5 L 218.5 171.0 L 220.0 186.5 L 223.0 186.5 L 224.5 184.0 L 224.5 171.0 L 228.0 169.5 L 229.5 172.0 L 228.5 187.0"/>
    <path d="M 237.0 192.5 L 235.5 190.0 L 235.5 176.0 L 231.5 174.0 L 231.5 171.0 L 245.0 169.5 L 247.5 173.0 L 241.5 175.0 L 240.5 191.0 Z"/>
    <path d="M 251.0 192.5 L 247.5 188.0 L 250.5 173.0 L 253.0 170.5 L 261.0 169.5 L 263.5 173.0 L 257.5 175.0 L 260.5 180.0 L 255.0 182.5 L 253.5 186.0 L 260.0 185.5 L 261.5 189.0 L 258.0 191.5"/>
    <path d="M 2375.0 254.5 L 2357.5 239.0 L 2357.5 186.0 L 2375.0 170.5"/>
    <path d="M 2099.0 179.5 L 2100.5 172.0 L 2094.0 171.5 L 2092.5 173.0 L 2093.5 178.0"/>
    <path d="M 431.5 182.0 L 431.5 178.0 L 434.0 175.5 L 440.0 175.5 L 441.0 172.5 L 446.0 172.5 L 468.5 180.0 L 466.0 182.5 L 461.0 182.5 L 445.0 188.5 L 442.0 188.5 L 438.0 184.5 L 433.0 184.5 Z"/>
    <path d="M 75.0 180.5 L 77.5 177.0 L 74.0 173.5 L 73.5 180.0 Z"/>
    <path d="M 140.0 181.5 L 142.5 178.0 L 139.0 174.5 L 137.5 179.0 Z"/>
    <path d="M 204.0 186.5 L 206.5 183.0 L 206.5 176.0 L 202.0 174.5 L 199.5 179.0 L 199.5 185.0"/>
    <path d="M 323.5 183.0 L 320.0 184.5 L 309.0 183.5 L 308.5 176.0 L 310.0 174.5 L 322.0 175.5"/>
    <path d="M 355.5 183.0 L 354.0 184.5 L 337.0 184.5 L 334.5 182.0 L 334.5 176.0 L 336.0 174.5 L 354.0 175.5"/>
    <path d="M 186.0 181.5 L 187.5 177.0 L 185.0 175.5 L 183.5 179.0 Z"/>
    <path d="M 387.5 184.0 L 369.0 184.5 L 367.5 176.0 L 386.0 175.5"/>
    <path d="M 420.5 182.0 L 419.0 184.5 L 401.0 184.5 L 399.5 177.0 L 401.0 175.5 L 417.0 175.5 L 420.5 178.0"/>
    <path d="M 2131.0 309.5 L 2108.0 309.5 L 2105.5 305.0 L 2103.5 290.0 L 2100.0 288.5 L 2088.0 288.5 L 2085.5 291.0 L 2084.5 303.0 L 2081.0 309.5 L 2060.0 309.5 L 2058.5 308.0 L 2076.5 219.0 L 2076.5 212.0 L 2070.0 209.5 L 2070.0 206.5 L 2112.5 208.0 L 2131.5 302.0"/>
    <path d="M 2180.0 310.5 L 2148.5 310.0 L 2153.5 300.0 L 2154.5 232.0 L 2152.0 229.5 L 2146.0 229.5 L 2137.0 237.5 L 2133.5 238.0 L 2133.5 210.0 L 2136.0 207.5 L 2196.0 208.5 L 2197.5 210.0 L 2197.5 237.0 L 2194.0 238.5 L 2187.0 230.5 L 2177.5 232.0 L 2176.5 299.0 L 2181.5 308.0 Z"/>
    <path d="M 2260.0 311.5 L 2225.0 311.5 L 2211.5 298.0 L 2212.5 221.0 L 2223.0 209.5 L 2260.0 209.5 L 2271.5 221.0 L 2271.5 299.0"/>
    <path d="M 2355.0 312.5 L 2332.0 312.5 L 2329.5 310.0 L 2316.0 270.5 L 2306.5 272.0 L 2306.5 310.0 L 2305.0 311.5 L 2284.5 311.0 L 2284.5 217.0 L 2277.5 212.0 L 2278.0 209.5 L 2334.0 210.5 L 2345.5 223.0 L 2345.5 257.0 L 2336.5 267.0 L 2336.5 270.0 L 2350.5 306.0 L 2356.5 311.0 Z"/>
    <path d="M 1342.0 249.5 L 1334.0 249.5 L 1328.5 243.0 L 1331.0 240.5 L 1337.0 245.5 L 1341.5 244.0 L 1341.5 240.0 L 1334.5 236.0 L 1336.0 233.5 L 1339.0 233.5 L 1341.5 229.0 L 1336.0 227.5 L 1332.0 231.5 L 1329.5 230.0 L 1329.5 227.0 L 1334.0 222.5 L 1341.0 222.5 L 1346.5 228.0 L 1344.5 236.0 L 1347.5 242.0 L 1346.5 246.0"/>
    <path d="M 1365.0 249.5 L 1349.5 249.0 L 1351.0 244.5 L 1356.5 243.0 L 1356.5 230.0 L 1350.5 230.0 L 1356.0 222.5 L 1360.5 224.0 L 1360.5 244.0 L 1366.5 247.0 Z"/>
    <path d="M 1376.0 250.5 L 1369.5 246.0 L 1367.5 237.0 L 1369.5 227.0 L 1373.0 223.5 L 1379.0 222.5 L 1385.5 228.0 L 1386.5 240.0 L 1383.5 248.0"/>
    <path d="M 1404.0 250.5 L 1391.0 250.5 L 1388.5 249.0 L 1390.0 245.5 L 1394.5 245.0 L 1394.5 231.0 L 1391.0 231.5 L 1389.5 228.0 L 1397.0 222.5 L 1399.5 224.0 L 1399.5 244.0 L 1405.5 247.0 Z"/>
    <path d="M 1379.0 245.5 L 1381.5 241.0 L 1381.5 231.0 L 1379.0 227.5 L 1376.0 227.5 L 1372.5 232.0 L 1372.5 241.0 L 1376.0 245.5 Z"/>
    <path d="M 2246.0 292.5 L 2249.5 288.0 L 2249.5 231.0 L 2247.0 228.5 L 2226.0 229.5 L 2226.0 231.5 L 2233.0 234.5 L 2234.5 237.0 L 2234.5 291.0"/>
    <path d="M 2323.5 249.0 L 2323.5 232.0 L 2322.0 230.5 L 2297.5 231.0 L 2304.0 234.5 L 2307.5 239.0 L 2307.0 250.5 L 2322.0 250.5 Z"/>
    <path d="M 44.0 256.5 L 38.0 250.5 L 35.5 251.0 L 33.0 256.5 L 30.5 255.0 L 32.5 242.0 L 38.0 234.5 L 42.0 234.5 L 45.5 239.0 L 45.5 255.0 Z"/>
    <path d="M 55.0 256.5 L 50.0 256.5 L 47.5 252.0 L 48.5 236.0 L 50.0 234.5 L 53.5 235.0 L 52.5 251.0 L 58.0 248.5 L 61.5 250.0"/>
    <path d="M 71.0 256.5 L 66.5 255.0 L 66.5 240.0 L 61.5 238.0 L 63.0 234.5 L 76.0 234.5 L 77.5 236.0 L 77.0 238.5 L 71.5 241.0"/>
    <path d="M 83.0 257.5 L 78.5 254.0 L 83.0 235.5 L 92.0 234.5 L 94.5 237.0 L 92.0 239.5 L 86.5 240.0 L 91.5 244.0 L 86.0 247.5 L 84.5 251.0 L 92.0 250.5 L 92.5 253.0"/>
    <path d="M 130.5 254.0 L 127.0 257.5 L 120.0 255.5 L 116.0 257.5 L 113.5 254.0 L 114.5 246.0 L 113.0 245.5 L 108.5 251.0 L 109.5 256.0 L 108.0 257.5 L 104.0 255.5 L 99.0 257.5 L 96.5 237.0 L 100.0 234.5 L 107.0 235.5 L 111.5 239.0 L 112.5 243.0 L 115.0 243.5 L 117.5 236.0 L 121.0 235.5 L 122.5 248.0 L 125.0 251.5 L 126.5 250.0 L 125.5 237.0 L 129.0 235.5 L 131.5 242.0"/>
    <path d="M 134.0 257.5 L 132.5 252.0 L 134.5 245.0 L 141.0 235.5 L 145.0 235.5 L 147.5 239.0 L 148.5 256.0 L 144.0 257.5 L 139.0 252.5 L 137.5 256.0 Z"/>
    <path d="M 159.0 257.5 L 154.5 256.0 L 155.5 242.0 L 149.5 238.0 L 152.0 235.5 L 164.0 235.5 L 165.5 237.0 L 165.0 239.5 L 160.5 241.0"/>
    <path d="M 169.0 257.5 L 166.5 251.0 L 170.5 237.0 L 181.0 235.5 L 182.0 239.5 L 174.5 241.0 L 178.0 242.5 L 179.5 246.0 L 172.5 250.0 L 173.0 252.5 L 180.0 251.5 L 180.5 255.0 L 176.0 257.5"/>
    <path d="M 263.5 239.0 L 257.5 242.0 L 257.5 256.0 L 256.0 258.5 L 252.5 257.0 L 253.5 243.0 L 248.0 239.5 L 246.5 240.0 L 244.5 254.0 L 240.0 258.5 L 234.0 257.5 L 230.5 253.0 L 230.0 248.5 L 221.0 258.5 L 215.0 257.5 L 210.0 249.5 L 205.5 252.0 L 206.0 257.5 L 199.0 256.5 L 197.0 258.5 L 194.5 256.0 L 193.5 238.0 L 197.0 235.5 L 206.0 237.5 L 210.0 243.5 L 216.0 236.5 L 221.0 235.5 L 228.5 241.0 L 229.0 244.5 L 230.5 244.0 L 231.5 237.0 L 235.0 236.5 L 235.5 251.0 L 237.0 252.5 L 240.5 250.0 L 242.0 236.5 L 247.0 238.5 L 249.0 236.5 L 260.0 235.5"/>
    <path d="M 267.0 258.5 L 264.5 256.0 L 265.5 242.0 L 269.0 236.5 L 276.0 235.5 L 279.5 240.0 L 272.5 242.0 L 276.5 244.0 L 276.5 247.0 L 272.0 248.5 L 269.5 252.0 L 276.0 251.5 L 277.5 255.0 L 274.0 257.5"/>
    <path d="M 2100.0 269.5 L 2101.5 264.0 L 2096.5 239.0 L 2094.0 235.5 L 2091.5 242.0 L 2088.5 268.0 L 2090.0 269.5"/>
    <path d="M 436.5 249.0 L 440.0 239.5 L 466.5 248.0 L 465.0 250.5 L 443.0 257.5 L 439.5 256.0"/>
    <path d="M 38.0 246.5 L 40.5 246.0 L 40.0 240.5 L 37.5 242.0"/>
    <path d="M 105.0 247.5 L 107.5 243.0 L 104.0 240.5 L 103.5 247.0 Z"/>
    <path d="M 202.0 248.5 L 204.5 244.0 L 201.0 241.5 L 200.5 248.0 Z"/>
    <path d="M 217.0 252.5 L 221.0 252.5 L 223.5 248.0 L 222.0 241.5 L 219.0 241.5 L 216.5 245.0 L 215.5 250.0 Z"/>
    <path d="M 313.0 251.5 L 310.0 252.5 L 307.5 251.0 L 306.5 244.0 L 308.0 242.5 L 311.0 242.5 L 315.5 246.0"/>
    <path d="M 328.0 251.5 L 322.5 250.0 L 321.5 246.0 L 324.0 243.5 L 327.0 243.5 L 330.5 247.0"/>
    <path d="M 341.0 252.5 L 336.5 249.0 L 336.5 245.0 L 342.0 243.5 L 344.5 247.0"/>
    <path d="M 356.0 252.5 L 351.5 250.0 L 353.0 243.5 L 358.0 244.5 L 359.5 247.0 L 358.5 251.0 Z"/>
    <path d="M 370.0 252.5 L 364.5 248.0 L 367.0 243.5 L 372.0 244.5 L 373.5 250.0"/>
    <path d="M 384.0 252.5 L 379.5 248.0 L 382.0 243.5 L 387.5 246.0 L 387.5 250.0"/>
    <path d="M 429.0 252.5 L 424.0 251.5 L 422.5 249.0 L 425.0 243.5 L 430.5 246.0"/>
    <path d="M 400.0 252.5 L 397.0 252.5 L 393.5 249.0 L 395.0 244.5 L 400.0 244.5 L 402.5 247.0"/>
    <path d="M 414.0 252.5 L 408.5 250.0 L 410.0 244.5 L 416.5 247.0"/>
    <path d="M 2375.0 311.5 L 2363.0 302.5 L 2356.5 295.0 L 2357.5 272.0 L 2360.0 270.5 L 2375.0 271.5"/>
    <path d="M 1469.5 507.0 L 1258.0 506.5 L 1256.5 504.0 L 1259.5 334.0 L 1261.0 332.5 L 1356.0 332.5 L 1471.0 334.5 L 1472.5 337.0"/>
    <path d="M 2375.0 449.5 L 2162.0 445.5 L 1959.0 444.5 L 1958.5 334.0 L 1960.0 332.5 L 2037.0 332.5 L 2374.0 337.5"/>
    <path d="M 1466.5 504.0 L 1468.0 337.5 L 1272.0 335.5 L 1262.5 337.0 L 1260.5 502.0 L 1262.0 503.5"/>
    <path d="M 2009.0 404.5 L 2023.0 402.5 L 2027.5 399.0 L 2028.5 395.0 L 2026.0 392.5 L 2015.0 397.5 L 2011.5 395.0 L 2014.0 387.5 L 2022.0 385.5 L 2025.5 382.0 L 2025.5 379.0 L 2023.0 377.5 L 2015.0 379.5 L 2015.5 375.0 L 2017.0 373.5 L 2028.0 373.5 L 2030.5 371.0 L 2029.0 365.5 L 2016.0 365.5 L 2009.5 370.0 L 2004.5 390.0 L 2004.5 400.0"/>
    <path d="M 2044.0 405.5 L 2048.0 404.5 L 2050.5 401.0 L 2053.5 390.0 L 2063.5 369.0 L 2060.0 365.5 L 2054.5 369.0 L 2047.0 388.5 L 2045.5 388.0 L 2042.5 368.0 L 2036.0 366.5 L 2033.5 370.0"/>
    <path d="M 2062.0 405.5 L 2066.5 403.0 L 2069.0 394.5 L 2073.0 395.5 L 2081.0 405.5 L 2086.5 402.0 L 2085.5 373.0 L 2079.0 365.5 L 2072.0 368.5 L 2064.5 379.0 L 2059.5 396.0 L 2059.5 403.0 Z"/>
    <path d="M 2098.0 405.5 L 2107.0 404.5 L 2114.5 398.0 L 2112.0 394.5 L 2109.0 394.5 L 2102.0 398.5 L 2097.5 394.0 L 2099.5 383.0 L 2104.0 374.5 L 2105.5 375.0 L 2105.5 382.0 L 2108.0 384.5 L 2110.0 384.5 L 2113.5 380.0 L 2112.5 369.0 L 2109.0 365.5 L 2100.0 367.5 L 2095.5 372.0 L 2091.5 382.0 L 2090.5 399.0"/>
    <path d="M 2133.0 406.5 L 2138.0 404.5 L 2144.5 396.0 L 2146.5 371.0 L 2143.0 366.5 L 2139.0 367.5 L 2137.5 370.0 L 2136.5 394.0 L 2133.0 398.5 L 2131.0 398.5 L 2127.5 394.0 L 2125.5 386.0 L 2127.5 369.0 L 2123.0 366.5 L 2118.5 371.0 L 2117.5 391.0 L 2119.5 398.0 L 2124.0 404.5"/>
    <path d="M 2151.0 406.5 L 2155.5 405.0 L 2158.0 396.5 L 2162.0 396.5 L 2169.0 406.5 L 2173.0 406.5 L 2175.5 404.0 L 2175.5 382.0 L 2173.5 372.0 L 2170.0 367.5 L 2164.0 367.5 L 2159.0 370.5 L 2154.5 378.0 L 2148.5 399.0 L 2148.5 405.0 Z"/>
    <path d="M 2190.0 407.5 L 2194.0 406.5 L 2196.5 403.0 L 2196.5 376.0 L 2204.0 374.5 L 2206.5 372.0 L 2205.0 367.5 L 2185.0 367.5 L 2177.5 371.0 L 2177.5 374.0 L 2180.0 375.5 L 2188.5 376.0 L 2188.5 405.0 Z"/>
    <path d="M 2211.0 407.5 L 2214.5 406.0 L 2217.5 398.0 L 2217.5 381.0 L 2219.5 372.0 L 2216.0 368.5 L 2213.0 368.5 L 2209.5 375.0 L 2208.5 405.0 Z"/>
    <path d="M 2238.0 407.5 L 2248.5 399.0 L 2252.5 384.0 L 2251.5 377.0 L 2246.0 370.5 L 2233.0 368.5 L 2229.0 370.5 L 2222.5 379.0 L 2221.5 397.0 L 2227.0 405.5 L 2231.0 407.5"/>
    <path d="M 2275.0 408.5 L 2283.5 402.0 L 2287.5 392.0 L 2283.5 372.0 L 2281.0 369.5 L 2277.0 369.5 L 2274.5 372.0 L 2277.5 392.0 L 2275.5 399.0 L 2273.0 400.5 L 2269.5 391.0 L 2268.5 371.0 L 2264.0 368.5 L 2258.5 375.0 L 2254.5 405.0 L 2256.0 407.5 L 2261.0 407.5 L 2264.0 402.5 L 2267.0 406.5"/>
    <path d="M 2341.0 408.5 L 2342.5 401.0 L 2338.5 386.0 L 2337.5 373.0 L 2334.0 369.5 L 2329.5 372.0 L 2324.0 388.5 L 2321.5 373.0 L 2319.0 370.5 L 2314.0 370.5 L 2307.5 390.0 L 2305.5 407.0 L 2310.0 408.5 L 2313.5 405.0 L 2316.0 391.5 L 2319.5 404.0 L 2323.0 408.5 L 2328.5 406.0 L 2331.0 393.5 L 2334.5 400.0 L 2335.5 408.0"/>
    <path d="M 2347.0 408.5 L 2351.0 408.5 L 2353.5 406.0 L 2355.0 398.5 L 2360.0 400.5 L 2367.0 409.5 L 2371.0 408.5 L 2372.5 406.0 L 2373.5 394.0 L 2371.5 380.0 L 2365.0 369.5 L 2359.0 370.5 L 2350.5 383.0 L 2345.5 400.0"/>
    <path d="M 2078.0 390.5 L 2068.5 387.0 L 2075.0 373.5 L 2078.5 375.0"/>
    <path d="M 2167.0 391.5 L 2158.5 389.0 L 2158.5 384.0 L 2165.0 374.5 L 2167.5 377.0"/>
    <path d="M 2237.0 399.5 L 2233.0 399.5 L 2229.5 394.0 L 2230.5 383.0 L 2234.0 376.5 L 2240.0 376.5 L 2243.5 383.0 L 2241.5 395.0"/>
    <path d="M 2363.0 393.5 L 2354.5 391.0 L 2361.0 377.5 L 2363.5 379.0 L 2364.5 385.0"/>
    <path d="M 1339.0 428.5 L 1332.0 428.5 L 1326.5 423.0 L 1329.0 419.5 L 1334.0 423.5 L 1339.5 423.0 L 1339.5 419.0 L 1332.5 415.0 L 1339.0 411.5 L 1339.5 408.0 L 1334.0 406.5 L 1330.0 410.5 L 1327.5 409.0 L 1328.5 405.0 L 1334.0 401.5 L 1341.0 402.5 L 1344.5 407.0 L 1342.5 415.0 L 1345.5 422.0 L 1344.5 425.0"/>
    <path d="M 1363.0 428.5 L 1347.5 428.0 L 1349.0 423.5 L 1354.5 422.0 L 1354.5 409.0 L 1348.5 410.0 L 1349.5 406.0 L 1354.0 402.5 L 1358.5 403.0 L 1358.5 423.0 L 1364.5 425.0 Z"/>
    <path d="M 1379.0 428.5 L 1370.0 427.5 L 1366.5 422.0 L 1366.5 409.0 L 1371.0 402.5 L 1379.0 402.5 L 1383.5 408.0 L 1384.5 419.0 L 1382.5 425.0"/>
    <path d="M 1396.0 429.5 L 1390.0 428.5 L 1385.5 423.0 L 1387.0 420.5 L 1394.0 424.5 L 1398.5 422.0 L 1397.0 418.5 L 1391.5 417.0 L 1391.5 414.0 L 1396.0 412.5 L 1397.5 408.0 L 1393.0 406.5 L 1389.0 410.5 L 1386.5 410.0 L 1386.5 407.0 L 1391.0 402.5 L 1398.0 402.5 L 1402.5 406.0 L 1401.5 416.0 L 1403.5 424.0 L 1401.0 427.5"/>
    <path d="M 1376.0 424.5 L 1379.5 420.0 L 1379.5 410.0 L 1377.0 406.5 L 1374.0 406.5 L 1370.5 411.0 L 1370.5 420.0 L 1374.0 424.5 Z"/>
    <path d="M 1468.5 681.0 L 1467.0 682.5 L 1256.0 680.5 L 1254.5 678.0 L 1256.5 514.0 L 1259.0 511.5 L 1469.0 513.5 L 1470.5 516.0"/>
    <path d="M 1464.5 678.0 L 1466.0 516.5 L 1262.0 514.5 L 1259.5 517.0 L 1259.0 677.5"/>
    <path d="M 1338.0 605.5 L 1330.0 605.5 L 1324.5 600.0 L 1326.0 597.5 L 1329.0 597.5 L 1334.0 601.5 L 1337.5 600.0 L 1337.5 596.0 L 1331.5 594.0 L 1331.5 591.0 L 1336.0 589.5 L 1337.5 586.0 L 1333.0 583.5 L 1329.0 587.5 L 1325.5 587.0 L 1325.5 584.0 L 1332.0 579.5 L 1337.0 579.5 L 1342.5 584.0 L 1340.5 593.0 L 1343.5 596.0 L 1343.5 599.0"/>
    <path d="M 1361.0 605.5 L 1345.5 605.0 L 1347.0 600.5 L 1352.5 599.0 L 1352.5 587.0 L 1347.0 587.5 L 1346.5 585.0 L 1353.0 579.5 L 1356.5 581.0 L 1356.5 600.0 L 1362.5 603.0 Z"/>
    <path d="M 1387.0 605.5 L 1383.5 600.0 L 1387.0 598.5 L 1390.0 601.5 L 1394.0 601.5 L 1396.5 596.0 L 1394.0 593.5 L 1384.5 594.0 L 1384.5 583.0 L 1386.0 580.5 L 1398.0 579.5 L 1400.5 583.0 L 1399.0 584.5 L 1390.0 584.5 L 1388.5 589.0 L 1398.0 590.5 L 1401.5 595.0 L 1401.5 600.0 L 1397.0 605.5"/>
    <path d="M 1373.0 606.5 L 1369.0 605.5 L 1364.5 600.0 L 1364.5 587.0 L 1369.0 580.5 L 1377.0 580.5 L 1380.5 584.0 L 1382.5 591.0 L 1380.5 602.0"/>
    <path d="M 1374.0 601.5 L 1377.5 597.0 L 1377.5 588.0 L 1375.0 584.5 L 1371.0 584.5 L 1368.5 588.0 L 1368.5 597.0 L 1372.0 601.5 Z"/>
    <path d="M 240.0 889.5 L 97.0 888.5 L 94.5 886.0 L 97.5 773.0 L 97.5 677.0 L 100.0 674.5 L 242.0 675.5 L 244.5 678.0 L 241.5 888.0 Z"/>
    <path d="M 394.0 890.5 L 250.0 890.5 L 246.5 888.0 L 249.5 677.0 L 251.0 675.5 L 394.0 676.5 L 397.5 678.0 L 395.5 887.0 Z"/>
    <path d="M 547.0 892.5 L 403.0 891.5 L 400.5 889.0 L 402.5 693.0 L 405.0 677.5 L 549.0 678.5 L 551.5 680.0 L 552.5 707.0 L 549.5 889.0"/>
    <path d="M 237.0 886.5 L 238.5 884.0 L 237.5 835.0 L 240.5 680.0 L 102.0 678.5 L 98.5 884.0 L 100.0 885.5"/>
    <path d="M 704.0 893.5 L 556.0 892.5 L 554.5 891.0 L 558.0 679.5 L 705.0 680.5 L 707.5 683.0 L 705.5 892.0 Z"/>
    <path d="M 391.0 887.5 L 394.5 682.0 L 393.0 680.5 L 254.0 679.5 L 252.5 681.0 L 250.5 886.0"/>
    <path d="M 545.0 888.5 L 548.5 683.0 L 408.0 680.5 L 406.5 682.0 L 404.5 785.0 L 404.5 887.0"/>
    <path d="M 860.0 893.5 L 759.0 894.5 L 713.0 893.5 L 711.5 892.0 L 713.5 682.0 L 715.0 680.5 L 862.0 682.5 L 864.5 685.0 L 862.5 890.0"/>
    <path d="M 701.0 890.5 L 702.5 889.0 L 704.5 685.0 L 693.0 683.5 L 562.0 682.5 L 558.5 888.0 L 560.0 889.5"/>
    <path d="M 951.0 894.5 L 869.0 893.5 L 867.5 892.0 L 869.5 687.0 L 873.0 682.5 L 953.0 683.5 L 956.5 688.0 L 956.5 699.0 L 955.0 700.5 L 952.5 700.0 L 952.5 688.0 L 950.0 686.5 L 875.0 686.5 L 873.5 688.0 L 871.5 890.0 L 949.0 890.5 L 950.5 889.0 L 949.5 880.0 L 953.0 878.5 L 954.5 881.0 L 953.5 892.0 Z"/>
    <path d="M 1040.0 894.5 L 961.0 894.5 L 958.5 892.0 L 958.5 880.0 L 960.0 878.5 L 962.5 879.0 L 962.5 890.0 L 964.0 891.5 L 1037.0 891.5 L 1038.5 856.0 L 1039.5 689.0 L 1037.0 687.5 L 965.0 687.5 L 964.5 700.0 L 962.0 700.5 L 960.5 692.0 L 963.0 683.5 L 1041.0 684.5 L 1043.5 687.0 L 1041.5 892.0 Z"/>
    <path d="M 857.0 890.5 L 858.5 889.0 L 860.5 687.0 L 858.0 685.5 L 718.0 684.5 L 714.5 889.0 L 716.0 890.5"/>
    <path d="M 1424.5 688.0 L 1423.0 764.5 L 1336.0 764.5 L 1333.5 763.0 L 1332.5 734.0 L 1335.0 731.5 L 1377.0 732.5 L 1385.5 731.0 L 1386.5 690.0 L 1388.0 687.5"/>
    <path d="M 1597.0 899.5 L 1432.0 898.5 L 1427.5 895.0 L 1429.5 709.0 L 1432.0 687.5 L 1586.0 688.5 L 1598.5 690.0 L 1599.5 758.0"/>
    <path d="M 2111.5 904.0 L 2110.0 906.5 L 1898.0 904.5 L 1893.0 894.5 L 1889.5 896.0 L 1889.5 902.0 L 1887.0 904.5 L 1830.0 903.5 L 1827.5 902.0 L 1825.0 894.5 L 1821.5 896.0 L 1821.5 902.0 L 1819.0 903.5 L 1606.0 900.5 L 1602.5 896.0 L 1604.5 692.0 L 1606.0 689.5 L 1821.0 690.5 L 1823.5 693.0 L 1823.0 824.5 L 1827.5 823.0 L 1828.5 700.0 L 1829.5 693.0 L 1833.0 690.5 L 1890.0 691.5 L 1891.5 693.0 L 1889.5 817.0 L 1891.0 824.5 L 1895.5 823.0 L 1898.0 692.5 L 2112.0 693.5 L 2113.5 695.0 L 2113.5 765.0 L 2111.5 801.0"/>
    <path d="M 1421.5 692.0 L 1420.0 690.5 L 1391.0 690.5 L 1389.5 692.0 L 1389.5 734.0 L 1387.0 735.5 L 1337.0 734.5 L 1336.5 760.0 L 1338.0 761.5 L 1419.0 761.5 L 1420.5 760.0"/>
    <path d="M 1594.0 896.5 L 1595.5 693.0 L 1435.0 690.5 L 1433.5 692.0 L 1431.5 894.0"/>
    <path d="M 1841.5 881.0 L 1842.5 875.0 L 1841.0 873.5 L 1819.0 874.5 L 1817.5 873.0 L 1818.5 845.0 L 1843.5 844.0 L 1842.5 838.0 L 1835.0 830.5 L 1825.0 827.5 L 1821.0 828.5 L 1817.5 825.0 L 1819.0 694.5 L 1610.0 692.5 L 1608.5 694.0 L 1607.0 896.5 L 1817.0 899.5 L 1819.0 891.5 L 1832.0 889.5"/>
    <path d="M 2286.0 908.5 L 2122.0 907.5 L 2116.5 905.0 L 2118.5 697.0 L 2121.0 693.5 L 2289.0 695.5 L 2290.5 697.0 L 2288.5 906.0 Z"/>
    <path d="M 1884.0 854.5 L 1886.5 853.0 L 1885.0 849.5 L 1872.0 849.5 L 1869.5 847.0 L 1869.5 843.0 L 1874.5 833.0 L 1886.5 826.0 L 1888.5 696.0 L 1887.0 694.5 L 1833.0 694.5 L 1830.5 824.0 L 1839.0 828.5 L 1844.5 834.0 L 1848.5 845.0 L 1846.0 848.5 L 1831.0 848.5 L 1830.5 852.0 L 1832.0 853.5"/>
    <path d="M 2106.0 903.5 L 2107.5 902.0 L 2107.5 801.0 L 2110.5 699.0 L 2107.0 696.5 L 1902.0 695.5 L 1900.5 697.0 L 1899.5 826.0 L 1897.0 828.5 L 1881.0 832.5 L 1875.5 838.0 L 1873.5 843.0 L 1876.0 846.5 L 1893.0 844.5 L 1898.5 846.0 L 1898.5 873.0 L 1897.0 874.5 L 1875.0 874.5 L 1874.5 878.0 L 1878.5 885.0 L 1886.0 890.5 L 1897.0 891.5 L 1898.5 900.0 L 1903.0 901.5"/>
    <path d="M 2284.0 904.5 L 2286.5 700.0 L 2285.0 698.5 L 2124.0 697.5 L 2122.5 699.0 L 2122.5 769.0 L 2120.5 809.0 L 2120.5 903.0"/>
    <path d="M 955.0 741.5 L 951.5 741.0 L 951.5 714.0 L 953.0 712.5 L 956.5 715.0"/>
    <path d="M 964.0 741.5 L 960.5 741.0 L 960.5 714.0 L 962.0 712.5 L 964.5 713.0"/>
    <path d="M 1849.0 754.5 L 1847.5 745.0 L 1851.0 743.5 L 1854.0 750.5 L 1855.5 745.0 L 1861.5 741.0 L 1850.0 736.5 L 1848.5 733.0 L 1866.0 725.5 L 1867.5 728.0 L 1862.5 732.0 L 1862.5 737.0 L 1867.5 740.0 L 1865.5 743.0 L 1867.5 751.0 L 1863.0 754.5 L 1861.5 753.0 L 1863.5 748.0 L 1860.0 746.5 L 1858.0 754.5"/>
    <path d="M 1359.0 756.5 L 1356.5 752.0 L 1359.0 751.5 L 1361.0 753.5 L 1364.5 752.0 L 1360.5 749.0 L 1363.5 744.0 L 1358.0 745.5 L 1356.5 743.0 L 1363.0 739.5 L 1367.5 743.0 L 1367.5 754.0 L 1364.0 756.5"/>
    <path d="M 1400.5 756.0 L 1370.0 756.5 L 1369.5 755.0 L 1373.5 752.0 L 1373.5 746.0 L 1370.5 743.0 L 1375.0 740.5 L 1376.5 742.0 L 1376.5 753.0 L 1383.0 753.5 L 1383.5 746.0 L 1381.0 745.5 L 1380.5 743.0 L 1386.0 740.5 L 1386.5 753.0 L 1393.0 753.5 L 1393.5 746.0 L 1391.0 745.5 L 1390.5 743.0 L 1396.0 740.5 L 1397.5 742.0 L 1397.5 753.0"/>
    <path d="M 919.5 762.0 L 915.0 767.5 L 913.0 767.5 L 911.5 765.0 L 914.5 761.0 L 914.5 757.0 L 908.0 755.5 L 906.5 757.0 L 907.0 766.5 L 894.0 766.5 L 892.5 754.0 L 896.0 751.5 L 897.5 761.0 L 902.0 762.5 L 903.5 753.0 L 906.0 750.5 L 912.0 749.5 L 918.5 754.0"/>
    <path d="M 983.5 753.0 L 987.0 751.5 L 998.0 758.5 L 1007.0 759.5 L 1009.5 764.0 L 1007.0 765.5 L 988.0 758.5 L 987.5 768.0 L 985.0 769.5 L 983.5 768.0"/>
    <path d="M 954.0 783.5 L 950.5 781.0 L 951.5 755.0 L 953.0 753.5 L 955.5 755.0 L 955.5 782.0 Z"/>
    <path d="M 963.0 783.5 L 959.5 782.0 L 960.5 755.0 L 962.0 753.5 L 964.5 755.0"/>
    <path d="M 1865.0 779.5 L 1862.0 775.5 L 1854.0 775.5 L 1852.0 778.5 L 1847.5 775.0 L 1849.0 771.5 L 1862.0 771.5 L 1863.5 770.0 L 1862.0 763.5 L 1855.0 763.5 L 1854.0 766.5 L 1851.0 766.5 L 1847.5 763.0 L 1850.0 759.5 L 1862.0 759.5 L 1864.0 756.5 L 1866.5 757.0 L 1866.5 778.0 Z"/>
    <path d="M 147.0 789.5 L 138.0 789.5 L 133.5 785.0 L 135.0 781.5 L 139.0 782.5 L 141.0 785.5 L 146.5 784.0 L 145.0 779.5 L 139.5 778.0 L 139.5 775.0 L 144.0 773.5 L 146.5 770.0 L 145.0 768.5 L 141.0 768.5 L 138.0 771.5 L 134.5 770.0 L 135.5 766.0 L 139.0 763.5 L 146.0 763.5 L 151.5 769.0 L 149.5 775.0 L 151.5 785.0"/>
    <path d="M 169.0 790.5 L 154.5 789.0 L 156.0 785.5 L 160.5 785.0 L 160.5 772.0 L 157.0 771.5 L 155.5 769.0 L 163.0 763.5 L 165.5 765.0 L 165.5 785.0 L 171.5 787.0"/>
    <path d="M 186.0 790.5 L 183.5 789.0 L 183.0 784.5 L 173.0 784.5 L 171.5 783.0 L 173.5 777.0 L 184.0 764.5 L 188.5 766.0 L 188.5 779.0 L 191.5 782.0"/>
    <path d="M 203.0 790.5 L 199.0 790.5 L 192.5 787.0 L 194.0 782.5 L 202.0 786.5 L 205.5 782.0 L 203.0 777.5 L 194.0 778.5 L 192.5 777.0 L 195.0 764.5 L 209.5 765.0 L 208.0 768.5 L 198.5 769.0 L 199.0 773.5 L 205.0 773.5 L 210.5 778.0 L 210.5 785.0"/>
    <path d="M 297.0 790.5 L 287.0 790.5 L 283.5 787.0 L 285.0 782.5 L 291.0 786.5 L 296.5 785.0 L 295.0 780.5 L 289.5 779.0 L 289.5 776.0 L 295.0 774.5 L 296.5 771.0 L 295.0 769.5 L 291.0 769.5 L 288.0 772.5 L 284.5 771.0 L 284.5 768.0 L 290.0 764.5 L 298.0 765.5 L 301.5 770.0 L 299.5 777.0 L 301.5 786.0"/>
    <path d="M 320.0 791.5 L 306.0 791.5 L 304.5 790.0 L 305.0 787.5 L 310.5 786.0 L 310.5 773.0 L 307.0 772.5 L 305.5 770.0 L 311.0 765.5 L 316.5 767.0 L 315.5 786.0 L 321.5 789.0 Z"/>
    <path d="M 337.0 791.5 L 333.5 790.0 L 332.0 785.5 L 322.5 784.0 L 324.5 778.0 L 335.0 765.5 L 339.5 767.0 L 339.5 781.0 L 342.5 783.0"/>
    <path d="M 350.0 792.5 L 347.5 789.0 L 354.5 770.0 L 345.0 769.5 L 343.5 766.0 L 360.0 765.5 L 361.5 770.0 L 355.5 779.0 L 353.5 790.0"/>
    <path d="M 450.0 791.5 L 441.0 792.5 L 434.5 787.0 L 436.0 784.5 L 439.0 784.5 L 443.0 788.5 L 448.5 786.0 L 448.0 782.5 L 441.5 780.0 L 441.5 778.0 L 446.0 776.5 L 448.5 773.0 L 446.0 770.5 L 443.0 770.5 L 438.0 774.5 L 435.5 772.0 L 440.0 766.5 L 449.0 766.5 L 453.5 771.0 L 453.5 776.0 L 451.5 778.0 L 453.5 788.0"/>
    <path d="M 472.0 792.5 L 457.0 792.5 L 455.5 791.0 L 457.0 788.5 L 462.5 788.0 L 462.5 774.0 L 458.0 774.5 L 457.5 771.0 L 464.0 766.5 L 467.0 766.5 L 468.5 769.0 L 467.5 787.0 L 473.5 790.0 Z"/>
    <path d="M 489.0 793.5 L 486.5 792.0 L 486.0 787.5 L 474.5 786.0 L 475.5 781.0 L 488.0 766.5 L 490.5 768.0 L 490.5 781.0 L 494.5 784.0 L 494.5 786.0 L 490.5 788.0"/>
    <path d="M 502.0 793.5 L 497.5 791.0 L 496.5 787.0 L 506.0 788.5 L 508.5 784.0 L 499.0 783.5 L 496.5 781.0 L 495.5 773.0 L 500.0 767.5 L 506.0 766.5 L 511.0 768.5 L 513.5 773.0 L 513.5 785.0 L 508.0 792.5"/>
    <path d="M 605.0 794.5 L 598.0 793.5 L 594.5 790.0 L 596.0 785.5 L 601.0 789.5 L 607.5 788.0 L 606.0 783.5 L 600.5 782.0 L 602.0 778.5 L 606.5 777.0 L 606.5 773.0 L 601.0 772.5 L 598.0 775.5 L 595.5 775.0 L 595.5 772.0 L 603.0 767.5 L 609.0 768.5 L 612.5 773.0 L 609.5 780.0 L 612.5 784.0 L 612.5 790.0"/>
    <path d="M 631.0 794.5 L 617.0 794.5 L 615.5 793.0 L 618.0 789.5 L 622.5 789.0 L 622.5 775.0 L 617.5 776.0 L 617.5 773.0 L 622.0 768.5 L 627.5 770.0 L 627.5 789.0 L 633.5 792.0 Z"/>
    <path d="M 646.0 794.5 L 640.0 794.5 L 634.5 790.0 L 637.0 786.5 L 642.0 790.5 L 645.0 790.5 L 648.5 786.0 L 645.0 781.5 L 638.0 783.5 L 635.5 782.0 L 637.0 768.5 L 651.5 769.0 L 651.0 772.5 L 642.0 772.5 L 640.5 774.0 L 641.0 777.5 L 648.0 777.5 L 651.0 779.5 L 653.5 785.0 L 651.5 791.0"/>
    <path d="M 672.0 794.5 L 655.5 794.0 L 657.0 790.5 L 661.5 789.0 L 661.5 776.0 L 657.0 776.5 L 656.5 773.0 L 662.0 768.5 L 666.5 770.0 L 666.5 790.0 L 671.0 790.5"/>
    <path d="M 764.0 794.5 L 754.0 795.5 L 749.5 792.0 L 750.0 787.5 L 754.0 787.5 L 757.0 791.5 L 762.5 789.0 L 761.0 785.5 L 754.5 783.0 L 757.0 779.5 L 761.5 778.0 L 761.5 775.0 L 757.0 773.5 L 753.0 777.5 L 749.5 776.0 L 754.0 769.5 L 762.0 769.5 L 767.5 775.0 L 765.5 781.0 L 767.5 789.0"/>
    <path d="M 786.0 795.5 L 770.5 795.0 L 771.0 791.5 L 775.5 791.0 L 776.5 778.0 L 773.0 777.5 L 771.5 775.0 L 778.0 769.5 L 781.5 771.0 L 781.5 791.0 L 786.0 791.5 L 787.5 793.0 Z"/>
    <path d="M 826.5 792.0 L 819.0 796.5 L 811.0 794.5 L 808.0 790.5 L 801.0 795.5 L 793.0 795.5 L 789.5 793.0 L 789.5 789.0 L 793.0 788.5 L 796.0 791.5 L 800.0 791.5 L 801.5 785.0 L 800.0 783.5 L 789.5 784.0 L 790.5 771.0 L 792.0 769.5 L 806.0 770.5 L 805.0 774.5 L 796.0 774.5 L 794.5 778.0 L 805.0 780.5 L 807.5 784.0 L 808.0 789.5 L 812.0 787.5 L 819.0 792.5 L 821.5 787.0 L 816.0 785.5 L 814.5 782.0 L 819.0 780.5 L 821.5 776.0 L 816.0 774.5 L 813.0 777.5 L 810.0 777.5 L 809.5 774.0 L 813.0 770.5 L 823.0 770.5 L 826.5 774.0 L 826.5 780.0 L 824.5 782.0 L 827.5 788.0"/>
    <path d="M 917.5 785.0 L 914.0 787.5 L 911.5 786.0 L 914.5 781.0 L 914.5 777.0 L 912.0 774.5 L 908.0 774.5 L 906.0 786.5 L 894.0 786.5 L 892.5 784.0 L 893.5 771.0 L 896.0 770.5 L 897.5 773.0 L 897.5 781.0 L 901.0 781.5 L 902.5 774.0 L 907.0 769.5 L 915.0 770.5 L 919.5 778.0"/>
    <path d="M 1420.0 898.5 L 1335.0 897.5 L 1331.5 895.0 L 1332.5 771.0 L 1334.0 769.5 L 1423.5 771.0 L 1422.5 896.0 Z"/>
    <path d="M 506.0 780.5 L 508.5 778.0 L 508.5 774.0 L 507.0 771.5 L 502.0 771.5 L 500.5 777.0 L 502.0 779.5"/>
    <path d="M 1008.5 784.0 L 1005.0 788.5 L 1002.0 788.5 L 1004.5 778.0 L 998.0 776.5 L 996.0 788.5 L 984.0 787.5 L 982.5 775.0 L 986.0 772.5 L 987.5 774.0 L 987.5 783.0 L 992.0 783.5 L 993.5 774.0 L 997.0 771.5 L 1003.0 771.5 L 1008.5 777.0"/>
    <path d="M 1418.0 894.5 L 1419.5 774.0 L 1337.0 773.5 L 1335.5 775.0 L 1335.5 892.0 L 1337.0 893.5"/>
    <path d="M 180.0 779.5 L 183.5 779.0 L 183.0 774.5 L 180.5 776.0 Z"/>
    <path d="M 330.0 781.5 L 333.5 780.0 L 333.0 776.5 L 329.5 779.0 Z"/>
    <path d="M 482.0 782.5 L 486.5 782.0 L 486.0 776.5"/>
    <path d="M 1489.0 802.5 L 1480.0 801.5 L 1476.5 796.0 L 1480.0 793.5 L 1487.0 798.5 L 1490.5 795.0 L 1488.0 791.5 L 1482.5 790.0 L 1484.0 786.5 L 1489.5 785.0 L 1488.0 780.5 L 1484.0 780.5 L 1482.0 783.5 L 1477.5 783.0 L 1478.5 779.0 L 1482.0 776.5 L 1490.0 776.5 L 1495.5 782.0 L 1493.5 788.0 L 1495.5 797.0"/>
    <path d="M 1531.5 802.0 L 1500.0 802.5 L 1498.5 799.0 L 1503.0 798.5 L 1504.5 796.0 L 1504.5 784.0 L 1500.0 784.5 L 1498.5 783.0 L 1505.0 776.5 L 1508.0 776.5 L 1509.5 778.0 L 1509.5 797.0 L 1511.0 798.5 L 1520.0 798.5 L 1520.5 784.0 L 1515.5 783.0 L 1519.0 778.5 L 1525.0 776.5 L 1526.5 778.0 L 1526.5 798.0 L 1531.0 798.5 Z"/>
    <path d="M 1547.0 802.5 L 1538.0 802.5 L 1533.5 798.0 L 1535.0 794.5 L 1541.0 798.5 L 1545.0 798.5 L 1546.5 796.0 L 1545.0 792.5 L 1539.5 791.0 L 1539.5 788.0 L 1544.0 786.5 L 1545.5 782.0 L 1542.0 780.5 L 1537.0 784.5 L 1533.5 783.0 L 1539.0 776.5 L 1548.0 777.5 L 1551.5 782.0 L 1548.5 789.0 L 1551.5 792.0 L 1551.5 798.0"/>
    <path d="M 1687.0 804.5 L 1679.0 803.5 L 1675.5 798.0 L 1678.0 795.5 L 1685.0 800.5 L 1688.5 798.0 L 1687.0 793.5 L 1681.5 792.0 L 1681.5 790.0 L 1686.0 788.5 L 1688.5 784.0 L 1683.0 782.5 L 1680.0 785.5 L 1676.5 785.0 L 1677.5 781.0 L 1684.0 777.5 L 1690.0 778.5 L 1693.5 782.0 L 1691.5 792.0 L 1693.5 793.0 L 1694.5 798.0"/>
    <path d="M 1731.5 803.0 L 1730.0 804.5 L 1698.0 804.5 L 1697.5 801.0 L 1703.5 798.0 L 1703.5 786.0 L 1700.0 786.5 L 1698.5 783.0 L 1704.0 778.5 L 1707.0 778.5 L 1708.5 780.0 L 1708.5 799.0 L 1710.0 800.5 L 1719.0 800.5 L 1720.5 799.0 L 1720.5 786.0 L 1717.0 786.5 L 1715.5 783.0 L 1721.0 778.5 L 1724.0 778.5 L 1725.5 780.0 L 1725.5 799.0 L 1731.0 800.5 Z"/>
    <path d="M 1745.0 804.5 L 1738.0 804.5 L 1733.5 801.0 L 1734.0 797.5 L 1743.0 800.5 L 1746.5 797.0 L 1743.0 791.5 L 1738.0 793.5 L 1733.5 792.0 L 1733.5 784.0 L 1736.0 778.5 L 1749.0 778.5 L 1750.5 780.0 L 1748.0 783.5 L 1741.0 782.5 L 1739.5 784.0 L 1740.0 787.5 L 1745.0 787.5 L 1751.5 793.0 L 1750.5 800.0"/>
    <path d="M 1866.5 790.0 L 1865.0 792.5 L 1861.0 793.5 L 1862.0 785.5 L 1857.0 789.5 L 1852.0 785.5 L 1853.5 792.0 L 1850.0 792.5 L 1847.5 790.0 L 1847.5 784.0 L 1851.0 781.5 L 1862.0 780.5 L 1866.5 784.0"/>
    <path d="M 1975.0 807.5 L 1970.0 805.5 L 1967.5 800.0 L 1972.0 798.5 L 1976.0 802.5 L 1981.5 800.0 L 1979.0 796.5 L 1973.5 794.0 L 1980.5 789.0 L 1980.5 786.0 L 1975.0 785.5 L 1972.0 788.5 L 1969.0 788.5 L 1968.5 786.0 L 1974.0 780.5 L 1981.0 780.5 L 1986.5 785.0 L 1984.5 793.0 L 1986.5 802.0 L 1982.0 806.5"/>
    <path d="M 2023.5 806.0 L 2022.0 807.5 L 1991.0 807.5 L 1988.5 805.0 L 1991.0 802.5 L 1995.5 802.0 L 1995.5 788.0 L 1991.0 788.5 L 1990.5 786.0 L 1996.0 781.5 L 2000.0 781.5 L 2000.5 802.0 L 2008.0 803.5 L 2012.5 801.0 L 2012.5 789.0 L 2008.0 788.5 L 2007.5 786.0 L 2013.0 781.5 L 2017.0 781.5 L 2018.5 783.0 L 2017.5 802.0 L 2023.0 803.5 Z"/>
    <path d="M 2030.0 807.5 L 2029.5 801.0 L 2036.5 786.0 L 2026.0 785.5 L 2025.5 782.0 L 2043.0 781.5 L 2043.5 786.0 L 2037.5 795.0 L 2034.0 807.5"/>
    <path d="M 2177.0 807.5 L 2167.0 807.5 L 2163.5 804.0 L 2165.0 799.5 L 2170.0 803.5 L 2176.5 802.0 L 2175.0 797.5 L 2168.5 795.0 L 2175.0 791.5 L 2176.5 788.0 L 2174.0 786.5 L 2167.0 789.5 L 2163.5 788.0 L 2164.5 785.0 L 2170.0 781.5 L 2179.0 782.5 L 2181.5 786.0 L 2179.5 795.0 L 2182.5 801.0"/>
    <path d="M 2218.5 807.0 L 2217.0 808.5 L 2186.0 808.5 L 2184.5 805.0 L 2190.5 803.0 L 2190.5 790.0 L 2186.0 789.5 L 2185.5 787.0 L 2191.0 782.5 L 2195.0 782.5 L 2196.5 784.0 L 2195.5 803.0 L 2203.0 804.5 L 2207.5 803.0 L 2207.5 790.0 L 2203.0 789.5 L 2202.5 787.0 L 2208.0 782.5 L 2212.0 782.5 L 2212.5 803.0"/>
    <path d="M 2231.0 808.5 L 2225.0 808.5 L 2220.5 806.0 L 2222.0 801.5 L 2226.0 803.5 L 2231.5 802.0 L 2231.0 799.5 L 2222.0 798.5 L 2219.5 794.0 L 2219.5 789.0 L 2225.0 782.5 L 2235.0 783.5 L 2238.5 791.0 L 2237.5 801.0"/>
    <path d="M 2230.0 795.5 L 2232.5 790.0 L 2228.0 786.5 L 2225.5 789.0 L 2225.5 794.0"/>
    <path d="M 918.5 790.0 L 918.5 804.0 L 916.0 806.5 L 913.0 799.5 L 900.0 799.5 L 900.5 804.0 L 897.0 804.5 L 892.5 799.0 L 894.0 795.5 L 913.0 795.5 L 914.5 790.0"/>
    <path d="M 1008.5 806.0 L 1006.0 807.5 L 1004.0 801.5 L 990.0 801.5 L 990.5 805.0 L 988.0 806.5 L 983.5 802.0 L 982.5 798.0 L 984.0 796.5 L 1004.0 796.5 L 1004.5 792.0 L 1007.0 790.5 L 1008.5 792.0"/>
    <path d="M 954.0 824.5 L 950.5 824.0 L 950.5 797.0 L 952.0 795.5 L 955.5 798.0"/>
    <path d="M 963.0 824.5 L 959.5 824.0 L 959.5 797.0 L 961.0 795.5 L 963.5 796.0"/>
    <path d="M 918.5 822.0 L 914.0 826.5 L 911.0 826.5 L 910.5 823.0 L 914.5 818.0 L 912.0 813.5 L 908.5 814.0 L 906.0 820.5 L 902.5 819.0 L 901.0 814.5 L 898.0 814.5 L 896.5 819.0 L 900.5 825.0 L 897.0 826.5 L 892.5 822.0 L 892.5 813.0 L 899.0 808.5 L 904.0 810.5 L 914.0 808.5 L 918.5 813.0"/>
    <path d="M 1008.5 823.0 L 1004.0 828.5 L 1001.0 828.5 L 1000.5 824.0 L 1004.5 821.0 L 1004.5 817.0 L 999.0 815.5 L 997.5 821.0 L 994.0 822.5 L 992.5 817.0 L 989.0 815.5 L 987.5 821.0 L 990.5 826.0 L 986.0 827.5 L 982.5 823.0 L 982.5 816.0 L 988.0 810.5 L 992.0 810.5 L 994.0 812.5 L 1004.0 810.5 L 1008.5 816.0"/>
    <path d="M 1358.0 839.5 L 1350.0 839.5 L 1347.5 836.0 L 1349.0 832.5 L 1353.0 835.5 L 1357.5 834.0 L 1357.0 831.5 L 1352.5 830.0 L 1352.5 828.0 L 1356.5 826.0 L 1356.5 823.0 L 1353.0 822.5 L 1350.0 825.5 L 1347.5 824.0 L 1351.0 818.5 L 1357.0 818.5 L 1361.5 822.0 L 1361.5 836.0"/>
    <path d="M 1376.0 839.5 L 1364.5 839.0 L 1364.5 837.0 L 1368.5 835.0 L 1368.5 825.0 L 1364.5 823.0 L 1369.0 818.5 L 1373.5 820.0 L 1372.5 835.0 L 1377.5 838.0 Z"/>
    <path d="M 1407.5 837.0 L 1403.0 840.5 L 1397.0 839.5 L 1396.0 834.5 L 1403.0 836.5 L 1404.5 833.0 L 1400.0 833.5 L 1394.0 829.5 L 1393.5 834.0 L 1389.0 839.5 L 1385.0 840.5 L 1381.0 838.5 L 1378.5 833.0 L 1380.5 821.0 L 1388.0 818.5 L 1394.0 823.5 L 1401.0 818.5 L 1407.0 820.5 L 1409.5 827.0"/>
    <path d="M 1388.0 835.5 L 1389.5 825.0 L 1385.0 822.5 L 1383.5 824.0 L 1383.5 835.0"/>
    <path d="M 1403.0 829.5 L 1404.5 824.0 L 1401.0 822.5 L 1398.5 826.0"/>
    <path d="M 953.0 866.5 L 949.5 864.0 L 951.0 836.5 L 954.5 838.0 L 954.5 865.0 Z"/>
    <path d="M 962.0 866.5 L 958.5 865.0 L 959.5 838.0 L 961.0 836.5 L 963.5 838.0 L 963.5 865.0 Z"/>
    <path d="M 1895.5 869.0 L 1895.5 851.0 L 1894.0 848.5 L 1889.5 851.0 L 1889.5 855.0 L 1887.0 857.5 L 1831.0 857.5 L 1827.5 855.0 L 1826.0 848.5 L 1821.5 850.0 L 1822.0 870.5 L 1826.5 870.0 L 1829.0 862.5 L 1889.0 863.5 L 1890.0 870.5"/>
    <path d="M 1886.5 900.0 L 1886.5 895.0 L 1873.5 885.0 L 1869.5 874.0 L 1873.0 870.5 L 1886.0 870.5 L 1885.0 866.5 L 1832.0 865.5 L 1830.5 867.0 L 1832.0 870.5 L 1845.0 870.5 L 1847.5 874.0 L 1842.5 886.0 L 1830.5 894.0 L 1831.0 899.5"/>
    <path d="M 98.0 931.5 L 100.5 930.0 L 100.5 899.0 L 99.0 897.5 L 90.0 897.5 L 89.5 929.0 L 92.0 931.5"/>
    <path d="M 112.0 931.5 L 114.5 930.0 L 113.5 898.0 L 104.0 897.5 L 103.5 930.0"/>
    <path d="M 126.0 931.5 L 127.5 930.0 L 127.5 899.0 L 118.0 897.5 L 117.5 931.0"/>
    <path d="M 141.0 931.5 L 141.5 900.0 L 139.0 897.5 L 132.0 897.5 L 130.5 899.0 L 130.5 930.0 L 132.0 931.5"/>
    <path d="M 154.0 931.5 L 154.5 899.0 L 146.0 897.5 L 144.5 899.0 L 144.5 931.0"/>
    <path d="M 167.0 931.5 L 168.5 930.0 L 167.5 899.0 L 160.0 897.5 L 157.5 899.0 L 157.5 930.0"/>
    <path d="M 182.0 931.5 L 181.5 899.0 L 172.0 898.5 L 170.5 900.0 L 171.5 931.0"/>
    <path d="M 2206.0 950.5 L 2206.5 917.0 L 2197.0 916.5 L 2195.5 918.0 L 2195.5 949.0 L 2197.0 950.5"/>
    <path d="M 2221.0 950.5 L 2221.5 917.0 L 2211.0 916.5 L 2209.5 949.0 L 2211.0 950.5"/>
    <path d="M 2236.0 950.5 L 2236.5 918.0 L 2227.0 916.5 L 2225.5 918.0 L 2224.5 949.0 L 2226.0 950.5"/>
    <path d="M 2250.0 950.5 L 2251.5 949.0 L 2251.5 918.0 L 2242.0 916.5 L 2239.5 918.0 L 2239.5 950.0"/>
    <path d="M 2264.0 951.5 L 2266.5 950.0 L 2266.5 918.0 L 2258.0 916.5 L 2254.5 918.0 L 2254.5 950.0"/>
    <path d="M 2278.0 951.5 L 2280.5 950.0 L 2281.5 919.0 L 2280.0 917.5 L 2270.0 917.5 L 2269.5 950.0"/>
    <path d="M 234.5 929.0 L 231.0 934.5 L 206.0 929.5 L 204.5 927.0 L 231.0 918.5"/>
    <path d="M 247.0 931.5 L 241.5 930.0 L 241.5 926.0 L 244.0 923.5 L 248.0 924.5 L 249.5 927.0"/>
    <path d="M 276.5 930.0 L 275.0 931.5 L 269.0 930.5 L 266.0 934.5 L 263.0 934.5 L 255.5 929.0 L 255.5 926.0 L 261.0 924.5 L 268.0 927.5 L 271.0 924.5 L 275.0 924.5"/>
    <path d="M 289.0 931.5 L 285.0 931.5 L 282.5 929.0 L 285.0 924.5 L 290.5 926.0"/>
    <path d="M 302.0 932.5 L 297.5 931.0 L 297.5 926.0 L 300.0 924.5 L 305.5 927.0"/>
    <path d="M 318.0 931.5 L 315.0 932.5 L 310.5 928.0 L 313.0 924.5 L 318.5 926.0 L 319.5 929.0 Z"/>
    <path d="M 331.0 932.5 L 325.5 930.0 L 327.0 924.5 L 333.5 927.0"/>
    <path d="M 346.0 932.5 L 342.0 932.5 L 339.5 930.0 L 342.0 924.5 L 347.5 926.0 L 348.5 930.0 Z"/>
    <path d="M 360.0 932.5 L 356.0 932.5 L 353.5 929.0 L 357.0 924.5 L 360.0 924.5 L 362.5 928.0"/>
    <path d="M 374.0 932.5 L 368.5 930.0 L 368.5 927.0 L 372.0 924.5 L 376.5 928.0"/>
    <path d="M 389.0 932.5 L 382.5 931.0 L 384.0 925.5 L 389.5 926.0 L 390.5 930.0 Z"/>
    <path d="M 402.0 932.5 L 398.0 932.5 L 396.5 930.0 L 399.0 925.5 L 404.5 927.0"/>
    <path d="M 419.5 930.0 L 415.0 933.5 L 410.5 931.0 L 412.0 925.5 L 417.0 925.5"/>
    <path d="M 431.0 933.5 L 424.5 930.0 L 427.0 925.5 L 431.0 925.5 L 433.5 928.0"/>
    <path d="M 446.0 932.5 L 442.0 933.5 L 438.5 930.0 L 441.0 925.5 L 445.0 925.5 L 447.5 928.0"/>
    <path d="M 457.0 933.5 L 453.5 931.0 L 453.5 928.0 L 459.0 925.5 L 461.5 930.0"/>
    <path d="M 473.0 933.5 L 467.5 931.0 L 470.0 925.5 L 475.5 927.0 L 475.5 931.0 Z"/>
    <path d="M 487.0 933.5 L 481.5 931.0 L 481.5 928.0 L 485.0 925.5 L 489.5 927.0 L 489.5 932.0 Z"/>
    <path d="M 501.0 933.5 L 496.5 932.0 L 496.5 928.0 L 499.0 925.5 L 504.5 928.0 L 504.5 931.0"/>
    <path d="M 516.0 933.5 L 510.5 932.0 L 510.5 928.0 L 513.0 925.5 L 518.5 928.0"/>
    <path d="M 542.0 934.5 L 539.5 932.0 L 539.5 928.0 L 543.0 925.5 L 547.5 929.0 L 547.5 931.0"/>
    <path d="M 659.0 935.5 L 655.0 934.5 L 652.5 931.0 L 657.0 925.5 L 660.5 926.0 L 661.5 933.0 Z"/>
    <path d="M 531.0 933.5 L 527.0 933.5 L 524.5 931.0 L 526.0 926.5 L 532.5 928.0"/>
    <path d="M 560.0 933.5 L 557.0 934.5 L 554.5 933.0 L 553.5 928.0 L 555.0 926.5 L 559.0 926.5 L 561.5 929.0"/>
    <path d="M 574.0 933.5 L 571.0 934.5 L 567.5 932.0 L 569.0 926.5 L 575.5 928.0"/>
    <path d="M 589.0 933.5 L 585.0 934.5 L 581.5 929.0 L 584.0 926.5 L 588.0 926.5 L 590.5 930.0 Z"/>
    <path d="M 600.0 934.5 L 595.5 932.0 L 598.0 926.5 L 603.5 928.0 L 603.5 932.0"/>
    <path d="M 616.0 934.5 L 612.0 934.5 L 609.5 932.0 L 612.0 926.5 L 617.5 928.0"/>
    <path d="M 630.0 934.5 L 624.5 932.0 L 627.0 926.5 L 631.0 927.5 L 632.5 930.0"/>
    <path d="M 644.0 934.5 L 638.5 932.0 L 641.0 926.5 L 646.5 929.0"/>
    <path d="M 784.5 1162.0 L 783.0 1163.5 L 678.0 1162.5 L 676.5 1174.0 L 679.0 1176.5 L 688.0 1176.5 L 690.5 1179.0 L 689.0 1185.5 L 679.0 1185.5 L 668.5 1179.0 L 668.5 1164.0 L 667.0 1162.5 L 310.0 1161.5 L 307.5 1159.0 L 309.5 959.0 L 312.0 957.5 L 447.0 958.5 L 448.5 960.0 L 448.5 969.0 L 447.0 970.5 L 375.5 971.0 L 375.5 986.0 L 377.0 987.5 L 390.5 988.0 L 390.5 1029.0 L 375.5 1032.0 L 374.5 1055.0 L 376.0 1056.5 L 455.0 1056.5 L 454.5 1049.0 L 457.5 1045.0 L 454.5 1038.0 L 457.5 1030.0 L 454.5 1023.0 L 457.5 1015.0 L 454.5 1008.0 L 455.5 1003.0 L 462.0 997.5 L 471.0 998.5 L 473.0 988.5 L 483.0 988.5 L 485.0 998.5 L 494.0 997.5 L 501.5 1004.0 L 501.5 1009.0 L 498.5 1014.0 L 501.5 1019.0 L 501.5 1024.0 L 498.5 1029.0 L 501.5 1035.0 L 498.5 1043.0 L 501.0 1057.5 L 576.0 1057.5 L 577.5 1056.0 L 577.5 1033.0 L 575.0 1031.5 L 564.0 1032.5 L 561.5 1030.0 L 562.5 989.0 L 577.0 988.5 L 578.5 987.0 L 578.5 973.0 L 577.0 971.5 L 510.0 971.5 L 508.5 970.0 L 509.0 959.5 L 671.0 960.5 L 671.5 933.0 L 679.0 926.5 L 693.0 926.5 L 694.5 933.0 L 692.0 935.5 L 680.5 936.0 L 679.5 959.0 L 681.0 960.5 L 785.0 960.5 L 787.5 962.0 L 787.5 1053.0"/>
    <path d="M 727.5 933.0 L 725.0 935.5 L 708.0 935.5 L 706.5 927.0 L 726.0 926.5"/>
    <path d="M 760.5 933.0 L 759.0 935.5 L 740.0 935.5 L 739.5 927.0 L 759.0 926.5"/>
    <path d="M 793.5 934.0 L 792.0 935.5 L 774.0 935.5 L 772.5 928.0 L 774.0 926.5 L 791.0 926.5 L 793.5 928.0"/>
    <path d="M 805.5 935.0 L 807.0 926.5 L 837.0 926.5 L 838.5 928.0 L 838.0 935.5 L 824.5 937.0 L 823.0 949.5 L 815.0 949.5 L 814.5 937.0"/>
    <path d="M 872.5 935.0 L 871.0 936.5 L 853.0 936.5 L 851.5 928.0 L 854.0 926.5 L 872.0 927.5"/>
    <path d="M 907.5 935.0 L 906.0 936.5 L 887.0 936.5 L 885.5 929.0 L 888.0 926.5 L 906.0 927.5"/>
    <path d="M 941.5 935.0 L 940.0 936.5 L 921.0 936.5 L 919.5 931.0 L 921.0 927.5 L 940.0 927.5"/>
    <path d="M 976.5 935.0 L 975.0 936.5 L 955.0 936.5 L 954.5 929.0 L 956.0 927.5 L 975.0 927.5"/>
    <path d="M 1010.5 935.0 L 1008.0 937.5 L 990.0 937.5 L 988.5 929.0 L 990.0 927.5 L 1009.0 927.5"/>
    <path d="M 1044.5 936.0 L 1043.0 937.5 L 1024.0 937.5 L 1022.5 929.0 L 1024.0 927.5 L 1044.0 928.5"/>
    <path d="M 1079.5 935.0 L 1078.0 937.5 L 1058.0 937.5 L 1057.5 930.0 L 1059.0 928.5 L 1078.0 928.5"/>
    <path d="M 1112.5 937.0 L 1092.0 937.5 L 1090.5 931.0 L 1092.0 928.5 L 1111.0 928.5"/>
    <path d="M 1149.0 952.5 L 1140.5 952.0 L 1138.0 938.5 L 1127.0 938.5 L 1124.5 936.0 L 1126.0 928.5 L 1139.0 928.5 L 1146.5 933.0 L 1149.5 941.0"/>
    <path d="M 99.0 975.5 L 99.5 942.0 L 92.0 940.5 L 88.5 943.0 L 89.5 975.0"/>
    <path d="M 266.0 948.5 L 262.0 948.5 L 260.5 946.0 L 263.0 940.5 L 266.0 940.5 L 268.5 944.0"/>
    <path d="M 113.0 975.5 L 114.5 974.0 L 113.5 942.0 L 103.0 941.5 L 102.5 974.0 L 104.0 975.5"/>
    <path d="M 127.0 975.5 L 127.5 943.0 L 118.0 941.5 L 116.5 943.0 L 117.5 975.0"/>
    <path d="M 141.0 975.5 L 141.5 943.0 L 140.0 941.5 L 131.0 941.5 L 130.5 975.0"/>
    <path d="M 153.0 976.5 L 154.5 975.0 L 154.5 943.0 L 145.0 941.5 L 144.5 975.0"/>
    <path d="M 167.0 976.5 L 168.5 975.0 L 168.5 943.0 L 159.0 941.5 L 157.5 944.0 L 157.5 975.0"/>
    <path d="M 181.0 976.5 L 182.5 975.0 L 182.5 943.0 L 173.0 941.5 L 171.5 943.0 L 171.5 976.0"/>
    <path d="M 195.0 976.5 L 196.5 975.0 L 195.5 943.0 L 187.0 941.5 L 185.5 943.0 L 185.5 976.0"/>
    <path d="M 266.0 962.5 L 260.5 961.0 L 260.5 957.0 L 264.0 954.5 L 268.5 957.0"/>
    <path d="M 2192.0 994.5 L 2192.5 962.0 L 2191.0 960.5 L 2182.0 960.5 L 2181.5 994.0"/>
    <path d="M 2206.0 994.5 L 2207.5 993.0 L 2207.5 962.0 L 2206.0 960.5 L 2197.0 960.5 L 2195.5 962.0 L 2195.5 993.0 L 2197.0 994.5"/>
    <path d="M 2221.0 994.5 L 2222.5 993.0 L 2221.5 961.0 L 2211.0 960.5 L 2210.5 994.0"/>
    <path d="M 2236.0 994.5 L 2237.5 993.0 L 2236.5 962.0 L 2227.0 960.5 L 2225.5 962.0 L 2225.5 994.0"/>
    <path d="M 2251.0 994.5 L 2251.5 962.0 L 2242.0 960.5 L 2240.5 962.0 L 2240.5 994.0"/>
    <path d="M 2264.0 995.5 L 2266.5 994.0 L 2266.5 962.0 L 2258.0 960.5 L 2254.5 962.0 L 2254.5 994.0"/>
    <path d="M 781.5 1159.0 L 784.5 966.0 L 783.0 964.5 L 514.0 962.5 L 511.5 965.0 L 513.0 967.5 L 580.0 968.5 L 581.5 970.0 L 580.5 1059.0 L 579.0 1060.5 L 481.0 1059.5 L 480.5 992.0 L 476.0 991.5 L 474.5 994.0 L 474.5 1058.0 L 473.0 1059.5 L 425.0 1060.5 L 373.0 1059.5 L 371.5 1058.0 L 372.5 969.0 L 376.0 966.5 L 443.0 967.5 L 444.0 962.5 L 313.5 962.0 L 312.0 1157.5 L 731.0 1160.5"/>
    <path d="M 2280.0 995.5 L 2281.5 994.0 L 2281.5 962.0 L 2271.0 961.5 L 2269.5 963.0 L 2269.5 994.0"/>
    <path d="M 822.0 982.5 L 813.5 981.0 L 815.0 962.5 L 823.5 964.0 L 823.5 981.0 Z"/>
    <path d="M 1141.0 988.5 L 1139.5 987.0 L 1139.5 968.0 L 1141.0 965.5 L 1147.0 964.5 L 1149.5 966.0 L 1149.5 987.0"/>
    <path d="M 360.0 1153.5 L 320.0 1153.5 L 316.5 1151.0 L 318.5 968.0 L 320.0 966.5 L 365.0 966.5 L 367.5 971.0 L 364.5 1151.0"/>
    <path d="M 2018.5 1173.0 L 2016.0 1175.5 L 1504.0 1169.5 L 1501.5 1166.0 L 1501.5 969.0 L 1504.0 966.5 L 1805.0 970.5 L 1805.5 981.0 L 1803.0 982.5 L 1710.5 982.0 L 1710.5 997.0 L 1726.0 997.5 L 1727.5 999.0 L 1727.5 1040.0 L 1726.0 1041.5 L 1710.5 1042.0 L 1710.5 1066.0 L 1720.0 1067.5 L 1813.0 1068.5 L 1812.5 1060.0 L 1814.5 1058.0 L 1814.5 1054.0 L 1812.5 1051.0 L 1812.5 1045.0 L 1814.5 1040.0 L 1812.5 1037.0 L 1812.5 1030.0 L 1814.5 1025.0 L 1811.5 1017.0 L 1816.0 1010.5 L 1828.0 1010.5 L 1830.0 999.5 L 1839.0 999.5 L 1841.5 1001.0 L 1842.0 1011.5 L 1853.0 1010.5 L 1859.5 1016.0 L 1859.5 1022.0 L 1856.5 1027.0 L 1859.5 1031.0 L 1859.5 1038.0 L 1857.5 1040.0 L 1859.5 1053.0 L 1857.5 1058.0 L 1859.5 1060.0 L 1861.0 1069.5 L 1949.5 1069.0 L 1949.5 1046.0 L 1935.5 1044.0 L 1934.5 1002.0 L 1948.5 1001.0 L 1948.5 985.0 L 1867.0 983.5 L 1865.5 982.0 L 1866.0 971.5 L 2015.0 972.5 L 2017.5 974.0"/>
    <path d="M 645.0 1060.5 L 589.0 1061.5 L 586.5 1060.0 L 586.5 973.0 L 589.0 968.5 L 645.0 968.5 L 647.5 971.0 L 646.5 1059.0 Z"/>
    <path d="M 775.0 1153.5 L 691.0 1154.5 L 652.0 1153.5 L 650.5 1152.0 L 653.5 970.0 L 655.0 968.5 L 777.0 969.5 L 778.5 971.0 L 776.5 1149.0"/>
    <path d="M 267.0 976.5 L 263.0 976.5 L 260.5 974.0 L 263.0 969.5 L 268.5 971.0"/>
    <path d="M 360.0 1149.5 L 361.5 1148.0 L 363.5 972.0 L 362.0 970.5 L 324.0 969.5 L 322.5 971.0 L 320.5 1149.0"/>
    <path d="M 551.5 1427.0 L 551.5 1362.0 L 556.5 1212.0 L 559.0 1209.5 L 807.0 1211.5 L 808.5 1218.0 L 805.5 1340.0 L 809.0 1340.5 L 810.5 1338.0 L 812.5 1215.0 L 815.0 1211.5 L 892.0 1211.5 L 893.5 1213.0 L 891.5 1290.0 L 893.0 1291.5 L 897.5 1290.0 L 898.5 1207.0 L 895.0 1205.5 L 854.0 1205.5 L 852.5 1204.0 L 857.5 972.0 L 859.0 970.5 L 1022.0 970.5 L 1041.0 971.5 L 1042.5 973.0 L 1036.5 1325.0 L 1034.0 1327.5 L 898.0 1327.5 L 896.0 1316.5 L 891.5 1317.0 L 891.5 1325.0 L 889.0 1327.5 L 862.0 1327.5 L 859.5 1429.0 L 858.0 1430.5 L 813.0 1430.5 L 808.5 1427.0 L 809.5 1367.0 L 808.0 1365.5 L 804.5 1367.0 L 804.5 1425.0 L 802.0 1430.5 L 554.0 1429.5 Z"/>
    <path d="M 2014.5 1171.0 L 2014.5 1004.0 L 2013.0 976.5 L 1870.0 974.5 L 1870.0 979.5 L 1950.0 980.5 L 1951.5 982.0 L 1953.5 1003.0 L 1953.5 1071.0 L 1952.0 1072.5 L 1848.0 1072.5 L 1841.0 1071.5 L 1838.5 1069.0 L 1838.5 1009.0 L 1837.0 1003.5 L 1832.5 1004.0 L 1832.5 1070.0 L 1831.0 1071.5 L 1711.0 1070.5 L 1707.5 1068.0 L 1707.5 979.0 L 1709.0 977.5 L 1801.0 978.5 L 1800.0 973.5 L 1507.0 970.5 L 1505.5 972.0 L 1505.5 1164.0 L 1507.0 1165.5 L 1828.0 1170.5"/>
    <path d="M 642.0 1057.5 L 643.5 1056.0 L 644.5 974.0 L 640.0 971.5 L 592.0 971.5 L 590.5 973.0 L 590.5 1057.0"/>
    <path d="M 769.0 1150.5 L 770.5 1148.0 L 767.5 1144.0 L 770.0 1143.5 L 772.5 1139.0 L 772.5 1120.0 L 766.5 1116.0 L 772.0 1113.5 L 772.5 1111.0 L 770.5 1109.0 L 771.5 1107.0 L 766.5 1105.0 L 772.5 1101.0 L 771.5 1097.0 L 773.5 1087.0 L 774.5 986.0 L 767.5 978.0 L 774.0 976.5 L 774.5 974.0 L 658.0 972.5 L 656.5 979.0 L 656.5 1061.0 L 653.5 1149.0"/>
    <path d="M 1031.0 1324.5 L 1032.5 1323.0 L 1034.5 1266.0 L 1039.5 975.0 L 861.0 973.5 L 855.5 1201.0 L 857.0 1202.5 L 901.0 1202.5 L 903.5 1206.0 L 900.5 1294.0 L 885.0 1297.5 L 878.5 1303.0 L 875.5 1311.0 L 877.0 1312.5 L 898.0 1312.5 L 900.5 1315.0 L 901.0 1323.5"/>
    <path d="M 1737.5 1434.0 L 1735.0 1436.5 L 1485.0 1434.5 L 1480.5 1431.0 L 1481.5 1373.0 L 1480.0 1370.5 L 1476.5 1371.0 L 1475.5 1432.0 L 1474.0 1433.5 L 1427.0 1433.5 L 1424.5 1431.0 L 1426.5 1332.0 L 1425.0 1330.5 L 1402.0 1330.5 L 1399.0 1319.5 L 1395.5 1321.0 L 1395.5 1328.0 L 1393.0 1330.5 L 1254.0 1328.5 L 1252.5 1327.0 L 1254.5 976.0 L 1257.0 973.5 L 1439.0 975.5 L 1440.5 977.0 L 1439.5 1208.0 L 1437.0 1210.5 L 1397.0 1209.5 L 1395.5 1211.0 L 1395.5 1294.0 L 1401.5 1293.0 L 1400.5 1221.0 L 1402.0 1215.5 L 1475.0 1216.5 L 1476.5 1219.0 L 1476.5 1344.0 L 1478.0 1345.5 L 1481.5 1343.0 L 1480.5 1222.0 L 1481.5 1218.0 L 1485.0 1215.5 L 1737.0 1220.5 L 1738.5 1223.0"/>
    <path d="M 1635.0 1162.5 L 1513.0 1160.5 L 1511.5 1159.0 L 1510.5 979.0 L 1513.0 975.5 L 1634.0 976.5 L 1636.5 978.0 L 1638.5 1158.0"/>
    <path d="M 1700.0 1069.5 L 1645.0 1069.5 L 1643.5 1068.0 L 1643.5 978.0 L 1645.0 976.5 L 1699.0 977.5 L 1701.5 979.0 L 1701.5 1068.0 Z"/>
    <path d="M 1391.0 1326.5 L 1392.0 1316.5 L 1400.0 1314.5 L 1414.0 1315.5 L 1415.5 1314.0 L 1414.5 1308.0 L 1409.0 1301.5 L 1403.0 1298.5 L 1393.0 1298.5 L 1391.5 1297.0 L 1391.5 1208.0 L 1395.0 1205.5 L 1435.0 1206.5 L 1436.5 1205.0 L 1437.5 980.0 L 1428.0 978.5 L 1259.0 977.5 L 1256.5 1325.0"/>
    <path d="M 1634.0 1158.5 L 1633.5 981.0 L 1516.0 978.5 L 1514.5 980.0 L 1514.5 1156.0 L 1516.0 1157.5"/>
    <path d="M 607.0 1022.5 L 604.5 1020.0 L 604.5 1013.0 L 608.0 1010.5 L 615.0 1011.5 L 615.5 1009.0 L 606.0 1003.5 L 604.5 1000.0 L 606.0 998.5 L 615.0 998.5 L 617.5 995.0 L 606.0 990.5 L 604.5 987.0 L 623.0 979.5 L 624.5 982.0 L 618.5 986.0 L 618.5 991.0 L 623.5 994.0 L 622.0 996.5 L 619.5 996.0 L 623.5 999.0 L 623.5 1001.0 L 619.5 1003.0 L 619.5 1010.0 L 623.5 1014.0 L 623.5 1019.0 L 621.0 1022.5 L 618.0 1022.5 L 616.5 1021.0 L 619.5 1018.0 L 619.0 1014.5 L 615.0 1018.5 L 609.0 1014.5 L 608.5 1018.0 L 610.5 1021.0 Z"/>
    <path d="M 1697.0 1066.5 L 1698.5 1065.0 L 1698.5 983.0 L 1686.0 980.5 L 1648.0 980.5 L 1646.5 983.0 L 1647.5 1065.0"/>
    <path d="M 2006.0 1166.5 L 1972.0 1166.5 L 1959.5 1164.0 L 1957.5 983.0 L 1961.0 980.5 L 2007.0 981.5 L 2008.5 983.0 L 2009.5 1163.0"/>
    <path d="M 265.0 990.5 L 260.5 987.0 L 264.0 981.5 L 268.5 984.0 L 268.5 988.0"/>
    <path d="M 198.0 1200.5 L 147.0 1201.5 L 43.0 1200.5 L 33.5 1199.0 L 32.5 1126.0 L 36.5 986.0 L 38.0 984.5 L 198.0 985.5 L 201.5 987.0 L 199.5 1199.0 Z"/>
    <path d="M 2005.0 1162.5 L 2004.5 985.0 L 1962.0 984.5 L 1960.5 988.0 L 1963.5 1100.0 L 1962.5 1160.0 L 1964.0 1162.5"/>
    <path d="M 195.0 1197.5 L 196.5 1196.0 L 195.5 1125.0 L 198.5 991.0 L 197.0 989.5 L 41.0 987.5 L 39.5 989.0 L 39.5 1048.0 L 36.5 1112.0 L 36.5 1195.0 L 38.0 1196.5"/>
    <path d="M 1677.5 989.0 L 1677.5 992.0 L 1672.5 995.0 L 1672.5 1000.0 L 1676.0 1001.5 L 1677.0 1004.5 L 1665.0 1001.5 L 1658.5 997.0 L 1662.0 993.5"/>
    <path d="M 384.0 1003.5 L 385.5 996.0 L 382.0 993.5 L 380.5 996.0 L 382.5 1000.0 L 380.5 1003.0 Z"/>
    <path d="M 821.0 1016.5 L 815.0 1016.5 L 813.5 1014.0 L 814.5 996.0 L 816.0 994.5 L 821.0 994.5 L 823.5 997.0 L 822.5 1015.0 Z"/>
    <path d="M 572.0 1005.5 L 570.5 999.0 L 572.5 996.0 L 569.0 995.5 L 566.5 1001.0 L 569.0 1005.5 Z"/>
    <path d="M 266.0 1004.5 L 260.5 1003.0 L 262.0 996.5 L 268.5 998.0 L 268.5 1002.0 Z"/>
    <path d="M 1148.0 1023.5 L 1139.5 1023.0 L 1139.5 1002.0 L 1141.0 1000.5 L 1148.0 1000.5 L 1149.5 1003.0 L 1149.5 1021.0 Z"/>
    <path d="M 2332.0 1219.5 L 2167.0 1219.5 L 2163.5 1217.0 L 2162.5 1007.0 L 2165.0 1002.5 L 2330.0 1003.5 L 2332.5 1006.0 L 2334.5 1145.0 L 2333.5 1218.0 Z"/>
    <path d="M 1721.0 1013.5 L 1722.5 1007.0 L 1721.0 1004.5 L 1717.0 1004.5 L 1719.5 1010.0 L 1716.5 1013.0"/>
    <path d="M 375.5 1011.0 L 377.0 1012.5 L 380.0 1010.5 L 387.0 1011.5 L 387.5 1007.0 L 381.0 1007.5 L 377.0 1005.5"/>
    <path d="M 1677.5 1014.0 L 1673.0 1017.5 L 1664.0 1017.5 L 1659.5 1014.0 L 1658.5 1009.0 L 1663.0 1006.5 L 1662.5 1012.0 L 1665.0 1013.5 L 1665.5 1008.0 L 1668.0 1005.5 L 1673.0 1005.5 L 1677.5 1009.0"/>
    <path d="M 2328.0 1216.5 L 2329.5 1215.0 L 2330.5 1157.0 L 2328.5 1008.0 L 2167.0 1006.5 L 2167.5 1215.0"/>
    <path d="M 577.5 1014.0 L 577.0 1007.5 L 572.0 1009.5 L 565.5 1009.0 L 566.0 1012.5 L 572.0 1011.5"/>
    <path d="M 1944.0 1018.5 L 1945.5 1015.0 L 1943.5 1012.0 L 1945.5 1009.0 L 1942.0 1007.5 L 1939.5 1014.0 L 1940.5 1017.0 Z"/>
    <path d="M 1674.5 1012.0 L 1673.0 1009.5 L 1668.5 1010.0 L 1669.0 1013.5"/>
    <path d="M 266.0 1018.5 L 260.5 1016.0 L 263.0 1010.5 L 268.5 1013.0"/>
    <path d="M 381.0 1024.5 L 385.5 1022.0 L 385.5 1016.0 L 383.0 1013.5 L 380.5 1015.0 L 382.5 1018.0"/>
    <path d="M 571.0 1025.5 L 572.5 1023.0 L 570.5 1019.0 L 572.5 1016.0 L 569.0 1015.5 L 566.5 1022.0"/>
    <path d="M 1712.5 1023.0 L 1718.0 1020.5 L 1724.0 1021.5 L 1723.5 1017.0 L 1717.0 1017.5 L 1713.0 1015.5"/>
    <path d="M 1677.0 1042.5 L 1675.0 1042.5 L 1673.0 1038.5 L 1665.0 1038.5 L 1663.0 1042.5 L 1659.5 1039.0 L 1661.0 1034.5 L 1673.0 1034.5 L 1674.5 1033.0 L 1673.0 1026.5 L 1665.0 1026.5 L 1664.5 1029.0 L 1662.0 1029.5 L 1659.5 1027.0 L 1661.0 1022.5 L 1673.0 1022.5 L 1676.0 1018.5 L 1677.5 1020.0"/>
    <path d="M 494.0 1024.5 L 496.5 1022.0 L 495.0 1019.5 L 492.5 1020.0 L 492.5 1024.0 Z"/>
    <path d="M 1950.5 1026.0 L 1949.0 1020.5 L 1944.0 1022.5 L 1938.5 1022.0 L 1939.0 1025.5 L 1945.0 1024.5"/>
    <path d="M 623.5 1034.0 L 621.0 1035.5 L 619.0 1031.5 L 610.0 1031.5 L 609.5 1034.0 L 607.0 1034.5 L 604.5 1032.0 L 604.5 1028.0 L 619.0 1027.5 L 622.0 1023.5 L 623.5 1025.0"/>
    <path d="M 264.0 1032.5 L 260.5 1030.0 L 262.0 1024.5 L 266.0 1024.5 L 268.5 1027.0 L 268.5 1029.0"/>
    <path d="M 1721.0 1034.5 L 1722.5 1027.0 L 1721.0 1024.5 L 1718.0 1024.5 L 1719.5 1030.0 L 1716.5 1033.0"/>
    <path d="M 821.0 1049.5 L 813.5 1048.0 L 813.5 1030.0 L 815.0 1028.5 L 822.5 1029.0 L 822.5 1048.0 Z"/>
    <path d="M 1945.0 1038.5 L 1946.5 1036.0 L 1943.5 1032.0 L 1945.5 1029.0 L 1942.0 1028.5 L 1940.5 1037.0"/>
    <path d="M 1853.0 1036.5 L 1854.5 1033.0 L 1851.0 1031.5 L 1850.5 1036.0 Z"/>
    <path d="M 463.0 1039.5 L 463.5 1035.0 L 461.0 1034.5 L 459.5 1037.0"/>
    <path d="M 494.0 1039.5 L 496.5 1037.0 L 495.0 1034.5 L 492.5 1035.0 L 492.5 1039.0 Z"/>
    <path d="M 1147.0 1059.5 L 1139.5 1059.0 L 1139.5 1038.0 L 1141.0 1036.5 L 1148.5 1038.0 L 1148.5 1058.0 Z"/>
    <path d="M 622.5 1048.0 L 620.0 1049.5 L 616.5 1048.0 L 619.5 1045.0 L 619.0 1041.5 L 617.0 1041.5 L 615.0 1045.5 L 609.0 1041.5 L 607.5 1044.0 L 610.5 1048.0 L 607.0 1049.5 L 603.5 1045.0 L 603.5 1042.0 L 608.0 1037.5 L 620.0 1037.5 L 623.5 1042.0"/>
    <path d="M 265.0 1046.5 L 261.0 1045.5 L 259.5 1043.0 L 262.0 1038.5 L 267.0 1038.5 L 268.5 1041.0"/>
    <path d="M 1677.5 1054.0 L 1672.0 1056.5 L 1673.5 1049.0 L 1671.0 1048.5 L 1670.5 1051.0 L 1667.0 1052.5 L 1664.0 1048.5 L 1662.5 1051.0 L 1664.5 1056.0 L 1662.0 1056.5 L 1658.5 1052.0 L 1658.5 1048.0 L 1663.0 1044.5 L 1674.0 1044.5 L 1677.5 1048.0"/>
    <path d="M 1851.0 1051.5 L 1854.5 1050.0 L 1853.0 1046.5 L 1850.5 1048.0 Z"/>
    <path d="M 686.0 1069.5 L 683.5 1063.0 L 686.0 1061.5 L 689.0 1064.5 L 693.0 1064.5 L 693.5 1062.0 L 690.0 1060.5 L 688.5 1057.0 L 693.5 1053.0 L 690.0 1051.5 L 687.0 1054.5 L 684.0 1054.5 L 683.5 1051.0 L 687.0 1048.5 L 694.0 1047.5 L 698.5 1052.0 L 696.5 1057.0 L 698.5 1061.0 L 697.5 1067.0 L 693.0 1069.5"/>
    <path d="M 746.5 1063.0 L 743.5 1065.0 L 743.0 1069.5 L 740.0 1069.5 L 738.0 1064.5 L 730.0 1064.5 L 725.0 1069.5 L 720.0 1069.5 L 716.0 1066.5 L 712.0 1069.5 L 701.0 1069.5 L 699.5 1067.0 L 705.5 1064.0 L 705.5 1055.0 L 702.0 1054.5 L 700.5 1052.0 L 707.0 1047.5 L 709.0 1048.5 L 709.5 1064.0 L 715.0 1065.5 L 717.0 1061.5 L 723.0 1065.5 L 725.5 1062.0 L 720.0 1060.5 L 719.5 1058.0 L 724.5 1053.0 L 717.0 1054.5 L 715.5 1051.0 L 718.0 1048.5 L 727.0 1048.5 L 729.5 1051.0 L 728.5 1059.0 L 730.0 1060.5 L 738.0 1049.5 L 743.0 1048.5 L 743.5 1060.0"/>
    <path d="M 494.0 1054.5 L 496.5 1052.0 L 495.0 1049.5 L 492.5 1050.0 L 492.5 1054.0 Z"/>
    <path d="M 265.0 1060.5 L 259.5 1058.0 L 262.0 1052.5 L 267.5 1054.0 L 267.5 1058.0 Z"/>
    <path d="M 1554.0 1075.5 L 1550.0 1075.5 L 1544.5 1071.0 L 1546.0 1067.5 L 1551.0 1070.5 L 1554.5 1070.0 L 1554.5 1068.0 L 1549.5 1065.0 L 1549.5 1063.0 L 1554.5 1059.0 L 1551.0 1057.5 L 1548.0 1060.5 L 1545.5 1060.0 L 1545.5 1056.0 L 1550.0 1053.5 L 1554.0 1053.5 L 1558.5 1057.0 L 1557.5 1065.0 L 1559.5 1067.0 L 1559.5 1071.0"/>
    <path d="M 1587.5 1075.0 L 1562.0 1074.5 L 1561.5 1072.0 L 1565.5 1070.0 L 1565.5 1060.0 L 1563.0 1060.5 L 1561.5 1058.0 L 1568.0 1053.5 L 1570.5 1056.0 L 1570.5 1070.0 L 1578.0 1071.5 L 1579.5 1070.0 L 1579.5 1061.0 L 1576.0 1060.5 L 1575.5 1057.0 L 1579.0 1054.5 L 1583.0 1054.5 L 1583.5 1070.0 L 1587.5 1072.0 Z"/>
    <path d="M 1597.0 1076.5 L 1594.0 1075.5 L 1589.5 1069.0 L 1589.5 1061.0 L 1594.0 1054.5 L 1600.0 1054.5 L 1603.5 1057.0 L 1603.0 1059.5 L 1596.0 1058.5 L 1594.5 1060.0 L 1595.0 1061.5 L 1602.0 1062.5 L 1604.5 1067.0 L 1602.5 1074.0"/>
    <path d="M 1821.0 1065.5 L 1821.5 1063.0 L 1819.0 1060.5 L 1817.5 1065.0 Z"/>
    <path d="M 821.0 1082.5 L 812.5 1081.0 L 813.5 1063.0 L 815.0 1061.5 L 821.0 1061.5 L 822.5 1064.0"/>
    <path d="M 1853.0 1066.5 L 1854.5 1063.0 L 1852.0 1061.5 L 1850.5 1065.0 Z"/>
    <path d="M 265.0 1073.5 L 259.5 1071.0 L 259.5 1068.0 L 263.0 1065.5 L 267.5 1068.0"/>
    <path d="M 473.5 1152.0 L 472.0 1153.5 L 373.0 1153.5 L 369.5 1149.0 L 371.5 1067.0 L 373.0 1065.5 L 474.0 1066.5"/>
    <path d="M 1598.0 1071.5 L 1599.5 1067.0 L 1595.0 1065.5 L 1594.5 1070.0 Z"/>
    <path d="M 519.0 1153.5 L 481.0 1153.5 L 478.5 1150.0 L 479.5 1069.0 L 481.0 1066.5 L 521.5 1067.0 L 521.5 1148.0"/>
    <path d="M 578.0 1153.5 L 530.0 1154.5 L 526.5 1152.0 L 527.5 1068.0 L 529.0 1066.5 L 579.0 1066.5 L 580.5 1068.0 L 579.5 1152.0 Z"/>
    <path d="M 642.0 1154.5 L 587.0 1154.5 L 584.5 1152.0 L 585.5 1070.0 L 588.0 1066.5 L 639.0 1066.5 L 645.5 1068.0 L 644.5 1152.0 Z"/>
    <path d="M 470.5 1148.0 L 470.0 1069.5 L 374.5 1070.0 L 373.5 1148.0 L 375.0 1149.5 L 467.0 1150.5"/>
    <path d="M 516.0 1150.5 L 517.5 1149.0 L 518.5 1071.0 L 516.0 1069.5 L 485.0 1069.5 L 483.5 1071.0 L 482.5 1149.0 L 484.0 1150.5"/>
    <path d="M 575.0 1150.5 L 576.5 1071.0 L 533.0 1069.5 L 530.5 1083.0 L 529.5 1149.0 L 531.0 1150.5"/>
    <path d="M 641.0 1150.5 L 641.5 1135.0 L 640.0 1133.5 L 626.5 1133.0 L 626.5 1112.0 L 629.0 1109.5 L 641.0 1109.5 L 642.5 1108.0 L 642.5 1093.0 L 641.0 1091.5 L 629.0 1092.5 L 624.5 1088.0 L 624.5 1080.0 L 631.0 1074.5 L 642.0 1075.5 L 642.5 1071.0 L 591.0 1070.5 L 589.5 1072.0 L 588.5 1150.0"/>
    <path d="M 1147.0 1094.5 L 1138.5 1093.0 L 1138.5 1074.0 L 1141.0 1071.5 L 1148.5 1073.0 L 1148.5 1092.0 Z"/>
    <path d="M 89.0 1101.5 L 84.0 1101.5 L 77.5 1096.0 L 79.0 1092.5 L 85.0 1096.5 L 89.0 1096.5 L 91.5 1094.0 L 90.0 1090.5 L 83.5 1088.0 L 90.5 1083.0 L 90.5 1080.0 L 86.0 1078.5 L 82.0 1082.5 L 78.5 1081.0 L 78.5 1079.0 L 84.0 1074.5 L 93.0 1075.5 L 95.5 1079.0 L 94.5 1089.0 L 96.5 1095.0"/>
    <path d="M 113.0 1101.5 L 98.5 1100.0 L 100.0 1096.5 L 104.5 1096.0 L 105.5 1082.0 L 99.5 1081.0 L 107.0 1074.5 L 110.5 1077.0 L 109.5 1096.0 L 115.5 1098.0"/>
    <path d="M 154.5 1079.0 L 154.5 1085.0 L 152.5 1088.0 L 155.5 1092.0 L 155.5 1096.0 L 150.0 1101.5 L 141.0 1101.5 L 136.0 1095.5 L 134.0 1095.5 L 130.0 1101.5 L 126.0 1095.5 L 116.5 1095.0 L 116.5 1091.0 L 129.0 1075.5 L 132.0 1075.5 L 133.5 1078.0 L 132.5 1090.0 L 147.0 1097.5 L 149.5 1096.0 L 149.5 1092.0 L 144.0 1090.5 L 142.5 1087.0 L 147.0 1085.5 L 149.5 1081.0 L 144.0 1079.5 L 139.0 1082.5 L 137.5 1079.0 L 142.0 1075.5 L 151.0 1075.5"/>
    <path d="M 1700.0 1162.5 L 1644.5 1162.0 L 1643.5 1077.0 L 1645.0 1075.5 L 1699.0 1075.5 L 1701.5 1077.0 L 1702.5 1159.0"/>
    <path d="M 1765.0 1163.5 L 1710.0 1163.5 L 1707.5 1161.0 L 1708.0 1076.5 L 1764.0 1076.5 L 1765.5 1078.0 L 1766.5 1162.0 Z"/>
    <path d="M 1832.0 1164.5 L 1787.0 1164.5 L 1772.5 1162.0 L 1771.5 1079.0 L 1773.0 1077.5 L 1832.0 1077.5 L 1833.5 1079.0 L 1834.5 1160.0"/>
    <path d="M 1953.5 1165.0 L 1841.0 1164.5 L 1838.5 1160.0 L 1838.5 1080.0 L 1841.0 1077.5 L 1952.0 1079.5 L 1954.5 1083.0"/>
    <path d="M 1698.0 1159.5 L 1698.5 1080.0 L 1648.0 1078.5 L 1646.5 1081.0 L 1648.0 1088.5 L 1660.0 1088.5 L 1662.5 1091.0 L 1662.5 1110.0 L 1661.0 1112.5 L 1647.5 1113.0 L 1646.5 1129.0 L 1648.0 1130.5 L 1660.0 1130.5 L 1664.5 1135.0 L 1664.5 1142.0 L 1657.0 1147.5 L 1648.0 1146.5 L 1647.5 1158.0 L 1649.0 1159.5"/>
    <path d="M 265.0 1087.5 L 261.0 1087.5 L 258.5 1085.0 L 260.0 1080.5 L 265.0 1079.5 L 267.5 1084.0"/>
    <path d="M 1761.0 1160.5 L 1762.5 1159.0 L 1762.5 1082.0 L 1761.0 1080.5 L 1712.0 1079.5 L 1710.5 1082.0 L 1711.5 1159.0"/>
    <path d="M 1829.0 1160.5 L 1830.5 1159.0 L 1829.5 1082.0 L 1828.0 1080.5 L 1776.0 1080.5 L 1775.5 1159.0 L 1777.0 1160.5"/>
    <path d="M 1950.5 1160.0 L 1950.5 1084.0 L 1949.0 1082.5 L 1842.5 1082.0 L 1842.5 1159.0 L 1845.0 1161.5 L 1949.0 1161.5 Z"/>
    <path d="M 501.0 1110.5 L 488.5 1103.0 L 490.0 1098.5 L 501.5 1097.0 L 501.0 1095.5 L 492.0 1095.5 L 488.5 1093.0 L 487.5 1088.0 L 493.0 1082.5 L 503.0 1082.5 L 507.5 1087.0 L 507.5 1091.0 L 502.5 1095.0 L 506.5 1101.0 L 503.5 1103.0 L 503.5 1107.0"/>
    <path d="M 559.0 1107.5 L 553.5 1108.0 L 556.5 1104.0 L 555.0 1100.5 L 551.0 1104.5 L 546.0 1101.5 L 546.0 1108.5 L 541.5 1107.0 L 541.5 1099.0 L 544.0 1096.5 L 551.0 1097.5 L 552.5 1096.0 L 552.0 1094.5 L 544.0 1094.5 L 541.5 1092.0 L 543.0 1083.5 L 558.0 1082.5 L 560.5 1085.0 L 560.5 1092.0 L 556.5 1095.0 L 560.5 1101.0"/>
    <path d="M 124.0 1091.5 L 128.5 1090.0 L 128.0 1085.5 L 123.5 1089.0 Z"/>
    <path d="M 503.5 1090.0 L 502.0 1086.5 L 494.0 1086.5 L 491.5 1089.0 L 496.0 1092.5"/>
    <path d="M 1740.0 1119.5 L 1737.5 1119.0 L 1739.0 1109.5 L 1736.0 1109.5 L 1734.0 1114.5 L 1732.0 1114.5 L 1728.0 1109.5 L 1726.5 1111.0 L 1728.0 1118.5 L 1722.5 1115.0 L 1723.5 1107.0 L 1728.5 1104.0 L 1722.5 1098.0 L 1722.5 1094.0 L 1726.0 1089.5 L 1740.0 1089.5 L 1744.5 1095.0 L 1743.5 1100.0 L 1737.5 1103.0 L 1743.5 1108.0 L 1743.5 1116.0"/>
    <path d="M 1809.5 1100.0 L 1805.0 1103.5 L 1798.0 1101.5 L 1792.0 1102.5 L 1788.5 1099.0 L 1788.5 1093.0 L 1792.0 1089.5 L 1806.0 1089.5 L 1809.5 1093.0"/>
    <path d="M 1740.5 1097.0 L 1736.0 1092.5 L 1729.0 1092.5 L 1726.5 1095.0 L 1726.5 1098.0 L 1729.0 1099.5 L 1738.0 1099.5 Z"/>
    <path d="M 264.0 1101.5 L 258.5 1099.0 L 259.5 1095.0 L 265.0 1093.5 L 266.5 1096.0"/>
    <path d="M 400.0 1116.5 L 392.0 1116.5 L 388.5 1113.0 L 390.0 1109.5 L 395.0 1112.5 L 399.5 1112.0 L 399.5 1108.0 L 393.5 1106.0 L 393.5 1104.0 L 398.5 1101.0 L 398.5 1098.0 L 396.0 1097.5 L 392.0 1100.5 L 388.5 1099.0 L 394.0 1093.5 L 402.0 1094.5 L 404.5 1099.0 L 402.5 1103.0 L 404.5 1112.0"/>
    <path d="M 421.0 1116.5 L 407.5 1116.0 L 407.5 1113.0 L 411.0 1112.5 L 412.5 1110.0 L 412.5 1101.0 L 408.0 1100.5 L 407.5 1098.0 L 413.0 1093.5 L 416.0 1093.5 L 417.5 1096.0 L 416.5 1111.0 L 422.5 1115.0 Z"/>
    <path d="M 436.0 1116.5 L 433.0 1116.5 L 431.0 1112.5 L 422.5 1111.0 L 424.5 1105.0 L 433.0 1093.5 L 436.5 1095.0 L 436.5 1107.0 L 439.5 1110.0"/>
    <path d="M 455.0 1116.5 L 442.0 1116.5 L 440.5 1115.0 L 451.5 1102.0 L 449.0 1097.5 L 442.0 1100.5 L 441.5 1097.0 L 444.0 1094.5 L 451.0 1093.5 L 455.5 1097.0 L 454.5 1105.0 L 447.5 1111.0 L 448.0 1112.5 L 455.0 1112.5 L 456.5 1114.0 Z"/>
    <path d="M 1804.0 1099.5 L 1805.5 1094.0 L 1802.0 1093.5 L 1800.5 1097.0"/>
    <path d="M 2223.0 1120.5 L 2215.0 1119.5 L 2210.5 1114.0 L 2212.0 1111.5 L 2218.0 1115.5 L 2223.5 1114.0 L 2223.5 1111.0 L 2216.5 1107.0 L 2222.5 1103.0 L 2222.5 1099.0 L 2219.0 1098.5 L 2216.0 1101.5 L 2211.5 1101.0 L 2212.5 1096.0 L 2218.0 1093.5 L 2224.0 1094.5 L 2228.5 1098.0 L 2228.5 1104.0 L 2226.5 1107.0 L 2229.5 1110.0 L 2229.5 1115.0"/>
    <path d="M 2268.5 1119.0 L 2267.0 1120.5 L 2232.0 1119.5 L 2233.0 1115.5 L 2237.5 1115.0 L 2237.5 1102.0 L 2233.0 1101.5 L 2231.5 1100.0 L 2238.0 1094.5 L 2242.5 1096.0 L 2242.5 1115.0 L 2250.0 1116.5 L 2262.5 1102.0 L 2260.0 1098.5 L 2257.0 1098.5 L 2255.0 1101.5 L 2251.0 1101.5 L 2250.5 1098.0 L 2258.0 1093.5 L 2265.0 1095.5 L 2267.5 1102.0 L 2257.5 1115.0 L 2265.0 1115.5"/>
    <path d="M 2286.0 1120.5 L 2272.0 1120.5 L 2270.5 1119.0 L 2271.0 1116.5 L 2276.5 1115.0 L 2276.5 1102.0 L 2270.5 1100.0 L 2277.0 1094.5 L 2282.5 1097.0 L 2282.5 1115.0 L 2287.5 1118.0 Z"/>
    <path d="M 819.0 1116.5 L 812.5 1115.0 L 812.5 1097.0 L 814.0 1095.5 L 821.5 1097.0 L 821.5 1114.0 Z"/>
    <path d="M 1655.0 1105.5 L 1656.5 1097.0 L 1653.0 1095.5 L 1651.5 1098.0 L 1653.5 1101.0 L 1651.5 1104.0 Z"/>
    <path d="M 1735.5 1105.0 L 1735.0 1103.5 L 1729.5 1104.0 L 1732.0 1106.5 Z"/>
    <path d="M 1809.5 1118.0 L 1805.0 1118.5 L 1798.0 1110.5 L 1794.0 1109.5 L 1792.5 1113.0 L 1794.5 1118.0 L 1792.0 1118.5 L 1788.5 1115.0 L 1788.5 1108.0 L 1792.0 1105.5 L 1797.0 1105.5 L 1805.0 1111.5 L 1805.5 1106.0 L 1808.0 1104.5 L 1809.5 1106.0"/>
    <path d="M 1874.0 1128.5 L 1867.0 1128.5 L 1862.5 1125.0 L 1863.0 1121.5 L 1866.0 1121.5 L 1869.0 1124.5 L 1873.5 1123.0 L 1873.5 1120.0 L 1867.5 1117.0 L 1869.0 1114.5 L 1872.5 1114.0 L 1872.5 1110.0 L 1869.0 1109.5 L 1866.0 1112.5 L 1862.5 1111.0 L 1862.5 1109.0 L 1867.0 1105.5 L 1874.0 1105.5 L 1877.5 1109.0 L 1876.5 1117.0 L 1878.5 1124.0"/>
    <path d="M 1894.0 1128.5 L 1882.0 1128.5 L 1880.5 1127.0 L 1881.0 1124.5 L 1886.5 1123.0 L 1886.5 1113.0 L 1882.0 1112.5 L 1881.5 1110.0 L 1887.0 1105.5 L 1890.5 1107.0 L 1890.5 1123.0 L 1895.5 1126.0 Z"/>
    <path d="M 1912.0 1128.5 L 1899.0 1128.5 L 1897.5 1127.0 L 1898.5 1123.0 L 1907.5 1115.0 L 1906.0 1109.5 L 1900.0 1113.5 L 1898.0 1112.5 L 1899.0 1107.5 L 1908.0 1105.5 L 1911.5 1109.0 L 1911.5 1116.0 L 1904.5 1124.0 L 1911.0 1124.5 L 1913.5 1127.0 Z"/>
    <path d="M 1925.0 1129.5 L 1919.0 1128.5 L 1914.5 1122.0 L 1914.5 1113.0 L 1916.5 1109.0 L 1922.0 1105.5 L 1927.0 1106.5 L 1930.5 1110.0 L 1929.0 1112.5 L 1924.0 1110.5 L 1920.5 1112.0 L 1927.0 1114.5 L 1931.5 1120.0 L 1929.5 1127.0"/>
    <path d="M 265.0 1114.5 L 258.5 1113.0 L 261.0 1107.5 L 266.5 1109.0"/>
    <path d="M 1147.0 1130.5 L 1138.5 1130.0 L 1138.5 1110.0 L 1141.0 1107.5 L 1147.5 1109.0"/>
    <path d="M 560.5 1121.0 L 557.0 1122.5 L 555.0 1118.5 L 547.0 1118.5 L 546.5 1121.0 L 544.0 1121.5 L 540.5 1116.0 L 543.0 1113.5 L 553.0 1114.5 L 559.0 1110.5 L 560.5 1112.0"/>
    <path d="M 506.5 1112.0 L 506.0 1122.5 L 504.0 1122.5 L 502.0 1118.5 L 494.0 1118.5 L 492.0 1122.5 L 487.5 1117.0 L 490.0 1114.5 L 503.0 1114.5 L 505.0 1111.5 Z"/>
    <path d="M 635.0 1126.5 L 636.5 1125.0 L 634.5 1123.0 L 636.0 1116.5 L 631.5 1119.0 L 631.5 1124.0"/>
    <path d="M 1923.0 1125.5 L 1926.5 1121.0 L 1925.0 1118.5 L 1921.0 1117.5 L 1919.5 1123.0"/>
    <path d="M 1743.5 1133.0 L 1741.0 1133.5 L 1739.0 1129.5 L 1730.0 1129.5 L 1727.0 1133.5 L 1722.5 1126.0 L 1739.0 1125.5 L 1742.0 1120.5 L 1743.5 1122.0"/>
    <path d="M 1809.5 1133.0 L 1807.0 1133.5 L 1805.0 1129.5 L 1796.0 1128.5 L 1793.0 1133.5 L 1790.5 1132.0 L 1788.5 1126.0 L 1790.0 1124.5 L 1804.0 1125.5 L 1808.0 1120.5 L 1809.5 1122.0"/>
    <path d="M 265.0 1128.5 L 258.5 1127.0 L 261.0 1121.5 L 266.5 1124.0"/>
    <path d="M 506.5 1135.0 L 504.0 1137.5 L 500.5 1137.0 L 502.5 1132.0 L 501.0 1128.5 L 497.0 1133.5 L 492.0 1129.5 L 493.5 1136.0 L 490.0 1136.5 L 487.5 1133.0 L 487.5 1128.0 L 491.0 1124.5 L 503.0 1124.5 L 506.5 1127.0"/>
    <path d="M 559.5 1134.0 L 555.0 1137.5 L 553.5 1136.0 L 556.5 1131.0 L 555.0 1128.5 L 553.0 1128.5 L 551.0 1132.5 L 545.0 1129.5 L 546.5 1136.0 L 543.0 1136.5 L 540.5 1134.0 L 540.5 1128.0 L 544.0 1124.5 L 557.0 1124.5 L 560.5 1130.0"/>
    <path d="M 819.0 1149.5 L 811.5 1148.0 L 811.5 1131.0 L 813.0 1128.5 L 821.5 1130.0 L 820.5 1148.0 Z"/>
    <path d="M 919.0 1156.5 L 914.0 1156.5 L 908.5 1152.0 L 910.0 1147.5 L 916.0 1151.5 L 921.5 1149.0 L 920.0 1145.5 L 914.5 1144.0 L 915.0 1140.5 L 920.5 1139.0 L 920.5 1135.0 L 917.0 1133.5 L 912.0 1137.5 L 909.5 1137.0 L 909.5 1133.0 L 913.0 1129.5 L 922.0 1129.5 L 926.5 1135.0 L 923.5 1142.0 L 926.5 1146.0 L 926.5 1150.0"/>
    <path d="M 944.0 1156.5 L 931.0 1156.5 L 929.5 1155.0 L 931.0 1151.5 L 935.5 1150.0 L 935.5 1137.0 L 931.0 1137.5 L 930.5 1135.0 L 937.0 1129.5 L 940.5 1131.0 L 940.5 1151.0 L 946.5 1153.0"/>
    <path d="M 959.0 1156.5 L 954.0 1156.5 L 948.5 1153.0 L 949.0 1147.5 L 955.0 1151.5 L 960.5 1150.0 L 959.0 1145.5 L 953.5 1144.0 L 953.5 1141.0 L 959.0 1139.5 L 960.5 1136.0 L 959.0 1134.5 L 955.0 1134.5 L 952.0 1137.5 L 948.5 1136.0 L 948.5 1134.0 L 954.0 1129.5 L 960.0 1129.5 L 965.5 1135.0 L 963.5 1141.0 L 965.5 1151.0"/>
    <path d="M 979.0 1156.5 L 973.0 1156.5 L 967.5 1152.0 L 967.5 1149.0 L 970.0 1147.5 L 976.0 1152.5 L 980.5 1150.0 L 978.0 1145.5 L 973.5 1145.0 L 973.5 1141.0 L 979.0 1139.5 L 979.5 1136.0 L 974.0 1134.5 L 972.0 1137.5 L 968.5 1137.0 L 968.5 1134.0 L 973.0 1129.5 L 982.0 1130.5 L 985.5 1136.0 L 983.5 1141.0 L 985.5 1150.0"/>
    <path d="M 1321.0 1156.5 L 1314.0 1156.5 L 1308.5 1152.0 L 1308.5 1149.0 L 1311.0 1147.5 L 1317.0 1152.5 L 1321.5 1150.0 L 1320.0 1145.5 L 1314.5 1144.0 L 1316.0 1140.5 L 1320.5 1139.0 L 1320.5 1136.0 L 1316.0 1134.5 L 1312.0 1138.5 L 1308.5 1136.0 L 1314.0 1129.5 L 1323.0 1130.5 L 1326.5 1136.0 L 1324.5 1142.0 L 1326.5 1151.0"/>
    <path d="M 1345.0 1156.5 L 1331.0 1156.5 L 1329.5 1155.0 L 1335.5 1151.0 L 1335.5 1138.0 L 1331.0 1138.5 L 1330.5 1135.0 L 1337.0 1129.5 L 1340.5 1131.0 L 1340.5 1151.0 L 1346.5 1154.0 Z"/>
    <path d="M 1358.0 1157.5 L 1352.0 1156.5 L 1348.5 1153.0 L 1349.0 1148.5 L 1352.0 1148.5 L 1355.0 1152.5 L 1360.5 1151.0 L 1360.5 1148.0 L 1353.5 1144.0 L 1353.5 1142.0 L 1359.0 1140.5 L 1360.5 1137.0 L 1355.0 1134.5 L 1351.0 1138.5 L 1348.5 1138.0 L 1349.5 1133.0 L 1355.0 1129.5 L 1363.0 1131.5 L 1365.5 1136.0 L 1363.5 1142.0 L 1366.5 1149.0 L 1363.0 1155.5"/>
    <path d="M 1384.0 1157.5 L 1371.0 1157.5 L 1368.5 1155.0 L 1370.0 1152.5 L 1375.5 1151.0 L 1374.5 1138.0 L 1369.5 1138.0 L 1370.5 1134.0 L 1375.0 1130.5 L 1379.5 1131.0 L 1379.5 1152.0 L 1385.5 1154.0 Z"/>
    <path d="M 263.0 1142.5 L 258.5 1141.0 L 258.5 1137.0 L 262.0 1134.5 L 266.5 1137.0 L 266.5 1140.0"/>
    <path d="M 1743.5 1148.0 L 1741.0 1150.5 L 1737.5 1150.0 L 1740.5 1144.0 L 1739.0 1140.5 L 1737.0 1140.5 L 1734.0 1145.5 L 1728.0 1141.5 L 1726.5 1144.0 L 1729.5 1149.0 L 1727.0 1150.5 L 1722.5 1145.0 L 1722.5 1141.0 L 1726.0 1136.5 L 1734.0 1137.5 L 1739.0 1135.5 L 1743.5 1139.0"/>
    <path d="M 1810.5 1144.0 L 1808.5 1149.0 L 1804.0 1150.5 L 1805.5 1142.0 L 1803.0 1140.5 L 1801.5 1144.0 L 1798.0 1145.5 L 1794.0 1140.5 L 1792.5 1144.0 L 1795.5 1149.0 L 1793.0 1150.5 L 1788.5 1146.0 L 1788.5 1140.0 L 1792.0 1136.5 L 1806.0 1136.5"/>
    <path d="M 1146.0 1166.5 L 1138.5 1166.0 L 1139.0 1143.5 L 1147.5 1144.0 L 1147.5 1165.0 Z"/>
    <path d="M 264.0 1156.5 L 258.5 1155.0 L 258.5 1151.0 L 261.0 1148.5 L 266.5 1151.0"/>
    <path d="M 798.0 1186.5 L 796.5 1179.0 L 810.0 1175.5 L 811.5 1163.0 L 819.0 1161.5 L 820.5 1163.0 L 819.5 1178.0 L 805.0 1188.5"/>
    <path d="M 264.0 1170.5 L 258.5 1169.0 L 258.5 1165.0 L 261.0 1162.5 L 265.0 1163.5 L 266.5 1166.0"/>
    <path d="M 1109.5 1174.0 L 1108.0 1164.5 L 1050.0 1163.5 L 1048.5 1166.0 L 1050.0 1175.5 L 1108.0 1175.5 Z"/>
    <path d="M 1244.5 1176.0 L 1244.0 1165.5 L 1186.0 1165.5 L 1184.5 1167.0 L 1185.0 1176.5 L 1243.0 1177.5 Z"/>
    <path d="M 271.0 1179.5 L 266.5 1176.0 L 269.0 1171.5 L 274.5 1173.0 L 274.5 1177.0"/>
    <path d="M 286.0 1179.5 L 282.0 1178.5 L 280.5 1176.0 L 284.0 1171.5 L 288.5 1174.0"/>
    <path d="M 300.0 1179.5 L 294.5 1177.0 L 298.0 1171.5 L 302.5 1173.0 L 302.5 1177.0 Z"/>
    <path d="M 315.0 1179.5 L 311.0 1179.5 L 308.5 1176.0 L 312.0 1171.5 L 316.5 1173.0"/>
    <path d="M 329.0 1179.5 L 323.5 1178.0 L 325.0 1172.5 L 329.0 1172.5 L 331.5 1175.0"/>
    <path d="M 344.0 1179.5 L 337.5 1178.0 L 340.0 1172.5 L 345.5 1174.0"/>
    <path d="M 358.0 1179.5 L 354.0 1179.5 L 351.5 1177.0 L 354.0 1172.5 L 359.5 1174.0"/>
    <path d="M 371.0 1180.5 L 366.5 1179.0 L 366.5 1175.0 L 369.0 1172.5 L 374.5 1175.0 L 373.5 1179.0 Z"/>
    <path d="M 387.0 1179.5 L 383.0 1180.5 L 380.5 1178.0 L 382.0 1172.5 L 386.0 1172.5 L 388.5 1175.0"/>
    <path d="M 400.0 1180.5 L 394.5 1178.0 L 397.0 1172.5 L 402.5 1175.0"/>
    <path d="M 414.0 1180.5 L 411.0 1180.5 L 408.5 1177.0 L 412.0 1172.5 L 416.5 1174.0 L 416.5 1178.0 Z"/>
    <path d="M 429.0 1180.5 L 423.5 1179.0 L 425.0 1172.5 L 430.5 1174.0 L 431.5 1177.0"/>
    <path d="M 457.0 1180.5 L 451.5 1178.0 L 452.5 1174.0 L 455.0 1172.5 L 459.5 1175.0 L 459.5 1179.0 Z"/>
    <path d="M 472.0 1180.5 L 468.0 1180.5 L 465.5 1178.0 L 469.0 1172.5 L 471.0 1172.5 L 474.5 1177.0"/>
    <path d="M 659.0 1182.5 L 653.0 1181.5 L 651.5 1179.0 L 652.5 1175.0 L 657.0 1172.5 L 660.5 1175.0"/>
    <path d="M 443.0 1180.5 L 437.5 1179.0 L 440.0 1173.5 L 445.5 1175.0"/>
    <path d="M 486.0 1180.5 L 480.5 1179.0 L 482.0 1173.5 L 487.5 1174.0 L 488.5 1177.0"/>
    <path d="M 501.0 1180.5 L 494.5 1179.0 L 496.0 1173.5 L 502.5 1175.0"/>
    <path d="M 513.0 1181.5 L 508.5 1179.0 L 511.0 1173.5 L 516.5 1175.0 L 516.5 1179.0"/>
    <path d="M 529.0 1180.5 L 523.5 1180.0 L 522.5 1178.0 L 525.0 1173.5 L 530.5 1175.0 L 531.5 1177.0"/>
    <path d="M 544.0 1180.5 L 540.0 1181.5 L 537.5 1179.0 L 539.0 1173.5 L 543.0 1173.5 L 545.5 1176.0"/>
    <path d="M 559.0 1180.5 L 554.0 1181.5 L 551.5 1176.0 L 554.0 1173.5 L 558.0 1173.5 L 559.5 1175.0"/>
    <path d="M 571.0 1181.5 L 565.5 1179.0 L 568.0 1173.5 L 573.5 1176.0"/>
    <path d="M 585.0 1181.5 L 579.5 1179.0 L 582.0 1173.5 L 586.0 1173.5 L 588.5 1176.0"/>
    <path d="M 599.0 1181.5 L 593.5 1178.0 L 596.0 1173.5 L 601.5 1175.0 L 601.5 1179.0 Z"/>
    <path d="M 613.0 1181.5 L 607.5 1179.0 L 611.0 1173.5 L 616.5 1176.0 L 616.5 1179.0"/>
    <path d="M 628.0 1181.5 L 622.5 1179.0 L 622.5 1176.0 L 626.0 1173.5 L 630.5 1176.0"/>
    <path d="M 643.0 1181.5 L 639.0 1181.5 L 636.5 1179.0 L 638.0 1174.5 L 643.0 1173.5 L 644.5 1175.0"/>
    <path d="M 701.5 1185.0 L 701.5 1179.0 L 704.0 1176.5 L 719.0 1176.5 L 721.5 1178.0 L 721.0 1185.5 L 704.0 1186.5 Z"/>
    <path d="M 733.5 1185.0 L 733.5 1178.0 L 736.0 1176.5 L 751.0 1176.5 L 753.5 1178.0 L 752.0 1185.5 L 735.0 1186.5 Z"/>
    <path d="M 785.5 1184.0 L 783.0 1186.5 L 767.0 1186.5 L 764.5 1183.0 L 765.5 1178.0 L 768.0 1176.5 L 785.0 1177.5"/>
    <path d="M 1109.5 1188.0 L 1108.0 1178.5 L 1050.0 1178.5 L 1048.5 1180.0 L 1049.0 1189.5 L 1108.0 1190.5 Z"/>
    <path d="M 1146.0 1202.5 L 1137.5 1201.0 L 1137.5 1182.0 L 1139.0 1179.5 L 1147.5 1181.0"/>
    <path d="M 1244.5 1191.0 L 1244.5 1182.0 L 1243.0 1180.5 L 1184.5 1181.0 L 1184.5 1190.0 L 1186.0 1191.5"/>
    <path d="M 1108.5 1204.0 L 1108.0 1193.5 L 1048.5 1194.0 L 1049.0 1204.5 L 1107.0 1205.5 Z"/>
    <path d="M 1244.5 1206.0 L 1244.0 1195.5 L 1186.0 1194.5 L 1184.5 1196.0 L 1185.0 1206.5 L 1242.0 1207.5 Z"/>
    <path d="M 236.0 1424.5 L 96.0 1423.5 L 86.5 1421.0 L 91.5 1313.0 L 92.5 1207.0 L 94.0 1205.5 L 240.0 1206.5 L 243.5 1209.0 L 241.5 1339.0 L 238.5 1422.0 Z"/>
    <path d="M 391.0 1426.5 L 244.5 1425.0 L 243.5 1400.0 L 248.5 1284.0 L 248.5 1210.0 L 250.0 1207.5 L 396.0 1208.5 L 397.5 1210.0 L 392.5 1423.0 Z"/>
    <path d="M 545.0 1428.5 L 399.0 1427.5 L 396.5 1425.0 L 403.0 1209.5 L 549.0 1209.5 L 551.5 1212.0"/>
    <path d="M 1108.5 1220.0 L 1108.0 1208.5 L 1048.5 1209.0 L 1049.0 1220.5"/>
    <path d="M 234.0 1420.5 L 238.5 1318.0 L 240.5 1212.0 L 239.0 1210.5 L 97.0 1209.5 L 95.5 1211.0 L 94.5 1340.0 L 90.5 1418.0 L 92.0 1419.5"/>
    <path d="M 387.0 1423.5 L 388.5 1422.0 L 393.5 1213.0 L 254.0 1210.5 L 252.5 1212.0 L 251.5 1308.0 L 247.5 1421.0"/>
    <path d="M 1244.5 1221.0 L 1244.5 1212.0 L 1243.0 1210.5 L 1184.5 1211.0 L 1185.0 1221.5 L 1243.0 1222.5 Z"/>
    <path d="M 541.0 1425.5 L 542.5 1424.0 L 542.5 1362.0 L 547.5 1214.0 L 407.0 1212.5 L 405.5 1214.0 L 400.5 1423.0"/>
    <path d="M 800.5 1426.0 L 800.5 1364.0 L 803.0 1361.5 L 825.5 1362.0 L 824.5 1355.0 L 820.0 1349.5 L 813.0 1345.5 L 801.5 1343.0 L 804.0 1214.5 L 560.5 1214.0 L 554.5 1424.0 L 556.0 1425.5"/>
    <path d="M 855.0 1426.5 L 856.5 1425.0 L 857.5 1327.0 L 860.0 1323.5 L 887.5 1323.0 L 886.0 1315.5 L 875.0 1316.5 L 871.5 1314.0 L 871.5 1309.0 L 874.5 1302.0 L 882.0 1294.5 L 888.5 1291.0 L 889.5 1215.0 L 818.0 1214.5 L 816.5 1216.0 L 813.5 1341.0 L 826.5 1351.0 L 830.5 1364.0 L 828.0 1366.5 L 813.5 1367.0 L 812.5 1426.0"/>
    <path d="M 1145.0 1239.5 L 1137.5 1239.0 L 1137.5 1217.0 L 1139.0 1215.5 L 1146.5 1217.0 L 1146.5 1238.0 Z"/>
    <path d="M 1471.0 1430.5 L 1472.5 1429.0 L 1472.5 1371.0 L 1458.0 1370.5 L 1455.5 1366.0 L 1459.5 1355.0 L 1472.5 1345.0 L 1472.5 1220.0 L 1405.0 1218.5 L 1404.5 1295.0 L 1410.0 1297.5 L 1416.5 1304.0 L 1420.5 1316.0 L 1419.0 1318.5 L 1405.0 1318.5 L 1404.5 1326.0 L 1406.0 1327.5 L 1429.0 1327.5 L 1430.5 1331.0 L 1428.5 1429.0 L 1430.0 1430.5"/>
    <path d="M 1733.5 1432.0 L 1734.0 1223.5 L 1484.5 1220.0 L 1484.5 1348.0 L 1469.0 1351.5 L 1462.5 1358.0 L 1460.5 1366.0 L 1483.0 1366.5 L 1484.5 1368.0 L 1485.0 1430.5"/>
    <path d="M 1921.0 1437.5 L 1745.0 1436.5 L 1742.5 1434.0 L 1743.5 1222.0 L 1745.0 1220.5 L 1923.0 1222.5 L 1924.5 1224.0 L 1922.5 1436.0 Z"/>
    <path d="M 2105.0 1438.5 L 1933.0 1438.5 L 1927.5 1435.0 L 1929.5 1226.0 L 1931.0 1223.5 L 1994.0 1222.5 L 2102.0 1223.5 L 2110.5 1225.0 L 2107.5 1436.0 Z"/>
    <path d="M 1108.5 1234.0 L 1108.5 1225.0 L 1107.0 1223.5 L 1049.0 1223.5 L 1047.5 1225.0 L 1048.0 1234.5 L 1107.0 1235.5 Z"/>
    <path d="M 1917.0 1434.5 L 1918.5 1433.0 L 1920.5 1227.0 L 1919.0 1225.5 L 1748.0 1223.5 L 1746.5 1225.0 L 1746.5 1432.0 L 1754.0 1433.5"/>
    <path d="M 1244.5 1232.0 L 1243.0 1225.5 L 1186.0 1224.5 L 1184.5 1226.0 L 1185.0 1236.5 L 1242.0 1237.5"/>
    <path d="M 2280.0 1439.5 L 2115.0 1438.5 L 2112.5 1437.0 L 2115.5 1228.0 L 2118.0 1224.5 L 2284.0 1224.5 L 2286.5 1227.0 L 2282.5 1437.0 Z"/>
    <path d="M 2103.0 1434.5 L 2107.5 1229.0 L 2106.0 1227.5 L 1935.0 1225.5 L 1933.5 1227.0 L 1931.5 1433.0 L 1933.0 1434.5"/>
    <path d="M 2278.0 1435.5 L 2282.5 1230.0 L 2281.0 1228.5 L 2121.0 1227.5 L 2119.5 1229.0 L 2118.5 1348.0 L 2115.5 1433.0 L 2117.0 1434.5"/>
    <path d="M 1108.5 1249.0 L 1108.5 1240.0 L 1107.0 1238.5 L 1047.5 1239.0 L 1047.5 1249.0 L 1049.0 1250.5 L 1107.0 1250.5 Z"/>
    <path d="M 1243.5 1252.0 L 1243.0 1240.5 L 1186.0 1239.5 L 1183.5 1242.0 L 1185.0 1251.5"/>
    <path d="M 1145.0 1275.5 L 1136.5 1274.0 L 1136.5 1255.0 L 1139.0 1252.5 L 1146.5 1255.0 L 1146.5 1273.0 Z"/>
    <path d="M 1108.5 1264.0 L 1108.5 1255.0 L 1107.0 1253.5 L 1047.5 1254.0 L 1048.0 1264.5 L 1107.0 1265.5 Z"/>
    <path d="M 1243.5 1266.0 L 1243.0 1255.5 L 1186.0 1254.5 L 1183.5 1257.0 L 1184.0 1266.5 L 1242.0 1267.5 Z"/>
    <path d="M 1108.5 1273.0 L 1107.0 1268.5 L 1048.0 1268.5 L 1047.5 1279.0 L 1049.0 1280.5 L 1107.0 1280.5"/>
    <path d="M 1243.5 1282.0 L 1243.0 1270.5 L 1183.5 1271.0 L 1184.0 1281.5"/>
    <path d="M 1107.5 1295.0 L 1107.0 1283.5 L 1048.0 1283.5 L 1046.5 1286.0 L 1048.0 1295.5"/>
    <path d="M 1243.5 1297.0 L 1243.0 1285.5 L 1183.5 1286.0 L 1183.5 1296.0 L 1185.0 1297.5"/>
    <path d="M 141.0 1322.5 L 133.0 1322.5 L 127.5 1317.0 L 129.0 1314.5 L 132.0 1314.5 L 136.0 1318.5 L 140.5 1317.0 L 140.5 1313.0 L 133.5 1310.0 L 135.0 1306.5 L 140.5 1305.0 L 140.5 1302.0 L 136.0 1300.5 L 132.0 1304.5 L 128.5 1303.0 L 129.5 1299.0 L 136.0 1295.5 L 142.0 1296.5 L 146.5 1303.0 L 143.5 1309.0 L 146.5 1316.0"/>
    <path d="M 164.0 1323.5 L 150.0 1323.5 L 148.5 1322.0 L 150.0 1318.5 L 154.5 1317.0 L 155.5 1304.0 L 151.0 1304.5 L 149.5 1302.0 L 155.0 1296.5 L 159.5 1297.0 L 159.5 1317.0 L 165.5 1320.0 Z"/>
    <path d="M 181.0 1323.5 L 178.5 1323.0 L 176.0 1317.5 L 166.5 1317.0 L 167.5 1311.0 L 179.0 1296.5 L 183.5 1298.0 L 182.5 1312.0 L 186.5 1315.0"/>
    <path d="M 204.0 1323.5 L 188.5 1323.0 L 188.5 1320.0 L 194.5 1317.0 L 194.5 1305.0 L 190.0 1304.5 L 188.5 1302.0 L 196.0 1296.5 L 199.5 1298.0 L 199.5 1318.0 L 204.5 1320.0 Z"/>
    <path d="M 295.0 1324.5 L 287.0 1324.5 L 282.5 1321.0 L 283.0 1316.5 L 286.0 1316.5 L 290.0 1320.5 L 294.5 1319.0 L 294.5 1315.0 L 288.5 1313.0 L 288.5 1310.0 L 293.0 1308.5 L 294.5 1304.0 L 291.0 1302.5 L 286.0 1306.5 L 282.5 1304.0 L 286.0 1299.5 L 291.0 1297.5 L 298.0 1299.5 L 300.5 1303.0 L 298.5 1310.0 L 300.5 1320.0"/>
    <path d="M 318.0 1325.5 L 302.5 1325.0 L 304.0 1320.5 L 309.5 1319.0 L 309.5 1306.0 L 305.0 1306.5 L 303.5 1304.0 L 310.0 1298.5 L 314.5 1300.0 L 313.5 1320.0 L 319.5 1322.0 Z"/>
    <path d="M 333.0 1325.5 L 327.0 1325.5 L 321.5 1322.0 L 324.0 1316.5 L 329.0 1321.5 L 334.5 1319.0 L 332.0 1314.5 L 327.5 1314.0 L 327.5 1310.0 L 333.0 1308.5 L 334.5 1306.0 L 332.0 1303.5 L 329.0 1303.5 L 326.0 1306.5 L 321.5 1305.0 L 328.0 1298.5 L 334.0 1298.5 L 339.5 1303.0 L 337.5 1311.0 L 339.5 1320.0"/>
    <path d="M 346.0 1326.5 L 342.5 1320.0 L 345.0 1318.5 L 350.0 1321.5 L 353.5 1317.0 L 344.0 1315.5 L 341.5 1306.0 L 346.0 1299.5 L 352.0 1298.5 L 358.5 1304.0 L 358.5 1318.0 L 353.0 1325.5"/>
    <path d="M 443.0 1327.5 L 436.5 1323.0 L 436.5 1320.0 L 440.0 1318.5 L 443.0 1322.5 L 447.0 1322.5 L 449.5 1320.0 L 448.0 1316.5 L 442.5 1315.0 L 442.5 1312.0 L 447.0 1310.5 L 448.5 1306.0 L 443.0 1305.5 L 440.0 1308.5 L 436.5 1306.0 L 440.0 1301.5 L 447.0 1299.5 L 453.5 1304.0 L 454.5 1307.0 L 452.5 1314.0 L 454.5 1322.0 L 450.0 1326.5"/>
    <path d="M 472.0 1327.5 L 458.0 1327.5 L 456.5 1326.0 L 459.0 1322.5 L 463.5 1321.0 L 463.5 1308.0 L 460.0 1308.5 L 458.5 1306.0 L 464.0 1300.5 L 468.5 1301.0 L 468.5 1322.0 L 474.5 1325.0 Z"/>
    <path d="M 487.0 1327.5 L 481.0 1327.5 L 475.5 1322.0 L 478.0 1318.5 L 484.0 1323.5 L 488.5 1321.0 L 487.0 1316.5 L 481.5 1315.0 L 481.5 1313.0 L 487.0 1310.5 L 488.5 1307.0 L 487.0 1305.5 L 483.0 1305.5 L 480.0 1308.5 L 476.5 1307.0 L 476.5 1305.0 L 482.0 1300.5 L 491.0 1301.5 L 494.5 1308.0 L 491.5 1313.0 L 493.5 1316.0 L 493.5 1322.0"/>
    <path d="M 502.0 1328.5 L 500.5 1321.0 L 507.5 1306.0 L 497.0 1305.5 L 495.5 1303.0 L 498.0 1300.5 L 513.0 1301.5 L 514.5 1304.0 L 507.5 1316.0 L 505.5 1327.0 Z"/>
    <path d="M 654.0 1328.5 L 646.0 1328.5 L 641.5 1325.0 L 643.0 1319.5 L 648.0 1324.5 L 652.0 1324.5 L 654.5 1322.0 L 653.0 1318.5 L 647.5 1316.0 L 649.0 1312.5 L 653.5 1311.0 L 653.5 1308.0 L 649.0 1306.5 L 645.0 1310.5 L 641.5 1309.0 L 641.5 1307.0 L 649.0 1301.5 L 656.0 1302.5 L 659.5 1307.0 L 657.5 1314.0 L 659.5 1324.0"/>
    <path d="M 664.0 1329.5 L 661.5 1327.0 L 664.0 1324.5 L 668.5 1324.0 L 669.5 1310.0 L 665.0 1310.5 L 663.5 1307.0 L 672.0 1301.5 L 673.5 1303.0 L 673.5 1324.0 L 678.0 1324.5 L 679.5 1328.0 L 677.0 1329.5"/>
    <path d="M 691.0 1329.5 L 685.0 1328.5 L 681.5 1325.0 L 683.0 1320.5 L 688.0 1324.5 L 692.0 1324.5 L 694.5 1322.0 L 693.0 1318.5 L 689.0 1318.5 L 686.5 1316.0 L 689.0 1312.5 L 693.5 1311.0 L 693.5 1308.0 L 690.0 1306.5 L 685.0 1310.5 L 681.5 1309.0 L 686.0 1302.5 L 695.0 1302.5 L 698.5 1306.0 L 696.5 1316.0 L 699.5 1319.0 L 699.5 1323.0 L 696.0 1327.5"/>
    <path d="M 715.0 1328.5 L 707.0 1329.5 L 701.5 1325.0 L 703.0 1321.5 L 707.0 1324.5 L 712.0 1324.5 L 714.5 1320.0 L 712.0 1316.5 L 703.0 1317.5 L 701.5 1316.0 L 704.0 1302.5 L 718.5 1303.0 L 718.0 1306.5 L 708.0 1307.5 L 707.0 1311.5 L 714.0 1311.5 L 719.5 1316.0 L 719.5 1323.0"/>
    <path d="M 352.0 1312.5 L 354.5 1306.0 L 350.0 1303.5 L 347.5 1305.0 L 346.5 1310.0"/>
    <path d="M 174.0 1313.5 L 178.5 1312.0 L 178.0 1307.5 L 174.5 1310.0 Z"/>
    <path d="M 1585.0 1334.5 L 1578.0 1334.5 L 1572.5 1330.0 L 1574.0 1325.5 L 1579.0 1329.5 L 1585.5 1328.0 L 1584.0 1323.5 L 1578.5 1322.0 L 1578.5 1319.0 L 1584.0 1317.5 L 1584.5 1314.0 L 1583.0 1312.5 L 1579.0 1312.5 L 1576.0 1315.5 L 1572.5 1314.0 L 1572.5 1312.0 L 1578.0 1307.5 L 1585.0 1307.5 L 1590.5 1313.0 L 1590.5 1317.0 L 1588.5 1319.0 L 1590.5 1330.0"/>
    <path d="M 1628.0 1335.5 L 1612.5 1333.0 L 1613.5 1329.0 L 1624.5 1318.0 L 1623.0 1312.5 L 1620.0 1312.5 L 1616.0 1316.5 L 1612.5 1315.0 L 1613.5 1311.0 L 1617.0 1308.5 L 1626.0 1308.5 L 1629.5 1313.0 L 1629.5 1319.0 L 1619.5 1328.0 L 1621.0 1330.5 L 1629.0 1330.5 L 1630.5 1333.0 Z"/>
    <path d="M 1609.0 1334.5 L 1595.0 1334.5 L 1592.5 1332.0 L 1594.0 1329.5 L 1599.5 1329.0 L 1599.5 1315.0 L 1595.0 1315.5 L 1594.5 1312.0 L 1600.0 1308.5 L 1604.0 1308.5 L 1605.5 1311.0 L 1605.5 1329.0 L 1610.5 1332.0 Z"/>
    <path d="M 1641.0 1335.5 L 1636.0 1334.5 L 1632.5 1331.0 L 1635.0 1327.5 L 1639.0 1330.5 L 1643.5 1329.0 L 1643.0 1326.5 L 1635.0 1325.5 L 1631.5 1319.0 L 1633.5 1311.0 L 1637.0 1308.5 L 1646.0 1309.5 L 1649.5 1316.0 L 1648.5 1330.0"/>
    <path d="M 1804.0 1337.5 L 1796.0 1337.5 L 1790.5 1331.0 L 1795.0 1329.5 L 1799.0 1333.5 L 1804.5 1331.0 L 1803.0 1327.5 L 1796.5 1326.0 L 1796.5 1323.0 L 1802.0 1321.5 L 1803.5 1318.0 L 1802.0 1316.5 L 1798.0 1316.5 L 1795.0 1319.5 L 1791.5 1318.0 L 1792.5 1314.0 L 1796.0 1311.5 L 1804.0 1311.5 L 1808.5 1316.0 L 1807.5 1326.0 L 1809.5 1332.0"/>
    <path d="M 1827.0 1338.5 L 1813.0 1338.5 L 1811.5 1337.0 L 1813.0 1333.5 L 1818.5 1332.0 L 1818.5 1320.0 L 1814.0 1319.5 L 1812.5 1317.0 L 1819.0 1311.5 L 1823.5 1313.0 L 1823.5 1333.0 L 1828.5 1335.0 Z"/>
    <path d="M 1848.0 1338.5 L 1832.0 1338.5 L 1830.5 1337.0 L 1832.5 1331.0 L 1842.5 1322.0 L 1842.0 1316.5 L 1838.0 1316.5 L 1835.0 1319.5 L 1831.5 1319.0 L 1832.5 1314.0 L 1836.0 1311.5 L 1843.0 1311.5 L 1847.5 1316.0 L 1847.5 1323.0 L 1837.5 1333.0 L 1847.0 1333.5"/>
    <path d="M 1856.0 1338.5 L 1854.5 1337.0 L 1855.5 1331.0 L 1861.5 1317.0 L 1852.0 1316.5 L 1850.5 1313.0 L 1853.0 1311.5 L 1867.0 1311.5 L 1869.5 1315.0 L 1861.5 1328.0 L 1860.5 1337.0"/>
    <path d="M 1643.0 1321.5 L 1644.5 1316.0 L 1640.0 1312.5 L 1637.5 1314.0 L 1637.5 1320.0"/>
    <path d="M 2177.0 1340.5 L 2171.0 1340.5 L 2164.5 1336.0 L 2166.0 1331.5 L 2174.0 1336.5 L 2178.5 1334.0 L 2177.0 1330.5 L 2170.5 1327.0 L 2172.0 1324.5 L 2176.0 1324.5 L 2177.5 1320.0 L 2173.0 1318.5 L 2170.0 1321.5 L 2165.5 1321.0 L 2165.5 1318.0 L 2173.0 1313.5 L 2179.0 1314.5 L 2183.5 1320.0 L 2181.5 1325.0 L 2183.5 1335.0"/>
    <path d="M 2220.0 1341.5 L 2204.5 1339.0 L 2208.5 1331.0 L 2216.5 1324.0 L 2216.5 1320.0 L 2214.0 1318.5 L 2210.0 1321.5 L 2205.5 1321.0 L 2205.5 1318.0 L 2209.0 1314.5 L 2215.0 1313.5 L 2221.5 1318.0 L 2221.5 1325.0 L 2211.5 1334.0 L 2212.0 1335.5 L 2219.0 1335.5 L 2221.5 1338.0 Z"/>
    <path d="M 2202.0 1340.5 L 2187.0 1340.5 L 2185.5 1339.0 L 2187.0 1335.5 L 2192.5 1335.0 L 2192.5 1322.0 L 2186.5 1320.0 L 2193.0 1314.5 L 2197.5 1316.0 L 2197.5 1335.0 L 2202.5 1338.0 Z"/>
    <path d="M 2235.0 1340.5 L 2229.0 1340.5 L 2223.5 1335.0 L 2224.0 1332.5 L 2227.0 1332.5 L 2230.0 1335.5 L 2236.5 1334.0 L 2235.0 1330.5 L 2228.5 1327.0 L 2234.0 1324.5 L 2236.5 1321.0 L 2235.0 1319.5 L 2224.5 1321.0 L 2229.0 1314.5 L 2237.0 1314.5 L 2241.5 1319.0 L 2239.5 1326.0 L 2241.5 1335.0"/>
    <path d="M 1992.0 1342.5 L 1985.0 1341.5 L 1981.5 1337.0 L 1984.0 1333.5 L 1989.0 1337.5 L 1994.5 1335.0 L 1993.0 1331.5 L 1987.5 1329.0 L 1993.5 1324.0 L 1992.5 1321.0 L 1989.0 1320.5 L 1986.0 1324.5 L 1982.5 1323.0 L 1982.5 1320.0 L 1987.0 1316.5 L 1993.0 1316.5 L 1998.5 1321.0 L 1997.5 1329.0 L 1999.5 1336.0 L 1997.0 1340.5"/>
    <path d="M 2012.0 1342.5 L 2008.5 1341.0 L 2008.5 1327.0 L 2003.5 1325.0 L 2003.5 1323.0 L 2011.0 1316.5 L 2014.5 1319.0 L 2013.5 1341.0 Z"/>
    <path d="M 2035.0 1342.5 L 2026.0 1342.5 L 2018.5 1340.0 L 2031.5 1325.0 L 2029.0 1320.5 L 2023.0 1325.5 L 2019.5 1323.0 L 2025.0 1316.5 L 2031.0 1316.5 L 2036.5 1321.0 L 2036.5 1327.0 L 2027.5 1336.0 L 2028.0 1337.5 L 2036.0 1338.5"/>
    <path d="M 2050.0 1342.5 L 2043.0 1342.5 L 2038.5 1338.0 L 2040.0 1334.5 L 2046.0 1338.5 L 2050.5 1335.0 L 2048.0 1329.5 L 2040.0 1330.5 L 2038.5 1329.0 L 2040.5 1319.0 L 2043.0 1316.5 L 2053.0 1316.5 L 2054.5 1318.0 L 2054.0 1321.5 L 2044.5 1323.0 L 2051.0 1325.5 L 2055.5 1330.0 L 2055.5 1337.0"/>
  </g>
</svg>
