<?xml version="1.0" encoding="UTF-8"?>
<svg xmlns="http://www.w3.org/2000/svg" width="1884" height="1836" viewBox="0 0 1884 1836">
  <rect width="100%" height="100%" fill="#ffffff"/>
  <g id="base-map-no-labels" fill="none" stroke="#111827" stroke-width="2.2" stroke-linecap="round" stroke-linejoin="round">
    <path d="M 74.0 1802.5 L 72.5 1626.0 L 26.0 1627.5 L 24.5 1626.0 L 23.5 1368.0 L 26.0 1365.5 L 68.0 1366.5 L 70.5 1365.0 L 68.5 1192.0 L 75.0 1189.5 L 170.0 1189.5 L 831.0 1179.5 L 827.5 640.0 L 826.0 637.5 L 27.0 638.5 L 25.5 597.0 L 25.5 239.0 L 28.0 236.5 L 492.0 236.5 L 491.5 152.0 L 493.0 150.5 L 559.0 149.5 L 655.0 150.5 L 655.5 235.0 L 657.0 236.5 L 672.0 236.5 L 671.5 151.0 L 674.0 148.5 L 824.5 149.0 L 823.5 47.0 L 825.0 45.5 L 1187.0 46.5 L 1238.5 269.0 L 1242.5 634.0 L 1240.0 636.5 L 1155.0 636.5 L 1153.5 638.0 L 1154.5 721.0 L 1173.0 721.5 L 1175.5 724.0 L 1179.5 1175.0 L 1819.0 1171.5 L 1820.5 1173.0 L 1822.5 1342.0 L 1824.0 1343.5 L 1857.0 1343.5 L 1859.5 1347.0 L 1859.5 1444.0 L 1862.5 1598.0 L 1824.5 1600.0 L 1827.5 1772.0 L 1826.0 1773.5 L 1718.0 1776.5 L 1142.0 1786.5 L 1139.5 1784.0 L 1138.5 1705.0 L 1093.0 1704.5 L 704.0 1712.5 L 702.5 1714.0 L 703.5 1791.0 L 701.0 1794.5"/>
    <path d="M 79.0 1800.5 L 189.0 1797.5 L 477.0 1795.5 L 698.0 1791.5 L 700.5 1783.0 L 699.5 1713.0 L 701.0 1710.5 L 1082.0 1701.5 L 1140.0 1701.5 L 1141.5 1703.0 L 1142.5 1780.0 L 1144.0 1782.5 L 1572.0 1776.5 L 1816.0 1771.5 L 1824.5 1769.0 L 1821.5 1600.0 L 1825.0 1596.5 L 1858.0 1596.5 L 1859.5 1595.0 L 1855.5 1347.0 L 1822.0 1346.5 L 1820.5 1345.0 L 1817.0 1174.5 L 1178.0 1178.5 L 1176.5 1177.0 L 1172.5 726.0 L 1171.0 724.5 L 1153.0 724.5 L 1151.5 723.0 L 1150.5 636.0 L 1153.0 633.5 L 1235.0 633.5 L 1239.5 631.0 L 1235.5 272.0 L 1187.5 58.0 L 1184.0 49.5 L 828.0 48.5 L 826.5 50.0 L 828.0 149.5 L 830.5 149.0 L 830.5 54.0 L 832.0 52.5 L 1007.0 52.5 L 1011.0 74.5 L 1013.5 73.0 L 1012.5 54.0 L 1014.0 52.5 L 1099.0 53.5 L 1099.5 125.0 L 1097.0 126.5 L 1018.0 125.5 L 1015.5 117.0 L 1014.5 94.0 L 1011.0 93.5 L 1012.5 131.0 L 1015.0 138.5 L 1017.5 137.0 L 1017.5 131.0 L 1020.0 129.5 L 1194.0 131.5 L 1195.5 130.0 L 1194.0 126.5 L 1106.0 125.5 L 1104.5 124.0 L 1103.5 56.0 L 1105.0 53.5 L 1181.0 53.5 L 1229.5 264.0 L 1228.0 269.5 L 1215.0 270.5 L 1026.0 269.5 L 1023.5 253.0 L 1018.5 159.0 L 1017.0 157.5 L 1014.5 159.0 L 1020.5 267.0 L 1023.0 274.5 L 1230.5 275.0 L 1231.5 319.0 L 1229.0 321.5 L 1026.0 321.5 L 1024.5 323.0 L 1024.5 334.0 L 1026.0 336.5 L 1028.5 336.0 L 1029.0 326.5 L 1229.0 325.5 L 1231.5 327.0 L 1233.5 530.0 L 1174.0 531.5 L 1173.5 535.0 L 1221.0 534.5 L 1233.5 536.0 L 1235.5 627.0 L 1233.0 629.5 L 1152.0 629.5 L 1150.5 627.0 L 1150.5 537.0 L 1154.5 535.0 L 1154.5 532.0 L 1024.0 532.5 L 1023.5 536.0 L 1096.0 536.5 L 1096.5 540.0 L 1099.0 541.5 L 1102.0 536.5 L 1144.0 535.5 L 1146.5 538.0 L 1146.5 629.0 L 1116.0 630.5 L 1101.5 629.0 L 1100.5 561.0 L 1098.0 560.5 L 1096.5 562.0 L 1097.5 628.0 L 1096.0 629.5 L 1001.0 630.5 L 999.5 628.0 L 999.5 538.0 L 1004.5 534.0 L 999.5 530.0 L 999.5 518.0 L 995.5 517.0 L 995.5 636.0 L 997.0 637.5 L 1002.0 634.5 L 1145.0 633.5 L 1147.5 638.0 L 1147.5 723.0 L 1145.0 724.5 L 1002.0 725.5 L 1000.5 724.0 L 1000.5 675.0 L 997.0 673.5 L 996.5 724.0 L 994.0 726.5 L 966.0 726.5 L 964.5 728.0 L 966.0 730.5 L 977.0 729.5 L 995.0 730.5 L 996.5 732.0 L 999.5 1357.0 L 1003.0 1358.5 L 1313.0 1353.5 L 1850.0 1350.5 L 1852.5 1362.0 L 1852.5 1416.0 L 1851.0 1417.5 L 1727.0 1418.5 L 1714.5 1420.0 L 1716.5 1592.0 L 1715.0 1593.5 L 1147.0 1600.5 L 1144.5 1598.0 L 1144.5 1489.0 L 1143.0 1487.5 L 1004.0 1489.5 L 1002.5 1491.0 L 1003.5 1698.0 L 1001.0 1699.5 L 843.0 1702.5 L 841.5 1701.0 L 839.5 1574.0 L 840.5 1494.0 L 839.0 1492.5 L 697.0 1494.5 L 695.5 1496.0 L 695.5 1607.0 L 693.0 1609.5 L 171.0 1617.5 L 168.5 1612.0 L 167.5 1442.0 L 32.0 1442.5 L 30.5 1420.0 L 30.5 1375.0 L 32.0 1373.5 L 501.0 1367.5 L 588.0 1364.5 L 830.0 1361.5 L 839.5 1360.0 L 835.5 732.0 L 837.0 730.5 L 870.0 730.5 L 870.5 727.0 L 836.0 726.5 L 834.5 724.0 L 833.5 596.0 L 832.0 594.5 L 829.5 596.0 L 830.5 629.0 L 829.0 630.5 L 672.0 631.5 L 644.0 630.5 L 642.5 629.0 L 641.5 563.0 L 644.0 560.5 L 764.0 561.5 L 807.5 560.0 L 807.5 558.0 L 804.0 556.5 L 715.0 556.5 L 716.0 551.5 L 713.0 551.5 L 711.0 556.5 L 644.0 556.5 L 641.5 554.0 L 640.5 485.0 L 643.0 482.5 L 827.0 483.5 L 828.5 485.0 L 829.5 521.0 L 832.5 521.0 L 831.5 459.0 L 787.0 459.5 L 785.5 457.0 L 778.5 347.0 L 777.0 344.5 L 774.5 346.0 L 781.0 459.5 L 591.0 469.5 L 589.5 471.0 L 590.0 473.5 L 635.0 471.5 L 636.5 473.0 L 637.0 571.5 L 568.0 571.5 L 565.5 570.0 L 564.5 476.0 L 569.0 474.5 L 569.5 471.0 L 558.0 470.5 L 556.5 475.0 L 559.5 476.0 L 560.5 509.0 L 559.0 510.5 L 518.0 510.5 L 516.5 512.0 L 517.5 591.0 L 516.0 592.5 L 415.0 592.5 L 413.5 591.0 L 412.5 485.0 L 415.0 481.5 L 535.0 476.5 L 536.5 473.0 L 513.0 472.5 L 413.0 477.5 L 408.5 480.0 L 409.5 603.0 L 411.0 605.5 L 413.5 605.0 L 415.0 597.5 L 521.0 597.5 L 521.5 578.0 L 523.0 576.5 L 637.0 576.5 L 638.5 579.0 L 638.0 630.5 L 416.0 630.5 L 413.5 625.0 L 411.0 624.5 L 408.0 630.5 L 35.0 631.5 L 33.5 629.0 L 32.5 393.0 L 33.5 245.0 L 36.0 243.5 L 767.0 244.5 L 769.5 261.0 L 771.5 305.0 L 775.0 307.5 L 772.5 245.0 L 830.0 244.5 L 831.5 241.0 L 811.0 239.5 L 31.0 239.5 L 29.5 241.0 L 28.5 257.0 L 29.5 634.0 L 31.0 635.5 L 826.0 634.5 L 829.0 635.5 L 830.5 639.0 L 834.5 1181.0 L 833.0 1182.5 L 178.0 1192.5 L 79.0 1192.5 L 72.5 1194.0 L 73.5 1367.0 L 69.0 1369.5 L 28.0 1369.5 L 26.5 1371.0 L 27.5 1623.0 L 72.0 1623.5 L 75.5 1627.0 L 76.5 1798.0 Z"/>
    <path d="M 992.0 723.5 L 993.5 722.0 L 992.5 672.0 L 994.0 670.5 L 1012.5 670.0 L 1009.0 661.5 L 997.5 657.0 L 998.0 654.5 L 1006.0 652.5 L 1010.5 648.0 L 1012.5 641.0 L 994.0 640.5 L 992.5 639.0 L 992.5 518.0 L 991.0 516.5 L 981.0 516.5 L 979.5 511.0 L 981.5 506.0 L 991.5 498.0 L 992.5 456.0 L 1028.5 455.0 L 1023.5 357.0 L 1012.5 349.0 L 1009.5 339.0 L 1021.5 336.0 L 1020.5 321.0 L 1022.0 318.5 L 1227.0 318.5 L 1228.5 317.0 L 1227.5 278.0 L 1019.0 277.5 L 1017.5 275.0 L 1011.5 156.0 L 1023.0 152.5 L 1027.5 148.0 L 1029.5 141.0 L 1012.0 141.5 L 1010.5 140.0 L 1007.5 94.0 L 1003.0 91.5 L 994.5 81.0 L 996.0 74.5 L 1006.5 74.0 L 1005.5 56.0 L 835.0 55.5 L 833.5 57.0 L 834.5 246.0 L 833.0 247.5 L 776.0 246.5 L 775.5 261.0 L 778.5 304.0 L 780.0 307.5 L 791.0 306.5 L 792.5 308.0 L 792.5 315.0 L 784.5 326.0 L 794.5 337.0 L 793.0 343.5 L 781.5 345.0 L 788.5 456.0 L 832.0 454.5 L 835.5 457.0 L 836.5 522.0 L 835.0 524.5 L 825.5 523.0 L 825.0 486.5 L 791.0 485.5 L 788.0 502.5 L 710.0 502.5 L 707.5 501.0 L 707.5 487.0 L 706.0 485.5 L 645.0 485.5 L 643.5 492.0 L 644.5 552.0 L 646.0 553.5 L 663.0 554.5 L 664.5 553.0 L 663.5 541.0 L 669.0 536.5 L 675.0 536.5 L 681.0 539.5 L 688.0 536.5 L 694.0 536.5 L 699.0 539.5 L 711.0 536.5 L 720.0 539.5 L 725.0 535.5 L 731.0 535.5 L 736.0 538.5 L 743.0 536.5 L 753.0 538.5 L 755.5 542.0 L 754.5 553.0 L 756.0 554.5 L 809.0 553.5 L 811.5 556.0 L 810.0 563.5 L 756.0 563.5 L 754.5 568.0 L 756.5 575.0 L 750.0 580.5 L 742.0 580.5 L 739.0 577.5 L 731.0 580.5 L 724.0 580.5 L 720.0 577.5 L 714.0 580.5 L 706.0 580.5 L 702.0 577.5 L 695.0 580.5 L 688.0 580.5 L 684.0 577.5 L 677.0 580.5 L 670.0 580.5 L 663.5 574.0 L 664.0 563.5 L 646.0 563.5 L 644.5 565.0 L 645.5 627.0 L 648.0 628.5 L 708.0 628.5 L 709.5 627.0 L 708.5 614.0 L 712.0 610.5 L 789.0 610.5 L 791.5 612.0 L 791.5 627.0 L 793.0 628.5 L 826.0 628.5 L 827.5 626.0 L 826.5 592.0 L 829.0 590.5 L 835.0 591.5 L 836.5 593.0 L 839.0 723.5 L 870.0 723.5 L 871.5 722.0 L 870.5 712.0 L 872.0 710.5 L 880.0 711.5 L 890.0 719.5 L 896.0 712.5 L 905.0 709.5 L 907.5 712.0 L 908.0 723.5 L 928.0 723.5 L 928.5 712.0 L 931.0 709.5 L 940.0 712.5 L 946.0 719.5 L 952.0 713.5 L 962.0 709.5 L 965.5 713.0 L 966.0 723.5"/>
    <path d="M 1096.5 123.0 L 1096.5 57.0 L 1095.0 55.5 L 1017.0 55.5 L 1015.5 57.0 L 1016.5 76.0 L 998.5 78.0 L 998.5 82.0 L 1003.0 87.5 L 1008.0 90.5 L 1017.5 91.0 L 1020.0 122.5"/>
    <path d="M 1193.5 123.0 L 1179.0 56.5 L 1109.0 55.5 L 1107.5 57.0 L 1107.5 79.0 L 1124.0 82.5 L 1132.0 87.5 L 1146.5 104.0 L 1152.0 123.5"/>
    <path d="M 1107.0 110.5 L 1109.5 107.0 L 1114.5 86.0 L 1113.0 82.5 L 1107.5 83.0"/>
    <path d="M 1111.0 111.5 L 1124.5 89.0 L 1121.0 84.5 L 1118.0 84.5"/>
    <path d="M 1114.0 114.5 L 1132.5 97.0 L 1133.5 93.0 L 1128.0 89.5 L 1125.5 92.0"/>
    <path d="M 1118.5 115.0 L 1140.0 103.5 L 1139.5 99.0 L 1136.0 96.5"/>
    <path d="M 1119.5 119.0 L 1123.0 119.5 L 1144.0 113.5 L 1145.5 109.0 L 1142.0 105.5"/>
    <path d="M 1147.5 117.0 L 1145.0 115.5 L 1121.0 121.5 L 1120.5 123.0 L 1147.0 123.5"/>
    <path d="M 1226.5 266.0 L 1196.0 133.5 L 1022.0 132.5 L 1020.5 134.0 L 1021.0 137.5 L 1031.0 137.5 L 1033.5 140.0 L 1033.5 144.0 L 1029.5 151.0 L 1021.5 157.0 L 1027.5 264.0 L 1029.0 266.5 L 1224.0 267.5 Z"/>
    <path d="M 682.0 193.5 L 683.5 192.0 L 683.5 153.0 L 678.0 151.5 L 675.5 153.0 L 675.5 192.0"/>
    <path d="M 694.0 193.5 L 695.5 190.0 L 694.5 153.0 L 689.0 151.5 L 686.5 153.0 L 686.5 192.0"/>
    <path d="M 705.0 193.5 L 706.5 192.0 L 706.5 155.0 L 705.0 152.5 L 699.0 151.5 L 697.5 153.0 L 697.5 192.0"/>
    <path d="M 511.0 194.5 L 515.5 193.0 L 515.5 155.0 L 508.0 152.5 L 506.5 154.0 L 506.5 193.0"/>
    <path d="M 526.0 193.5 L 526.5 154.0 L 520.0 152.5 L 518.5 154.0 L 518.5 193.0"/>
    <path d="M 531.0 194.5 L 538.5 193.0 L 538.5 154.0 L 535.0 152.5 L 529.5 154.0 L 529.5 193.0 Z"/>
    <path d="M 546.0 194.5 L 549.5 193.0 L 549.5 154.0 L 543.0 152.5 L 541.5 154.0 L 541.5 193.0"/>
    <path d="M 560.0 193.5 L 561.5 192.0 L 561.5 155.0 L 558.0 152.5 L 554.0 152.5 L 552.5 154.0 L 552.5 192.0"/>
    <path d="M 572.0 193.5 L 572.5 154.0 L 566.0 152.5 L 564.5 154.0 L 564.5 193.0"/>
    <path d="M 583.0 193.5 L 583.5 154.0 L 578.0 152.5 L 575.5 155.0 L 575.5 192.0"/>
    <path d="M 595.0 193.5 L 594.5 154.0 L 589.0 152.5 L 586.5 154.0 L 586.5 192.0"/>
    <path d="M 606.0 193.5 L 607.5 191.0 L 606.5 154.0 L 600.0 152.5 L 598.5 154.0 L 598.5 193.0"/>
    <path d="M 618.0 193.5 L 618.5 155.0 L 616.0 152.5 L 611.0 152.5 L 609.5 154.0 L 610.5 193.0"/>
    <path d="M 629.0 193.5 L 630.5 192.0 L 629.5 154.0 L 623.0 152.5 L 621.5 154.0 L 621.5 193.0"/>
    <path d="M 637.0 194.5 L 641.5 193.0 L 641.5 155.0 L 639.0 152.5 L 634.0 152.5 L 632.5 154.0 L 632.5 192.0"/>
    <path d="M 652.0 193.5 L 652.5 154.0 L 646.0 152.5 L 644.5 154.0 L 644.5 193.0"/>
    <path d="M 716.0 193.5 L 717.5 192.0 L 717.5 153.0 L 710.0 152.5 L 709.5 193.0"/>
    <path d="M 728.0 193.5 L 729.5 192.0 L 729.5 158.0 L 728.0 152.5 L 721.0 152.5 L 720.5 192.0"/>
    <path d="M 739.0 193.5 L 740.5 192.0 L 740.5 154.0 L 733.0 152.5 L 731.5 154.0 L 732.5 193.0"/>
    <path d="M 751.0 193.5 L 751.5 153.0 L 744.0 152.5 L 743.5 193.0"/>
    <path d="M 762.0 193.5 L 763.5 192.0 L 763.5 154.0 L 755.0 152.5 L 754.5 192.0"/>
    <path d="M 774.0 193.5 L 774.5 154.0 L 767.0 152.5 L 766.5 193.0"/>
    <path d="M 784.0 193.5 L 785.5 192.0 L 785.5 154.0 L 778.0 152.5 L 777.5 193.0"/>
    <path d="M 796.0 193.5 L 796.5 153.0 L 789.0 152.5 L 788.5 193.0"/>
    <path d="M 807.0 193.5 L 808.5 191.0 L 807.5 153.0 L 800.0 152.5 L 799.5 192.0"/>
    <path d="M 819.0 193.5 L 819.5 154.0 L 812.0 152.5 L 810.5 154.0 L 810.5 192.0"/>
    <path d="M 830.0 193.5 L 831.5 192.0 L 831.5 155.0 L 830.0 152.5 L 823.0 152.5 L 822.5 193.0"/>
    <path d="M 503.0 193.5 L 503.5 154.0 L 496.0 153.5 L 495.5 193.0"/>
    <path d="M 684.0 235.5 L 684.5 197.0 L 676.0 195.5 L 675.5 235.0"/>
    <path d="M 694.0 235.5 L 695.5 234.0 L 695.5 198.0 L 694.0 195.5 L 688.0 195.5 L 686.5 197.0 L 687.5 235.0"/>
    <path d="M 706.0 235.5 L 706.5 197.0 L 699.0 195.5 L 697.5 197.0 L 697.5 234.0"/>
    <path d="M 718.0 235.5 L 718.5 198.0 L 716.0 195.5 L 710.0 195.5 L 709.5 235.0"/>
    <path d="M 729.0 235.5 L 729.5 197.0 L 722.0 195.5 L 720.5 198.0 L 721.5 235.0"/>
    <path d="M 738.0 236.5 L 740.5 235.0 L 740.5 197.0 L 733.0 195.5 L 732.5 235.0"/>
    <path d="M 751.0 236.5 L 752.5 235.0 L 751.5 197.0 L 745.0 195.5 L 743.5 197.0 L 743.5 235.0"/>
    <path d="M 762.0 236.5 L 763.5 235.0 L 763.5 197.0 L 756.0 195.5 L 754.5 197.0 L 755.5 235.0"/>
    <path d="M 785.0 236.5 L 785.5 197.0 L 779.0 195.5 L 777.5 197.0 L 777.5 235.0"/>
    <path d="M 503.0 236.5 L 503.5 198.0 L 496.0 196.5 L 495.5 235.0"/>
    <path d="M 514.0 236.5 L 515.5 235.0 L 515.5 198.0 L 507.0 196.5 L 506.5 235.0"/>
    <path d="M 526.0 236.5 L 526.5 197.0 L 519.0 196.5 L 518.5 235.0"/>
    <path d="M 537.0 236.5 L 538.5 235.0 L 538.5 197.0 L 530.0 196.5 L 529.5 234.0 L 531.0 236.5"/>
    <path d="M 549.0 236.5 L 550.5 235.0 L 549.5 197.0 L 542.0 196.5 L 541.5 235.0"/>
    <path d="M 560.0 236.5 L 561.5 235.0 L 561.5 198.0 L 553.0 196.5 L 552.5 234.0 L 554.0 236.5"/>
    <path d="M 572.0 236.5 L 573.5 235.0 L 572.5 197.0 L 565.0 196.5 L 564.5 235.0"/>
    <path d="M 583.0 236.5 L 584.5 234.0 L 584.5 200.0 L 583.0 196.5 L 577.0 196.5 L 575.5 198.0 L 576.5 235.0"/>
    <path d="M 594.0 236.5 L 595.5 235.0 L 595.5 198.0 L 588.0 196.5 L 586.5 198.0 L 586.5 234.0 L 588.0 236.5"/>
    <path d="M 606.0 236.5 L 607.5 235.0 L 607.5 198.0 L 599.0 196.5 L 598.5 235.0"/>
    <path d="M 617.0 236.5 L 618.5 235.0 L 618.5 198.0 L 611.0 196.5 L 609.5 198.0 L 610.5 235.0"/>
    <path d="M 629.0 236.5 L 630.5 235.0 L 630.5 198.0 L 622.0 196.5 L 621.5 235.0"/>
    <path d="M 640.0 236.5 L 641.5 235.0 L 641.5 198.0 L 634.0 196.5 L 632.5 198.0 L 633.5 236.0"/>
    <path d="M 651.0 236.5 L 652.5 235.0 L 652.5 197.0 L 645.0 196.5 L 644.5 235.0"/>
    <path d="M 774.0 236.5 L 774.5 197.0 L 767.0 196.5 L 766.5 235.0"/>
    <path d="M 796.0 236.5 L 797.5 235.0 L 797.5 199.0 L 796.0 196.5 L 789.0 196.5 L 788.5 235.0"/>
    <path d="M 807.0 236.5 L 808.5 235.0 L 808.5 198.0 L 801.0 196.5 L 799.5 198.0 L 799.5 233.0 L 801.0 236.5"/>
    <path d="M 819.0 236.5 L 820.5 235.0 L 819.5 197.0 L 812.0 196.5 L 810.5 198.0 L 811.5 236.0"/>
    <path d="M 831.0 236.5 L 831.5 198.0 L 824.0 196.5 L 822.5 198.0 L 822.5 234.0 L 824.0 236.5"/>
    <path d="M 36.5 627.0 L 38.0 628.5 L 406.0 627.5 L 408.0 621.5 L 426.5 621.0 L 422.0 612.5 L 414.0 608.5 L 408.0 608.5 L 406.5 606.0 L 405.5 477.0 L 407.0 475.5 L 537.0 468.5 L 539.5 471.0 L 541.5 480.0 L 547.0 485.5 L 553.0 487.5 L 554.5 484.0 L 552.5 470.0 L 555.0 467.5 L 572.0 467.5 L 573.5 485.0 L 576.0 486.5 L 584.5 479.0 L 588.0 466.5 L 778.0 457.5 L 771.5 343.0 L 790.5 340.0 L 789.5 335.0 L 784.0 329.5 L 775.5 327.0 L 776.0 324.5 L 781.0 323.5 L 786.5 319.0 L 789.5 311.0 L 771.0 311.5 L 768.5 309.0 L 765.5 249.0 L 763.0 246.5 L 38.0 246.5 L 36.5 248.0"/>
    <path d="M 1008.0 548.5 L 1014.0 546.5 L 1019.5 539.0 L 1019.5 531.0 L 1022.0 528.5 L 1156.0 528.5 L 1157.5 530.0 L 1157.5 547.0 L 1161.0 547.5 L 1167.5 543.0 L 1172.0 528.5 L 1230.0 527.5 L 1228.5 330.0 L 1227.0 328.5 L 1032.0 329.5 L 1031.0 339.5 L 1014.0 340.5 L 1013.5 344.0 L 1019.0 350.5 L 1023.0 352.5 L 1030.0 352.5 L 1033.5 356.0 L 1039.5 464.0 L 1038.0 465.5 L 1003.0 465.5 L 1002.5 499.0 L 991.0 501.5 L 983.5 510.0 L 984.0 513.5 L 1000.0 513.5 L 1002.5 516.0 L 1002.5 528.0 L 1007.5 531.0"/>
    <path d="M 996.0 497.5 L 999.5 496.0 L 999.5 464.0 L 1001.0 462.5 L 1035.5 462.0 L 1032.5 390.0 L 1029.0 356.5 L 1026.5 357.0 L 1032.5 456.0 L 1030.0 458.5 L 997.0 458.5 L 995.5 460.0"/>
    <path d="M 634.0 568.5 L 635.5 566.0 L 633.5 475.0 L 590.0 476.5 L 586.5 482.0 L 577.0 489.5 L 570.5 488.0 L 570.5 479.0 L 568.0 478.5 L 568.5 568.0"/>
    <path d="M 514.0 590.5 L 513.5 509.0 L 516.0 507.5 L 555.0 508.5 L 557.5 507.0 L 557.5 490.0 L 551.0 490.5 L 545.0 488.5 L 537.0 479.5 L 417.0 484.5 L 416.5 588.0 L 419.0 590.5"/>
    <path d="M 710.0 491.5 L 714.5 488.0 L 714.0 485.5 L 709.5 487.0"/>
    <path d="M 740.0 499.5 L 737.5 493.0 L 741.5 486.0 L 729.0 485.5 L 728.5 488.0 L 732.5 492.0 L 729.5 499.0"/>
    <path d="M 766.0 499.5 L 764.5 492.0 L 768.5 486.0 L 756.0 485.5 L 755.5 488.0 L 759.5 492.0 L 756.5 499.0"/>
    <path d="M 786.0 491.5 L 786.5 486.0 L 782.0 485.5 L 781.5 488.0"/>
    <path d="M 729.5 495.0 L 729.5 492.0 L 724.0 489.5 L 722.0 493.5 L 719.0 489.5 L 713.5 492.0 L 717.0 497.5 L 726.0 497.5"/>
    <path d="M 756.5 495.0 L 756.5 492.0 L 753.0 489.5 L 749.0 493.5 L 745.0 489.5 L 740.5 493.0 L 744.0 497.5 L 753.0 497.5"/>
    <path d="M 783.5 494.0 L 781.0 490.5 L 777.0 490.5 L 776.0 493.5 L 773.0 490.5 L 767.5 492.0 L 767.5 495.0 L 774.0 498.5 L 780.0 497.5"/>
    <path d="M 1154.0 626.5 L 1231.0 626.5 L 1232.5 625.0 L 1231.5 546.0 L 1230.0 538.5 L 1174.0 538.5 L 1166.0 548.5 L 1159.0 551.5 L 1153.5 549.0"/>
    <path d="M 1142.0 627.5 L 1144.5 625.0 L 1143.5 540.0 L 1142.0 538.5 L 1105.0 538.5 L 1104.0 541.5 L 1114.0 541.5 L 1115.5 548.0 L 1113.5 553.0 L 1103.5 561.0 L 1104.5 627.0"/>
    <path d="M 732.5 544.0 L 730.0 539.5 L 724.5 541.0 L 725.0 544.5"/>
    <path d="M 1094.5 626.0 L 1093.5 559.0 L 1106.0 555.5 L 1110.5 551.0 L 1112.0 544.5 L 1096.0 544.5 L 1093.5 543.0 L 1093.0 539.5 L 1023.0 539.5 L 1017.0 548.5 L 1012.0 551.5 L 1006.0 551.5 L 1004.5 550.0 L 1004.5 541.0 L 1002.5 541.0 L 1002.5 626.0 L 1004.0 627.5 L 1093.0 627.5 Z"/>
    <path d="M 676.5 545.0 L 675.0 540.5 L 669.5 542.0 L 670.0 545.5"/>
    <path d="M 695.5 545.0 L 692.0 540.5 L 687.5 542.0 L 688.0 545.5"/>
    <path d="M 713.5 546.0 L 711.0 540.5 L 705.5 543.0 L 706.0 545.5"/>
    <path d="M 749.5 545.0 L 747.0 540.5 L 742.5 542.0 L 743.0 545.5"/>
    <path d="M 677.5 574.0 L 677.0 571.5 L 669.5 572.0 L 673.0 576.5"/>
    <path d="M 695.5 574.0 L 695.0 571.5 L 687.5 572.0 L 690.0 576.5"/>
    <path d="M 714.5 574.0 L 714.0 571.5 L 706.5 572.0 L 710.0 577.5"/>
    <path d="M 732.5 573.0 L 732.0 571.5 L 724.5 572.0 L 728.0 577.5"/>
    <path d="M 750.5 574.0 L 750.0 571.5 L 742.5 572.0 L 746.0 577.5"/>
    <path d="M 635.5 580.0 L 526.0 578.5 L 524.5 580.0 L 524.5 599.0 L 523.0 600.5 L 418.0 600.5 L 416.5 605.0 L 427.5 614.0 L 429.5 623.0 L 428.0 624.5 L 418.0 624.5 L 417.5 627.0 L 546.0 627.5 L 546.5 598.0 L 548.0 596.5 L 634.0 597.5 L 635.5 596.0"/>
    <path d="M 556.0 628.5 L 557.5 627.0 L 557.5 601.0 L 551.0 599.5 L 549.5 601.0 L 549.5 627.0"/>
    <path d="M 568.0 628.5 L 569.5 627.0 L 569.5 601.0 L 562.0 599.5 L 560.5 601.0 L 560.5 626.0 L 562.0 628.5"/>
    <path d="M 579.0 628.5 L 580.5 627.0 L 580.5 602.0 L 578.0 599.5 L 573.0 599.5 L 572.5 627.0"/>
    <path d="M 591.0 628.5 L 591.5 601.0 L 585.0 599.5 L 583.5 601.0 L 583.5 627.0"/>
    <path d="M 602.0 628.5 L 602.5 601.0 L 597.0 599.5 L 594.5 601.0 L 594.5 627.0"/>
    <path d="M 613.0 628.5 L 614.5 627.0 L 614.5 602.0 L 608.0 599.5 L 605.5 601.0 L 605.5 627.0"/>
    <path d="M 625.0 628.5 L 625.5 601.0 L 619.0 599.5 L 616.5 602.0 L 617.5 628.0"/>
    <path d="M 635.0 628.5 L 635.5 601.0 L 630.0 599.5 L 628.5 601.0 L 628.5 628.0"/>
    <path d="M 716.0 628.5 L 716.5 625.0 L 713.5 622.0 L 713.5 618.0 L 716.5 614.0 L 713.0 613.5 L 711.5 615.0 L 711.5 626.0 L 713.0 628.5 Z"/>
    <path d="M 742.0 628.5 L 743.5 626.0 L 739.5 619.0 L 742.5 614.0 L 732.0 613.5 L 734.5 622.0 L 730.5 627.0 L 732.0 628.5"/>
    <path d="M 769.0 628.5 L 769.5 625.0 L 766.5 622.0 L 766.5 618.0 L 769.5 614.0 L 759.0 613.5 L 761.5 621.0 L 757.5 625.0 L 757.5 628.0"/>
    <path d="M 788.0 628.5 L 788.5 615.0 L 784.0 613.5 L 783.5 615.0 L 786.5 617.0 L 786.5 622.0 L 783.5 625.0 L 783.5 628.0"/>
    <path d="M 758.5 622.0 L 758.5 619.0 L 751.0 614.5 L 742.5 619.0 L 745.0 623.5 L 748.0 623.5 L 750.0 620.5 L 753.0 623.5"/>
    <path d="M 784.5 619.0 L 778.0 614.5 L 771.0 616.5 L 768.5 620.0 L 771.0 623.5 L 774.0 623.5 L 776.0 620.5 L 779.0 623.5 L 783.0 623.5"/>
    <path d="M 732.5 621.0 L 732.5 619.0 L 728.0 615.5 L 720.0 615.5 L 715.5 620.0 L 718.0 623.5 L 721.0 623.5 L 724.0 620.5 L 727.0 624.5"/>
    <path d="M 1144.5 721.0 L 1144.5 638.0 L 1143.0 636.5 L 1134.0 636.5 L 1132.5 638.0 L 1133.5 672.0 L 1132.0 674.5 L 1043.0 675.5 L 1041.5 674.0 L 1041.5 638.0 L 1015.5 638.0 L 1015.5 646.0 L 1006.5 656.0 L 1014.5 663.0 L 1016.5 672.0 L 1015.0 673.5 L 1003.5 674.0 L 1004.0 722.5 L 1031.5 722.0 L 1030.5 687.0 L 1032.0 684.5 L 1121.0 684.5 L 1122.5 686.0 L 1122.5 722.0 L 1143.0 722.5 Z"/>
    <path d="M 1051.0 672.5 L 1052.5 671.0 L 1052.5 638.0 L 1045.0 637.5 L 1044.5 671.0"/>
    <path d="M 1063.0 672.5 L 1063.5 638.0 L 1056.0 637.5 L 1055.5 671.0"/>
    <path d="M 1074.0 672.5 L 1074.5 638.0 L 1067.0 637.5 L 1066.5 671.0"/>
    <path d="M 1085.0 672.5 L 1085.5 638.0 L 1078.0 637.5 L 1077.5 671.0"/>
    <path d="M 1095.0 672.5 L 1096.5 671.0 L 1096.5 638.0 L 1089.0 637.5 L 1088.5 671.0"/>
    <path d="M 1106.0 672.5 L 1107.5 671.0 L 1107.5 638.0 L 1100.0 637.5 L 1099.5 671.0"/>
    <path d="M 1117.0 672.5 L 1118.5 671.0 L 1118.5 638.0 L 1111.0 637.5 L 1110.5 671.0"/>
    <path d="M 1129.0 671.5 L 1129.5 638.0 L 1122.0 637.5 L 1121.5 670.0"/>
    <path d="M 1041.0 722.5 L 1042.5 720.0 L 1041.5 689.0 L 1035.0 687.5 L 1034.5 722.0"/>
    <path d="M 1052.0 722.5 L 1052.5 688.0 L 1046.0 687.5 L 1044.5 689.0 L 1044.5 721.0"/>
    <path d="M 1063.0 722.5 L 1064.5 720.0 L 1063.5 688.0 L 1057.0 687.5 L 1055.5 689.0 L 1055.5 721.0"/>
    <path d="M 1074.0 722.5 L 1075.5 721.0 L 1074.5 688.0 L 1067.0 687.5 L 1066.5 720.0 L 1069.0 722.5"/>
    <path d="M 1085.0 722.5 L 1086.5 721.0 L 1086.5 689.0 L 1079.0 687.5 L 1077.5 689.0 L 1078.5 721.0"/>
    <path d="M 1091.0 722.5 L 1096.5 721.0 L 1096.0 687.5 L 1088.5 689.0 L 1089.5 721.0 Z"/>
    <path d="M 1107.0 722.5 L 1108.5 721.0 L 1107.5 688.0 L 1100.0 687.5 L 1099.5 720.0 L 1101.0 722.5"/>
    <path d="M 1119.0 721.5 L 1118.5 688.0 L 1112.0 687.5 L 1110.5 689.0 L 1111.5 721.0"/>
    <path d="M 33.5 1437.0 L 35.0 1439.5 L 70.0 1439.5 L 71.5 1438.0 L 70.5 1411.0 L 74.0 1408.5 L 161.0 1408.5 L 162.5 1410.0 L 162.5 1437.0 L 170.5 1440.0 L 171.5 1614.0 L 173.0 1615.5 L 182.0 1614.5 L 182.5 1607.0 L 185.0 1604.5 L 189.5 1606.0 L 190.0 1614.5 L 691.0 1606.5 L 692.5 1605.0 L 691.5 1497.0 L 694.0 1491.5 L 842.0 1489.5 L 843.5 1491.0 L 843.5 1568.0 L 845.0 1569.5 L 893.0 1568.5 L 894.5 1572.0 L 894.5 1677.0 L 893.0 1678.5 L 845.0 1679.5 L 844.5 1699.0 L 999.0 1696.5 L 1000.5 1695.0 L 1000.5 1678.0 L 999.0 1676.5 L 951.0 1677.5 L 949.5 1676.0 L 949.5 1569.0 L 951.0 1567.5 L 998.0 1567.5 L 999.5 1566.0 L 1000.0 1486.5 L 1146.0 1484.5 L 1147.5 1486.0 L 1147.5 1596.0 L 1149.0 1597.5 L 1713.0 1590.5 L 1710.5 1418.0 L 1712.0 1416.5 L 1729.0 1416.5 L 1730.5 1415.0 L 1729.5 1388.0 L 1731.0 1386.5 L 1813.0 1385.5 L 1815.5 1388.0 L 1815.5 1414.0 L 1817.0 1415.5 L 1848.0 1415.5 L 1849.5 1414.0 L 1849.5 1377.0 L 1848.0 1353.5 L 1815.0 1353.5 L 1814.5 1381.0 L 1813.0 1382.5 L 1743.0 1383.5 L 1740.5 1380.0 L 1740.0 1354.5 L 1438.0 1355.5 L 997.0 1360.5 L 993.5 734.0 L 992.0 732.5 L 962.0 732.5 L 961.0 713.5 L 955.0 715.5 L 950.5 720.0 L 947.0 729.5 L 944.5 727.0 L 943.5 721.0 L 938.0 715.5 L 933.0 713.5 L 932.5 728.0 L 930.0 733.5 L 906.0 733.5 L 904.5 732.0 L 904.5 715.0 L 902.0 713.5 L 892.5 721.0 L 890.0 729.5 L 887.5 728.0 L 885.5 721.0 L 880.0 715.5 L 875.0 714.5 L 874.5 732.0 L 873.0 733.5 L 838.5 734.0 L 842.5 1185.0 L 842.5 1362.0 L 841.0 1363.5 L 740.0 1366.5 L 543.0 1368.5 L 512.0 1370.5 L 151.5 1375.0 L 150.5 1391.0 L 152.0 1392.5 L 168.0 1387.5 L 171.0 1390.5 L 182.0 1391.5 L 187.5 1396.0 L 188.5 1406.0 L 187.0 1408.5 L 181.5 1407.0 L 181.5 1400.0 L 178.0 1396.5 L 172.0 1396.5 L 169.0 1399.5 L 165.0 1399.5 L 155.0 1395.5 L 150.5 1397.0 L 150.5 1404.0 L 145.0 1405.5 L 72.0 1405.5 L 71.5 1378.0 L 70.0 1376.5 L 35.0 1375.5 L 33.5 1377.0"/>
    <path d="M 928.5 729.0 L 928.0 726.5 L 907.5 727.0 L 909.0 730.5 L 927.0 730.5 Z"/>
    <path d="M 1274.5 1349.0 L 1272.5 1184.0 L 1274.0 1182.5 L 1455.0 1180.5 L 1457.5 1187.0 L 1458.5 1285.0 L 1461.0 1286.5 L 1462.5 1285.0 L 1461.5 1182.0 L 1463.0 1180.5 L 1506.0 1180.5 L 1507.5 1182.0 L 1508.5 1284.0 L 1512.0 1285.5 L 1512.0 1180.5 L 1688.0 1178.5 L 1690.5 1180.0 L 1693.5 1334.0 L 1692.0 1347.5 L 1515.0 1348.5 L 1513.5 1342.0 L 1511.0 1341.5 L 1508.0 1348.5 L 1464.0 1348.5 L 1463.5 1343.0 L 1460.0 1341.5 L 1457.0 1349.5 L 1276.0 1350.5 Z"/>
    <path d="M 1690.5 1343.0 L 1687.0 1181.5 L 1516.0 1182.5 L 1514.5 1184.0 L 1515.5 1288.0 L 1503.0 1291.5 L 1498.5 1296.0 L 1497.5 1302.0 L 1514.0 1301.5 L 1516.5 1304.0 L 1516.5 1324.0 L 1515.0 1325.5 L 1498.0 1325.5 L 1498.5 1331.0 L 1504.0 1336.5 L 1515.0 1338.5 L 1517.0 1345.5 L 1689.0 1344.5 Z"/>
    <path d="M 1277.5 1347.0 L 1454.0 1346.5 L 1458.0 1338.5 L 1470.0 1336.5 L 1475.5 1329.0 L 1475.0 1325.5 L 1457.0 1325.5 L 1455.5 1324.0 L 1455.5 1303.0 L 1458.0 1301.5 L 1474.0 1302.5 L 1474.5 1298.0 L 1470.0 1292.5 L 1455.5 1288.0 L 1453.5 1184.0 L 1276.0 1185.5"/>
    <path d="M 1468.0 1309.5 L 1506.5 1308.0 L 1506.0 1305.5 L 1496.0 1305.5 L 1493.5 1303.0 L 1496.5 1293.0 L 1505.5 1287.0 L 1504.0 1183.5 L 1464.5 1184.0 L 1465.5 1286.0 L 1474.5 1292.0 L 1478.5 1300.0 L 1477.0 1305.5 L 1467.0 1305.5 L 1465.5 1308.0 Z"/>
    <path d="M 453.5 1362.0 L 452.5 1196.0 L 454.0 1192.5 L 595.0 1189.5 L 625.0 1190.5 L 625.5 1295.0 L 629.0 1296.5 L 630.5 1295.0 L 629.5 1194.0 L 632.0 1189.5 L 674.0 1189.5 L 675.5 1191.0 L 675.5 1295.0 L 679.0 1295.5 L 679.5 1191.0 L 682.0 1188.5 L 832.0 1186.5 L 835.5 1189.0 L 835.5 1355.0 L 832.0 1357.5 L 681.0 1359.5 L 679.5 1357.0 L 680.5 1354.0 L 677.0 1352.5 L 674.0 1359.5 L 632.0 1360.5 L 630.5 1354.0 L 627.0 1353.5 L 624.0 1360.5 L 506.0 1363.5 L 455.0 1363.5 Z"/>
    <path d="M 665.5 1343.0 L 673.0 1348.5 L 682.0 1349.5 L 684.0 1356.5 L 832.0 1353.5 L 832.5 1191.0 L 831.0 1189.5 L 684.0 1191.5 L 682.5 1193.0 L 682.5 1298.0 L 668.0 1302.5 L 663.5 1309.0 L 664.0 1312.5 L 682.5 1313.0 L 683.5 1333.0 L 680.0 1336.5 L 664.0 1336.5"/>
    <path d="M 457.0 1360.5 L 622.0 1357.5 L 624.0 1350.5 L 633.0 1349.5 L 640.5 1344.0 L 642.0 1336.5 L 625.0 1337.5 L 622.5 1335.0 L 622.5 1314.0 L 625.0 1312.5 L 641.0 1313.5 L 642.5 1311.0 L 635.0 1301.5 L 622.5 1298.0 L 622.5 1194.0 L 621.0 1192.5 L 470.0 1194.5 L 455.5 1197.0 L 455.5 1359.0 Z"/>
    <path d="M 671.0 1319.5 L 672.0 1315.5 L 661.0 1315.5 L 659.5 1311.0 L 661.5 1305.0 L 672.5 1296.0 L 672.5 1193.0 L 634.0 1192.5 L 632.5 1195.0 L 632.5 1296.0 L 643.5 1305.0 L 645.5 1315.0 L 634.0 1316.5 L 633.5 1319.0"/>
    <path d="M 1513.5 1321.0 L 1513.5 1307.0 L 1512.0 1305.5 L 1509.5 1306.0 L 1508.0 1311.5 L 1464.0 1311.5 L 1462.5 1306.0 L 1458.5 1306.0 L 1459.0 1322.5 L 1463.5 1321.0 L 1464.0 1316.5 L 1503.0 1315.5 L 1508.0 1316.5 L 1510.0 1322.5 Z"/>
    <path d="M 679.5 1332.0 L 679.0 1315.5 L 675.5 1316.0 L 674.0 1321.5 L 632.0 1322.5 L 629.0 1316.5 L 625.5 1318.0 L 625.5 1332.0 L 627.0 1333.5 L 630.5 1333.0 L 632.0 1327.5 L 674.0 1326.5 L 677.0 1333.5 Z"/>
    <path d="M 1466.5 1345.0 L 1468.0 1346.5 L 1506.0 1345.5 L 1506.5 1341.0 L 1496.5 1334.0 L 1494.5 1324.0 L 1496.0 1322.5 L 1506.0 1322.5 L 1506.5 1320.0 L 1505.0 1318.5 L 1467.0 1318.5 L 1468.0 1323.5 L 1477.0 1322.5 L 1478.5 1330.0 L 1471.0 1339.5 L 1466.5 1341.0"/>
    <path d="M 633.5 1357.0 L 672.0 1356.5 L 672.5 1352.0 L 661.5 1343.0 L 660.5 1335.0 L 662.0 1333.5 L 671.0 1333.5 L 672.5 1330.0 L 669.0 1328.5 L 635.0 1329.5 L 634.0 1333.5 L 643.0 1333.5 L 646.5 1337.0 L 642.5 1347.0 L 633.5 1353.0"/>
    <path d="M 1752.0 1380.5 L 1752.5 1355.0 L 1750.0 1353.5 L 1744.0 1354.5 L 1744.5 1380.0"/>
    <path d="M 1764.0 1380.5 L 1763.5 1355.0 L 1757.0 1353.5 L 1755.5 1355.0 L 1755.5 1379.0"/>
    <path d="M 1775.0 1380.5 L 1775.5 1355.0 L 1768.0 1353.5 L 1766.5 1355.0 L 1767.5 1379.0"/>
    <path d="M 1787.0 1380.5 L 1787.5 1355.0 L 1780.0 1353.5 L 1778.5 1355.0 L 1778.5 1379.0"/>
    <path d="M 1799.0 1380.5 L 1799.5 1355.0 L 1791.0 1353.5 L 1790.5 1379.0"/>
    <path d="M 1810.0 1380.5 L 1811.5 1379.0 L 1811.5 1355.0 L 1803.0 1353.5 L 1802.5 1379.0"/>
    <path d="M 86.0 1403.5 L 93.5 1402.0 L 93.5 1377.0 L 91.0 1375.5 L 84.5 1378.0"/>
    <path d="M 104.0 1402.5 L 104.5 1377.0 L 98.0 1375.5 L 95.5 1378.0 L 95.5 1401.0"/>
    <path d="M 115.0 1402.5 L 115.5 1377.0 L 108.0 1375.5 L 106.5 1377.0 L 106.5 1400.0 L 108.0 1402.5"/>
    <path d="M 126.0 1402.5 L 126.5 1377.0 L 119.0 1375.5 L 117.5 1377.0 L 117.5 1400.0 L 119.0 1402.5"/>
    <path d="M 137.0 1402.5 L 137.5 1377.0 L 130.0 1375.5 L 128.5 1377.0 L 128.5 1400.0 L 130.0 1402.5"/>
    <path d="M 147.0 1402.5 L 148.5 1401.0 L 148.5 1377.0 L 141.0 1375.5 L 139.5 1378.0 L 140.5 1402.0"/>
    <path d="M 80.0 1403.5 L 82.5 1402.0 L 82.5 1377.0 L 75.0 1376.5 L 74.5 1402.0"/>
    <path d="M 1753.0 1416.5 L 1754.5 1415.0 L 1753.5 1390.0 L 1747.0 1388.5 L 1744.5 1390.0 L 1745.5 1416.0"/>
    <path d="M 1764.0 1416.5 L 1765.5 1415.0 L 1764.5 1390.0 L 1758.0 1388.5 L 1756.5 1390.0 L 1756.5 1414.0 L 1759.0 1416.5"/>
    <path d="M 1776.0 1416.5 L 1776.5 1390.0 L 1769.0 1388.5 L 1767.5 1390.0 L 1768.5 1415.0"/>
    <path d="M 1787.0 1416.5 L 1788.5 1415.0 L 1788.5 1390.0 L 1781.0 1388.5 L 1779.5 1390.0 L 1779.5 1414.0 L 1782.0 1416.5"/>
    <path d="M 1799.0 1416.5 L 1800.5 1415.0 L 1800.5 1390.0 L 1792.0 1388.5 L 1791.5 1414.0 L 1795.0 1416.5"/>
    <path d="M 1812.0 1415.5 L 1811.5 1389.0 L 1804.0 1388.5 L 1803.5 1414.0"/>
    <path d="M 1741.0 1416.5 L 1742.5 1415.0 L 1741.5 1390.0 L 1734.0 1389.5 L 1732.5 1391.0 L 1733.5 1416.0"/>
    <path d="M 1203.5 1565.0 L 1202.5 1407.0 L 1204.0 1405.5 L 1439.0 1403.5 L 1440.5 1411.0 L 1438.0 1413.5 L 1365.5 1414.0 L 1367.0 1420.5 L 1379.0 1420.5 L 1380.5 1422.0 L 1380.5 1460.0 L 1378.0 1461.5 L 1368.0 1460.5 L 1366.5 1462.0 L 1366.5 1480.0 L 1368.0 1481.5 L 1439.0 1481.5 L 1438.5 1471.0 L 1441.5 1468.0 L 1441.5 1465.0 L 1437.5 1458.0 L 1441.5 1450.0 L 1437.5 1445.0 L 1437.5 1440.0 L 1443.0 1434.5 L 1458.0 1435.5 L 1460.0 1425.5 L 1467.0 1425.5 L 1469.0 1434.5 L 1482.0 1433.5 L 1487.5 1437.0 L 1488.5 1445.0 L 1485.5 1451.0 L 1489.5 1459.0 L 1485.5 1466.0 L 1489.5 1472.0 L 1489.0 1480.5 L 1551.5 1479.0 L 1551.5 1460.0 L 1537.0 1459.5 L 1535.5 1458.0 L 1534.5 1436.0 L 1535.5 1418.0 L 1549.0 1418.5 L 1550.5 1413.0 L 1549.0 1411.5 L 1487.0 1412.5 L 1486.5 1404.0 L 1488.0 1402.5 L 1602.0 1402.5 L 1603.5 1404.0 L 1606.5 1554.0 L 1605.0 1561.5 L 1205.0 1566.5 Z"/>
    <path d="M 1206.5 1562.0 L 1208.0 1563.5 L 1602.0 1558.5 L 1600.5 1406.0 L 1491.0 1405.5 L 1489.5 1407.0 L 1490.0 1409.5 L 1552.5 1410.0 L 1554.5 1480.0 L 1553.0 1481.5 L 1468.0 1482.5 L 1466.5 1481.0 L 1466.5 1433.0 L 1465.5 1429.0 L 1463.0 1428.5 L 1461.5 1430.0 L 1462.5 1480.0 L 1460.0 1482.5 L 1367.0 1484.5 L 1363.5 1481.0 L 1363.5 1412.0 L 1366.0 1410.5 L 1436.0 1410.5 L 1436.0 1406.5 L 1207.0 1408.5 L 1205.5 1410.0"/>
    <path d="M 120.0 1439.5 L 126.5 1437.0 L 126.5 1412.0 L 124.0 1410.5 L 120.0 1410.5 L 117.5 1413.0 L 118.5 1438.0 Z"/>
    <path d="M 136.0 1438.5 L 137.5 1437.0 L 137.5 1413.0 L 135.0 1410.5 L 131.0 1410.5 L 128.5 1413.0 L 128.5 1437.0"/>
    <path d="M 148.0 1438.5 L 148.5 1412.0 L 142.0 1410.5 L 139.5 1413.0 L 139.5 1437.0"/>
    <path d="M 159.0 1438.5 L 160.5 1437.0 L 159.5 1412.0 L 153.0 1410.5 L 151.5 1412.0 L 151.5 1438.0"/>
    <path d="M 81.0 1439.5 L 82.5 1438.0 L 82.5 1413.0 L 75.0 1411.5 L 73.5 1413.0 L 73.5 1438.0"/>
    <path d="M 91.0 1439.5 L 93.5 1438.0 L 93.5 1413.0 L 86.0 1411.5 L 84.5 1414.0 L 85.5 1439.0"/>
    <path d="M 101.0 1439.5 L 104.5 1438.0 L 104.5 1413.0 L 97.0 1411.5 L 95.5 1438.0"/>
    <path d="M 111.0 1439.5 L 115.5 1438.0 L 115.5 1413.0 L 114.0 1411.5 L 106.5 1413.0 L 107.5 1438.0 Z"/>
    <path d="M 252.5 1582.0 L 252.0 1421.5 L 359.0 1419.5 L 361.5 1422.0 L 360.5 1429.0 L 358.0 1430.5 L 306.0 1430.5 L 304.5 1432.0 L 305.0 1436.5 L 319.5 1437.0 L 319.5 1476.0 L 304.5 1479.0 L 304.5 1498.0 L 311.0 1499.5 L 367.0 1498.5 L 361.5 1490.0 L 365.5 1481.0 L 361.5 1475.0 L 364.5 1465.0 L 360.5 1458.0 L 366.0 1450.5 L 381.0 1450.5 L 383.0 1442.5 L 390.0 1442.5 L 391.5 1445.0 L 390.5 1450.0 L 393.0 1452.5 L 406.0 1450.5 L 411.5 1457.0 L 410.5 1462.0 L 407.5 1465.0 L 411.5 1475.0 L 407.5 1480.0 L 407.5 1483.0 L 410.5 1486.0 L 410.5 1492.0 L 406.5 1496.0 L 407.0 1498.5 L 465.0 1496.5 L 466.5 1495.0 L 466.5 1476.0 L 450.0 1476.5 L 448.5 1475.0 L 448.5 1436.0 L 450.0 1434.5 L 464.0 1434.5 L 466.5 1433.0 L 466.5 1428.0 L 411.0 1428.5 L 409.5 1421.0 L 412.0 1418.5 L 631.0 1414.5 L 633.5 1418.0 L 633.5 1575.0 L 632.0 1577.5 L 254.0 1583.5 Z"/>
    <path d="M 255.5 1579.0 L 257.0 1580.5 L 629.0 1574.5 L 630.5 1571.0 L 629.5 1419.0 L 625.0 1417.5 L 415.0 1421.5 L 412.5 1423.0 L 413.0 1425.5 L 468.5 1426.0 L 469.5 1496.0 L 467.0 1498.5 L 459.0 1499.5 L 390.0 1499.5 L 388.5 1446.0 L 385.0 1445.5 L 383.5 1447.0 L 382.5 1477.0 L 383.5 1491.0 L 378.5 1492.0 L 379.0 1494.5 L 383.5 1494.0 L 383.5 1498.0 L 378.0 1499.5 L 380.5 1497.0 L 375.0 1496.5 L 374.0 1499.5 L 353.0 1501.5 L 302.5 1501.0 L 301.5 1430.0 L 309.0 1427.5 L 355.0 1427.5 L 358.5 1425.0 L 358.0 1423.5 L 256.0 1424.5 L 254.5 1426.0"/>
    <path d="M 1544.0 1434.5 L 1546.5 1431.0 L 1543.5 1428.0 L 1546.5 1424.0 L 1542.0 1422.5 L 1539.5 1425.0 L 1539.5 1431.0"/>
    <path d="M 1374.0 1436.5 L 1376.5 1434.0 L 1376.5 1428.0 L 1371.0 1425.5 L 1369.5 1429.0 L 1372.5 1431.0 L 1369.5 1435.0"/>
    <path d="M 1550.5 1442.0 L 1550.0 1434.5 L 1545.0 1436.5 L 1537.5 1435.0 L 1539.0 1441.5 L 1546.0 1440.5 L 1548.0 1442.5 Z"/>
    <path d="M 1378.5 1443.0 L 1377.0 1437.5 L 1370.0 1438.5 L 1368.0 1436.5 L 1365.5 1437.0 L 1366.0 1443.5 L 1372.0 1441.5"/>
    <path d="M 455.0 1450.5 L 460.5 1449.0 L 458.5 1444.0 L 461.5 1441.0 L 459.0 1438.5 L 455.0 1439.5 L 452.5 1443.0 L 452.5 1447.0"/>
    <path d="M 1448.5 1446.0 L 1447.0 1439.5 L 1442.5 1442.0 L 1445.0 1446.5 Z"/>
    <path d="M 1482.0 1445.5 L 1484.5 1441.0 L 1479.0 1439.5 L 1478.5 1445.0 Z"/>
    <path d="M 312.0 1452.5 L 315.5 1449.0 L 315.5 1444.0 L 310.0 1441.5 L 307.5 1444.0 L 310.5 1447.0 L 308.5 1452.0 Z"/>
    <path d="M 1546.0 1453.5 L 1546.5 1450.0 L 1544.5 1448.0 L 1546.5 1444.0 L 1542.0 1442.5 L 1539.5 1446.0 L 1539.5 1450.0 L 1542.0 1453.5"/>
    <path d="M 1375.0 1455.5 L 1376.5 1447.0 L 1375.0 1444.5 L 1371.0 1444.5 L 1369.5 1447.0 L 1372.5 1451.0 L 1370.5 1454.0"/>
    <path d="M 459.0 1470.5 L 460.5 1467.0 L 458.5 1464.0 L 461.5 1462.0 L 460.5 1459.0 L 464.0 1459.5 L 466.5 1457.0 L 465.5 1451.0 L 455.0 1452.5 L 452.0 1450.5 L 452.0 1458.5 L 455.0 1456.5 L 460.5 1458.0 L 456.0 1458.5 L 452.5 1463.0 L 452.5 1467.0 L 456.0 1470.5 Z"/>
    <path d="M 303.5 1460.0 L 306.0 1461.5 L 309.0 1459.5 L 317.0 1459.5 L 317.5 1454.0 L 309.0 1454.5 L 305.0 1452.5"/>
    <path d="M 1483.0 1461.5 L 1484.5 1456.0 L 1479.0 1454.5 L 1478.5 1461.0"/>
    <path d="M 371.5 1461.0 L 371.0 1455.5 L 365.5 1458.0 L 367.0 1461.5"/>
    <path d="M 402.0 1462.5 L 406.5 1460.0 L 405.0 1455.5 L 400.5 1457.0"/>
    <path d="M 1448.0 1462.5 L 1448.5 1456.0 L 1444.0 1455.5 L 1442.5 1460.0"/>
    <path d="M 305.0 1475.5 L 308.5 1475.0 L 308.0 1471.5 L 311.0 1472.5 L 315.5 1469.0 L 315.5 1464.0 L 313.0 1461.5 L 307.5 1463.0 L 310.5 1467.0 L 303.5 1473.0 Z"/>
    <path d="M 466.5 1471.0 L 464.0 1469.5 L 459.5 1473.0 L 465.0 1473.5 Z"/>
    <path d="M 371.0 1477.5 L 371.5 1471.0 L 369.0 1470.5 L 365.5 1475.0"/>
    <path d="M 404.0 1477.5 L 407.5 1473.0 L 402.0 1470.5 L 400.5 1476.0 Z"/>
    <path d="M 1482.0 1477.5 L 1484.5 1472.0 L 1479.0 1470.5 L 1478.5 1476.0 Z"/>
    <path d="M 1448.5 1477.0 L 1448.0 1471.5 L 1442.5 1474.0 L 1445.0 1477.5 Z"/>
    <path d="M 371.0 1492.5 L 372.5 1487.0 L 369.0 1485.5 L 365.5 1490.0"/>
    <path d="M 404.0 1492.5 L 406.5 1488.0 L 402.0 1485.5 L 400.5 1492.0 Z"/>
    <path d="M 999.5 1578.0 L 998.0 1569.5 L 955.0 1570.5 L 952.5 1572.0 L 953.0 1579.5"/>
    <path d="M 842.5 1581.0 L 844.0 1582.5 L 888.0 1581.5 L 890.5 1580.0 L 890.5 1573.0 L 889.0 1571.5 L 844.0 1572.5"/>
    <path d="M 952.5 1590.0 L 954.0 1591.5 L 998.0 1590.5 L 999.5 1582.0 L 953.0 1582.5"/>
    <path d="M 842.5 1592.0 L 844.0 1593.5 L 889.0 1592.5 L 890.5 1585.0 L 889.0 1583.5 L 844.0 1584.5"/>
    <path d="M 952.5 1603.0 L 999.0 1602.5 L 1000.5 1595.0 L 999.0 1593.5 L 953.0 1594.5"/>
    <path d="M 842.5 1603.0 L 844.0 1605.5 L 889.0 1604.5 L 890.5 1596.0 L 844.0 1596.5"/>
    <path d="M 952.5 1614.0 L 954.0 1615.5 L 999.0 1614.5 L 1000.5 1608.0 L 999.0 1605.5 L 953.0 1606.5"/>
    <path d="M 843.5 1617.0 L 889.0 1616.5 L 890.5 1608.0 L 844.0 1608.5"/>
    <path d="M 952.5 1626.0 L 954.0 1627.5 L 998.0 1626.5 L 1000.5 1625.0 L 1000.5 1619.0 L 999.0 1617.5 L 954.0 1617.5"/>
    <path d="M 843.5 1629.0 L 889.0 1628.5 L 890.5 1620.0 L 845.0 1619.5"/>
    <path d="M 1000.5 1637.0 L 999.0 1628.5 L 954.0 1629.5 L 952.5 1631.0 L 953.0 1638.5 L 999.0 1638.5 Z"/>
    <path d="M 842.5 1639.0 L 844.0 1641.5 L 889.0 1640.5 L 890.5 1632.0 L 845.0 1631.5"/>
    <path d="M 1000.5 1649.0 L 999.0 1640.5 L 954.0 1641.5 L 952.5 1643.0 L 954.0 1650.5 L 998.0 1650.5 Z"/>
    <path d="M 843.5 1652.0 L 845.0 1653.5 L 886.0 1652.5 L 890.5 1651.0 L 890.5 1644.0 L 845.0 1643.5"/>
    <path d="M 952.5 1661.0 L 954.0 1662.5 L 1000.0 1661.5 L 1000.5 1654.0 L 999.0 1652.5 L 954.0 1653.5"/>
    <path d="M 890.5 1663.0 L 890.0 1654.5 L 845.0 1655.5 L 843.5 1657.0 L 844.0 1664.5"/>
    <path d="M 952.5 1672.0 L 954.0 1674.5 L 1000.0 1673.5 L 1000.5 1666.0 L 999.0 1664.5 L 954.0 1665.5"/>
    <path d="M 843.5 1676.0 L 890.0 1675.5 L 890.5 1667.0 L 845.0 1667.5"/>
  </g>
</svg>
