<?xml version="1.0" encoding="UTF-8"?>
<svg xmlns="http://www.w3.org/2000/svg" width="2376" height="1482" viewBox="0 0 2376 1482">
  <rect width="100%" height="100%" fill="#ffffff"/>
  <g id="base-map-no-labels" fill="none" stroke="#111827" stroke-width="2.2" stroke-linecap="round" stroke-linejoin="round">
    <path d="M 2291.5 1447.0 L 2290.0 1448.5 L 1924.0 1447.5 L 1418.0 1442.5 L 1415.5 1440.0 L 1417.5 1341.0 L 1416.0 1339.5 L 1059.0 1336.5 L 870.0 1336.5 L 868.5 1438.0 L 867.0 1439.5 L 524.0 1438.5 L 80.0 1432.5 L 76.5 1429.0 L 81.5 1348.0 L 83.5 1210.0 L 82.0 1208.5 L 26.0 1208.5 L 23.5 1206.0 L 23.5 1128.0 L 27.5 1024.0 L 26.5 887.0 L 28.0 884.5 L 85.5 884.0 L 88.5 778.0 L 88.5 668.0 L 91.0 665.5 L 186.0 665.5 L 1040.0 675.5 L 1045.5 24.0 L 1069.0 23.5 L 1070.5 25.0 L 1070.5 47.0 L 1072.0 48.5 L 1083.5 42.0 L 1090.0 28.5 L 1092.5 31.0 L 1092.5 37.0 L 1101.0 46.5 L 1108.0 48.5 L 1108.5 26.0 L 1111.0 23.5 L 1457.0 27.5 L 1458.5 30.0 L 1456.5 145.0 L 1458.0 146.5 L 1482.0 146.5 L 1483.5 149.0 L 1478.5 489.0 L 1478.0 679.5 L 2298.0 686.5 L 2299.5 688.0 L 2296.5 811.0 L 2296.5 903.0 L 2302.0 905.5 L 2341.0 905.5 L 2342.5 907.0 L 2342.5 1227.0 L 2341.0 1228.5 L 2296.0 1228.5 L 2294.5 1230.0"/>
    <path d="M 2287.5 1443.0 L 2291.5 1226.0 L 2293.0 1224.5 L 2338.5 1224.0 L 2338.5 911.0 L 2332.0 908.5 L 2296.0 908.5 L 2293.5 906.0 L 2292.5 809.0 L 2295.5 691.0 L 2291.0 689.5 L 1475.0 682.5 L 1473.5 681.0 L 1474.5 505.0 L 1479.5 152.0 L 1478.0 150.5 L 1457.0 150.5 L 1453.5 148.0 L 1454.0 31.5 L 1290.0 28.5 L 1112.5 28.0 L 1113.0 32.5 L 1255.0 33.5 L 1257.5 36.0 L 1258.0 74.5 L 1262.5 73.0 L 1262.5 38.0 L 1264.0 34.5 L 1447.0 36.5 L 1449.5 39.0 L 1448.5 146.0 L 1446.0 149.5 L 1263.0 147.5 L 1261.5 146.0 L 1261.5 122.0 L 1256.5 121.0 L 1249.5 685.0 L 1251.0 686.5 L 1379.0 687.5 L 1381.5 691.0 L 1380.0 725.5 L 1249.5 726.0 L 1250.0 730.5 L 1325.0 731.5 L 1327.5 734.0 L 1326.5 901.0 L 1328.0 902.5 L 1496.0 903.5 L 1831.0 909.5 L 2332.0 914.5 L 2333.5 916.0 L 2332.5 997.0 L 2331.0 998.5 L 2159.0 997.5 L 2157.5 999.0 L 2158.5 1217.0 L 2156.0 1219.5 L 1448.0 1210.5 L 1445.5 1209.0 L 1444.5 1204.0 L 1445.5 971.0 L 1426.0 969.5 L 1250.0 968.5 L 1246.5 1327.0 L 1245.0 1328.5 L 1043.0 1327.5 L 1047.5 967.0 L 1021.0 965.5 L 851.5 966.0 L 847.5 1196.0 L 845.0 1205.5 L 452.0 1204.5 L 205.5 1201.0 L 204.5 1116.0 L 207.5 982.0 L 206.0 980.5 L 37.0 978.5 L 35.5 895.0 L 37.0 893.5 L 727.0 899.5 L 1045.0 900.5 L 1046.5 899.0 L 1050.5 582.0 L 1053.5 43.0 L 1054.5 34.0 L 1056.0 32.5 L 1065.0 32.5 L 1066.5 31.0 L 1065.0 26.5 L 1050.0 26.5 L 1048.5 28.0 L 1044.5 675.0 L 1043.0 678.5 L 917.0 678.5 L 332.0 670.5 L 92.5 670.0 L 92.5 774.0 L 89.5 885.0 L 87.0 888.5 L 30.5 889.0 L 31.5 983.0 L 27.5 1103.0 L 27.5 1204.0 L 85.0 1205.5 L 86.5 1207.0 L 86.5 1299.0 L 81.5 1405.0 L 82.0 1428.5 L 508.0 1434.5 L 864.0 1435.5 L 865.5 1337.0 L 869.0 1332.5 L 1189.0 1333.5 L 1420.0 1336.5 L 1421.5 1340.0 L 1420.0 1438.5 L 1925.0 1443.5 L 2286.0 1444.5 Z"/>
    <path d="M 2154.0 1215.5 L 2153.5 996.0 L 2156.0 993.5 L 2177.5 993.0 L 2177.5 958.0 L 2179.0 956.5 L 2283.0 957.5 L 2285.5 960.0 L 2284.5 993.0 L 2286.0 994.5 L 2328.0 994.5 L 2329.5 974.0 L 2329.5 919.0 L 2328.0 917.5 L 2285.0 917.5 L 2284.0 953.5 L 2244.0 954.5 L 2193.0 953.5 L 2191.5 952.0 L 2192.5 918.0 L 2191.0 916.5 L 1326.0 906.5 L 1322.5 903.0 L 1324.5 736.0 L 1323.0 734.5 L 1249.0 734.5 L 1245.5 731.0 L 1246.5 723.0 L 1256.5 720.0 L 1256.5 691.0 L 1246.5 688.0 L 1252.5 118.0 L 1254.0 116.5 L 1277.5 117.0 L 1274.5 107.0 L 1266.0 100.5 L 1259.0 99.5 L 1258.5 97.0 L 1271.0 92.5 L 1278.5 81.0 L 1277.0 78.5 L 1255.0 78.5 L 1253.5 77.0 L 1253.0 37.5 L 1113.0 36.5 L 1112.5 51.0 L 1110.0 52.5 L 1098.0 49.5 L 1090.0 39.5 L 1081.0 49.5 L 1069.0 52.5 L 1066.5 50.0 L 1066.5 37.0 L 1065.0 35.5 L 1057.5 37.0 L 1053.5 649.0 L 1051.5 708.0 L 1050.5 901.0 L 1049.0 903.5 L 555.0 902.5 L 186.0 898.5 L 185.5 933.0 L 183.0 935.5 L 88.0 934.5 L 86.5 933.0 L 86.5 899.0 L 85.0 897.5 L 39.5 898.0 L 39.5 974.0 L 41.0 975.5 L 85.0 975.5 L 85.5 939.0 L 87.0 937.5 L 198.0 938.5 L 199.5 940.0 L 199.5 976.0 L 201.0 977.5 L 207.0 976.5 L 211.5 982.0 L 208.5 1104.0 L 208.5 1197.0 L 210.0 1198.5 L 842.0 1202.5 L 843.5 1201.0 L 847.5 964.0 L 850.0 961.5 L 1048.0 962.5 L 1051.5 965.0 L 1048.5 1159.0 L 1050.0 1160.5 L 1112.0 1160.5 L 1113.5 1166.0 L 1111.5 1298.0 L 1110.0 1299.5 L 1047.0 1298.5 L 1045.5 1301.0 L 1045.5 1323.0 L 1047.0 1324.5 L 1138.0 1324.5 L 1138.5 1321.0 L 1132.5 1305.0 L 1132.5 1300.0 L 1136.5 1298.0 L 1138.0 1289.5 L 1145.0 1289.5 L 1145.5 1298.0 L 1149.5 1301.0 L 1143.5 1319.0 L 1144.0 1324.5 L 1242.0 1325.5 L 1243.5 1324.0 L 1243.0 1301.5 L 1181.0 1300.5 L 1179.5 1299.0 L 1180.5 1164.0 L 1182.0 1161.5 L 1244.5 1161.0 L 1245.5 967.0 L 1248.0 964.5 L 1447.0 966.5 L 1449.5 968.0 L 1449.0 1206.5 L 1886.0 1213.5"/>
    <path d="M 1444.5 145.0 L 1445.5 41.0 L 1444.0 39.5 L 1431.5 40.0 L 1431.5 83.0 L 1430.0 88.5 L 1318.0 87.5 L 1315.5 85.0 L 1316.0 38.5 L 1266.5 38.0 L 1265.5 74.0 L 1267.0 75.5 L 1281.0 75.5 L 1282.5 81.0 L 1278.5 90.0 L 1269.5 97.0 L 1278.5 106.0 L 1281.5 112.0 L 1281.5 120.0 L 1280.0 121.5 L 1265.5 122.0 L 1266.0 144.5 L 1301.0 144.5 L 1301.5 97.0 L 1303.0 95.5 L 1416.0 97.5 L 1417.5 100.0 L 1416.5 145.0 L 1418.0 146.5 L 1443.0 146.5 Z"/>
    <path d="M 1329.0 83.5 L 1330.5 82.0 L 1330.5 40.0 L 1321.0 38.5 L 1319.5 82.0"/>
    <path d="M 1343.0 84.5 L 1344.5 40.0 L 1336.0 38.5 L 1333.5 41.0 L 1333.5 83.0"/>
    <path d="M 1357.0 84.5 L 1358.5 83.0 L 1358.5 40.0 L 1348.0 39.5 L 1347.5 83.0"/>
    <path d="M 1371.0 84.5 L 1372.5 41.0 L 1363.0 39.5 L 1361.5 41.0 L 1361.5 84.0"/>
    <path d="M 1385.0 84.5 L 1386.5 41.0 L 1377.0 39.5 L 1375.5 41.0 L 1375.5 84.0"/>
    <path d="M 1399.0 84.5 L 1400.5 41.0 L 1391.0 39.5 L 1389.5 41.0 L 1389.5 84.0"/>
    <path d="M 1412.0 85.5 L 1413.5 84.0 L 1414.5 41.0 L 1405.0 39.5 L 1403.5 41.0 L 1403.5 84.0"/>
    <path d="M 1426.0 85.5 L 1427.5 84.0 L 1427.5 41.0 L 1419.0 39.5 L 1417.5 41.0 L 1417.5 85.0"/>
    <path d="M 1315.0 144.5 L 1315.5 100.0 L 1306.0 99.5 L 1304.5 143.0 L 1306.0 144.5"/>
    <path d="M 1325.0 145.5 L 1329.5 144.0 L 1329.5 100.0 L 1320.0 99.5 L 1319.5 144.0"/>
    <path d="M 1342.0 145.5 L 1343.5 144.0 L 1343.5 100.0 L 1334.0 99.5 L 1332.5 143.0 L 1335.0 145.5"/>
    <path d="M 1356.0 145.5 L 1357.5 144.0 L 1357.5 100.0 L 1348.0 99.5 L 1346.5 101.0 L 1346.5 144.0"/>
    <path d="M 1370.0 145.5 L 1371.5 144.0 L 1371.5 101.0 L 1363.0 99.5 L 1361.5 101.0 L 1360.5 144.0"/>
    <path d="M 1384.0 145.5 L 1385.5 101.0 L 1377.0 99.5 L 1375.5 101.0 L 1374.5 145.0"/>
    <path d="M 1398.0 145.5 L 1399.5 144.0 L 1399.5 101.0 L 1390.0 100.5 L 1388.5 102.0 L 1388.5 145.0"/>
    <path d="M 1411.0 146.5 L 1412.5 145.0 L 1413.5 102.0 L 1404.0 100.5 L 1402.5 102.0 L 1402.5 145.0"/>
    <path d="M 1471.5 328.0 L 1260.0 326.5 L 1261.5 155.0 L 1263.0 153.5 L 1474.0 156.5 L 1473.5 289.0"/>
    <path d="M 1468.5 325.0 L 1470.0 159.5 L 1266.0 157.5 L 1264.5 159.0 L 1262.5 322.0 L 1264.0 323.5"/>
    <path d="M 1469.5 507.0 L 1258.0 506.5 L 1256.5 504.0 L 1259.5 334.0 L 1261.0 332.5 L 1356.0 332.5 L 1471.0 334.5 L 1472.5 337.0"/>
    <path d="M 1466.5 504.0 L 1468.0 337.5 L 1272.0 335.5 L 1262.5 337.0 L 1260.5 502.0 L 1262.0 503.5"/>
    <path d="M 1468.5 681.0 L 1467.0 682.5 L 1256.0 680.5 L 1254.5 678.0 L 1256.5 514.0 L 1259.0 511.5 L 1469.0 513.5 L 1470.5 516.0"/>
    <path d="M 1464.5 678.0 L 1466.0 516.5 L 1262.0 514.5 L 1259.5 517.0 L 1259.0 677.5"/>
    <path d="M 951.0 894.5 L 869.0 893.5 L 867.5 892.0 L 869.5 687.0 L 873.0 682.5 L 953.0 683.5 L 956.5 688.0 L 956.5 699.0 L 955.0 700.5 L 952.5 700.0 L 952.5 688.0 L 950.0 686.5 L 875.0 686.5 L 873.5 688.0 L 871.5 890.0 L 949.0 890.5 L 950.5 889.0 L 949.5 880.0 L 953.0 878.5 L 954.5 881.0 L 953.5 892.0 Z"/>
    <path d="M 1040.0 894.5 L 961.0 894.5 L 958.5 892.0 L 958.5 880.0 L 960.0 878.5 L 962.5 879.0 L 962.5 890.0 L 964.0 891.5 L 1037.0 891.5 L 1038.5 856.0 L 1039.5 689.0 L 1037.0 687.5 L 965.0 687.5 L 964.5 700.0 L 962.0 700.5 L 960.5 692.0 L 963.0 683.5 L 1041.0 684.5 L 1043.5 687.0 L 1041.5 892.0 Z"/>
    <path d="M 2111.5 904.0 L 2110.0 906.5 L 1898.0 904.5 L 1893.0 894.5 L 1889.5 896.0 L 1889.5 902.0 L 1887.0 904.5 L 1830.0 903.5 L 1827.5 902.0 L 1825.0 894.5 L 1821.5 896.0 L 1821.5 902.0 L 1819.0 903.5 L 1606.0 900.5 L 1602.5 896.0 L 1604.5 692.0 L 1606.0 689.5 L 1821.0 690.5 L 1823.5 693.0 L 1823.0 824.5 L 1827.5 823.0 L 1828.5 700.0 L 1829.5 693.0 L 1833.0 690.5 L 1890.0 691.5 L 1891.5 693.0 L 1889.5 817.0 L 1891.0 824.5 L 1895.5 823.0 L 1898.0 692.5 L 2112.0 693.5 L 2113.5 695.0 L 2113.5 765.0 L 2111.5 801.0"/>
    <path d="M 1841.5 881.0 L 1842.5 875.0 L 1841.0 873.5 L 1819.0 874.5 L 1817.5 873.0 L 1818.5 845.0 L 1843.5 844.0 L 1842.5 838.0 L 1835.0 830.5 L 1825.0 827.5 L 1821.0 828.5 L 1817.5 825.0 L 1819.0 694.5 L 1610.0 692.5 L 1608.5 694.0 L 1607.0 896.5 L 1817.0 899.5 L 1819.0 891.5 L 1832.0 889.5"/>
    <path d="M 1884.0 854.5 L 1886.5 853.0 L 1885.0 849.5 L 1872.0 849.5 L 1869.5 847.0 L 1869.5 843.0 L 1874.5 833.0 L 1886.5 826.0 L 1888.5 696.0 L 1887.0 694.5 L 1833.0 694.5 L 1830.5 824.0 L 1839.0 828.5 L 1844.5 834.0 L 1848.5 845.0 L 1846.0 848.5 L 1831.0 848.5 L 1830.5 852.0 L 1832.0 853.5"/>
    <path d="M 2106.0 903.5 L 2107.5 902.0 L 2107.5 801.0 L 2110.5 699.0 L 2107.0 696.5 L 1902.0 695.5 L 1900.5 697.0 L 1899.5 826.0 L 1897.0 828.5 L 1881.0 832.5 L 1875.5 838.0 L 1873.5 843.0 L 1876.0 846.5 L 1893.0 844.5 L 1898.5 846.0 L 1898.5 873.0 L 1897.0 874.5 L 1875.0 874.5 L 1874.5 878.0 L 1878.5 885.0 L 1886.0 890.5 L 1897.0 891.5 L 1898.5 900.0 L 1903.0 901.5"/>
    <path d="M 1895.5 869.0 L 1895.5 851.0 L 1894.0 848.5 L 1889.5 851.0 L 1889.5 855.0 L 1887.0 857.5 L 1831.0 857.5 L 1827.5 855.0 L 1826.0 848.5 L 1821.5 850.0 L 1822.0 870.5 L 1826.5 870.0 L 1829.0 862.5 L 1889.0 863.5 L 1890.0 870.5"/>
    <path d="M 1886.5 900.0 L 1886.5 895.0 L 1873.5 885.0 L 1869.5 874.0 L 1873.0 870.5 L 1886.0 870.5 L 1885.0 866.5 L 1832.0 865.5 L 1830.5 867.0 L 1832.0 870.5 L 1845.0 870.5 L 1847.5 874.0 L 1842.5 886.0 L 1830.5 894.0 L 1831.0 899.5"/>
    <path d="M 98.0 931.5 L 100.5 930.0 L 100.5 899.0 L 99.0 897.5 L 90.0 897.5 L 89.5 929.0 L 92.0 931.5"/>
    <path d="M 112.0 931.5 L 114.5 930.0 L 113.5 898.0 L 104.0 897.5 L 103.5 930.0"/>
    <path d="M 126.0 931.5 L 127.5 930.0 L 127.5 899.0 L 118.0 897.5 L 117.5 931.0"/>
    <path d="M 141.0 931.5 L 141.5 900.0 L 139.0 897.5 L 132.0 897.5 L 130.5 899.0 L 130.5 930.0 L 132.0 931.5"/>
    <path d="M 154.0 931.5 L 154.5 899.0 L 146.0 897.5 L 144.5 899.0 L 144.5 931.0"/>
    <path d="M 167.0 931.5 L 168.5 930.0 L 167.5 899.0 L 160.0 897.5 L 157.5 899.0 L 157.5 930.0"/>
    <path d="M 182.0 931.5 L 181.5 899.0 L 172.0 898.5 L 170.5 900.0 L 171.5 931.0"/>
    <path d="M 2206.0 950.5 L 2206.5 917.0 L 2197.0 916.5 L 2195.5 918.0 L 2195.5 949.0 L 2197.0 950.5"/>
    <path d="M 2221.0 950.5 L 2221.5 917.0 L 2211.0 916.5 L 2209.5 949.0 L 2211.0 950.5"/>
    <path d="M 2236.0 950.5 L 2236.5 918.0 L 2227.0 916.5 L 2225.5 918.0 L 2224.5 949.0 L 2226.0 950.5"/>
    <path d="M 2250.0 950.5 L 2251.5 949.0 L 2251.5 918.0 L 2242.0 916.5 L 2239.5 918.0 L 2239.5 950.0"/>
    <path d="M 2264.0 951.5 L 2266.5 950.0 L 2266.5 918.0 L 2258.0 916.5 L 2254.5 918.0 L 2254.5 950.0"/>
    <path d="M 2278.0 951.5 L 2280.5 950.0 L 2281.5 919.0 L 2280.0 917.5 L 2270.0 917.5 L 2269.5 950.0"/>
    <path d="M 784.5 1162.0 L 783.0 1163.5 L 678.0 1162.5 L 676.5 1174.0 L 679.0 1176.5 L 688.0 1176.5 L 690.5 1179.0 L 689.0 1185.5 L 679.0 1185.5 L 668.5 1179.0 L 668.5 1164.0 L 667.0 1162.5 L 310.0 1161.5 L 307.5 1159.0 L 309.5 959.0 L 312.0 957.5 L 447.0 958.5 L 448.5 960.0 L 448.5 969.0 L 447.0 970.5 L 375.5 971.0 L 375.5 986.0 L 377.0 987.5 L 390.5 988.0 L 390.5 1029.0 L 375.5 1032.0 L 374.5 1055.0 L 376.0 1056.5 L 455.0 1056.5 L 454.5 1049.0 L 457.5 1045.0 L 454.5 1038.0 L 457.5 1030.0 L 454.5 1023.0 L 457.5 1015.0 L 454.5 1008.0 L 455.5 1003.0 L 462.0 997.5 L 471.0 998.5 L 473.0 988.5 L 483.0 988.5 L 485.0 998.5 L 494.0 997.5 L 501.5 1004.0 L 501.5 1009.0 L 498.5 1014.0 L 501.5 1019.0 L 501.5 1024.0 L 498.5 1029.0 L 501.5 1035.0 L 498.5 1043.0 L 501.0 1057.5 L 576.0 1057.5 L 577.5 1056.0 L 577.5 1033.0 L 575.0 1031.5 L 564.0 1032.5 L 561.5 1030.0 L 562.5 989.0 L 577.0 988.5 L 578.5 987.0 L 578.5 973.0 L 577.0 971.5 L 510.0 971.5 L 508.5 970.0 L 509.0 959.5 L 671.0 960.5 L 671.5 933.0 L 679.0 926.5 L 693.0 926.5 L 694.5 933.0 L 692.0 935.5 L 680.5 936.0 L 679.5 959.0 L 681.0 960.5 L 785.0 960.5 L 787.5 962.0 L 787.5 1053.0"/>
    <path d="M 99.0 975.5 L 99.5 942.0 L 92.0 940.5 L 88.5 943.0 L 89.5 975.0"/>
    <path d="M 113.0 975.5 L 114.5 974.0 L 113.5 942.0 L 103.0 941.5 L 102.5 974.0 L 104.0 975.5"/>
    <path d="M 127.0 975.5 L 127.5 943.0 L 118.0 941.5 L 116.5 943.0 L 117.5 975.0"/>
    <path d="M 141.0 975.5 L 141.5 943.0 L 140.0 941.5 L 131.0 941.5 L 130.5 975.0"/>
    <path d="M 153.0 976.5 L 154.5 975.0 L 154.5 943.0 L 145.0 941.5 L 144.5 975.0"/>
    <path d="M 167.0 976.5 L 168.5 975.0 L 168.5 943.0 L 159.0 941.5 L 157.5 944.0 L 157.5 975.0"/>
    <path d="M 181.0 976.5 L 182.5 975.0 L 182.5 943.0 L 173.0 941.5 L 171.5 943.0 L 171.5 976.0"/>
    <path d="M 195.0 976.5 L 196.5 975.0 L 195.5 943.0 L 187.0 941.5 L 185.5 943.0 L 185.5 976.0"/>
    <path d="M 2192.0 994.5 L 2192.5 962.0 L 2191.0 960.5 L 2182.0 960.5 L 2181.5 994.0"/>
    <path d="M 2206.0 994.5 L 2207.5 993.0 L 2207.5 962.0 L 2206.0 960.5 L 2197.0 960.5 L 2195.5 962.0 L 2195.5 993.0 L 2197.0 994.5"/>
    <path d="M 2221.0 994.5 L 2222.5 993.0 L 2221.5 961.0 L 2211.0 960.5 L 2210.5 994.0"/>
    <path d="M 2236.0 994.5 L 2237.5 993.0 L 2236.5 962.0 L 2227.0 960.5 L 2225.5 962.0 L 2225.5 994.0"/>
    <path d="M 2251.0 994.5 L 2251.5 962.0 L 2242.0 960.5 L 2240.5 962.0 L 2240.5 994.0"/>
    <path d="M 2264.0 995.5 L 2266.5 994.0 L 2266.5 962.0 L 2258.0 960.5 L 2254.5 962.0 L 2254.5 994.0"/>
    <path d="M 781.5 1159.0 L 784.5 966.0 L 783.0 964.5 L 514.0 962.5 L 511.5 965.0 L 513.0 967.5 L 580.0 968.5 L 581.5 970.0 L 580.5 1059.0 L 579.0 1060.5 L 481.0 1059.5 L 480.5 992.0 L 476.0 991.5 L 474.5 994.0 L 474.5 1058.0 L 473.0 1059.5 L 425.0 1060.5 L 373.0 1059.5 L 371.5 1058.0 L 372.5 969.0 L 376.0 966.5 L 443.0 967.5 L 444.0 962.5 L 313.5 962.0 L 312.0 1157.5 L 731.0 1160.5"/>
    <path d="M 2280.0 995.5 L 2281.5 994.0 L 2281.5 962.0 L 2271.0 961.5 L 2269.5 963.0 L 2269.5 994.0"/>
    <path d="M 360.0 1153.5 L 320.0 1153.5 L 316.5 1151.0 L 318.5 968.0 L 320.0 966.5 L 365.0 966.5 L 367.5 971.0 L 364.5 1151.0"/>
    <path d="M 2018.5 1173.0 L 2016.0 1175.5 L 1504.0 1169.5 L 1501.5 1166.0 L 1501.5 969.0 L 1504.0 966.5 L 1805.0 970.5 L 1805.5 981.0 L 1803.0 982.5 L 1710.5 982.0 L 1710.5 997.0 L 1726.0 997.5 L 1727.5 999.0 L 1727.5 1040.0 L 1726.0 1041.5 L 1710.5 1042.0 L 1710.5 1066.0 L 1720.0 1067.5 L 1813.0 1068.5 L 1812.5 1060.0 L 1814.5 1058.0 L 1814.5 1054.0 L 1812.5 1051.0 L 1812.5 1045.0 L 1814.5 1040.0 L 1812.5 1037.0 L 1812.5 1030.0 L 1814.5 1025.0 L 1811.5 1017.0 L 1816.0 1010.5 L 1828.0 1010.5 L 1830.0 999.5 L 1839.0 999.5 L 1841.5 1001.0 L 1842.0 1011.5 L 1853.0 1010.5 L 1859.5 1016.0 L 1859.5 1022.0 L 1856.5 1027.0 L 1859.5 1031.0 L 1859.5 1038.0 L 1857.5 1040.0 L 1859.5 1053.0 L 1857.5 1058.0 L 1859.5 1060.0 L 1861.0 1069.5 L 1949.5 1069.0 L 1949.5 1046.0 L 1935.5 1044.0 L 1934.5 1002.0 L 1948.5 1001.0 L 1948.5 985.0 L 1867.0 983.5 L 1865.5 982.0 L 1866.0 971.5 L 2015.0 972.5 L 2017.5 974.0"/>
    <path d="M 360.0 1149.5 L 361.5 1148.0 L 363.5 972.0 L 362.0 970.5 L 324.0 969.5 L 322.5 971.0 L 320.5 1149.0"/>
    <path d="M 551.5 1427.0 L 551.5 1362.0 L 556.5 1212.0 L 559.0 1209.5 L 807.0 1211.5 L 808.5 1218.0 L 805.5 1340.0 L 809.0 1340.5 L 810.5 1338.0 L 812.5 1215.0 L 815.0 1211.5 L 892.0 1211.5 L 893.5 1213.0 L 891.5 1290.0 L 893.0 1291.5 L 897.5 1290.0 L 898.5 1207.0 L 895.0 1205.5 L 854.0 1205.5 L 852.5 1204.0 L 857.5 972.0 L 859.0 970.5 L 1022.0 970.5 L 1041.0 971.5 L 1042.5 973.0 L 1036.5 1325.0 L 1034.0 1327.5 L 898.0 1327.5 L 896.0 1316.5 L 891.5 1317.0 L 891.5 1325.0 L 889.0 1327.5 L 862.0 1327.5 L 859.5 1429.0 L 858.0 1430.5 L 813.0 1430.5 L 808.5 1427.0 L 809.5 1367.0 L 808.0 1365.5 L 804.5 1367.0 L 804.5 1425.0 L 802.0 1430.5 L 554.0 1429.5 Z"/>
    <path d="M 2014.5 1171.0 L 2014.5 1004.0 L 2013.0 976.5 L 1870.0 974.5 L 1870.0 979.5 L 1950.0 980.5 L 1951.5 982.0 L 1953.5 1003.0 L 1953.5 1071.0 L 1952.0 1072.5 L 1848.0 1072.5 L 1841.0 1071.5 L 1838.5 1069.0 L 1838.5 1009.0 L 1837.0 1003.5 L 1832.5 1004.0 L 1832.5 1070.0 L 1831.0 1071.5 L 1711.0 1070.5 L 1707.5 1068.0 L 1707.5 979.0 L 1709.0 977.5 L 1801.0 978.5 L 1800.0 973.5 L 1507.0 970.5 L 1505.5 972.0 L 1505.5 1164.0 L 1507.0 1165.5 L 1828.0 1170.5"/>
    <path d="M 1031.0 1324.5 L 1032.5 1323.0 L 1034.5 1266.0 L 1039.5 975.0 L 861.0 973.5 L 855.5 1201.0 L 857.0 1202.5 L 901.0 1202.5 L 903.5 1206.0 L 900.5 1294.0 L 885.0 1297.5 L 878.5 1303.0 L 875.5 1311.0 L 877.0 1312.5 L 898.0 1312.5 L 900.5 1315.0 L 901.0 1323.5"/>
    <path d="M 1737.5 1434.0 L 1735.0 1436.5 L 1485.0 1434.5 L 1480.5 1431.0 L 1481.5 1373.0 L 1480.0 1370.5 L 1476.5 1371.0 L 1475.5 1432.0 L 1474.0 1433.5 L 1427.0 1433.5 L 1424.5 1431.0 L 1426.5 1332.0 L 1425.0 1330.5 L 1402.0 1330.5 L 1399.0 1319.5 L 1395.5 1321.0 L 1395.5 1328.0 L 1393.0 1330.5 L 1254.0 1328.5 L 1252.5 1327.0 L 1254.5 976.0 L 1257.0 973.5 L 1439.0 975.5 L 1440.5 977.0 L 1439.5 1208.0 L 1437.0 1210.5 L 1397.0 1209.5 L 1395.5 1211.0 L 1395.5 1294.0 L 1401.5 1293.0 L 1400.5 1221.0 L 1402.0 1215.5 L 1475.0 1216.5 L 1476.5 1219.0 L 1476.5 1344.0 L 1478.0 1345.5 L 1481.5 1343.0 L 1480.5 1222.0 L 1481.5 1218.0 L 1485.0 1215.5 L 1737.0 1220.5 L 1738.5 1223.0"/>
    <path d="M 1391.0 1326.5 L 1392.0 1316.5 L 1400.0 1314.5 L 1414.0 1315.5 L 1415.5 1314.0 L 1414.5 1308.0 L 1409.0 1301.5 L 1403.0 1298.5 L 1393.0 1298.5 L 1391.5 1297.0 L 1391.5 1208.0 L 1395.0 1205.5 L 1435.0 1206.5 L 1436.5 1205.0 L 1437.5 980.0 L 1428.0 978.5 L 1259.0 977.5 L 1256.5 1325.0"/>
    <path d="M 2006.0 1166.5 L 1972.0 1166.5 L 1959.5 1164.0 L 1957.5 983.0 L 1961.0 980.5 L 2007.0 981.5 L 2008.5 983.0 L 2009.5 1163.0"/>
    <path d="M 2005.0 1162.5 L 2004.5 985.0 L 1962.0 984.5 L 1960.5 988.0 L 1963.5 1100.0 L 1962.5 1160.0 L 1964.0 1162.5"/>
    <path d="M 384.0 1003.5 L 385.5 996.0 L 382.0 993.5 L 380.5 996.0 L 382.5 1000.0 L 380.5 1003.0 Z"/>
    <path d="M 572.0 1005.5 L 570.5 999.0 L 572.5 996.0 L 569.0 995.5 L 566.5 1001.0 L 569.0 1005.5 Z"/>
    <path d="M 1721.0 1013.5 L 1722.5 1007.0 L 1721.0 1004.5 L 1717.0 1004.5 L 1719.5 1010.0 L 1716.5 1013.0"/>
    <path d="M 375.5 1011.0 L 377.0 1012.5 L 380.0 1010.5 L 387.0 1011.5 L 387.5 1007.0 L 381.0 1007.5 L 377.0 1005.5"/>
    <path d="M 577.5 1014.0 L 577.0 1007.5 L 572.0 1009.5 L 565.5 1009.0 L 566.0 1012.5 L 572.0 1011.5"/>
    <path d="M 1944.0 1018.5 L 1945.5 1015.0 L 1943.5 1012.0 L 1945.5 1009.0 L 1942.0 1007.5 L 1939.5 1014.0 L 1940.5 1017.0 Z"/>
    <path d="M 381.0 1024.5 L 385.5 1022.0 L 385.5 1016.0 L 383.0 1013.5 L 380.5 1015.0 L 382.5 1018.0"/>
    <path d="M 571.0 1025.5 L 572.5 1023.0 L 570.5 1019.0 L 572.5 1016.0 L 569.0 1015.5 L 566.5 1022.0"/>
    <path d="M 1712.5 1023.0 L 1718.0 1020.5 L 1724.0 1021.5 L 1723.5 1017.0 L 1717.0 1017.5 L 1713.0 1015.5"/>
    <path d="M 494.0 1024.5 L 496.5 1022.0 L 495.0 1019.5 L 492.5 1020.0 L 492.5 1024.0 Z"/>
    <path d="M 1950.5 1026.0 L 1949.0 1020.5 L 1944.0 1022.5 L 1938.5 1022.0 L 1939.0 1025.5 L 1945.0 1024.5"/>
    <path d="M 1721.0 1034.5 L 1722.5 1027.0 L 1721.0 1024.5 L 1718.0 1024.5 L 1719.5 1030.0 L 1716.5 1033.0"/>
    <path d="M 1945.0 1038.5 L 1946.5 1036.0 L 1943.5 1032.0 L 1945.5 1029.0 L 1942.0 1028.5 L 1940.5 1037.0"/>
    <path d="M 1853.0 1036.5 L 1854.5 1033.0 L 1851.0 1031.5 L 1850.5 1036.0 Z"/>
    <path d="M 463.0 1039.5 L 463.5 1035.0 L 461.0 1034.5 L 459.5 1037.0"/>
    <path d="M 494.0 1039.5 L 496.5 1037.0 L 495.0 1034.5 L 492.5 1035.0 L 492.5 1039.0 Z"/>
    <path d="M 1851.0 1051.5 L 1854.5 1050.0 L 1853.0 1046.5 L 1850.5 1048.0 Z"/>
    <path d="M 494.0 1054.5 L 496.5 1052.0 L 495.0 1049.5 L 492.5 1050.0 L 492.5 1054.0 Z"/>
    <path d="M 1821.0 1065.5 L 1821.5 1063.0 L 1819.0 1060.5 L 1817.5 1065.0 Z"/>
    <path d="M 1853.0 1066.5 L 1854.5 1063.0 L 1852.0 1061.5 L 1850.5 1065.0 Z"/>
    <path d="M 1109.5 1174.0 L 1108.0 1164.5 L 1050.0 1163.5 L 1048.5 1166.0 L 1050.0 1175.5 L 1108.0 1175.5 Z"/>
    <path d="M 1244.5 1176.0 L 1244.0 1165.5 L 1186.0 1165.5 L 1184.5 1167.0 L 1185.0 1176.5 L 1243.0 1177.5 Z"/>
    <path d="M 1109.5 1188.0 L 1108.0 1178.5 L 1050.0 1178.5 L 1048.5 1180.0 L 1049.0 1189.5 L 1108.0 1190.5 Z"/>
    <path d="M 1244.5 1191.0 L 1244.5 1182.0 L 1243.0 1180.5 L 1184.5 1181.0 L 1184.5 1190.0 L 1186.0 1191.5"/>
    <path d="M 1108.5 1204.0 L 1108.0 1193.5 L 1048.5 1194.0 L 1049.0 1204.5 L 1107.0 1205.5 Z"/>
    <path d="M 1244.5 1206.0 L 1244.0 1195.5 L 1186.0 1194.5 L 1184.5 1196.0 L 1185.0 1206.5 L 1242.0 1207.5 Z"/>
    <path d="M 1108.5 1220.0 L 1108.0 1208.5 L 1048.5 1209.0 L 1049.0 1220.5"/>
    <path d="M 1244.5 1221.0 L 1244.5 1212.0 L 1243.0 1210.5 L 1184.5 1211.0 L 1185.0 1221.5 L 1243.0 1222.5 Z"/>
    <path d="M 800.5 1426.0 L 800.5 1364.0 L 803.0 1361.5 L 825.5 1362.0 L 824.5 1355.0 L 820.0 1349.5 L 813.0 1345.5 L 801.5 1343.0 L 804.0 1214.5 L 560.5 1214.0 L 554.5 1424.0 L 556.0 1425.5"/>
    <path d="M 855.0 1426.5 L 856.5 1425.0 L 857.5 1327.0 L 860.0 1323.5 L 887.5 1323.0 L 886.0 1315.5 L 875.0 1316.5 L 871.5 1314.0 L 871.5 1309.0 L 874.5 1302.0 L 882.0 1294.5 L 888.5 1291.0 L 889.5 1215.0 L 818.0 1214.5 L 816.5 1216.0 L 813.5 1341.0 L 826.5 1351.0 L 830.5 1364.0 L 828.0 1366.5 L 813.5 1367.0 L 812.5 1426.0"/>
    <path d="M 1471.0 1430.5 L 1472.5 1429.0 L 1472.5 1371.0 L 1458.0 1370.5 L 1455.5 1366.0 L 1459.5 1355.0 L 1472.5 1345.0 L 1472.5 1220.0 L 1405.0 1218.5 L 1404.5 1295.0 L 1410.0 1297.5 L 1416.5 1304.0 L 1420.5 1316.0 L 1419.0 1318.5 L 1405.0 1318.5 L 1404.5 1326.0 L 1406.0 1327.5 L 1429.0 1327.5 L 1430.5 1331.0 L 1428.5 1429.0 L 1430.0 1430.5"/>
    <path d="M 1733.5 1432.0 L 1734.0 1223.5 L 1484.5 1220.0 L 1484.5 1348.0 L 1469.0 1351.5 L 1462.5 1358.0 L 1460.5 1366.0 L 1483.0 1366.5 L 1484.5 1368.0 L 1485.0 1430.5"/>
    <path d="M 1921.0 1437.5 L 1745.0 1436.5 L 1742.5 1434.0 L 1743.5 1222.0 L 1745.0 1220.5 L 1923.0 1222.5 L 1924.5 1224.0 L 1922.5 1436.0 Z"/>
    <path d="M 2105.0 1438.5 L 1933.0 1438.5 L 1927.5 1435.0 L 1929.5 1226.0 L 1931.0 1223.5 L 1994.0 1222.5 L 2102.0 1223.5 L 2110.5 1225.0 L 2107.5 1436.0 Z"/>
    <path d="M 1108.5 1234.0 L 1108.5 1225.0 L 1107.0 1223.5 L 1049.0 1223.5 L 1047.5 1225.0 L 1048.0 1234.5 L 1107.0 1235.5 Z"/>
    <path d="M 1917.0 1434.5 L 1918.5 1433.0 L 1920.5 1227.0 L 1919.0 1225.5 L 1748.0 1223.5 L 1746.5 1225.0 L 1746.5 1432.0 L 1754.0 1433.5"/>
    <path d="M 1244.5 1232.0 L 1243.0 1225.5 L 1186.0 1224.5 L 1184.5 1226.0 L 1185.0 1236.5 L 1242.0 1237.5"/>
    <path d="M 2103.0 1434.5 L 2107.5 1229.0 L 2106.0 1227.5 L 1935.0 1225.5 L 1933.5 1227.0 L 1931.5 1433.0 L 1933.0 1434.5"/>
    <path d="M 1108.5 1249.0 L 1108.5 1240.0 L 1107.0 1238.5 L 1047.5 1239.0 L 1047.5 1249.0 L 1049.0 1250.5 L 1107.0 1250.5 Z"/>
    <path d="M 1243.5 1252.0 L 1243.0 1240.5 L 1186.0 1239.5 L 1183.5 1242.0 L 1185.0 1251.5"/>
    <path d="M 1108.5 1264.0 L 1108.5 1255.0 L 1107.0 1253.5 L 1047.5 1254.0 L 1048.0 1264.5 L 1107.0 1265.5 Z"/>
    <path d="M 1243.5 1266.0 L 1243.0 1255.5 L 1186.0 1254.5 L 1183.5 1257.0 L 1184.0 1266.5 L 1242.0 1267.5 Z"/>
    <path d="M 1108.5 1273.0 L 1107.0 1268.5 L 1048.0 1268.5 L 1047.5 1279.0 L 1049.0 1280.5 L 1107.0 1280.5"/>
    <path d="M 1243.5 1282.0 L 1243.0 1270.5 L 1183.5 1271.0 L 1184.0 1281.5"/>
    <path d="M 1107.5 1295.0 L 1107.0 1283.5 L 1048.0 1283.5 L 1046.5 1286.0 L 1048.0 1295.5"/>
    <path d="M 1243.5 1297.0 L 1243.0 1285.5 L 1183.5 1286.0 L 1183.5 1296.0 L 1185.0 1297.5"/>
  </g>
</svg>
