<?xml version="1.0" encoding="UTF-8"?>
<svg xmlns="http://www.w3.org/2000/svg" width="2034" height="1836" viewBox="0 0 2034 1836">
  <rect width="100%" height="100%" fill="#ffffff"/>
  <g id="base-map-no-labels" fill="none" stroke="#111827" stroke-width="2.2" stroke-linecap="round" stroke-linejoin="round">
    <path d="M 1900.5 1808.0 L 1639.0 1806.5 L 1173.0 1797.5 L 1170.5 1795.0 L 1171.5 1713.0 L 1170.0 1711.5 L 717.0 1702.5 L 714.5 1705.0 L 712.5 1787.0 L 710.0 1789.5 L 61.0 1776.5 L 58.5 1772.0 L 65.5 1593.0 L 64.0 1591.5 L 24.0 1591.5 L 22.5 1588.0 L 31.5 1392.0 L 32.5 1323.0 L 36.0 1320.5 L 72.0 1322.5 L 75.5 1321.0 L 80.5 1142.0 L 87.0 1140.5 L 862.0 1152.5 L 863.5 1151.0 L 871.5 716.0 L 861.5 709.0 L 858.5 704.0 L 858.5 697.0 L 861.0 695.5 L 871.0 696.5 L 872.5 694.0 L 873.5 597.0 L 872.0 595.5 L 588.0 588.5 L 581.0 597.5 L 569.0 600.5 L 567.0 588.5 L 550.5 587.0 L 550.5 553.0 L 549.0 551.5 L 283.0 544.5 L 55.0 541.5 L 53.5 538.0 L 60.5 342.0 L 63.5 170.0 L 66.0 167.5 L 276.0 172.5 L 278.5 166.0 L 280.5 41.0 L 283.0 38.5 L 291.5 41.0 L 288.5 171.0 L 307.5 174.0 L 306.5 191.0 L 308.0 192.5 L 314.0 190.5 L 319.5 185.0 L 323.0 172.5 L 339.0 172.5 L 340.5 171.0 L 343.5 43.0 L 346.0 40.5 L 354.5 42.0 L 350.5 167.0 L 352.0 172.5 L 472.0 173.5 L 479.0 164.5 L 490.0 160.5 L 492.5 162.0 L 492.5 173.0 L 494.0 174.5 L 538.0 176.5 L 539.5 175.0 L 541.5 75.0 L 543.0 73.5 L 608.0 76.5 L 707.0 76.5 L 708.5 78.0 L 706.5 178.0 L 708.0 180.5 L 723.0 180.5 L 724.5 79.0 L 726.0 76.5 L 891.0 80.5 L 893.5 88.0 L 889.5 257.0 L 877.0 260.5 L 872.5 264.0 L 869.5 270.0 L 870.0 271.5 L 888.0 271.5 L 889.5 273.0 L 889.5 282.0 L 888.0 283.5 L 869.5 284.0 L 870.5 289.0 L 875.0 294.5 L 887.0 297.5 L 889.5 300.0 L 888.5 347.0 L 886.0 349.5 L 876.0 351.5 L 868.5 360.0 L 870.0 363.5 L 886.0 362.5 L 887.5 364.0 L 887.5 374.0 L 886.0 375.5 L 868.5 376.0 L 870.5 383.0 L 877.0 388.5 L 884.0 388.5 L 887.5 391.0 L 886.5 485.0 L 885.0 486.5 L 875.5 485.0 L 875.5 462.0 L 874.0 460.5 L 860.0 460.5 L 858.0 473.5 L 778.0 472.5 L 775.0 458.5 L 752.0 458.5 L 750.5 468.0 L 751.0 515.5 L 760.0 515.5 L 761.5 514.0 L 760.5 502.0 L 768.0 495.5 L 773.0 496.5 L 776.0 499.5 L 781.0 496.5 L 792.0 498.5 L 798.0 494.5 L 806.0 498.5 L 816.0 496.5 L 820.0 499.5 L 830.0 496.5 L 836.5 501.0 L 837.0 517.5 L 857.0 517.5 L 858.5 524.0 L 856.0 527.5 L 837.0 526.5 L 835.5 528.0 L 836.5 540.0 L 832.0 545.5 L 825.0 545.5 L 821.0 542.5 L 816.0 545.5 L 811.0 545.5 L 807.0 542.5 L 799.0 545.5 L 792.0 542.5 L 780.0 544.5 L 777.0 541.5 L 771.0 544.5 L 766.0 544.5 L 759.5 537.0 L 760.5 525.0 L 751.0 524.5 L 749.5 526.0 L 749.5 582.0 L 773.0 582.5 L 773.5 572.0 L 776.0 569.5 L 855.0 571.5 L 857.5 574.0 L 857.0 584.5 L 872.0 585.5 L 874.5 583.0 L 874.5 560.0 L 883.0 558.5 L 884.5 560.0 L 884.5 618.0 L 882.5 682.0 L 885.0 683.5 L 917.0 683.5 L 918.5 685.0 L 919.0 703.5 L 924.0 702.5 L 930.5 696.0 L 933.0 688.5 L 936.5 690.0 L 936.5 694.0 L 942.0 701.5 L 949.0 703.5 L 949.5 686.0 L 951.0 684.5 L 976.0 684.5 L 977.5 686.0 L 978.0 704.5 L 983.0 703.5 L 989.5 697.0 L 990.5 691.0 L 993.0 688.5 L 996.5 698.0 L 1002.0 703.5 L 1007.0 705.5 L 1008.5 704.0 L 1008.5 687.0 L 1010.0 685.5 L 1080.0 686.5 L 1081.5 685.0 L 1081.5 649.0 L 1083.0 647.5 L 1175.0 649.5 L 1176.5 651.0 L 1175.5 687.0 L 1177.0 688.5 L 1198.0 688.5 L 1199.5 687.0 L 1199.5 662.0 L 1202.0 660.5 L 1218.0 660.5 L 1219.5 659.0 L 1218.5 655.0 L 1212.0 648.5 L 1204.5 646.0 L 1205.0 643.5 L 1213.0 641.5 L 1217.5 637.0 L 1219.5 630.0 L 1200.5 629.0 L 1200.0 602.5 L 1190.0 601.5 L 1188.5 603.0 L 1187.5 640.0 L 1185.0 641.5 L 1095.0 639.5 L 1093.5 638.0 L 1094.5 602.0 L 1093.0 600.5 L 1045.0 599.5 L 1042.5 597.0 L 1042.5 584.0 L 1044.0 582.5 L 1062.5 583.0 L 1060.5 576.0 L 1057.0 572.5 L 1043.5 569.0 L 1047.5 294.0 L 1051.0 289.5 L 1187.0 292.5 L 1188.0 312.5 L 1194.0 311.5 L 1199.5 306.0 L 1201.5 298.0 L 1204.0 297.5 L 1207.5 307.0 L 1216.0 313.5 L 1218.5 312.0 L 1218.5 295.0 L 1221.0 292.5 L 1247.0 293.5 L 1248.5 297.0 L 1247.5 313.0 L 1249.0 314.5 L 1255.0 312.5 L 1259.5 308.0 L 1263.0 298.5 L 1265.5 299.0 L 1268.5 309.0 L 1274.0 313.5 L 1279.0 314.5 L 1281.0 294.5 L 1547.0 298.5 L 1558.5 301.0 L 1558.0 319.5 L 1565.0 317.5 L 1569.5 313.0 L 1573.0 304.5 L 1575.5 305.0 L 1578.5 315.0 L 1585.0 319.5 L 1588.0 319.5 L 1590.0 300.5 L 1611.0 299.5 L 1697.0 301.5 L 1697.5 310.0 L 1700.5 313.0 L 1698.5 320.0 L 1701.0 320.5 L 1706.0 317.5 L 1711.5 310.0 L 1709.5 306.0 L 1710.5 302.0 L 1715.0 301.5 L 1714.5 310.0 L 1726.0 321.5 L 1728.5 320.0 L 1731.0 302.5 L 1901.0 306.5 L 1911.0 294.5 L 1920.0 293.5 L 1920.5 305.0 L 1922.0 306.5 L 1962.0 307.5 L 1965.0 292.5 L 1982.0 293.5 L 1983.5 292.0 L 1981.5 286.0 L 1976.0 280.5 L 1968.5 278.0 L 1970.0 275.5 L 1977.0 273.5 L 1982.5 268.0 L 1983.5 263.0 L 1965.0 261.5 L 1963.5 260.0 L 1964.5 251.0 L 1962.0 248.5 L 1841.0 246.5 L 1838.5 244.0 L 1839.5 227.0 L 1838.0 225.5 L 1829.5 230.0 L 1824.0 240.5 L 1821.5 239.0 L 1819.5 232.0 L 1814.0 226.5 L 1809.0 225.5 L 1807.5 227.0 L 1807.5 244.0 L 1806.0 245.5 L 1669.0 243.5 L 1667.5 242.0 L 1668.5 197.0 L 1661.5 195.0 L 1661.0 176.5 L 1654.0 178.5 L 1648.5 185.0 L 1647.5 190.0 L 1645.0 190.5 L 1641.5 182.0 L 1632.0 175.5 L 1630.5 177.0 L 1630.5 193.0 L 1628.0 195.5 L 1620.0 195.5 L 1619.0 204.5 L 1610.0 205.5 L 1602.5 211.0 L 1600.5 215.0 L 1602.0 218.5 L 1618.0 218.5 L 1619.5 220.0 L 1619.5 240.0 L 1617.0 242.5 L 1404.0 239.5 L 1191.0 233.5 L 1052.0 232.5 L 1050.5 231.0 L 1052.5 81.0 L 1054.0 79.5 L 1063.5 81.0 L 1060.5 220.0 L 1062.0 221.5 L 1169.0 222.5 L 1385.0 228.5 L 1608.0 231.5 L 1608.5 222.0 L 1598.0 221.5 L 1595.5 218.0 L 1598.5 210.0 L 1609.5 201.0 L 1610.5 93.0 L 1612.0 91.5 L 1619.0 91.5 L 1621.5 95.0 L 1619.5 184.0 L 1621.0 185.5 L 1626.5 185.0 L 1627.5 173.0 L 1633.0 171.5 L 1639.0 174.5 L 1645.0 181.5 L 1653.0 174.5 L 1663.0 172.5 L 1665.5 176.0 L 1664.5 185.0 L 1667.0 186.5 L 1785.0 188.5 L 1786.5 187.0 L 1786.5 98.0 L 1789.0 94.5 L 1794.0 94.5 L 1797.5 97.0 L 1797.0 235.5 L 1804.5 234.0 L 1804.5 224.0 L 1807.0 221.5 L 1815.0 223.5 L 1823.0 231.5 L 1832.0 223.5 L 1841.0 222.5 L 1842.5 224.0 L 1842.5 235.0 L 1844.0 236.5 L 1851.5 235.0 L 1851.5 99.0 L 1854.0 96.5 L 1861.0 96.5 L 1862.5 98.0 L 1861.5 235.0 L 1863.0 236.5 L 1963.0 238.5 L 1964.5 234.0 L 1963.5 102.0 L 1966.0 99.5 L 1974.0 100.5 L 1974.5 259.0 L 1987.5 260.0 L 1986.5 269.0 L 1977.5 277.0 L 1985.5 286.0 L 1987.5 294.0 L 1985.0 296.5 L 1973.5 297.0 L 1971.5 612.0 L 1970.0 613.5 L 1914.0 612.5 L 1914.5 622.0 L 1912.0 625.5 L 1899.0 620.5 L 1898.5 645.0 L 1902.0 648.5 L 1910.0 648.5 L 1911.5 650.0 L 1910.0 655.5 L 1901.0 655.5 L 1894.5 652.0 L 1891.5 645.0 L 1892.5 620.0 L 1890.0 619.5 L 1883.0 624.5 L 1877.0 624.5 L 1876.0 611.5 L 1588.0 607.5 L 1587.5 618.0 L 1582.0 620.5 L 1576.0 618.5 L 1568.0 607.5 L 1401.0 605.5 L 1399.5 607.0 L 1399.5 617.0 L 1394.0 618.5 L 1389.0 616.5 L 1378.0 604.5 L 1212.0 602.5 L 1210.5 604.0 L 1210.5 626.0 L 1222.0 626.5 L 1223.5 628.0 L 1222.5 636.0 L 1214.5 644.0 L 1221.5 653.0 L 1223.5 660.0 L 1221.0 663.5 L 1209.5 664.0 L 1209.5 688.0 L 1229.0 688.5 L 1231.5 693.0 L 1225.5 999.0 L 1225.0 1158.5 L 1542.0 1166.5 L 1618.0 1166.5 L 1899.0 1172.5 L 1901.5 1174.0 L 1901.5 1354.0 L 1934.0 1354.5 L 1938.5 1357.0 L 1938.5 1624.0 L 1936.0 1625.5 L 1900.5 1625.0"/>
    <path d="M 568.5 583.0 L 567.0 580.5 L 557.5 579.0 L 557.0 544.5 L 291.0 537.5 L 63.0 534.5 L 61.5 533.0 L 69.5 282.0 L 70.5 177.0 L 72.0 175.5 L 302.0 179.5 L 303.0 175.5 L 288.0 175.5 L 285.5 174.0 L 288.5 44.0 L 284.5 43.0 L 282.5 136.0 L 281.5 171.0 L 280.0 174.5 L 194.0 174.5 L 68.0 171.5 L 66.5 173.0 L 64.5 315.0 L 57.5 537.0 L 59.0 538.5 L 296.0 541.5 L 552.0 548.5 L 553.5 550.0 L 553.5 583.0 L 555.0 584.5 L 567.0 584.5 Z"/>
    <path d="M 471.0 180.5 L 471.5 178.0 L 469.0 176.5 L 349.0 175.5 L 347.5 174.0 L 351.5 46.0 L 348.0 44.5 L 343.5 174.0 L 342.0 175.5 L 326.0 175.5 L 325.5 179.0"/>
    <path d="M 550.0 125.5 L 552.5 124.0 L 553.5 79.0 L 546.0 77.5 L 544.5 80.0 L 544.5 124.0"/>
    <path d="M 563.0 125.5 L 564.5 124.0 L 565.5 79.0 L 558.0 77.5 L 556.5 79.0 L 555.5 124.0"/>
    <path d="M 575.0 125.5 L 576.5 79.0 L 571.0 77.5 L 568.5 79.0 L 567.5 124.0"/>
    <path d="M 586.0 126.5 L 587.5 125.0 L 588.5 80.0 L 581.0 78.5 L 579.5 80.0 L 578.5 124.0 L 580.0 126.5"/>
    <path d="M 598.0 126.5 L 599.5 125.0 L 600.5 81.0 L 599.0 78.5 L 593.0 78.5 L 591.5 80.0 L 590.5 124.0 L 592.0 126.5"/>
    <path d="M 610.0 126.5 L 611.5 125.0 L 612.5 81.0 L 605.0 78.5 L 603.5 80.0 L 602.5 126.0"/>
    <path d="M 621.0 127.5 L 623.5 124.0 L 623.5 80.0 L 616.0 79.5 L 614.5 126.0"/>
    <path d="M 633.0 127.5 L 634.5 126.0 L 635.5 81.0 L 628.0 79.5 L 626.5 81.0 L 626.5 126.0"/>
    <path d="M 645.0 127.5 L 646.5 125.0 L 646.5 81.0 L 639.0 79.5 L 637.5 126.0"/>
    <path d="M 657.0 127.5 L 658.5 126.0 L 658.5 81.0 L 651.0 79.5 L 649.5 81.0 L 649.5 127.0"/>
    <path d="M 669.0 127.5 L 670.5 82.0 L 669.0 79.5 L 663.0 79.5 L 661.5 81.0 L 660.5 124.0 L 662.0 127.5"/>
    <path d="M 680.0 128.5 L 681.5 127.0 L 682.5 81.0 L 674.0 79.5 L 672.5 127.0"/>
    <path d="M 690.0 128.5 L 692.5 127.0 L 693.5 81.0 L 686.0 79.5 L 684.5 127.0"/>
    <path d="M 703.0 128.5 L 704.5 127.0 L 704.5 81.0 L 698.0 79.5 L 696.5 81.0 L 696.5 127.0"/>
    <path d="M 734.0 128.5 L 736.5 125.0 L 736.5 81.0 L 730.0 79.5 L 728.5 81.0 L 727.5 127.0"/>
    <path d="M 746.0 128.5 L 747.5 127.0 L 748.5 81.0 L 741.0 79.5 L 739.5 81.0 L 738.5 125.0 L 740.0 128.5"/>
    <path d="M 758.0 128.5 L 759.5 127.0 L 760.5 82.0 L 752.0 80.5 L 750.5 127.0"/>
    <path d="M 770.0 128.5 L 771.5 127.0 L 771.5 81.0 L 764.0 80.5 L 762.5 128.0"/>
    <path d="M 781.0 129.5 L 783.5 127.0 L 783.5 82.0 L 776.0 80.5 L 774.5 83.0 L 774.5 128.0"/>
    <path d="M 793.0 129.5 L 794.5 128.0 L 794.5 82.0 L 788.0 81.5 L 786.5 83.0 L 786.5 129.0"/>
    <path d="M 805.0 129.5 L 806.5 128.0 L 807.5 83.0 L 799.0 81.5 L 797.5 129.0"/>
    <path d="M 816.0 130.5 L 818.5 128.0 L 818.5 83.0 L 811.0 81.5 L 809.5 129.0"/>
    <path d="M 829.0 130.5 L 830.5 129.0 L 831.5 84.0 L 823.0 82.5 L 821.5 85.0 L 821.5 130.0"/>
    <path d="M 841.0 130.5 L 842.5 128.0 L 842.5 84.0 L 835.0 82.5 L 833.5 130.0"/>
    <path d="M 852.0 131.5 L 854.5 127.0 L 854.5 84.0 L 848.0 82.5 L 845.5 85.0 L 845.5 130.0"/>
    <path d="M 864.0 131.5 L 865.5 130.0 L 865.5 84.0 L 859.0 83.5 L 857.5 85.0 L 857.5 131.0"/>
    <path d="M 876.0 131.5 L 877.5 85.0 L 870.0 83.5 L 868.5 131.0"/>
    <path d="M 1615.5 238.0 L 1615.0 221.5 L 1612.5 222.0 L 1612.5 231.0 L 1610.0 234.5 L 1423.0 232.5 L 1059.0 224.5 L 1057.5 223.0 L 1059.5 84.0 L 1056.5 84.0 L 1054.0 228.5 L 1211.0 230.5 L 1421.0 236.5"/>
    <path d="M 887.0 132.5 L 888.5 131.0 L 889.5 86.0 L 881.0 84.5 L 879.5 130.0 L 881.0 132.5"/>
    <path d="M 1613.0 201.5 L 1616.5 200.0 L 1618.0 192.5 L 1626.5 192.0 L 1626.0 188.5 L 1616.5 187.0 L 1617.0 95.5 L 1614.5 96.0 L 1613.5 102.0"/>
    <path d="M 1794.5 100.0 L 1790.5 99.0 L 1789.5 189.0 L 1787.0 191.5 L 1666.0 189.5 L 1664.5 192.0 L 1671.5 195.0 L 1671.0 239.5 L 1760.0 242.5 L 1803.0 242.5 L 1804.5 241.0 L 1804.0 238.5 L 1793.5 237.0"/>
    <path d="M 1970.0 258.5 L 1971.5 256.0 L 1971.5 105.0 L 1967.5 104.0 L 1966.5 241.0 L 1860.0 239.5 L 1858.5 238.0 L 1859.5 102.0 L 1856.0 100.5 L 1854.5 237.0 L 1852.0 239.5 L 1843.0 239.5 L 1842.5 242.0 L 1844.0 243.5 L 1963.0 245.5 L 1966.5 247.0 L 1966.5 257.0 Z"/>
    <path d="M 550.0 176.5 L 551.5 175.0 L 552.5 129.0 L 545.0 127.5 L 543.5 130.0 L 543.5 175.0"/>
    <path d="M 563.0 176.5 L 564.5 129.0 L 557.0 127.5 L 555.5 129.0 L 554.5 175.0"/>
    <path d="M 572.0 177.5 L 574.5 176.0 L 575.5 129.0 L 568.0 128.5 L 566.5 176.0"/>
    <path d="M 586.0 177.5 L 587.5 175.0 L 587.5 130.0 L 580.0 128.5 L 578.5 130.0 L 577.5 175.0 L 579.0 177.5"/>
    <path d="M 598.0 177.5 L 599.5 130.0 L 592.0 128.5 L 590.5 130.0 L 589.5 175.0 L 591.0 177.5"/>
    <path d="M 609.0 178.5 L 610.5 177.0 L 611.5 131.0 L 603.0 129.5 L 601.5 177.0"/>
    <path d="M 621.0 178.5 L 622.5 176.0 L 622.5 131.0 L 615.0 129.5 L 613.5 177.0"/>
    <path d="M 633.0 178.5 L 634.5 131.0 L 627.0 129.5 L 625.5 131.0 L 625.5 178.0"/>
    <path d="M 644.0 178.5 L 645.5 177.0 L 646.5 132.0 L 643.0 129.5 L 639.0 129.5 L 637.5 131.0 L 636.5 177.0"/>
    <path d="M 655.0 179.5 L 657.5 177.0 L 657.5 131.0 L 650.0 130.5 L 648.5 132.0 L 648.5 178.0"/>
    <path d="M 667.0 179.5 L 668.5 178.0 L 669.5 131.0 L 662.0 130.5 L 660.5 132.0 L 660.5 178.0"/>
    <path d="M 680.0 179.5 L 681.5 132.0 L 673.0 130.5 L 671.5 178.0"/>
    <path d="M 691.0 179.5 L 692.5 178.0 L 692.5 132.0 L 685.0 130.5 L 683.5 178.0"/>
    <path d="M 703.0 179.5 L 704.5 132.0 L 697.0 130.5 L 695.5 132.0 L 695.5 179.0"/>
    <path d="M 734.0 179.5 L 735.5 178.0 L 735.5 132.0 L 729.0 130.5 L 727.5 132.0 L 726.5 178.0"/>
    <path d="M 745.0 180.5 L 746.5 179.0 L 747.5 132.0 L 740.0 130.5 L 738.5 132.0 L 738.5 179.0"/>
    <path d="M 757.0 180.5 L 758.5 179.0 L 759.5 132.0 L 752.0 130.5 L 750.5 132.0 L 749.5 179.0"/>
    <path d="M 769.0 180.5 L 770.5 179.0 L 771.5 133.0 L 764.0 130.5 L 762.5 132.0 L 761.5 179.0"/>
    <path d="M 781.0 180.5 L 782.5 179.0 L 782.5 132.0 L 775.0 131.5 L 773.5 133.0 L 773.5 180.0"/>
    <path d="M 793.0 180.5 L 794.5 134.0 L 792.0 131.5 L 787.0 131.5 L 785.5 133.0 L 785.5 180.0"/>
    <path d="M 804.0 181.5 L 805.5 180.0 L 806.5 134.0 L 799.0 131.5 L 796.5 143.0 L 796.5 180.0"/>
    <path d="M 816.0 181.5 L 817.5 177.0 L 817.5 133.0 L 810.0 132.5 L 808.5 180.0"/>
    <path d="M 829.0 181.5 L 830.5 135.0 L 828.0 132.5 L 822.0 132.5 L 820.5 134.0 L 820.5 181.0"/>
    <path d="M 840.0 182.5 L 841.5 181.0 L 841.5 134.0 L 834.0 133.5 L 832.5 181.0"/>
    <path d="M 852.0 182.5 L 853.5 181.0 L 853.5 135.0 L 846.0 133.5 L 844.5 135.0 L 844.5 182.0"/>
    <path d="M 863.0 182.5 L 864.5 181.0 L 865.5 136.0 L 858.0 133.5 L 856.5 135.0 L 856.5 182.0"/>
    <path d="M 875.0 183.5 L 876.5 182.0 L 876.5 135.0 L 869.0 134.5 L 867.5 136.0 L 867.5 182.0"/>
    <path d="M 887.0 183.5 L 888.5 136.0 L 881.0 134.5 L 879.5 182.0"/>
    <path d="M 876.5 449.0 L 877.5 393.0 L 865.5 382.0 L 864.5 373.0 L 867.0 371.5 L 876.0 372.5 L 877.5 368.0 L 865.0 365.5 L 864.5 360.0 L 868.5 353.0 L 878.5 345.0 L 878.5 300.0 L 868.5 293.0 L 865.5 282.0 L 867.0 280.5 L 879.0 280.5 L 879.5 276.0 L 878.0 274.5 L 867.0 274.5 L 865.5 270.0 L 869.5 262.0 L 879.5 256.0 L 880.5 195.0 L 879.0 193.5 L 625.0 189.5 L 492.0 185.5 L 489.5 183.0 L 489.5 166.0 L 488.0 164.5 L 479.5 169.0 L 474.0 184.5 L 325.0 182.5 L 316.0 193.5 L 309.0 196.5 L 303.5 195.0 L 303.0 182.5 L 180.0 181.5 L 75.0 178.5 L 73.5 180.0 L 72.5 285.0 L 64.5 522.0 L 66.0 531.5 L 264.0 533.5 L 560.0 541.5 L 561.5 543.0 L 560.5 576.0 L 571.5 579.0 L 572.0 596.5 L 579.0 594.5 L 584.5 587.0 L 584.5 580.0 L 587.0 577.5 L 737.0 581.5 L 738.5 580.0 L 741.0 448.5 L 761.0 447.5 L 838.0 450.5 L 875.0 450.5 Z"/>
    <path d="M 886.5 254.0 L 887.5 188.0 L 886.0 186.5 L 493.5 178.0 L 494.0 181.5 L 555.0 184.5 L 806.0 188.5 L 882.0 191.5 L 883.5 193.0 L 882.5 253.0"/>
    <path d="M 883.0 280.5 L 886.5 278.0 L 885.0 274.5 L 882.5 276.0"/>
    <path d="M 1047.0 566.5 L 1050.5 566.0 L 1055.5 299.0 L 1057.0 297.5 L 1183.0 299.5 L 1184.0 295.5 L 1051.5 294.0"/>
    <path d="M 1915.0 609.5 L 1967.0 610.5 L 1968.5 609.0 L 1970.5 495.0 L 1970.5 297.0 L 1969.0 295.5 L 1965.5 298.0 L 1966.5 305.0 L 1965.0 309.5 L 1924.0 308.5 L 1920.5 310.0 L 1921.0 313.5 L 1964.0 314.5 L 1965.5 316.0 L 1964.5 375.0 L 1917.0 372.5 L 1915.5 374.0 L 1917.0 377.5 L 1963.0 380.5 L 1965.5 383.0 L 1964.5 602.0 L 1962.0 605.5 L 1916.0 604.5"/>
    <path d="M 1047.0 596.5 L 1203.0 599.5 L 1204.0 626.5 L 1207.5 626.0 L 1207.5 601.0 L 1209.0 599.5 L 1379.5 601.0 L 1379.0 597.5 L 1233.0 595.5 L 1229.5 593.0 L 1235.5 303.0 L 1237.0 300.5 L 1244.0 300.5 L 1243.0 296.5 L 1222.5 297.0 L 1223.0 300.5 L 1231.5 302.0 L 1225.5 593.0 L 1224.0 594.5 L 1054.0 592.5 L 1049.0 586.5 L 1047.0 586.5"/>
    <path d="M 1961.0 371.5 L 1961.0 343.5 L 1957.0 344.5 L 1956.0 342.5 L 1953.5 343.0 L 1955.5 349.0 L 1953.0 352.5 L 1951.0 346.5 L 1948.0 347.5 L 1943.0 343.5 L 1906.0 343.5 L 1904.5 342.0 L 1906.5 336.0 L 1903.5 332.0 L 1910.0 326.5 L 1913.0 330.5 L 1920.0 327.5 L 1929.0 328.5 L 1934.0 327.5 L 1938.0 323.5 L 1945.0 323.5 L 1948.0 320.5 L 1958.5 320.0 L 1958.0 318.5 L 1918.0 317.5 L 1918.5 298.0 L 1916.0 296.5 L 1911.0 298.5 L 1905.5 306.0 L 1903.5 313.0 L 1904.5 316.0 L 1893.5 318.0 L 1893.5 367.0 L 1896.0 368.5 L 1905.0 358.5 L 1916.0 355.5 L 1917.5 357.0 L 1916.5 367.0 L 1918.0 369.5"/>
    <path d="M 1565.0 604.5 L 1566.0 599.5 L 1421.0 598.5 L 1409.5 596.0 L 1414.5 373.0 L 1540.0 374.5 L 1546.5 373.0 L 1545.0 365.5 L 1541.0 369.5 L 1416.0 368.5 L 1414.5 367.0 L 1415.5 306.0 L 1417.0 304.5 L 1543.0 306.5 L 1543.5 345.0 L 1546.0 345.5 L 1547.5 344.0 L 1548.5 308.0 L 1553.0 306.5 L 1554.5 303.0 L 1284.0 297.5 L 1284.0 301.5 L 1410.0 304.5 L 1411.5 306.0 L 1405.5 596.0 L 1401.0 597.5 L 1399.5 601.0 L 1401.0 602.5"/>
    <path d="M 884.0 346.5 L 885.5 302.0 L 883.0 300.5 L 881.5 302.0 L 881.5 345.0 Z"/>
    <path d="M 1222.0 591.5 L 1228.5 304.0 L 1223.0 303.5 L 1221.5 305.0 L 1221.5 316.0 L 1218.0 317.5 L 1211.0 315.5 L 1204.0 307.5 L 1194.0 315.5 L 1185.0 316.5 L 1183.5 315.0 L 1183.0 302.5 L 1059.0 300.5 L 1053.5 567.0 L 1063.5 574.0 L 1066.5 584.0 L 1065.0 586.5 L 1054.0 586.5 L 1053.5 589.0"/>
    <path d="M 1876.0 608.5 L 1875.0 603.5 L 1664.0 600.5 L 1667.5 554.0 L 1666.0 552.5 L 1662.5 554.0 L 1659.5 596.0 L 1657.0 600.5 L 1603.0 600.5 L 1600.5 598.0 L 1602.5 530.0 L 1663.0 529.5 L 1666.0 534.5 L 1669.0 534.5 L 1672.5 516.0 L 1672.5 509.0 L 1669.0 507.5 L 1665.0 524.5 L 1604.0 524.5 L 1602.5 523.0 L 1603.5 452.0 L 1605.0 450.5 L 1672.0 451.5 L 1671.5 470.0 L 1676.0 470.5 L 1679.5 446.0 L 1678.0 439.5 L 1675.0 439.5 L 1672.0 445.5 L 1604.5 445.0 L 1606.5 309.0 L 1608.0 307.5 L 1682.0 308.5 L 1684.5 311.0 L 1683.5 320.0 L 1685.0 322.5 L 1688.0 322.5 L 1689.5 310.0 L 1695.5 306.0 L 1693.0 303.5 L 1594.0 302.5 L 1593.0 306.5 L 1601.5 308.0 L 1596.5 598.0 L 1589.0 599.5 L 1587.5 604.0"/>
    <path d="M 1395.0 614.5 L 1396.5 613.0 L 1396.5 596.0 L 1402.5 594.0 L 1407.5 308.0 L 1284.0 304.5 L 1283.5 316.0 L 1282.0 318.5 L 1272.0 316.5 L 1264.0 308.5 L 1257.0 315.5 L 1253.0 317.5 L 1246.0 317.5 L 1244.5 316.0 L 1244.5 304.0 L 1240.0 303.5 L 1238.5 305.0 L 1233.5 592.0 L 1382.0 594.5 L 1384.5 607.0 L 1391.0 613.5"/>
    <path d="M 1897.5 374.0 L 1896.0 370.5 L 1890.5 369.0 L 1890.5 314.0 L 1900.0 313.5 L 1901.0 308.5 L 1740.0 304.5 L 1732.5 306.0 L 1732.5 309.0 L 1737.5 311.0 L 1737.5 339.0 L 1739.0 340.5 L 1742.5 339.0 L 1742.5 312.0 L 1744.0 310.5 L 1816.5 312.0 L 1816.5 362.0 L 1814.0 365.5 L 1745.0 360.5 L 1742.0 358.5 L 1737.5 360.0 L 1738.0 365.5 L 1856.0 373.5 L 1857.5 372.0 L 1856.0 367.5 L 1821.5 365.0 L 1821.5 313.0 L 1823.0 311.5 L 1883.0 312.5 L 1885.5 316.0 L 1884.5 368.0 L 1878.0 369.5 L 1876.5 374.0 L 1881.0 375.5 L 1896.0 375.5 Z"/>
    <path d="M 1539.5 346.0 L 1540.5 310.0 L 1539.0 308.5 L 1420.0 307.5 L 1418.5 309.0 L 1418.0 365.5 L 1528.0 366.5 L 1526.5 362.0 L 1528.5 355.0 L 1532.0 350.5"/>
    <path d="M 1413.0 594.5 L 1568.0 596.5 L 1570.5 598.0 L 1572.5 610.0 L 1577.0 614.5 L 1583.5 616.0 L 1584.5 598.0 L 1593.5 596.0 L 1598.0 309.5 L 1592.5 310.0 L 1592.5 321.0 L 1590.0 323.5 L 1581.0 321.5 L 1574.0 313.5 L 1565.0 321.5 L 1557.0 323.5 L 1554.5 322.0 L 1554.5 310.0 L 1550.5 311.0 L 1550.5 347.0 L 1538.0 350.5 L 1530.5 360.0 L 1531.0 362.5 L 1548.0 362.5 L 1550.5 365.0 L 1550.5 374.0 L 1548.0 377.5 L 1417.5 376.0"/>
    <path d="M 1670.0 443.5 L 1671.5 442.0 L 1670.0 439.5 L 1660.0 438.5 L 1658.5 434.0 L 1661.5 428.0 L 1673.5 419.0 L 1680.5 341.0 L 1670.5 333.0 L 1667.5 323.0 L 1674.0 319.5 L 1679.0 319.5 L 1680.5 315.0 L 1679.0 312.5 L 1663.0 311.5 L 1618.0 312.5 L 1617.5 314.0 L 1622.0 316.5 L 1630.0 315.5 L 1632.5 320.0 L 1630.0 322.5 L 1616.0 322.5 L 1617.5 326.0 L 1613.0 327.5 L 1613.5 319.0 L 1610.5 319.0 L 1610.5 331.0 L 1614.5 331.0 L 1609.5 334.0 L 1609.5 386.0 L 1607.5 413.0 L 1609.5 424.0 L 1607.5 425.0 L 1607.5 441.0 L 1611.0 442.5"/>
    <path d="M 1812.5 362.0 L 1813.5 330.0 L 1812.0 315.5 L 1748.0 313.5 L 1745.5 316.0 L 1746.5 340.0 L 1754.5 345.0 L 1760.0 359.5"/>
    <path d="M 1881.5 366.0 L 1881.0 316.5 L 1825.5 316.0 L 1825.0 362.5 L 1857.0 365.5 L 1864.0 356.5 L 1875.0 352.5 L 1878.5 356.0 L 1878.5 366.0 Z"/>
    <path d="M 1960.5 597.0 L 1957.5 593.0 L 1960.5 591.0 L 1961.5 553.0 L 1961.0 384.5 L 1914.0 380.5 L 1912.5 379.0 L 1912.0 360.5 L 1906.0 362.5 L 1901.5 367.0 L 1900.5 377.0 L 1898.0 379.5 L 1874.0 377.5 L 1872.5 376.0 L 1873.0 358.5 L 1868.0 358.5 L 1864.5 361.0 L 1859.0 376.5 L 1740.0 369.5 L 1733.5 366.0 L 1734.5 356.0 L 1736.0 354.5 L 1753.0 355.5 L 1753.5 352.0 L 1747.0 344.5 L 1734.5 342.0 L 1734.0 321.5 L 1731.0 326.5 L 1721.0 324.5 L 1712.0 317.5 L 1705.0 324.5 L 1673.5 326.0 L 1677.0 333.5 L 1682.0 336.5 L 1691.0 337.5 L 1692.5 340.0 L 1691.5 363.0 L 1684.5 424.0 L 1673.0 424.5 L 1669.0 426.5 L 1663.5 434.0 L 1665.0 435.5 L 1680.0 436.5 L 1682.5 439.0 L 1679.5 470.0 L 1692.0 472.5 L 1693.5 475.0 L 1691.5 481.0 L 1681.5 490.0 L 1687.5 497.0 L 1689.5 508.0 L 1686.0 510.5 L 1675.5 510.0 L 1673.5 536.0 L 1672.0 537.5 L 1656.0 535.5 L 1653.5 537.0 L 1659.0 547.5 L 1671.5 552.0 L 1668.0 596.5 L 1672.0 596.5 L 1673.0 591.5 L 1685.0 591.5 L 1685.5 593.0 L 1681.5 596.0 L 1687.0 596.5 L 1689.5 595.0 L 1688.5 592.0 L 1691.0 591.5 L 1696.0 593.5 L 1699.0 597.5 L 1702.0 597.5 L 1703.5 595.0 L 1700.5 593.0 L 1706.0 591.5 L 1708.0 596.5 L 1733.0 597.5 L 1735.0 595.5 L 1742.0 595.5 L 1744.0 597.5 L 1749.0 597.5 L 1750.5 595.0 L 1746.5 593.0 L 1749.0 591.5 L 1752.0 595.5 L 1757.0 595.5 L 1762.0 598.5 L 1803.0 597.5 L 1814.0 599.5 L 1874.0 600.5 L 1880.0 595.5 L 1885.0 596.5 L 1888.0 593.5 L 1890.0 597.5 L 1898.0 595.5 L 1901.0 597.5 L 1907.0 597.5 L 1910.5 601.0 L 1907.0 602.5 L 1880.0 601.5 L 1878.5 614.0 L 1880.0 621.5 L 1887.0 619.5 L 1892.5 614.0 L 1895.0 606.5 L 1898.5 615.0 L 1904.0 620.5 L 1910.0 621.5 L 1912.0 601.5 L 1920.0 599.5 L 1936.0 601.5 L 1945.0 599.5 L 1948.0 596.5"/>
    <path d="M 1678.0 421.5 L 1681.5 420.0 L 1689.5 347.0 L 1688.0 340.5 L 1683.5 342.0 L 1676.5 414.0"/>
    <path d="M 883.0 372.5 L 884.0 366.5 L 880.5 368.0 L 880.5 371.0 Z"/>
    <path d="M 884.5 394.0 L 880.5 393.0 L 879.5 451.0 L 878.0 453.5 L 750.0 450.5 L 743.5 452.0 L 741.5 583.0 L 740.0 584.5 L 589.0 581.5 L 588.5 585.0 L 875.0 592.5 L 877.5 599.0 L 875.5 695.0 L 878.0 695.5 L 881.0 690.5 L 915.0 690.5 L 914.0 686.5 L 884.0 686.5 L 879.5 684.0 L 881.0 562.5 L 877.5 563.0 L 877.5 585.0 L 873.0 588.5 L 843.0 586.5 L 749.0 585.5 L 745.5 583.0 L 746.5 524.0 L 748.0 522.5 L 853.0 524.5 L 854.5 523.0 L 854.0 520.5 L 748.0 517.5 L 746.5 514.0 L 748.5 456.0 L 877.0 457.5 L 879.5 460.0 L 878.5 481.0 L 881.0 483.5 L 883.5 474.0"/>
    <path d="M 1684.5 505.0 L 1682.5 497.0 L 1677.0 492.5 L 1671.0 491.5 L 1670.5 489.0 L 1683.0 484.5 L 1686.5 481.0 L 1687.5 476.0 L 1668.5 473.0 L 1669.0 454.5 L 1608.0 453.5 L 1606.5 455.0 L 1605.5 520.0 L 1607.0 521.5 L 1659.0 522.5 L 1663.5 520.0 L 1663.5 509.0 L 1666.0 504.5"/>
    <path d="M 780.0 469.5 L 781.5 469.0 L 780.5 464.0 L 783.5 461.0 L 783.0 458.5 L 778.5 460.0"/>
    <path d="M 808.0 470.5 L 807.5 464.0 L 810.5 460.0 L 799.0 458.5 L 798.5 461.0 L 801.5 464.0 L 800.5 470.0"/>
    <path d="M 834.0 470.5 L 833.5 465.0 L 836.5 460.0 L 825.0 459.5 L 828.5 465.0 L 826.5 470.0"/>
    <path d="M 856.0 465.5 L 856.5 461.0 L 853.0 459.5 L 851.5 462.0"/>
    <path d="M 798.5 466.0 L 796.0 462.5 L 792.0 464.5 L 788.0 462.5 L 783.5 464.0 L 783.5 466.0 L 788.0 468.5 L 795.0 468.5"/>
    <path d="M 825.5 467.0 L 823.0 463.5 L 820.0 463.5 L 819.0 465.5 L 815.0 463.5 L 810.5 464.0 L 811.0 467.5 L 817.0 469.5"/>
    <path d="M 851.5 468.0 L 851.5 465.0 L 849.0 463.5 L 845.0 466.5 L 841.0 463.5 L 836.5 465.0 L 836.5 467.0 L 841.0 469.5"/>
    <path d="M 801.0 505.5 L 801.5 501.0 L 798.0 499.5 L 795.5 504.0"/>
    <path d="M 771.0 506.5 L 771.5 503.0 L 768.0 500.5 L 765.5 505.0"/>
    <path d="M 786.0 506.5 L 786.5 503.0 L 783.0 500.5 L 780.5 505.0"/>
    <path d="M 816.5 506.0 L 814.0 500.5 L 810.5 503.0 L 812.0 506.5"/>
    <path d="M 831.5 506.0 L 829.0 501.5 L 826.5 502.0 L 826.0 506.5"/>
    <path d="M 1655.0 596.5 L 1659.5 552.0 L 1651.5 545.0 L 1648.5 536.0 L 1649.5 533.0 L 1606.0 532.5 L 1605.5 543.0 L 1608.5 544.0 L 1605.5 547.0 L 1606.5 557.0 L 1610.0 560.5 L 1613.0 558.5 L 1615.5 560.0 L 1611.5 563.0 L 1614.5 570.0 L 1613.0 571.5 L 1611.0 570.5 L 1610.5 573.0 L 1616.0 574.5 L 1617.0 577.5 L 1621.5 578.0 L 1618.5 580.0 L 1620.0 583.5 L 1625.0 580.5 L 1634.5 580.0 L 1632.0 576.5 L 1626.0 578.5 L 1623.5 575.0 L 1625.5 570.0 L 1623.5 566.0 L 1625.5 562.0 L 1625.5 551.0 L 1623.5 548.0 L 1624.5 542.0 L 1626.0 540.5 L 1629.0 542.5 L 1633.0 541.5 L 1634.5 546.0 L 1638.5 548.0 L 1637.5 552.0 L 1639.5 556.0 L 1637.5 561.0 L 1639.5 565.0 L 1638.5 586.0 L 1637.0 587.5 L 1630.5 586.0 L 1629.5 591.0 L 1633.5 592.0 L 1631.0 592.5 L 1630.5 595.0 L 1633.0 596.5"/>
    <path d="M 769.0 540.5 L 771.5 536.0 L 766.0 534.5 L 765.5 538.0"/>
    <path d="M 786.5 538.0 L 786.0 535.5 L 779.5 536.0 L 782.0 540.5"/>
    <path d="M 801.5 538.0 L 801.0 535.5 L 795.5 536.0 L 797.0 540.5"/>
    <path d="M 814.0 541.5 L 816.5 537.0 L 811.0 535.5 L 809.5 538.0"/>
    <path d="M 829.0 541.5 L 830.5 537.0 L 825.0 535.5 L 824.5 539.0"/>
    <path d="M 796.5 578.0 L 796.5 576.0 L 792.0 573.5 L 786.0 573.5 L 780.5 576.0 L 783.0 579.5 L 786.0 579.5 L 788.0 576.5 L 791.0 579.5"/>
    <path d="M 806.0 583.5 L 805.5 574.0 L 799.0 573.5 L 799.5 578.0 L 796.5 582.0"/>
    <path d="M 833.0 583.5 L 831.5 580.0 L 832.5 574.0 L 825.0 573.5 L 826.5 578.0 L 822.5 583.0"/>
    <path d="M 822.5 579.0 L 822.5 576.0 L 820.0 574.5 L 810.0 574.5 L 807.5 577.0 L 811.0 580.5 L 814.0 577.5 L 818.0 580.5"/>
    <path d="M 849.5 580.0 L 849.5 577.0 L 844.0 574.5 L 834.5 577.0 L 838.0 581.5 L 842.0 577.5 L 845.0 581.5"/>
    <path d="M 780.0 582.5 L 777.0 577.5 L 776.5 582.0 Z"/>
    <path d="M 851.0 584.5 L 853.5 584.0 L 854.0 579.5 L 850.5 582.0 Z"/>
    <path d="M 1104.0 636.5 L 1105.5 635.0 L 1105.5 601.0 L 1098.0 600.5 L 1096.5 635.0"/>
    <path d="M 1115.0 636.5 L 1116.5 602.0 L 1110.0 600.5 L 1108.5 602.0 L 1108.5 636.0"/>
    <path d="M 1125.0 637.5 L 1127.5 636.0 L 1127.5 602.0 L 1121.0 600.5 L 1119.5 602.0 L 1118.5 636.0"/>
    <path d="M 1137.0 637.5 L 1138.5 636.0 L 1139.5 602.0 L 1133.0 600.5 L 1130.5 603.0 L 1130.5 636.0"/>
    <path d="M 1149.0 637.5 L 1150.5 636.0 L 1150.5 602.0 L 1143.0 601.5 L 1141.5 636.0"/>
    <path d="M 1161.0 637.5 L 1162.5 602.0 L 1155.0 601.5 L 1153.5 603.0 L 1153.5 636.0"/>
    <path d="M 1172.0 637.5 L 1173.5 636.0 L 1174.5 603.0 L 1166.0 601.5 L 1164.5 636.0"/>
    <path d="M 1184.0 637.5 L 1185.5 603.0 L 1178.0 601.5 L 1176.5 637.0"/>
    <path d="M 1092.0 686.5 L 1093.5 652.0 L 1087.0 650.5 L 1084.5 653.0 L 1084.5 686.0"/>
    <path d="M 1102.0 687.5 L 1104.5 686.0 L 1104.5 652.0 L 1098.0 650.5 L 1096.5 652.0 L 1095.5 686.0"/>
    <path d="M 1114.0 687.5 L 1115.5 685.0 L 1115.5 652.0 L 1109.0 651.5 L 1107.5 653.0 L 1107.5 686.0"/>
    <path d="M 1125.0 687.5 L 1126.5 686.0 L 1126.5 652.0 L 1119.0 651.5 L 1118.5 687.0"/>
    <path d="M 1137.0 687.5 L 1138.5 686.0 L 1138.5 653.0 L 1131.0 651.5 L 1129.5 687.0"/>
    <path d="M 1149.0 687.5 L 1149.5 653.0 L 1143.0 651.5 L 1141.5 653.0 L 1140.5 686.0"/>
    <path d="M 1160.0 687.5 L 1161.5 686.0 L 1161.5 653.0 L 1155.0 651.5 L 1152.5 654.0 L 1152.5 687.0"/>
    <path d="M 1172.0 688.5 L 1172.5 653.0 L 1165.0 652.5 L 1163.5 686.0 L 1165.0 688.5"/>
    <path d="M 1897.5 1805.0 L 1897.5 1624.0 L 1900.0 1621.5 L 1934.5 1621.0 L 1935.5 1360.0 L 1934.0 1358.5 L 1901.0 1357.5 L 1898.5 1355.0 L 1898.5 1177.0 L 1892.0 1175.5 L 1432.0 1167.5 L 1223.0 1161.5 L 1221.5 1160.0 L 1221.5 1070.0 L 1227.5 693.0 L 1206.5 691.0 L 1206.5 665.0 L 1205.0 663.5 L 1202.5 665.0 L 1202.5 689.0 L 1201.0 691.5 L 1013.0 688.5 L 1011.5 690.0 L 1014.0 693.5 L 1042.0 693.5 L 1044.5 696.0 L 1033.5 1342.0 L 1036.0 1343.5 L 1930.0 1362.5 L 1931.5 1364.0 L 1931.0 1432.5 L 1794.5 1431.0 L 1794.5 1611.0 L 1792.0 1615.5 L 1183.0 1603.5 L 1179.5 1601.0 L 1181.0 1483.5 L 1034.0 1480.5 L 1032.5 1483.0 L 1029.5 1699.0 L 1028.0 1700.5 L 860.0 1697.5 L 858.5 1691.0 L 863.5 1478.0 L 853.0 1476.5 L 714.0 1475.5 L 710.5 1593.0 L 709.0 1594.5 L 535.0 1592.5 L 533.5 1594.0 L 534.0 1645.5 L 537.5 1645.0 L 538.5 1610.0 L 541.0 1596.5 L 568.0 1596.5 L 582.5 1599.0 L 580.5 1669.0 L 573.0 1670.5 L 539.0 1669.5 L 536.0 1666.5 L 532.5 1668.0 L 533.0 1673.5 L 571.0 1673.5 L 580.5 1676.0 L 577.5 1777.0 L 575.0 1779.5 L 455.0 1777.5 L 453.5 1776.0 L 456.5 1675.0 L 459.0 1672.5 L 505.0 1673.5 L 508.5 1671.0 L 507.0 1665.5 L 503.0 1668.5 L 459.0 1668.5 L 457.5 1667.0 L 459.5 1599.0 L 462.0 1595.5 L 505.0 1596.5 L 506.5 1599.0 L 505.5 1644.0 L 508.0 1644.5 L 509.5 1641.0 L 510.5 1598.0 L 513.5 1595.0 L 512.0 1591.5 L 158.0 1586.5 L 156.5 1585.0 L 163.5 1404.0 L 160.0 1401.5 L 40.0 1399.5 L 38.5 1398.0 L 40.5 1331.0 L 43.0 1328.5 L 515.0 1336.5 L 865.0 1339.5 L 866.5 1338.0 L 875.5 925.0 L 878.0 715.5 L 874.5 716.0 L 867.5 1137.0 L 866.5 1154.0 L 865.0 1155.5 L 85.0 1144.5 L 83.5 1146.0 L 78.5 1323.0 L 76.0 1325.5 L 38.0 1324.5 L 36.5 1326.0 L 26.5 1587.0 L 28.0 1588.5 L 63.0 1588.5 L 67.0 1589.5 L 68.5 1593.0 L 62.5 1744.0 L 63.0 1772.5 L 277.0 1778.5 L 708.0 1785.5 L 709.5 1784.0 L 711.5 1703.0 L 714.0 1699.5 L 930.0 1702.5 L 1174.0 1708.5 L 1173.5 1792.0 L 1175.0 1793.5 L 1547.0 1801.5"/>
    <path d="M 426.5 775.0 L 424.5 782.0 L 418.0 788.5 L 411.0 790.5 L 397.0 802.5 L 388.0 805.5 L 374.0 805.5 L 360.0 801.5 L 326.0 782.5 L 303.0 775.5 L 280.0 776.5 L 236.0 795.5 L 214.0 797.5 L 196.0 791.5 L 184.0 781.5 L 172.0 775.5 L 148.0 768.5 L 93.0 759.5 L 26.0 756.5 L 25.5 755.0 L 68.0 734.5 L 104.0 720.5 L 118.0 703.5 L 138.0 706.5 L 149.0 691.5 L 155.0 691.5 L 169.0 696.5 L 183.0 679.5 L 205.0 686.5 L 214.5 674.0 L 219.0 671.5 L 233.0 680.5 L 239.0 681.5 L 247.0 678.5 L 253.0 672.5 L 262.0 667.5 L 278.0 664.5 L 292.0 669.5 L 298.0 675.5 L 309.0 676.5 L 315.0 680.5 L 320.5 687.0 L 330.5 709.0 L 342.0 721.5 L 364.0 728.5 L 386.0 727.5 L 411.0 736.5 L 417.5 743.0 L 423.5 753.0"/>
    <path d="M 296.5 701.0 L 293.0 691.5 L 290.0 691.5 L 284.0 696.5 L 280.5 695.0 L 280.5 685.0 L 282.5 682.0 L 281.0 679.5 L 272.0 676.5 L 268.5 678.0 L 266.5 683.0 L 266.5 695.0 L 271.0 700.5 L 275.0 700.5 L 279.0 704.5 L 282.0 702.5"/>
    <path d="M 974.5 691.0 L 973.0 687.5 L 953.5 688.0 L 954.0 691.5 L 973.0 692.5 Z"/>
    <path d="M 1928.5 1429.0 L 1928.5 1367.0 L 1927.0 1365.5 L 1902.5 1366.0 L 1902.5 1394.0 L 1901.0 1395.5 L 1826.0 1394.5 L 1824.5 1392.0 L 1824.5 1365.0 L 1823.0 1363.5 L 1032.0 1346.5 L 1030.5 1345.0 L 1041.5 699.0 L 1040.0 696.5 L 1015.0 695.5 L 1011.5 697.0 L 1011.5 707.0 L 1010.0 708.5 L 1001.0 707.5 L 993.0 698.5 L 985.0 706.5 L 975.0 708.5 L 973.0 695.5 L 960.0 694.5 L 952.5 696.0 L 952.0 707.5 L 943.0 706.5 L 935.0 698.5 L 926.0 705.5 L 917.0 707.5 L 914.5 704.0 L 915.5 695.0 L 914.0 693.5 L 883.0 693.5 L 882.5 697.0 L 878.0 699.5 L 862.5 700.0 L 866.0 708.5 L 874.0 712.5 L 881.0 712.5 L 882.5 715.0 L 869.0 1342.5 L 478.0 1339.5 L 449.0 1337.5 L 148.0 1333.5 L 146.5 1335.0 L 145.5 1363.0 L 144.0 1364.5 L 75.0 1363.5 L 75.5 1334.0 L 74.0 1332.5 L 45.0 1331.5 L 43.5 1334.0 L 42.0 1396.5 L 72.0 1397.5 L 73.5 1367.0 L 76.0 1365.5 L 155.5 1368.0 L 154.5 1398.0 L 156.0 1399.5 L 163.0 1398.5 L 166.5 1401.0 L 159.5 1574.0 L 161.0 1583.5 L 515.0 1588.5 L 518.5 1603.0 L 523.0 1607.5 L 525.5 1606.0 L 529.5 1598.0 L 530.5 1591.0 L 533.0 1588.5 L 706.0 1591.5 L 707.5 1590.0 L 710.0 1472.5 L 864.0 1473.5 L 866.5 1475.0 L 864.5 1557.0 L 866.0 1558.5 L 916.0 1558.5 L 917.5 1560.0 L 915.5 1673.0 L 914.0 1674.5 L 863.0 1673.5 L 862.5 1694.0 L 1006.0 1697.5 L 1025.0 1697.5 L 1026.5 1696.0 L 1026.0 1676.5 L 976.0 1676.5 L 974.5 1675.0 L 975.5 1566.0 L 978.0 1560.5 L 1028.5 1561.0 L 1029.5 1479.0 L 1031.0 1477.5 L 1184.0 1480.5 L 1185.5 1493.0 L 1183.5 1599.0 L 1185.0 1600.5 L 1790.0 1612.5 L 1791.5 1611.0 L 1790.5 1430.0 L 1792.0 1427.5 L 1812.5 1427.0 L 1812.5 1398.0 L 1821.0 1396.5 L 1849.0 1398.5 L 1901.0 1398.5 L 1903.5 1402.0 L 1902.5 1428.0 L 1904.0 1429.5 L 1925.0 1430.5 Z"/>
    <path d="M 188.5 768.0 L 192.0 771.5 L 192.5 762.0 L 196.0 765.5 L 198.0 761.5 L 202.0 761.5 L 204.0 759.5 L 205.5 763.0 L 203.5 766.0 L 208.0 769.5 L 212.5 748.0 L 218.0 738.5 L 220.5 739.0 L 217.5 753.0 L 217.5 770.0 L 221.0 772.5 L 219.5 765.0 L 224.5 754.0 L 232.5 744.0 L 242.0 736.5 L 256.0 730.5 L 257.0 727.5 L 252.5 728.0 L 256.0 724.5 L 261.0 724.5 L 258.5 726.0 L 261.0 728.5 L 280.0 725.5 L 297.0 727.5 L 300.5 723.0 L 289.0 718.5 L 260.0 718.5 L 232.0 729.5 L 231.5 714.0 L 233.5 708.0 L 231.0 707.5 L 216.5 719.0 L 207.0 734.5 L 203.5 730.0 L 203.5 722.0 L 201.0 721.5 L 192.5 733.0 L 187.5 749.0"/>
    <path d="M 317.5 733.0 L 315.0 729.5 L 305.5 728.0 L 310.0 731.5"/>
    <path d="M 274.0 741.5 L 276.0 741.5 L 281.5 735.0 L 281.0 730.5 L 272.5 732.0"/>
    <path d="M 296.0 742.5 L 301.5 736.0 L 298.0 731.5 L 292.5 733.0 L 292.5 742.0 Z"/>
    <path d="M 108.5 737.0 L 108.0 734.5 L 102.5 735.0 L 104.0 737.5"/>
    <path d="M 254.0 744.5 L 257.5 743.0 L 259.0 735.5 L 251.5 738.0"/>
    <path d="M 311.0 747.5 L 318.5 743.0 L 313.0 737.5 L 310.5 739.0"/>
    <path d="M 281.0 746.5 L 286.5 746.0 L 287.0 738.5 L 283.5 740.0 L 280.5 744.0 Z"/>
    <path d="M 262.0 748.5 L 268.5 747.0 L 267.0 739.5 L 261.5 746.0 Z"/>
    <path d="M 90.5 745.0 L 90.0 741.5 L 84.5 743.0 L 86.0 745.5"/>
    <path d="M 300.0 748.5 L 305.5 747.0 L 305.0 742.5 L 299.5 746.0 Z"/>
    <path d="M 239.0 750.5 L 242.5 749.0 L 243.0 743.5 L 237.5 747.0 Z"/>
    <path d="M 340.5 749.0 L 338.0 744.5 L 335.5 746.0 L 338.0 749.5 Z"/>
    <path d="M 94.5 754.0 L 102.0 751.5 L 103.5 749.0 L 100.0 748.5"/>
    <path d="M 329.0 753.5 L 330.5 751.0 L 327.0 748.5 L 325.5 753.0 Z"/>
    <path d="M 358.0 770.5 L 359.5 767.0 L 353.0 764.5 L 343.0 753.5 L 345.5 761.0"/>
    <path d="M 236.5 764.0 L 239.0 765.5 L 240.0 763.5 L 244.0 763.5 L 257.5 756.0 L 249.0 757.5"/>
    <path d="M 338.5 760.0 L 336.0 756.5 L 332.5 757.0 L 334.0 759.5"/>
    <path d="M 318.5 767.0 L 318.0 765.5 L 310.5 765.0 L 314.0 767.5"/>
    <path d="M 328.5 768.0 L 327.0 765.5 L 319.5 767.0 L 322.0 769.5"/>
    <path d="M 377.5 779.0 L 373.0 774.5 L 367.5 775.0"/>
    <path d="M 357.0 783.5 L 360.5 781.0 L 358.0 776.5 L 355.5 777.0 L 355.5 783.0 Z"/>
    <path d="M 391.5 781.0 L 389.0 778.5 L 383.5 779.0 L 385.0 781.5"/>
    <path d="M 375.0 790.5 L 375.5 787.0 L 372.0 785.5 L 371.5 789.0 Z"/>
    <path d="M 2008.5 996.0 L 2007.0 998.5 L 1955.0 998.5 L 1598.0 991.5 L 1595.5 988.0 L 1597.5 837.0 L 1601.0 833.5 L 2006.0 840.5 L 2008.5 843.0"/>
    <path d="M 2000.5 990.0 L 2000.5 850.0 L 1999.0 848.5 L 1608.0 841.5 L 1605.5 844.0 L 1603.5 982.0 L 1605.0 983.5 L 1954.0 990.5"/>
    <path d="M 422.5 1040.0 L 421.0 1041.5 L 38.0 1034.5 L 16.0 1035.5 L 14.5 1034.0 L 17.5 944.0 L 128.0 946.5 L 172.0 945.5 L 322.0 949.5 L 423.0 949.5 L 424.5 951.0"/>
    <path d="M 54.0 1001.5 L 63.0 1002.5 L 72.5 998.0 L 71.0 993.5 L 61.0 996.5 L 59.5 991.0 L 70.5 986.0 L 70.0 981.5 L 63.0 981.5 L 62.5 979.0 L 64.0 977.5 L 73.0 977.5 L 75.5 975.0 L 75.0 971.5 L 63.0 970.5 L 56.5 974.0 L 52.5 990.0"/>
    <path d="M 87.0 1003.5 L 91.5 1000.0 L 94.5 989.0 L 100.5 978.0 L 101.5 973.0 L 100.0 971.5 L 93.5 975.0 L 89.0 987.5 L 86.5 985.0 L 83.5 972.0 L 77.5 973.0 L 81.5 995.0 L 84.5 1002.0 Z"/>
    <path d="M 100.0 1003.5 L 104.5 1002.0 L 107.0 994.5 L 116.0 1003.5 L 120.5 1002.0 L 120.5 979.0 L 116.0 971.5 L 108.0 973.5 L 104.5 978.0 L 98.5 994.0"/>
    <path d="M 131.0 1004.5 L 138.0 1003.5 L 143.5 999.0 L 143.0 995.5 L 133.0 998.5 L 130.5 996.0 L 131.5 987.0 L 136.0 979.5 L 139.0 986.5 L 142.0 986.5 L 143.5 984.0 L 143.5 977.0 L 139.0 971.5 L 131.0 973.5 L 125.5 983.0 L 124.5 1000.0"/>
    <path d="M 154.0 1004.5 L 162.0 1004.5 L 169.5 997.0 L 170.5 975.0 L 169.0 972.5 L 166.0 972.5 L 163.5 976.0 L 162.5 996.0 L 160.0 998.5 L 154.5 994.0 L 155.5 974.0 L 151.0 972.5 L 147.5 977.0 L 146.5 991.0 L 148.5 999.0"/>
    <path d="M 175.0 1004.5 L 180.5 1002.0 L 181.0 996.5 L 184.0 996.5 L 191.0 1005.5 L 195.5 1004.0 L 195.5 987.0 L 193.0 974.5 L 187.0 972.5 L 178.5 980.0 L 172.5 998.0 L 172.5 1002.0 Z"/>
    <path d="M 211.0 1005.5 L 213.5 1001.0 L 213.5 980.0 L 220.0 979.5 L 221.5 975.0 L 215.0 972.5 L 200.0 973.5 L 198.5 978.0 L 201.0 980.5 L 206.5 981.0 L 205.5 1003.0"/>
    <path d="M 242.0 1006.5 L 251.0 1005.5 L 256.5 1000.0 L 259.5 992.0 L 258.5 979.0 L 250.0 973.5 L 242.0 974.5 L 235.5 981.0 L 233.5 990.0 L 235.5 1002.0"/>
    <path d="M 225.0 1005.5 L 228.0 1005.5 L 230.5 1000.0 L 231.0 974.5 L 227.0 974.5 L 224.5 977.0 L 223.5 1004.0 Z"/>
    <path d="M 282.0 1006.5 L 286.5 1001.0 L 288.5 993.0 L 286.5 976.0 L 282.0 974.5 L 279.5 977.0 L 281.5 995.0 L 278.0 1000.5 L 275.5 996.0 L 274.5 978.0 L 272.0 974.5 L 269.0 974.5 L 264.5 983.0 L 262.5 1004.0 L 267.0 1006.5 L 271.0 1001.5 L 271.5 1004.0 L 277.0 1007.5"/>
    <path d="M 334.0 1007.5 L 336.5 1005.0 L 331.5 976.0 L 325.5 977.0 L 322.5 990.0 L 321.0 990.5 L 318.5 977.0 L 315.0 974.5 L 309.5 981.0 L 305.5 1005.0 L 307.0 1006.5 L 311.5 1005.0 L 315.0 992.5 L 319.0 1006.5 L 322.0 1007.5 L 324.5 1005.0 L 328.0 995.5 L 329.5 1005.0"/>
    <path d="M 342.0 1008.5 L 345.5 1006.0 L 347.0 999.5 L 351.0 1000.5 L 356.0 1007.5 L 359.0 1007.5 L 361.5 1004.0 L 360.5 983.0 L 355.0 975.5 L 350.0 976.5 L 344.5 982.0 L 341.5 989.0 L 338.5 1005.0"/>
    <path d="M 368.0 1008.5 L 371.5 1006.0 L 371.5 999.0 L 384.0 993.5 L 387.5 989.0 L 388.5 983.0 L 382.0 976.5 L 369.0 975.5 L 365.5 978.0 L 365.5 1005.0"/>
    <path d="M 862.5 1333.0 L 861.0 1335.5 L 704.0 1333.5 L 701.0 1325.5 L 697.5 1328.0 L 696.0 1333.5 L 653.0 1333.5 L 650.5 1332.0 L 649.0 1325.5 L 645.5 1327.0 L 644.0 1332.5 L 470.0 1331.5 L 468.5 1330.0 L 468.5 1298.0 L 473.5 1156.0 L 475.0 1154.5 L 648.0 1156.5 L 650.5 1159.0 L 648.0 1266.5 L 652.5 1265.0 L 654.5 1159.0 L 660.0 1156.5 L 700.0 1157.5 L 702.5 1160.0 L 700.0 1267.5 L 703.5 1267.0 L 707.0 1158.5 L 863.0 1159.5 L 866.5 1163.0"/>
    <path d="M 661.5 1315.0 L 663.0 1308.5 L 644.0 1308.5 L 642.5 1306.0 L 643.5 1285.0 L 645.0 1283.5 L 663.0 1284.5 L 664.5 1283.0 L 662.5 1277.0 L 658.0 1272.5 L 644.5 1269.0 L 647.5 1163.0 L 646.0 1160.5 L 478.0 1157.5 L 476.5 1159.0 L 471.5 1327.0 L 473.0 1328.5 L 642.0 1329.5 L 644.0 1322.5 L 653.0 1321.5"/>
    <path d="M 695.0 1291.5 L 695.0 1287.5 L 684.0 1287.5 L 682.5 1282.0 L 684.5 1277.0 L 696.5 1267.0 L 698.5 1161.0 L 659.0 1160.5 L 657.5 1166.0 L 655.5 1268.0 L 665.5 1275.0 L 667.5 1279.0 L 667.5 1286.0 L 666.0 1287.5 L 655.0 1287.5 L 654.5 1290.0 L 656.0 1291.5"/>
    <path d="M 858.0 1332.5 L 859.5 1331.0 L 862.5 1164.0 L 710.0 1161.5 L 707.5 1266.0 L 705.0 1270.5 L 696.0 1271.5 L 691.0 1274.5 L 686.5 1281.0 L 687.0 1284.5 L 705.0 1284.5 L 706.5 1286.0 L 706.5 1303.0 L 704.0 1309.5 L 686.0 1308.5 L 686.5 1315.0 L 694.0 1321.5 L 704.0 1323.5 L 706.0 1330.5"/>
    <path d="M 1765.5 1354.0 L 1764.0 1355.5 L 1578.0 1351.5 L 1574.5 1349.0 L 1573.0 1342.5 L 1570.5 1344.0 L 1569.0 1350.5 L 1524.0 1350.5 L 1521.5 1349.0 L 1520.0 1342.5 L 1517.5 1343.0 L 1516.0 1349.5 L 1323.0 1345.5 L 1321.5 1344.0 L 1322.5 1170.0 L 1324.0 1168.5 L 1516.0 1173.5 L 1517.5 1175.0 L 1518.0 1282.5 L 1520.5 1282.0 L 1521.5 1174.0 L 1526.0 1172.5 L 1570.0 1174.5 L 1570.5 1283.0 L 1572.0 1284.5 L 1574.5 1283.0 L 1574.5 1176.0 L 1576.0 1174.5 L 1764.0 1178.5 L 1765.5 1180.0"/>
    <path d="M 1533.5 1331.0 L 1534.0 1325.5 L 1516.0 1325.5 L 1513.5 1324.0 L 1513.5 1302.0 L 1517.0 1299.5 L 1534.0 1300.5 L 1534.5 1299.0 L 1528.0 1289.5 L 1516.0 1286.5 L 1513.5 1284.0 L 1513.5 1177.0 L 1512.0 1175.5 L 1325.5 1172.0 L 1324.5 1341.0 L 1326.0 1342.5 L 1513.0 1346.5 L 1515.0 1339.5 L 1525.0 1338.5"/>
    <path d="M 1567.0 1308.5 L 1567.0 1304.5 L 1556.0 1304.5 L 1553.5 1301.0 L 1555.5 1294.0 L 1563.0 1286.5 L 1567.5 1285.0 L 1567.5 1178.0 L 1566.0 1176.5 L 1525.0 1176.5 L 1524.5 1284.0 L 1535.5 1292.0 L 1537.5 1296.0 L 1537.5 1303.0 L 1525.0 1303.5 L 1523.5 1306.0 L 1525.0 1307.5"/>
    <path d="M 1762.5 1351.0 L 1762.0 1181.5 L 1579.0 1177.5 L 1577.5 1179.0 L 1578.5 1285.0 L 1577.0 1287.5 L 1565.0 1289.5 L 1559.5 1295.0 L 1557.5 1300.0 L 1559.0 1301.5 L 1576.0 1301.5 L 1577.5 1303.0 L 1578.5 1324.0 L 1576.0 1326.5 L 1559.0 1325.5 L 1558.5 1329.0 L 1564.0 1336.5 L 1575.0 1339.5 L 1577.5 1342.0 L 1577.5 1347.0 L 1580.0 1348.5 L 1758.0 1352.5"/>
    <path d="M 702.5 1305.0 L 703.5 1289.0 L 702.0 1287.5 L 698.5 1289.0 L 697.0 1294.5 L 653.0 1293.5 L 651.0 1287.5 L 646.5 1289.0 L 647.0 1305.5 L 651.5 1304.0 L 653.0 1298.5 L 693.0 1298.5 L 698.5 1301.0 L 700.0 1306.5 Z"/>
    <path d="M 694.5 1330.0 L 694.5 1325.0 L 684.5 1318.0 L 681.5 1311.0 L 684.0 1305.5 L 695.0 1305.5 L 694.0 1301.5 L 654.5 1302.0 L 655.0 1305.5 L 665.0 1305.5 L 666.5 1313.0 L 660.0 1321.5 L 653.5 1325.0 L 654.0 1329.5"/>
    <path d="M 1574.5 1322.0 L 1574.0 1304.5 L 1570.5 1306.0 L 1569.0 1311.5 L 1523.0 1310.5 L 1520.5 1304.0 L 1517.5 1304.0 L 1518.0 1321.5 L 1520.5 1321.0 L 1523.0 1315.5 L 1567.0 1315.5 L 1570.5 1318.0 L 1572.0 1322.5 Z"/>
    <path d="M 1567.5 1347.0 L 1567.5 1342.0 L 1562.0 1339.5 L 1554.5 1329.0 L 1556.0 1322.5 L 1567.0 1322.5 L 1567.0 1318.5 L 1526.0 1317.5 L 1524.5 1319.0 L 1525.0 1322.5 L 1536.0 1322.5 L 1538.5 1325.0 L 1536.5 1333.0 L 1530.0 1339.5 L 1524.5 1342.0 L 1523.5 1345.0 L 1526.0 1347.5"/>
    <path d="M 85.0 1360.5 L 86.5 1333.0 L 79.0 1332.5 L 77.5 1359.0"/>
    <path d="M 97.0 1360.5 L 98.5 1334.0 L 91.0 1332.5 L 89.5 1334.0 L 88.5 1360.0"/>
    <path d="M 107.0 1361.5 L 109.5 1359.0 L 109.5 1334.0 L 103.0 1332.5 L 101.5 1334.0 L 100.5 1360.0"/>
    <path d="M 119.0 1361.5 L 120.5 1360.0 L 121.5 1335.0 L 115.0 1332.5 L 112.5 1334.0 L 111.5 1360.0"/>
    <path d="M 131.0 1361.5 L 132.5 1335.0 L 127.0 1332.5 L 123.5 1336.0 L 123.5 1361.0"/>
    <path d="M 142.0 1361.5 L 143.5 1334.0 L 136.0 1333.5 L 134.5 1361.0"/>
    <path d="M 1837.0 1391.5 L 1837.5 1365.0 L 1829.0 1363.5 L 1827.5 1365.0 L 1827.5 1390.0"/>
    <path d="M 1847.0 1392.5 L 1849.5 1391.0 L 1849.5 1364.0 L 1841.0 1363.5 L 1840.5 1391.0"/>
    <path d="M 1861.0 1392.5 L 1862.5 1391.0 L 1862.5 1366.0 L 1861.0 1363.5 L 1854.0 1363.5 L 1852.5 1365.0 L 1852.5 1391.0"/>
    <path d="M 1874.0 1392.5 L 1874.5 1365.0 L 1867.0 1363.5 L 1865.5 1365.0 L 1865.5 1392.0"/>
    <path d="M 1887.0 1392.5 L 1887.5 1366.0 L 1879.0 1364.5 L 1877.5 1366.0 L 1877.5 1391.0"/>
    <path d="M 1899.0 1392.5 L 1899.5 1366.0 L 1891.0 1364.5 L 1890.5 1392.0"/>
    <path d="M 83.0 1397.5 L 84.5 1396.0 L 84.5 1370.0 L 78.0 1368.5 L 76.5 1370.0 L 75.5 1396.0"/>
    <path d="M 95.0 1397.5 L 96.5 1395.0 L 96.5 1370.0 L 90.0 1368.5 L 87.5 1371.0 L 86.5 1396.0"/>
    <path d="M 106.0 1397.5 L 107.5 1396.0 L 108.5 1371.0 L 101.0 1369.5 L 99.5 1371.0 L 98.5 1397.0"/>
    <path d="M 112.0 1398.5 L 118.5 1397.0 L 119.5 1371.0 L 118.0 1369.5 L 112.0 1369.5 L 110.5 1372.0 L 109.5 1396.0 Z"/>
    <path d="M 128.0 1398.5 L 129.5 1397.0 L 130.5 1371.0 L 124.0 1369.5 L 122.5 1371.0 L 121.5 1397.0"/>
    <path d="M 139.0 1398.5 L 140.5 1397.0 L 141.5 1371.0 L 135.0 1369.5 L 132.5 1382.0 L 132.5 1398.0"/>
    <path d="M 151.0 1398.5 L 152.5 1371.0 L 146.0 1369.5 L 144.5 1371.0 L 143.5 1398.0"/>
    <path d="M 647.5 1556.0 L 646.0 1558.5 L 255.0 1553.5 L 252.5 1551.0 L 258.5 1386.0 L 260.0 1383.5 L 372.0 1385.5 L 373.5 1393.0 L 371.0 1395.5 L 315.0 1394.5 L 313.5 1396.0 L 314.0 1405.5 L 328.0 1405.5 L 329.5 1407.0 L 328.5 1443.0 L 325.0 1445.5 L 313.0 1444.5 L 311.5 1446.0 L 311.5 1465.0 L 313.0 1466.5 L 372.0 1466.5 L 371.5 1458.0 L 374.5 1454.0 L 371.5 1449.0 L 374.5 1441.0 L 371.5 1433.0 L 372.5 1430.0 L 377.0 1425.5 L 390.0 1426.5 L 392.5 1424.0 L 392.5 1411.0 L 401.0 1409.5 L 402.5 1411.0 L 401.5 1425.0 L 403.0 1426.5 L 416.0 1425.5 L 421.5 1432.0 L 421.5 1435.0 L 417.5 1440.0 L 420.5 1445.0 L 420.5 1450.0 L 417.5 1453.0 L 420.5 1460.0 L 418.5 1466.0 L 420.0 1468.5 L 475.0 1468.5 L 477.5 1467.0 L 478.5 1453.0 L 477.0 1447.5 L 464.0 1447.5 L 461.5 1444.0 L 463.5 1409.0 L 466.0 1407.5 L 478.0 1408.5 L 479.5 1407.0 L 479.5 1398.0 L 478.0 1396.5 L 424.0 1396.5 L 422.5 1395.0 L 423.0 1386.5 L 650.0 1388.5 L 652.5 1394.0"/>
    <path d="M 644.5 1553.0 L 648.0 1392.5 L 427.0 1389.5 L 425.5 1392.0 L 428.0 1393.5 L 479.0 1393.5 L 482.5 1396.0 L 480.5 1468.0 L 478.0 1470.5 L 422.0 1470.5 L 398.5 1469.0 L 399.0 1413.5 L 395.5 1414.0 L 393.5 1467.0 L 391.0 1469.5 L 320.0 1469.5 L 308.5 1468.0 L 308.5 1436.0 L 311.5 1392.0 L 368.0 1392.5 L 369.0 1388.5 L 265.0 1386.5 L 261.5 1390.0 L 256.5 1549.0 L 258.0 1550.5 L 643.0 1555.5 Z"/>
    <path d="M 1669.5 1576.0 L 1668.0 1577.5 L 1245.0 1570.5 L 1242.5 1569.0 L 1243.5 1401.0 L 1245.0 1399.5 L 1493.0 1404.5 L 1495.5 1406.0 L 1495.5 1414.0 L 1493.0 1415.5 L 1416.5 1414.0 L 1417.0 1423.5 L 1432.0 1423.5 L 1433.5 1425.0 L 1433.5 1463.0 L 1416.5 1464.0 L 1416.5 1484.0 L 1418.0 1485.5 L 1494.5 1486.0 L 1493.5 1479.0 L 1496.5 1473.0 L 1493.5 1469.0 L 1493.5 1464.0 L 1496.5 1459.0 L 1493.5 1456.0 L 1493.5 1450.0 L 1498.0 1445.5 L 1502.0 1444.5 L 1513.0 1446.5 L 1514.5 1445.0 L 1514.5 1432.0 L 1523.0 1430.5 L 1524.5 1432.0 L 1525.0 1445.5 L 1540.0 1445.5 L 1545.5 1450.0 L 1545.5 1457.0 L 1542.5 1460.0 L 1545.5 1465.0 L 1545.5 1471.0 L 1542.5 1474.0 L 1545.5 1479.0 L 1545.0 1487.5 L 1612.0 1488.5 L 1612.5 1469.0 L 1598.0 1468.5 L 1596.5 1467.0 L 1596.5 1429.0 L 1598.0 1427.5 L 1612.0 1427.5 L 1612.5 1418.0 L 1546.0 1416.5 L 1544.5 1408.0 L 1547.0 1405.5 L 1667.0 1408.5 L 1669.5 1411.0"/>
    <path d="M 1837.0 1428.5 L 1837.5 1401.0 L 1830.0 1399.5 L 1828.5 1401.0 L 1828.5 1428.0"/>
    <path d="M 1824.0 1428.5 L 1825.5 1427.0 L 1825.5 1402.0 L 1816.0 1400.5 L 1815.5 1427.0"/>
    <path d="M 1848.0 1429.5 L 1849.5 1428.0 L 1849.5 1401.0 L 1841.0 1400.5 L 1840.5 1428.0"/>
    <path d="M 1861.0 1429.5 L 1862.5 1428.0 L 1862.5 1402.0 L 1854.0 1400.5 L 1852.5 1403.0 L 1852.5 1427.0 L 1855.0 1429.5"/>
    <path d="M 1874.0 1429.5 L 1875.5 1428.0 L 1875.5 1403.0 L 1873.0 1400.5 L 1867.0 1400.5 L 1865.5 1402.0 L 1865.5 1428.0"/>
    <path d="M 1887.0 1429.5 L 1887.5 1402.0 L 1879.0 1401.5 L 1877.5 1404.0 L 1877.5 1428.0"/>
    <path d="M 1898.0 1430.5 L 1899.5 1429.0 L 1899.5 1402.0 L 1892.0 1401.5 L 1890.5 1403.0 L 1890.5 1429.0"/>
    <path d="M 1665.5 1574.0 L 1665.5 1413.0 L 1664.0 1411.5 L 1549.0 1409.5 L 1550.0 1413.5 L 1614.0 1414.5 L 1615.5 1416.0 L 1615.5 1490.0 L 1614.0 1491.5 L 1526.0 1490.5 L 1521.5 1488.0 L 1521.5 1435.0 L 1520.0 1433.5 L 1517.5 1435.0 L 1517.5 1488.0 L 1516.0 1489.5 L 1426.0 1488.5 L 1413.5 1486.0 L 1414.5 1411.0 L 1491.0 1411.5 L 1490.0 1407.5 L 1248.0 1402.5 L 1246.5 1404.0 L 1245.5 1565.0 L 1247.0 1566.5 L 1396.0 1570.5"/>
    <path d="M 322.0 1420.5 L 324.5 1418.0 L 324.5 1414.0 L 323.0 1411.5 L 319.0 1411.5 L 319.5 1416.0 L 317.5 1420.0"/>
    <path d="M 472.0 1423.5 L 473.5 1421.0 L 471.5 1418.0 L 473.5 1415.0 L 470.0 1413.5 L 466.5 1418.0 L 466.5 1421.0"/>
    <path d="M 326.5 1428.0 L 326.0 1421.5 L 323.0 1423.5 L 318.0 1423.5 L 316.0 1421.5 L 312.5 1423.0 L 313.0 1428.5 L 319.0 1426.5"/>
    <path d="M 478.5 1430.0 L 478.0 1424.5 L 472.0 1426.5 L 465.5 1425.0 L 466.0 1430.5 L 473.0 1429.5 L 477.0 1431.5 Z"/>
    <path d="M 321.0 1439.5 L 324.5 1433.0 L 322.0 1429.5 L 316.5 1431.0 L 318.5 1434.0 L 316.5 1438.0"/>
    <path d="M 1427.0 1439.5 L 1429.5 1434.0 L 1426.0 1429.5 L 1423.0 1429.5 L 1421.5 1432.0 L 1423.5 1435.0 L 1421.5 1438.0"/>
    <path d="M 381.5 1435.0 L 381.0 1430.5 L 376.5 1432.0 L 378.0 1435.5 Z"/>
    <path d="M 413.0 1436.5 L 416.5 1434.0 L 414.0 1430.5 L 411.5 1431.0 L 411.5 1436.0 Z"/>
    <path d="M 471.0 1442.5 L 473.5 1440.0 L 471.5 1437.0 L 473.5 1434.0 L 472.0 1431.5 L 468.0 1432.5 L 466.5 1435.0 L 466.5 1440.0"/>
    <path d="M 1607.0 1443.5 L 1608.5 1441.0 L 1605.5 1438.0 L 1608.5 1435.0 L 1604.0 1433.5 L 1601.5 1436.0 L 1601.5 1441.0"/>
    <path d="M 1430.5 1447.0 L 1430.0 1440.5 L 1427.0 1442.5 L 1416.5 1441.0 L 1417.0 1447.5 L 1422.0 1445.5"/>
    <path d="M 380.0 1450.5 L 381.5 1445.0 L 378.0 1444.5 L 375.5 1448.0"/>
    <path d="M 414.0 1450.5 L 416.5 1447.0 L 412.0 1444.5 L 410.5 1450.0 Z"/>
    <path d="M 1612.5 1452.0 L 1612.0 1444.5 L 1608.0 1446.5 L 1599.5 1446.0 L 1600.0 1451.5 L 1606.0 1449.5"/>
    <path d="M 1426.0 1458.5 L 1429.5 1455.0 L 1429.5 1452.0 L 1424.0 1447.5 L 1421.5 1449.0 L 1423.5 1452.0 L 1421.5 1457.0"/>
    <path d="M 1504.5 1455.0 L 1504.0 1450.5 L 1498.5 1452.0 L 1499.0 1454.5"/>
    <path d="M 1541.5 1454.0 L 1539.0 1451.5 L 1535.5 1452.0 L 1536.0 1456.5"/>
    <path d="M 1606.0 1463.5 L 1608.5 1462.0 L 1605.5 1458.0 L 1607.5 1454.0 L 1604.0 1452.5 L 1601.5 1455.0 L 1601.5 1460.0"/>
    <path d="M 380.0 1464.5 L 380.5 1459.0 L 378.0 1458.5 L 375.5 1463.0"/>
    <path d="M 411.0 1464.5 L 415.5 1463.0 L 415.0 1459.5 L 412.0 1458.5 L 410.5 1460.0"/>
    <path d="M 1504.5 1469.0 L 1504.0 1464.5 L 1498.5 1466.0 L 1502.0 1470.5 Z"/>
    <path d="M 1541.5 1468.0 L 1539.0 1465.5 L 1535.5 1466.0 L 1536.0 1470.5"/>
    <path d="M 1504.5 1483.0 L 1504.0 1478.5 L 1498.5 1480.0 L 1500.0 1483.5 L 1503.0 1484.5 Z"/>
    <path d="M 1541.5 1482.0 L 1540.0 1479.5 L 1536.0 1479.5 L 1534.5 1483.0 L 1539.0 1484.5 Z"/>
    <path d="M 914.5 1570.0 L 913.0 1562.5 L 864.5 1562.0 L 865.0 1570.5 L 913.0 1571.5 Z"/>
    <path d="M 1028.5 1573.0 L 1028.0 1564.5 L 979.5 1565.0 L 980.0 1573.5 L 1027.0 1574.5 Z"/>
    <path d="M 913.5 1583.0 L 913.0 1574.5 L 866.0 1573.5 L 864.5 1575.0 L 865.0 1583.5 L 912.0 1584.5 Z"/>
    <path d="M 1028.5 1586.0 L 1028.0 1577.5 L 979.5 1577.0 L 980.0 1585.5"/>
    <path d="M 913.5 1595.0 L 913.0 1587.5 L 864.5 1587.0 L 865.0 1595.5 L 912.0 1596.5 Z"/>
    <path d="M 1028.5 1598.0 L 1028.0 1589.5 L 979.5 1589.0 L 980.0 1597.5"/>
    <path d="M 488.0 1665.5 L 488.5 1657.0 L 491.5 1652.0 L 502.5 1644.0 L 503.5 1600.0 L 502.0 1598.5 L 464.0 1598.5 L 464.0 1601.5 L 477.0 1601.5 L 478.5 1603.0 L 477.5 1622.0 L 476.0 1623.5 L 463.0 1623.5 L 461.5 1630.0 L 463.0 1631.5 L 474.0 1630.5 L 478.0 1632.5 L 480.5 1636.0 L 480.5 1642.0 L 474.0 1647.5 L 461.5 1647.0 L 460.5 1664.0 L 462.0 1665.5"/>
    <path d="M 913.5 1607.0 L 913.0 1599.5 L 865.0 1598.5 L 863.5 1600.0 L 865.0 1607.5 L 912.0 1608.5 Z"/>
    <path d="M 577.0 1666.5 L 578.5 1648.0 L 576.0 1646.5 L 563.0 1647.5 L 556.5 1640.0 L 558.5 1635.0 L 564.0 1631.5 L 578.0 1632.5 L 579.5 1631.0 L 579.0 1625.5 L 564.0 1624.5 L 562.5 1619.0 L 563.5 1605.0 L 565.0 1603.5 L 579.0 1603.5 L 580.5 1601.0 L 579.0 1599.5 L 544.0 1599.5 L 542.5 1601.0 L 540.5 1645.0 L 550.5 1654.0 L 552.5 1658.0 L 552.0 1666.5"/>
    <path d="M 1028.5 1610.0 L 1027.0 1601.5 L 981.0 1600.5 L 978.5 1603.0 L 980.0 1610.5 L 1027.0 1611.5 Z"/>
    <path d="M 574.0 1775.5 L 577.5 1678.0 L 529.5 1676.0 L 528.5 1671.0 L 531.0 1663.5 L 548.0 1663.5 L 549.5 1660.0 L 544.0 1651.5 L 529.5 1647.0 L 531.5 1604.0 L 530.0 1603.5 L 527.5 1609.0 L 523.0 1611.5 L 514.0 1601.5 L 512.5 1646.0 L 510.0 1648.5 L 498.0 1650.5 L 491.5 1659.0 L 492.0 1662.5 L 511.0 1663.5 L 511.5 1674.0 L 509.0 1676.5 L 460.5 1676.0 L 456.5 1773.0 L 458.0 1774.5"/>
    <path d="M 471.0 1617.5 L 473.5 1615.0 L 473.5 1610.0 L 472.0 1607.5 L 469.0 1607.5 L 467.5 1610.0 L 469.5 1612.0 L 466.5 1616.0"/>
    <path d="M 573.0 1619.5 L 574.5 1617.0 L 572.5 1613.0 L 574.5 1610.0 L 570.0 1609.5 L 567.5 1616.0 L 570.0 1619.5 Z"/>
    <path d="M 913.5 1620.0 L 912.0 1611.5 L 865.0 1610.5 L 863.5 1612.0 L 864.0 1620.5 L 912.0 1621.5 Z"/>
    <path d="M 1028.5 1622.0 L 1027.0 1614.5 L 978.5 1614.0 L 979.0 1622.5 L 1027.0 1623.5 Z"/>
    <path d="M 912.5 1633.0 L 912.0 1624.5 L 863.5 1624.0 L 864.0 1633.5"/>
    <path d="M 1028.5 1633.0 L 1027.0 1626.5 L 980.0 1625.5 L 978.5 1627.0 L 979.0 1635.5 L 1027.0 1636.5 Z"/>
    <path d="M 474.0 1641.5 L 475.5 1638.0 L 471.0 1636.5 L 470.5 1641.0 Z"/>
    <path d="M 912.5 1646.0 L 911.0 1636.5 L 863.5 1637.0 L 865.0 1646.5"/>
    <path d="M 566.0 1642.5 L 567.5 1638.0 L 564.0 1637.5 L 562.5 1641.0 Z"/>
    <path d="M 1027.5 1648.0 L 1027.0 1639.5 L 978.5 1639.0 L 979.0 1648.5"/>
    <path d="M 912.5 1657.0 L 911.0 1649.5 L 864.0 1648.5 L 862.5 1651.0 L 863.0 1657.5 L 911.0 1658.5 Z"/>
    <path d="M 1027.5 1660.0 L 1026.0 1651.5 L 979.0 1651.5 L 977.5 1656.0 L 979.0 1660.5"/>
    <path d="M 912.5 1669.0 L 911.0 1661.5 L 864.0 1660.5 L 862.5 1662.0 L 864.0 1670.5 L 911.0 1670.5 Z"/>
    <path d="M 1027.5 1672.0 L 1026.0 1663.5 L 979.0 1663.5 L 977.5 1665.0 L 978.0 1672.5 L 1026.0 1673.5 Z"/>
  </g>
</svg>
