<?xml version="1.0" encoding="UTF-8"?>
<svg xmlns="http://www.w3.org/2000/svg" width="1836" height="1854" viewBox="0 0 1836 1854">
  <rect width="100%" height="100%" fill="#ffffff"/>
  <g id="base-map-no-labels" fill="none" stroke="#111827" stroke-width="2.2" stroke-linecap="round" stroke-linejoin="round">
    <path d="M 1813.0 1798.5 L 1700.0 1799.5 L 1696.5 1802.0 L 1697.5 1811.0 L 1696.0 1812.5 L 1689.0 1812.5 L 1679.0 1804.5 L 1676.0 1804.5 L 1672.0 1809.5 L 1664.0 1813.5 L 1658.5 1811.0 L 1658.5 1801.0 L 1657.0 1799.5 L 1645.0 1800.5 L 1642.0 1813.5 L 1635.0 1813.5 L 1620.0 1799.5 L 1511.0 1801.5 L 1505.5 1799.0 L 1505.5 1747.0 L 1504.0 1745.5 L 1500.5 1747.0 L 1499.0 1758.5 L 1490.0 1757.5 L 1485.0 1753.5 L 1476.0 1753.5 L 1469.0 1758.5 L 1464.0 1758.5 L 1461.5 1756.0 L 1462.5 1749.0 L 1460.5 1745.0 L 1458.0 1744.5 L 1456.5 1747.0 L 1457.5 1761.0 L 1455.0 1763.5 L 1441.0 1767.5 L 1436.5 1774.0 L 1438.0 1777.5 L 1452.0 1776.5 L 1456.5 1779.0 L 1457.5 1792.0 L 1455.0 1801.5 L 1119.0 1800.5 L 1117.5 1799.0 L 1115.5 1633.0 L 1114.5 1628.0 L 1112.0 1626.5 L 1094.0 1626.5 L 1092.5 1622.0 L 1091.5 1523.0 L 1077.5 1520.0 L 1077.5 1516.0 L 1081.5 1508.0 L 1078.5 1504.0 L 1080.5 1496.0 L 1077.5 1492.0 L 1077.5 1485.0 L 1079.0 1483.5 L 1088.0 1484.5 L 1090.5 1483.0 L 1090.5 1459.0 L 1089.0 1457.5 L 1076.5 1457.0 L 1076.5 1451.0 L 1079.5 1443.0 L 1075.5 1442.0 L 1075.5 1436.0 L 1078.5 1434.0 L 1075.5 1422.0 L 1077.0 1420.5 L 1088.0 1420.5 L 1090.5 1416.0 L 1088.5 1375.0 L 1088.5 1295.0 L 1146.5 1161.0 L 1149.0 1159.5 L 1272.0 1159.5 L 1276.0 1151.5 L 1278.5 1155.0 L 1276.0 1162.5 L 1149.5 1164.0 L 1091.5 1297.0 L 1094.0 1419.5 L 1096.5 1418.0 L 1096.5 1381.0 L 1098.0 1378.5 L 1150.0 1378.5 L 1151.5 1380.0 L 1151.5 1397.0 L 1153.0 1399.5 L 1155.5 1398.0 L 1154.5 1329.0 L 1151.5 1329.0 L 1150.5 1337.0 L 1148.0 1339.5 L 1097.0 1338.5 L 1095.5 1336.0 L 1095.5 1300.0 L 1098.0 1298.5 L 1148.0 1298.5 L 1152.0 1305.5 L 1154.5 1304.0 L 1154.5 1295.0 L 1207.5 1173.0 L 1212.0 1166.5 L 1441.0 1165.5 L 1445.5 1168.0 L 1447.0 1173.5 L 1450.5 1172.0 L 1452.0 1165.5 L 1650.0 1165.5 L 1652.5 1167.0 L 1652.5 1203.0 L 1645.5 1205.0 L 1646.0 1207.5 L 1652.5 1209.0 L 1652.0 1213.5 L 1643.0 1210.5 L 1641.5 1208.0 L 1642.5 1192.0 L 1641.0 1190.5 L 1635.0 1191.5 L 1630.5 1195.0 L 1626.5 1205.0 L 1627.5 1209.0 L 1625.0 1211.5 L 1444.0 1211.5 L 1442.5 1210.0 L 1442.5 1195.0 L 1434.5 1189.0 L 1430.5 1182.0 L 1430.5 1177.0 L 1433.0 1174.5 L 1442.5 1173.0 L 1442.0 1168.5 L 1215.0 1169.5 L 1209.5 1177.0 L 1158.5 1295.0 L 1157.5 1305.0 L 1171.5 1308.0 L 1169.5 1317.0 L 1158.5 1327.0 L 1157.5 1330.0 L 1159.5 1399.0 L 1157.0 1403.5 L 1140.0 1404.5 L 1138.5 1407.0 L 1141.0 1412.5 L 1153.5 1419.0 L 1145.0 1423.5 L 1140.5 1428.0 L 1139.5 1433.0 L 1141.0 1434.5 L 1155.0 1433.5 L 1159.0 1434.5 L 1160.5 1437.0 L 1160.5 1503.0 L 1141.5 1505.0 L 1142.5 1511.0 L 1149.0 1516.5 L 1155.5 1519.0 L 1155.0 1521.5 L 1148.0 1522.5 L 1142.5 1528.0 L 1141.5 1533.0 L 1143.0 1534.5 L 1159.0 1534.5 L 1161.5 1537.0 L 1162.5 1642.0 L 1164.0 1643.5 L 1175.0 1643.5 L 1176.5 1646.0 L 1171.5 1659.0 L 1163.5 1664.0 L 1163.5 1685.0 L 1214.5 1779.0 L 1223.0 1790.5 L 1438.0 1791.5 L 1445.0 1790.5 L 1446.5 1784.0 L 1445.0 1781.5 L 1434.0 1781.5 L 1431.5 1776.0 L 1433.5 1770.0 L 1446.5 1758.0 L 1445.5 1737.0 L 1447.0 1735.5 L 1463.0 1735.5 L 1465.5 1739.0 L 1465.5 1753.0 L 1467.0 1754.5 L 1471.0 1753.5 L 1477.5 1748.0 L 1476.5 1738.0 L 1480.0 1735.5 L 1483.5 1739.0 L 1484.5 1748.0 L 1489.0 1752.5 L 1496.0 1754.5 L 1495.5 1737.0 L 1497.0 1735.5 L 1644.0 1735.5 L 1646.5 1734.0 L 1646.5 1732.0 L 1643.0 1730.5 L 1636.0 1731.5 L 1633.5 1730.0 L 1633.5 1724.0 L 1641.5 1714.0 L 1641.5 1711.0 L 1633.5 1702.0 L 1633.5 1696.0 L 1635.0 1694.5 L 1645.0 1694.5 L 1647.5 1692.0 L 1650.5 1258.0 L 1638.0 1256.5 L 1635.5 1254.0 L 1636.5 1248.0 L 1645.5 1238.0 L 1636.5 1227.0 L 1635.5 1220.0 L 1637.0 1218.5 L 1648.0 1218.5 L 1651.0 1215.5 L 1654.0 1217.5 L 1657.5 1217.0 L 1656.5 1179.0 L 1657.5 1167.0 L 1661.5 1162.0 L 1601.0 1160.5 L 1599.5 1136.0 L 1600.5 1101.0 L 1599.0 1099.5 L 1593.0 1107.5 L 1364.0 1108.5 L 1361.5 1113.0 L 1362.5 1157.0 L 1360.0 1161.5 L 1284.0 1162.5 L 1281.5 1161.0 L 1283.0 1151.5 L 1285.5 1153.0 L 1285.5 1158.0 L 1288.0 1159.5 L 1357.0 1158.5 L 1358.5 1157.0 L 1357.5 1121.0 L 1360.0 1105.5 L 1591.0 1104.5 L 1593.5 1097.0 L 1596.0 1095.5 L 1613.0 1096.5 L 1614.5 1095.0 L 1613.5 1090.0 L 1603.0 1082.5 L 1595.0 1081.5 L 1592.5 1079.0 L 1593.5 1075.0 L 1589.0 1072.5 L 1440.0 1074.5 L 1359.0 1073.5 L 1358.5 1053.0 L 1347.5 1045.0 L 1344.5 1040.0 L 1344.5 1034.0 L 1347.0 1031.5 L 1357.0 1031.5 L 1358.5 1030.0 L 1358.5 1011.0 L 1361.0 1008.5 L 1439.0 1008.5 L 1442.5 1007.0 L 1443.0 937.5 L 1395.0 937.5 L 1391.5 940.0 L 1391.5 954.0 L 1387.0 956.5 L 1287.0 956.5 L 1284.5 958.0 L 1284.5 971.0 L 1282.0 972.5 L 1280.5 971.0 L 1280.5 958.0 L 1284.0 953.5 L 1386.0 952.5 L 1388.5 943.0 L 1387.5 939.0 L 1391.0 934.5 L 1442.0 933.5 L 1446.5 937.0 L 1445.5 1009.0 L 1443.0 1011.5 L 1364.0 1012.5 L 1362.5 1014.0 L 1362.5 1031.0 L 1365.5 1031.0 L 1365.5 1019.0 L 1370.0 1015.5 L 1477.0 1015.5 L 1478.5 1017.0 L 1477.5 1064.0 L 1475.0 1066.5 L 1370.0 1067.5 L 1365.5 1065.0 L 1365.5 1054.0 L 1364.0 1053.5 L 1362.5 1055.0 L 1363.0 1070.5 L 1592.0 1069.5 L 1596.0 1070.5 L 1596.5 1077.0 L 1600.0 1077.5 L 1602.5 1005.0 L 1602.0 867.5 L 1598.5 868.0 L 1598.5 944.0 L 1594.0 946.5 L 1572.5 947.0 L 1574.0 950.5 L 1593.0 949.5 L 1598.5 952.0 L 1596.5 1064.0 L 1594.0 1065.5 L 1484.0 1066.5 L 1481.5 1064.0 L 1482.5 1012.0 L 1468.0 1010.5 L 1453.0 1011.5 L 1450.5 1010.0 L 1450.5 954.0 L 1453.0 951.5 L 1530.0 950.5 L 1531.5 949.0 L 1528.0 946.5 L 1507.0 947.5 L 1504.5 945.0 L 1505.5 874.0 L 1504.0 872.5 L 1390.0 873.5 L 1386.0 870.5 L 1384.5 872.0 L 1384.5 945.0 L 1380.0 949.5 L 1214.0 951.5 L 1210.5 950.0 L 1210.5 944.0 L 1207.0 943.5 L 1206.5 948.0 L 1203.0 951.5 L 1149.0 951.5 L 1147.5 953.0 L 1148.0 955.5 L 1275.0 954.5 L 1277.5 957.0 L 1277.5 970.0 L 1276.0 972.5 L 1273.5 971.0 L 1274.5 959.0 L 1273.0 957.5 L 1144.0 958.5 L 1142.5 951.0 L 1145.0 948.5 L 1202.0 947.5 L 1203.5 946.0 L 1202.0 942.5 L 1191.0 942.5 L 1189.5 941.0 L 1191.5 932.0 L 1198.5 925.0 L 1191.5 916.0 L 1189.5 907.0 L 1192.0 904.5 L 1201.0 904.5 L 1203.5 900.0 L 1194.0 898.5 L 1107.0 900.5 L 1104.5 898.0 L 1104.5 872.0 L 1106.0 870.5 L 1124.5 870.0 L 1121.5 862.0 L 1116.0 857.5 L 1110.0 857.5 L 1109.5 854.0 L 1119.0 850.5 L 1123.5 845.0 L 1124.5 840.0 L 1122.0 838.5 L 1105.0 838.5 L 1104.5 822.0 L 1102.0 818.5 L 1090.0 818.5 L 1088.5 820.0 L 1088.5 830.0 L 1086.0 832.5 L 1077.0 830.5 L 1070.0 822.5 L 1062.0 830.5 L 1051.0 832.5 L 1049.5 830.0 L 1050.5 822.0 L 1049.0 819.5 L 1045.0 818.5 L 1042.5 822.0 L 1043.5 829.0 L 1041.0 832.5 L 1034.0 832.5 L 1023.0 823.5 L 1015.0 831.5 L 1006.0 833.5 L 1004.5 832.0 L 1004.5 822.0 L 1003.0 820.5 L 994.0 820.5 L 992.5 822.0 L 993.5 864.0 L 989.0 867.5 L 933.0 867.5 L 931.5 866.0 L 931.5 823.0 L 930.0 821.5 L 916.0 821.5 L 913.0 834.5 L 907.0 834.5 L 895.0 825.5 L 889.0 832.5 L 880.0 835.5 L 876.5 834.0 L 876.5 823.0 L 874.0 821.5 L 869.5 823.0 L 869.5 831.0 L 867.0 835.5 L 858.0 833.5 L 851.0 826.5 L 838.0 835.5 L 832.0 835.5 L 830.5 824.0 L 821.0 822.5 L 818.5 825.0 L 821.5 951.0 L 820.0 952.5 L 814.0 952.5 L 811.5 950.0 L 808.5 824.0 L 806.0 822.5 L 776.0 822.5 L 774.5 824.0 L 774.5 836.0 L 771.0 838.5 L 727.0 839.5 L 702.0 838.5 L 701.5 827.0 L 699.0 823.5 L 669.0 824.5 L 667.5 826.0 L 670.5 952.0 L 666.0 954.5 L 550.0 955.5 L 548.5 954.0 L 544.5 862.0 L 550.0 859.5 L 554.0 860.5 L 555.5 863.0 L 556.5 912.0 L 559.0 917.5 L 570.5 917.0 L 570.5 905.0 L 576.0 898.5 L 581.0 900.5 L 588.0 898.5 L 594.0 900.5 L 603.0 898.5 L 607.0 901.5 L 612.0 898.5 L 619.0 900.5 L 623.0 898.5 L 639.0 898.5 L 643.5 902.0 L 644.5 915.0 L 646.0 916.5 L 657.0 916.5 L 659.5 914.0 L 656.5 826.0 L 655.0 824.5 L 643.0 824.5 L 640.0 836.5 L 570.0 837.5 L 566.0 825.5 L 518.0 826.5 L 521.5 955.0 L 514.0 956.5 L 511.5 954.0 L 510.0 930.5 L 496.0 930.5 L 494.5 932.0 L 495.5 941.0 L 492.0 944.5 L 483.0 942.5 L 478.0 935.5 L 475.0 935.5 L 466.0 943.5 L 459.0 944.5 L 457.5 943.0 L 457.5 933.0 L 455.0 930.5 L 443.0 930.5 L 441.5 939.0 L 443.5 974.0 L 439.0 977.5 L 425.0 977.5 L 423.5 979.0 L 425.5 984.0 L 431.0 989.5 L 438.5 992.0 L 436.0 995.5 L 431.0 996.5 L 426.5 1001.0 L 425.5 1007.0 L 427.0 1008.5 L 443.0 1007.5 L 444.5 1009.0 L 441.0 1012.5 L 429.0 1010.5 L 426.5 1012.0 L 426.5 1016.0 L 433.0 1022.5 L 440.5 1025.0 L 440.0 1027.5 L 429.5 1033.0 L 427.5 1041.0 L 446.5 1043.0 L 448.5 1064.0 L 445.0 1068.5 L 430.0 1068.5 L 428.5 1070.0 L 434.0 1078.5 L 443.5 1083.0 L 441.0 1086.5 L 432.5 1090.0 L 429.5 1098.0 L 431.0 1099.5 L 447.0 1098.5 L 449.5 1101.0 L 451.5 1164.0 L 447.0 1167.5 L 435.0 1166.5 L 432.5 1170.0 L 436.0 1176.5 L 446.5 1182.0 L 434.5 1191.0 L 433.5 1197.0 L 436.0 1198.5 L 451.0 1197.5 L 452.5 1199.0 L 454.5 1261.0 L 448.0 1264.5 L 435.0 1264.5 L 434.5 1267.0 L 440.0 1274.5 L 449.5 1278.0 L 436.5 1288.0 L 435.5 1293.0 L 438.0 1294.5 L 454.0 1293.5 L 455.5 1295.0 L 456.5 1360.0 L 455.0 1361.5 L 440.0 1361.5 L 438.5 1365.0 L 445.0 1372.5 L 452.5 1376.0 L 451.0 1378.5 L 441.5 1383.0 L 439.5 1390.0 L 441.0 1391.5 L 457.0 1391.5 L 458.5 1394.0 L 459.5 1454.0 L 457.0 1456.5 L 443.0 1455.5 L 440.5 1458.0 L 441.5 1462.0 L 446.0 1466.5 L 455.5 1470.0 L 442.5 1480.0 L 441.5 1485.0 L 444.0 1486.5 L 458.0 1485.5 L 461.5 1490.0 L 463.5 1583.0 L 466.5 1632.0 L 468.0 1633.5 L 540.0 1632.5 L 542.5 1635.0 L 543.5 1668.0 L 540.0 1671.5 L 528.0 1670.5 L 525.5 1676.0 L 532.0 1682.5 L 541.0 1684.5 L 543.0 1682.5 L 555.0 1682.5 L 558.5 1685.0 L 556.0 1690.5 L 544.0 1690.5 L 537.0 1687.5 L 531.0 1690.5 L 525.5 1697.0 L 527.0 1701.5 L 542.0 1701.5 L 544.5 1707.0 L 543.5 1727.0 L 537.0 1728.5 L 528.0 1727.5 L 526.5 1729.0 L 529.5 1736.0 L 540.5 1743.0 L 532.0 1747.5 L 527.5 1752.0 L 526.5 1757.0 L 530.0 1758.5 L 540.0 1757.5 L 544.5 1760.0 L 545.5 1787.0 L 547.0 1788.5 L 689.0 1789.5 L 697.0 1778.5 L 704.0 1774.5 L 708.0 1774.5 L 711.5 1778.0 L 711.5 1788.0 L 713.0 1789.5 L 757.0 1789.5 L 759.5 1788.0 L 757.5 1727.0 L 760.0 1719.5 L 841.0 1719.5 L 843.5 1721.0 L 844.5 1787.0 L 846.0 1789.5 L 850.0 1789.5 L 852.5 1787.0 L 851.5 1721.0 L 853.0 1719.5 L 936.0 1719.5 L 938.5 1745.0 L 937.5 1799.0 L 936.0 1800.5 L 782.0 1798.5 L 710.0 1799.5 L 706.5 1798.0 L 707.5 1782.0 L 706.0 1779.5 L 700.0 1781.5 L 696.5 1785.0 L 693.5 1798.0 L 691.0 1799.5 L 513.0 1797.5 L 501.0 1810.5 L 492.5 1810.0 L 492.5 1800.0 L 490.0 1797.5 L 132.0 1795.5 L 118.0 1794.5 L 115.5 1792.0 L 115.5 1788.0 L 119.0 1783.5 L 355.0 1785.5 L 452.0 1788.5 L 458.5 1785.0 L 457.5 1763.0 L 455.0 1760.5 L 448.0 1761.5 L 445.5 1759.0 L 445.5 1753.0 L 453.5 1741.0 L 447.5 1736.0 L 444.5 1728.0 L 446.0 1723.5 L 453.0 1724.5 L 457.5 1722.0 L 456.5 1706.0 L 444.5 1703.0 L 444.5 1698.0 L 447.5 1692.0 L 453.5 1687.0 L 453.5 1684.0 L 443.5 1674.0 L 443.5 1670.0 L 446.0 1667.5 L 452.0 1668.5 L 456.5 1665.0 L 454.5 1649.0 L 450.5 1492.0 L 448.0 1489.5 L 438.0 1489.5 L 436.5 1488.0 L 436.5 1483.0 L 444.5 1472.0 L 444.5 1469.0 L 438.5 1464.0 L 435.5 1458.0 L 438.0 1452.5 L 445.0 1453.5 L 448.5 1452.0 L 447.5 1396.0 L 434.5 1393.0 L 435.5 1386.0 L 442.5 1375.0 L 433.5 1366.0 L 435.0 1358.5 L 443.0 1358.5 L 445.5 1356.0 L 444.5 1299.0 L 443.0 1297.5 L 430.5 1297.0 L 431.5 1289.0 L 439.5 1278.0 L 432.5 1272.0 L 429.5 1266.0 L 432.0 1260.5 L 442.0 1260.5 L 443.5 1258.0 L 441.5 1202.0 L 428.5 1200.0 L 429.5 1192.0 L 437.5 1181.0 L 430.5 1175.0 L 427.5 1166.0 L 430.0 1163.5 L 439.0 1163.5 L 440.5 1153.0 L 438.5 1105.0 L 437.0 1102.5 L 427.0 1102.5 L 425.5 1101.0 L 425.5 1094.0 L 433.5 1083.0 L 426.5 1076.0 L 424.5 1066.0 L 436.5 1063.0 L 436.5 1047.0 L 434.0 1044.5 L 426.0 1045.5 L 422.5 1043.0 L 424.5 1034.0 L 430.5 1025.0 L 423.5 1018.0 L 420.5 1011.0 L 421.5 1002.0 L 428.5 992.0 L 419.5 983.0 L 420.0 974.5 L 431.5 973.0 L 431.5 962.0 L 430.0 960.5 L 73.0 965.5 L 68.5 963.0 L 65.5 908.0 L 64.0 906.5 L 54.0 906.5 L 51.5 903.0 L 59.5 886.0 L 51.5 877.0 L 50.5 870.0 L 59.0 868.5 L 62.5 866.0 L 63.5 856.0 L 60.5 814.0 L 53.5 590.0 L 51.0 586.5 L 39.5 584.0 L 40.5 575.0 L 47.5 566.0 L 42.5 562.0 L 37.5 553.0 L 39.0 547.5 L 48.0 547.5 L 50.5 545.0 L 50.5 532.0 L 48.0 524.5 L 37.0 524.5 L 34.5 521.0 L 37.5 511.0 L 47.5 501.0 L 37.5 339.0 L 40.0 336.5 L 100.0 335.5 L 106.0 334.5 L 108.5 332.0 L 107.0 324.5 L 95.0 323.5 L 93.5 321.0 L 95.5 312.0 L 102.5 304.0 L 92.5 292.0 L 94.0 285.5 L 105.0 284.5 L 106.5 282.0 L 99.5 86.0 L 102.0 83.5 L 204.0 81.5 L 302.0 76.5 L 337.0 76.5 L 352.0 74.5 L 424.0 73.5 L 436.0 71.5 L 657.0 66.5 L 660.5 64.0 L 662.5 59.0 L 673.0 50.5 L 678.0 50.5 L 680.5 53.0 L 682.0 65.5 L 800.0 61.5 L 812.0 62.5 L 817.5 61.0 L 817.5 48.0 L 820.0 46.5 L 830.0 48.5 L 842.0 61.5 L 940.0 57.5 L 992.0 57.5 L 994.5 55.0 L 994.5 44.0 L 997.0 41.5 L 1007.0 43.5 L 1014.0 51.5 L 1023.0 43.5 L 1034.0 41.5 L 1035.5 43.0 L 1034.5 54.0 L 1039.0 57.5 L 1042.5 54.0 L 1042.5 43.0 L 1045.0 40.5 L 1056.0 43.5 L 1062.0 50.5 L 1076.0 39.5 L 1082.5 41.0 L 1082.5 54.0 L 1084.0 55.5 L 1230.0 52.5 L 1242.0 38.5 L 1249.0 36.5 L 1253.5 38.0 L 1253.5 51.0 L 1255.0 52.5 L 1376.0 49.5 L 1378.5 47.0 L 1378.5 36.0 L 1380.0 34.5 L 1388.0 34.5 L 1394.0 38.5 L 1396.5 44.0 L 1403.0 49.5 L 1427.0 47.5 L 1608.0 44.5 L 1611.5 46.0 L 1611.5 235.0 L 1610.0 236.5 L 1607.5 233.0 L 1608.5 170.0 L 1606.5 126.0 L 1607.5 58.0 L 1606.0 55.5 L 1603.5 57.0 L 1604.5 86.0 L 1602.5 91.0 L 1604.5 98.0 L 1603.5 192.0 L 1600.0 194.5 L 1554.0 195.5 L 1549.5 198.0 L 1550.0 200.5 L 1575.0 198.5 L 1603.0 200.5 L 1604.5 208.0 L 1603.5 233.0 L 1598.5 238.0 L 1600.5 242.0 L 1599.0 243.5 L 1596.5 240.0 L 1597.5 225.0 L 1596.0 221.5 L 1590.0 223.5 L 1582.5 230.0 L 1580.5 242.0 L 1578.0 244.5 L 1456.0 248.5 L 1401.0 248.5 L 1114.0 256.5 L 1111.5 243.0 L 1104.0 235.5 L 1100.0 234.5 L 1097.5 237.0 L 1097.5 254.0 L 1095.0 256.5 L 1086.0 257.5 L 1082.5 255.0 L 1081.5 68.0 L 1077.5 63.0 L 1078.5 45.0 L 1075.0 44.5 L 1068.5 49.0 L 1063.0 61.5 L 1059.5 59.0 L 1059.5 53.0 L 1054.0 46.5 L 1048.0 45.5 L 1045.5 51.0 L 1046.5 61.0 L 1043.0 67.5 L 1033.0 67.5 L 1031.5 66.0 L 1031.5 46.0 L 1028.0 45.5 L 1019.5 52.0 L 1015.0 62.5 L 1012.5 62.0 L 1012.5 56.0 L 1005.0 46.5 L 1000.0 46.5 L 998.5 49.0 L 996.5 89.0 L 999.5 255.0 L 994.0 259.5 L 985.0 259.5 L 980.5 256.0 L 981.5 238.0 L 978.0 236.5 L 967.5 246.0 L 965.5 258.0 L 957.0 260.5 L 941.0 259.5 L 876.0 262.5 L 526.0 269.5 L 519.5 253.0 L 510.0 247.5 L 509.5 268.0 L 508.0 269.5 L 216.0 275.5 L 118.0 279.5 L 116.5 285.0 L 113.0 287.5 L 98.0 288.5 L 97.5 294.0 L 103.0 299.5 L 111.5 304.0 L 110.0 306.5 L 101.5 310.0 L 98.5 315.0 L 98.5 320.0 L 110.0 319.5 L 117.0 321.5 L 120.0 334.5 L 166.0 332.5 L 207.0 333.5 L 214.5 330.0 L 214.5 320.0 L 217.0 317.5 L 224.0 318.5 L 229.0 321.5 L 237.0 331.5 L 395.0 327.5 L 417.0 328.5 L 418.5 332.0 L 422.5 436.0 L 421.0 437.5 L 411.5 436.0 L 410.5 408.0 L 408.0 402.5 L 381.0 402.5 L 379.5 405.0 L 380.5 416.0 L 371.0 419.5 L 324.0 418.5 L 308.0 420.5 L 305.5 416.0 L 305.5 406.0 L 304.0 404.5 L 252.0 405.5 L 250.5 407.0 L 253.5 459.0 L 273.5 461.0 L 252.0 463.5 L 249.5 459.0 L 247.5 404.0 L 249.0 402.5 L 361.0 399.5 L 382.0 400.5 L 409.0 398.5 L 413.5 403.0 L 414.5 431.0 L 418.0 433.5 L 418.5 405.0 L 415.5 371.0 L 415.5 342.0 L 413.0 331.5 L 269.0 333.5 L 238.0 335.5 L 241.5 352.0 L 243.5 420.0 L 246.5 454.0 L 245.5 462.0 L 239.0 463.5 L 222.0 463.5 L 219.5 461.0 L 215.5 405.0 L 214.0 335.5 L 120.0 338.5 L 115.5 336.0 L 115.5 326.0 L 112.0 324.5 L 111.5 335.0 L 109.0 337.5 L 43.0 340.5 L 41.5 349.0 L 46.5 431.0 L 53.0 501.5 L 54.5 501.0 L 51.5 455.0 L 54.0 451.5 L 213.0 448.5 L 215.5 456.0 L 215.5 465.0 L 218.0 468.5 L 243.0 466.5 L 246.5 469.0 L 250.5 523.0 L 247.0 527.5 L 59.0 531.5 L 57.5 527.0 L 54.0 525.5 L 53.5 542.0 L 55.0 545.5 L 57.5 544.0 L 57.5 538.0 L 60.0 534.5 L 168.0 533.5 L 246.0 530.5 L 372.0 530.5 L 389.0 528.5 L 416.0 528.5 L 419.5 531.0 L 420.5 540.0 L 423.0 540.5 L 423.5 514.0 L 421.0 490.5 L 417.5 492.0 L 418.5 523.0 L 417.0 524.5 L 255.0 527.5 L 253.5 525.0 L 250.5 470.0 L 256.0 466.5 L 357.0 466.5 L 364.0 464.5 L 381.0 465.5 L 383.5 470.0 L 383.5 482.0 L 385.0 483.5 L 387.5 482.0 L 385.5 444.0 L 384.0 441.5 L 381.5 445.0 L 382.5 458.0 L 375.0 461.5 L 349.0 460.5 L 278.0 462.5 L 276.5 461.0 L 278.5 458.0 L 277.5 445.0 L 282.0 440.5 L 292.0 442.5 L 297.0 439.5 L 302.0 441.5 L 308.0 439.5 L 314.0 441.5 L 324.0 439.5 L 326.0 441.5 L 331.0 439.5 L 338.0 441.5 L 349.0 439.5 L 353.5 445.0 L 353.5 457.0 L 355.0 458.5 L 377.0 457.5 L 378.5 456.0 L 378.5 440.0 L 382.0 437.5 L 386.0 438.5 L 388.5 441.0 L 390.5 486.0 L 389.0 487.5 L 383.0 488.5 L 380.5 486.0 L 379.0 468.5 L 356.0 467.5 L 353.5 471.0 L 354.5 482.0 L 349.0 487.5 L 343.0 485.5 L 334.0 487.5 L 332.0 485.5 L 321.0 487.5 L 316.0 485.5 L 314.0 487.5 L 303.0 486.5 L 300.0 488.5 L 294.0 485.5 L 288.0 488.5 L 283.0 487.5 L 279.5 483.0 L 278.0 468.5 L 256.0 469.5 L 254.5 471.0 L 256.5 518.0 L 260.0 524.5 L 292.0 522.5 L 309.0 523.5 L 311.5 521.0 L 311.5 512.0 L 313.0 510.5 L 329.0 510.5 L 327.5 522.0 L 330.0 523.5 L 332.5 522.0 L 331.5 512.0 L 336.0 509.5 L 383.0 509.5 L 385.5 513.0 L 387.0 522.5 L 414.0 521.5 L 414.5 488.0 L 423.0 486.5 L 425.5 489.0 L 427.5 541.0 L 439.0 541.5 L 440.5 543.0 L 440.5 549.0 L 431.5 561.0 L 440.5 570.0 L 441.5 579.0 L 429.5 581.0 L 438.5 865.0 L 440.0 866.5 L 450.0 865.5 L 452.5 868.0 L 452.5 874.0 L 443.5 886.0 L 451.5 893.0 L 453.5 903.0 L 439.5 906.0 L 440.5 917.0 L 443.0 921.5 L 458.0 920.5 L 460.5 923.0 L 460.5 939.0 L 462.0 940.5 L 470.5 935.0 L 474.0 925.5 L 477.5 927.0 L 479.5 934.0 L 483.0 937.5 L 490.0 939.5 L 491.5 938.0 L 490.5 923.0 L 493.0 920.5 L 507.0 920.5 L 510.5 918.0 L 504.5 803.0 L 504.5 761.0 L 502.0 754.5 L 492.0 754.5 L 490.5 753.0 L 490.5 747.0 L 498.5 734.0 L 490.5 726.0 L 489.5 719.0 L 491.0 716.5 L 501.0 716.5 L 502.5 714.0 L 501.5 690.0 L 490.0 690.5 L 487.5 687.0 L 488.5 680.0 L 495.5 672.0 L 495.5 669.0 L 486.5 657.0 L 486.5 653.0 L 489.0 650.5 L 499.0 650.5 L 500.5 649.0 L 498.5 581.0 L 485.5 578.0 L 486.5 569.0 L 493.5 559.0 L 484.5 549.0 L 486.0 540.5 L 495.0 540.5 L 497.5 537.0 L 488.5 327.0 L 491.0 324.5 L 823.0 318.5 L 826.0 304.5 L 834.0 305.5 L 844.0 313.5 L 852.0 305.5 L 858.0 303.5 L 863.5 305.0 L 863.5 316.0 L 869.0 318.5 L 870.5 305.0 L 874.0 302.5 L 882.0 304.5 L 889.0 313.5 L 891.0 313.5 L 901.0 303.5 L 908.0 302.5 L 909.5 304.0 L 909.5 315.0 L 912.0 317.5 L 995.0 315.5 L 998.5 313.0 L 997.5 304.0 L 1001.0 300.5 L 1009.0 301.5 L 1018.0 310.5 L 1026.0 302.5 L 1035.0 299.5 L 1037.5 301.0 L 1038.5 314.0 L 1042.0 315.5 L 1044.5 313.0 L 1044.5 302.0 L 1047.0 299.5 L 1058.0 302.5 L 1065.0 309.5 L 1072.0 301.5 L 1083.0 297.5 L 1085.5 302.0 L 1084.5 312.0 L 1086.0 313.5 L 1326.0 307.5 L 1327.5 310.0 L 1324.5 769.0 L 1325.5 862.0 L 1323.0 865.5 L 1309.0 870.5 L 1303.5 877.0 L 1303.5 880.0 L 1306.0 881.5 L 1324.0 881.5 L 1325.5 892.0 L 1323.0 897.5 L 1215.0 898.5 L 1213.5 905.0 L 1209.0 908.5 L 1195.0 907.5 L 1193.5 909.0 L 1195.5 915.0 L 1200.0 919.5 L 1208.5 923.0 L 1207.0 925.5 L 1197.5 930.0 L 1193.5 939.0 L 1211.0 939.5 L 1213.5 941.0 L 1214.0 947.5 L 1379.0 945.5 L 1381.5 942.0 L 1380.5 869.0 L 1383.0 866.5 L 1399.0 866.5 L 1400.5 865.0 L 1399.5 861.0 L 1393.0 854.5 L 1384.5 852.0 L 1386.0 848.5 L 1392.0 847.5 L 1397.5 843.0 L 1400.5 835.0 L 1383.0 835.5 L 1380.5 833.0 L 1380.5 706.0 L 1382.5 667.0 L 1381.5 631.0 L 1384.5 531.0 L 1385.5 393.0 L 1384.0 391.5 L 1373.0 391.5 L 1370.5 390.0 L 1370.5 387.0 L 1375.5 376.0 L 1386.5 367.0 L 1385.5 303.0 L 1390.0 299.5 L 1398.0 299.5 L 1400.5 286.0 L 1406.0 284.5 L 1413.0 288.5 L 1423.0 299.5 L 1461.0 298.5 L 1462.5 305.0 L 1460.5 310.0 L 1460.5 319.0 L 1465.0 319.5 L 1473.5 312.0 L 1476.5 301.0 L 1481.0 297.5 L 1599.0 294.5 L 1600.5 288.0 L 1603.0 285.5 L 1620.0 284.5 L 1621.5 279.0 L 1619.5 275.0 L 1622.0 274.5 L 1625.5 281.0 L 1624.5 288.0 L 1613.0 289.5 L 1610.0 293.5 L 1608.0 290.5 L 1605.0 290.5 L 1604.5 295.0 L 1602.0 297.5 L 1505.0 301.5 L 1489.0 300.5 L 1483.0 301.5 L 1480.5 304.0 L 1481.0 305.5 L 1553.5 304.0 L 1554.5 389.0 L 1551.0 392.5 L 1449.0 395.5 L 1447.5 389.0 L 1449.5 342.0 L 1448.5 310.0 L 1450.0 307.5 L 1456.0 305.5 L 1457.5 302.0 L 1432.0 301.5 L 1421.5 304.0 L 1423.0 307.5 L 1443.0 306.5 L 1444.5 308.0 L 1444.5 345.0 L 1442.0 348.5 L 1438.0 349.5 L 1394.0 349.5 L 1393.5 312.0 L 1400.5 304.0 L 1392.0 303.5 L 1389.5 306.0 L 1389.5 366.0 L 1393.5 366.0 L 1393.5 357.0 L 1396.0 354.5 L 1444.0 354.5 L 1444.5 393.0 L 1439.0 396.5 L 1395.0 396.5 L 1393.0 390.5 L 1388.5 393.0 L 1384.5 830.0 L 1402.0 827.5 L 1567.0 824.5 L 1594.0 824.5 L 1601.0 826.5 L 1603.5 823.0 L 1602.0 810.5 L 1599.5 812.0 L 1599.5 817.0 L 1596.0 820.5 L 1482.0 821.5 L 1480.5 820.0 L 1480.5 789.0 L 1485.0 779.5 L 1474.0 779.5 L 1472.5 781.0 L 1476.5 785.0 L 1476.5 820.0 L 1472.0 822.5 L 1448.0 822.5 L 1446.5 821.0 L 1446.5 786.0 L 1450.0 780.5 L 1388.5 780.0 L 1390.5 628.0 L 1392.0 626.5 L 1597.0 621.5 L 1601.5 625.0 L 1600.5 686.0 L 1603.5 687.0 L 1606.5 591.0 L 1606.5 542.0 L 1605.0 540.5 L 1602.5 542.0 L 1601.5 614.0 L 1597.0 617.5 L 1391.5 622.0 L 1391.5 518.0 L 1394.0 514.5 L 1597.0 508.5 L 1602.5 511.0 L 1604.0 516.5 L 1607.5 515.0 L 1607.5 499.0 L 1606.0 496.5 L 1604.0 496.5 L 1601.5 502.0 L 1598.0 504.5 L 1393.0 509.5 L 1391.5 489.0 L 1393.5 403.0 L 1397.0 400.5 L 1601.0 395.5 L 1603.5 398.0 L 1602.5 471.0 L 1605.0 472.5 L 1606.5 471.0 L 1607.5 456.0 L 1607.5 305.0 L 1610.0 295.5 L 1612.5 341.0 L 1609.5 471.0 L 1611.0 474.5 L 1616.0 475.5 L 1621.5 480.0 L 1625.5 493.0 L 1612.0 495.5 L 1609.5 498.0 L 1609.5 515.0 L 1611.0 516.5 L 1623.0 516.5 L 1624.5 523.0 L 1621.5 530.0 L 1609.5 540.0 L 1609.5 615.0 L 1606.5 686.0 L 1608.0 687.5 L 1621.0 687.5 L 1622.5 691.0 L 1620.5 698.0 L 1611.0 709.5 L 1603.0 710.5 L 1600.5 708.0 L 1602.0 705.5 L 1610.0 703.5 L 1616.5 697.0 L 1617.5 692.0 L 1598.0 691.5 L 1595.5 689.0 L 1597.5 663.0 L 1597.5 627.0 L 1596.0 625.5 L 1397.0 629.5 L 1394.5 631.0 L 1393.5 635.0 L 1392.5 776.0 L 1394.0 777.5 L 1449.0 776.5 L 1456.0 766.5 L 1461.0 762.5 L 1468.0 760.5 L 1471.5 762.0 L 1474.0 776.5 L 1485.0 775.5 L 1487.5 773.0 L 1486.5 764.0 L 1489.0 761.5 L 1501.0 764.5 L 1510.0 775.5 L 1594.0 773.5 L 1599.0 764.5 L 1614.0 764.5 L 1616.5 763.0 L 1616.5 759.0 L 1611.0 752.5 L 1598.0 750.5 L 1595.5 748.0 L 1596.5 725.0 L 1617.0 722.5 L 1618.5 719.0 L 1611.5 710.0 L 1616.0 710.5 L 1619.5 715.0 L 1621.5 725.0 L 1607.5 728.0 L 1607.5 747.0 L 1616.5 752.0 L 1620.5 758.0 L 1621.5 765.0 L 1619.0 767.5 L 1606.5 770.0 L 1606.5 788.0 L 1619.5 797.0 L 1621.5 808.0 L 1618.0 810.5 L 1607.0 811.5 L 1605.5 817.0 L 1608.0 827.5 L 1620.0 827.5 L 1621.5 829.0 L 1618.5 839.0 L 1611.5 846.0 L 1619.5 856.0 L 1620.5 864.0 L 1618.0 866.5 L 1608.0 866.5 L 1605.5 869.0 L 1606.5 921.0 L 1603.5 1078.0 L 1610.0 1081.5 L 1617.5 1089.0 L 1618.5 1099.0 L 1605.0 1099.5 L 1603.5 1101.0 L 1602.5 1156.0 L 1605.0 1158.5 L 1660.0 1158.5 L 1663.5 1154.0 L 1662.5 1147.0 L 1664.0 1144.5 L 1669.0 1144.5 L 1680.0 1151.5 L 1684.0 1151.5 L 1695.0 1144.5 L 1701.0 1144.5 L 1702.5 1147.0 L 1701.5 1156.0 L 1703.0 1157.5 L 1718.0 1157.5 L 1719.5 1156.0 L 1719.5 1145.0 L 1724.0 1144.5 L 1735.0 1149.5 L 1741.0 1157.5 L 1822.0 1157.5 L 1824.5 1161.0 L 1822.5 1216.0 L 1823.5 1291.0 L 1821.5 1419.0 L 1816.5 1550.0 L 1814.5 1796.0 Z"/>
    <path d="M 1093.5 232.0 L 1102.0 230.5 L 1107.0 232.5 L 1116.0 244.5 L 1219.0 241.5 L 1220.5 240.0 L 1220.5 176.0 L 1223.0 173.5 L 1242.0 173.5 L 1254.5 171.0 L 1254.5 99.0 L 1257.0 95.5 L 1264.0 95.5 L 1265.5 97.0 L 1265.5 133.0 L 1272.5 135.0 L 1264.0 136.5 L 1262.5 134.0 L 1262.5 99.0 L 1261.0 98.5 L 1258.5 102.0 L 1258.5 172.0 L 1254.0 176.5 L 1226.0 177.5 L 1223.5 180.0 L 1223.5 244.0 L 1201.0 246.5 L 1118.0 247.5 L 1117.0 253.5 L 1576.0 240.5 L 1577.5 237.0 L 1571.0 235.5 L 1516.0 238.5 L 1373.0 241.5 L 1371.5 233.0 L 1372.5 221.0 L 1370.0 219.5 L 1367.5 222.0 L 1367.5 240.0 L 1365.0 241.5 L 1230.0 245.5 L 1227.5 243.0 L 1227.5 186.0 L 1232.0 180.5 L 1258.0 180.5 L 1261.5 179.0 L 1262.5 145.0 L 1265.0 141.5 L 1270.0 141.5 L 1270.5 143.0 L 1265.5 148.0 L 1265.5 182.0 L 1234.0 184.5 L 1231.5 187.0 L 1232.0 222.5 L 1361.0 219.5 L 1369.0 215.5 L 1375.5 218.0 L 1376.0 237.5 L 1576.0 232.5 L 1587.0 220.5 L 1597.0 218.5 L 1600.5 216.0 L 1601.5 204.0 L 1600.0 202.5 L 1546.0 203.5 L 1544.5 194.0 L 1546.0 192.5 L 1597.0 191.5 L 1599.5 189.0 L 1601.5 128.0 L 1599.5 80.0 L 1601.5 57.0 L 1593.0 55.5 L 1399.0 60.5 L 1395.5 59.0 L 1396.5 48.0 L 1390.0 39.5 L 1384.0 39.5 L 1381.5 42.0 L 1381.5 56.0 L 1375.5 63.0 L 1375.5 161.0 L 1371.0 165.5 L 1363.5 164.0 L 1365.0 156.5 L 1328.0 156.5 L 1328.5 146.0 L 1326.0 142.5 L 1321.0 142.5 L 1316.5 145.0 L 1317.5 157.0 L 1312.0 163.5 L 1309.0 164.5 L 1304.0 161.5 L 1295.0 164.5 L 1291.0 161.5 L 1283.0 164.5 L 1277.5 160.0 L 1276.5 143.0 L 1289.0 140.5 L 1365.0 139.5 L 1367.5 142.0 L 1366.5 159.0 L 1371.0 160.5 L 1372.5 157.0 L 1371.5 69.0 L 1372.5 60.0 L 1376.5 56.0 L 1376.0 52.5 L 1282.0 53.5 L 1256.0 55.5 L 1254.5 57.0 L 1255.0 59.5 L 1324.0 57.5 L 1367.0 58.5 L 1368.5 60.0 L 1367.5 133.0 L 1366.0 134.5 L 1274.5 136.0 L 1277.5 133.0 L 1278.5 119.0 L 1284.0 114.5 L 1301.0 114.5 L 1305.5 121.0 L 1303.5 131.0 L 1306.0 133.5 L 1315.0 133.5 L 1320.5 130.0 L 1320.5 115.0 L 1324.0 112.5 L 1362.0 111.5 L 1364.5 109.0 L 1364.0 60.5 L 1313.0 61.5 L 1310.5 65.0 L 1309.0 74.5 L 1272.0 75.5 L 1271.0 62.5 L 1251.0 63.5 L 1249.5 62.0 L 1249.5 42.0 L 1245.0 41.5 L 1236.5 50.0 L 1235.5 60.0 L 1231.0 63.5 L 1094.0 66.5 L 1092.5 68.0 L 1093.5 203.0 L 1097.0 204.5 L 1148.0 202.5 L 1149.5 209.0 L 1146.0 213.5 L 1095.0 214.5 L 1093.5 217.0"/>
    <path d="M 1400.5 56.0 L 1549.0 52.5 L 1600.0 52.5 L 1605.0 54.5 L 1608.5 53.0 L 1608.5 50.0 L 1607.0 48.5 L 1551.0 48.5 L 1479.0 51.5 L 1404.0 51.5"/>
    <path d="M 987.5 246.0 L 988.5 237.0 L 987.5 219.0 L 986.0 217.5 L 934.0 218.5 L 932.5 217.0 L 932.5 210.0 L 937.0 206.5 L 984.0 206.5 L 987.5 204.0 L 985.0 68.5 L 839.0 72.5 L 836.5 70.0 L 833.5 57.0 L 827.0 51.5 L 823.0 50.5 L 821.5 52.0 L 821.5 71.0 L 820.0 72.5 L 806.0 72.5 L 803.5 75.0 L 802.0 85.5 L 748.0 87.5 L 745.5 84.0 L 745.0 74.5 L 712.0 74.5 L 696.5 77.0 L 697.5 126.0 L 701.0 127.5 L 709.0 125.5 L 741.0 125.5 L 743.5 132.0 L 742.5 143.0 L 745.0 146.5 L 750.5 144.0 L 750.5 131.0 L 757.0 125.5 L 762.0 127.5 L 770.0 125.5 L 777.0 128.5 L 781.0 125.5 L 790.0 127.5 L 796.0 124.5 L 802.5 131.0 L 801.5 143.0 L 805.0 144.5 L 806.5 142.0 L 805.5 109.0 L 808.0 105.5 L 816.5 107.0 L 817.5 143.0 L 819.0 144.5 L 839.0 143.5 L 840.5 147.0 L 842.5 248.0 L 844.0 250.5 L 963.0 247.5 L 966.5 241.0 L 976.0 233.5 L 984.5 235.0 L 984.5 246.0 Z"/>
    <path d="M 502.5 256.0 L 505.5 258.0 L 506.5 245.0 L 509.0 243.5 L 517.0 245.5 L 528.0 258.5 L 589.0 255.5 L 688.0 254.5 L 690.5 253.0 L 689.5 235.0 L 693.0 231.5 L 702.0 234.5 L 830.0 231.5 L 831.5 230.0 L 829.5 154.0 L 818.0 153.5 L 816.5 155.0 L 817.5 166.0 L 815.5 171.0 L 810.0 174.5 L 805.0 172.5 L 795.0 174.5 L 793.0 172.5 L 787.0 174.5 L 780.0 172.5 L 769.0 174.5 L 764.5 168.0 L 764.5 156.0 L 754.0 154.5 L 751.0 169.5 L 700.0 171.5 L 696.0 180.5 L 689.0 180.5 L 687.5 178.0 L 685.5 80.0 L 684.0 75.5 L 680.0 76.5 L 677.5 74.0 L 676.5 56.0 L 675.0 54.5 L 665.5 61.0 L 662.0 76.5 L 497.0 81.5 L 495.5 83.0 L 501.5 216.0 L 503.0 217.5 L 554.0 215.5 L 556.5 222.0 L 555.5 226.0 L 553.0 227.5 L 504.0 227.5 L 501.5 231.0"/>
    <path d="M 1087.0 253.5 L 1093.5 252.0 L 1090.5 243.0 L 1089.5 216.0 L 1092.0 211.5 L 1142.0 210.5 L 1143.5 209.0 L 1143.0 206.5 L 1092.0 207.5 L 1090.5 206.0 L 1089.5 65.0 L 1092.0 62.5 L 1228.0 60.5 L 1231.5 58.0 L 1231.0 56.5 L 1085.0 58.5 L 1082.5 61.0 L 1084.5 66.0"/>
    <path d="M 1040.0 64.5 L 1041.5 60.0 L 1037.0 58.5 L 1035.5 63.0"/>
    <path d="M 993.0 255.5 L 995.5 253.0 L 993.5 136.0 L 994.5 62.0 L 993.0 60.5 L 842.0 64.5 L 841.0 68.5 L 984.0 64.5 L 988.5 67.0 L 990.5 207.0 L 987.0 209.5 L 939.0 210.5 L 937.5 214.0 L 989.0 213.5 L 991.5 221.0 L 991.5 247.0 L 985.5 252.0 L 985.5 255.0"/>
    <path d="M 1293.5 61.0 L 1290.0 61.5 L 1283.0 67.5 L 1280.0 67.5 L 1279.5 70.0 L 1284.0 70.5 L 1289.0 66.5 L 1289.5 71.0 L 1292.0 71.5"/>
    <path d="M 528.5 265.0 L 531.0 266.5 L 647.0 262.5 L 876.0 258.5 L 961.0 255.5 L 962.5 253.0 L 961.0 251.5 L 840.0 253.5 L 836.5 147.0 L 816.0 146.5 L 814.5 145.0 L 813.0 108.5 L 809.5 111.0 L 809.5 144.0 L 808.0 146.5 L 696.0 149.5 L 694.5 148.0 L 692.5 113.0 L 692.5 74.0 L 694.0 72.5 L 754.0 70.5 L 785.0 71.5 L 788.0 69.5 L 817.0 69.5 L 817.0 65.5 L 684.0 67.5 L 681.5 72.0 L 687.0 73.5 L 688.5 76.0 L 691.5 176.0 L 694.0 176.5 L 695.5 174.0 L 694.5 157.0 L 698.0 153.5 L 832.0 151.5 L 833.5 156.0 L 835.5 252.0 L 832.0 254.5 L 700.0 257.5 L 697.5 254.0 L 697.5 237.0 L 695.0 236.5 L 693.5 241.0 L 694.5 255.0 L 692.0 257.5 L 530.0 260.5"/>
    <path d="M 1305.5 66.0 L 1297.0 67.5 L 1296.5 70.0 L 1302.0 70.5"/>
    <path d="M 109.5 282.0 L 112.0 283.5 L 116.0 276.5 L 131.0 274.5 L 144.0 275.5 L 271.0 270.5 L 504.0 266.5 L 506.5 263.0 L 499.5 259.0 L 498.5 227.0 L 501.0 224.5 L 551.0 223.5 L 551.5 221.0 L 550.0 219.5 L 503.0 221.5 L 498.5 220.0 L 495.5 185.0 L 492.5 80.0 L 501.0 77.5 L 658.0 73.5 L 659.5 70.0 L 653.0 68.5 L 607.0 71.5 L 375.0 77.5 L 339.0 80.5 L 104.0 86.5 L 102.5 105.0 L 105.5 149.0"/>
    <path d="M 764.0 85.5 L 767.5 83.0 L 767.0 72.5 L 762.5 74.0"/>
    <path d="M 782.0 83.5 L 784.5 83.0 L 786.5 75.0 L 785.0 72.5 L 780.5 75.0 L 782.5 79.0"/>
    <path d="M 779.5 78.0 L 771.0 78.5 L 770.5 81.0 L 776.0 82.5"/>
    <path d="M 797.5 78.0 L 789.0 78.5 L 788.5 80.0 L 796.0 81.5 Z"/>
    <path d="M 760.5 79.0 L 754.0 78.5 L 751.5 81.0 L 759.0 82.5 Z"/>
    <path d="M 1340.0 132.5 L 1342.5 130.0 L 1342.5 116.0 L 1327.0 115.5 L 1323.5 120.0 L 1323.5 131.0 L 1334.0 133.5"/>
    <path d="M 1364.5 130.0 L 1364.0 115.5 L 1348.0 115.5 L 1345.5 118.0 L 1347.0 132.5 L 1358.0 132.5"/>
    <path d="M 720.5 146.0 L 739.0 145.5 L 740.5 143.0 L 739.5 130.0 L 721.0 129.5"/>
    <path d="M 716.5 145.0 L 716.5 131.0 L 715.0 129.5 L 699.0 129.5 L 697.5 131.0 L 697.5 145.0 L 699.0 146.5 L 715.0 146.5 Z"/>
    <path d="M 1350.5 144.0 L 1347.0 143.5 L 1343.0 147.5 L 1336.0 148.5 L 1333.5 152.0 L 1340.0 152.5 L 1345.0 148.5 L 1345.5 152.0 L 1348.0 152.5"/>
    <path d="M 1361.5 148.0 L 1354.0 148.5 L 1352.5 151.0 L 1359.0 151.5"/>
    <path d="M 715.0 168.5 L 716.0 157.5 L 711.5 159.0 L 712.5 167.0 Z"/>
    <path d="M 734.0 167.5 L 735.5 158.0 L 731.0 157.5 L 729.5 160.0 L 731.5 162.0 L 731.5 167.0 Z"/>
    <path d="M 747.5 161.0 L 739.0 160.5 L 737.5 164.0 L 744.0 165.5"/>
    <path d="M 728.5 164.0 L 728.0 161.5 L 719.5 162.0 L 719.5 165.0 L 723.0 166.5"/>
    <path d="M 701.5 166.0 L 709.0 165.5 L 709.5 163.0 L 702.0 163.5 Z"/>
    <path d="M 1364.5 236.0 L 1363.5 230.0 L 1365.5 224.0 L 1364.0 222.5 L 1348.0 223.5 L 1345.5 226.0 L 1346.0 238.5 L 1362.0 238.5 Z"/>
    <path d="M 1341.5 238.0 L 1342.5 225.0 L 1341.0 223.5 L 1325.5 224.0 L 1323.5 234.0 L 1325.0 239.5"/>
    <path d="M 1296.5 239.0 L 1297.5 226.0 L 1296.0 224.5 L 1280.0 225.5 L 1277.5 228.0 L 1277.5 239.0 L 1279.0 240.5 L 1295.0 240.5 Z"/>
    <path d="M 1301.5 239.0 L 1304.0 240.5 L 1319.0 238.5 L 1319.5 225.0 L 1303.0 224.5 L 1301.5 226.0"/>
    <path d="M 1254.5 240.0 L 1256.0 241.5 L 1273.0 240.5 L 1273.5 226.0 L 1256.0 226.5 L 1254.5 228.0"/>
    <path d="M 1250.5 240.0 L 1250.0 226.5 L 1233.0 226.5 L 1231.5 228.0 L 1232.0 241.5 L 1248.0 241.5 Z"/>
    <path d="M 809.5 250.0 L 810.5 238.0 L 809.0 236.5 L 795.0 235.5 L 792.5 237.0 L 793.0 251.5 L 808.0 251.5 Z"/>
    <path d="M 831.5 250.0 L 831.0 235.5 L 816.0 235.5 L 813.5 238.0 L 813.5 250.0 L 815.0 251.5"/>
    <path d="M 748.0 253.5 L 764.0 252.5 L 765.5 251.0 L 765.5 238.0 L 764.0 236.5 L 748.0 237.5 L 746.5 239.0"/>
    <path d="M 788.5 250.0 L 788.5 238.0 L 787.0 236.5 L 769.5 237.0 L 770.0 252.5 L 783.0 252.5"/>
    <path d="M 701.5 253.0 L 703.0 254.5 L 720.0 253.5 L 720.5 239.0 L 719.0 237.5 L 703.0 237.5 L 700.5 242.0"/>
    <path d="M 743.5 251.0 L 742.0 237.5 L 724.5 238.0 L 723.5 246.0 L 725.0 253.5 L 741.0 253.5 Z"/>
    <path d="M 1420.0 346.5 L 1422.5 345.0 L 1421.5 340.0 L 1426.0 334.5 L 1439.0 333.5 L 1442.5 330.0 L 1427.5 327.0 L 1427.5 310.0 L 1426.0 308.5 L 1421.0 310.5 L 1417.5 309.0 L 1418.5 306.0 L 1415.5 295.0 L 1407.0 288.5 L 1402.5 292.0 L 1403.5 307.0 L 1397.5 313.0 L 1397.5 346.0"/>
    <path d="M 611.5 814.0 L 613.0 815.5 L 833.0 812.5 L 834.5 831.0 L 838.0 831.5 L 844.5 827.0 L 850.0 816.5 L 858.0 828.5 L 865.0 830.5 L 864.5 815.0 L 867.0 811.5 L 879.5 812.0 L 881.0 830.5 L 885.0 830.5 L 889.5 827.0 L 895.0 815.5 L 897.5 816.0 L 899.5 824.0 L 905.0 829.5 L 910.0 830.5 L 911.5 829.0 L 910.5 817.0 L 911.5 813.0 L 915.0 810.5 L 1006.0 809.5 L 1008.5 811.0 L 1007.5 827.0 L 1011.0 829.5 L 1016.5 826.0 L 1021.5 815.0 L 1024.0 813.5 L 1026.5 821.0 L 1033.0 827.5 L 1038.0 828.5 L 1039.5 826.0 L 1039.5 812.0 L 1042.0 809.5 L 1050.0 808.5 L 1053.5 810.0 L 1053.5 827.0 L 1057.0 828.5 L 1063.5 824.0 L 1069.0 813.5 L 1071.5 815.0 L 1072.5 821.0 L 1078.0 826.5 L 1084.0 827.5 L 1084.5 811.0 L 1091.0 807.5 L 1312.0 804.5 L 1314.5 802.0 L 1313.5 663.0 L 1315.5 319.0 L 1083.0 324.5 L 1080.5 322.0 L 1080.5 304.0 L 1077.0 303.5 L 1068.5 311.0 L 1065.0 320.5 L 1061.5 318.0 L 1061.5 311.0 L 1053.0 304.5 L 1050.0 304.5 L 1048.5 306.0 L 1048.5 323.0 L 1045.0 325.5 L 1036.0 325.5 L 1033.5 315.0 L 1034.5 305.0 L 1031.0 304.5 L 1022.5 311.0 L 1017.0 321.5 L 1013.5 310.0 L 1003.0 305.5 L 1001.5 308.0 L 1002.5 323.0 L 999.0 326.5 L 908.0 328.5 L 905.5 326.0 L 906.5 309.0 L 905.0 307.5 L 902.0 307.5 L 895.5 313.0 L 890.0 324.5 L 887.5 323.0 L 887.5 317.0 L 879.0 307.5 L 876.0 307.5 L 873.5 320.0 L 874.5 327.0 L 872.0 329.5 L 862.0 329.5 L 860.5 328.0 L 859.0 308.5 L 856.0 308.5 L 849.5 313.0 L 844.0 325.5 L 841.5 324.0 L 840.5 315.0 L 829.0 308.5 L 827.5 310.0 L 828.5 327.0 L 827.0 329.5 L 598.0 333.5 L 596.5 335.0 L 602.5 482.0 L 605.5 643.0"/>
    <path d="M 1451.5 391.0 L 1456.0 392.5 L 1549.0 389.5 L 1551.5 386.0 L 1551.5 308.0 L 1481.0 308.5 L 1472.0 319.5 L 1464.0 323.5 L 1457.5 322.0 L 1457.5 310.0 L 1453.0 309.5 L 1451.5 312.0"/>
    <path d="M 1112.0 897.5 L 1201.0 895.5 L 1205.5 897.0 L 1206.5 904.0 L 1208.0 904.5 L 1213.0 895.5 L 1318.0 894.5 L 1321.5 892.0 L 1321.0 885.5 L 1314.0 890.5 L 1267.0 890.5 L 1265.5 889.0 L 1265.5 815.0 L 1268.0 812.5 L 1316.0 812.5 L 1317.5 814.0 L 1317.5 861.0 L 1321.5 861.0 L 1321.5 556.0 L 1323.5 313.0 L 1322.0 311.5 L 1087.0 316.5 L 1085.5 318.0 L 1086.0 320.5 L 1316.0 314.5 L 1319.5 316.0 L 1317.5 805.0 L 1313.0 808.5 L 1090.0 811.5 L 1089.0 815.5 L 1106.0 815.5 L 1107.5 817.0 L 1107.5 833.0 L 1109.0 835.5 L 1111.5 834.0 L 1111.5 817.0 L 1119.0 814.5 L 1259.0 812.5 L 1260.5 814.0 L 1261.5 886.0 L 1259.0 890.5 L 1114.0 892.5 L 1111.5 883.0 L 1112.5 875.0 L 1109.0 874.5 L 1108.5 895.0"/>
    <path d="M 1433.0 323.5 L 1436.5 321.0 L 1437.0 312.5 L 1432.5 315.0"/>
    <path d="M 1042.0 322.5 L 1044.5 320.0 L 1044.0 317.5 L 1038.5 319.0 L 1038.5 321.0 Z"/>
    <path d="M 910.5 324.0 L 997.0 322.5 L 997.5 319.0 L 912.0 320.5 Z"/>
    <path d="M 236.0 366.5 L 237.5 365.0 L 236.5 344.0 L 230.5 329.0 L 225.0 323.5 L 220.0 321.5 L 218.5 323.0 L 218.5 341.0 L 216.5 344.0 L 217.5 365.0 L 220.0 367.5 L 231.0 365.5"/>
    <path d="M 869.5 325.0 L 869.0 321.5 L 864.5 322.0 L 865.0 325.5"/>
    <path d="M 516.0 951.5 L 518.5 951.0 L 513.5 825.0 L 528.0 822.5 L 658.0 821.5 L 660.5 824.0 L 662.5 917.0 L 661.0 918.5 L 556.0 920.5 L 553.5 916.0 L 552.5 868.0 L 551.0 863.5 L 548.5 864.0 L 550.5 942.0 L 553.0 951.5 L 663.0 951.5 L 667.5 948.0 L 663.5 826.0 L 666.0 821.5 L 810.0 819.5 L 811.5 821.0 L 814.5 944.0 L 816.0 947.5 L 818.5 945.0 L 815.5 821.0 L 817.0 819.5 L 828.0 819.5 L 829.0 815.5 L 613.0 818.5 L 608.5 816.0 L 601.5 628.0 L 598.5 473.0 L 592.5 339.0 L 593.5 332.0 L 596.0 330.5 L 822.0 326.5 L 823.0 322.5 L 499.0 327.5 L 492.5 330.0 L 500.5 538.0 L 502.0 539.5 L 504.5 538.0 L 503.5 502.0 L 506.0 499.5 L 593.0 498.5 L 595.5 501.0 L 598.5 612.0 L 596.0 615.5 L 509.0 617.5 L 506.5 609.0 L 506.5 581.0 L 505.0 578.5 L 502.5 580.0 L 503.5 648.0 L 505.0 649.5 L 507.5 649.0 L 507.5 623.0 L 517.0 620.5 L 596.0 620.5 L 598.5 624.0 L 601.5 742.0 L 599.0 744.5 L 563.0 744.5 L 561.5 746.0 L 562.5 782.0 L 559.0 784.5 L 513.0 784.5 L 511.5 781.0 L 511.5 757.0 L 510.0 754.5 L 507.5 756.0 L 513.5 920.0 L 510.0 923.5 L 496.0 923.5 L 495.5 926.0 L 497.0 927.5 L 510.0 926.5 L 513.5 929.0"/>
    <path d="M 1375.5 387.0 L 1395.0 386.5 L 1396.5 392.0 L 1399.0 393.5 L 1440.0 391.5 L 1441.5 390.0 L 1441.5 357.0 L 1400.0 357.5 L 1397.5 360.0 L 1396.5 370.0 L 1380.0 376.5 L 1375.5 383.0"/>
    <path d="M 217.5 374.0 L 219.0 378.5 L 236.0 377.5 L 238.5 375.0 L 238.5 371.0 L 236.0 368.5 L 220.0 369.5"/>
    <path d="M 218.5 386.0 L 221.0 390.5 L 236.0 389.5 L 239.5 387.0 L 239.5 384.0 L 235.0 380.5 L 220.0 381.5"/>
    <path d="M 239.5 399.0 L 238.0 392.5 L 219.5 393.0 L 221.0 401.5 L 237.0 401.5 Z"/>
    <path d="M 1395.5 504.0 L 1397.0 505.5 L 1587.0 501.5 L 1597.0 500.5 L 1598.5 494.0 L 1601.0 491.5 L 1620.0 490.5 L 1621.5 488.0 L 1618.0 480.5 L 1599.5 475.0 L 1600.5 400.0 L 1592.0 398.5 L 1580.0 400.5 L 1399.0 404.5 L 1396.5 408.0"/>
    <path d="M 220.5 412.0 L 222.0 413.5 L 238.0 412.5 L 240.5 407.0 L 239.0 404.5 L 221.0 404.5"/>
    <path d="M 361.0 411.5 L 362.5 408.0 L 359.0 405.5 L 357.5 408.0"/>
    <path d="M 326.0 411.5 L 326.5 408.0 L 324.0 406.5 L 322.5 409.0"/>
    <path d="M 344.0 416.5 L 344.5 407.0 L 341.0 406.5 L 339.5 410.0 L 341.5 412.0 L 341.5 416.0 Z"/>
    <path d="M 338.5 413.0 L 338.0 410.5 L 331.5 412.0 L 332.0 414.5"/>
    <path d="M 355.5 413.0 L 355.0 410.5 L 348.5 412.0 L 350.0 414.5"/>
    <path d="M 320.5 412.0 L 313.0 411.5 L 311.5 414.0 L 319.0 414.5 Z"/>
    <path d="M 240.5 424.0 L 239.0 416.5 L 222.0 416.5 L 220.5 418.0 L 220.5 423.0 L 223.0 425.5 L 238.0 425.5 Z"/>
    <path d="M 241.5 434.0 L 241.5 430.0 L 238.0 427.5 L 222.0 427.5 L 220.5 432.0 L 223.0 437.5 L 236.0 437.5"/>
    <path d="M 221.5 445.0 L 224.0 449.5 L 240.0 448.5 L 242.5 446.0 L 242.5 442.0 L 239.0 439.5 L 223.0 439.5"/>
    <path d="M 39.5 519.0 L 42.0 521.5 L 51.0 519.5 L 56.0 520.5 L 62.0 527.5 L 145.0 526.5 L 159.0 524.5 L 244.0 524.5 L 246.5 523.0 L 244.5 475.0 L 240.0 469.5 L 213.0 469.5 L 211.5 467.0 L 212.5 457.0 L 210.0 451.5 L 61.0 454.5 L 55.5 457.0 L 57.5 504.0 L 55.0 506.5 L 45.0 508.5 L 41.5 512.0"/>
    <path d="M 243.5 456.0 L 240.0 451.5 L 224.0 451.5 L 222.5 453.0 L 222.5 458.0 L 225.0 460.5 L 241.0 459.5"/>
    <path d="M 512.0 614.5 L 567.0 612.5 L 591.0 613.5 L 594.5 611.0 L 592.5 505.0 L 591.0 502.5 L 509.0 502.5 L 507.5 504.0 L 508.5 541.0 L 506.0 543.5 L 490.0 543.5 L 488.5 545.0 L 490.5 551.0 L 496.0 556.5 L 500.0 556.5 L 503.5 559.0 L 501.0 562.5 L 496.0 563.5 L 491.5 568.0 L 489.5 575.0 L 492.0 576.5 L 503.0 574.5 L 509.5 578.0 L 509.5 606.0"/>
    <path d="M 347.0 523.5 L 350.5 522.0 L 349.0 512.5 L 346.5 514.0"/>
    <path d="M 1393.5 617.0 L 1395.0 618.5 L 1596.0 613.5 L 1597.5 612.0 L 1598.5 541.0 L 1601.0 536.5 L 1611.0 534.5 L 1619.5 526.0 L 1619.5 521.0 L 1600.0 521.5 L 1598.0 512.5 L 1398.0 517.5 L 1395.5 520.0"/>
    <path d="M 318.5 518.0 L 325.0 517.5 L 325.5 516.0 L 320.0 514.5 Z"/>
    <path d="M 364.0 522.5 L 367.5 521.0 L 366.0 514.5 L 364.5 515.0"/>
    <path d="M 371.5 517.0 L 377.0 516.5 L 377.5 515.0 L 373.0 514.5 Z"/>
    <path d="M 80.0 954.5 L 430.0 950.5 L 431.5 949.0 L 429.5 902.0 L 431.0 900.5 L 445.0 901.5 L 449.5 899.0 L 447.5 894.0 L 442.0 888.5 L 433.5 886.0 L 435.0 883.5 L 442.0 881.5 L 447.5 875.0 L 448.5 871.0 L 446.0 869.5 L 434.0 870.5 L 427.5 867.0 L 425.5 833.0 L 418.5 578.0 L 422.0 575.5 L 437.5 576.0 L 437.5 573.0 L 433.0 566.5 L 421.5 561.0 L 434.5 552.0 L 436.5 548.0 L 435.0 545.5 L 418.0 544.5 L 416.0 532.5 L 344.0 532.5 L 103.0 538.5 L 63.0 537.5 L 60.5 541.0 L 61.5 548.0 L 60.0 550.5 L 42.5 551.0 L 43.5 557.0 L 49.0 562.5 L 55.5 565.0 L 53.0 569.5 L 46.5 573.0 L 44.5 581.0 L 47.0 582.5 L 61.0 582.5 L 63.5 586.0 L 69.5 715.0 L 74.5 869.0 L 73.0 871.5 L 57.0 871.5 L 55.5 873.0 L 56.5 878.0 L 63.0 884.5 L 69.5 887.0 L 59.5 894.0 L 56.5 901.0 L 60.0 903.5 L 74.0 902.5 L 75.5 904.0"/>
    <path d="M 434.0 865.5 L 435.5 861.0 L 431.5 793.0 L 426.5 584.0 L 423.0 580.5 L 421.5 588.0 L 430.5 859.0 L 431.5 865.0 Z"/>
    <path d="M 69.0 867.5 L 70.5 866.0 L 67.5 805.0 L 68.5 790.0 L 60.5 589.0 L 58.0 586.5 L 56.5 588.0 L 62.5 715.0 L 66.5 865.0 Z"/>
    <path d="M 556.0 781.5 L 558.5 780.0 L 558.5 742.0 L 573.0 740.5 L 595.0 741.5 L 598.5 739.0 L 595.5 625.0 L 594.0 623.5 L 512.0 624.5 L 510.5 626.0 L 510.5 652.0 L 504.0 654.5 L 491.5 655.0 L 493.5 662.0 L 497.0 665.5 L 505.5 669.0 L 504.0 672.5 L 498.0 674.5 L 493.5 679.0 L 492.5 686.0 L 511.5 686.0 L 513.5 717.0 L 511.0 719.5 L 496.0 719.5 L 493.5 722.0 L 498.0 729.5 L 508.5 735.0 L 495.5 745.0 L 494.5 750.0 L 512.0 750.5 L 514.5 753.0 L 516.0 781.5"/>
    <path d="M 508.0 715.5 L 509.5 714.0 L 508.5 690.0 L 506.0 689.5 L 505.5 714.0 Z"/>
    <path d="M 1601.0 746.5 L 1604.5 744.0 L 1604.5 729.0 L 1603.0 727.5 L 1599.5 731.0 L 1599.5 745.0 Z"/>
    <path d="M 1451.0 819.5 L 1470.0 819.5 L 1473.5 817.0 L 1473.5 787.0 L 1468.5 784.0 L 1468.0 765.5 L 1464.0 765.5 L 1457.5 770.0 L 1454.5 775.0 L 1454.5 784.0 L 1449.5 789.0 L 1449.5 818.0 Z"/>
    <path d="M 1483.5 816.0 L 1485.0 818.5 L 1593.0 817.5 L 1596.5 816.0 L 1595.5 809.0 L 1597.0 807.5 L 1616.0 806.5 L 1617.5 802.0 L 1607.0 793.5 L 1600.0 793.5 L 1596.0 791.5 L 1596.0 784.5 L 1507.0 785.5 L 1503.5 779.0 L 1503.5 772.0 L 1496.0 766.5 L 1491.0 766.5 L 1489.5 784.0 L 1484.5 788.0"/>
    <path d="M 1603.5 769.0 L 1601.0 768.5 L 1599.5 774.0 L 1594.0 777.5 L 1510.0 778.5 L 1509.5 782.0 L 1598.0 781.5 L 1599.5 783.0 L 1598.5 787.0 L 1602.0 788.5 L 1603.5 787.0"/>
    <path d="M 1049.5 815.0 L 1048.0 812.5 L 1043.5 814.0 L 1045.0 816.5"/>
    <path d="M 1004.5 814.0 L 935.0 813.5 L 916.0 814.5 L 915.5 817.0 L 917.0 818.5 L 928.0 817.5 L 933.5 819.0 L 934.5 860.0 L 937.0 864.5 L 985.0 864.5 L 989.5 862.0 L 989.5 819.0 L 1003.0 816.5 Z"/>
    <path d="M 876.5 817.0 L 874.0 814.5 L 869.5 816.0 L 870.0 818.5"/>
    <path d="M 1312.0 887.5 L 1313.0 884.5 L 1301.0 883.5 L 1299.5 878.0 L 1303.5 871.0 L 1314.5 862.0 L 1313.5 817.0 L 1312.0 815.5 L 1271.0 815.5 L 1268.5 819.0 L 1269.5 887.0"/>
    <path d="M 1115.5 888.0 L 1117.0 889.5 L 1256.0 887.5 L 1257.5 886.0 L 1257.5 817.0 L 1116.0 818.5 L 1114.5 821.0 L 1115.5 835.0 L 1127.0 835.5 L 1129.5 838.0 L 1124.5 850.0 L 1119.5 855.0 L 1127.5 864.0 L 1129.5 871.0 L 1125.0 874.5 L 1118.0 873.5 L 1115.5 875.0"/>
    <path d="M 606.0 831.5 L 606.5 825.0 L 604.0 824.5 L 602.5 827.0"/>
    <path d="M 623.0 833.5 L 624.5 826.0 L 622.0 824.5 L 620.5 828.0"/>
    <path d="M 588.0 833.5 L 589.5 826.0 L 586.0 825.5 L 584.5 828.0"/>
    <path d="M 756.0 835.5 L 757.5 827.0 L 754.0 826.5 L 754.5 835.0 Z"/>
    <path d="M 721.0 835.5 L 722.5 828.0 L 719.0 827.5 L 719.5 835.0 Z"/>
    <path d="M 635.5 829.0 L 628.0 829.5 L 627.5 831.0 L 632.0 832.5"/>
    <path d="M 1595.5 941.0 L 1594.5 865.0 L 1604.0 862.5 L 1610.0 863.5 L 1615.5 861.0 L 1615.5 858.0 L 1611.0 851.5 L 1603.0 850.5 L 1600.5 847.0 L 1610.0 842.5 L 1614.5 838.0 L 1616.0 831.5 L 1599.0 831.5 L 1594.0 828.5 L 1405.0 830.5 L 1403.5 832.0 L 1403.5 838.0 L 1394.5 850.0 L 1403.5 860.0 L 1404.5 867.0 L 1403.0 870.5 L 1506.0 868.5 L 1508.5 870.0 L 1509.0 943.5 L 1531.0 943.5 L 1533.0 930.5 L 1542.0 931.5 L 1552.0 938.5 L 1564.0 929.5 L 1571.5 931.0 L 1570.5 941.0 L 1573.0 943.5 L 1594.0 942.5 Z"/>
    <path d="M 581.5 832.0 L 578.0 829.5 L 574.5 830.0 L 577.0 833.5"/>
    <path d="M 599.5 831.0 L 599.0 829.5 L 592.5 830.0 L 593.0 832.5"/>
    <path d="M 617.5 831.0 L 617.0 829.5 L 610.5 830.0 L 611.0 832.5"/>
    <path d="M 715.5 833.0 L 715.0 830.5 L 707.5 832.0 L 711.0 834.5"/>
    <path d="M 750.5 833.0 L 750.0 830.5 L 744.5 832.0 L 745.0 833.5"/>
    <path d="M 768.5 831.0 L 762.0 831.5 L 761.5 833.0 L 767.0 833.5 Z"/>
    <path d="M 732.5 833.0 L 732.0 831.5 L 726.5 832.0 L 728.0 834.5"/>
    <path d="M 456.5 926.0 L 451.0 923.5 L 440.0 924.5 L 437.5 922.0 L 437.5 907.0 L 433.5 906.0 L 434.5 952.0 L 433.0 953.5 L 79.0 958.5 L 74.5 949.0 L 73.5 911.0 L 72.0 907.5 L 69.5 908.0 L 72.5 960.0 L 77.0 962.5 L 432.0 956.5 L 435.5 959.0 L 435.5 970.0 L 439.0 972.5 L 438.5 929.0"/>
    <path d="M 1486.0 1062.5 L 1592.0 1062.5 L 1593.5 1061.0 L 1595.5 956.0 L 1593.0 953.5 L 1569.0 953.5 L 1567.5 952.0 L 1568.5 940.0 L 1567.0 934.5 L 1559.0 936.5 L 1555.5 940.0 L 1552.0 948.5 L 1548.5 948.0 L 1547.5 941.0 L 1545.0 937.5 L 1537.0 934.5 L 1534.5 939.0 L 1535.5 952.0 L 1533.0 954.5 L 1456.0 954.5 L 1454.5 956.0 L 1454.5 1007.0 L 1483.0 1007.5 L 1485.5 1009.0"/>
    <path d="M 1475.5 1020.0 L 1474.0 1018.5 L 1370.0 1019.5 L 1369.5 1034.0 L 1368.0 1035.5 L 1350.0 1035.5 L 1348.5 1039.0 L 1355.0 1046.5 L 1369.5 1052.0 L 1370.0 1063.5 L 1472.0 1063.5 L 1474.5 1061.0"/>
    <path d="M 443.0 1063.5 L 444.5 1062.0 L 443.5 1047.0 L 441.0 1045.5 L 439.5 1047.0 L 440.5 1063.0 Z"/>
    <path d="M 0.0 1053.5 L 16.0 1049.5 L 27.0 1050.5 L 40.0 1059.5 L 48.0 1059.5 L 58.0 1063.5 L 66.5 1072.0 L 82.5 1100.0 L 94.0 1109.5 L 118.0 1115.5 L 133.0 1112.5 L 140.0 1113.5 L 149.0 1117.5 L 162.0 1119.5 L 176.5 1133.0 L 181.5 1142.0 L 184.5 1163.0 L 182.5 1172.0 L 177.0 1177.5 L 168.0 1181.5 L 155.0 1193.5 L 142.0 1197.5 L 119.0 1194.5 L 103.0 1187.5 L 87.0 1177.5 L 54.0 1167.5 L 42.0 1167.5 L 29.0 1170.5 L 0.0 1184.5"/>
    <path d="M 39.5 1088.0 L 39.5 1083.0 L 36.0 1078.5 L 26.0 1084.5 L 24.5 1083.0 L 24.5 1068.0 L 22.0 1065.5 L 13.0 1063.5 L 10.5 1066.0 L 10.5 1078.0 L 18.0 1087.5 L 23.0 1089.5 L 37.0 1089.5 Z"/>
    <path d="M 446.0 1163.5 L 447.5 1162.0 L 445.5 1103.0 L 443.0 1102.5 L 443.5 1160.0"/>
    <path d="M 24.0 1131.5 L 28.5 1124.0 L 27.0 1120.5 L 19.5 1122.0 L 20.5 1129.0"/>
    <path d="M 43.0 1131.5 L 46.0 1130.5 L 49.5 1125.0 L 46.0 1120.5 L 41.5 1122.0"/>
    <path d="M 0.0 1134.5 L 4.5 1133.0 L 6.0 1126.5 L 0.0 1126.5"/>
    <path d="M 64.0 1136.5 L 67.5 1133.0 L 67.5 1130.0 L 62.0 1127.5 L 60.5 1135.0 Z"/>
    <path d="M 30.0 1137.5 L 35.5 1135.0 L 34.0 1129.5 L 29.5 1133.0"/>
    <path d="M 14.0 1139.5 L 15.5 1132.0 L 12.0 1131.5 L 10.5 1139.0 Z"/>
    <path d="M 55.5 1134.0 L 53.0 1132.5 L 48.5 1137.0 L 54.0 1138.5"/>
    <path d="M 1664.0 1808.5 L 1669.0 1807.5 L 1675.5 1801.0 L 1678.5 1794.0 L 1676.5 1789.0 L 1678.0 1785.5 L 1682.5 1787.0 L 1680.5 1796.0 L 1683.5 1803.0 L 1688.0 1807.5 L 1692.0 1808.5 L 1693.5 1807.0 L 1693.5 1793.0 L 1699.5 1787.0 L 1699.5 1681.0 L 1696.0 1678.5 L 1689.0 1679.5 L 1685.5 1675.0 L 1687.5 1669.0 L 1700.5 1657.0 L 1700.5 1597.0 L 1689.5 1587.0 L 1687.5 1583.0 L 1688.0 1576.5 L 1699.0 1575.5 L 1701.5 1573.0 L 1700.5 1548.0 L 1704.5 1352.0 L 1704.5 1170.0 L 1698.5 1167.0 L 1698.0 1148.5 L 1691.0 1150.5 L 1685.5 1156.0 L 1684.0 1167.5 L 1679.5 1166.0 L 1679.5 1156.0 L 1671.0 1149.5 L 1666.5 1150.0 L 1666.5 1164.0 L 1660.5 1169.0 L 1659.5 1177.0 L 1660.5 1220.0 L 1656.0 1222.5 L 1640.5 1222.0 L 1641.5 1229.0 L 1649.0 1234.5 L 1656.0 1233.5 L 1662.0 1235.5 L 1667.0 1233.5 L 1671.0 1235.5 L 1677.0 1233.5 L 1678.5 1235.0 L 1677.0 1239.5 L 1673.0 1239.5 L 1671.0 1237.5 L 1665.0 1239.5 L 1660.0 1237.5 L 1655.0 1240.5 L 1648.0 1240.5 L 1642.5 1244.0 L 1639.5 1250.0 L 1641.0 1252.5 L 1658.0 1253.5 L 1661.5 1257.0 L 1661.5 1398.0 L 1657.5 1697.0 L 1654.0 1698.5 L 1640.0 1697.5 L 1637.5 1701.0 L 1642.0 1707.5 L 1648.0 1710.5 L 1656.0 1709.5 L 1661.0 1711.5 L 1663.0 1709.5 L 1674.0 1709.5 L 1675.5 1713.0 L 1682.5 1718.0 L 1682.5 1721.0 L 1680.0 1722.5 L 1675.0 1716.5 L 1668.0 1714.5 L 1659.0 1714.5 L 1657.0 1716.5 L 1646.0 1715.5 L 1639.5 1720.0 L 1637.5 1726.0 L 1639.0 1727.5 L 1654.0 1727.5 L 1657.5 1730.0 L 1657.5 1787.0 L 1663.5 1793.0 L 1662.5 1807.0 Z"/>
    <path d="M 1809.0 1456.5 L 1810.5 1455.0 L 1813.5 1169.0 L 1812.0 1167.5 L 1739.0 1168.5 L 1736.5 1166.0 L 1736.5 1158.0 L 1733.5 1153.0 L 1724.0 1148.5 L 1722.5 1150.0 L 1722.5 1165.0 L 1714.5 1171.0 L 1714.5 1455.0 L 1716.0 1456.5"/>
    <path d="M 1701.0 1796.5 L 1800.0 1795.5 L 1810.5 1793.0 L 1810.5 1683.0 L 1814.5 1617.0 L 1813.5 1552.0 L 1820.5 1294.0 L 1820.5 1163.0 L 1819.0 1161.5 L 1742.0 1161.5 L 1740.5 1163.0 L 1741.0 1164.5 L 1810.0 1164.5 L 1815.5 1166.0 L 1816.5 1174.0 L 1815.5 1370.0 L 1812.5 1458.0 L 1811.0 1459.5 L 1720.0 1460.5 L 1713.0 1459.5 L 1710.5 1457.0 L 1712.5 1371.0 L 1711.5 1175.0 L 1712.5 1166.0 L 1718.0 1164.5 L 1718.5 1162.0 L 1702.5 1162.0 L 1707.5 1170.0 L 1708.5 1235.0 L 1704.5 1574.0 L 1707.0 1574.5 L 1712.0 1568.5 L 1755.0 1568.5 L 1757.5 1571.0 L 1756.5 1622.0 L 1753.0 1624.5 L 1709.0 1623.5 L 1707.5 1620.0 L 1708.5 1599.0 L 1706.0 1596.5 L 1703.5 1597.0 L 1703.5 1657.0 L 1707.5 1656.0 L 1707.5 1634.0 L 1710.0 1628.5 L 1753.0 1628.5 L 1756.5 1632.0 L 1755.5 1681.0 L 1753.0 1683.5 L 1710.0 1683.5 L 1706.0 1679.5 L 1703.5 1680.0 L 1703.5 1789.0 L 1699.5 1793.0 Z"/>
    <path d="M 1434.5 1181.0 L 1441.0 1189.5 L 1451.0 1192.5 L 1453.5 1195.0 L 1454.0 1200.5 L 1624.0 1200.5 L 1628.5 1192.0 L 1637.0 1186.5 L 1644.5 1188.0 L 1643.5 1196.0 L 1645.0 1200.5 L 1649.0 1200.5 L 1651.5 1198.0 L 1649.5 1193.0 L 1650.5 1171.0 L 1648.0 1168.5 L 1455.0 1168.5 L 1452.0 1177.5 L 1436.0 1177.5 Z"/>
    <path d="M 1623.5 1207.0 L 1623.0 1204.5 L 1452.0 1204.5 L 1449.5 1202.0 L 1449.5 1197.0 L 1446.5 1197.0 L 1446.5 1207.0 L 1451.0 1208.5"/>
    <path d="M 449.0 1259.5 L 450.5 1258.0 L 449.5 1205.0 L 448.5 1202.0 L 446.0 1201.5 L 446.5 1258.0 Z"/>
    <path d="M 0.0 1241.5 L 25.0 1241.5 L 35.5 1250.0 L 37.5 1255.0 L 36.5 1265.0 L 39.5 1319.0 L 29.0 1331.5 L 0.0 1331.5"/>
    <path d="M 1652.0 1693.5 L 1654.5 1691.0 L 1657.5 1407.0 L 1657.0 1258.5 L 1653.5 1259.0 L 1654.5 1380.0 L 1650.5 1618.0 L 1650.5 1691.0 Z"/>
    <path d="M 0.0 1259.5 L 0.0 1262.5 L 4.0 1263.5 L 5.5 1266.0 L 6.5 1312.0 L 16.0 1313.5 L 18.5 1311.0 L 16.5 1261.0 L 14.0 1259.5"/>
    <path d="M 452.0 1356.5 L 453.5 1355.0 L 452.5 1302.0 L 451.5 1299.0 L 449.0 1298.5 L 449.5 1356.0 Z"/>
    <path d="M 1167.5 1312.0 L 1166.0 1309.5 L 1150.0 1309.5 L 1147.5 1308.0 L 1147.5 1304.0 L 1144.0 1301.5 L 1100.0 1301.5 L 1098.5 1303.0 L 1098.5 1333.0 L 1102.0 1336.5 L 1146.0 1335.5 L 1147.5 1327.0 L 1151.0 1323.5 L 1156.0 1323.5 L 1163.0 1319.5"/>
    <path d="M 1469.5 1422.0 L 1403.0 1468.5 L 1394.0 1473.5 L 1390.0 1470.5 L 1387.5 1471.0 L 1387.5 1474.0 L 1395.5 1487.0 L 1401.5 1510.0 L 1416.5 1553.0 L 1422.5 1564.0 L 1420.0 1566.5 L 1344.0 1512.5 L 1334.0 1515.5 L 1331.0 1519.5 L 1305.0 1536.5 L 1295.0 1545.5 L 1274.0 1558.5 L 1269.0 1564.5 L 1266.0 1564.5 L 1265.5 1561.0 L 1288.5 1494.0 L 1292.5 1476.0 L 1225.0 1427.5 L 1215.0 1422.5 L 1214.5 1420.0 L 1311.0 1419.5 L 1314.5 1414.0 L 1319.5 1393.0 L 1337.5 1343.0 L 1338.5 1335.0 L 1342.0 1332.5 L 1366.5 1405.0 L 1374.0 1419.5 L 1431.0 1421.5 L 1468.0 1420.5 Z"/>
    <path d="M 0.0 1356.5 L 125.0 1356.5 L 191.0 1354.5 L 193.5 1361.0 L 197.5 1449.0 L 190.0 1452.5 L 0.0 1452.5"/>
    <path d="M 1149.0 1578.5 L 1151.5 1575.0 L 1150.5 1540.0 L 1138.0 1537.5 L 1136.5 1534.0 L 1139.5 1524.0 L 1124.0 1524.5 L 1117.5 1516.0 L 1116.5 1508.0 L 1112.0 1505.5 L 1106.0 1505.5 L 1104.5 1501.0 L 1107.0 1498.5 L 1119.0 1499.5 L 1124.5 1505.0 L 1127.0 1515.5 L 1139.0 1515.5 L 1140.5 1514.0 L 1136.5 1507.0 L 1139.0 1500.5 L 1149.0 1500.5 L 1150.5 1496.0 L 1149.5 1440.0 L 1148.0 1438.5 L 1137.0 1438.5 L 1134.5 1436.0 L 1138.5 1425.0 L 1136.0 1422.5 L 1129.0 1422.5 L 1124.5 1425.0 L 1123.5 1436.0 L 1120.0 1440.5 L 1116.0 1442.5 L 1105.0 1442.5 L 1103.5 1440.0 L 1106.0 1434.5 L 1114.0 1434.5 L 1116.5 1432.0 L 1116.5 1423.0 L 1121.0 1416.5 L 1137.5 1414.0 L 1134.5 1402.0 L 1148.5 1399.0 L 1148.5 1384.0 L 1146.0 1381.5 L 1102.0 1381.5 L 1099.5 1385.0 L 1100.5 1421.0 L 1098.0 1423.5 L 1082.0 1423.5 L 1080.5 1425.0 L 1081.5 1430.0 L 1086.0 1434.5 L 1094.5 1437.0 L 1093.0 1442.5 L 1088.0 1442.5 L 1082.5 1446.0 L 1080.5 1453.0 L 1082.0 1454.5 L 1100.0 1454.5 L 1101.5 1459.0 L 1100.5 1487.0 L 1082.5 1488.0 L 1083.5 1494.0 L 1087.0 1497.5 L 1096.0 1499.5 L 1097.5 1503.0 L 1096.0 1505.5 L 1088.0 1506.5 L 1083.5 1511.0 L 1082.5 1516.0 L 1084.0 1517.5 L 1099.0 1517.5 L 1102.5 1521.0 L 1103.0 1566.5 L 1107.0 1564.5 L 1113.0 1565.5 L 1127.0 1578.5"/>
    <path d="M 122.0 1415.5 L 125.0 1415.5 L 127.5 1413.0 L 126.5 1409.0 L 140.5 1398.0 L 140.5 1392.0 L 135.0 1386.5 L 124.0 1385.5 L 119.5 1389.0 L 120.5 1413.0 Z"/>
    <path d="M 0.0 1412.5 L 5.0 1415.5 L 12.0 1416.5 L 19.5 1412.0 L 22.5 1404.0 L 22.5 1395.0 L 20.0 1389.5 L 14.0 1386.5 L 8.0 1386.5 L 0.0 1391.5"/>
    <path d="M 44.0 1416.5 L 48.5 1410.0 L 46.5 1389.0 L 45.0 1387.5 L 40.5 1389.0 L 42.5 1404.0 L 40.0 1408.5 L 36.5 1403.0 L 34.5 1388.0 L 31.0 1386.5 L 28.5 1388.0 L 26.5 1394.0 L 26.5 1415.0 L 28.0 1416.5 L 33.0 1414.5 L 37.0 1416.5"/>
    <path d="M 117.5 1414.0 L 115.5 1394.0 L 112.0 1386.5 L 106.0 1386.5 L 101.5 1391.0 L 95.0 1408.5 L 92.5 1406.0 L 88.5 1389.0 L 86.0 1386.5 L 82.5 1388.0 L 80.0 1395.5 L 77.5 1395.0 L 76.5 1389.0 L 74.0 1386.5 L 69.5 1388.0 L 66.5 1403.0 L 67.0 1415.5 L 70.0 1415.5 L 74.0 1409.5 L 79.0 1416.5 L 83.0 1415.5 L 86.0 1410.5 L 88.5 1415.0 L 92.0 1416.5 L 96.0 1412.5 L 97.0 1415.5 L 101.0 1415.5 L 104.0 1409.5 L 106.0 1409.5 L 111.0 1415.5"/>
    <path d="M 455.0 1452.5 L 456.5 1451.0 L 454.5 1396.0 L 452.0 1395.5 L 452.5 1451.0 Z"/>
    <path d="M 1156.0 1499.5 L 1156.5 1440.0 L 1154.0 1438.5 L 1152.5 1441.0 L 1153.5 1499.0 Z"/>
    <path d="M 1343.5 1460.0 L 1341.0 1456.5 L 1336.0 1457.5 L 1335.0 1454.5 L 1333.0 1454.5 L 1332.0 1457.5 L 1328.5 1457.0 L 1338.0 1461.5"/>
    <path d="M 1356.5 1463.0 L 1362.0 1464.5 L 1368.0 1458.5 L 1376.0 1461.5 L 1379.5 1459.0 L 1372.0 1454.5 L 1370.0 1456.5 L 1366.0 1456.5 L 1363.0 1461.5 L 1360.0 1459.5 L 1357.0 1460.5 Z"/>
    <path d="M 1097.0 1483.5 L 1097.5 1460.0 L 1095.0 1458.5 L 1094.5 1483.0 Z"/>
    <path d="M 1321.0 1473.5 L 1320.5 1469.0 L 1323.5 1464.0 L 1322.0 1461.5 L 1319.5 1462.0 L 1318.5 1472.0 Z"/>
    <path d="M 539.0 1665.5 L 540.5 1664.0 L 539.5 1644.0 L 537.0 1636.5 L 473.0 1637.5 L 465.0 1636.5 L 462.5 1634.0 L 458.5 1494.0 L 457.5 1491.0 L 455.0 1490.5 L 459.5 1666.0 L 463.5 1666.0 L 462.5 1642.0 L 465.0 1639.5 L 535.0 1640.5 L 536.5 1643.0 L 536.5 1665.0 Z"/>
    <path d="M 1453.5 1795.0 L 1452.0 1781.5 L 1449.5 1783.0 L 1450.5 1790.0 L 1446.0 1794.5 L 1220.0 1793.5 L 1209.5 1778.0 L 1159.5 1686.0 L 1159.5 1666.0 L 1156.5 1666.0 L 1155.5 1683.0 L 1154.0 1684.5 L 1126.0 1684.5 L 1122.5 1680.0 L 1122.5 1625.0 L 1125.0 1623.5 L 1154.0 1624.5 L 1155.5 1626.0 L 1155.5 1641.0 L 1158.5 1642.0 L 1157.5 1540.0 L 1154.5 1540.0 L 1154.5 1579.0 L 1152.0 1581.5 L 1126.5 1582.0 L 1127.0 1584.5 L 1151.0 1584.5 L 1154.5 1587.0 L 1154.5 1619.0 L 1151.0 1620.5 L 1105.0 1620.5 L 1099.5 1617.0 L 1099.5 1588.0 L 1103.5 1582.0 L 1099.5 1579.0 L 1098.5 1523.0 L 1095.5 1523.0 L 1096.5 1621.0 L 1099.0 1623.5 L 1116.0 1623.5 L 1118.5 1626.0 L 1120.5 1791.0 L 1124.0 1797.5 L 1297.0 1796.5 L 1402.0 1798.5 L 1451.0 1797.5 Z"/>
    <path d="M 0.0 1549.5 L 186.0 1549.5 L 188.5 1553.0 L 194.5 1696.0 L 187.0 1698.5 L 0.0 1698.5"/>
    <path d="M 0.0 1689.5 L 185.0 1688.5 L 186.5 1680.0 L 180.5 1559.0 L 178.0 1557.5 L 0.0 1557.5"/>
    <path d="M 1151.0 1616.5 L 1151.5 1590.0 L 1150.0 1588.5 L 1124.0 1588.5 L 1117.5 1573.0 L 1109.0 1568.5 L 1107.5 1570.0 L 1107.5 1586.0 L 1103.5 1589.0 L 1103.5 1615.0 L 1105.0 1616.5"/>
    <path d="M 1713.0 1620.5 L 1723.0 1622.5 L 1751.0 1621.5 L 1753.5 1620.0 L 1754.5 1574.0 L 1752.0 1571.5 L 1714.0 1571.5 L 1710.0 1578.5 L 1694.0 1578.5 L 1691.5 1580.0 L 1692.5 1584.0 L 1698.0 1589.5 L 1709.0 1592.5 L 1712.5 1596.0 L 1711.5 1619.0 Z"/>
    <path d="M 1151.0 1681.5 L 1152.5 1680.0 L 1153.5 1662.0 L 1166.0 1658.5 L 1169.5 1655.0 L 1171.5 1648.0 L 1154.0 1646.5 L 1151.5 1644.0 L 1152.5 1636.0 L 1150.0 1627.5 L 1127.0 1627.5 L 1125.5 1629.0 L 1126.5 1679.0 L 1129.0 1681.5"/>
    <path d="M 1750.0 1680.5 L 1752.5 1678.0 L 1753.5 1652.0 L 1752.0 1649.5 L 1746.0 1648.5 L 1741.5 1642.0 L 1742.5 1632.0 L 1739.0 1630.5 L 1736.5 1633.0 L 1736.5 1641.0 L 1733.0 1643.5 L 1719.0 1643.5 L 1716.5 1642.0 L 1716.5 1634.0 L 1713.0 1630.5 L 1710.5 1634.0 L 1711.5 1659.0 L 1707.0 1662.5 L 1696.0 1664.5 L 1691.5 1670.0 L 1691.5 1674.0 L 1693.0 1675.5 L 1708.0 1675.5 L 1715.0 1680.5"/>
    <path d="M 500.0 1806.5 L 506.5 1800.0 L 510.0 1788.5 L 531.0 1788.5 L 534.5 1786.0 L 534.5 1763.0 L 522.5 1760.0 L 522.5 1754.0 L 530.5 1743.0 L 522.5 1734.0 L 522.5 1725.0 L 533.5 1723.0 L 533.5 1706.0 L 532.0 1704.5 L 524.0 1705.5 L 521.5 1703.0 L 521.5 1698.0 L 524.5 1691.0 L 516.0 1690.5 L 512.5 1688.0 L 515.0 1682.5 L 524.0 1682.5 L 525.5 1681.0 L 521.5 1675.0 L 521.5 1669.0 L 523.0 1667.5 L 528.0 1668.5 L 533.5 1665.0 L 532.5 1645.0 L 531.0 1643.5 L 469.0 1643.5 L 466.5 1645.0 L 465.5 1652.0 L 467.5 1662.0 L 466.5 1668.0 L 462.0 1671.5 L 450.0 1670.5 L 448.5 1672.0 L 449.5 1678.0 L 454.0 1682.5 L 474.0 1682.5 L 476.5 1685.0 L 476.5 1688.0 L 473.0 1690.5 L 455.0 1689.5 L 449.5 1695.0 L 448.5 1699.0 L 452.0 1702.5 L 463.0 1700.5 L 467.5 1704.0 L 466.5 1727.0 L 452.0 1726.5 L 449.5 1729.0 L 453.5 1737.0 L 462.5 1742.0 L 450.5 1752.0 L 450.5 1756.0 L 452.0 1757.5 L 465.0 1757.5 L 468.5 1760.0 L 468.5 1785.0 L 471.0 1787.5 L 493.0 1787.5 L 496.5 1795.0 L 495.5 1805.0"/>
    <path d="M 463.0 1723.5 L 464.5 1721.0 L 464.5 1707.0 L 462.0 1705.5 L 460.5 1707.0 L 460.5 1722.0 Z"/>
    <path d="M 539.0 1722.5 L 540.5 1721.0 L 540.0 1706.5 L 537.5 1707.0 L 537.5 1722.0 Z"/>
    <path d="M 861.0 1755.5 L 863.5 1750.0 L 862.5 1724.0 L 857.0 1721.5 L 854.5 1726.0 L 854.5 1750.0 L 858.0 1755.5 Z"/>
    <path d="M 768.0 1754.5 L 769.5 1753.0 L 769.5 1725.0 L 764.0 1722.5 L 761.5 1729.0 L 762.5 1752.0"/>
    <path d="M 781.0 1789.5 L 782.5 1788.0 L 782.5 1759.0 L 779.5 1755.0 L 781.5 1753.0 L 781.5 1726.0 L 780.0 1723.5 L 775.0 1722.5 L 773.5 1724.0 L 773.5 1752.0 L 777.5 1756.0 L 774.5 1759.0 L 774.5 1784.0 L 778.0 1789.5 Z"/>
    <path d="M 792.0 1754.5 L 793.5 1753.0 L 793.5 1725.0 L 788.0 1722.5 L 784.5 1727.0 L 785.5 1753.0"/>
    <path d="M 816.0 1754.5 L 817.5 1752.0 L 816.5 1724.0 L 812.0 1722.5 L 808.5 1726.0 L 809.5 1753.0"/>
    <path d="M 826.0 1755.5 L 828.5 1753.0 L 828.5 1725.0 L 826.0 1722.5 L 822.0 1722.5 L 820.5 1724.0 L 820.5 1753.0"/>
    <path d="M 839.0 1789.5 L 841.5 1788.0 L 841.5 1767.0 L 838.5 1756.0 L 840.5 1752.0 L 840.5 1726.0 L 835.0 1722.5 L 832.5 1725.0 L 831.5 1750.0 L 834.5 1756.0 L 832.5 1760.0 L 833.5 1787.0"/>
    <path d="M 872.0 1755.5 L 874.5 1754.0 L 875.5 1750.0 L 874.5 1724.0 L 868.0 1722.5 L 866.5 1725.0 L 866.5 1753.0"/>
    <path d="M 884.0 1755.5 L 886.5 1754.0 L 886.5 1724.0 L 880.0 1722.5 L 878.5 1724.0 L 878.5 1753.0 L 880.0 1755.5"/>
    <path d="M 896.0 1755.5 L 898.5 1753.0 L 897.5 1724.0 L 892.0 1722.5 L 890.5 1725.0 L 890.5 1753.0"/>
    <path d="M 908.0 1755.5 L 910.5 1753.0 L 910.5 1725.0 L 908.0 1722.5 L 904.0 1722.5 L 901.5 1725.0 L 901.5 1752.0 L 904.0 1755.5"/>
    <path d="M 921.0 1754.5 L 922.5 1753.0 L 922.5 1727.0 L 920.0 1722.5 L 916.0 1722.5 L 913.5 1725.0 L 913.5 1750.0 L 915.0 1754.5"/>
    <path d="M 933.5 1754.0 L 933.5 1725.0 L 932.0 1722.5 L 928.0 1722.5 L 925.5 1725.0 L 925.5 1752.0 L 928.0 1755.5"/>
    <path d="M 803.0 1755.5 L 805.5 1753.0 L 805.5 1725.0 L 798.0 1723.5 L 796.5 1725.0 L 797.5 1753.0"/>
    <path d="M 1658.5 1796.0 L 1653.5 1788.0 L 1654.5 1737.0 L 1653.0 1732.5 L 1648.0 1737.5 L 1500.5 1739.0 L 1502.0 1742.5 L 1508.5 1744.0 L 1509.5 1749.0 L 1509.5 1796.0 L 1512.0 1797.5 L 1621.5 1797.0 L 1620.0 1793.5 L 1514.0 1793.5 L 1512.5 1791.0 L 1512.5 1745.0 L 1515.0 1741.5 L 1648.0 1741.5 L 1650.5 1744.0 L 1651.5 1785.0 L 1649.5 1792.0 L 1644.5 1795.0 L 1650.0 1797.5"/>
    <path d="M 1451.0 1758.5 L 1453.5 1756.0 L 1452.5 1745.0 L 1454.0 1742.5 L 1460.0 1742.5 L 1459.0 1738.5 L 1451.0 1738.5 L 1449.5 1741.0 L 1449.5 1757.0 Z"/>
    <path d="M 1590.0 1790.5 L 1591.5 1788.0 L 1591.5 1749.0 L 1590.5 1745.0 L 1587.0 1743.5 L 1583.5 1747.0 L 1583.5 1788.0 L 1586.0 1790.5"/>
    <path d="M 1523.0 1790.5 L 1524.5 1789.0 L 1523.5 1747.0 L 1518.0 1744.5 L 1515.5 1748.0 L 1516.5 1789.0"/>
    <path d="M 1533.0 1791.5 L 1535.5 1789.0 L 1534.5 1746.0 L 1529.0 1744.5 L 1527.5 1746.0 L 1527.5 1787.0 L 1531.0 1791.5 Z"/>
    <path d="M 1545.0 1791.5 L 1546.5 1790.0 L 1546.5 1746.0 L 1541.0 1744.5 L 1538.5 1746.0 L 1539.5 1789.0"/>
    <path d="M 1557.0 1790.5 L 1558.5 1789.0 L 1557.5 1747.0 L 1556.0 1744.5 L 1553.0 1744.5 L 1549.5 1748.0 L 1550.5 1789.0"/>
    <path d="M 1566.0 1791.5 L 1569.5 1788.0 L 1568.5 1746.0 L 1564.0 1744.5 L 1560.5 1747.0 L 1561.5 1790.0"/>
    <path d="M 1578.0 1790.5 L 1579.5 1789.0 L 1580.5 1752.0 L 1579.5 1746.0 L 1574.0 1744.5 L 1572.5 1746.0 L 1572.5 1789.0"/>
    <path d="M 1601.0 1790.5 L 1602.5 1789.0 L 1602.5 1746.0 L 1596.0 1744.5 L 1594.5 1746.0 L 1594.5 1788.0 L 1597.0 1790.5"/>
    <path d="M 1639.0 1808.5 L 1639.5 1792.0 L 1647.5 1788.0 L 1646.5 1746.0 L 1644.0 1744.5 L 1609.0 1744.5 L 1605.5 1748.0 L 1606.5 1788.0 L 1609.0 1790.5 L 1625.0 1790.5 L 1628.5 1803.0 L 1633.0 1807.5"/>
    <path d="M 765.0 1788.5 L 769.0 1788.5 L 771.5 1785.0 L 770.5 1759.0 L 768.0 1756.5 L 763.5 1759.0 L 763.5 1786.0 Z"/>
    <path d="M 805.0 1789.5 L 806.5 1788.0 L 806.5 1760.0 L 804.0 1756.5 L 801.0 1756.5 L 797.5 1761.0 L 798.5 1787.0 L 801.0 1789.5"/>
    <path d="M 862.0 1788.5 L 863.5 1787.0 L 862.5 1758.0 L 858.0 1756.5 L 855.5 1759.0 L 855.5 1786.0 L 858.0 1788.5"/>
    <path d="M 885.0 1788.5 L 887.5 1786.0 L 886.5 1759.0 L 881.0 1756.5 L 878.5 1759.0 L 878.5 1786.0"/>
    <path d="M 793.0 1789.5 L 794.5 1788.0 L 794.5 1759.0 L 787.0 1757.5 L 786.5 1786.0 L 788.0 1788.5"/>
    <path d="M 816.0 1790.5 L 818.5 1787.0 L 818.5 1761.0 L 816.0 1757.5 L 811.0 1757.5 L 809.5 1760.0 L 810.5 1787.0 L 812.0 1789.5"/>
    <path d="M 828.0 1789.5 L 829.5 1788.0 L 828.5 1759.0 L 824.0 1757.5 L 821.5 1760.0 L 822.5 1788.0"/>
    <path d="M 873.0 1788.5 L 875.5 1786.0 L 874.5 1759.0 L 868.0 1757.5 L 866.5 1759.0 L 866.5 1786.0"/>
    <path d="M 898.0 1787.5 L 899.5 1786.0 L 898.5 1760.0 L 896.0 1757.5 L 892.0 1757.5 L 890.5 1759.0 L 890.5 1786.0"/>
    <path d="M 908.0 1788.5 L 910.5 1786.0 L 910.5 1762.0 L 908.0 1757.5 L 903.0 1757.5 L 901.5 1760.0 L 902.5 1775.0 L 900.5 1786.0"/>
    <path d="M 920.0 1788.5 L 922.5 1786.0 L 921.5 1759.0 L 915.0 1757.5 L 913.5 1759.0 L 913.5 1786.0 L 916.0 1788.5"/>
    <path d="M 932.0 1788.5 L 934.5 1786.0 L 933.5 1760.0 L 931.0 1757.5 L 927.0 1757.5 L 925.5 1759.0 L 925.5 1786.0 L 928.0 1788.5"/>
    <path d="M 491.5 1793.0 L 488.0 1790.5 L 467.0 1790.5 L 465.5 1789.0 L 464.0 1762.5 L 461.5 1763.0 L 461.5 1789.0 L 458.0 1791.5 L 389.0 1789.5 L 121.5 1788.0 L 122.0 1790.5 L 126.0 1791.5 L 310.0 1791.5 L 489.0 1794.5 Z"/>
    <path d="M 688.5 1795.0 L 687.0 1792.5 L 545.0 1791.5 L 541.5 1788.0 L 541.0 1763.5 L 538.5 1764.0 L 538.5 1789.0 L 536.0 1791.5 L 513.5 1791.0 L 514.0 1794.5 L 526.0 1793.5 L 552.0 1795.5"/>
    <path d="M 933.5 1796.0 L 933.0 1793.5 L 712.5 1792.0 L 713.0 1795.5"/>
  </g>
</svg>
