<?xml version="1.0" encoding="UTF-8"?>
<svg xmlns="http://www.w3.org/2000/svg" width="2376" height="1434" viewBox="0 0 2376 1434">
  <rect width="100%" height="100%" fill="#ffffff"/>
  <g id="base-map-no-labels" fill="none" stroke="#111827" stroke-width="2.2" stroke-linecap="round" stroke-linejoin="round">
    <path d="M 2224.5 1367.0 L 2200.0 1367.5 L 2050.0 1361.5 L 2049.5 1375.0 L 2046.0 1379.5 L 2033.0 1373.5 L 2026.5 1362.0 L 2022.0 1359.5 L 1748.0 1350.5 L 1463.0 1337.5 L 1460.5 1343.0 L 1453.0 1350.5 L 1440.0 1353.5 L 1438.5 1352.0 L 1438.5 1337.0 L 1437.0 1335.5 L 1427.0 1336.5 L 1423.5 1333.0 L 1426.5 1238.0 L 1425.0 1236.5 L 1188.0 1227.5 L 1186.5 1244.0 L 1184.0 1245.5 L 1173.0 1241.5 L 1166.0 1231.5 L 1157.0 1240.5 L 1144.0 1243.5 L 1142.5 1242.0 L 1143.5 1227.0 L 1142.0 1225.5 L 1117.0 1225.5 L 1116.5 1240.0 L 1114.0 1242.5 L 1101.0 1237.5 L 1095.0 1228.5 L 1085.0 1238.5 L 1073.0 1240.5 L 1071.5 1238.0 L 1072.5 1224.0 L 1069.0 1222.5 L 916.0 1218.5 L 838.0 1214.5 L 835.5 1216.0 L 832.5 1309.0 L 830.0 1312.5 L 814.0 1311.5 L 811.5 1314.0 L 811.5 1328.0 L 810.0 1329.5 L 797.0 1325.5 L 787.0 1310.5 L 580.0 1304.5 L 505.0 1300.5 L 502.0 1316.5 L 494.0 1315.5 L 485.0 1308.5 L 477.0 1308.5 L 468.0 1314.5 L 460.0 1315.5 L 459.5 1300.0 L 457.0 1298.5 L 350.0 1296.5 L 239.0 1292.5 L 238.5 1307.0 L 236.0 1309.5 L 232.0 1309.5 L 225.0 1306.5 L 217.5 1299.0 L 215.5 1292.0 L 211.0 1290.5 L 93.0 1287.5 L 90.5 1285.0 L 98.5 1075.0 L 52.0 1073.5 L 49.5 1072.0 L 61.5 812.0 L 60.0 810.5 L 46.0 810.5 L 43.5 808.0 L 46.5 798.0 L 54.5 791.0 L 46.5 779.0 L 45.5 772.0 L 47.0 770.5 L 63.0 770.5 L 63.5 764.0 L 68.0 761.5 L 112.0 763.5 L 113.5 761.0 L 121.5 554.0 L 124.0 552.5 L 396.0 562.5 L 404.0 551.5 L 413.0 547.5 L 419.0 547.5 L 420.5 549.0 L 420.5 563.0 L 435.0 564.5 L 1058.0 586.5 L 1059.5 585.0 L 1063.5 468.0 L 1058.0 465.5 L 1051.5 459.0 L 1048.5 446.0 L 1050.0 444.5 L 1063.0 445.5 L 1064.5 444.0 L 1076.5 104.0 L 1082.0 101.5 L 1129.0 104.5 L 1468.0 114.5 L 1469.5 116.0 L 1462.5 293.0 L 1469.0 295.5 L 1474.5 301.0 L 1477.5 308.0 L 1477.5 315.0 L 1476.0 316.5 L 1461.5 317.0 L 1458.5 400.0 L 1473.0 401.5 L 1474.5 405.0 L 1470.5 415.0 L 1456.5 426.0 L 1451.0 598.5 L 1452.5 598.0 L 1452.5 587.0 L 1458.0 585.5 L 1467.0 589.5 L 1472.5 595.0 L 1475.0 601.5 L 1651.0 607.5 L 1651.5 595.0 L 1657.0 592.5 L 1667.0 596.5 L 1673.5 603.0 L 1675.0 608.5 L 2036.0 621.5 L 2057.0 621.5 L 2059.5 616.0 L 2066.0 609.5 L 2079.0 606.5 L 2080.5 608.0 L 2081.0 622.5 L 2248.0 628.5 L 2250.5 631.0 L 2243.5 840.0 L 2245.0 841.5 L 2286.0 842.5 L 2288.0 851.5 L 2305.0 852.5 L 2307.5 855.0 L 2305.5 863.0 L 2301.5 869.0 L 2294.5 874.0 L 2303.5 882.0 L 2306.5 894.0 L 2304.0 896.5 L 2287.0 895.5 L 2285.5 897.0 L 2277.5 1154.0 L 2276.0 1155.5 L 2231.5 1154.0"/>
    <path d="M 2283.5 850.0 L 2283.5 847.0 L 2281.0 845.5 L 2256.0 845.5 L 2240.5 843.0 L 2246.5 633.0 L 2236.0 631.5 L 2081.0 626.5 L 2079.5 630.0 L 2084.0 631.5 L 2086.5 635.0 L 2079.5 836.0 L 2077.0 838.5 L 1890.0 831.5 L 1886.5 829.0 L 1889.5 728.0 L 1884.5 728.0 L 1883.5 752.0 L 1881.0 754.5 L 1833.0 752.5 L 1830.5 750.0 L 1831.5 708.0 L 1834.0 698.5 L 1882.0 699.5 L 1886.0 704.5 L 1890.5 703.0 L 1890.0 689.5 L 1886.0 689.5 L 1883.0 694.5 L 1841.0 693.5 L 1832.5 691.0 L 1834.5 626.0 L 1836.0 623.5 L 1886.0 624.5 L 1887.5 626.0 L 1887.0 666.5 L 1891.5 666.0 L 1892.5 627.0 L 1896.0 624.5 L 2054.0 630.5 L 2055.0 625.5 L 1700.0 612.5 L 1675.5 613.0 L 1677.0 617.5 L 1827.0 622.5 L 1829.5 625.0 L 1823.5 798.0 L 1825.0 799.5 L 1829.5 798.0 L 1829.5 767.0 L 1832.0 757.5 L 1882.0 759.5 L 1883.5 761.0 L 1881.5 828.0 L 1880.0 830.5 L 1830.0 828.5 L 1826.0 822.5 L 1822.5 824.0 L 1821.0 828.5 L 1564.0 818.5 L 1561.5 815.0 L 1563.5 778.0 L 1637.5 619.0 L 1640.0 616.5 L 1650.0 616.5 L 1651.5 612.0 L 1476.0 605.5 L 1476.0 610.5 L 1609.0 614.5 L 1631.5 617.0 L 1631.5 621.0 L 1557.5 780.0 L 1556.5 816.0 L 1555.0 817.5 L 1527.0 817.5 L 1359.0 810.5 L 1356.5 808.0 L 1361.5 670.0 L 1356.5 669.0 L 1355.5 701.0 L 1353.0 703.5 L 1237.0 699.5 L 1234.5 697.0 L 1236.5 639.0 L 1238.0 636.5 L 1355.0 640.5 L 1357.5 646.0 L 1361.0 646.5 L 1362.5 637.0 L 1361.0 635.5 L 1351.0 635.5 L 1348.5 632.0 L 1349.5 608.0 L 1351.0 606.5 L 1450.0 609.5 L 1451.5 605.0 L 1447.5 603.0 L 1447.5 574.0 L 1453.5 425.0 L 1452.0 423.5 L 1448.5 425.0 L 1443.5 577.0 L 1441.0 603.5 L 1379.0 602.5 L 1238.5 596.0 L 1245.5 396.0 L 1247.0 394.5 L 1421.5 399.0 L 1421.0 394.5 L 1249.0 389.5 L 1245.5 386.0 L 1248.5 316.0 L 1250.0 314.5 L 1425.5 319.0 L 1424.0 314.5 L 1251.0 309.5 L 1249.5 308.0 L 1255.5 121.0 L 1257.0 117.5 L 1261.0 116.5 L 1458.0 122.5 L 1460.5 125.0 L 1454.5 269.0 L 1454.5 292.0 L 1458.0 292.5 L 1459.5 288.0 L 1465.5 119.0 L 1463.0 117.5 L 1080.5 106.0 L 1067.5 436.0 L 1069.0 445.5 L 1072.5 445.0 L 1078.5 268.0 L 1080.0 265.5 L 1136.5 266.0 L 1136.0 261.5 L 1088.0 260.5 L 1079.5 258.0 L 1084.5 113.0 L 1086.0 111.5 L 1231.0 115.5 L 1249.0 116.5 L 1251.5 120.0 L 1245.5 264.0 L 1244.0 265.5 L 1182.0 263.5 L 1180.5 265.0 L 1182.0 268.5 L 1243.0 270.5 L 1245.5 273.0 L 1235.5 554.0 L 1231.5 612.0 L 1225.5 809.0 L 1227.0 810.5 L 2155.0 845.5 L 2224.0 849.5"/>
    <path d="M 1242.5 261.0 L 1247.0 120.5 L 1096.0 114.5 L 1087.5 116.0 L 1082.5 250.0 L 1084.0 256.5 L 1139.0 258.5 L 1140.5 260.0 L 1141.0 282.5 L 1147.0 281.5 L 1154.5 274.0 L 1156.5 266.0 L 1160.0 264.5 L 1162.5 274.0 L 1172.0 283.5 L 1176.5 283.0 L 1177.5 261.0 L 1180.0 259.5 L 1238.0 262.5"/>
    <path d="M 1473.5 312.0 L 1473.5 308.0 L 1469.0 300.5 L 1465.0 297.5 L 1450.5 294.0 L 1455.5 185.0 L 1456.0 126.5 L 1261.0 120.5 L 1259.5 122.0 L 1253.0 305.5 L 1429.0 311.5 L 1429.5 323.0 L 1431.5 327.0 L 1442.0 335.5 L 1444.5 335.0 L 1445.5 314.0 L 1447.0 312.5"/>
    <path d="M 2302.5 891.0 L 2300.5 885.0 L 2294.0 877.5 L 2286.0 875.5 L 2283.5 873.0 L 2296.0 868.5 L 2300.5 864.0 L 2302.5 857.0 L 2285.0 854.5 L 2247.0 852.5 L 2245.5 854.0 L 2244.5 889.0 L 2243.0 890.5 L 2174.0 887.5 L 2171.5 877.0 L 2173.5 852.0 L 2170.0 849.5 L 2080.0 847.5 L 1223.0 813.5 L 1221.5 801.0 L 1241.5 296.0 L 1241.5 275.0 L 1238.0 273.5 L 1183.0 271.5 L 1180.5 273.0 L 1180.5 285.0 L 1177.0 288.5 L 1168.0 285.5 L 1159.0 274.5 L 1151.0 283.5 L 1143.0 286.5 L 1137.0 286.5 L 1136.0 270.5 L 1082.5 269.0 L 1076.5 446.0 L 1074.0 449.5 L 1052.5 449.0 L 1053.5 454.0 L 1058.0 460.5 L 1075.5 468.0 L 1063.5 797.0 L 1061.0 808.5 L 876.0 802.5 L 842.0 799.5 L 197.0 778.5 L 195.5 780.0 L 194.5 813.0 L 193.0 814.5 L 125.0 812.5 L 123.5 811.0 L 125.5 780.0 L 124.0 776.5 L 51.0 774.5 L 51.5 781.0 L 57.0 786.5 L 65.5 791.0 L 56.0 794.5 L 48.5 804.0 L 49.0 806.5 L 70.0 807.5 L 73.5 810.0 L 72.0 849.5 L 108.0 850.5 L 109.5 817.0 L 111.0 815.5 L 192.0 818.5 L 194.5 827.0 L 192.5 853.0 L 194.0 854.5 L 222.0 854.5 L 227.5 857.0 L 217.5 1065.0 L 220.0 1067.5 L 828.0 1086.5 L 830.5 1072.0 L 839.5 858.0 L 848.0 856.5 L 1009.0 861.5 L 1010.5 863.0 L 1010.0 906.5 L 1046.0 907.5 L 1058.5 910.0 L 1052.5 1070.0 L 1054.0 1071.5 L 1102.0 1072.5 L 1103.5 1074.0 L 1099.5 1184.0 L 1098.0 1185.5 L 1049.0 1183.5 L 1047.5 1185.0 L 1046.5 1209.0 L 1048.0 1210.5 L 1075.0 1211.5 L 1076.5 1213.0 L 1076.0 1236.5 L 1083.0 1235.5 L 1087.0 1232.5 L 1091.5 1226.0 L 1092.5 1220.0 L 1096.0 1218.5 L 1099.5 1230.0 L 1106.0 1236.5 L 1112.5 1238.0 L 1113.5 1214.0 L 1115.0 1212.5 L 1144.0 1213.5 L 1146.5 1216.0 L 1147.0 1239.5 L 1156.0 1236.5 L 1160.5 1232.0 L 1163.5 1222.0 L 1166.0 1221.5 L 1170.5 1233.0 L 1177.0 1239.5 L 1183.0 1240.5 L 1183.5 1220.0 L 1186.0 1215.5 L 1208.5 1216.0 L 1209.0 1190.5 L 1172.0 1189.5 L 1159.5 1187.0 L 1163.5 1077.0 L 1165.0 1075.5 L 1209.0 1077.5 L 1213.5 1076.0 L 1218.5 917.0 L 1221.0 914.5 L 1269.0 916.5 L 1270.5 876.0 L 1274.0 872.5 L 1447.0 878.5 L 1449.5 881.0 L 1443.0 1110.5 L 2108.0 1137.5 L 2109.5 1135.0 L 2115.5 927.0 L 2118.0 924.5 L 2156.0 926.5 L 2157.5 925.0 L 2157.5 893.0 L 2160.0 890.5 L 2242.0 893.5 L 2244.5 896.0 L 2243.5 929.0 L 2272.0 930.5 L 2273.5 893.0 L 2277.0 890.5 L 2295.0 892.5"/>
    <path d="M 1446.0 400.5 L 1454.5 400.0 L 1457.5 317.0 L 1456.0 315.5 L 1449.5 317.0 L 1449.5 320.0 L 1452.5 322.0 L 1450.5 390.0 L 1449.5 394.0 L 1445.5 396.0"/>
    <path d="M 1447.5 385.0 L 1448.5 339.0 L 1444.0 339.5 L 1434.0 335.5 L 1425.0 322.5 L 1253.0 317.5 L 1251.5 319.0 L 1250.0 385.5 L 1422.0 391.5 L 1424.5 386.0 L 1432.0 378.5 L 1440.0 375.5 L 1445.5 378.0 L 1445.5 385.0 Z"/>
    <path d="M 1438.0 600.5 L 1445.5 421.0 L 1461.0 418.5 L 1468.5 411.0 L 1469.5 405.0 L 1444.0 404.5 L 1441.5 402.0 L 1442.0 379.5 L 1434.0 381.5 L 1428.5 387.0 L 1423.0 403.5 L 1250.0 397.5 L 1248.5 399.0 L 1241.5 593.0 L 1243.0 594.5"/>
    <path d="M 1071.5 470.0 L 1069.0 468.5 L 1066.5 470.0 L 1063.5 567.0 L 1061.0 590.5 L 445.0 567.5 L 419.5 568.0 L 421.0 572.5 L 525.0 575.5 L 536.5 578.0 L 534.0 690.5 L 537.0 690.5 L 538.5 687.0 L 541.5 579.0 L 544.0 576.5 L 603.0 578.5 L 605.5 581.0 L 602.0 691.5 L 606.5 691.0 L 609.5 591.0 L 612.0 579.5 L 865.0 588.5 L 867.5 592.0 L 860.5 789.0 L 858.0 792.5 L 609.0 784.5 L 603.5 782.0 L 604.5 753.0 L 603.0 751.5 L 599.5 752.0 L 598.5 780.0 L 596.0 783.5 L 549.0 782.5 L 534.5 780.0 L 537.0 723.5 L 597.0 724.5 L 601.0 728.5 L 604.0 728.5 L 605.5 727.0 L 605.5 716.0 L 602.0 714.5 L 598.0 719.5 L 540.0 717.5 L 536.0 713.5 L 533.0 713.5 L 531.5 715.0 L 529.5 779.0 L 528.0 780.5 L 273.0 772.5 L 271.5 771.0 L 271.5 744.0 L 279.5 568.0 L 284.0 566.5 L 394.0 571.5 L 395.5 567.0 L 391.0 565.5 L 127.0 556.5 L 125.5 558.0 L 116.5 765.0 L 112.0 767.5 L 68.0 765.5 L 67.5 770.0 L 71.0 771.5 L 180.0 775.5 L 352.0 779.5 L 1058.0 804.5 L 1059.5 803.0"/>
    <path d="M 525.5 777.0 L 528.5 711.0 L 530.0 709.5 L 552.0 710.5 L 553.5 709.0 L 550.5 701.0 L 546.0 696.5 L 538.0 693.5 L 529.5 693.0 L 533.5 581.0 L 532.0 579.5 L 417.0 575.5 L 416.0 551.5 L 408.0 553.5 L 402.5 559.0 L 399.5 565.0 L 399.5 572.0 L 397.0 574.5 L 291.0 570.5 L 282.5 572.0 L 279.5 676.0 L 274.5 760.0 L 276.0 769.5"/>
    <path d="M 583.0 715.5 L 582.5 707.0 L 584.5 702.0 L 598.5 691.0 L 601.5 583.0 L 600.0 581.5 L 546.0 580.5 L 544.5 584.0 L 541.5 690.0 L 553.5 699.0 L 556.5 705.0 L 555.0 714.5"/>
    <path d="M 856.5 789.0 L 863.5 618.0 L 863.0 591.5 L 623.0 582.5 L 613.5 584.0 L 610.5 693.0 L 596.0 696.5 L 588.5 703.0 L 585.5 709.0 L 587.0 711.5 L 608.0 711.5 L 609.5 714.0 L 608.5 730.0 L 607.0 731.5 L 587.0 731.5 L 585.5 733.0 L 591.0 743.5 L 598.0 747.5 L 607.5 749.0 L 606.5 779.0 L 608.0 780.5"/>
    <path d="M 1053.0 799.5 L 867.0 793.5 L 865.5 792.0 L 872.5 590.0 L 874.0 588.5 L 1060.0 595.5 L 1061.5 597.0 L 1055.5 788.0"/>
    <path d="M 1552.0 814.5 L 1553.5 813.0 L 1554.5 777.0 L 1627.5 620.0 L 1626.0 618.5 L 1472.0 613.5 L 1470.5 599.0 L 1466.0 593.5 L 1459.0 589.5 L 1455.5 590.0 L 1454.5 611.0 L 1451.0 613.5 L 1353.0 609.5 L 1351.5 631.0 L 1365.5 634.0 L 1365.5 648.0 L 1364.0 649.5 L 1341.0 648.5 L 1340.5 651.0 L 1347.0 661.5 L 1355.0 665.5 L 1364.5 667.0 L 1360.5 806.0 L 1362.0 807.5"/>
    <path d="M 1050.0 796.5 L 1051.5 795.0 L 1058.5 600.0 L 1057.0 598.5 L 877.0 592.5 L 875.5 596.0 L 868.5 788.0 L 874.0 790.5"/>
    <path d="M 1843.0 820.5 L 1842.5 814.0 L 1835.0 805.5 L 1820.5 801.0 L 1825.5 626.0 L 1673.0 620.5 L 1670.5 606.0 L 1663.0 598.5 L 1657.0 596.5 L 1655.5 598.0 L 1654.5 619.0 L 1652.0 620.5 L 1642.0 619.5 L 1566.5 780.0 L 1565.5 814.0 L 1568.0 815.5 L 1819.0 824.5 L 1821.0 819.5"/>
    <path d="M 1343.5 633.0 L 1342.0 634.5 L 1239.0 631.5 L 1236.5 627.0 L 1237.5 605.0 L 1239.0 602.5 L 1342.0 605.5 L 1344.5 608.0"/>
    <path d="M 2075.0 834.5 L 2076.5 833.0 L 2082.5 646.0 L 2082.5 636.0 L 2076.5 633.0 L 2077.5 612.0 L 2076.0 610.5 L 2071.0 611.5 L 2063.5 617.0 L 2057.0 633.5 L 1897.0 628.5 L 1895.5 630.0 L 1894.5 669.0 L 1880.0 671.5 L 1871.5 681.0 L 1872.0 685.5 L 1886.0 685.5 L 1894.5 688.0 L 1893.5 707.0 L 1869.5 708.0 L 1871.5 715.0 L 1878.0 721.5 L 1892.5 726.0 L 1889.5 826.0 L 1891.0 827.5"/>
    <path d="M 1881.0 691.5 L 1881.0 688.5 L 1869.0 688.5 L 1867.5 682.0 L 1871.5 674.0 L 1883.5 665.0 L 1884.5 629.0 L 1883.0 627.5 L 1839.0 626.5 L 1837.5 628.0 L 1836.5 689.0"/>
    <path d="M 1351.5 700.0 L 1352.5 668.0 L 1341.5 661.0 L 1337.5 653.0 L 1337.5 647.0 L 1339.0 645.5 L 1353.0 645.5 L 1353.0 643.5 L 1241.0 639.5 L 1239.5 641.0 L 1237.5 691.0 L 1239.0 696.5"/>
    <path d="M 1880.0 750.5 L 1881.5 729.0 L 1869.5 719.0 L 1866.5 713.0 L 1866.5 705.0 L 1880.0 704.5 L 1880.5 703.0 L 1836.0 701.5 L 1834.5 749.0"/>
    <path d="M 596.5 716.0 L 596.0 714.5 L 586.5 715.0 L 587.0 716.5"/>
    <path d="M 593.0 780.5 L 595.5 774.0 L 595.5 750.0 L 585.5 743.0 L 581.5 731.0 L 583.5 728.0 L 541.0 725.5 L 539.5 727.0 L 537.5 777.0 L 539.0 778.5"/>
    <path d="M 1877.0 826.5 L 1878.5 825.0 L 1879.5 763.0 L 1835.0 760.5 L 1833.5 762.0 L 1832.5 801.0 L 1840.0 804.5 L 1845.5 811.0 L 1847.5 821.0 L 1846.0 823.5 L 1833.0 823.5 L 1832.5 825.0"/>
    <path d="M 137.0 809.5 L 138.5 778.0 L 129.0 776.5 L 127.5 809.0"/>
    <path d="M 149.0 810.5 L 150.5 809.0 L 152.5 779.0 L 151.0 777.5 L 142.0 777.5 L 140.5 809.0"/>
    <path d="M 163.0 810.5 L 164.5 809.0 L 165.5 779.0 L 156.0 777.5 L 153.5 809.0"/>
    <path d="M 175.0 811.5 L 177.5 810.0 L 179.5 780.0 L 170.0 778.5 L 168.5 781.0 L 167.5 810.0"/>
    <path d="M 190.0 811.5 L 191.5 810.0 L 192.5 780.0 L 184.0 778.5 L 182.5 780.0 L 180.5 810.0"/>
    <path d="M 458.0 1296.5 L 459.0 1290.5 L 260.0 1284.5 L 249.5 1282.0 L 256.5 1080.0 L 259.0 1077.5 L 284.0 1077.5 L 285.5 1073.0 L 217.0 1070.5 L 214.5 1068.0 L 223.5 860.0 L 222.0 858.5 L 70.0 853.5 L 68.5 852.0 L 69.5 812.0 L 66.0 811.5 L 63.5 827.0 L 53.5 1068.0 L 55.0 1069.5 L 97.0 1070.5 L 101.5 1073.0 L 94.5 1283.0 L 102.0 1284.5 L 107.5 1283.0 L 106.0 1278.5 L 99.5 1277.0 L 105.5 1126.0 L 237.0 1129.5 L 248.5 1132.0 L 243.5 1282.0 L 238.5 1285.0 L 240.0 1289.5"/>
    <path d="M 121.0 851.5 L 122.5 850.0 L 123.5 820.0 L 114.0 819.5 L 112.5 822.0 L 111.5 850.0"/>
    <path d="M 135.0 851.5 L 136.5 821.0 L 128.0 819.5 L 126.5 821.0 L 125.5 851.0"/>
    <path d="M 148.0 852.5 L 150.5 822.0 L 149.0 820.5 L 140.0 820.5 L 138.5 852.0"/>
    <path d="M 160.0 853.5 L 162.5 852.0 L 163.5 822.0 L 154.0 820.5 L 152.5 852.0"/>
    <path d="M 175.0 853.5 L 176.5 822.0 L 168.0 821.5 L 165.5 852.0"/>
    <path d="M 188.0 853.5 L 189.5 852.0 L 190.5 823.0 L 181.0 821.5 L 179.5 853.0"/>
    <path d="M 787.5 1048.0 L 786.0 1049.5 L 690.0 1047.5 L 687.5 1046.0 L 687.5 1038.0 L 684.5 1030.0 L 675.0 1021.5 L 670.5 1022.0 L 669.0 1045.5 L 331.0 1035.5 L 332.5 958.0 L 338.5 843.0 L 340.0 841.5 L 450.0 844.5 L 470.0 845.5 L 472.5 850.0 L 470.0 857.5 L 402.0 855.5 L 400.5 857.0 L 400.5 869.0 L 402.0 870.5 L 412.0 870.5 L 413.5 872.0 L 411.5 911.0 L 410.0 912.5 L 397.5 913.0 L 396.5 935.0 L 398.0 936.5 L 474.0 938.5 L 473.5 932.0 L 477.5 926.0 L 474.5 922.0 L 474.5 916.0 L 477.5 912.0 L 474.5 905.0 L 477.5 899.0 L 475.5 889.0 L 480.0 882.5 L 493.0 882.5 L 495.0 873.5 L 504.0 873.5 L 505.5 875.0 L 505.5 884.0 L 515.0 883.5 L 521.5 891.0 L 518.5 898.0 L 521.5 907.0 L 517.5 912.0 L 520.5 918.0 L 520.5 922.0 L 517.5 926.0 L 519.5 931.0 L 519.0 940.5 L 583.0 942.5 L 592.5 941.0 L 593.5 919.0 L 580.0 917.5 L 578.5 915.0 L 580.5 883.0 L 582.0 876.5 L 594.0 876.5 L 595.5 875.0 L 595.5 862.0 L 531.0 859.5 L 529.5 858.0 L 529.5 849.0 L 531.0 847.5 L 676.0 852.5 L 679.5 866.0 L 690.0 875.5 L 694.5 874.0 L 694.5 855.0 L 697.0 852.5 L 794.0 855.5 L 795.5 857.0"/>
    <path d="M 666.5 1042.0 L 666.0 1037.5 L 659.5 1036.0 L 658.5 1028.0 L 666.5 866.0 L 669.0 860.5 L 673.5 860.0 L 673.0 855.5 L 534.0 851.5 L 535.0 856.5 L 598.0 858.5 L 599.5 861.0 L 595.5 942.0 L 593.0 945.5 L 501.0 942.5 L 499.5 941.0 L 502.5 883.0 L 501.0 876.5 L 498.0 876.5 L 496.5 881.0 L 494.5 930.0 L 492.0 941.5 L 396.0 939.5 L 393.5 937.0 L 397.5 854.0 L 400.0 851.5 L 468.0 853.5 L 468.5 850.0 L 464.0 848.5 L 380.0 845.5 L 342.5 846.0 L 336.5 944.0 L 333.5 1031.0 L 335.0 1032.5"/>
    <path d="M 2184.0 885.5 L 2186.5 881.0 L 2186.5 853.0 L 2177.0 851.5 L 2175.5 884.0"/>
    <path d="M 2199.0 885.5 L 2200.5 854.0 L 2191.0 852.5 L 2189.5 854.0 L 2189.5 885.0"/>
    <path d="M 2212.0 886.5 L 2213.5 885.0 L 2214.5 854.0 L 2205.0 852.5 L 2203.5 854.0 L 2202.5 884.0"/>
    <path d="M 2227.0 886.5 L 2228.5 854.0 L 2218.0 853.5 L 2216.5 885.0 L 2218.0 886.5"/>
    <path d="M 2240.0 886.5 L 2241.5 885.0 L 2241.5 855.0 L 2234.0 853.5 L 2231.5 855.0 L 2230.5 885.0"/>
    <path d="M 783.0 1045.5 L 785.5 1022.0 L 791.5 860.0 L 699.0 856.5 L 700.0 861.5 L 783.0 863.5 L 786.5 866.0 L 781.5 998.0 L 778.0 1040.5 L 692.0 1038.5 L 690.5 1042.0 L 692.0 1043.5"/>
    <path d="M 1072.5 1219.0 L 1072.0 1214.5 L 1045.0 1213.5 L 1043.5 1212.0 L 1054.5 913.0 L 1053.0 911.5 L 1008.0 910.5 L 1005.5 908.0 L 1006.0 865.5 L 844.0 860.5 L 842.5 862.0 L 833.5 1086.0 L 829.0 1090.5 L 290.5 1073.0 L 292.0 1078.5 L 514.0 1085.5 L 515.5 1087.0 L 515.5 1115.0 L 509.5 1254.0 L 511.0 1255.5 L 515.5 1253.0 L 519.5 1154.0 L 527.0 1152.5 L 589.0 1154.5 L 604.5 1157.0 L 598.5 1294.0 L 597.0 1295.5 L 515.0 1292.5 L 513.5 1291.0 L 513.5 1279.0 L 510.0 1277.5 L 508.5 1279.0 L 508.5 1289.0 L 503.5 1294.0 L 505.0 1298.5 L 724.0 1304.5 L 787.0 1307.5 L 788.5 1306.0 L 788.0 1302.5 L 605.0 1295.5 L 604.5 1273.0 L 610.5 1145.0 L 607.0 1143.5 L 602.0 1150.5 L 521.0 1147.5 L 519.5 1146.0 L 521.5 1087.0 L 523.0 1085.5 L 605.0 1087.5 L 607.5 1091.0 L 606.5 1119.0 L 608.0 1120.5 L 611.5 1120.0 L 612.5 1091.0 L 616.0 1087.5 L 831.0 1095.5 L 832.5 1105.0 L 824.5 1299.0 L 821.0 1303.5 L 813.0 1303.5 L 813.0 1308.5 L 828.5 1308.0 L 832.5 1213.0 L 835.0 1211.5"/>
    <path d="M 775.0 1037.5 L 783.5 869.0 L 782.0 867.5 L 699.0 864.5 L 697.5 878.0 L 690.0 879.5 L 678.5 871.0 L 675.0 863.5 L 672.0 863.5 L 669.5 869.0 L 662.5 1034.0 L 666.5 1034.0 L 667.5 1019.0 L 673.0 1017.5 L 681.0 1020.5 L 687.5 1027.0 L 692.0 1035.5"/>
    <path d="M 1036.0 1213.5 L 835.0 1206.5 L 832.5 1204.0 L 845.5 912.0 L 847.0 910.5 L 967.5 914.0 L 967.0 908.5 L 847.0 904.5 L 845.5 902.0 L 846.5 876.0 L 849.0 865.5 L 1000.0 870.5 L 1001.5 872.0 L 1000.5 907.0 L 999.0 909.5 L 992.5 910.0 L 991.5 914.0 L 993.0 915.5 L 1042.0 916.5 L 1049.5 919.0 L 1038.5 1211.0 Z"/>
    <path d="M 997.5 905.0 L 998.5 875.0 L 997.0 873.5 L 855.0 868.5 L 850.5 870.0 L 850.0 901.5 L 969.0 905.5 L 971.5 900.0 L 979.0 892.5 L 990.0 889.5 L 992.5 892.0 L 992.5 906.0"/>
    <path d="M 407.0 886.5 L 408.5 878.0 L 405.0 876.5 L 403.5 879.0 L 405.5 882.0 L 403.5 886.0 Z"/>
    <path d="M 2220.5 1363.0 L 2227.5 1152.0 L 2231.0 1149.5 L 2272.0 1151.5 L 2273.5 1150.0 L 2282.0 894.5 L 2277.5 895.0 L 2276.5 932.0 L 2273.0 934.5 L 2119.5 929.0 L 2112.5 1139.0 L 2111.0 1140.5 L 1443.0 1114.5 L 1439.5 1113.0 L 1438.5 1103.0 L 1444.5 947.0 L 1445.0 882.5 L 1275.0 876.5 L 1273.5 915.0 L 1271.0 919.5 L 1222.5 919.0 L 1212.5 1218.0 L 1211.0 1219.5 L 1189.0 1218.5 L 1187.5 1223.0 L 1189.0 1224.5 L 1428.0 1233.5 L 1429.5 1235.0 L 1427.5 1331.0 L 1429.0 1332.5 L 1438.5 1332.0 L 1438.5 1328.0 L 1432.5 1324.0 L 1438.5 1121.0 L 1444.0 1118.5 L 1650.0 1127.5 L 1652.5 1130.0 L 1646.5 1335.0 L 1645.0 1336.5 L 1480.0 1328.5 L 1464.0 1328.5 L 1464.0 1333.5 L 1790.0 1348.5 L 2025.5 1356.0 L 2024.0 1351.5 L 1749.0 1341.5 L 1745.5 1340.0 L 1745.5 1308.0 L 1744.0 1306.5 L 1740.5 1309.0 L 1740.5 1338.0 L 1738.0 1340.5 L 1654.0 1336.5 L 1652.5 1335.0 L 1653.5 1281.0 L 1655.0 1279.5 L 1744.0 1283.5 L 1746.5 1282.0 L 1750.5 1133.0 L 1752.0 1131.5 L 2062.0 1144.5 L 2064.5 1147.0 L 2058.5 1333.0 L 2057.5 1350.0 L 2056.0 1352.5 L 2051.0 1352.5 L 2050.5 1357.0 L 2192.0 1363.5"/>
    <path d="M 1987.5 1092.0 L 1983.0 1096.5 L 1612.0 1081.5 L 1605.5 1079.0 L 1603.5 1065.0 L 1593.0 1055.5 L 1588.5 1056.0 L 1588.5 1076.0 L 1587.0 1079.5 L 1489.0 1075.5 L 1487.5 1073.0 L 1493.5 883.0 L 1495.0 881.5 L 1592.0 885.5 L 1595.5 899.0 L 1607.0 909.5 L 1610.5 909.0 L 1612.0 886.5 L 1785.0 893.5 L 1786.5 903.0 L 1784.0 905.5 L 1696.0 901.5 L 1694.5 903.0 L 1693.5 926.0 L 1708.5 929.0 L 1707.5 967.0 L 1706.0 968.5 L 1693.0 968.5 L 1692.5 982.0 L 1696.0 983.5 L 1791.0 987.5 L 1790.5 980.0 L 1793.5 976.0 L 1791.5 964.0 L 1794.5 960.0 L 1791.5 956.0 L 1791.5 950.0 L 1794.5 946.0 L 1791.5 940.0 L 1792.5 935.0 L 1798.0 930.5 L 1809.0 931.5 L 1811.0 921.5 L 1820.0 921.5 L 1822.5 924.0 L 1821.5 931.0 L 1823.0 932.5 L 1831.0 931.5 L 1836.0 933.5 L 1838.5 937.0 L 1838.5 944.0 L 1835.5 947.0 L 1838.5 952.0 L 1838.5 956.0 L 1835.5 961.0 L 1838.5 969.0 L 1835.5 975.0 L 1838.0 989.5 L 1922.0 992.5 L 1923.5 991.0 L 1923.5 978.0 L 1909.5 975.0 L 1910.5 937.0 L 1912.0 935.5 L 1924.5 935.0 L 1925.5 912.0 L 1924.0 910.5 L 1846.0 907.5 L 1844.5 906.0 L 1845.5 897.0 L 1873.0 896.5 L 1974.0 901.5 L 1990.0 900.5 L 1992.5 903.0"/>
    <path d="M 590.0 892.5 L 588.5 887.0 L 590.5 883.0 L 588.0 882.5 L 585.5 885.0 L 585.5 891.0"/>
    <path d="M 1429.0 1227.5 L 1221.0 1220.5 L 1217.5 1218.0 L 1226.5 936.0 L 1229.0 924.5 L 1367.0 929.5 L 1368.5 925.0 L 1362.5 922.0 L 1362.5 892.0 L 1365.0 884.5 L 1438.0 886.5 L 1440.5 889.0 L 1439.5 924.0 L 1437.0 926.5 L 1392.5 925.0 L 1394.0 930.5 L 1436.0 931.5 L 1438.5 933.0 L 1430.5 1226.0 Z"/>
    <path d="M 1583.0 1076.5 L 1584.5 1075.0 L 1583.0 1071.5 L 1505.0 1068.5 L 1496.5 1066.0 L 1501.5 893.0 L 1503.0 890.5 L 1588.0 894.5 L 1589.5 890.0 L 1585.0 888.5 L 1498.0 885.5 L 1496.5 887.0 L 1491.5 1071.0 L 1493.0 1072.5"/>
    <path d="M 1436.5 921.0 L 1436.0 890.5 L 1372.0 887.5 L 1366.5 889.0 L 1366.0 920.5 L 1369.5 918.0 L 1369.5 906.0 L 1375.0 904.5 L 1384.0 908.5 L 1393.0 921.5 L 1435.0 922.5 Z"/>
    <path d="M 398.5 894.0 L 409.0 893.5 L 409.5 891.0 L 400.0 888.5"/>
    <path d="M 1983.5 1091.0 L 1988.5 906.0 L 1987.0 904.5 L 1848.5 900.0 L 1849.0 904.5 L 1914.0 906.5 L 1928.5 909.0 L 1926.5 994.0 L 1925.0 995.5 L 1906.0 995.5 L 1818.0 990.5 L 1818.5 926.0 L 1817.0 924.5 L 1812.5 926.0 L 1811.5 981.0 L 1809.0 990.5 L 1690.0 985.5 L 1688.5 975.0 L 1692.0 898.5 L 1782.0 901.5 L 1782.5 898.0 L 1781.0 896.5 L 1614.5 891.0 L 1616.0 895.5 L 1624.5 897.0 L 1619.5 1071.0 L 1610.0 1072.5 L 1610.0 1077.5 L 1972.0 1092.5 L 1982.0 1092.5 Z"/>
    <path d="M 594.5 901.0 L 594.0 893.5 L 589.0 896.5 L 583.5 895.0 L 584.0 899.5 L 589.0 898.5"/>
    <path d="M 1034.0 1209.5 L 1035.5 1205.0 L 1046.5 922.0 L 1045.0 920.5 L 989.0 918.5 L 989.5 895.0 L 988.0 893.5 L 981.0 895.5 L 974.5 902.0 L 970.0 917.5 L 850.0 913.5 L 848.5 915.0 L 836.5 1202.0 L 842.0 1203.5"/>
    <path d="M 1615.0 1069.5 L 1616.5 1068.0 L 1621.5 900.0 L 1615.0 898.5 L 1613.5 912.0 L 1608.0 913.5 L 1599.0 909.5 L 1591.0 897.5 L 1506.0 893.5 L 1504.5 900.0 L 1500.5 1064.0 L 1583.0 1068.5 L 1584.5 1067.0 L 1584.5 1052.0 L 1588.0 1050.5 L 1598.0 1053.5 L 1605.5 1061.0 L 1609.0 1069.5"/>
    <path d="M 2170.0 927.5 L 2171.5 925.0 L 2171.5 895.0 L 2163.0 894.5 L 2161.5 896.0 L 2160.5 926.0"/>
    <path d="M 2184.0 927.5 L 2185.5 896.0 L 2176.0 894.5 L 2174.5 896.0 L 2174.5 927.0"/>
    <path d="M 2197.0 928.5 L 2198.5 927.0 L 2199.5 896.0 L 2190.0 895.5 L 2188.5 897.0 L 2187.5 927.0"/>
    <path d="M 2212.0 928.5 L 2213.5 897.0 L 2204.0 895.5 L 2202.5 897.0 L 2201.5 928.0"/>
    <path d="M 405.0 906.5 L 407.5 904.0 L 406.0 896.5 L 403.5 897.0 L 404.5 902.0 L 402.5 903.0"/>
    <path d="M 2225.0 929.5 L 2226.5 928.0 L 2226.5 897.0 L 2217.0 896.5 L 2215.5 928.0"/>
    <path d="M 2239.0 929.5 L 2240.5 898.0 L 2232.0 896.5 L 2230.5 898.0 L 2229.5 929.0"/>
    <path d="M 589.0 911.5 L 587.5 906.0 L 589.5 903.0 L 586.0 902.5 L 584.5 910.0"/>
    <path d="M 1426.0 1224.5 L 1435.5 936.0 L 1431.0 934.5 L 1390.0 933.5 L 1386.5 917.0 L 1376.0 908.5 L 1372.5 909.0 L 1371.5 931.0 L 1370.0 932.5 L 1232.0 927.5 L 1230.5 929.0 L 1220.5 1215.0 L 1231.0 1217.5"/>
    <path d="M 482.0 921.5 L 482.5 917.0 L 480.0 916.5 L 478.5 919.0"/>
    <path d="M 482.0 935.5 L 482.5 931.0 L 480.0 930.5 L 478.5 934.0 Z"/>
    <path d="M 511.0 936.5 L 514.5 935.0 L 513.0 931.5"/>
    <path d="M 1701.0 943.5 L 1703.5 940.0 L 1703.5 936.0 L 1699.0 933.5 L 1698.5 942.0 Z"/>
    <path d="M 1920.0 951.5 L 1920.5 948.0 L 1918.5 946.0 L 1920.5 942.0 L 1918.0 941.5 L 1915.5 944.0 L 1915.5 949.0 L 1917.0 951.5 Z"/>
    <path d="M 1692.5 950.0 L 1694.0 951.5 L 1697.0 949.5 L 1704.0 950.5 L 1704.5 946.0 L 1699.0 946.5 L 1694.0 943.5"/>
    <path d="M 1701.0 962.5 L 1703.5 957.0 L 1702.5 954.0 L 1699.0 952.5 L 1697.5 955.0 L 1699.5 958.0 L 1697.5 959.0 L 1697.5 962.0 Z"/>
    <path d="M 1830.0 957.5 L 1833.5 955.0 L 1832.0 952.5 L 1829.5 955.0 Z"/>
    <path d="M 1924.5 959.0 L 1924.0 952.5 L 1921.0 954.5 L 1913.5 954.0 L 1914.0 958.5 L 1920.0 957.5"/>
    <path d="M 1919.0 971.5 L 1920.5 968.0 L 1917.5 966.0 L 1920.5 962.0 L 1917.0 960.5 L 1914.5 967.0"/>
    <path d="M 1799.0 969.5 L 1799.5 965.0 L 1798.0 964.5 L 1795.5 968.0 Z"/>
    <path d="M 1799.0 984.5 L 1799.5 980.0 L 1797.0 979.5 L 1795.5 982.0"/>
    <path d="M 1099.5 1085.0 L 1099.0 1076.5 L 1062.0 1074.5 L 1052.5 1076.0 L 1054.0 1085.5 L 1098.0 1086.5 Z"/>
    <path d="M 1213.5 1090.0 L 1212.0 1080.5 L 1168.0 1079.5 L 1166.5 1084.0 L 1168.0 1089.5 L 1209.0 1091.5"/>
    <path d="M 500.5 1311.0 L 501.5 1289.0 L 500.0 1287.5 L 489.0 1288.5 L 484.0 1285.5 L 483.5 1283.0 L 487.0 1281.5 L 488.0 1286.5 L 499.0 1286.5 L 500.5 1283.0 L 503.5 1282.0 L 506.0 1275.5 L 521.0 1271.5 L 528.5 1263.0 L 528.0 1258.5 L 506.0 1257.5 L 503.5 1260.0 L 502.5 1268.0 L 498.0 1269.5 L 496.5 1266.0 L 498.0 1263.5 L 501.5 1264.0 L 499.5 1260.0 L 504.5 1254.0 L 502.0 1251.5 L 497.0 1252.5 L 495.5 1255.0 L 498.5 1258.0 L 495.0 1260.5 L 493.5 1259.0 L 494.5 1253.0 L 490.5 1250.0 L 497.0 1246.5 L 498.5 1240.0 L 505.5 1235.0 L 505.5 1220.0 L 507.5 1216.0 L 507.5 1171.0 L 509.5 1150.0 L 506.5 1148.0 L 506.5 1145.0 L 509.5 1142.0 L 507.5 1137.0 L 504.5 1135.0 L 507.0 1134.5 L 509.5 1130.0 L 504.5 1129.0 L 507.5 1120.0 L 504.5 1119.0 L 508.5 1114.0 L 505.5 1113.0 L 506.5 1098.0 L 504.0 1090.5 L 494.0 1088.5 L 489.0 1091.5 L 486.0 1088.5 L 431.0 1087.5 L 428.5 1091.0 L 430.5 1095.0 L 426.0 1095.5 L 423.0 1092.5 L 420.0 1092.5 L 419.0 1094.5 L 414.5 1094.0 L 416.5 1092.0 L 416.0 1089.5 L 423.0 1089.5 L 425.0 1086.5 L 413.0 1086.5 L 413.5 1090.0 L 409.0 1093.5 L 394.0 1093.5 L 395.0 1097.5 L 404.5 1098.0 L 402.0 1100.5 L 394.0 1100.5 L 393.0 1097.5 L 387.5 1098.0 L 390.0 1092.5 L 386.0 1093.5 L 385.0 1091.5 L 382.0 1092.5 L 378.0 1090.5 L 376.0 1095.5 L 374.0 1090.5 L 370.0 1092.5 L 365.0 1090.5 L 362.0 1085.5 L 352.0 1083.5 L 301.0 1082.5 L 299.0 1084.5 L 268.0 1081.5 L 267.0 1084.5 L 261.5 1084.0 L 257.5 1156.0 L 258.5 1188.0 L 261.5 1189.0 L 261.5 1193.0 L 256.5 1195.0 L 256.5 1200.0 L 265.5 1201.0 L 262.5 1203.0 L 264.5 1206.0 L 264.5 1213.0 L 261.5 1217.0 L 267.0 1219.5 L 268.5 1224.0 L 263.0 1232.5 L 260.0 1232.5 L 259.5 1228.0 L 257.5 1227.0 L 263.0 1227.5 L 263.5 1224.0 L 256.5 1224.0 L 255.0 1248.5 L 265.0 1247.5 L 263.5 1253.0 L 266.5 1255.0 L 268.0 1259.5 L 277.0 1252.5 L 283.0 1252.5 L 288.0 1255.5 L 289.0 1258.5 L 295.0 1255.5 L 299.5 1267.0 L 299.0 1270.5 L 297.0 1267.5 L 295.5 1270.0 L 300.0 1272.5 L 302.0 1276.5 L 309.5 1275.0 L 309.0 1277.5 L 304.0 1277.5 L 302.0 1281.5 L 308.0 1281.5 L 310.0 1279.5 L 312.0 1281.5 L 413.0 1283.5 L 456.0 1286.5 L 461.0 1285.5 L 465.0 1280.5 L 469.0 1283.5 L 473.0 1282.5 L 474.0 1287.5 L 462.5 1287.0 L 462.5 1311.0 L 467.0 1311.5 L 476.5 1304.0 L 478.0 1284.5 L 483.0 1286.5 L 485.5 1290.0 L 485.5 1305.0 L 493.0 1311.5 L 499.0 1312.5 Z"/>
    <path d="M 392.5 1091.0 L 396.0 1090.5 L 397.0 1088.5 L 400.0 1089.5 L 400.5 1087.0 L 395.0 1086.5"/>
    <path d="M 601.5 1146.0 L 600.0 1142.5 L 588.0 1142.5 L 586.5 1137.0 L 590.5 1128.0 L 602.5 1120.0 L 603.5 1092.0 L 602.0 1090.5 L 526.0 1088.5 L 524.5 1090.0 L 523.0 1144.5"/>
    <path d="M 1099.5 1098.0 L 1098.0 1089.5 L 1053.0 1088.5 L 1051.5 1093.0 L 1053.0 1098.5 L 1098.0 1099.5 Z"/>
    <path d="M 807.0 1325.5 L 808.5 1302.0 L 811.0 1299.5 L 819.0 1300.5 L 820.5 1299.0 L 828.5 1099.0 L 617.0 1091.5 L 614.5 1123.0 L 613.0 1124.5 L 601.0 1124.5 L 593.5 1131.0 L 590.5 1137.0 L 591.0 1139.5 L 606.0 1139.5 L 613.5 1142.0 L 607.5 1291.0 L 618.0 1293.5 L 790.0 1298.5 L 791.5 1300.0 L 791.5 1310.0 L 794.5 1317.0 L 801.0 1323.5"/>
    <path d="M 1212.5 1104.0 L 1212.0 1094.5 L 1171.0 1092.5 L 1166.5 1094.0 L 1167.0 1102.5"/>
    <path d="M 1098.5 1112.0 L 1098.0 1103.5 L 1053.0 1101.5 L 1051.5 1103.0 L 1052.0 1111.5 L 1089.0 1113.5"/>
    <path d="M 1212.5 1117.0 L 1211.0 1107.5 L 1167.0 1106.5 L 1165.5 1112.0 L 1167.0 1116.5 L 1206.0 1118.5"/>
    <path d="M 1098.5 1125.0 L 1097.0 1116.5 L 1053.0 1114.5 L 1050.5 1117.0 L 1051.0 1125.5 L 1097.0 1126.5 Z"/>
    <path d="M 1211.5 1131.0 L 1211.0 1121.5 L 1165.5 1121.0 L 1166.0 1130.5 L 1206.0 1132.5"/>
    <path d="M 1443.0 1349.5 L 1450.0 1347.5 L 1457.5 1340.0 L 1459.5 1327.0 L 1462.0 1324.5 L 1625.0 1332.5 L 1643.5 1332.0 L 1648.0 1131.5 L 1443.0 1122.5 L 1441.5 1124.0 L 1436.5 1323.0 L 1442.5 1326.0 L 1441.5 1348.0 Z"/>
    <path d="M 234.0 1305.5 L 235.5 1282.0 L 241.5 1278.0 L 245.5 1134.0 L 240.0 1132.5 L 109.0 1128.5 L 107.5 1131.0 L 106.5 1196.0 L 102.5 1275.0 L 200.0 1277.5 L 217.0 1279.5 L 219.5 1295.0 L 226.0 1302.5"/>
    <path d="M 1097.5 1140.0 L 1097.0 1130.5 L 1056.0 1128.5 L 1050.5 1130.0 L 1052.0 1139.5"/>
    <path d="M 1211.5 1144.0 L 1211.0 1135.5 L 1167.0 1133.5 L 1164.5 1139.0 L 1164.5 1143.0 L 1167.0 1144.5 L 1210.0 1145.5 Z"/>
    <path d="M 2045.5 1373.0 L 2046.5 1352.0 L 2048.0 1349.5 L 2053.5 1348.0 L 2060.5 1175.0 L 2060.0 1147.5 L 1761.0 1134.5 L 1753.5 1136.0 L 1750.5 1285.0 L 1747.0 1287.5 L 1734.0 1287.5 L 1725.5 1297.0 L 1727.0 1302.5 L 1741.0 1302.5 L 1749.5 1305.0 L 1749.0 1337.5 L 2026.0 1347.5 L 2029.5 1351.0 L 2029.5 1361.0 L 2032.5 1367.0 L 2040.0 1373.5 L 2044.0 1374.5 Z"/>
    <path d="M 1097.5 1153.0 L 1096.0 1143.5 L 1051.0 1142.5 L 1049.5 1145.0 L 1051.0 1153.5 L 1096.0 1154.5 Z"/>
    <path d="M 1211.5 1156.0 L 1211.5 1150.0 L 1209.0 1148.5 L 1164.5 1148.0 L 1165.0 1157.5 L 1210.0 1159.5 Z"/>
    <path d="M 594.0 1292.5 L 596.5 1277.0 L 600.5 1159.0 L 523.0 1155.5 L 521.5 1157.0 L 518.5 1255.0 L 531.0 1255.5 L 532.5 1261.0 L 529.5 1268.0 L 517.5 1277.0 L 516.5 1288.0 L 531.0 1290.5"/>
    <path d="M 1096.5 1167.0 L 1095.0 1157.5 L 1049.5 1157.0 L 1050.0 1166.5"/>
    <path d="M 1210.5 1172.0 L 1210.0 1162.5 L 1164.5 1162.0 L 1165.0 1171.5"/>
    <path d="M 1096.5 1178.0 L 1095.0 1171.5 L 1057.0 1169.5 L 1048.5 1171.0 L 1050.0 1180.5 L 1095.0 1181.5 Z"/>
    <path d="M 1210.5 1184.0 L 1210.0 1176.5 L 1165.0 1174.5 L 1163.5 1176.0 L 1165.0 1185.5 L 1209.0 1186.5 Z"/>
    <path d="M 1142.5 1222.0 L 1142.5 1218.0 L 1140.0 1216.5 L 1118.0 1216.5 L 1116.5 1218.0 L 1118.0 1221.5"/>
    <path d="M 210.0 1288.5 L 214.5 1287.0 L 214.0 1282.5 L 208.5 1284.0"/>
    <path d="M 1736.5 1336.0 L 1737.5 1307.0 L 1736.0 1305.5 L 1723.0 1305.5 L 1720.5 1303.0 L 1721.5 1297.0 L 1729.0 1285.5 L 1657.5 1283.0 L 1655.5 1325.0 L 1657.0 1333.5"/>
  </g>
</svg>
